<?xml version="1.0" encoding="utf-8"?>
<!-- Generator: Adobe Illustrator 23.0.1, SVG Export Plug-In . SVG Version: 6.00 Build 0)  -->
<svg version="1.1" id="Layer_1" xmlns="http://www.w3.org/2000/svg" xmlns:xlink="http://www.w3.org/1999/xlink" x="0px" y="0px"
	 viewBox="0 0 54.1 54.1" style="enable-background:new 0 0 54.1 54.1;" xml:space="preserve">
<style type="text/css">
	.st0{fill:none;stroke:#000000;stroke-width:0.7;stroke-linecap:round;}
	.st1{fill:none;stroke:#000000;stroke-width:0.3;}
</style>
<g>
	<line class="st0" x1="25.5" y1="26.6" x2="25.5" y2="26.6"/>
	<line class="st0" x1="1.1" y1="12.5" x2="1.1" y2="12.5"/>
	<line class="st0" x1="3.7" y1="14" x2="3.7" y2="14"/>
	<line class="st0" x1="6.4" y1="12.2" x2="6.4" y2="12.2"/>
	<line class="st0" x1="6.4" y1="15.3" x2="6.4" y2="15.3"/>
	<line class="st0" x1="9.7" y1="13.2" x2="9.7" y2="13.2"/>
	<line class="st0" x1="12.7" y1="12.2" x2="12.7" y2="12.2"/>
	<line class="st0" x1="9.8" y1="16.7" x2="9.8" y2="16.7"/>
	<line class="st0" x1="13.1" y1="18.7" x2="13.1" y2="18.7"/>
	<line class="st0" x1="13" y1="15.6" x2="13" y2="15.6"/>
	<line class="st0" x1="15.5" y1="13.4" x2="15.5" y2="13.4"/>
	<line class="st0" x1="18.6" y1="11.4" x2="18.6" y2="11.4"/>
	<line class="st0" x1="4.5" y1="17.4" x2="4.5" y2="17.4"/>
	<line class="st0" x1="1.5" y1="16.9" x2="1.5" y2="16.9"/>
	<line class="st0" x1="2.9" y1="19.9" x2="2.9" y2="19.9"/>
	<line class="st0" x1="6.1" y1="20.5" x2="6.1" y2="20.5"/>
	<line class="st0" x1="9.3" y1="20.4" x2="9.3" y2="20.4"/>
	<line class="st0" x1="16.5" y1="18.3" x2="16.5" y2="18.3"/>
	<line class="st0" x1="15.1" y1="21.2" x2="15.1" y2="21.2"/>
	<line class="st0" x1="12.4" y1="22.6" x2="12.4" y2="22.6"/>
	<line class="st0" x1="18.1" y1="21.3" x2="18.1" y2="21.3"/>
	<line class="st0" x1="19.9" y1="18.5" x2="19.9" y2="18.5"/>
	<line class="st0" x1="18.9" y1="14.1" x2="18.9" y2="14.1"/>
	<line class="st0" x1="9.7" y1="9.7" x2="9.7" y2="9.7"/>
	<line class="st0" x1="23.2" y1="12.6" x2="23.2" y2="12.6"/>
	<line class="st0" x1="21.9" y1="15.3" x2="21.9" y2="15.3"/>
	<line class="st0" x1="22.9" y1="18.5" x2="22.9" y2="18.5"/>
	<line class="st0" x1="21.4" y1="21.5" x2="21.4" y2="21.5"/>
	<line class="st0" x1="25.3" y1="15.7" x2="25.3" y2="15.7"/>
	<line class="st0" x1="27.3" y1="13.1" x2="27.3" y2="13.1"/>
	<line class="st0" x1="26.4" y1="18.4" x2="26.4" y2="18.4"/>
	<line class="st0" x1="24.6" y1="21.6" x2="24.6" y2="21.6"/>
	<line class="st0" x1="29" y1="16.7" x2="29" y2="16.7"/>
	<line class="st0" x1="1.4" y1="22.7" x2="1.4" y2="22.7"/>
	<line class="st0" x1="4.5" y1="23.2" x2="4.5" y2="23.2"/>
	<line class="st0" x1="7.8" y1="23.4" x2="7.8" y2="23.4"/>
	<line class="st0" x1="30.8" y1="13.8" x2="30.8" y2="13.8"/>
	<line class="st0" x1="30.6" y1="18.9" x2="30.6" y2="18.9"/>
	<line class="st0" x1="33.3" y1="17.4" x2="33.3" y2="17.4"/>
	<line class="st0" x1="31.8" y1="22.1" x2="31.8" y2="22.1"/>
	<line class="st0" x1="35.2" y1="21.2" x2="35.2" y2="21.2"/>
	<line class="st0" x1="36.6" y1="17.8" x2="36.6" y2="17.8"/>
	<line class="st0" x1="36.5" y1="13.3" x2="36.5" y2="13.3"/>
	<line class="st0" x1="39.6" y1="16.2" x2="39.6" y2="16.2"/>
	<line class="st0" x1="41.6" y1="13.1" x2="41.6" y2="13.1"/>
	<line class="st0" x1="43.6" y1="16.3" x2="43.6" y2="16.3"/>
	<line class="st0" x1="40.8" y1="19.6" x2="40.8" y2="19.6"/>
	<line class="st0" x1="38.5" y1="22.3" x2="38.5" y2="22.3"/>
	<line class="st0" x1="45.1" y1="13.4" x2="45.1" y2="13.4"/>
	<line class="st0" x1="49.1" y1="9.4" x2="49.1" y2="9.4"/>
	<line class="st0" x1="52.3" y1="6.6" x2="52.3" y2="6.6"/>
	<line class="st0" x1="52.8" y1="10.6" x2="52.8" y2="10.6"/>
	<line class="st0" x1="49.9" y1="5.1" x2="49.9" y2="5.1"/>
	<line class="st0" x1="46.8" y1="7.6" x2="46.8" y2="7.6"/>
	<line class="st0" x1="43.3" y1="6" x2="43.3" y2="6"/>
	<line class="st0" x1="46" y1="4.8" x2="46" y2="4.8"/>
	<line class="st0" x1="52.8" y1="2.2" x2="52.8" y2="2.2"/>
	<line class="st0" x1="47.4" y1="1.5" x2="47.4" y2="1.5"/>
	<line class="st0" x1="43.6" y1="2" x2="43.6" y2="2"/>
	<line class="st0" x1="43.5" y1="10.2" x2="43.5" y2="10.2"/>
	<line class="st0" x1="40.6" y1="3.9" x2="40.6" y2="3.9"/>
	<line class="st0" x1="37.6" y1="2.4" x2="37.6" y2="2.4"/>
	<line class="st0" x1="34.6" y1="1.1" x2="34.6" y2="1.1"/>
	<line class="st0" x1="37.3" y1="5.3" x2="37.3" y2="5.3"/>
	<line class="st0" x1="35.6" y1="8.1" x2="35.6" y2="8.1"/>
	<line class="st0" x1="33.4" y1="11.5" x2="33.4" y2="11.5"/>
	<line class="st0" x1="32.2" y1="7.6" x2="32.2" y2="7.6"/>
	<line class="st0" x1="31.9" y1="4" x2="31.9" y2="4"/>
	<line class="st0" x1="28.1" y1="6.5" x2="28.1" y2="6.5"/>
	<line class="st0" x1="29.7" y1="10.4" x2="29.7" y2="10.4"/>
	<line class="st0" x1="29.8" y1="1.4" x2="29.8" y2="1.4"/>
	<line class="st0" x1="28.6" y1="4.4" x2="28.6" y2="4.4"/>
	<line class="st0" x1="26.3" y1="1.6" x2="26.3" y2="1.6"/>
	<line class="st0" x1="23" y1="1.1" x2="23" y2="1.1"/>
	<line class="st0" x1="24.6" y1="7.1" x2="24.6" y2="7.1"/>
	<line class="st0" x1="22.8" y1="9.6" x2="22.8" y2="9.6"/>
	<line class="st0" x1="21.3" y1="7.3" x2="21.3" y2="7.3"/>
	<line class="st0" x1="23.1" y1="4.1" x2="23.1" y2="4.1"/>
	<line class="st0" x1="19.3" y1="4.1" x2="19.3" y2="4.1"/>
	<line class="st0" x1="6.3" y1="9.3" x2="6.3" y2="9.3"/>
	<line class="st0" x1="3.3" y1="10.3" x2="3.3" y2="10.3"/>
	<line class="st0" x1="0.8" y1="8.3" x2="0.8" y2="8.3"/>
	<line class="st0" x1="8.6" y1="6.9" x2="8.6" y2="6.9"/>
	<line class="st0" x1="11.1" y1="4.8" x2="11.1" y2="4.8"/>
	<line class="st0" x1="9.6" y1="1.1" x2="9.6" y2="1.1"/>
	<line class="st0" x1="8.1" y1="3.6" x2="8.1" y2="3.6"/>
	<line class="st0" x1="6" y1="0.7" x2="6" y2="0.7"/>
	<line class="st0" x1="4.1" y1="5.8" x2="4.1" y2="5.8"/>
	<line class="st0" x1="4.8" y1="3.4" x2="4.8" y2="3.4"/>
	<line class="st0" x1="1.8" y1="0.9" x2="1.8" y2="0.9"/>
	<line class="st0" x1="0.8" y1="4.5" x2="0.8" y2="4.5"/>
	<line class="st0" x1="18.4" y1="6.3" x2="18.4" y2="6.3"/>
	<line class="st0" x1="18.3" y1="8.6" x2="18.3" y2="8.6"/>
	<line class="st0" x1="14.3" y1="10" x2="14.3" y2="10"/>
	<line class="st0" x1="14.9" y1="5.9" x2="14.9" y2="5.9"/>
	<line class="st0" x1="16.6" y1="1.9" x2="16.6" y2="1.9"/>
	<line class="st0" x1="14.3" y1="3.4" x2="14.3" y2="3.4"/>
	<line class="st0" x1="12.8" y1="0.9" x2="12.8" y2="0.9"/>
	<line class="st0" x1="39.9" y1="7.3" x2="39.9" y2="7.3"/>
	<line class="st0" x1="38.3" y1="10.6" x2="38.3" y2="10.6"/>
	<line class="st0" x1="48" y1="15.5" x2="48" y2="15.5"/>
	<line class="st0" x1="48.6" y1="11.9" x2="48.6" y2="11.9"/>
	<line class="st0" x1="52.3" y1="29.1" x2="52.3" y2="29.1"/>
	<line class="st0" x1="53.3" y1="31.9" x2="53.3" y2="31.9"/>
	<line class="st0" x1="53.1" y1="25.6" x2="53.1" y2="25.6"/>
	<line class="st0" x1="47.2" y1="18.8" x2="47.2" y2="18.8"/>
	<line class="st0" x1="51.1" y1="17.1" x2="51.1" y2="17.1"/>
	<line class="st0" x1="50.8" y1="22.9" x2="50.8" y2="22.9"/>
	<line class="st0" x1="50.3" y1="50.6" x2="50.3" y2="50.6"/>
	<line class="st0" x1="48.2" y1="22.1" x2="48.2" y2="22.1"/>
	<line class="st0" x1="52.8" y1="20.6" x2="52.8" y2="20.6"/>
	<line class="st0" x1="47.7" y1="28.1" x2="47.7" y2="28.1"/>
	<line class="st0" x1="46.3" y1="24.5" x2="46.3" y2="24.5"/>
	<line class="st0" x1="42.5" y1="23.7" x2="42.5" y2="23.7"/>
	<line class="st0" x1="40.2" y1="26.6" x2="40.2" y2="26.6"/>
	<line class="st0" x1="43.7" y1="27.2" x2="43.7" y2="27.2"/>
	<line class="st0" x1="33.5" y1="25.3" x2="33.5" y2="25.3"/>
	<line class="st0" x1="30.4" y1="25.1" x2="30.4" y2="25.1"/>
	<line class="st0" x1="27" y1="24.7" x2="27" y2="24.7"/>
	<line class="st0" x1="23.2" y1="24.6" x2="23.2" y2="24.6"/>
	<line class="st0" x1="20.3" y1="24" x2="20.3" y2="24"/>
	<line class="st0" x1="16.2" y1="24.1" x2="16.2" y2="24.1"/>
	<line class="st0" x1="11.9" y1="25.2" x2="11.9" y2="25.2"/>
	<line class="st0" x1="2.9" y1="25.5" x2="2.9" y2="25.5"/>
	<line class="st0" x1="5.8" y1="26.7" x2="5.8" y2="26.7"/>
	<line class="st0" x1="4.8" y1="29.3" x2="4.8" y2="29.3"/>
	<line class="st0" x1="1.9" y1="28.2" x2="1.9" y2="28.2"/>
	<line class="st0" x1="2.8" y1="31.2" x2="2.8" y2="31.2"/>
	<line class="st0" x1="6.4" y1="32.5" x2="6.4" y2="32.5"/>
	<line class="st0" x1="8.1" y1="29.5" x2="8.1" y2="29.5"/>
	<line class="st0" x1="9.7" y1="32.1" x2="9.7" y2="32.1"/>
	<line class="st0" x1="11.3" y1="28.7" x2="11.3" y2="28.7"/>
	<line class="st0" x1="12.6" y1="31.5" x2="12.6" y2="31.5"/>
	<line class="st0" x1="14.8" y1="30.5" x2="14.8" y2="30.5"/>
	<line class="st0" x1="13.9" y1="27.8" x2="13.9" y2="27.8"/>
	<line class="st0" x1="17" y1="28.3" x2="17" y2="28.3"/>
	<line class="st0" x1="19.9" y1="29.4" x2="19.9" y2="29.4"/>
	<line class="st0" x1="21.5" y1="27.2" x2="21.5" y2="27.2"/>
	<line class="st0" x1="18.4" y1="31.7" x2="18.4" y2="31.7"/>
	<line class="st0" x1="15.9" y1="33" x2="15.9" y2="33"/>
	<line class="st0" x1="13.2" y1="34.2" x2="13.2" y2="34.2"/>
	<line class="st0" x1="10.6" y1="34.4" x2="10.6" y2="34.4"/>
	<line class="st0" x1="7.5" y1="34.9" x2="7.5" y2="34.9"/>
	<line class="st0" x1="4.8" y1="35.4" x2="4.8" y2="35.4"/>
	<line class="st0" x1="2" y1="36.9" x2="2" y2="36.9"/>
	<line class="st0" x1="1.2" y1="40.2" x2="1.2" y2="40.2"/>
	<line class="st0" x1="3.9" y1="38.7" x2="3.9" y2="38.7"/>
	<line class="st0" x1="7" y1="37.8" x2="7" y2="37.8"/>
	<line class="st0" x1="6.7" y1="40.5" x2="6.7" y2="40.5"/>
	<line class="st0" x1="4.3" y1="42.1" x2="4.3" y2="42.1"/>
	<line class="st0" x1="1.5" y1="43.9" x2="1.5" y2="43.9"/>
	<line class="st0" x1="4.3" y1="44.9" x2="4.3" y2="44.9"/>
	<line class="st0" x1="7.6" y1="43.4" x2="7.6" y2="43.4"/>
	<line class="st0" x1="9.7" y1="41.6" x2="9.7" y2="41.6"/>
	<line class="st0" x1="10.9" y1="44.4" x2="10.9" y2="44.4"/>
	<line class="st0" x1="13.5" y1="42.9" x2="13.5" y2="42.9"/>
	<line class="st0" x1="15.5" y1="44.7" x2="15.5" y2="44.7"/>
	<line class="st0" x1="17.7" y1="42.5" x2="17.7" y2="42.5"/>
	<line class="st0" x1="14.8" y1="40.4" x2="14.8" y2="40.4"/>
	<line class="st0" x1="12.1" y1="39.8" x2="12.1" y2="39.8"/>
	<line class="st0" x1="11.9" y1="36.9" x2="11.9" y2="36.9"/>
	<line class="st0" x1="14.9" y1="37.3" x2="14.9" y2="37.3"/>
	<line class="st0" x1="17.4" y1="35.9" x2="17.4" y2="35.9"/>
	<line class="st0" x1="17.9" y1="39.4" x2="17.9" y2="39.4"/>
	<line class="st0" x1="21.1" y1="39.1" x2="21.1" y2="39.1"/>
	<line class="st0" x1="20.5" y1="41.7" x2="20.5" y2="41.7"/>
	<line class="st0" x1="21.4" y1="44.4" x2="21.4" y2="44.4"/>
	<line class="st0" x1="23.7" y1="43.2" x2="23.7" y2="43.2"/>
	<line class="st0" x1="26.7" y1="42.6" x2="26.7" y2="42.6"/>
	<line class="st0" x1="25.9" y1="45.6" x2="25.9" y2="45.6"/>
	<line class="st0" x1="24" y1="40.4" x2="24" y2="40.4"/>
	<line class="st0" x1="24.6" y1="37.8" x2="24.6" y2="37.8"/>
	<line class="st0" x1="27" y1="34.7" x2="27" y2="34.7"/>
	<line class="st0" x1="23.1" y1="35.4" x2="23.1" y2="35.4"/>
	<line class="st0" x1="21" y1="33.7" x2="21" y2="33.7"/>
	<line class="st0" x1="21.8" y1="31.2" x2="21.8" y2="31.2"/>
	<line class="st0" x1="24.8" y1="32.8" x2="24.8" y2="32.8"/>
	<line class="st0" x1="26.9" y1="30.8" x2="26.9" y2="30.8"/>
	<line class="st0" x1="24.3" y1="29.2" x2="24.3" y2="29.2"/>
	<line class="st0" x1="29" y1="28" x2="29" y2="28"/>
	<line class="st0" x1="32" y1="27.8" x2="32" y2="27.8"/>
	<line class="st0" x1="33.4" y1="31.3" x2="33.4" y2="31.3"/>
	<line class="st0" x1="31.3" y1="33.5" x2="31.3" y2="33.5"/>
	<line class="st0" x1="32.6" y1="36.3" x2="32.6" y2="36.3"/>
	<line class="st0" x1="35" y1="35.1" x2="35" y2="35.1"/>
	<line class="st0" x1="37.1" y1="32.1" x2="37.1" y2="32.1"/>
	<line class="st0" x1="35.9" y1="28.4" x2="35.9" y2="28.4"/>
	<line class="st0" x1="39.6" y1="29.3" x2="39.6" y2="29.3"/>
	<line class="st0" x1="43.8" y1="30.2" x2="43.8" y2="30.2"/>
	<line class="st0" x1="40.5" y1="32.9" x2="40.5" y2="32.9"/>
	<line class="st0" x1="38.6" y1="35.4" x2="38.6" y2="35.4"/>
	<line class="st0" x1="42.1" y1="36" x2="42.1" y2="36"/>
	<line class="st0" x1="45.6" y1="36.7" x2="45.6" y2="36.7"/>
	<line class="st0" x1="48.4" y1="34.6" x2="48.4" y2="34.6"/>
	<line class="st0" x1="52.5" y1="35.1" x2="52.5" y2="35.1"/>
	<line class="st0" x1="50.2" y1="32" x2="50.2" y2="32"/>
	<line class="st0" x1="47.1" y1="31.3" x2="47.1" y2="31.3"/>
	<line class="st0" x1="47.5" y1="39.7" x2="47.5" y2="39.7"/>
	<line class="st0" x1="49.6" y1="36.9" x2="49.6" y2="36.9"/>
	<line class="st0" x1="50.1" y1="42.5" x2="50.1" y2="42.5"/>
	<line class="st0" x1="52.2" y1="45.6" x2="52.2" y2="45.6"/>
	<line class="st0" x1="47.6" y1="44.1" x2="47.6" y2="44.1"/>
	<line class="st0" x1="44.4" y1="41.6" x2="44.4" y2="41.6"/>
	<line class="st0" x1="43.2" y1="38.9" x2="43.2" y2="38.9"/>
	<line class="st0" x1="39.7" y1="39.2" x2="39.7" y2="39.2"/>
	<line class="st0" x1="41.1" y1="42" x2="41.1" y2="42"/>
	<line class="st0" x1="41.9" y1="44.9" x2="41.9" y2="44.9"/>
	<line class="st0" x1="38.6" y1="44.4" x2="38.6" y2="44.4"/>
	<line class="st0" x1="36.9" y1="41.8" x2="36.9" y2="41.8"/>
	<line class="st0" x1="34" y1="40" x2="34" y2="40"/>
	<line class="st0" x1="35.1" y1="43.7" x2="35.1" y2="43.7"/>
	<line class="st0" x1="31.4" y1="41.9" x2="31.4" y2="41.9"/>
	<line class="st0" x1="27.6" y1="39.1" x2="27.6" y2="39.1"/>
	<line class="st0" x1="29.8" y1="45" x2="29.8" y2="45"/>
	<line class="st0" x1="32.9" y1="45.8" x2="32.9" y2="45.8"/>
	<line class="st0" x1="52.9" y1="49.9" x2="52.9" y2="49.9"/>
	<line class="st0" x1="52.9" y1="53.4" x2="52.9" y2="53.4"/>
	<line class="st0" x1="49.2" y1="47.6" x2="49.2" y2="47.6"/>
	<line class="st0" x1="46.1" y1="49.7" x2="46.1" y2="49.7"/>
	<line class="st0" x1="47.7" y1="52.5" x2="47.7" y2="52.5"/>
	<line class="st0" x1="44.6" y1="46.4" x2="44.6" y2="46.4"/>
	<line class="st0" x1="41.2" y1="48.3" x2="41.2" y2="48.3"/>
	<line class="st0" x1="42.6" y1="51.2" x2="42.6" y2="51.2"/>
	<line class="st0" x1="45" y1="52.7" x2="45" y2="52.7"/>
	<line class="st0" x1="40.3" y1="53.4" x2="40.3" y2="53.4"/>
	<line class="st0" x1="37.6" y1="53.1" x2="37.6" y2="53.1"/>
	<line class="st0" x1="38.3" y1="51.1" x2="38.3" y2="51.1"/>
	<line class="st0" x1="35.3" y1="51.4" x2="35.3" y2="51.4"/>
	<line class="st0" x1="29.6" y1="36.4" x2="29.6" y2="36.4"/>
	<line class="st0" x1="31.3" y1="38.9" x2="31.3" y2="38.9"/>
	<line class="st0" x1="31.8" y1="52.7" x2="31.8" y2="52.7"/>
	<line class="st0" x1="33.4" y1="49.3" x2="33.4" y2="49.3"/>
	<line class="st0" x1="36.7" y1="46.8" x2="36.7" y2="46.8"/>
	<line class="st0" x1="30.6" y1="48" x2="30.6" y2="48"/>
	<line class="st0" x1="27" y1="48.2" x2="27" y2="48.2"/>
	<line class="st0" x1="24.5" y1="49.7" x2="24.5" y2="49.7"/>
	<line class="st0" x1="26.2" y1="52.9" x2="26.2" y2="52.9"/>
	<line class="st0" x1="22.8" y1="47.2" x2="22.8" y2="47.2"/>
	<line class="st0" x1="20.6" y1="48.7" x2="20.6" y2="48.7"/>
	<line class="st0" x1="22.3" y1="51.6" x2="22.3" y2="51.6"/>
	<line class="st0" x1="20.3" y1="53.1" x2="20.3" y2="53.1"/>
	<line class="st0" x1="17.2" y1="47.7" x2="17.2" y2="47.7"/>
	<line class="st0" x1="18.6" y1="50.6" x2="18.6" y2="50.6"/>
	<line class="st0" x1="17.1" y1="53.1" x2="17.1" y2="53.1"/>
	<line class="st0" x1="15.2" y1="50" x2="15.2" y2="50"/>
	<line class="st0" x1="13.6" y1="46.8" x2="13.6" y2="46.8"/>
	<line class="st0" x1="10.2" y1="46.9" x2="10.2" y2="46.9"/>
	<line class="st0" x1="7.1" y1="46.2" x2="7.1" y2="46.2"/>
	<line class="st0" x1="1.1" y1="47.3" x2="1.1" y2="47.3"/>
	<line class="st0" x1="5.6" y1="49.5" x2="5.6" y2="49.5"/>
	<line class="st0" x1="8.7" y1="49.6" x2="8.7" y2="49.6"/>
	<line class="st0" x1="8.1" y1="52.9" x2="8.1" y2="52.9"/>
	<line class="st0" x1="12.7" y1="52.9" x2="12.7" y2="52.9"/>
	<line class="st0" x1="4.8" y1="52" x2="4.8" y2="52"/>
	<line class="st0" x1="1.5" y1="50.6" x2="1.5" y2="50.6"/>
	<line class="st0" x1="2.1" y1="53.1" x2="2.1" y2="53.1"/>
	<path class="st1" d="M20.6,1.1c1.3,0,1.6,1.6,0.2,1.6S19.5,1.2,20.6,1.1z"/>
	<path class="st1" d="M34.1,3c1.3-0.1,1.4,1.6,0.1,1.6S32.9,3.1,34.1,3z"/>
	<path class="st1" d="M42.1,7.8c1.3-0.1,1.6,1.6,0.3,1.6S41.1,7.9,42.1,7.8z"/>
	<path class="st1" d="M26.7,9.8c1-0.1,1.4,1.4,0.2,1.5S25.5,9.9,26.7,9.8z"/>
	<path class="st1" d="M34.4,13.8c0.8-0.1,1.6,1.4,0.1,1.6S33.3,14,34.4,13.8z"/>
	<path class="st1" d="M12.4,6.5c1.2,0.1,1.3,1.5,0.1,1.6S11.3,6.6,12.4,6.5z"/>
	<path class="st1" d="M3,7.6C4,7.6,4.5,8.8,3.2,9S1.7,7.7,3,7.6z"/>
	<path class="st1" d="M17.3,15.1c1.1-0.1,1.3,1.5,0.1,1.6S16.4,15.1,17.3,15.1z"/>
	<path class="st1" d="M7.4,16c1.3,0,1.6,1.4,0.1,1.6S6.1,16.1,7.4,16z"/>
	<path class="st1" d="M28.4,20.7c0,1.3-1.8,1.3-1.9,0.1S28.3,19.5,28.4,20.7z"/>
	<path class="st1" d="M36.5,24.2c1.2,0,1.3,1.5,0.1,1.6S35.1,24.3,36.5,24.2z"/>
	<path class="st1" d="M45.7,20.4c0,1.3-1.8,1.4-1.9,0.1S45.6,19.1,45.7,20.4z"/>
	<path class="st1" d="M51.3,13.1c1.1-0.1,1.6,1.5,0.2,1.5S50.3,13.3,51.3,13.1z"/>
	<path class="st1" d="M49.6,2.8c-1.1,0.2-1.2-1.4-0.3-1.5S51.4,2.6,49.6,2.8z"/>
	<path class="st1" d="M50.3,25.6c1.2-0.1,1.3,1.4,0.2,1.5S49.1,25.9,50.3,25.6z"/>
	<path class="st1" d="M45.3,33.4c0,1.1-1.9,1.1-1.9,0.1S45.3,32,45.3,33.4z"/>
	<path class="st1" d="M36.9,37.4c1.3-0.1,1.3,1.4,0.2,1.5S35.6,37.5,36.9,37.4z"/>
	<path class="st1" d="M53.2,40.3c0,1.3-1.9,1.2-1.9,0.1S53,39,53.2,40.3z"/>
	<path class="st1" d="M29.4,30c1.2,0,1.6,1.5,0.2,1.6S28.4,30,29.4,30z"/>
	<path class="st1" d="M19.5,25.6c0,1.3-1.8,1.4-1.8,0.1S19.4,24.2,19.5,25.6z"/>
	<path class="st1" d="M29.1,40.6c0.9,0,1.6,1.8,0.1,1.8S27.7,40.5,29.1,40.6z"/>
	<path class="st1" d="M20.1,34.8c1.1,0.1,1.4,1.7,0.1,1.8S19,34.8,20.1,34.8z"/>
	<path class="st1" d="M10.4,38.2c0,1.1-1.9,1.6-1.9,0.1S10.3,36.9,10.4,38.2z"/>
	<path class="st1" d="M9.9,26.6c0.1,1.7-1.8,1.6-1.8,0.3S9.7,25.6,9.9,26.6z"/>
	<path class="st1" d="M2.4,32.5c1.1,0,1.4,2,0.1,2S0.8,32.7,2.4,32.5z"/>
	<path class="st1" d="M4.4,47.7c0.1,1.1-2.1,1.4-2.2,0.1S4.3,46.2,4.4,47.7z"/>
	<path class="st1" d="M12.6,49.8c1.1,0,1.5,1.7,0.1,1.8S11,49.9,12.6,49.8z"/>
	<path class="st1" d="M19.8,44.5c1.2-0.1,1.3,1.6,0.1,1.6S18.1,44.7,19.8,44.5z"/>
	<path class="st1" d="M30.1,50.5c0,1.2-1.9,1.3-1.9,0.1S30.1,49.3,30.1,50.5z"/>
	<path class="st1" d="M38.9,48.2c0,1.3-1.8,1.3-1.9,0.1S38.8,46.8,38.9,48.2z"/>
	<path class="st1" d="M47.6,45.5c1.2-0.1,1.4,1.6,0.3,1.8S46.1,45.6,47.6,45.5z"/>
</g>
</svg>
