<?xml version="1.0" encoding="utf-8"?>
<!-- Generator: Adobe Illustrator 23.0.1, SVG Export Plug-In . SVG Version: 6.00 Build 0)  -->
<svg version="1.1" id="Layer_1" xmlns="http://www.w3.org/2000/svg" xmlns:xlink="http://www.w3.org/1999/xlink" x="0px" y="0px"
	 viewBox="0 0 54.2 54.2" style="enable-background:new 0 0 54.2 54.2;" xml:space="preserve">
<style type="text/css">
	.st0{fill:none;stroke:#000000;stroke-width:0.7;stroke-linecap:round;}
	.st1{fill:none;stroke:#000000;stroke-width:0.3;stroke-linecap:round;}
	.st2{fill:none;}
</style>
<g>
	<line class="st0" x1="1.2" y1="12.1" x2="1.2" y2="12.1"/>
	<line class="st0" x1="3.2" y1="12" x2="3.2" y2="12"/>
	<line class="st0" x1="5.6" y1="12.8" x2="5.6" y2="12.8"/>
	<line class="st0" x1="7.1" y1="11.8" x2="7.1" y2="11.8"/>
	<line class="st0" x1="8.7" y1="13.2" x2="8.7" y2="13.2"/>
	<line class="st0" x1="3.6" y1="13.9" x2="3.6" y2="13.9"/>
	<line class="st0" x1="1.6" y1="15.1" x2="1.6" y2="15.1"/>
	<line class="st0" x1="3.2" y1="16.9" x2="3.2" y2="16.9"/>
	<line class="st0" x1="5" y1="16.2" x2="5" y2="16.2"/>
	<line class="st0" x1="6.2" y1="18.6" x2="6.2" y2="18.6"/>
	<line class="st0" x1="4" y1="18.9" x2="4" y2="18.9"/>
	<line class="st0" x1="0.7" y1="21.5" x2="0.7" y2="21.5"/>
	<line class="st0" x1="1.6" y1="24.2" x2="1.6" y2="24.2"/>
	<line class="st0" x1="3.1" y1="22.6" x2="3.1" y2="22.6"/>
	<line class="st0" x1="4.6" y1="21.2" x2="4.6" y2="21.2"/>
	<line class="st0" x1="7.3" y1="20.5" x2="7.3" y2="20.5"/>
	<line class="st0" x1="8" y1="17.7" x2="8" y2="17.7"/>
	<line class="st0" x1="9.6" y1="19.9" x2="9.6" y2="19.9"/>
	<line class="st0" x1="10.7" y1="17.9" x2="10.7" y2="17.9"/>
	<line class="st0" x1="13" y1="17.8" x2="13" y2="17.8"/>
	<line class="st0" x1="10.9" y1="15.5" x2="10.9" y2="15.5"/>
	<line class="st0" x1="11.1" y1="12.9" x2="11.1" y2="12.9"/>
	<line class="st0" x1="13.4" y1="14.4" x2="13.4" y2="14.4"/>
	<line class="st0" x1="13.1" y1="11.7" x2="13.1" y2="11.7"/>
	<line class="st0" x1="14.7" y1="16.2" x2="14.7" y2="16.2"/>
	<line class="st0" x1="16.5" y1="14.8" x2="16.5" y2="14.8"/>
	<line class="st0" x1="16.6" y1="17.4" x2="16.6" y2="17.4"/>
	<line class="st0" x1="18.2" y1="16" x2="18.2" y2="16"/>
	<line class="st0" x1="18.8" y1="18.4" x2="18.8" y2="18.4"/>
	<line class="st0" x1="17.4" y1="20.2" x2="17.4" y2="20.2"/>
	<line class="st0" x1="19.4" y1="20.7" x2="19.4" y2="20.7"/>
	<line class="st0" x1="19.6" y1="23" x2="19.6" y2="23"/>
	<line class="st0" x1="17.4" y1="23" x2="17.4" y2="23"/>
	<line class="st0" x1="15.1" y1="22.3" x2="15.1" y2="22.3"/>
	<line class="st0" x1="12.5" y1="20.9" x2="12.5" y2="20.9"/>
	<line class="st0" x1="12.7" y1="23.8" x2="12.7" y2="23.8"/>
	<line class="st0" x1="10.2" y1="21.9" x2="10.2" y2="21.9"/>
	<line class="st0" x1="9.9" y1="24.6" x2="9.9" y2="24.6"/>
	<line class="st0" x1="7.6" y1="25.9" x2="7.6" y2="25.9"/>
	<line class="st0" x1="5.1" y1="24.6" x2="5.1" y2="24.6"/>
	<line class="st0" x1="5.2" y1="27.2" x2="5.2" y2="27.2"/>
	<line class="st0" x1="6.4" y1="29.2" x2="6.4" y2="29.2"/>
	<line class="st0" x1="9" y1="27.7" x2="9" y2="27.7"/>
	<line class="st0" x1="12.1" y1="26.1" x2="12.1" y2="26.1"/>
	<line class="st0" x1="11.4" y1="28.4" x2="11.4" y2="28.4"/>
	<line class="st0" x1="7.5" y1="32.3" x2="7.5" y2="32.3"/>
	<line class="st0" x1="5.3" y1="33.4" x2="5.3" y2="33.4"/>
	<line class="st0" x1="4.8" y1="31.2" x2="4.8" y2="31.2"/>
	<line class="st0" x1="3.9" y1="29.2" x2="3.9" y2="29.2"/>
	<line class="st0" x1="1.3" y1="28.7" x2="1.3" y2="28.7"/>
	<line class="st0" x1="1.8" y1="31.3" x2="1.8" y2="31.3"/>
	<line class="st0" x1="0.4" y1="33.2" x2="0.4" y2="33.2"/>
	<line class="st0" x1="0.8" y1="35.5" x2="0.8" y2="35.5"/>
	<line class="st0" x1="1.7" y1="37.7" x2="1.7" y2="37.7"/>
	<line class="st0" x1="4.2" y1="37.4" x2="4.2" y2="37.4"/>
	<line class="st0" x1="6.4" y1="36" x2="6.4" y2="36"/>
	<line class="st0" x1="8.5" y1="34.5" x2="8.5" y2="34.5"/>
	<line class="st0" x1="11" y1="33.5" x2="11" y2="33.5"/>
	<line class="st0" x1="11.4" y1="31.1" x2="11.4" y2="31.1"/>
	<line class="st0" x1="13.5" y1="30" x2="13.5" y2="30"/>
	<line class="st0" x1="13.7" y1="32.5" x2="13.7" y2="32.5"/>
	<line class="st0" x1="16.3" y1="32" x2="16.3" y2="32"/>
	<line class="st0" x1="16.1" y1="29.6" x2="16.1" y2="29.6"/>
	<line class="st0" x1="17.6" y1="27.7" x2="17.6" y2="27.7"/>
	<line class="st0" x1="18.3" y1="25.4" x2="18.3" y2="25.4"/>
	<line class="st0" x1="15.7" y1="24.7" x2="15.7" y2="24.7"/>
	<line class="st0" x1="20.5" y1="26.6" x2="20.5" y2="26.6"/>
	<line class="st0" x1="19.6" y1="29" x2="19.6" y2="29"/>
	<line class="st0" x1="18.4" y1="30.8" x2="18.4" y2="30.8"/>
	<line class="st0" x1="18.3" y1="33.1" x2="18.3" y2="33.1"/>
	<line class="st0" x1="18.6" y1="35.1" x2="18.6" y2="35.1"/>
	<line class="st0" x1="20.6" y1="33.7" x2="20.6" y2="33.7"/>
	<line class="st0" x1="16.8" y1="36.5" x2="16.8" y2="36.5"/>
	<line class="st0" x1="12.6" y1="35.3" x2="12.6" y2="35.3"/>
	<line class="st0" x1="14.6" y1="37" x2="14.6" y2="37"/>
	<line class="st0" x1="12.3" y1="38" x2="12.3" y2="38"/>
	<line class="st0" x1="12.1" y1="40.2" x2="12.1" y2="40.2"/>
	<line class="st0" x1="9.2" y1="40.5" x2="9.2" y2="40.5"/>
	<line class="st0" x1="7" y1="38.3" x2="7" y2="38.3"/>
	<line class="st0" x1="6.6" y1="40.6" x2="6.6" y2="40.6"/>
	<line class="st0" x1="4.4" y1="39.8" x2="4.4" y2="39.8"/>
	<line class="st0" x1="1.7" y1="40.1" x2="1.7" y2="40.1"/>
	<line class="st0" x1="0.7" y1="41.5" x2="0.7" y2="41.5"/>
	<line class="st0" x1="1.7" y1="43.3" x2="1.7" y2="43.3"/>
	<line class="st0" x1="5.5" y1="42.8" x2="5.5" y2="42.8"/>
	<line class="st0" x1="7.8" y1="43.4" x2="7.8" y2="43.4"/>
	<line class="st0" x1="10.9" y1="42.1" x2="10.9" y2="42.1"/>
	<line class="st0" x1="13.6" y1="42.1" x2="13.6" y2="42.1"/>
	<line class="st0" x1="14.9" y1="39.3" x2="14.9" y2="39.3"/>
	<line class="st0" x1="17.4" y1="38.7" x2="17.4" y2="38.7"/>
	<line class="st0" x1="19.6" y1="36.8" x2="19.6" y2="36.8"/>
	<line class="st0" x1="19.7" y1="39.3" x2="19.7" y2="39.3"/>
	<line class="st0" x1="18.5" y1="41.2" x2="18.5" y2="41.2"/>
	<line class="st0" x1="22.3" y1="35.6" x2="22.3" y2="35.6"/>
	<line class="st0" x1="23.3" y1="33.3" x2="23.3" y2="33.3"/>
	<line class="st0" x1="23.7" y1="31.2" x2="23.7" y2="31.2"/>
	<line class="st0" x1="22.2" y1="28.8" x2="22.2" y2="28.8"/>
	<line class="st0" x1="23" y1="26.6" x2="23" y2="26.6"/>
	<line class="st0" x1="24.2" y1="29" x2="24.2" y2="29"/>
	<line class="st0" x1="26" y1="30.3" x2="26" y2="30.3"/>
	<line class="st0" x1="27.9" y1="29.4" x2="27.9" y2="29.4"/>
	<line class="st0" x1="27.5" y1="31.5" x2="27.5" y2="31.5"/>
	<line class="st0" x1="25.6" y1="32.4" x2="25.6" y2="32.4"/>
	<line class="st0" x1="29.1" y1="32.4" x2="29.1" y2="32.4"/>
	<line class="st0" x1="32" y1="32.1" x2="32" y2="32.1"/>
	<line class="st0" x1="30.3" y1="34.1" x2="30.3" y2="34.1"/>
	<line class="st0" x1="32.5" y1="34.6" x2="32.5" y2="34.6"/>
	<line class="st0" x1="34.4" y1="33.4" x2="34.4" y2="33.4"/>
	<line class="st0" x1="37.1" y1="34.7" x2="37.1" y2="34.7"/>
	<line class="st0" x1="35.6" y1="36.5" x2="35.6" y2="36.5"/>
	<line class="st0" x1="37.8" y1="37.1" x2="37.8" y2="37.1"/>
	<line class="st0" x1="35.5" y1="38.7" x2="35.5" y2="38.7"/>
	<line class="st0" x1="37.5" y1="39.8" x2="37.5" y2="39.8"/>
	<line class="st0" x1="38" y1="41.9" x2="38" y2="41.9"/>
	<line class="st0" x1="35.1" y1="40.9" x2="35.1" y2="40.9"/>
	<line class="st0" x1="32.5" y1="39.9" x2="32.5" y2="39.9"/>
	<line class="st0" x1="31.4" y1="36.6" x2="31.4" y2="36.6"/>
	<line class="st0" x1="30.4" y1="38.9" x2="30.4" y2="38.9"/>
	<line class="st0" x1="29.4" y1="36.6" x2="29.4" y2="36.6"/>
	<line class="st0" x1="28.2" y1="39.3" x2="28.2" y2="39.3"/>
	<line class="st0" x1="27.2" y1="37.4" x2="27.2" y2="37.4"/>
	<line class="st0" x1="24.9" y1="38.4" x2="24.9" y2="38.4"/>
	<line class="st0" x1="24.9" y1="35.6" x2="24.9" y2="35.6"/>
	<line class="st0" x1="25.5" y1="41.2" x2="25.5" y2="41.2"/>
	<line class="st0" x1="23.1" y1="40.1" x2="23.1" y2="40.1"/>
	<line class="st0" x1="30.5" y1="41.5" x2="30.5" y2="41.5"/>
	<line class="st0" x1="33.3" y1="42.2" x2="33.3" y2="42.2"/>
	<line class="st0" x1="35.7" y1="43" x2="35.7" y2="43"/>
	<line class="st0" x1="41.9" y1="35.1" x2="41.9" y2="35.1"/>
	<line class="st0" x1="43.7" y1="33.3" x2="43.7" y2="33.3"/>
	<line class="st0" x1="44" y1="35.9" x2="44" y2="35.9"/>
	<line class="st0" x1="43.3" y1="38.4" x2="43.3" y2="38.4"/>
	<line class="st0" x1="41.3" y1="37" x2="41.3" y2="37"/>
	<line class="st0" x1="44.4" y1="40.3" x2="44.4" y2="40.3"/>
	<line class="st0" x1="45.9" y1="38.8" x2="45.9" y2="38.8"/>
	<line class="st0" x1="47.4" y1="36.5" x2="47.4" y2="36.5"/>
	<line class="st0" x1="48.7" y1="34.1" x2="48.7" y2="34.1"/>
	<line class="st0" x1="51" y1="36.2" x2="51" y2="36.2"/>
	<line class="st0" x1="53" y1="36.8" x2="53" y2="36.8"/>
	<line class="st0" x1="52.1" y1="39.4" x2="52.1" y2="39.4"/>
	<line class="st0" x1="49.4" y1="38.2" x2="49.4" y2="38.2"/>
	<line class="st0" x1="50.1" y1="41" x2="50.1" y2="41"/>
	<line class="st0" x1="52.5" y1="42.6" x2="52.5" y2="42.6"/>
	<line class="st0" x1="50.7" y1="43.9" x2="50.7" y2="43.9"/>
	<line class="st0" x1="48.2" y1="43.5" x2="48.2" y2="43.5"/>
	<line class="st0" x1="50.4" y1="46.3" x2="50.4" y2="46.3"/>
	<line class="st0" x1="52.6" y1="47.6" x2="52.6" y2="47.6"/>
	<line class="st0" x1="50" y1="48.6" x2="50" y2="48.6"/>
	<line class="st0" x1="53.2" y1="51" x2="53.2" y2="51"/>
	<line class="st0" x1="51.2" y1="50.7" x2="51.2" y2="50.7"/>
	<line class="st0" x1="51.8" y1="52.6" x2="51.8" y2="52.6"/>
	<line class="st0" x1="48.6" y1="50.2" x2="48.6" y2="50.2"/>
	<line class="st0" x1="45.7" y1="49.7" x2="45.7" y2="49.7"/>
	<line class="st0" x1="46.2" y1="51.6" x2="46.2" y2="51.6"/>
	<line class="st0" x1="46.8" y1="53.6" x2="46.8" y2="53.6"/>
	<line class="st0" x1="44.3" y1="52.8" x2="44.3" y2="52.8"/>
	<line class="st0" x1="42.5" y1="50.7" x2="42.5" y2="50.7"/>
	<line class="st0" x1="44.2" y1="47.8" x2="44.2" y2="47.8"/>
	<line class="st0" x1="45.8" y1="45.9" x2="45.8" y2="45.9"/>
	<line class="st0" x1="45.6" y1="43" x2="45.6" y2="43"/>
	<line class="st0" x1="43.2" y1="43.9" x2="43.2" y2="43.9"/>
	<line class="st0" x1="41.3" y1="45.9" x2="41.3" y2="45.9"/>
	<line class="st0" x1="39.9" y1="44" x2="39.9" y2="44"/>
	<line class="st0" x1="42.3" y1="41.3" x2="42.3" y2="41.3"/>
	<line class="st0" x1="40.8" y1="39.8" x2="40.8" y2="39.8"/>
	<line class="st0" x1="39.9" y1="50.2" x2="39.9" y2="50.2"/>
	<line class="st0" x1="40.6" y1="51.8" x2="40.6" y2="51.8"/>
	<line class="st0" x1="39.1" y1="52.7" x2="39.1" y2="52.7"/>
	<line class="st0" x1="41.7" y1="53.5" x2="41.7" y2="53.5"/>
	<line class="st0" x1="38.4" y1="48.3" x2="38.4" y2="48.3"/>
	<line class="st0" x1="39" y1="46.8" x2="39" y2="46.8"/>
	<line class="st0" x1="37.4" y1="45" x2="37.4" y2="45"/>
	<line class="st0" x1="35.7" y1="47.6" x2="35.7" y2="47.6"/>
	<line class="st0" x1="36.1" y1="49.7" x2="36.1" y2="49.7"/>
	<line class="st0" x1="37.7" y1="51.2" x2="37.7" y2="51.2"/>
	<line class="st0" x1="36.5" y1="53.4" x2="36.5" y2="53.4"/>
	<line class="st0" x1="33.3" y1="50" x2="33.3" y2="50"/>
	<line class="st0" x1="33.6" y1="47.7" x2="33.6" y2="47.7"/>
	<line class="st0" x1="31.9" y1="46.3" x2="31.9" y2="46.3"/>
	<line class="st0" x1="33.1" y1="44.4" x2="33.1" y2="44.4"/>
	<line class="st0" x1="31.3" y1="43.6" x2="31.3" y2="43.6"/>
	<line class="st0" x1="29" y1="44" x2="29" y2="44"/>
	<line class="st0" x1="26.5" y1="43.4" x2="26.5" y2="43.4"/>
	<line class="st0" x1="28" y1="45.8" x2="28" y2="45.8"/>
	<line class="st0" x1="30.1" y1="48.2" x2="30.1" y2="48.2"/>
	<line class="st0" x1="30.9" y1="50.3" x2="30.9" y2="50.3"/>
	<line class="st0" x1="29.3" y1="51.7" x2="29.3" y2="51.7"/>
	<line class="st0" x1="30.3" y1="53.6" x2="30.3" y2="53.6"/>
	<line class="st0" x1="32.1" y1="51.7" x2="32.1" y2="51.7"/>
	<line class="st0" x1="33.4" y1="53.5" x2="33.4" y2="53.5"/>
	<line class="st0" x1="31.8" y1="0.6" x2="31.8" y2="0.6"/>
	<line class="st0" x1="28" y1="53.1" x2="28" y2="53.1"/>
	<line class="st0" x1="26.4" y1="51.2" x2="26.4" y2="51.2"/>
	<line class="st0" x1="25.5" y1="48.9" x2="25.5" y2="48.9"/>
	<line class="st0" x1="26.9" y1="47.8" x2="26.9" y2="47.8"/>
	<line class="st0" x1="24.9" y1="46.2" x2="24.9" y2="46.2"/>
	<line class="st0" x1="23.2" y1="48.4" x2="23.2" y2="48.4"/>
	<line class="st0" x1="24.5" y1="50.8" x2="24.5" y2="50.8"/>
	<line class="st0" x1="25.4" y1="53.1" x2="25.4" y2="53.1"/>
	<line class="st0" x1="21.8" y1="50.3" x2="21.8" y2="50.3"/>
	<line class="st0" x1="20.1" y1="47.7" x2="20.1" y2="47.7"/>
	<line class="st0" x1="19.5" y1="50.1" x2="19.5" y2="50.1"/>
	<line class="st0" x1="19.1" y1="52.2" x2="19.1" y2="52.2"/>
	<line class="st0" x1="21.5" y1="53.5" x2="21.5" y2="53.5"/>
	<line class="st0" x1="17.5" y1="50.6" x2="17.5" y2="50.6"/>
	<line class="st0" x1="17.8" y1="48.4" x2="17.8" y2="48.4"/>
	<line class="st0" x1="16.8" y1="46.2" x2="16.8" y2="46.2"/>
	<line class="st0" x1="19" y1="45" x2="19" y2="45"/>
	<line class="st0" x1="17.5" y1="43.5" x2="17.5" y2="43.5"/>
	<line class="st0" x1="20.8" y1="43.6" x2="20.8" y2="43.6"/>
	<line class="st0" x1="20.8" y1="41.6" x2="20.8" y2="41.6"/>
	<line class="st0" x1="23.6" y1="43.2" x2="23.6" y2="43.2"/>
	<line class="st0" x1="15.4" y1="51.1" x2="15.4" y2="51.1"/>
	<line class="st0" x1="13.5" y1="52.5" x2="13.5" y2="52.5"/>
	<line class="st0" x1="13.2" y1="50.2" x2="13.2" y2="50.2"/>
	<line class="st0" x1="10.8" y1="50.3" x2="10.8" y2="50.3"/>
	<line class="st0" x1="11.6" y1="52.6" x2="11.6" y2="52.6"/>
	<line class="st0" x1="12.9" y1="0.3" x2="12.9" y2="0.3"/>
	<line class="st0" x1="8.8" y1="53.1" x2="8.8" y2="53.1"/>
	<line class="st0" x1="9.7" y1="48.3" x2="9.7" y2="48.3"/>
	<line class="st0" x1="12.4" y1="48.6" x2="12.4" y2="48.6"/>
	<line class="st0" x1="11.3" y1="46.4" x2="11.3" y2="46.4"/>
	<line class="st0" x1="13.8" y1="46.3" x2="13.8" y2="46.3"/>
	<line class="st0" x1="15.5" y1="44.5" x2="15.5" y2="44.5"/>
	<line class="st0" x1="12.8" y1="44.4" x2="12.8" y2="44.4"/>
	<line class="st0" x1="8.8" y1="46" x2="8.8" y2="46"/>
	<line class="st0" x1="7.2" y1="47.8" x2="7.2" y2="47.8"/>
	<line class="st0" x1="6.6" y1="49.8" x2="6.6" y2="49.8"/>
	<line class="st0" x1="4.4" y1="46.6" x2="4.4" y2="46.6"/>
	<line class="st0" x1="6.4" y1="45.4" x2="6.4" y2="45.4"/>
	<line class="st0" x1="3.8" y1="44.5" x2="3.8" y2="44.5"/>
	<line class="st0" x1="1.9" y1="46.6" x2="1.9" y2="46.6"/>
	<line class="st0" x1="0.8" y1="45.1" x2="0.8" y2="45.1"/>
	<line class="st0" x1="0.8" y1="49.8" x2="0.8" y2="49.8"/>
	<line class="st0" x1="0.4" y1="52.9" x2="0.4" y2="52.9"/>
	<line class="st0" x1="2.3" y1="51.6" x2="2.3" y2="51.6"/>
	<line class="st0" x1="3.5" y1="53" x2="3.5" y2="53"/>
	<line class="st0" x1="6.4" y1="52.7" x2="6.4" y2="52.7"/>
	<line class="st0" x1="5" y1="51.6" x2="5" y2="51.6"/>
	<line class="st0" x1="4.9" y1="48.9" x2="4.9" y2="48.9"/>
	<line class="st0" x1="25.1" y1="25.9" x2="25.1" y2="25.9"/>
	<line class="st0" x1="23.5" y1="23.8" x2="23.5" y2="23.8"/>
	<line class="st0" x1="21.8" y1="21.3" x2="21.8" y2="21.3"/>
	<line class="st0" x1="23.5" y1="19.5" x2="23.5" y2="19.5"/>
	<line class="st0" x1="24.6" y1="21.9" x2="24.6" y2="21.9"/>
	<line class="st0" x1="26.3" y1="23.9" x2="26.3" y2="23.9"/>
	<line class="st0" x1="26.5" y1="20" x2="26.5" y2="20"/>
	<line class="st0" x1="25.8" y1="18.1" x2="25.8" y2="18.1"/>
	<line class="st0" x1="24.8" y1="15.5" x2="24.8" y2="15.5"/>
	<line class="st0" x1="21.2" y1="15.7" x2="21.2" y2="15.7"/>
	<line class="st0" x1="19.5" y1="14.2" x2="19.5" y2="14.2"/>
	<line class="st0" x1="20.1" y1="12" x2="20.1" y2="12"/>
	<line class="st0" x1="21.9" y1="13.9" x2="21.9" y2="13.9"/>
	<line class="st0" x1="24" y1="13.9" x2="24" y2="13.9"/>
	<line class="st0" x1="22.9" y1="12.1" x2="22.9" y2="12.1"/>
	<line class="st0" x1="25.7" y1="12.5" x2="25.7" y2="12.5"/>
	<line class="st0" x1="28.4" y1="12" x2="28.4" y2="12"/>
	<line class="st0" x1="29.5" y1="14.5" x2="29.5" y2="14.5"/>
	<line class="st0" x1="28.5" y1="16.7" x2="28.5" y2="16.7"/>
	<line class="st0" x1="29" y1="19.1" x2="29" y2="19.1"/>
	<line class="st0" x1="30.9" y1="18" x2="30.9" y2="18"/>
	<line class="st0" x1="31.6" y1="15.8" x2="31.6" y2="15.8"/>
	<line class="st0" x1="31.1" y1="13.2" x2="31.1" y2="13.2"/>
	<line class="st0" x1="30.9" y1="20.5" x2="30.9" y2="20.5"/>
	<line class="st0" x1="30.7" y1="23.3" x2="30.7" y2="23.3"/>
	<line class="st0" x1="28.6" y1="24.4" x2="28.6" y2="24.4"/>
	<line class="st0" x1="27.8" y1="26.4" x2="27.8" y2="26.4"/>
	<line class="st0" x1="30.5" y1="25.9" x2="30.5" y2="25.9"/>
	<line class="st0" x1="33.1" y1="22.4" x2="33.1" y2="22.4"/>
	<line class="st0" x1="33.5" y1="19.9" x2="33.5" y2="19.9"/>
	<line class="st0" x1="35.5" y1="22.3" x2="35.5" y2="22.3"/>
	<line class="st0" x1="37.9" y1="21.6" x2="37.9" y2="21.6"/>
	<line class="st0" x1="36.9" y1="19.8" x2="36.9" y2="19.8"/>
	<line class="st0" x1="36.4" y1="17.2" x2="36.4" y2="17.2"/>
	<line class="st0" x1="35.8" y1="15.4" x2="35.8" y2="15.4"/>
	<line class="st0" x1="33.5" y1="14.4" x2="33.5" y2="14.4"/>
	<line class="st0" x1="35.1" y1="13.1" x2="35.1" y2="13.1"/>
	<line class="st0" x1="37.5" y1="12.2" x2="37.5" y2="12.2"/>
	<line class="st0" x1="39.9" y1="13.4" x2="39.9" y2="13.4"/>
	<line class="st0" x1="40.5" y1="16" x2="40.5" y2="16"/>
	<line class="st0" x1="39.1" y1="17.9" x2="39.1" y2="17.9"/>
	<line class="st0" x1="41" y1="19.6" x2="41" y2="19.6"/>
	<line class="st0" x1="43.1" y1="18.2" x2="43.1" y2="18.2"/>
	<line class="st0" x1="42.2" y1="12.4" x2="42.2" y2="12.4"/>
	<line class="st0" x1="44.7" y1="11.7" x2="44.7" y2="11.7"/>
	<line class="st0" x1="45.6" y1="14.1" x2="45.6" y2="14.1"/>
	<line class="st0" x1="45.5" y1="17.3" x2="45.5" y2="17.3"/>
	<line class="st0" x1="44.9" y1="19.3" x2="44.9" y2="19.3"/>
	<line class="st0" x1="43.5" y1="21.1" x2="43.5" y2="21.1"/>
	<line class="st0" x1="42.9" y1="23.2" x2="42.9" y2="23.2"/>
	<line class="st0" x1="41.1" y1="24.2" x2="41.1" y2="24.2"/>
	<line class="st0" x1="39.1" y1="23.6" x2="39.1" y2="23.6"/>
	<line class="st0" x1="37.5" y1="25.1" x2="37.5" y2="25.1"/>
	<line class="st0" x1="38.4" y1="27.3" x2="38.4" y2="27.3"/>
	<line class="st0" x1="36" y1="26.2" x2="36" y2="26.2"/>
	<line class="st0" x1="35.9" y1="27.9" x2="35.9" y2="27.9"/>
	<line class="st0" x1="33.5" y1="26.6" x2="33.5" y2="26.6"/>
	<line class="st0" x1="31.7" y1="28" x2="31.7" y2="28"/>
	<line class="st0" x1="30.7" y1="30" x2="30.7" y2="30"/>
	<line class="st0" x1="33.3" y1="29.4" x2="33.3" y2="29.4"/>
	<line class="st0" x1="36.1" y1="29.7" x2="36.1" y2="29.7"/>
	<line class="st0" x1="38.6" y1="29.5" x2="38.6" y2="29.5"/>
	<line class="st0" x1="36.8" y1="31.3" x2="36.8" y2="31.3"/>
	<line class="st0" x1="38.5" y1="33" x2="38.5" y2="33"/>
	<line class="st0" x1="39.9" y1="30.8" x2="39.9" y2="30.8"/>
	<line class="st0" x1="40.8" y1="33.2" x2="40.8" y2="33.2"/>
	<line class="st0" x1="42.5" y1="31.3" x2="42.5" y2="31.3"/>
	<line class="st0" x1="40.3" y1="26.1" x2="40.3" y2="26.1"/>
	<line class="st0" x1="43" y1="27.1" x2="43" y2="27.1"/>
	<line class="st0" x1="43.7" y1="29.4" x2="43.7" y2="29.4"/>
	<line class="st0" x1="44.5" y1="25.3" x2="44.5" y2="25.3"/>
	<line class="st0" x1="45.9" y1="22.9" x2="45.9" y2="22.9"/>
	<line class="st0" x1="47.9" y1="23.5" x2="47.9" y2="23.5"/>
	<line class="st0" x1="47.4" y1="25.6" x2="47.4" y2="25.6"/>
	<line class="st0" x1="45.4" y1="31.1" x2="45.4" y2="31.1"/>
	<line class="st0" x1="48.6" y1="32.1" x2="48.6" y2="32.1"/>
	<line class="st0" x1="47.9" y1="29.8" x2="47.9" y2="29.8"/>
	<line class="st0" x1="50.7" y1="30.4" x2="50.7" y2="30.4"/>
	<line class="st0" x1="53.1" y1="32" x2="53.1" y2="32"/>
	<line class="st0" x1="53.1" y1="29.5" x2="53.1" y2="29.5"/>
	<line class="st0" x1="52.3" y1="27.2" x2="52.3" y2="27.2"/>
	<line class="st0" x1="49.8" y1="28" x2="49.8" y2="28"/>
	<line class="st0" x1="50.4" y1="25.6" x2="50.4" y2="25.6"/>
	<line class="st0" x1="50" y1="22.6" x2="50" y2="22.6"/>
	<line class="st0" x1="52.9" y1="22.4" x2="52.9" y2="22.4"/>
	<line class="st0" x1="51.8" y1="20.5" x2="51.8" y2="20.5"/>
	<line class="st0" x1="49.5" y1="20.4" x2="49.5" y2="20.4"/>
	<line class="st0" x1="48.2" y1="19" x2="48.2" y2="19"/>
	<line class="st0" x1="50.3" y1="17.9" x2="50.3" y2="17.9"/>
	<line class="st0" x1="52.7" y1="18.4" x2="52.7" y2="18.4"/>
	<line class="st0" x1="47.9" y1="16.2" x2="47.9" y2="16.2"/>
	<line class="st0" x1="26" y1="27.7" x2="26" y2="27.7"/>
	<circle class="st1" cx="47.6" cy="47.4" r="0.9"/>
	<path class="st1" d="M47.5,41.8c0.5,0,0.9-0.4,0.9-0.9c0-0.5-0.4-0.9-0.9-0.9c-0.5,0-0.9,0.4-0.9,0.9C46.6,41.3,47,41.8,47.5,41.8z
		"/>
	<circle class="st1" cx="53" cy="45.1" r="0.8"/>
	<path class="st1" d="M49.5,53.3c0.5,0,0.8-0.3,0.8-0.7c0-0.4-0.4-0.7-0.8-0.7c-0.5,0-0.8,0.3-0.8,0.7C48.7,53,49.1,53.3,49.5,53.3z
		"/>
	<path class="st1" d="M41.3,49.1c0.5,0,0.9-0.4,0.9-0.9s-0.4-0.9-0.9-0.9c-0.5,0-0.9,0.4-0.9,0.9S40.8,49.1,41.3,49.1z"/>
	<path class="st1" d="M40.2,42.4c0.5,0,0.9-0.4,0.9-0.9c0-0.5-0.4-0.9-0.9-0.9c-0.5,0-0.9,0.4-0.9,0.9C39.3,42,39.7,42.4,40.2,42.4z
		"/>
	<ellipse class="st1" cx="34.6" cy="51.4" rx="0.9" ry="0.8"/>
	<circle class="st1" cx="35.2" cy="45.1" r="0.9"/>
	<ellipse class="st1" cx="28.6" cy="49.2" rx="0.8" ry="0.9"/>
	<ellipse class="st1" cx="23" cy="52.2" rx="0.9" ry="0.9"/>
	<circle class="st1" cx="22" cy="46.1" r="0.9"/>
	<path class="st1" d="M28.4,42.8c0.5,0,0.9-0.4,0.9-0.9c0-0.5-0.4-0.9-0.9-0.9c-0.5,0-0.9,0.4-0.9,0.9
		C27.5,42.3,27.9,42.8,28.4,42.8z"/>
	<ellipse class="st1" cx="33.3" cy="37.3" rx="0.8" ry="0.9"/>
	<path class="st1" d="M39.5,36.3c0.5,0,0.9-0.4,0.9-0.9c0-0.5-0.4-0.9-0.9-0.9c-0.5,0-0.9,0.4-0.9,0.9C38.6,35.9,39,36.3,39.5,36.3z
		"/>
	<ellipse class="st1" cx="15.1" cy="48.2" rx="0.8" ry="0.9"/>
	<ellipse class="st1" cx="8.6" cy="50.2" rx="0.9" ry="0.9"/>
	<ellipse class="st1" cx="10.1" cy="44" rx="0.9" ry="0.8"/>
	<path class="st1" d="M16.3,41.4c0.4,0,0.8-0.3,0.8-0.8c0-0.4-0.3-0.8-0.8-0.8s-0.8,0.3-0.8,0.8C15.5,41.1,15.9,41.4,16.3,41.4z"/>
	<path class="st1" d="M21.7,38.4c0.5,0,0.9-0.4,0.9-0.9c0-0.5-0.4-0.9-0.9-0.9c-0.5,0-0.9,0.4-0.9,0.9C20.8,38,21.2,38.4,21.7,38.4z
		"/>
	<ellipse class="st1" cx="27.5" cy="34.1" rx="0.9" ry="0.9"/>
	<ellipse class="st1" cx="34.5" cy="31.1" rx="0.9" ry="0.8"/>
	<ellipse class="st1" cx="45.9" cy="34.7" rx="0.8" ry="0.9"/>
	<circle class="st1" cx="15.2" cy="34.2" r="0.8"/>
	<path class="st1" d="M21.4,31.8c0.5,0,0.9-0.4,0.9-0.9s-0.4-0.9-0.9-0.9c-0.5,0-0.9,0.4-0.9,0.9S20.9,31.8,21.4,31.8z"/>
	<ellipse class="st1" cx="29.1" cy="27.7" rx="0.9" ry="0.9"/>
	<path class="st1" d="M40.7,29.5c0.5,0,0.9-0.4,0.9-0.9c0-0.5-0.4-0.9-0.9-0.9c-0.5,0-0.9,0.4-0.9,0.9
		C39.8,29.1,40.2,29.5,40.7,29.5z"/>
	<path class="st1" d="M46,28.2c0.5,0,0.9-0.3,0.9-0.7c0-0.4-0.4-0.7-0.9-0.7c-0.5,0-0.9,0.3-0.9,0.7C45.1,27.9,45.5,28.2,46,28.2z"
		/>
	<path class="st1" d="M51.7,34.5c0.5,0,1-0.3,1-0.8c0-0.5-0.4-0.9-0.9-0.9c-0.5,0-1,0.3-1,0.8C50.7,34,51.1,34.4,51.7,34.5z"/>
	<circle class="st1" cx="52.2" cy="24.4" r="0.9"/>
	<path class="st1" d="M46.7,21.4c0.5,0,0.9-0.3,0.9-0.8c0-0.4-0.4-0.8-0.9-0.8c-0.5,0-0.9,0.3-0.9,0.8
		C45.8,21.1,46.2,21.4,46.7,21.4z"/>
	<path class="st1" d="M40.2,22.1c0.5,0,0.9-0.3,0.9-0.7c0-0.4-0.4-0.7-0.9-0.7c-0.5,0-0.9,0.3-0.9,0.7
		C39.2,21.7,39.6,22.1,40.2,22.1z"/>
	<path class="st1" d="M34.9,25.2c0.5,0,0.9-0.3,0.9-0.8c0-0.4-0.4-0.8-0.9-0.8c-0.5,0-0.9,0.3-0.9,0.8
		C33.9,24.9,34.4,25.2,34.9,25.2z"/>
	<path class="st1" d="M27.7,22.6c0.6,0,1-0.3,1-0.8c0-0.4-0.5-0.8-1-0.8c-0.6,0-1,0.3-1,0.8C26.7,22.2,27.2,22.6,27.7,22.6z"/>
	<ellipse class="st1" cx="33.7" cy="17.6" rx="0.8" ry="0.9"/>
	<ellipse class="st1" cx="50.4" cy="15" rx="0.9" ry="0.9"/>
	<ellipse class="st1" cx="43.5" cy="14.7" rx="0.9" ry="0.8"/>
	<circle class="st1" cx="38" cy="14.4" r="0.9"/>
	<ellipse class="st1" cx="27.3" cy="14.2" rx="0.9" ry="0.8"/>
	<path class="st1" d="M21.5,25c0.5,0,0.9-0.3,0.9-0.7c0-0.4-0.4-0.7-0.9-0.7c-0.5,0-0.9,0.3-0.9,0.7C20.6,24.7,21,25,21.5,25z"/>
	<path class="st1" d="M36.1,2.2c0.5,0,0.9-0.3,0.9-0.7c0-0.4-0.4-0.7-0.9-0.7c-0.5,0-0.9,0.3-0.9,0.7C35.2,1.9,35.6,2.2,36.1,2.2z"
		/>
	<path class="st1" d="M1.1,1.8c0.5,0,0.9-0.3,0.9-0.7c0-0.4-0.4-0.7-0.9-0.7c-0.5,0-0.9,0.3-0.9,0.7C0.2,1.5,0.6,1.8,1.1,1.8z"/>
	<path class="st1" d="M21.8,18.4c0.4,0,0.8-0.4,0.8-0.9c0-0.5-0.3-0.9-0.8-0.9c-0.4,0-0.8,0.4-0.8,0.9C21,18,21.4,18.4,21.8,18.4z"
		/>
	<ellipse class="st1" cx="17.6" cy="12.7" rx="0.9" ry="0.9"/>
	<ellipse class="st1" cx="14.6" cy="19.5" rx="0.9" ry="0.9"/>
	<ellipse class="st1" cx="14.3" cy="27.1" rx="0.9" ry="0.9"/>
	<ellipse class="st1" cx="7.5" cy="14.9" rx="0.9" ry="0.8"/>
	<path class="st1" d="M7.1,23.5c0.5,0,0.9-0.4,0.9-0.9c0-0.5-0.4-0.9-0.9-0.9c-0.5,0-0.9,0.4-0.9,0.9C6.3,23.1,6.6,23.5,7.1,23.5z"
		/>
	<circle class="st1" cx="1.3" cy="18.3" r="0.9"/>
	<path class="st1" d="M2.2,27.4c0.5,0,0.9-0.5,0.9-1c0-0.6-0.4-1-0.9-1c-0.5,0-0.9,0.5-0.9,1C1.3,27,1.7,27.4,2.2,27.4z"/>
	<ellipse class="st1" cx="8.7" cy="30" rx="0.9" ry="0.9"/>
	<line class="st0" x1="46.3" y1="2.8" x2="46.3" y2="2.8"/>
	<line class="st0" x1="47.6" y1="11.5" x2="47.6" y2="11.5"/>
	<line class="st0" x1="48.1" y1="1.6" x2="48.1" y2="1.6"/>
	<line class="st0" x1="10.6" y1="1.4" x2="10.6" y2="1.4"/>
	<line class="st0" x1="8.3" y1="1.4" x2="8.3" y2="1.4"/>
	<line class="st0" x1="6" y1="0.6" x2="6" y2="0.6"/>
	<line class="st0" x1="47.3" y1="8" x2="47.3" y2="8"/>
	<line class="st0" x1="3.6" y1="2.1" x2="3.6" y2="2.1"/>
	<line class="st0" x1="0.8" y1="3" x2="0.8" y2="3"/>
	<line class="st0" x1="45.7" y1="6.2" x2="45.7" y2="6.2"/>
	<line class="st0" x1="3.1" y1="4.5" x2="3.1" y2="4.5"/>
	<line class="st0" x1="2.3" y1="6.7" x2="2.3" y2="6.7"/>
	<line class="st0" x1="2.3" y1="9.5" x2="2.3" y2="9.5"/>
	<line class="st0" x1="4.5" y1="8.4" x2="4.5" y2="8.4"/>
	<line class="st0" x1="5.4" y1="10.2" x2="5.4" y2="10.2"/>
	<line class="st0" x1="9.8" y1="11.1" x2="9.8" y2="11.1"/>
	<line class="st0" x1="15.4" y1="11.4" x2="15.4" y2="11.4"/>
	<line class="st0" x1="7" y1="8" x2="7" y2="8"/>
	<line class="st0" x1="8.5" y1="6.1" x2="8.5" y2="6.1"/>
	<line class="st0" x1="9.2" y1="3.8" x2="9.2" y2="3.8"/>
	<line class="st0" x1="6.6" y1="3" x2="6.6" y2="3"/>
	<line class="st0" x1="11.4" y1="4.9" x2="11.4" y2="4.9"/>
	<line class="st0" x1="10.6" y1="7.3" x2="10.6" y2="7.3"/>
	<line class="st0" x1="9.3" y1="9.2" x2="9.3" y2="9.2"/>
	<line class="st0" x1="14.6" y1="9.6" x2="14.6" y2="9.6"/>
	<line class="st0" x1="13.1" y1="7.2" x2="13.1" y2="7.2"/>
	<line class="st0" x1="14" y1="5" x2="14" y2="5"/>
	<line class="st0" x1="15.1" y1="7.3" x2="15.1" y2="7.3"/>
	<line class="st0" x1="16.9" y1="8.6" x2="16.9" y2="8.6"/>
	<line class="st0" x1="18.8" y1="7.8" x2="18.8" y2="7.8"/>
	<line class="st0" x1="18.4" y1="9.9" x2="18.4" y2="9.9"/>
	<line class="st0" x1="20.8" y1="10.1" x2="20.8" y2="10.1"/>
	<line class="st0" x1="34.6" y1="11.1" x2="34.6" y2="11.1"/>
	<line class="st0" x1="22.9" y1="10.5" x2="22.9" y2="10.5"/>
	<line class="st0" x1="16" y1="4.3" x2="16" y2="4.3"/>
	<line class="st0" x1="14.4" y1="2.1" x2="14.4" y2="2.1"/>
	<line class="st0" x1="49.7" y1="3.5" x2="49.7" y2="3.5"/>
	<line class="st0" x1="50.6" y1="1.7" x2="50.6" y2="1.7"/>
	<line class="st0" x1="18.8" y1="0.7" x2="18.8" y2="0.7"/>
	<line class="st0" x1="17.3" y1="2.3" x2="17.3" y2="2.3"/>
	<line class="st0" x1="52.7" y1="3.3" x2="52.7" y2="3.3"/>
	<line class="st0" x1="51.5" y1="5.5" x2="51.5" y2="5.5"/>
	<line class="st0" x1="50.5" y1="7.7" x2="50.5" y2="7.7"/>
	<line class="st0" x1="21.6" y1="1.6" x2="21.6" y2="1.6"/>
	<line class="st0" x1="19.6" y1="2.8" x2="19.6" y2="2.8"/>
	<line class="st0" x1="18.7" y1="4.8" x2="18.7" y2="4.8"/>
	<line class="st0" x1="21.4" y1="4.3" x2="21.4" y2="4.3"/>
	<line class="st0" x1="24" y1="0.8" x2="24" y2="0.8"/>
	<line class="st0" x1="53.1" y1="7.2" x2="53.1" y2="7.2"/>
	<line class="st0" x1="28.1" y1="1.4" x2="28.1" y2="1.4"/>
	<line class="st0" x1="49.7" y1="13.1" x2="49.7" y2="13.1"/>
	<line class="st0" x1="48.8" y1="9.2" x2="48.8" y2="9.2"/>
	<line class="st0" x1="52.8" y1="12.7" x2="52.8" y2="12.7"/>
	<line class="st0" x1="52.7" y1="15.5" x2="52.7" y2="15.5"/>
	<line class="st0" x1="34.4" y1="1.9" x2="34.4" y2="1.9"/>
	<line class="st0" x1="32" y1="2.5" x2="32" y2="2.5"/>
	<line class="st0" x1="30" y1="2" x2="30" y2="2"/>
	<line class="st0" x1="28.4" y1="3.4" x2="28.4" y2="3.4"/>
	<line class="st0" x1="29.3" y1="5.7" x2="29.3" y2="5.7"/>
	<line class="st0" x1="26.9" y1="4.6" x2="26.9" y2="4.6"/>
	<line class="st0" x1="26.8" y1="6.3" x2="26.8" y2="6.3"/>
	<line class="st0" x1="24.4" y1="4.9" x2="24.4" y2="4.9"/>
	<line class="st0" x1="22.6" y1="6.4" x2="22.6" y2="6.4"/>
	<line class="st0" x1="21.6" y1="8.4" x2="21.6" y2="8.4"/>
	<line class="st0" x1="24.3" y1="7.8" x2="24.3" y2="7.8"/>
	<line class="st0" x1="27" y1="8.1" x2="27" y2="8.1"/>
	<line class="st0" x1="29.5" y1="7.9" x2="29.5" y2="7.9"/>
	<line class="st0" x1="27.7" y1="9.7" x2="27.7" y2="9.7"/>
	<line class="st0" x1="31.9" y1="11.4" x2="31.9" y2="11.4"/>
	<line class="st0" x1="30.9" y1="9.1" x2="30.9" y2="9.1"/>
	<line class="st0" x1="33.4" y1="9.7" x2="33.4" y2="9.7"/>
	<line class="st0" x1="31.2" y1="4.4" x2="31.2" y2="4.4"/>
	<line class="st0" x1="33.9" y1="5.5" x2="33.9" y2="5.5"/>
	<line class="st0" x1="34.6" y1="7.7" x2="34.6" y2="7.7"/>
	<line class="st0" x1="35.4" y1="3.7" x2="35.4" y2="3.7"/>
	<line class="st0" x1="38.8" y1="0.5" x2="38.8" y2="0.5"/>
	<line class="st0" x1="38.4" y1="3.9" x2="38.4" y2="3.9"/>
	<line class="st0" x1="36.3" y1="9.5" x2="36.3" y2="9.5"/>
	<line class="st0" x1="37.9" y1="10.4" x2="37.9" y2="10.4"/>
	<line class="st0" x1="40.3" y1="10.7" x2="40.3" y2="10.7"/>
	<line class="st0" x1="47.6" y1="13.4" x2="47.6" y2="13.4"/>
	<line class="st0" x1="50.6" y1="10.7" x2="50.6" y2="10.7"/>
	<line class="st0" x1="38.9" y1="8.1" x2="38.9" y2="8.1"/>
	<line class="st0" x1="41.7" y1="8.7" x2="41.7" y2="8.7"/>
	<line class="st0" x1="42.7" y1="10.6" x2="42.7" y2="10.6"/>
	<line class="st0" x1="44" y1="7.9" x2="44" y2="7.9"/>
	<line class="st0" x1="43.2" y1="5.6" x2="43.2" y2="5.6"/>
	<line class="st0" x1="40.8" y1="5.6" x2="40.8" y2="5.6"/>
	<line class="st0" x1="40.6" y1="3" x2="40.6" y2="3"/>
	<line class="st0" x1="41.4" y1="1.4" x2="41.4" y2="1.4"/>
	<line class="st0" x1="44.8" y1="0.8" x2="44.8" y2="0.8"/>
	<line class="st0" x1="0.3" y1="5.5" x2="0.3" y2="5.5"/>
	<line class="st0" x1="16.9" y1="6.1" x2="16.9" y2="6.1"/>
	<ellipse class="st1" cx="25.4" cy="9.5" rx="0.9" ry="0.8"/>
	<path class="st1" d="M12.3,10.2c0.5,0,0.9-0.4,0.9-0.9s-0.4-0.9-0.9-0.9c-0.5,0-0.9,0.4-0.9,0.9S11.8,10.2,12.3,10.2z"/>
	<ellipse class="st1" cx="20" cy="6.1" rx="0.9" ry="0.9"/>
	<path class="st1" d="M31.6,7.9c0.5,0,0.9-0.4,0.9-0.9c0-0.5-0.4-0.9-0.9-0.9c-0.5,0-0.9,0.4-0.9,0.9C30.7,7.5,31.1,7.9,31.6,7.9z"
		/>
	<path class="st1" d="M38.1,7.5c0.5,0,0.9-0.3,0.9-0.7s-0.4-0.7-0.9-0.7c-0.5,0-0.9,0.3-0.9,0.7S37.6,7.5,38.1,7.5z"/>
	<circle class="st1" cx="43.1" cy="2.8" r="0.9"/>
	<path class="st1" d="M48.4,6.2c0.5,0,0.9-0.3,0.9-0.8c0-0.4-0.4-0.8-0.9-0.8c-0.5,0-0.9,0.3-0.9,0.8C47.5,5.9,47.9,6.2,48.4,6.2z"
		/>
	<path class="st1" d="M25.8,3.6c0.5,0,0.9-0.3,0.9-0.8c0-0.4-0.4-0.8-0.9-0.8c-0.5,0-0.9,0.3-0.9,0.8C24.9,3.2,25.3,3.6,25.8,3.6z"
		/>
	<path class="st1" d="M44.7,10.7c0.6,0,1-0.3,1-0.8c0-0.4-0.5-0.8-1-0.8c-0.6,0-1,0.3-1,0.8C43.7,10.4,44.2,10.7,44.7,10.7z"/>
	<path class="st1" d="M12.6,3.5c0.5,0,0.9-0.3,0.9-0.7c0-0.4-0.4-0.7-0.9-0.7c-0.5,0-0.9,0.3-0.9,0.7C11.7,3.2,12.1,3.5,12.6,3.5z"
		/>
	<path class="st1" d="M16.3,53.9c0.5,0,0.9-0.3,0.9-0.7c0-0.4-0.4-0.7-0.9-0.7c-0.5,0-0.9,0.3-0.9,0.7
		C15.4,53.6,15.8,53.9,16.3,53.9z"/>
	<ellipse class="st1" cx="53" cy="9.6" rx="0.9" ry="0.9"/>
	<path class="st1" d="M5.8,6.6c0.5,0,0.9-0.4,0.9-0.9S6.3,4.7,5.8,4.7C5.4,4.7,5,5.1,5,5.6S5.4,6.6,5.8,6.6z"/>
	<path class="st1" d="M3,35.2c0.6,0,1-0.3,1-0.8s-0.5-0.8-1-0.8c-0.6,0-1,0.3-1,0.8S2.4,35.2,3,35.2z"/>
	<path class="st1" d="M9.5,37.4c0.6,0,1-0.4,1-0.9s-0.5-0.9-1-0.9c-0.6,0-1,0.4-1,0.9S9,37.4,9.5,37.4z"/>
	<path class="st1" d="M3.9,42.5c0.5,0,0.9-0.4,0.9-0.9c0-0.5-0.4-0.9-0.9-0.9c-0.5,0-0.9,0.4-0.9,0.9C2.9,42.1,3.3,42.5,3.9,42.5z"
		/>
	<ellipse class="st1" cx="2.4" cy="49" rx="0.9" ry="0.8"/>
	<line class="st0" x1="52.6" y1="0.7" x2="52.6" y2="0.7"/>
	<rect x="0" y="0" class="st2" width="54.1" height="54.1"/>
</g>
</svg>
