<?xml version="1.0" encoding="utf-8"?>
<!-- Generator: Adobe Illustrator 23.0.1, SVG Export Plug-In . SVG Version: 6.00 Build 0)  -->
<svg version="1.1" id="Layer_1" xmlns="http://www.w3.org/2000/svg" xmlns:xlink="http://www.w3.org/1999/xlink" x="0px" y="0px"
	 viewBox="0 0 49.7 49.7" style="enable-background:new 0 0 49.7 49.7;" xml:space="preserve">
<style type="text/css">
	.st0{clip-path:url(#SVGID_2_);fill:none;stroke:#000000;stroke-width:0.7;stroke-linecap:round;}
</style>
<g>
	<defs>
		<rect id="SVGID_1_" x="0" y="0" width="49.7" height="49.7"/>
	</defs>
	<clipPath id="SVGID_2_">
		<use xlink:href="#SVGID_1_"  style="overflow:visible;"/>
	</clipPath>
	<line class="st0" x1="14.5" y1="1.9" x2="14.5" y2="1.9"/>
	<line class="st0" x1="14.5" y1="4.7" x2="14.5" y2="4.7"/>
	<line class="st0" x1="14" y1="7.1" x2="14" y2="7.1"/>
	<line class="st0" x1="10" y1="7.2" x2="10" y2="7.2"/>
	<line class="st0" x1="16.6" y1="14.3" x2="16.6" y2="14.3"/>
	<line class="st0" x1="9.1" y1="17.9" x2="9.1" y2="17.9"/>
	<line class="st0" x1="16.6" y1="18.5" x2="16.6" y2="18.5"/>
	<line class="st0" x1="20.5" y1="18.5" x2="20.5" y2="18.5"/>
	<line class="st0" x1="21.6" y1="15.9" x2="21.6" y2="15.9"/>
	<line class="st0" x1="20.2" y1="12.4" x2="20.2" y2="12.4"/>
	<line class="st0" x1="23.5" y1="13.5" x2="23.5" y2="13.5"/>
	<line class="st0" x1="23.5" y1="10.2" x2="23.5" y2="10.2"/>
	<line class="st0" x1="21.9" y1="7.9" x2="21.9" y2="7.9"/>
	<line class="st0" x1="22.3" y1="4.7" x2="22.3" y2="4.7"/>
	<line class="st0" x1="21.4" y1="2.2" x2="21.4" y2="2.2"/>
	<line class="st0" x1="23.5" y1="0.7" x2="23.5" y2="0.7"/>
	<line class="st0" x1="28.6" y1="4.7" x2="28.6" y2="4.7"/>
	<line class="st0" x1="31.4" y1="4.5" x2="31.4" y2="4.5"/>
	<line class="st0" x1="29.3" y1="9.1" x2="29.3" y2="9.1"/>
	<line class="st0" x1="32.4" y1="9.7" x2="32.4" y2="9.7"/>
	<line class="st0" x1="32.4" y1="13.1" x2="32.4" y2="13.1"/>
	<line class="st0" x1="26.9" y1="14.1" x2="26.9" y2="14.1"/>
	<line class="st0" x1="34.7" y1="9.1" x2="34.7" y2="9.1"/>
	<line class="st0" x1="37.8" y1="7.4" x2="37.8" y2="7.4"/>
	<line class="st0" x1="39" y1="0.3" x2="39" y2="0.3"/>
	<line class="st0" x1="46.6" y1="1" x2="46.6" y2="1"/>
	<line class="st0" x1="46.9" y1="6.9" x2="46.9" y2="6.9"/>
	<line class="st0" x1="44.3" y1="8.3" x2="44.3" y2="8.3"/>
	<line class="st0" x1="45" y1="10.7" x2="45" y2="10.7"/>
	<line class="st0" x1="44.2" y1="13.5" x2="44.2" y2="13.5"/>
	<line class="st0" x1="44.3" y1="15.4" x2="44.3" y2="15.4"/>
	<line class="st0" x1="46.9" y1="14.5" x2="46.9" y2="14.5"/>
	<line class="st0" x1="4.8" y1="35.9" x2="4.8" y2="35.9"/>
	<line class="st0" x1="5" y1="37.4" x2="5" y2="37.4"/>
	<line class="st0" x1="1.6" y1="37.4" x2="1.6" y2="37.4"/>
	<line class="st0" x1="6.7" y1="44" x2="6.7" y2="44"/>
	<line class="st0" x1="0.7" y1="46.7" x2="0.7" y2="46.7"/>
	<line class="st0" x1="7.6" y1="48.8" x2="7.6" y2="48.8"/>
	<path class="st0" d="M12.8,45L12.8,45"/>
	<line class="st0" x1="11.2" y1="42.8" x2="11.2" y2="42.8"/>
	<line class="st0" x1="13.5" y1="39.7" x2="13.5" y2="39.7"/>
	<line class="st0" x1="8.5" y1="42.6" x2="8.5" y2="42.6"/>
	<line class="st0" x1="11.2" y1="37.6" x2="11.2" y2="37.6"/>
	<line class="st0" x1="13.3" y1="35" x2="13.3" y2="35"/>
	<line class="st0" x1="10.2" y1="35" x2="10.2" y2="35"/>
	<line class="st0" x1="11.2" y1="32.4" x2="11.2" y2="32.4"/>
	<line class="st0" x1="22.4" y1="34.8" x2="22.4" y2="34.8"/>
	<line class="st0" x1="18.8" y1="37.3" x2="18.8" y2="37.3"/>
	<line class="st0" x1="22.1" y1="38.3" x2="22.1" y2="38.3"/>
	<line class="st0" x1="21.4" y1="40.5" x2="21.4" y2="40.5"/>
	<line class="st0" x1="17.9" y1="43.8" x2="17.9" y2="43.8"/>
	<line class="st0" x1="24.8" y1="38.6" x2="24.8" y2="38.6"/>
	<line class="st0" x1="28.8" y1="34.8" x2="28.8" y2="34.8"/>
	<line class="st0" x1="30" y1="30.7" x2="30" y2="30.7"/>
	<line class="st0" x1="34.7" y1="35.4" x2="34.7" y2="35.4"/>
	<line class="st0" x1="35.5" y1="32.8" x2="35.5" y2="32.8"/>
	<line class="st0" x1="38" y1="32.3" x2="38" y2="32.3"/>
	<line class="st0" x1="38" y1="37.3" x2="38" y2="37.3"/>
	<line class="st0" x1="35.4" y1="38.6" x2="35.4" y2="38.6"/>
	<line class="st0" x1="32.9" y1="41.4" x2="32.9" y2="41.4"/>
	<line class="st0" x1="38.1" y1="40" x2="38.1" y2="40"/>
	<line class="st0" x1="40.2" y1="42.3" x2="40.2" y2="42.3"/>
	<line class="st0" x1="14.1" y1="15.4" x2="14.1" y2="15.4"/>
	<line class="st0" x1="26.9" y1="16.9" x2="26.9" y2="16.9"/>
	<line class="st0" x1="32.8" y1="18.6" x2="32.8" y2="18.6"/>
	<line class="st0" x1="38.1" y1="19.1" x2="38.1" y2="19.1"/>
	<line class="st0" x1="35.4" y1="17.3" x2="35.4" y2="17.3"/>
	<line class="st0" x1="35.9" y1="20.2" x2="35.9" y2="20.2"/>
	<line class="st0" x1="43.1" y1="24.3" x2="43.1" y2="24.3"/>
	<line class="st0" x1="39.2" y1="26.7" x2="39.2" y2="26.7"/>
	<line class="st0" x1="33.3" y1="25.5" x2="33.3" y2="25.5"/>
	<line class="st0" x1="33.1" y1="28.3" x2="33.1" y2="28.3"/>
	<line class="st0" x1="33.1" y1="30.4" x2="33.1" y2="30.4"/>
	<line class="st0" x1="40.7" y1="31.7" x2="40.7" y2="31.7"/>
	<line class="st0" x1="43.5" y1="33.6" x2="43.5" y2="33.6"/>
	<line class="st0" x1="47.3" y1="30" x2="47.3" y2="30"/>
	<line class="st0" x1="42.6" y1="26.7" x2="42.6" y2="26.7"/>
	<line class="st0" x1="22.4" y1="32.3" x2="22.4" y2="32.3"/>
	<line class="st0" x1="18.7" y1="27.9" x2="18.7" y2="27.9"/>
	<line class="st0" x1="20.5" y1="24.3" x2="20.5" y2="24.3"/>
	<line class="st0" x1="7.2" y1="18.8" x2="7.2" y2="18.8"/>
	<line class="st0" x1="4.1" y1="21.6" x2="4.1" y2="21.6"/>
	<line class="st0" x1="1.7" y1="24.1" x2="1.7" y2="24.1"/>
	<line class="st0" x1="11.7" y1="28.8" x2="11.7" y2="28.8"/>
	<line class="st0" x1="9.7" y1="23.3" x2="9.7" y2="23.3"/>
	<line class="st0" x1="18.3" y1="20.7" x2="18.3" y2="20.7"/>
	<line class="st0" x1="28.6" y1="21.6" x2="28.6" y2="21.6"/>
	<line class="st0" x1="25.7" y1="21.6" x2="25.7" y2="21.6"/>
	<line class="st0" x1="21" y1="27.3" x2="21" y2="27.3"/>
	<line class="st0" x1="4.5" y1="14" x2="4.5" y2="14"/>
	<line class="st0" x1="6.7" y1="12.8" x2="6.7" y2="12.8"/>
	<line class="st0" x1="8.1" y1="16" x2="8.1" y2="16"/>
	<line class="st0" x1="2.1" y1="17.6" x2="2.1" y2="17.6"/>
	<line class="st0" x1="44.3" y1="20.2" x2="44.3" y2="20.2"/>
	<line class="st0" x1="48" y1="20.4" x2="48" y2="20.4"/>
	<line class="st0" x1="1" y1="6" x2="1" y2="6"/>
	<line class="st0" x1="12.2" y1="4.5" x2="12.2" y2="4.5"/>
	<line class="st0" x1="2.6" y1="4" x2="2.6" y2="4"/>
	<line class="st0" x1="8.8" y1="9.7" x2="8.8" y2="9.7"/>
	<line class="st0" x1="12.8" y1="13.1" x2="12.8" y2="13.1"/>
	<line class="st0" x1="14.7" y1="25.4" x2="14.7" y2="25.4"/>
	<line class="st0" x1="0.5" y1="30.4" x2="0.5" y2="30.4"/>
	<line class="st0" x1="48" y1="45.2" x2="48" y2="45.2"/>
	<line class="st0" x1="39.7" y1="47.4" x2="39.7" y2="47.4"/>
	<line class="st0" x1="27.9" y1="46.7" x2="27.9" y2="46.7"/>
	<line class="st0" x1="3.1" y1="41.2" x2="3.1" y2="41.2"/>
	<line class="st0" x1="18.3" y1="40.9" x2="18.3" y2="40.9"/>
	<line class="st0" x1="25.7" y1="33.3" x2="25.7" y2="33.3"/>
	<line class="st0" x1="6" y1="27.6" x2="6" y2="27.6"/>
	<line class="st0" x1="36.1" y1="26" x2="36.1" y2="26"/>
	<line class="st0" x1="44.7" y1="31.4" x2="44.7" y2="31.4"/>
	<line class="st0" x1="35.4" y1="45.5" x2="35.4" y2="45.5"/>
	<line class="st0" x1="27.6" y1="25.9" x2="27.6" y2="25.9"/>
	<line class="st0" x1="19" y1="9.1" x2="19" y2="9.1"/>
	<line class="st0" x1="13.6" y1="18.1" x2="13.6" y2="18.1"/>
	<line class="st0" x1="8.1" y1="1" x2="8.1" y2="1"/>
	<line class="st0" x1="38.1" y1="2.4" x2="38.1" y2="2.4"/>
	<line class="st0" x1="33.1" y1="47.4" x2="33.1" y2="47.4"/>
	<line class="st0" x1="2.6" y1="27.9" x2="2.6" y2="27.9"/>
	<line class="st0" x1="47.4" y1="9" x2="47.4" y2="9"/>
	<line class="st0" x1="16" y1="9.5" x2="16" y2="9.5"/>
	<line class="st0" x1="12.9" y1="10.7" x2="12.9" y2="10.7"/>
	<line class="st0" x1="10.2" y1="11.7" x2="10.2" y2="11.7"/>
	<line class="st0" x1="3.4" y1="7.6" x2="3.4" y2="7.6"/>
	<line class="st0" x1="4.8" y1="1.7" x2="4.8" y2="1.7"/>
	<line class="st0" x1="9.8" y1="5.5" x2="9.8" y2="5.5"/>
	<line class="st0" x1="17.8" y1="4.7" x2="17.8" y2="4.7"/>
	<line class="st0" x1="25.5" y1="5" x2="25.5" y2="5"/>
	<line class="st0" x1="25.9" y1="2.8" x2="25.9" y2="2.8"/>
	<line class="st0" x1="30" y1="0.9" x2="30" y2="0.9"/>
	<line class="st0" x1="35.4" y1="6" x2="35.4" y2="6"/>
	<line class="st0" x1="24.7" y1="7.4" x2="24.7" y2="7.4"/>
	<line class="st0" x1="27.1" y1="10.2" x2="27.1" y2="10.2"/>
	<line class="st0" x1="17.1" y1="12.2" x2="17.1" y2="12.2"/>
	<line class="st0" x1="5" y1="19" x2="5" y2="19"/>
	<line class="st0" x1="11" y1="21.7" x2="11" y2="21.7"/>
	<line class="st0" x1="7.2" y1="22.9" x2="7.2" y2="22.9"/>
	<line class="st0" x1="3.6" y1="25.4" x2="3.6" y2="25.4"/>
	<line class="st0" x1="2.2" y1="14" x2="2.2" y2="14"/>
	<line class="st0" x1="14.1" y1="21" x2="14.1" y2="21"/>
	<line class="st0" x1="12.1" y1="24.3" x2="12.1" y2="24.3"/>
	<line class="st0" x1="11" y1="26.7" x2="11" y2="26.7"/>
	<line class="st0" x1="8.8" y1="28.3" x2="8.8" y2="28.3"/>
	<line class="st0" x1="8.8" y1="31.9" x2="8.8" y2="31.9"/>
	<line class="st0" x1="15.9" y1="33.6" x2="15.9" y2="33.6"/>
	<line class="st0" x1="7.6" y1="37.4" x2="7.6" y2="37.4"/>
	<line class="st0" x1="10.7" y1="40.2" x2="10.7" y2="40.2"/>
	<line class="st0" x1="4.1" y1="43.6" x2="4.1" y2="43.6"/>
	<line class="st0" x1="1.6" y1="42.6" x2="1.6" y2="42.6"/>
	<line class="st0" x1="6.2" y1="46.7" x2="6.2" y2="46.7"/>
	<line class="st0" x1="9.3" y1="47.8" x2="9.3" y2="47.8"/>
	<line class="st0" x1="15" y1="48.6" x2="15" y2="48.6"/>
	<line class="st0" x1="15.9" y1="45.2" x2="15.9" y2="45.2"/>
	<line class="st0" x1="15.4" y1="41.2" x2="15.4" y2="41.2"/>
	<line class="st0" x1="16.7" y1="39.5" x2="16.7" y2="39.5"/>
	<line class="st0" x1="18.1" y1="32.8" x2="18.1" y2="32.8"/>
	<line class="st0" x1="17.8" y1="29.8" x2="17.8" y2="29.8"/>
	<line class="st0" x1="22.3" y1="21.2" x2="22.3" y2="21.2"/>
	<line class="st0" x1="23.6" y1="18.5" x2="23.6" y2="18.5"/>
	<line class="st0" x1="30.2" y1="17.1" x2="30.2" y2="17.1"/>
	<line class="st0" x1="29.7" y1="14.1" x2="29.7" y2="14.1"/>
	<line class="st0" x1="19.1" y1="15.2" x2="19.1" y2="15.2"/>
	<line class="st0" x1="35.9" y1="15" x2="35.9" y2="15"/>
	<line class="st0" x1="29.8" y1="12.1" x2="29.8" y2="12.1"/>
	<line class="st0" x1="34.8" y1="12.2" x2="34.8" y2="12.2"/>
	<line class="st0" x1="41.1" y1="11.7" x2="41.1" y2="11.7"/>
	<line class="st0" x1="40.2" y1="9.5" x2="40.2" y2="9.5"/>
	<line class="st0" x1="41.1" y1="7.2" x2="41.1" y2="7.2"/>
	<line class="st0" x1="40.5" y1="5" x2="40.5" y2="5"/>
	<line class="st0" x1="41.4" y1="3.1" x2="41.4" y2="3.1"/>
	<line class="st0" x1="46.6" y1="4" x2="46.6" y2="4"/>
	<line class="st0" x1="43.8" y1="6.2" x2="43.8" y2="6.2"/>
	<line class="st0" x1="41.6" y1="16.2" x2="41.6" y2="16.2"/>
	<line class="st0" x1="38.3" y1="16.2" x2="38.3" y2="16.2"/>
	<line class="st0" x1="38.3" y1="12.8" x2="38.3" y2="12.8"/>
	<line class="st0" x1="44.9" y1="17.6" x2="44.9" y2="17.6"/>
	<line class="st0" x1="41.1" y1="21" x2="41.1" y2="21"/>
	<line class="st0" x1="36.4" y1="22.4" x2="36.4" y2="22.4"/>
	<line class="st0" x1="32.8" y1="23.1" x2="32.8" y2="23.1"/>
	<line class="st0" x1="30.5" y1="26.9" x2="30.5" y2="26.9"/>
	<line class="st0" x1="23.5" y1="28.5" x2="23.5" y2="28.5"/>
	<line class="st0" x1="27.6" y1="31.6" x2="27.6" y2="31.6"/>
	<line class="st0" x1="31.6" y1="35.9" x2="31.6" y2="35.9"/>
	<line class="st0" x1="32.1" y1="39" x2="32.1" y2="39"/>
	<line class="st0" x1="29" y1="40.9" x2="29" y2="40.9"/>
	<line class="st0" x1="27.6" y1="43.1" x2="27.6" y2="43.1"/>
	<line class="st0" x1="24.8" y1="43.1" x2="24.8" y2="43.1"/>
	<line class="st0" x1="25.2" y1="36.2" x2="25.2" y2="36.2"/>
	<line class="st0" x1="20.9" y1="42.8" x2="20.9" y2="42.8"/>
	<line class="st0" x1="21.7" y1="47.1" x2="21.7" y2="47.1"/>
	<line class="st0" x1="25.9" y1="48.1" x2="25.9" y2="48.1"/>
	<line class="st0" x1="43.5" y1="39.2" x2="43.5" y2="39.2"/>
	<line class="st0" x1="41.4" y1="34.8" x2="41.4" y2="34.8"/>
	<line class="st0" x1="37.6" y1="34.7" x2="37.6" y2="34.7"/>
	<line class="st0" x1="37.8" y1="28.6" x2="37.8" y2="28.6"/>
	<line class="st0" x1="43.1" y1="29" x2="43.1" y2="29"/>
	<line class="st0" x1="47.8" y1="33.3" x2="47.8" y2="33.3"/>
	<line class="st0" x1="48" y1="37.3" x2="48" y2="37.3"/>
	<line class="st0" x1="43.8" y1="42.4" x2="43.8" y2="42.4"/>
	<line class="st0" x1="48.5" y1="40.7" x2="48.5" y2="40.7"/>
	<line class="st0" x1="44.7" y1="45" x2="44.7" y2="45"/>
	<line class="st0" x1="45.4" y1="46.9" x2="45.4" y2="46.9"/>
	<line class="st0" x1="43.1" y1="48.3" x2="43.1" y2="48.3"/>
	<line class="st0" x1="36.4" y1="48" x2="36.4" y2="48"/>
	<line class="st0" x1="30.9" y1="45.7" x2="30.9" y2="45.7"/>
	<line class="st0" x1="19.7" y1="49" x2="19.7" y2="49"/>
	<line class="st0" x1="1.4" y1="20" x2="1.4" y2="20"/>
	<line class="st0" x1="9.1" y1="3.3" x2="9.1" y2="3.3"/>
	<line class="st0" x1="48.5" y1="23.6" x2="48.5" y2="23.6"/>
	<line class="st0" x1="49.2" y1="28.3" x2="49.2" y2="28.3"/>
	<line class="st0" x1="2.1" y1="35" x2="2.1" y2="35"/>
	<line class="st0" x1="47.6" y1="18.1" x2="47.6" y2="18.1"/>
	<line class="st0" x1="46.6" y1="42.4" x2="46.6" y2="42.4"/>
	<line class="st0" x1="0.3" y1="39.7" x2="0.3" y2="39.7"/>
	<line class="st0" x1="1.9" y1="49" x2="1.9" y2="49"/>
	<line class="st0" x1="49" y1="16" x2="49" y2="16"/>
	<line class="st0" x1="0.9" y1="11.4" x2="0.9" y2="11.4"/>
	<line class="st0" x1="12.4" y1="8.6" x2="12.4" y2="8.6"/>
	<line class="st0" x1="20.2" y1="6.7" x2="20.2" y2="6.7"/>
	<line class="st0" x1="18.5" y1="2.4" x2="18.5" y2="2.4"/>
	<line class="st0" x1="27.8" y1="6.9" x2="27.8" y2="6.9"/>
	<line class="st0" x1="31.9" y1="6.9" x2="31.9" y2="6.9"/>
	<line class="st0" x1="32.6" y1="15.5" x2="32.6" y2="15.5"/>
	<line class="st0" x1="37.8" y1="4.5" x2="37.8" y2="4.5"/>
	<line class="st0" x1="44.2" y1="4.3" x2="44.2" y2="4.3"/>
	<line class="st0" x1="43.3" y1="1.2" x2="43.3" y2="1.2"/>
	<line class="st0" x1="48" y1="12.2" x2="48" y2="12.2"/>
	<line class="st0" x1="5.5" y1="32.3" x2="5.5" y2="32.3"/>
	<line class="st0" x1="3.4" y1="39" x2="3.4" y2="39"/>
	<line class="st0" x1="2.2" y1="45.2" x2="2.2" y2="45.2"/>
	<line class="st0" x1="12.2" y1="48" x2="12.2" y2="48"/>
	<line class="st0" x1="14.5" y1="43.3" x2="14.5" y2="43.3"/>
	<line class="st0" x1="14.5" y1="31" x2="14.5" y2="31"/>
	<line class="st0" x1="19.7" y1="35" x2="19.7" y2="35"/>
	<line class="st0" x1="25.2" y1="41.2" x2="25.2" y2="41.2"/>
	<line class="st0" x1="23.6" y1="45.9" x2="23.6" y2="45.9"/>
	<line class="st0" x1="28.8" y1="37.8" x2="28.8" y2="37.8"/>
	<line class="st0" x1="36.1" y1="41.1" x2="36.1" y2="41.1"/>
	<line class="st0" x1="34.2" y1="43.5" x2="34.2" y2="43.5"/>
	<line class="st0" x1="38" y1="44.9" x2="38" y2="44.9"/>
	<line class="st0" x1="17.4" y1="16.7" x2="17.4" y2="16.7"/>
	<line class="st0" x1="24.3" y1="15.9" x2="24.3" y2="15.9"/>
	<line class="st0" x1="29.3" y1="19.3" x2="29.3" y2="19.3"/>
	<line class="st0" x1="35.9" y1="29.5" x2="35.9" y2="29.5"/>
	<line class="st0" x1="46.2" y1="35.5" x2="46.2" y2="35.5"/>
	<line class="st0" x1="32.6" y1="32.8" x2="32.6" y2="32.8"/>
	<line class="st0" x1="25.5" y1="30.5" x2="25.5" y2="30.5"/>
	<line class="st0" x1="11.7" y1="19.5" x2="11.7" y2="19.5"/>
	<line class="st0" x1="7.8" y1="25.2" x2="7.8" y2="25.2"/>
	<line class="st0" x1="45.5" y1="22.3" x2="45.5" y2="22.3"/>
	<line class="st0" x1="5" y1="10.7" x2="5" y2="10.7"/>
	<line class="st0" x1="5.9" y1="3.4" x2="5.9" y2="3.4"/>
	<line class="st0" x1="2.4" y1="1.6" x2="2.4" y2="1.6"/>
	<line class="st0" x1="45.9" y1="25.5" x2="45.9" y2="25.5"/>
	<line class="st0" x1="30.4" y1="43.3" x2="30.4" y2="43.3"/>
	<line class="st0" x1="17.8" y1="48.1" x2="17.8" y2="48.1"/>
	<line class="st0" x1="15.2" y1="28.6" x2="15.2" y2="28.6"/>
	<line class="st0" x1="28.6" y1="23.6" x2="28.6" y2="23.6"/>
	<line class="st0" x1="45.7" y1="27.8" x2="45.7" y2="27.8"/>
	<line class="st0" x1="36.7" y1="10.2" x2="36.7" y2="10.2"/>
	<line class="st0" x1="26.2" y1="12.1" x2="26.2" y2="12.1"/>
	<line class="st0" x1="9" y1="13.6" x2="9" y2="13.6"/>
	<line class="st0" x1="34.2" y1="2.9" x2="34.2" y2="2.9"/>
	<line class="st0" x1="40.7" y1="14.1" x2="40.7" y2="14.1"/>
	<line class="st0" x1="46.6" y1="39.3" x2="46.6" y2="39.3"/>
	<line class="st0" x1="3.6" y1="48" x2="3.6" y2="48"/>
	<line class="st0" x1="1.9" y1="9" x2="1.9" y2="9"/>
	<line class="st0" x1="11.7" y1="1.7" x2="11.7" y2="1.7"/>
	<line class="st0" x1="29.3" y1="2.9" x2="29.3" y2="2.9"/>
	<line class="st0" x1="1.9" y1="21.9" x2="1.9" y2="21.9"/>
	<line class="st0" x1="5.2" y1="17.1" x2="5.2" y2="17.1"/>
	<line class="st0" x1="2.2" y1="32.4" x2="2.2" y2="32.4"/>
	<line class="st0" x1="8.5" y1="35.8" x2="8.5" y2="35.8"/>
	<line class="st0" x1="6.9" y1="41.1" x2="6.9" y2="41.1"/>
	<line class="st0" x1="9.3" y1="45.2" x2="9.3" y2="45.2"/>
	<line class="st0" x1="15.2" y1="36.6" x2="15.2" y2="36.6"/>
	<line class="st0" x1="23.5" y1="23.3" x2="23.5" y2="23.3"/>
	<line class="st0" x1="17.9" y1="23.3" x2="17.9" y2="23.3"/>
	<line class="st0" x1="25.7" y1="19.5" x2="25.7" y2="19.5"/>
	<line class="st0" x1="42.3" y1="18.5" x2="42.3" y2="18.5"/>
	<line class="st0" x1="40.5" y1="39.2" x2="40.5" y2="39.2"/>
	<line class="st0" x1="40.5" y1="29.2" x2="40.5" y2="29.2"/>
	<line class="st0" x1="38.5" y1="24.3" x2="38.5" y2="24.3"/>
	<line class="st0" x1="47.8" y1="48.5" x2="47.8" y2="48.5"/>
	<line class="st0" x1="41.9" y1="45.2" x2="41.9" y2="45.2"/>
	<line class="st0" x1="30.7" y1="49" x2="30.7" y2="49"/>
	<line class="st0" x1="16.9" y1="0.5" x2="16.9" y2="0.5"/>
	<line class="st0" x1="19.5" y1="46.1" x2="19.5" y2="46.1"/>
	<line class="st0" x1="24" y1="25.5" x2="24" y2="25.5"/>
	<line class="st0" x1="27.3" y1="28.1" x2="27.3" y2="28.1"/>
	<line class="st0" x1="40.7" y1="22.9" x2="40.7" y2="22.9"/>
	<line class="st0" x1="5" y1="29.5" x2="5" y2="29.5"/>
	<line class="st0" x1="7.1" y1="6.2" x2="7.1" y2="6.2"/>
	<line class="st0" x1="31.9" y1="21" x2="31.9" y2="21"/>
	<line class="st0" x1="11.2" y1="15.4" x2="11.2" y2="15.4"/>
	<line class="st0" x1="16.7" y1="7.1" x2="16.7" y2="7.1"/>
	<line class="st0" x1="4.7" y1="5.7" x2="4.7" y2="5.7"/>
	<line class="st0" x1="4.5" y1="23.3" x2="4.5" y2="23.3"/>
	<line class="st0" x1="15.2" y1="22.9" x2="15.2" y2="22.9"/>
	<line class="st0" x1="20.5" y1="30.4" x2="20.5" y2="30.4"/>
	<line class="st0" x1="43.6" y1="36.9" x2="43.6" y2="36.9"/>
	<line class="st0" x1="14.8" y1="46.7" x2="14.8" y2="46.7"/>
	<line class="st0" x1="34.3" y1="0.7" x2="34.3" y2="0.7"/>
	<line class="st0" x1="49.2" y1="43.3" x2="49.2" y2="43.3"/>
	<line class="st0" x1="48.6" y1="2.6" x2="48.6" y2="2.6"/>
	<line class="st0" x1="49.3" y1="34.7" x2="49.3" y2="34.7"/>
	<line class="st0" x1="48.6" y1="7.4" x2="48.6" y2="7.4"/>
	<line class="st0" x1="49" y1="26.2" x2="49" y2="26.2"/>
	<line class="st0" x1="27.4" y1="1" x2="27.4" y2="1"/>
	<line class="st0" x1="14.5" y1="1.9" x2="14.5" y2="1.9"/>
	<line class="st0" x1="21.9" y1="7.9" x2="21.9" y2="7.9"/>
	<line class="st0" x1="46.9" y1="14.5" x2="46.9" y2="14.5"/>
	<line class="st0" x1="29.5" y1="33.1" x2="29.5" y2="33.1"/>
	<line class="st0" x1="21.4" y1="40.5" x2="21.4" y2="40.5"/>
	<line class="st0" x1="38" y1="37.3" x2="38" y2="37.3"/>
	<line class="st0" x1="8.6" y1="21.3" x2="8.6" y2="21.3"/>
	<line class="st0" x1="6.6" y1="9.2" x2="6.6" y2="9.2"/>
	<line class="st0" x1="14.9" y1="12.8" x2="14.9" y2="12.8"/>
	<line class="st0" x1="23.6" y1="18.5" x2="23.6" y2="18.5"/>
	<line class="st0" x1="34.8" y1="12.2" x2="34.8" y2="12.2"/>
	<line class="st0" x1="41.4" y1="3.1" x2="41.4" y2="3.1"/>
	<line class="st0" x1="31.2" y1="24.6" x2="31.2" y2="24.6"/>
	<line class="st0" x1="49.2" y1="28.3" x2="49.2" y2="28.3"/>
	<line class="st0" x1="7.3" y1="33.9" x2="7.3" y2="33.9"/>
	<line class="st0" x1="9.3" y1="45.2" x2="9.3" y2="45.2"/>
	<line class="st0" x1="30.7" y1="49" x2="30.7" y2="49"/>
	<line class="st0" x1="40.7" y1="22.9" x2="40.7" y2="22.9"/>
	<line class="st0" x1="17.2" y1="25.6" x2="17.2" y2="25.6"/>
	<line class="st0" x1="49.2" y1="43.3" x2="49.2" y2="43.3"/>
</g>
</svg>
