<?xml version="1.0" encoding="utf-8"?>
<!-- Generator: Adobe Illustrator 23.0.1, SVG Export Plug-In . SVG Version: 6.00 Build 0)  -->
<svg version="1.1" id="Layer_1" xmlns="http://www.w3.org/2000/svg" xmlns:xlink="http://www.w3.org/1999/xlink" x="0px" y="0px"
	 viewBox="0 0 54.1 54.1" style="enable-background:new 0 0 54.1 54.1;" xml:space="preserve">
<style type="text/css">
	.st0{fill:none;stroke:#000000;stroke-width:0.3;}
	.st1{fill:none;stroke:#000000;stroke-width:0.7;stroke-linecap:round;}
</style>
<g>
	<line class="st0" x1="5.6" y1="1.3" x2="14.7" y2="1.3"/>
	<line class="st0" x1="23.8" y1="1.3" x2="32.8" y2="1.3"/>
	<line class="st0" x1="51" y1="1.3" x2="41.9" y2="1.3"/>
	<line class="st0" x1="6.8" y1="4.5" x2="0" y2="4.5"/>
	<line class="st0" x1="24.7" y1="4.5" x2="15.6" y2="4.5"/>
	<line class="st0" x1="33.8" y1="4.5" x2="42.8" y2="4.5"/>
	<line class="st0" x1="17" y1="7.5" x2="7.9" y2="7.5"/>
	<line class="st0" x1="35" y1="7.5" x2="25.9" y2="7.5"/>
	<line class="st0" x1="43.8" y1="7.5" x2="52.8" y2="7.5"/>
	<line class="st0" x1="6.8" y1="10.4" x2="0" y2="10.4"/>
	<line class="st0" x1="24.7" y1="10.4" x2="15.6" y2="10.4"/>
	<line class="st0" x1="33.6" y1="10.4" x2="42.7" y2="10.4"/>
	<line class="st0" x1="50.7" y1="13.4" x2="41.6" y2="13.4"/>
	<line class="st0" x1="32.7" y1="13.4" x2="23.6" y2="13.4"/>
	<line class="st0" x1="14.6" y1="13.4" x2="5.5" y2="13.4"/>
	<line class="st0" x1="0" y1="16.5" x2="5.1" y2="16.5"/>
	<line class="st0" x1="23.1" y1="16.5" x2="14" y2="16.5"/>
	<line class="st0" x1="31.9" y1="16.5" x2="41" y2="16.5"/>
	<line class="st0" x1="41.6" y1="19.4" x2="50.7" y2="19.4"/>
	<line class="st0" x1="23.8" y1="19.4" x2="32.8" y2="19.4"/>
	<line class="st0" x1="5.9" y1="19.4" x2="15" y2="19.4"/>
	<line class="st0" x1="5" y1="22.5" x2="0" y2="22.5"/>
	<line class="st0" x1="13.8" y1="22.5" x2="22.8" y2="22.5"/>
	<line class="st0" x1="31.8" y1="22.5" x2="40.8" y2="22.5"/>
	<line class="st0" x1="39.8" y1="25.5" x2="48.8" y2="25.5"/>
	<line class="st0" x1="30.8" y1="25.5" x2="21.8" y2="25.5"/>
	<line class="st0" x1="12.6" y1="25.5" x2="3.5" y2="25.5"/>
	<line class="st0" x1="0" y1="28.6" x2="3" y2="28.6"/>
	<line class="st0" x1="20.8" y1="28.6" x2="11.8" y2="28.6"/>
	<line class="st0" x1="29.9" y1="28.6" x2="39" y2="28.6"/>
	<line class="st0" x1="37.6" y1="31.5" x2="46.7" y2="31.5"/>
	<line class="st0" x1="19.6" y1="31.5" x2="28.7" y2="31.5"/>
	<line class="st0" x1="10.8" y1="31.5" x2="1.8" y2="31.5"/>
	<line class="st0" x1="2.6" y1="34.6" x2="0" y2="34.6"/>
	<line class="st0" x1="20.6" y1="34.6" x2="11.5" y2="34.6"/>
	<line class="st0" x1="29.5" y1="34.6" x2="38.6" y2="34.6"/>
	<line class="st0" x1="39.8" y1="37.6" x2="48.8" y2="37.6"/>
	<line class="st0" x1="21.8" y1="37.6" x2="30.8" y2="37.6"/>
	<line class="st0" x1="12.8" y1="37.6" x2="3.8" y2="37.6"/>
	<line class="st0" x1="5.1" y1="40.6" x2="0" y2="40.6"/>
	<line class="st0" x1="13.9" y1="40.6" x2="23" y2="40.6"/>
	<line class="st0" x1="31.8" y1="40.6" x2="40.8" y2="40.6"/>
	<line class="st0" x1="41.6" y1="43.5" x2="50.7" y2="43.5"/>
	<line class="st0" x1="33" y1="43.5" x2="23.9" y2="43.5"/>
	<line class="st0" x1="15" y1="43.5" x2="5.9" y2="43.5"/>
	<line class="st0" x1="6.5" y1="46.8" x2="0" y2="46.8"/>
	<line class="st0" x1="15.5" y1="46.8" x2="24.6" y2="46.8"/>
	<line class="st0" x1="33.6" y1="46.8" x2="42.7" y2="46.8"/>
	<line class="st0" x1="50.7" y1="49.6" x2="41.6" y2="49.6"/>
	<line class="st0" x1="33" y1="49.6" x2="23.9" y2="49.6"/>
	<line class="st0" x1="14.8" y1="49.6" x2="5.8" y2="49.6"/>
	<line class="st0" x1="0" y1="52.8" x2="5.1" y2="52.8"/>
	<line class="st0" x1="22.8" y1="52.8" x2="13.8" y2="52.8"/>
	<line class="st0" x1="40.7" y1="52.8" x2="31.6" y2="52.8"/>
	<line class="st0" x1="51.9" y1="4.5" x2="54.1" y2="4.5"/>
	<line class="st0" x1="51.9" y1="10.4" x2="54.1" y2="10.4"/>
	<line class="st0" x1="50.2" y1="16.5" x2="54.1" y2="16.5"/>
	<line class="st0" x1="54.1" y1="22.5" x2="50" y2="22.5"/>
	<line class="st0" x1="48" y1="28.6" x2="54.1" y2="28.6"/>
	<line class="st0" x1="47.7" y1="34.6" x2="54.1" y2="34.6"/>
	<line class="st0" x1="50.2" y1="40.6" x2="54.1" y2="40.6"/>
	<line class="st0" x1="51.5" y1="46.8" x2="54.1" y2="46.8"/>
	<line class="st0" x1="50.2" y1="52.8" x2="54.1" y2="52.8"/>
	<line class="st1" x1="11.3" y1="4.5" x2="11.3" y2="4.5"/>
	<line class="st1" x1="13.6" y1="4.5" x2="13.6" y2="4.5"/>
	<line class="st1" x1="8.9" y1="4.5" x2="8.9" y2="4.5"/>
	<line class="st1" x1="29.3" y1="4.5" x2="29.3" y2="4.5"/>
	<line class="st1" x1="31.6" y1="4.5" x2="31.6" y2="4.5"/>
	<line class="st1" x1="26.9" y1="4.5" x2="26.9" y2="4.5"/>
	<line class="st1" x1="47.4" y1="4.5" x2="47.4" y2="4.5"/>
	<line class="st1" x1="49.7" y1="4.5" x2="49.7" y2="4.5"/>
	<line class="st1" x1="45" y1="4.5" x2="45" y2="4.5"/>
	<line class="st1" x1="39.5" y1="7.5" x2="39.5" y2="7.5"/>
	<line class="st1" x1="41.7" y1="7.5" x2="41.7" y2="7.5"/>
	<line class="st1" x1="37.1" y1="7.5" x2="37.1" y2="7.5"/>
	<line class="st1" x1="21.5" y1="7.5" x2="21.5" y2="7.5"/>
	<line class="st1" x1="23.7" y1="7.5" x2="23.7" y2="7.5"/>
	<line class="st1" x1="19.1" y1="7.5" x2="19.1" y2="7.5"/>
	<line class="st1" x1="3.5" y1="7.5" x2="3.5" y2="7.5"/>
	<line class="st1" x1="5.8" y1="7.5" x2="5.8" y2="7.5"/>
	<line class="st1" x1="1.1" y1="7.5" x2="1.1" y2="7.5"/>
	<line class="st1" x1="19.1" y1="1.4" x2="19.1" y2="1.4"/>
	<line class="st1" x1="21.4" y1="1.4" x2="21.4" y2="1.4"/>
	<line class="st1" x1="16.7" y1="1.4" x2="16.7" y2="1.4"/>
	<line class="st1" x1="1.2" y1="1.4" x2="1.2" y2="1.4"/>
	<line class="st1" x1="3.5" y1="1.4" x2="3.5" y2="1.4"/>
	<line class="st1" x1="37.4" y1="1.4" x2="37.4" y2="1.4"/>
	<line class="st1" x1="39.7" y1="1.4" x2="39.7" y2="1.4"/>
	<line class="st1" x1="35" y1="1.4" x2="35" y2="1.4"/>
	<line class="st1" x1="52.8" y1="1.4" x2="52.8" y2="1.4"/>
	<line class="st1" x1="29.2" y1="10.4" x2="29.2" y2="10.4"/>
	<line class="st1" x1="31.4" y1="10.4" x2="31.4" y2="10.4"/>
	<line class="st1" x1="26.8" y1="10.4" x2="26.8" y2="10.4"/>
	<line class="st1" x1="11.3" y1="10.4" x2="11.3" y2="10.4"/>
	<line class="st1" x1="13.6" y1="10.4" x2="13.6" y2="10.4"/>
	<line class="st1" x1="8.9" y1="10.4" x2="8.9" y2="10.4"/>
	<line class="st1" x1="47.4" y1="10.4" x2="47.4" y2="10.4"/>
	<line class="st1" x1="49.7" y1="10.4" x2="49.7" y2="10.4"/>
	<line class="st1" x1="45" y1="10.4" x2="45" y2="10.4"/>
	<line class="st1" x1="19" y1="13.4" x2="19" y2="13.4"/>
	<line class="st1" x1="21.3" y1="13.4" x2="21.3" y2="13.4"/>
	<line class="st1" x1="16.6" y1="13.4" x2="16.6" y2="13.4"/>
	<line class="st1" x1="1.1" y1="13.4" x2="1.1" y2="13.4"/>
	<line class="st1" x1="3.4" y1="13.4" x2="3.4" y2="13.4"/>
	<line class="st1" x1="37.3" y1="13.4" x2="37.3" y2="13.4"/>
	<line class="st1" x1="39.5" y1="13.4" x2="39.5" y2="13.4"/>
	<line class="st1" x1="34.9" y1="13.4" x2="34.9" y2="13.4"/>
	<line class="st1" x1="52.7" y1="13.4" x2="52.7" y2="13.4"/>
	<line class="st1" x1="27.4" y1="16.5" x2="27.4" y2="16.5"/>
	<line class="st1" x1="29.7" y1="16.5" x2="29.7" y2="16.5"/>
	<line class="st1" x1="25.1" y1="16.5" x2="25.1" y2="16.5"/>
	<line class="st1" x1="9.6" y1="16.5" x2="9.6" y2="16.5"/>
	<line class="st1" x1="11.8" y1="16.5" x2="11.8" y2="16.5"/>
	<line class="st1" x1="7.2" y1="16.5" x2="7.2" y2="16.5"/>
	<line class="st1" x1="45.7" y1="16.5" x2="45.7" y2="16.5"/>
	<line class="st1" x1="48" y1="16.5" x2="48" y2="16.5"/>
	<line class="st1" x1="43.3" y1="16.5" x2="43.3" y2="16.5"/>
	<line class="st1" x1="18.9" y1="19.4" x2="18.9" y2="19.4"/>
	<line class="st1" x1="21.2" y1="19.4" x2="21.2" y2="19.4"/>
	<line class="st1" x1="16.5" y1="19.4" x2="16.5" y2="19.4"/>
	<line class="st1" x1="1" y1="19.4" x2="1" y2="19.4"/>
	<line class="st1" x1="3.3" y1="19.4" x2="3.3" y2="19.4"/>
	<line class="st1" x1="37.1" y1="19.4" x2="37.1" y2="19.4"/>
	<line class="st1" x1="39.4" y1="19.4" x2="39.4" y2="19.4"/>
	<line class="st1" x1="34.7" y1="19.4" x2="34.7" y2="19.4"/>
	<line class="st1" x1="52.5" y1="19.4" x2="52.5" y2="19.4"/>
	<line class="st1" x1="27.3" y1="22.5" x2="27.3" y2="22.5"/>
	<line class="st1" x1="29.6" y1="22.5" x2="29.6" y2="22.5"/>
	<line class="st1" x1="24.9" y1="22.5" x2="24.9" y2="22.5"/>
	<line class="st1" x1="9.4" y1="22.5" x2="9.4" y2="22.5"/>
	<line class="st1" x1="11.7" y1="22.5" x2="11.7" y2="22.5"/>
	<line class="st1" x1="7" y1="22.5" x2="7" y2="22.5"/>
	<line class="st1" x1="45.6" y1="22.5" x2="45.6" y2="22.5"/>
	<line class="st1" x1="47.8" y1="22.5" x2="47.8" y2="22.5"/>
	<line class="st1" x1="43.2" y1="22.5" x2="43.2" y2="22.5"/>
	<line class="st1" x1="17.1" y1="25.5" x2="17.1" y2="25.5"/>
	<line class="st1" x1="19.3" y1="25.5" x2="19.3" y2="25.5"/>
	<line class="st1" x1="14.7" y1="25.5" x2="14.7" y2="25.5"/>
	<line class="st1" x1="1.5" y1="25.5" x2="1.5" y2="25.5"/>
	<line class="st1" x1="35.3" y1="25.5" x2="35.3" y2="25.5"/>
	<line class="st1" x1="37.6" y1="25.5" x2="37.6" y2="25.5"/>
	<line class="st1" x1="32.9" y1="25.5" x2="32.9" y2="25.5"/>
	<line class="st1" x1="53.1" y1="25.5" x2="53.1" y2="25.5"/>
	<line class="st1" x1="50.7" y1="25.5" x2="50.7" y2="25.5"/>
	<line class="st1" x1="25.3" y1="28.6" x2="25.3" y2="28.6"/>
	<line class="st1" x1="27.5" y1="28.6" x2="27.5" y2="28.6"/>
	<line class="st1" x1="22.9" y1="28.6" x2="22.9" y2="28.6"/>
	<line class="st1" x1="7.4" y1="28.6" x2="7.4" y2="28.6"/>
	<line class="st1" x1="9.7" y1="28.6" x2="9.7" y2="28.6"/>
	<line class="st1" x1="5" y1="28.6" x2="5" y2="28.6"/>
	<line class="st1" x1="43.5" y1="28.6" x2="43.5" y2="28.6"/>
	<line class="st1" x1="45.8" y1="28.6" x2="45.8" y2="28.6"/>
	<line class="st1" x1="41.1" y1="28.6" x2="41.1" y2="28.6"/>
	<line class="st1" x1="14.9" y1="31.5" x2="14.9" y2="31.5"/>
	<line class="st1" x1="17.2" y1="31.5" x2="17.2" y2="31.5"/>
	<line class="st1" x1="12.6" y1="31.5" x2="12.6" y2="31.5"/>
	<line class="st1" x1="33.2" y1="31.5" x2="33.2" y2="31.5"/>
	<line class="st1" x1="35.5" y1="31.5" x2="35.5" y2="31.5"/>
	<line class="st1" x1="30.8" y1="31.5" x2="30.8" y2="31.5"/>
	<line class="st1" x1="51" y1="31.5" x2="51" y2="31.5"/>
	<line class="st1" x1="53.3" y1="31.5" x2="53.3" y2="31.5"/>
	<line class="st1" x1="48.6" y1="31.5" x2="48.6" y2="31.5"/>
	<line class="st1" x1="24.9" y1="34.7" x2="24.9" y2="34.7"/>
	<line class="st1" x1="27.2" y1="34.7" x2="27.2" y2="34.7"/>
	<line class="st1" x1="22.6" y1="34.7" x2="22.6" y2="34.7"/>
	<line class="st1" x1="7.1" y1="34.7" x2="7.1" y2="34.7"/>
	<line class="st1" x1="9.3" y1="34.7" x2="9.3" y2="34.7"/>
	<line class="st1" x1="4.7" y1="34.7" x2="4.7" y2="34.7"/>
	<line class="st1" x1="43.2" y1="34.7" x2="43.2" y2="34.7"/>
	<line class="st1" x1="45.5" y1="34.7" x2="45.5" y2="34.7"/>
	<line class="st1" x1="40.8" y1="34.7" x2="40.8" y2="34.7"/>
	<line class="st1" x1="17.1" y1="37.7" x2="17.1" y2="37.7"/>
	<line class="st1" x1="19.4" y1="37.7" x2="19.4" y2="37.7"/>
	<line class="st1" x1="14.7" y1="37.7" x2="14.7" y2="37.7"/>
	<line class="st1" x1="1.5" y1="37.7" x2="1.5" y2="37.7"/>
	<line class="st1" x1="35.4" y1="37.7" x2="35.4" y2="37.7"/>
	<line class="st1" x1="37.7" y1="37.7" x2="37.7" y2="37.7"/>
	<line class="st1" x1="33" y1="37.7" x2="33" y2="37.7"/>
	<line class="st1" x1="53.2" y1="37.7" x2="53.2" y2="37.7"/>
	<line class="st1" x1="50.8" y1="37.7" x2="50.8" y2="37.7"/>
	<line class="st1" x1="27.3" y1="40.7" x2="27.3" y2="40.7"/>
	<line class="st1" x1="29.6" y1="40.7" x2="29.6" y2="40.7"/>
	<line class="st1" x1="24.9" y1="40.7" x2="24.9" y2="40.7"/>
	<line class="st1" x1="9.4" y1="40.7" x2="9.4" y2="40.7"/>
	<line class="st1" x1="11.7" y1="40.7" x2="11.7" y2="40.7"/>
	<line class="st1" x1="7" y1="40.7" x2="7" y2="40.7"/>
	<line class="st1" x1="45.6" y1="40.7" x2="45.6" y2="40.7"/>
	<line class="st1" x1="47.8" y1="40.7" x2="47.8" y2="40.7"/>
	<line class="st1" x1="43.2" y1="40.7" x2="43.2" y2="40.7"/>
	<line class="st1" x1="19.1" y1="43.5" x2="19.1" y2="43.5"/>
	<line class="st1" x1="21.4" y1="43.5" x2="21.4" y2="43.5"/>
	<line class="st1" x1="16.7" y1="43.5" x2="16.7" y2="43.5"/>
	<line class="st1" x1="1.2" y1="43.5" x2="1.2" y2="43.5"/>
	<line class="st1" x1="3.5" y1="43.5" x2="3.5" y2="43.5"/>
	<line class="st1" x1="37.4" y1="43.5" x2="37.4" y2="43.5"/>
	<line class="st1" x1="39.7" y1="43.5" x2="39.7" y2="43.5"/>
	<line class="st1" x1="35" y1="43.5" x2="35" y2="43.5"/>
	<line class="st1" x1="52.8" y1="43.5" x2="52.8" y2="43.5"/>
	<line class="st1" x1="29" y1="46.8" x2="29" y2="46.8"/>
	<line class="st1" x1="31.3" y1="46.8" x2="31.3" y2="46.8"/>
	<line class="st1" x1="26.6" y1="46.8" x2="26.6" y2="46.8"/>
	<line class="st1" x1="11.1" y1="46.8" x2="11.1" y2="46.8"/>
	<line class="st1" x1="13.4" y1="46.8" x2="13.4" y2="46.8"/>
	<line class="st1" x1="8.7" y1="46.8" x2="8.7" y2="46.8"/>
	<line class="st1" x1="47.3" y1="46.8" x2="47.3" y2="46.8"/>
	<line class="st1" x1="49.5" y1="46.8" x2="49.5" y2="46.8"/>
	<line class="st1" x1="44.9" y1="46.8" x2="44.9" y2="46.8"/>
	<line class="st1" x1="19.2" y1="49.7" x2="19.2" y2="49.7"/>
	<line class="st1" x1="21.5" y1="49.7" x2="21.5" y2="49.7"/>
	<line class="st1" x1="16.8" y1="49.7" x2="16.8" y2="49.7"/>
	<line class="st1" x1="1.3" y1="49.7" x2="1.3" y2="49.7"/>
	<line class="st1" x1="3.6" y1="49.7" x2="3.6" y2="49.7"/>
	<line class="st1" x1="37.4" y1="49.7" x2="37.4" y2="49.7"/>
	<line class="st1" x1="39.7" y1="49.7" x2="39.7" y2="49.7"/>
	<line class="st1" x1="35.1" y1="49.7" x2="35.1" y2="49.7"/>
	<line class="st1" x1="52.8" y1="49.7" x2="52.8" y2="49.7"/>
	<line class="st1" x1="27.4" y1="52.8" x2="27.4" y2="52.8"/>
	<line class="st1" x1="29.7" y1="52.8" x2="29.7" y2="52.8"/>
	<line class="st1" x1="25" y1="52.8" x2="25" y2="52.8"/>
	<line class="st1" x1="9.5" y1="52.8" x2="9.5" y2="52.8"/>
	<line class="st1" x1="11.8" y1="52.8" x2="11.8" y2="52.8"/>
	<line class="st1" x1="7.1" y1="52.8" x2="7.1" y2="52.8"/>
	<line class="st1" x1="45.6" y1="52.8" x2="45.6" y2="52.8"/>
	<line class="st1" x1="47.9" y1="52.8" x2="47.9" y2="52.8"/>
	<line class="st1" x1="43.2" y1="52.8" x2="43.2" y2="52.8"/>
</g>
</svg>
