<?xml version="1.0" encoding="utf-8"?>
<!-- Generator: Adobe Illustrator 23.0.1, SVG Export Plug-In . SVG Version: 6.00 Build 0)  -->
<svg version="1.1" id="Layer_1" xmlns="http://www.w3.org/2000/svg" xmlns:xlink="http://www.w3.org/1999/xlink" x="0px" y="0px"
	 viewBox="0 0 54.1 54.1" style="enable-background:new 0 0 54.1 54.1;" xml:space="preserve">
<style type="text/css">
	.st0{fill:none;stroke:#000000;stroke-width:0.3;}
	.st1{fill:none;stroke:#000000;stroke-width:0.7;stroke-linecap:round;}
</style>
<g>
	<line class="st0" x1="5.7" y1="1.9" x2="14.8" y2="1.9"/>
	<line class="st0" x1="6.8" y1="1.9" x2="7.6" y2="0.7"/>
	<line class="st0" x1="23.8" y1="1.9" x2="32.9" y2="1.9"/>
	<line class="st0" x1="24.9" y1="1.9" x2="25.7" y2="0.7"/>
	<line class="st0" x1="41.9" y1="1.9" x2="51" y2="1.9"/>
	<line class="st0" x1="43" y1="1.9" x2="43.9" y2="0.7"/>
	<line class="st0" x1="6.9" y1="5.1" x2="0" y2="5.1"/>
	<line class="st0" x1="24.8" y1="5.1" x2="15.7" y2="5.1"/>
	<line class="st0" x1="16.8" y1="5.1" x2="17.6" y2="3.9"/>
	<line class="st0" x1="42.9" y1="5.1" x2="33.8" y2="5.1"/>
	<line class="st0" x1="34.9" y1="5.1" x2="35.7" y2="3.9"/>
	<line class="st0" x1="17" y1="8.1" x2="7.9" y2="8.1"/>
	<line class="st0" x1="9.9" y1="6.9" x2="9" y2="8.1"/>
	<line class="st0" x1="35" y1="8.1" x2="25.9" y2="8.1"/>
	<line class="st0" x1="27.9" y1="6.9" x2="27" y2="8.1"/>
	<line class="st0" x1="43.8" y1="8.1" x2="52.9" y2="8.1"/>
	<line class="st0" x1="45.7" y1="6.9" x2="44.9" y2="8.1"/>
	<line class="st0" x1="6.9" y1="11" x2="0" y2="11"/>
	<line class="st0" x1="15.7" y1="11" x2="24.8" y2="11"/>
	<line class="st0" x1="16.8" y1="10.9" x2="17.6" y2="9.8"/>
	<line class="st0" x1="33.7" y1="11" x2="42.8" y2="11"/>
	<line class="st0" x1="34.8" y1="10.9" x2="35.6" y2="9.8"/>
	<line class="st0" x1="41.7" y1="14" x2="50.8" y2="14"/>
	<line class="st0" x1="42.8" y1="13.9" x2="43.6" y2="12.8"/>
	<line class="st0" x1="23.7" y1="14" x2="32.8" y2="14"/>
	<line class="st0" x1="24.8" y1="13.9" x2="25.6" y2="12.8"/>
	<line class="st0" x1="14.6" y1="14" x2="5.5" y2="14"/>
	<line class="st0" x1="7.5" y1="12.8" x2="6.7" y2="13.9"/>
	<line class="st0" x1="0" y1="17.1" x2="5.1" y2="17.1"/>
	<line class="st0" x1="23.1" y1="17.1" x2="14" y2="17.1"/>
	<line class="st0" x1="16" y1="15.9" x2="15.2" y2="17.1"/>
	<line class="st0" x1="31.9" y1="17.1" x2="41" y2="17.1"/>
	<line class="st0" x1="33.9" y1="15.9" x2="33" y2="17.1"/>
	<line class="st0" x1="41.7" y1="20" x2="50.8" y2="20"/>
	<line class="st0" x1="42.8" y1="19.9" x2="43.6" y2="18.8"/>
	<line class="st0" x1="32.9" y1="20" x2="23.8" y2="20"/>
	<line class="st0" x1="24.9" y1="19.9" x2="25.7" y2="18.8"/>
	<line class="st0" x1="5.9" y1="20" x2="15" y2="20"/>
	<line class="st0" x1="7" y1="19.9" x2="7.9" y2="18.8"/>
	<line class="st0" x1="5" y1="23.1" x2="0" y2="23.1"/>
	<line class="st0" x1="13.8" y1="23.1" x2="22.9" y2="23.1"/>
	<line class="st0" x1="14.9" y1="23.1" x2="15.7" y2="21.9"/>
	<line class="st0" x1="31.8" y1="23.1" x2="40.9" y2="23.1"/>
	<line class="st0" x1="33.7" y1="21.9" x2="32.9" y2="23.1"/>
	<line class="st0" x1="39.8" y1="26.1" x2="48.9" y2="26.1"/>
	<line class="st0" x1="41.7" y1="24.9" x2="40.9" y2="26.1"/>
	<line class="st0" x1="30.9" y1="26.1" x2="21.8" y2="26.1"/>
	<line class="st0" x1="23.7" y1="24.9" x2="22.9" y2="26.1"/>
	<line class="st0" x1="12.6" y1="26.1" x2="3.5" y2="26.1"/>
	<line class="st0" x1="4.7" y1="26.1" x2="5.5" y2="24.9"/>
	<line class="st0" x1="0" y1="29.2" x2="3" y2="29.2"/>
	<line class="st0" x1="20.9" y1="29.2" x2="11.8" y2="29.2"/>
	<line class="st0" x1="13.7" y1="28" x2="12.9" y2="29.2"/>
	<line class="st0" x1="29.9" y1="29.2" x2="39" y2="29.2"/>
	<line class="st0" x1="31.9" y1="28" x2="31" y2="29.2"/>
	<line class="st0" x1="46.8" y1="32.1" x2="37.7" y2="32.1"/>
	<line class="st0" x1="39.6" y1="30.9" x2="38.8" y2="32.1"/>
	<line class="st0" x1="19.7" y1="32.1" x2="28.8" y2="32.1"/>
	<line class="st0" x1="20.8" y1="32.1" x2="21.6" y2="30.9"/>
	<line class="st0" x1="10.9" y1="32.1" x2="1.8" y2="32.1"/>
	<line class="st0" x1="3.7" y1="30.9" x2="2.9" y2="32.1"/>
	<line class="st0" x1="2.6" y1="35.2" x2="0" y2="35.2"/>
	<line class="st0" x1="20.6" y1="35.2" x2="11.5" y2="35.2"/>
	<line class="st0" x1="12.7" y1="35.2" x2="13.5" y2="34"/>
	<line class="st0" x1="29.5" y1="35.2" x2="38.6" y2="35.2"/>
	<line class="st0" x1="31.5" y1="34" x2="30.7" y2="35.2"/>
	<line class="st0" x1="39.8" y1="38.2" x2="48.9" y2="38.2"/>
	<line class="st0" x1="41.7" y1="37" x2="40.9" y2="38.2"/>
	<line class="st0" x1="21.8" y1="38.2" x2="30.9" y2="38.2"/>
	<line class="st0" x1="23.7" y1="37" x2="22.9" y2="38.2"/>
	<line class="st0" x1="12.9" y1="38.2" x2="3.8" y2="38.2"/>
	<line class="st0" x1="4.9" y1="38.2" x2="5.7" y2="37"/>
	<line class="st0" x1="5.1" y1="41.2" x2="0" y2="41.2"/>
	<line class="st0" x1="13.9" y1="41.2" x2="23" y2="41.2"/>
	<line class="st0" x1="15" y1="41.2" x2="15.9" y2="40"/>
	<line class="st0" x1="31.8" y1="41.2" x2="40.9" y2="41.2"/>
	<line class="st0" x1="33.7" y1="40" x2="32.9" y2="41.2"/>
	<line class="st0" x1="41.7" y1="44.1" x2="50.8" y2="44.1"/>
	<line class="st0" x1="43.6" y1="42.9" x2="42.8" y2="44.1"/>
	<line class="st0" x1="33" y1="44.1" x2="23.9" y2="44.1"/>
	<line class="st0" x1="25" y1="44.1" x2="25.9" y2="42.9"/>
	<line class="st0" x1="15" y1="44.1" x2="5.9" y2="44.1"/>
	<line class="st0" x1="7" y1="44.1" x2="7.9" y2="42.9"/>
	<line class="st0" x1="6.5" y1="47.4" x2="0" y2="47.4"/>
	<line class="st0" x1="15.5" y1="47.4" x2="24.6" y2="47.4"/>
	<line class="st0" x1="17.5" y1="46.2" x2="16.7" y2="47.3"/>
	<line class="st0" x1="33.7" y1="47.4" x2="42.8" y2="47.4"/>
	<line class="st0" x1="35.6" y1="46.2" x2="34.8" y2="47.3"/>
	<line class="st0" x1="50.8" y1="50.2" x2="41.7" y2="50.2"/>
	<line class="st0" x1="43.6" y1="49" x2="42.8" y2="50.2"/>
	<line class="st0" x1="33" y1="50.2" x2="23.9" y2="50.2"/>
	<line class="st0" x1="25.9" y1="49" x2="25" y2="50.2"/>
	<line class="st0" x1="14.9" y1="50.2" x2="5.8" y2="50.2"/>
	<line class="st0" x1="7.7" y1="49" x2="6.9" y2="50.2"/>
	<line class="st0" x1="0" y1="53.4" x2="5.1" y2="53.4"/>
	<line class="st0" x1="22.9" y1="53.4" x2="13.8" y2="53.4"/>
	<line class="st0" x1="15.7" y1="52.2" x2="14.9" y2="53.3"/>
	<line class="st0" x1="40.8" y1="53.4" x2="31.7" y2="53.4"/>
	<line class="st0" x1="32.8" y1="53.3" x2="33.6" y2="52.2"/>
	<line class="st0" x1="52" y1="5.1" x2="54.1" y2="5.1"/>
	<line class="st0" x1="53.1" y1="5.1" x2="53.9" y2="3.9"/>
	<line class="st0" x1="54.1" y1="11" x2="52" y2="11"/>
	<line class="st0" x1="53.9" y1="9.8" x2="53.1" y2="10.9"/>
	<line class="st0" x1="50.2" y1="17.1" x2="54.1" y2="17.1"/>
	<line class="st0" x1="51.3" y1="17.1" x2="52.1" y2="15.9"/>
	<line class="st0" x1="54.1" y1="23.1" x2="50.1" y2="23.1"/>
	<line class="st0" x1="51.2" y1="23.1" x2="52" y2="21.9"/>
	<line class="st0" x1="54.1" y1="29.2" x2="48.1" y2="29.2"/>
	<line class="st0" x1="50" y1="28" x2="49.2" y2="29.2"/>
	<line class="st0" x1="54.1" y1="35.2" x2="47.7" y2="35.2"/>
	<line class="st0" x1="49.6" y1="34" x2="48.8" y2="35.2"/>
	<line class="st0" x1="50.2" y1="41.2" x2="54.1" y2="41.2"/>
	<line class="st0" x1="52.1" y1="40" x2="51.3" y2="41.2"/>
	<line class="st0" x1="54.1" y1="47.4" x2="51.6" y2="47.4"/>
	<line class="st0" x1="53.5" y1="46.2" x2="52.7" y2="47.3"/>
	<line class="st0" x1="50.2" y1="53.4" x2="54.1" y2="53.4"/>
	<line class="st0" x1="51.3" y1="53.3" x2="52.1" y2="52.2"/>
	<line class="st1" x1="11.3" y1="5.1" x2="11.3" y2="5.1"/>
	<line class="st1" x1="13.6" y1="5.1" x2="13.6" y2="5.1"/>
	<line class="st1" x1="9" y1="5.1" x2="9" y2="5.1"/>
	<line class="st1" x1="29.3" y1="5.1" x2="29.3" y2="5.1"/>
	<line class="st1" x1="31.6" y1="5.1" x2="31.6" y2="5.1"/>
	<line class="st1" x1="27" y1="5.1" x2="27" y2="5.1"/>
	<line class="st1" x1="47.4" y1="5.1" x2="47.4" y2="5.1"/>
	<line class="st1" x1="49.7" y1="5.1" x2="49.7" y2="5.1"/>
	<line class="st1" x1="45" y1="5.1" x2="45" y2="5.1"/>
	<line class="st1" x1="39.5" y1="8.1" x2="39.5" y2="8.1"/>
	<line class="st1" x1="41.8" y1="8.1" x2="41.8" y2="8.1"/>
	<line class="st1" x1="37.1" y1="8.1" x2="37.1" y2="8.1"/>
	<line class="st1" x1="21.5" y1="8.1" x2="21.5" y2="8.1"/>
	<line class="st1" x1="23.8" y1="8.1" x2="23.8" y2="8.1"/>
	<line class="st1" x1="19.1" y1="8.1" x2="19.1" y2="8.1"/>
	<line class="st1" x1="3.5" y1="8.1" x2="3.5" y2="8.1"/>
	<line class="st1" x1="5.8" y1="8.1" x2="5.8" y2="8.1"/>
	<line class="st1" x1="1.2" y1="8.1" x2="1.2" y2="8.1"/>
	<line class="st1" x1="19.2" y1="2" x2="19.2" y2="2"/>
	<line class="st1" x1="21.5" y1="2" x2="21.5" y2="2"/>
	<line class="st1" x1="16.8" y1="2" x2="16.8" y2="2"/>
	<line class="st1" x1="1.3" y1="2" x2="1.3" y2="2"/>
	<line class="st1" x1="3.6" y1="2" x2="3.6" y2="2"/>
	<line class="st1" x1="37.4" y1="2" x2="37.4" y2="2"/>
	<line class="st1" x1="39.7" y1="2" x2="39.7" y2="2"/>
	<line class="st1" x1="35" y1="2" x2="35" y2="2"/>
	<line class="st1" x1="52.8" y1="2" x2="52.8" y2="2"/>
	<line class="st1" x1="29.2" y1="11" x2="29.2" y2="11"/>
	<line class="st1" x1="31.5" y1="11" x2="31.5" y2="11"/>
	<line class="st1" x1="26.8" y1="11" x2="26.8" y2="11"/>
	<line class="st1" x1="11.3" y1="11" x2="11.3" y2="11"/>
	<line class="st1" x1="13.6" y1="11" x2="13.6" y2="11"/>
	<line class="st1" x1="8.9" y1="11" x2="8.9" y2="11"/>
	<line class="st1" x1="47.5" y1="11" x2="47.5" y2="11"/>
	<line class="st1" x1="49.7" y1="11" x2="49.7" y2="11"/>
	<line class="st1" x1="45.1" y1="11" x2="45.1" y2="11"/>
	<line class="st1" x1="19" y1="14" x2="19" y2="14"/>
	<line class="st1" x1="21.3" y1="14" x2="21.3" y2="14"/>
	<line class="st1" x1="16.7" y1="14" x2="16.7" y2="14"/>
	<line class="st1" x1="1.2" y1="14" x2="1.2" y2="14"/>
	<line class="st1" x1="3.5" y1="14" x2="3.5" y2="14"/>
	<line class="st1" x1="37.3" y1="14" x2="37.3" y2="14"/>
	<line class="st1" x1="39.6" y1="14" x2="39.6" y2="14"/>
	<line class="st1" x1="34.9" y1="14" x2="34.9" y2="14"/>
	<line class="st1" x1="52.7" y1="14" x2="52.7" y2="14"/>
	<line class="st1" x1="27.5" y1="17.2" x2="27.5" y2="17.2"/>
	<line class="st1" x1="29.8" y1="17.2" x2="29.8" y2="17.2"/>
	<line class="st1" x1="25.1" y1="17.2" x2="25.1" y2="17.2"/>
	<line class="st1" x1="9.6" y1="17.2" x2="9.6" y2="17.2"/>
	<line class="st1" x1="11.9" y1="17.2" x2="11.9" y2="17.2"/>
	<line class="st1" x1="7.2" y1="17.2" x2="7.2" y2="17.2"/>
	<line class="st1" x1="45.7" y1="17.2" x2="45.7" y2="17.2"/>
	<line class="st1" x1="48" y1="17.2" x2="48" y2="17.2"/>
	<line class="st1" x1="43.4" y1="17.2" x2="43.4" y2="17.2"/>
	<line class="st1" x1="18.9" y1="20" x2="18.9" y2="20"/>
	<line class="st1" x1="21.2" y1="20" x2="21.2" y2="20"/>
	<line class="st1" x1="16.5" y1="20" x2="16.5" y2="20"/>
	<line class="st1" x1="1" y1="20" x2="1" y2="20"/>
	<line class="st1" x1="3.3" y1="20" x2="3.3" y2="20"/>
	<line class="st1" x1="37.2" y1="20" x2="37.2" y2="20"/>
	<line class="st1" x1="39.5" y1="20" x2="39.5" y2="20"/>
	<line class="st1" x1="34.8" y1="20" x2="34.8" y2="20"/>
	<line class="st1" x1="52.6" y1="20" x2="52.6" y2="20"/>
	<line class="st1" x1="27.4" y1="23.1" x2="27.4" y2="23.1"/>
	<line class="st1" x1="29.6" y1="23.1" x2="29.6" y2="23.1"/>
	<line class="st1" x1="25" y1="23.1" x2="25" y2="23.1"/>
	<line class="st1" x1="9.5" y1="23.1" x2="9.5" y2="23.1"/>
	<line class="st1" x1="11.8" y1="23.1" x2="11.8" y2="23.1"/>
	<line class="st1" x1="7.1" y1="23.1" x2="7.1" y2="23.1"/>
	<line class="st1" x1="45.6" y1="23.1" x2="45.6" y2="23.1"/>
	<line class="st1" x1="47.9" y1="23.1" x2="47.9" y2="23.1"/>
	<line class="st1" x1="43.2" y1="23.1" x2="43.2" y2="23.1"/>
	<line class="st1" x1="17.1" y1="26.1" x2="17.1" y2="26.1"/>
	<line class="st1" x1="19.4" y1="26.1" x2="19.4" y2="26.1"/>
	<line class="st1" x1="14.7" y1="26.1" x2="14.7" y2="26.1"/>
	<line class="st1" x1="1.5" y1="26.1" x2="1.5" y2="26.1"/>
	<line class="st1" x1="35.4" y1="26.1" x2="35.4" y2="26.1"/>
	<line class="st1" x1="37.6" y1="26.1" x2="37.6" y2="26.1"/>
	<line class="st1" x1="33" y1="26.1" x2="33" y2="26.1"/>
	<line class="st1" x1="53.2" y1="26.1" x2="53.2" y2="26.1"/>
	<line class="st1" x1="50.8" y1="26.1" x2="50.8" y2="26.1"/>
	<line class="st1" x1="25.3" y1="29.2" x2="25.3" y2="29.2"/>
	<line class="st1" x1="27.6" y1="29.2" x2="27.6" y2="29.2"/>
	<line class="st1" x1="22.9" y1="29.2" x2="22.9" y2="29.2"/>
	<line class="st1" x1="7.4" y1="29.2" x2="7.4" y2="29.2"/>
	<line class="st1" x1="9.7" y1="29.2" x2="9.7" y2="29.2"/>
	<line class="st1" x1="5" y1="29.2" x2="5" y2="29.2"/>
	<line class="st1" x1="43.5" y1="29.2" x2="43.5" y2="29.2"/>
	<line class="st1" x1="45.8" y1="29.2" x2="45.8" y2="29.2"/>
	<line class="st1" x1="41.2" y1="29.2" x2="41.2" y2="29.2"/>
	<line class="st1" x1="15" y1="32.2" x2="15" y2="32.2"/>
	<line class="st1" x1="17.3" y1="32.2" x2="17.3" y2="32.2"/>
	<line class="st1" x1="12.6" y1="32.2" x2="12.6" y2="32.2"/>
	<line class="st1" x1="33.2" y1="32.2" x2="33.2" y2="32.2"/>
	<line class="st1" x1="35.5" y1="32.2" x2="35.5" y2="32.2"/>
	<line class="st1" x1="30.9" y1="32.2" x2="30.9" y2="32.2"/>
	<line class="st1" x1="51" y1="32.2" x2="51" y2="32.2"/>
	<line class="st1" x1="53.3" y1="32.2" x2="53.3" y2="32.2"/>
	<line class="st1" x1="48.6" y1="32.2" x2="48.6" y2="32.2"/>
	<line class="st1" x1="25" y1="35.3" x2="25" y2="35.3"/>
	<line class="st1" x1="27.3" y1="35.3" x2="27.3" y2="35.3"/>
	<line class="st1" x1="22.6" y1="35.3" x2="22.6" y2="35.3"/>
	<line class="st1" x1="7.1" y1="35.3" x2="7.1" y2="35.3"/>
	<line class="st1" x1="9.4" y1="35.3" x2="9.4" y2="35.3"/>
	<line class="st1" x1="4.7" y1="35.3" x2="4.7" y2="35.3"/>
	<line class="st1" x1="43.2" y1="35.3" x2="43.2" y2="35.3"/>
	<line class="st1" x1="45.5" y1="35.3" x2="45.5" y2="35.3"/>
	<line class="st1" x1="40.9" y1="35.3" x2="40.9" y2="35.3"/>
	<line class="st1" x1="17.2" y1="38.3" x2="17.2" y2="38.3"/>
	<line class="st1" x1="19.5" y1="38.3" x2="19.5" y2="38.3"/>
	<line class="st1" x1="14.8" y1="38.3" x2="14.8" y2="38.3"/>
	<line class="st1" x1="1.6" y1="38.3" x2="1.6" y2="38.3"/>
	<line class="st1" x1="35.4" y1="38.3" x2="35.4" y2="38.3"/>
	<line class="st1" x1="37.7" y1="38.3" x2="37.7" y2="38.3"/>
	<line class="st1" x1="33" y1="38.3" x2="33" y2="38.3"/>
	<line class="st1" x1="53.2" y1="38.3" x2="53.2" y2="38.3"/>
	<line class="st1" x1="50.8" y1="38.3" x2="50.8" y2="38.3"/>
	<line class="st1" x1="27.4" y1="41.3" x2="27.4" y2="41.3"/>
	<line class="st1" x1="29.6" y1="41.3" x2="29.6" y2="41.3"/>
	<line class="st1" x1="25" y1="41.3" x2="25" y2="41.3"/>
	<line class="st1" x1="9.5" y1="41.3" x2="9.5" y2="41.3"/>
	<line class="st1" x1="11.8" y1="41.3" x2="11.8" y2="41.3"/>
	<line class="st1" x1="7.1" y1="41.3" x2="7.1" y2="41.3"/>
	<line class="st1" x1="45.6" y1="41.3" x2="45.6" y2="41.3"/>
	<line class="st1" x1="47.9" y1="41.3" x2="47.9" y2="41.3"/>
	<line class="st1" x1="43.2" y1="41.3" x2="43.2" y2="41.3"/>
	<line class="st1" x1="19.2" y1="44.1" x2="19.2" y2="44.1"/>
	<line class="st1" x1="21.5" y1="44.1" x2="21.5" y2="44.1"/>
	<line class="st1" x1="16.8" y1="44.1" x2="16.8" y2="44.1"/>
	<line class="st1" x1="1.3" y1="44.1" x2="1.3" y2="44.1"/>
	<line class="st1" x1="3.6" y1="44.1" x2="3.6" y2="44.1"/>
	<line class="st1" x1="37.4" y1="44.1" x2="37.4" y2="44.1"/>
	<line class="st1" x1="39.7" y1="44.1" x2="39.7" y2="44.1"/>
	<line class="st1" x1="35" y1="44.1" x2="35" y2="44.1"/>
	<line class="st1" x1="52.8" y1="44.1" x2="52.8" y2="44.1"/>
	<line class="st1" x1="29" y1="47.4" x2="29" y2="47.4"/>
	<line class="st1" x1="31.3" y1="47.4" x2="31.3" y2="47.4"/>
	<line class="st1" x1="26.7" y1="47.4" x2="26.7" y2="47.4"/>
	<line class="st1" x1="11.2" y1="47.4" x2="11.2" y2="47.4"/>
	<line class="st1" x1="13.5" y1="47.4" x2="13.5" y2="47.4"/>
	<line class="st1" x1="8.8" y1="47.4" x2="8.8" y2="47.4"/>
	<line class="st1" x1="47.3" y1="47.4" x2="47.3" y2="47.4"/>
	<line class="st1" x1="49.6" y1="47.4" x2="49.6" y2="47.4"/>
	<line class="st1" x1="44.9" y1="47.4" x2="44.9" y2="47.4"/>
	<line class="st1" x1="19.2" y1="50.3" x2="19.2" y2="50.3"/>
	<line class="st1" x1="21.5" y1="50.3" x2="21.5" y2="50.3"/>
	<line class="st1" x1="16.9" y1="50.3" x2="16.9" y2="50.3"/>
	<line class="st1" x1="1.4" y1="50.3" x2="1.4" y2="50.3"/>
	<line class="st1" x1="3.6" y1="50.3" x2="3.6" y2="50.3"/>
	<line class="st1" x1="37.5" y1="50.3" x2="37.5" y2="50.3"/>
	<line class="st1" x1="39.8" y1="50.3" x2="39.8" y2="50.3"/>
	<line class="st1" x1="35.1" y1="50.3" x2="35.1" y2="50.3"/>
	<line class="st1" x1="52.9" y1="50.3" x2="52.9" y2="50.3"/>
	<line class="st1" x1="27.4" y1="53.4" x2="27.4" y2="53.4"/>
	<line class="st1" x1="29.7" y1="53.4" x2="29.7" y2="53.4"/>
	<line class="st1" x1="25" y1="53.4" x2="25" y2="53.4"/>
	<line class="st1" x1="9.5" y1="53.4" x2="9.5" y2="53.4"/>
	<line class="st1" x1="11.8" y1="53.4" x2="11.8" y2="53.4"/>
	<line class="st1" x1="7.2" y1="53.4" x2="7.2" y2="53.4"/>
	<line class="st1" x1="45.7" y1="53.4" x2="45.7" y2="53.4"/>
	<line class="st1" x1="48" y1="53.4" x2="48" y2="53.4"/>
	<line class="st1" x1="43.3" y1="53.4" x2="43.3" y2="53.4"/>
</g>
</svg>
