<?xml version="1.0" encoding="utf-8"?>
<!-- Generator: Adobe Illustrator 23.0.1, SVG Export Plug-In . SVG Version: 6.00 Build 0)  -->
<svg version="1.1" id="Layer_1" xmlns="http://www.w3.org/2000/svg" xmlns:xlink="http://www.w3.org/1999/xlink" x="0px" y="0px"
	 viewBox="0 0 53.6 53.6" style="enable-background:new 0 0 53.6 53.6;" xml:space="preserve">
<style type="text/css">
	.st0{fill:none;stroke:#231F20;stroke-width:0.3;}
</style>
<g>
	<line class="st0" x1="3.8" y1="2.1" x2="0" y2="2.1"/>
	<line class="st0" x1="6.4" y1="2.1" x2="12.7" y2="2.1"/>
	<line class="st0" x1="15.3" y1="2.1" x2="21.6" y2="2.1"/>
	<line class="st0" x1="24.2" y1="2.1" x2="30.6" y2="2.1"/>
	<line class="st0" x1="33.1" y1="2.1" x2="39.5" y2="2.1"/>
	<line class="st0" x1="42" y1="2.1" x2="48.4" y2="2.1"/>
	<line class="st0" x1="53.6" y1="2.1" x2="50.9" y2="2.1"/>
	<line class="st0" x1="8.1" y1="5.3" x2="1.7" y2="5.3"/>
	<line class="st0" x1="17" y1="5.3" x2="10.7" y2="5.3"/>
	<line class="st0" x1="25.9" y1="5.3" x2="19.6" y2="5.3"/>
	<line class="st0" x1="34.9" y1="5.3" x2="28.5" y2="5.3"/>
	<line class="st0" x1="43.8" y1="5.3" x2="37.4" y2="5.3"/>
	<line class="st0" x1="46.3" y1="5.3" x2="52.7" y2="5.3"/>
	<line class="st0" x1="2" y1="8.2" x2="0" y2="8.2"/>
	<line class="st0" x1="4.6" y1="8.2" x2="6" y2="8.2"/>
	<line class="st0" x1="11" y1="8.2" x2="6" y2="8.2"/>
	<line class="st0" x1="13.5" y1="8.2" x2="19.9" y2="8.2"/>
	<line class="st0" x1="23.8" y1="8.2" x2="28.8" y2="8.2"/>
	<line class="st0" x1="23.8" y1="8.2" x2="22.4" y2="8.2"/>
	<line class="st0" x1="31.4" y1="8.2" x2="37.7" y2="8.2"/>
	<line class="st0" x1="41.6" y1="8.2" x2="40.3" y2="8.2"/>
	<line class="st0" x1="41.6" y1="8.2" x2="46.6" y2="8.2"/>
	<line class="st0" x1="49.2" y1="8.2" x2="53.6" y2="8.2"/>
	<line class="st0" x1="7.3" y1="11" x2="1" y2="11"/>
	<line class="st0" x1="16.2" y1="11" x2="9.9" y2="11"/>
	<line class="st0" x1="25.2" y1="11" x2="18.8" y2="11"/>
	<line class="st0" x1="34.1" y1="11" x2="27.7" y2="11"/>
	<line class="st0" x1="43" y1="11" x2="36.6" y2="11"/>
	<line class="st0" x1="51.9" y1="11" x2="45.5" y2="11"/>
	<line class="st0" x1="1.7" y1="14" x2="0" y2="14"/>
	<line class="st0" x1="4.3" y1="14" x2="5.4" y2="14"/>
	<line class="st0" x1="5.4" y1="14" x2="10.7" y2="14"/>
	<line class="st0" x1="19.6" y1="14" x2="13.2" y2="14"/>
	<line class="st0" x1="23.4" y1="14" x2="22.1" y2="14"/>
	<line class="st0" x1="23.4" y1="14" x2="28.5" y2="14"/>
	<line class="st0" x1="31" y1="14" x2="37.4" y2="14"/>
	<line class="st0" x1="41.2" y1="14" x2="46.3" y2="14"/>
	<line class="st0" x1="40" y1="14" x2="41.2" y2="14"/>
	<line class="st0" x1="48.9" y1="14" x2="53.6" y2="14"/>
	<line class="st0" x1="5.3" y1="17" x2="0" y2="17"/>
	<line class="st0" x1="14.2" y1="17" x2="7.8" y2="17"/>
	<line class="st0" x1="16.7" y1="17" x2="23.1" y2="17"/>
	<line class="st0" x1="32" y1="17" x2="25.6" y2="17"/>
	<line class="st0" x1="34.5" y1="17" x2="40.9" y2="17"/>
	<line class="st0" x1="43.5" y1="17" x2="49.8" y2="17"/>
	<line class="st0" x1="52.4" y1="17" x2="53.6" y2="17"/>
	<line class="st0" x1="2.2" y1="19.9" x2="0" y2="19.9"/>
	<line class="st0" x1="11.1" y1="19.9" x2="4.8" y2="19.9"/>
	<line class="st0" x1="13.7" y1="19.9" x2="14.8" y2="19.9"/>
	<line class="st0" x1="20.1" y1="19.9" x2="14.8" y2="19.9"/>
	<line class="st0" x1="29" y1="19.9" x2="22.6" y2="19.9"/>
	<line class="st0" x1="32.8" y1="19.9" x2="31.5" y2="19.9"/>
	<line class="st0" x1="37.9" y1="19.9" x2="32.8" y2="19.9"/>
	<line class="st0" x1="46.8" y1="19.9" x2="40.4" y2="19.9"/>
	<line class="st0" x1="49.4" y1="19.9" x2="50.6" y2="19.9"/>
	<line class="st0" x1="50.6" y1="19.9" x2="53.6" y2="19.9"/>
	<line class="st0" x1="6.7" y1="23.1" x2="0.3" y2="23.1"/>
	<line class="st0" x1="15.6" y1="23.1" x2="9.2" y2="23.1"/>
	<line class="st0" x1="24.5" y1="23.1" x2="18.1" y2="23.1"/>
	<line class="st0" x1="27.1" y1="23.1" x2="33.4" y2="23.1"/>
	<line class="st0" x1="36" y1="23.1" x2="42.3" y2="23.1"/>
	<line class="st0" x1="44.9" y1="23.1" x2="51.3" y2="23.1"/>
	<line class="st0" x1="3.5" y1="26.1" x2="0" y2="26.1"/>
	<line class="st0" x1="12.4" y1="26.1" x2="6" y2="26.1"/>
	<line class="st0" x1="15" y1="26.1" x2="16" y2="26.1"/>
	<line class="st0" x1="21.3" y1="26.1" x2="16" y2="26.1"/>
	<line class="st0" x1="23.9" y1="26.1" x2="30.2" y2="26.1"/>
	<line class="st0" x1="34" y1="26.1" x2="39.2" y2="26.1"/>
	<line class="st0" x1="34" y1="26.1" x2="32.8" y2="26.1"/>
	<line class="st0" x1="41.7" y1="26.1" x2="48.1" y2="26.1"/>
	<line class="st0" x1="50.6" y1="26.1" x2="52" y2="26.1"/>
	<line class="st0" x1="52" y1="26.1" x2="53.6" y2="26.1"/>
	<line class="st0" x1="1.6" y1="29.2" x2="8" y2="29.2"/>
	<line class="st0" x1="16.9" y1="29.2" x2="10.5" y2="29.2"/>
	<line class="st0" x1="25.8" y1="29.2" x2="19.4" y2="29.2"/>
	<line class="st0" x1="34.7" y1="29.2" x2="28.3" y2="29.2"/>
	<line class="st0" x1="43.6" y1="29.2" x2="37.3" y2="29.2"/>
	<line class="st0" x1="46.2" y1="29.2" x2="52.5" y2="29.2"/>
	<line class="st0" x1="3" y1="32" x2="0" y2="32"/>
	<line class="st0" x1="11.9" y1="32" x2="5.6" y2="32"/>
	<line class="st0" x1="14.5" y1="32" x2="20.9" y2="32"/>
	<line class="st0" x1="23.4" y1="32" x2="29.8" y2="32"/>
	<line class="st0" x1="32.3" y1="32" x2="38.7" y2="32"/>
	<line class="st0" x1="41.2" y1="32" x2="47.6" y2="32"/>
	<line class="st0" x1="50.2" y1="32" x2="53.6" y2="32"/>
	<line class="st0" x1="6.8" y1="35.1" x2="0.5" y2="35.1"/>
	<line class="st0" x1="15.8" y1="35.1" x2="9.4" y2="35.1"/>
	<line class="st0" x1="24.7" y1="35.1" x2="18.3" y2="35.1"/>
	<line class="st0" x1="27.2" y1="35.1" x2="33.6" y2="35.1"/>
	<line class="st0" x1="42.5" y1="35.1" x2="36.1" y2="35.1"/>
	<line class="st0" x1="45.1" y1="35.1" x2="51.4" y2="35.1"/>
	<line class="st0" x1="2.2" y1="38.1" x2="0" y2="38.1"/>
	<line class="st0" x1="11.1" y1="38.1" x2="4.8" y2="38.1"/>
	<line class="st0" x1="20.1" y1="38.1" x2="13.7" y2="38.1"/>
	<line class="st0" x1="22.6" y1="38.1" x2="29" y2="38.1"/>
	<line class="st0" x1="31.5" y1="38.1" x2="37.9" y2="38.1"/>
	<line class="st0" x1="40.4" y1="38.1" x2="46.8" y2="38.1"/>
	<line class="st0" x1="49.4" y1="38.1" x2="53.6" y2="38.1"/>
	<line class="st0" x1="0" y1="41.1" x2="1.3" y2="41.1"/>
	<line class="st0" x1="6" y1="41.1" x2="1.3" y2="41.1"/>
	<line class="st0" x1="8.6" y1="41.1" x2="15" y2="41.1"/>
	<line class="st0" x1="18.7" y1="41.1" x2="17.5" y2="41.1"/>
	<line class="st0" x1="23.9" y1="41.1" x2="18.7" y2="41.1"/>
	<line class="st0" x1="32.8" y1="41.1" x2="26.4" y2="41.1"/>
	<line class="st0" x1="36.6" y1="41.1" x2="35.3" y2="41.1"/>
	<line class="st0" x1="36.6" y1="41.1" x2="41.7" y2="41.1"/>
	<line class="st0" x1="44.3" y1="41.1" x2="50.6" y2="41.1"/>
	<line class="st0" x1="53.6" y1="41.1" x2="53.2" y2="41.1"/>
	<line class="st0" x1="0" y1="43.9" x2="3.1" y2="43.9"/>
	<line class="st0" x1="12.1" y1="43.9" x2="5.7" y2="43.9"/>
	<line class="st0" x1="14.6" y1="43.9" x2="21" y2="43.9"/>
	<line class="st0" x1="23.6" y1="43.9" x2="29.9" y2="43.9"/>
	<line class="st0" x1="32.5" y1="43.9" x2="38.8" y2="43.9"/>
	<line class="st0" x1="41.4" y1="43.9" x2="47.8" y2="43.9"/>
	<line class="st0" x1="50.3" y1="43.9" x2="53.6" y2="43.9"/>
	<line class="st0" x1="8.3" y1="47" x2="1.9" y2="47"/>
	<line class="st0" x1="17.2" y1="47" x2="10.8" y2="47"/>
	<line class="st0" x1="26.1" y1="47" x2="19.7" y2="47"/>
	<line class="st0" x1="35" y1="47" x2="28.7" y2="47"/>
	<line class="st0" x1="43.9" y1="47" x2="37.6" y2="47"/>
	<line class="st0" x1="46.5" y1="47" x2="52.9" y2="47"/>
	<line class="st0" x1="4.7" y1="50" x2="0" y2="50"/>
	<line class="st0" x1="7.3" y1="50" x2="13.7" y2="50"/>
	<line class="st0" x1="16.2" y1="50" x2="22.6" y2="50"/>
	<line class="st0" x1="25.2" y1="50" x2="31.5" y2="50"/>
	<line class="st0" x1="34.1" y1="50" x2="40.4" y2="50"/>
	<line class="st0" x1="43" y1="50" x2="49.4" y2="50"/>
	<line class="st0" x1="51.9" y1="50" x2="53.6" y2="50"/>
	<line class="st0" x1="8.6" y1="52.9" x2="2.2" y2="52.9"/>
	<line class="st0" x1="17.5" y1="52.9" x2="11.1" y2="52.9"/>
	<line class="st0" x1="26.4" y1="52.9" x2="20.1" y2="52.9"/>
	<line class="st0" x1="35.3" y1="52.9" x2="29" y2="52.9"/>
	<line class="st0" x1="44.3" y1="52.9" x2="37.9" y2="52.9"/>
	<line class="st0" x1="53.2" y1="52.9" x2="46.8" y2="52.9"/>
	<line class="st0" x1="7.7" y1="2.1" x2="8.8" y2="0.7"/>
	<line class="st0" x1="25.6" y1="2.1" x2="26.7" y2="0.7"/>
	<line class="st0" x1="43.6" y1="2.1" x2="44.7" y2="0.7"/>
	<line class="st0" x1="47.8" y1="5.3" x2="48.9" y2="3.8"/>
	<line class="st0" x1="30" y1="5.3" x2="31.1" y2="3.8"/>
	<line class="st0" x1="11.8" y1="5.3" x2="12.9" y2="3.8"/>
	<line class="st0" x1="5.9" y1="8.3" x2="6" y2="8.2"/>
	<line class="st0" x1="6" y1="8.2" x2="7" y2="6.9"/>
	<line class="st0" x1="23.8" y1="8.2" x2="24.9" y2="6.9"/>
	<line class="st0" x1="23.8" y1="8.3" x2="23.8" y2="8.2"/>
	<line class="st0" x1="41.6" y1="8.3" x2="41.6" y2="8.2"/>
	<line class="st0" x1="41.6" y1="8.2" x2="42.7" y2="6.9"/>
	<line class="st0" x1="37.9" y1="11" x2="39" y2="9.6"/>
	<line class="st0" x1="20.2" y1="11" x2="21.3" y2="9.6"/>
	<line class="st0" x1="2.2" y1="11" x2="3.3" y2="9.6"/>
	<line class="st0" x1="41.2" y1="14" x2="41.2" y2="14"/>
	<line class="st0" x1="41.2" y1="14" x2="42.2" y2="12.6"/>
	<line class="st0" x1="23.4" y1="14" x2="24.5" y2="12.6"/>
	<line class="st0" x1="23.4" y1="14" x2="23.4" y2="14"/>
	<line class="st0" x1="5.3" y1="14" x2="5.4" y2="14"/>
	<line class="st0" x1="5.4" y1="14" x2="6.4" y2="12.6"/>
	<line class="st0" x1="45.8" y1="15.6" x2="44.7" y2="17"/>
	<line class="st0" x1="28" y1="15.6" x2="26.9" y2="17"/>
	<line class="st0" x1="9.1" y1="17" x2="10.1" y2="15.6"/>
	<line class="st0" x1="32.8" y1="19.9" x2="32.8" y2="19.9"/>
	<line class="st0" x1="33.9" y1="18.5" x2="32.8" y2="19.9"/>
	<line class="st0" x1="50.6" y1="19.9" x2="51.6" y2="18.5"/>
	<line class="st0" x1="50.6" y1="19.9" x2="50.6" y2="19.9"/>
	<line class="st0" x1="14.8" y1="19.9" x2="14.8" y2="19.9"/>
	<line class="st0" x1="15.9" y1="18.5" x2="14.8" y2="19.9"/>
	<line class="st0" x1="47.1" y1="21.6" x2="46" y2="23"/>
	<line class="st0" x1="29.4" y1="21.6" x2="28.3" y2="23"/>
	<line class="st0" x1="10.5" y1="23" x2="11.6" y2="21.6"/>
	<line class="st0" x1="16" y1="26.1" x2="16" y2="26.1"/>
	<line class="st0" x1="17.1" y1="24.7" x2="16" y2="26.1"/>
	<line class="st0" x1="34" y1="26.1" x2="35.1" y2="24.7"/>
	<line class="st0" x1="34" y1="26.1" x2="34" y2="26.1"/>
	<line class="st0" x1="52" y1="26.1" x2="53" y2="24.7"/>
	<line class="st0" x1="52" y1="26.1" x2="51.9" y2="26.1"/>
	<line class="st0" x1="38.6" y1="29.2" x2="39.7" y2="27.8"/>
	<line class="st0" x1="20.8" y1="29.2" x2="21.8" y2="27.8"/>
	<line class="st0" x1="2.9" y1="29.2" x2="4" y2="27.8"/>
	<line class="st0" x1="6.9" y1="32" x2="8" y2="30.6"/>
	<line class="st0" x1="24.8" y1="32" x2="25.9" y2="30.6"/>
	<line class="st0" x1="43.5" y1="30.6" x2="42.4" y2="32"/>
	<line class="st0" x1="38.5" y1="33.7" x2="37.4" y2="35.1"/>
	<line class="st0" x1="19.5" y1="35.1" x2="20.6" y2="33.7"/>
	<line class="st0" x1="1.7" y1="35.1" x2="2.8" y2="33.7"/>
	<line class="st0" x1="7.3" y1="36.6" x2="6.2" y2="38"/>
	<line class="st0" x1="24.1" y1="38" x2="25.2" y2="36.6"/>
	<line class="st0" x1="42.8" y1="36.6" x2="41.8" y2="38"/>
	<line class="st0" x1="36.6" y1="41.1" x2="37.6" y2="39.7"/>
	<line class="st0" x1="36.6" y1="41.1" x2="36.6" y2="41.1"/>
	<line class="st0" x1="19.8" y1="39.7" x2="18.7" y2="41.1"/>
	<line class="st0" x1="18.7" y1="41.1" x2="18.7" y2="41.1"/>
	<line class="st0" x1="1.3" y1="41.1" x2="1.3" y2="41.1"/>
	<line class="st0" x1="2.4" y1="39.7" x2="1.3" y2="41.1"/>
	<line class="st0" x1="42.7" y1="43.8" x2="43.8" y2="42.4"/>
	<line class="st0" x1="26" y1="42.4" x2="24.9" y2="43.8"/>
	<line class="st0" x1="8" y1="42.4" x2="6.9" y2="43.8"/>
	<line class="st0" x1="12.1" y1="47" x2="13.2" y2="45.6"/>
	<line class="st0" x1="31.1" y1="45.6" x2="30" y2="47"/>
	<line class="st0" x1="44.3" y1="50" x2="45.4" y2="48.5"/>
	<line class="st0" x1="39.2" y1="52.9" x2="40.3" y2="51.5"/>
	<line class="st0" x1="21.3" y1="52.9" x2="22.4" y2="51.5"/>
	<line class="st0" x1="3.4" y1="52.9" x2="4.5" y2="51.5"/>
	<line class="st0" x1="27.6" y1="48.5" x2="26.6" y2="50"/>
	<line class="st0" x1="9.6" y1="48.5" x2="8.5" y2="50"/>
	<line class="st0" x1="49.2" y1="45.6" x2="48.1" y2="47"/>
</g>
</svg>
