<?xml version="1.0" encoding="utf-8"?>
<!-- Generator: Adobe Illustrator 23.0.1, SVG Export Plug-In . SVG Version: 6.00 Build 0)  -->
<svg version="1.1" id="Layer_1" xmlns="http://www.w3.org/2000/svg" xmlns:xlink="http://www.w3.org/1999/xlink" x="0px" y="0px"
	 viewBox="0 0 54.1 54.1" style="enable-background:new 0 0 54.1 54.1;" xml:space="preserve">
<style type="text/css">
	.st0{clip-path:url(#SVGID_2_);fill:none;stroke:#000000;stroke-width:0.3;}
</style>
<g>
	<defs>
		<rect id="SVGID_1_" x="0" y="0" width="54.1" height="54.1"/>
	</defs>
	<clipPath id="SVGID_2_">
		<use xlink:href="#SVGID_1_"  style="overflow:visible;"/>
	</clipPath>
	<line class="st0" x1="0" y1="3.8" x2="54.1" y2="3.8"/>
	<line class="st0" x1="0" y1="7.9" x2="54.1" y2="7.9"/>
	<line class="st0" x1="0" y1="12.1" x2="54.1" y2="12.1"/>
	<line class="st0" x1="0" y1="41.7" x2="54.2" y2="41.7"/>
	<line class="st0" x1="0" y1="45.5" x2="54.1" y2="45.5"/>
	<line class="st0" x1="0" y1="16.1" x2="54.1" y2="16.1"/>
	<line class="st0" x1="0" y1="19.4" x2="54.1" y2="19.4"/>
	<line class="st0" x1="0" y1="22.8" x2="54.1" y2="22.8"/>
	<line class="st0" x1="0" y1="26.9" x2="54.1" y2="26.9"/>
	<line class="st0" x1="0" y1="30.7" x2="54.1" y2="30.7"/>
	<line class="st0" x1="0" y1="34.9" x2="54.2" y2="34.9"/>
	<line class="st0" x1="0" y1="38.1" x2="54.1" y2="38.1"/>
	<line class="st0" x1="0" y1="53.3" x2="54.1" y2="53.3"/>
	<line class="st0" x1="5.9" y1="0" x2="5.9" y2="3.8"/>
	<line class="st0" x1="18.7" y1="0" x2="18.7" y2="3.8"/>
	<line class="st0" x1="32.2" y1="0" x2="32.2" y2="3.8"/>
	<line class="st0" x1="46.6" y1="0" x2="46.6" y2="3.8"/>
	<line class="st0" x1="5.9" y1="53.3" x2="5.9" y2="54.1"/>
	<line class="st0" x1="18.7" y1="53.3" x2="18.7" y2="54.1"/>
	<line class="st0" x1="32.2" y1="53.3" x2="32.2" y2="54.1"/>
	<line class="st0" x1="46.6" y1="53.3" x2="46.6" y2="54.1"/>
	<line class="st0" x1="12.6" y1="3.7" x2="12.6" y2="7.9"/>
	<line class="st0" x1="27.5" y1="3.7" x2="27.5" y2="7.9"/>
	<line class="st0" x1="41.1" y1="3.7" x2="41.1" y2="7.9"/>
	<line class="st0" x1="53.9" y1="3.7" x2="53.9" y2="7.9"/>
	<line class="st0" x1="7" y1="8.1" x2="7" y2="12.1"/>
	<line class="st0" x1="20.3" y1="8.1" x2="20.3" y2="12.1"/>
	<line class="st0" x1="33.9" y1="8.1" x2="33.9" y2="12.1"/>
	<line class="st0" x1="48.8" y1="8.1" x2="48.8" y2="12.1"/>
	<line class="st0" x1="40.2" y1="12.1" x2="40.2" y2="16.1"/>
	<line class="st0" x1="26.8" y1="12.1" x2="26.8" y2="16.1"/>
	<line class="st0" x1="11.9" y1="12.1" x2="11.9" y2="16.1"/>
	<line class="st0" x1="53.4" y1="12.1" x2="53.4" y2="16.1"/>
	<line class="st0" x1="46.6" y1="16.1" x2="46.6" y2="19.4"/>
	<line class="st0" x1="31.9" y1="16.1" x2="31.9" y2="19.4"/>
	<line class="st0" x1="18.7" y1="16.1" x2="18.7" y2="19.4"/>
	<line class="st0" x1="5.9" y1="16.1" x2="5.9" y2="19.4"/>
	<line class="st0" x1="12.5" y1="19.4" x2="12.5" y2="22.8"/>
	<line class="st0" x1="27.5" y1="19.4" x2="27.5" y2="22.8"/>
	<line class="st0" x1="41.2" y1="19.4" x2="41.2" y2="22.8"/>
	<line class="st0" x1="54" y1="19.4" x2="54" y2="22.8"/>
	<line class="st0" x1="6.7" y1="22.8" x2="6.7" y2="26.9"/>
	<line class="st0" x1="20.2" y1="22.8" x2="20.2" y2="26.9"/>
	<line class="st0" x1="33.8" y1="22.8" x2="33.8" y2="26.9"/>
	<line class="st0" x1="48.7" y1="22.8" x2="48.7" y2="26.9"/>
	<line class="st0" x1="40" y1="26.9" x2="40" y2="30.7"/>
	<line class="st0" x1="26.7" y1="26.9" x2="26.7" y2="30.7"/>
	<line class="st0" x1="11.7" y1="26.9" x2="11.7" y2="30.7"/>
	<line class="st0" x1="53.3" y1="26.9" x2="53.3" y2="30.7"/>
	<line class="st0" x1="5.5" y1="30.7" x2="5.5" y2="34.9"/>
	<line class="st0" x1="18.5" y1="30.7" x2="18.5" y2="34.9"/>
	<line class="st0" x1="32.2" y1="30.7" x2="32.2" y2="34.9"/>
	<line class="st0" x1="46.4" y1="30.7" x2="46.4" y2="34.9"/>
	<line class="st0" x1="42.2" y1="34.9" x2="42.2" y2="38.1"/>
	<line class="st0" x1="28.1" y1="34.9" x2="28.1" y2="38.1"/>
	<line class="st0" x1="12.9" y1="34.9" x2="12.9" y2="38.1"/>
	<line class="st0" x1="0.5" y1="34.9" x2="0.5" y2="38.1"/>
	<line class="st0" x1="6.9" y1="38.2" x2="6.9" y2="41.7"/>
	<line class="st0" x1="20.1" y1="38.2" x2="20.1" y2="41.7"/>
	<line class="st0" x1="33.8" y1="38.2" x2="33.8" y2="41.7"/>
	<line class="st0" x1="48.6" y1="38.2" x2="48.6" y2="41.7"/>
	<line class="st0" x1="40.3" y1="41.8" x2="40.3" y2="45.5"/>
	<line class="st0" x1="26.4" y1="41.8" x2="26.4" y2="45.5"/>
	<line class="st0" x1="11.9" y1="41.8" x2="11.9" y2="45.5"/>
	<line class="st0" x1="53.7" y1="41.8" x2="53.7" y2="45.5"/>
	<line class="st0" x1="0" y1="49.9" x2="54.1" y2="49.9"/>
	<line class="st0" x1="10.3" y1="49.9" x2="10.3" y2="53.4"/>
	<line class="st0" x1="24.7" y1="49.9" x2="24.7" y2="53.4"/>
	<line class="st0" x1="38.4" y1="49.9" x2="38.4" y2="53.4"/>
	<line class="st0" x1="51.7" y1="49.9" x2="51.7" y2="53.4"/>
	<line class="st0" x1="4.6" y1="45.5" x2="4.6" y2="49.9"/>
	<line class="st0" x1="17.6" y1="45.5" x2="17.6" y2="49.9"/>
	<line class="st0" x1="31.6" y1="45.5" x2="31.6" y2="49.9"/>
	<line class="st0" x1="46.1" y1="45.5" x2="46.1" y2="49.9"/>
	<line class="st0" x1="11.1" y1="9.3" x2="9.2" y2="10.9"/>
	<line class="st0" x1="14.4" y1="11" x2="13.3" y2="9.2"/>
	<line class="st0" x1="18.9" y1="9.4" x2="16.6" y2="10.9"/>
	<line class="st0" x1="38.3" y1="9.3" x2="36.4" y2="10.9"/>
	<line class="st0" x1="41.6" y1="11" x2="40.4" y2="9.2"/>
	<line class="st0" x1="46.6" y1="9.4" x2="44.3" y2="10.9"/>
	<line class="st0" x1="43.9" y1="13.4" x2="42" y2="15"/>
	<line class="st0" x1="47.2" y1="15.1" x2="46.1" y2="13.4"/>
	<line class="st0" x1="51.8" y1="13.5" x2="49.4" y2="15"/>
	<line class="st0" x1="16.5" y1="13.3" x2="14.6" y2="14.9"/>
	<line class="st0" x1="19.8" y1="15" x2="18.7" y2="13.2"/>
	<line class="st0" x1="24.4" y1="13.4" x2="22" y2="14.9"/>
	<line class="st0" x1="22.4" y1="16.9" x2="20.5" y2="18.5"/>
	<line class="st0" x1="25.7" y1="18.6" x2="24.6" y2="16.9"/>
	<line class="st0" x1="30.3" y1="17" x2="27.9" y2="18.5"/>
	<line class="st0" x1="8.2" y1="47" x2="6.3" y2="48.6"/>
	<line class="st0" x1="11.5" y1="48.7" x2="10.4" y2="46.9"/>
	<line class="st0" x1="16.1" y1="47.1" x2="13.7" y2="48.6"/>
	<line class="st0" x1="14.6" y1="50.9" x2="12.8" y2="52.5"/>
	<line class="st0" x1="17.9" y1="52.6" x2="16.8" y2="50.9"/>
	<line class="st0" x1="22.5" y1="51" x2="20.1" y2="52.5"/>
	<line class="st0" x1="41.9" y1="50.7" x2="40" y2="52.4"/>
	<line class="st0" x1="45.2" y1="52.4" x2="44.1" y2="50.7"/>
	<line class="st0" x1="49.8" y1="50.9" x2="47.4" y2="52.4"/>
	<line class="st0" x1="36" y1="47.1" x2="34.1" y2="48.7"/>
	<line class="st0" x1="39.3" y1="48.8" x2="38.2" y2="47"/>
	<line class="st0" x1="43.9" y1="47.2" x2="41.5" y2="48.7"/>
	<line class="st0" x1="30.6" y1="42.9" x2="28.8" y2="44.5"/>
	<line class="st0" x1="33.9" y1="44.5" x2="32.8" y2="42.8"/>
	<line class="st0" x1="38.5" y1="43" x2="36.1" y2="44.5"/>
	<line class="st0" x1="2.9" y1="42.7" x2="1" y2="44.4"/>
	<line class="st0" x1="5.7" y1="44.4" x2="4.6" y2="42.7"/>
	<line class="st0" x1="10.3" y1="42.9" x2="7.9" y2="44.4"/>
	<line class="st0" x1="10.7" y1="39.3" x2="8.8" y2="40.9"/>
	<line class="st0" x1="14" y1="41" x2="12.9" y2="39.2"/>
	<line class="st0" x1="18.6" y1="39.4" x2="16.2" y2="40.9"/>
	<line class="st0" x1="38.1" y1="39.1" x2="36.2" y2="40.7"/>
	<line class="st0" x1="41.4" y1="40.8" x2="40.3" y2="39"/>
	<line class="st0" x1="45.9" y1="39.2" x2="43.6" y2="40.7"/>
	<line class="st0" x1="45.9" y1="35.7" x2="44" y2="37.3"/>
	<line class="st0" x1="48.8" y1="37.4" x2="47.7" y2="35.6"/>
	<line class="st0" x1="52.8" y1="35.8" x2="50.4" y2="37.3"/>
	<line class="st0" x1="17.8" y1="35.8" x2="15.9" y2="37.4"/>
	<line class="st0" x1="21.1" y1="37.5" x2="19.9" y2="35.7"/>
	<line class="st0" x1="25.6" y1="35.9" x2="23.3" y2="37.4"/>
	<line class="st0" x1="22.5" y1="32" x2="20.6" y2="33.7"/>
	<line class="st0" x1="25.8" y1="33.7" x2="24.7" y2="32"/>
	<line class="st0" x1="30.4" y1="32.2" x2="28" y2="33.7"/>
	<line class="st0" x1="30.5" y1="27.9" x2="28.6" y2="29.5"/>
	<line class="st0" x1="33.8" y1="29.6" x2="32.7" y2="27.9"/>
	<line class="st0" x1="38.4" y1="28" x2="36" y2="29.5"/>
	<line class="st0" x1="2.4" y1="28" x2="0.5" y2="29.7"/>
	<line class="st0" x1="5.7" y1="29.7" x2="4.6" y2="28"/>
	<line class="st0" x1="10.3" y1="28.2" x2="7.9" y2="29.7"/>
	<line class="st0" x1="5.3" y1="24.2" x2="3.8" y2="25.9"/>
	<line class="st0" x1="3.6" y1="32" x2="1.3" y2="33.5"/>
	<line class="st0" x1="16.9" y1="20.4" x2="15" y2="22"/>
	<line class="st0" x1="20.2" y1="22.1" x2="19.1" y2="20.4"/>
	<line class="st0" x1="24.8" y1="20.5" x2="22.4" y2="22"/>
	<line class="st0" x1="23.8" y1="24" x2="21.9" y2="25.7"/>
	<line class="st0" x1="27.1" y1="25.7" x2="25.9" y2="24"/>
	<line class="st0" x1="31.6" y1="24.2" x2="29.3" y2="25.7"/>
	<line class="st0" x1="44.5" y1="20.3" x2="42.6" y2="21.9"/>
	<line class="st0" x1="47.8" y1="22" x2="46.7" y2="20.2"/>
	<line class="st0" x1="52.4" y1="20.4" x2="50" y2="21.9"/>
	<line class="st0" x1="3.6" y1="17.2" x2="1.3" y2="18.7"/>
	<line class="st0" x1="17" y1="5" x2="15.1" y2="6.7"/>
	<line class="st0" x1="20.3" y1="6.7" x2="19.2" y2="5"/>
	<line class="st0" x1="24.9" y1="5.2" x2="22.5" y2="6.7"/>
	<line class="st0" x1="44.5" y1="5.2" x2="42.6" y2="6.8"/>
	<line class="st0" x1="47.8" y1="6.9" x2="46.7" y2="5.1"/>
	<line class="st0" x1="52.4" y1="5.3" x2="50" y2="6.8"/>
	<line class="st0" x1="22.7" y1="0.9" x2="20.8" y2="2.5"/>
	<line class="st0" x1="26" y1="2.6" x2="24.9" y2="0.8"/>
	<line class="st0" x1="30.6" y1="1" x2="28.2" y2="2.5"/>
	<line class="st0" x1="50.3" y1="0.9" x2="48.4" y2="2.6"/>
	<line class="st0" x1="53.6" y1="2.6" x2="52.5" y2="0.9"/>
	<line class="st0" x1="4.2" y1="1" x2="1.8" y2="2.5"/>
	<line class="st0" x1="52.1" y1="11" x2="50.3" y2="9.4"/>
	<line class="st0" x1="1.4" y1="9.4" x2="0.3" y2="11.1"/>
	<line class="st0" x1="5.3" y1="10.9" x2="2.9" y2="9.4"/>
	<line class="st0" x1="23.8" y1="11" x2="21.9" y2="9.4"/>
	<line class="st0" x1="27.6" y1="9.4" x2="26.4" y2="11.2"/>
	<line class="st0" x1="32.1" y1="11" x2="29.7" y2="9.5"/>
	<line class="st0" x1="2.9" y1="15" x2="1" y2="13.4"/>
	<line class="st0" x1="5.7" y1="13.3" x2="4.5" y2="15"/>
	<line class="st0" x1="10.2" y1="14.9" x2="7.9" y2="13.4"/>
	<line class="st0" x1="30.6" y1="15" x2="28.7" y2="13.4"/>
	<line class="st0" x1="33.9" y1="13.3" x2="32.8" y2="15"/>
	<line class="st0" x1="38.4" y1="14.9" x2="36.1" y2="13.4"/>
	<line class="st0" x1="36.1" y1="18.7" x2="34.3" y2="17"/>
	<line class="st0" x1="39.4" y1="17" x2="38.3" y2="18.7"/>
	<line class="st0" x1="44" y1="18.5" x2="41.6" y2="17"/>
	<line class="st0" x1="31.5" y1="22" x2="29.6" y2="20.4"/>
	<line class="st0" x1="34.8" y1="20.4" x2="33.7" y2="22.1"/>
	<line class="st0" x1="39.4" y1="21.9" x2="37" y2="20.4"/>
	<line class="st0" x1="9.3" y1="18.7" x2="7.4" y2="17.1"/>
	<line class="st0" x1="12.6" y1="17" x2="11.4" y2="18.8"/>
	<line class="st0" x1="17.1" y1="18.6" x2="14.8" y2="17.1"/>
	<line class="st0" x1="3.5" y1="22" x2="1.6" y2="20.4"/>
	<line class="st0" x1="6.1" y1="20.3" x2="5" y2="22"/>
	<line class="st0" x1="10.7" y1="21.9" x2="8.3" y2="20.4"/>
	<line class="st0" x1="10.3" y1="25.9" x2="8.4" y2="24.3"/>
	<line class="st0" x1="13.6" y1="24.2" x2="12.4" y2="26"/>
	<line class="st0" x1="18.1" y1="25.8" x2="15.8" y2="24.3"/>
	<line class="st0" x1="16" y1="29.6" x2="14.1" y2="28"/>
	<line class="st0" x1="19.3" y1="27.9" x2="18.2" y2="29.7"/>
	<line class="st0" x1="23.9" y1="29.5" x2="21.5" y2="28"/>
	<line class="st0" x1="8.9" y1="33.6" x2="7" y2="32"/>
	<line class="st0" x1="12.2" y1="31.9" x2="11.1" y2="33.7"/>
	<line class="st0" x1="16.8" y1="33.5" x2="14.4" y2="32"/>
	<line class="st0" x1="4.2" y1="37.4" x2="2.3" y2="35.7"/>
	<line class="st0" x1="7.4" y1="35.7" x2="6.3" y2="37.4"/>
	<line class="st0" x1="11.4" y1="37.2" x2="9" y2="35.7"/>
	<line class="st0" x1="36.3" y1="33.7" x2="34.4" y2="32.1"/>
	<line class="st0" x1="39.6" y1="32" x2="38.4" y2="33.8"/>
	<line class="st0" x1="44.1" y1="33.6" x2="41.8" y2="32.1"/>
	<line class="st0" x1="43.4" y1="29.7" x2="41.6" y2="28.1"/>
	<line class="st0" x1="46.8" y1="28" x2="45.6" y2="29.8"/>
	<line class="st0" x1="51.3" y1="29.6" x2="48.9" y2="28.1"/>
	<line class="st0" x1="38.4" y1="25.9" x2="36.6" y2="24.3"/>
	<line class="st0" x1="41.8" y1="24.2" x2="40.6" y2="26"/>
	<line class="st0" x1="46.3" y1="25.8" x2="43.9" y2="24.3"/>
	<line class="st0" x1="32.2" y1="37.4" x2="30.3" y2="35.8"/>
	<line class="st0" x1="35.5" y1="35.7" x2="34.4" y2="37.5"/>
	<line class="st0" x1="40.1" y1="37.3" x2="37.7" y2="35.8"/>
	<line class="st0" x1="23.8" y1="40.9" x2="21.9" y2="39.3"/>
	<line class="st0" x1="27.1" y1="39.2" x2="25.9" y2="41"/>
	<line class="st0" x1="31.6" y1="40.8" x2="29.3" y2="39.3"/>
	<line class="st0" x1="0.9" y1="39.1" x2="-0.2" y2="40.9"/>
	<line class="st0" x1="5.4" y1="40.7" x2="3.1" y2="39.2"/>
	<line class="st0" x1="15.8" y1="44.5" x2="13.9" y2="42.9"/>
	<line class="st0" x1="19.1" y1="42.9" x2="18" y2="44.6"/>
	<line class="st0" x1="23.7" y1="44.4" x2="21.3" y2="42.9"/>
	<line class="st0" x1="44.1" y1="44.5" x2="42.2" y2="42.9"/>
	<line class="st0" x1="47.4" y1="42.9" x2="46.3" y2="44.6"/>
	<line class="st0" x1="51.9" y1="44.4" x2="49.6" y2="42.9"/>
	<line class="st0" x1="21.4" y1="48.7" x2="19.5" y2="47"/>
	<line class="st0" x1="24.7" y1="47" x2="23.6" y2="48.7"/>
	<line class="st0" x1="29.3" y1="48.5" x2="26.9" y2="47"/>
	<line class="st0" x1="28.5" y1="52.6" x2="26.6" y2="51"/>
	<line class="st0" x1="31.8" y1="50.9" x2="30.7" y2="52.7"/>
	<line class="st0" x1="36.4" y1="52.5" x2="34" y2="51"/>
	<line class="st0" x1="1.3" y1="52.5" x2="-0.6" y2="50.9"/>
	<line class="st0" x1="4.6" y1="50.9" x2="3.5" y2="52.6"/>
	<line class="st0" x1="8.9" y1="52.4" x2="6.5" y2="50.9"/>
	<line class="st0" x1="2.7" y1="48.5" x2="0.3" y2="47"/>
	<line class="st0" x1="36.3" y1="2.7" x2="34.4" y2="1.1"/>
	<line class="st0" x1="39.6" y1="1.1" x2="38.4" y2="2.8"/>
	<line class="st0" x1="44.1" y1="2.6" x2="41.8" y2="1.1"/>
	<line class="st0" x1="9.3" y1="2.5" x2="7.4" y2="0.9"/>
	<line class="st0" x1="12.6" y1="0.8" x2="11.5" y2="2.6"/>
	<line class="st0" x1="17.2" y1="2.4" x2="14.8" y2="0.9"/>
	<line class="st0" x1="3.4" y1="6.9" x2="1.5" y2="5.2"/>
	<line class="st0" x1="6.1" y1="5.2" x2="5" y2="6.9"/>
	<line class="st0" x1="10.7" y1="6.7" x2="8.3" y2="5.2"/>
	<line class="st0" x1="31.1" y1="6.8" x2="29.2" y2="5.2"/>
	<line class="st0" x1="34.4" y1="5.1" x2="33.3" y2="6.9"/>
	<line class="st0" x1="38.9" y1="6.7" x2="36.6" y2="5.2"/>
	<line class="st0" x1="52.9" y1="24.2" x2="51" y2="25.8"/>
	<line class="st0" x1="1.8" y1="25.9" x2="0.7" y2="24.1"/>
	<line class="st0" x1="49.9" y1="31.9" x2="48" y2="33.5"/>
	<line class="st0" x1="53.2" y1="33.6" x2="52.1" y2="31.9"/>
	<line class="st0" x1="49.9" y1="17" x2="48" y2="18.7"/>
	<line class="st0" x1="53.2" y1="18.7" x2="52.1" y2="17"/>
	<line class="st0" x1="51.7" y1="40.8" x2="49.8" y2="39.2"/>
	<line class="st0" x1="55" y1="39.1" x2="53.9" y2="40.9"/>
	<line class="st0" x1="55.4" y1="52.5" x2="53.5" y2="50.9"/>
	<line class="st0" x1="48.9" y1="48.6" x2="47.1" y2="47"/>
	<line class="st0" x1="52.3" y1="46.9" x2="51.1" y2="48.7"/>
</g>
</svg>
