<?xml version="1.0" encoding="utf-8"?>
<!-- Generator: Adobe Illustrator 23.0.1, SVG Export Plug-In . SVG Version: 6.00 Build 0)  -->
<svg version="1.1" id="Layer_1" xmlns="http://www.w3.org/2000/svg" xmlns:xlink="http://www.w3.org/1999/xlink" x="0px" y="0px"
	 viewBox="0 0 54.1 54.1" style="enable-background:new 0 0 54.1 54.1;" xml:space="preserve">
<style type="text/css">
	.st0{clip-path:url(#SVGID_2_);fill:none;stroke:#231F20;stroke-width:0.3;}
	.st1{clip-path:url(#SVGID_2_);fill:none;}
</style>
<g>
	<defs>
		<rect id="SVGID_1_" x="0" y="0" width="54.2" height="54.1"/>
	</defs>
	<clipPath id="SVGID_2_">
		<use xlink:href="#SVGID_1_"  style="overflow:visible;"/>
	</clipPath>
	<line class="st0" x1="5.4" y1="2.2" x2="5.4" y2="5.4"/>
	<line class="st0" x1="5.4" y1="2.2" x2="5.4" y2="2.1"/>
	<line class="st0" x1="14.8" y1="2.2" x2="14.8" y2="2.2"/>
	<line class="st0" x1="14.8" y1="2.2" x2="14.8" y2="5.3"/>
	<line class="st0" x1="23.5" y1="5.3" x2="23.5" y2="2.3"/>
	<line class="st0" x1="32.7" y1="2.2" x2="32.7" y2="2.2"/>
	<line class="st0" x1="32.7" y1="2.2" x2="32.7" y2="5.2"/>
	<line class="st0" x1="41.8" y1="2.2" x2="41.8" y2="2.1"/>
	<line class="st0" x1="41.8" y1="2.2" x2="41.8" y2="5.3"/>
	<line class="st0" x1="51.2" y1="2.3" x2="51.2" y2="5.4"/>
	<line class="st0" x1="46.4" y1="1.4" x2="46.4" y2="1.3"/>
	<line class="st0" x1="46.4" y1="1.3" x2="46.4" y2="0"/>
	<line class="st0" x1="37.5" y1="1.3" x2="37.5" y2="0"/>
	<line class="st0" x1="28.4" y1="1.1" x2="28.4" y2="0"/>
	<line class="st0" x1="19" y1="1.3" x2="19" y2="0"/>
	<line class="st0" x1="10.3" y1="1.1" x2="10.3" y2="0"/>
	<line class="st0" x1="0.8" y1="1.4" x2="0.8" y2="0"/>
	<line class="st0" x1="46.2" y1="9.5" x2="46.2" y2="6.5"/>
	<line class="st0" x1="37.3" y1="6.3" x2="37.3" y2="6.3"/>
	<line class="st0" x1="37.3" y1="6.3" x2="37.3" y2="9.5"/>
	<line class="st0" x1="28.2" y1="6.4" x2="28.2" y2="6.2"/>
	<line class="st0" x1="28.2" y1="9.3" x2="28.2" y2="6.4"/>
	<line class="st0" x1="18.8" y1="9.4" x2="18.8" y2="6.3"/>
	<line class="st0" x1="18.8" y1="9.4" x2="18.8" y2="9.5"/>
	<line class="st0" x1="10" y1="6.3" x2="10" y2="9.5"/>
	<line class="st0" x1="10" y1="6.3" x2="10" y2="6.2"/>
	<line class="st0" x1="0.5" y1="6.5" x2="0.5" y2="9.5"/>
	<line class="st0" x1="0.5" y1="9.6" x2="0.5" y2="9.5"/>
	<line class="st0" x1="50.8" y1="10.6" x2="50.8" y2="13.3"/>
	<line class="st0" x1="41.9" y1="13.4" x2="41.9" y2="10.5"/>
	<line class="st0" x1="41.9" y1="13.4" x2="41.9" y2="13.5"/>
	<line class="st0" x1="32.8" y1="10.3" x2="32.8" y2="10.3"/>
	<line class="st0" x1="32.8" y1="10.3" x2="32.8" y2="13.2"/>
	<line class="st0" x1="23.4" y1="13.3" x2="23.4" y2="10.5"/>
	<line class="st0" x1="23.4" y1="13.3" x2="23.4" y2="13.3"/>
	<line class="st0" x1="14.7" y1="13.2" x2="14.7" y2="10.3"/>
	<line class="st0" x1="5.2" y1="13.4" x2="5.2" y2="13.5"/>
	<line class="st0" x1="5.2" y1="13.4" x2="5.2" y2="10.3"/>
	<line class="st0" x1="1.4" y1="17.5" x2="1.4" y2="17.6"/>
	<line class="st0" x1="1.4" y1="17.5" x2="1.4" y2="14.3"/>
	<line class="st0" x1="46.7" y1="17.5" x2="46.7" y2="14.3"/>
	<line class="st0" x1="37.5" y1="14.2" x2="37.5" y2="14.2"/>
	<line class="st0" x1="37.5" y1="14.2" x2="37.5" y2="17.5"/>
	<line class="st0" x1="28.2" y1="14.3" x2="28.2" y2="17.3"/>
	<line class="st0" x1="19.4" y1="17.4" x2="19.4" y2="14.2"/>
	<line class="st0" x1="19.4" y1="17.5" x2="19.4" y2="17.4"/>
	<line class="st0" x1="9.9" y1="14.2" x2="9.9" y2="14.1"/>
	<line class="st0" x1="9.9" y1="17.5" x2="9.9" y2="14.2"/>
	<line class="st0" x1="51.5" y1="18.4" x2="51.5" y2="18.3"/>
	<line class="st0" x1="51.5" y1="21.2" x2="51.5" y2="18.4"/>
	<line class="st0" x1="51.5" y1="21.2" x2="51.5" y2="21.2"/>
	<line class="st0" x1="42.7" y1="21.2" x2="42.7" y2="18.4"/>
	<line class="st0" x1="42.7" y1="18.4" x2="42.7" y2="18.3"/>
	<line class="st0" x1="42.7" y1="21.2" x2="42.7" y2="21.3"/>
	<line class="st0" x1="33.5" y1="18.3" x2="33.5" y2="21.1"/>
	<line class="st0" x1="33.5" y1="18.3" x2="33.5" y2="18.1"/>
	<line class="st0" x1="24.2" y1="18.4" x2="24.2" y2="21.2"/>
	<line class="st0" x1="24.2" y1="21.2" x2="24.2" y2="21.2"/>
	<line class="st0" x1="24.2" y1="18.4" x2="24.2" y2="18.3"/>
	<line class="st0" x1="15.4" y1="18.4" x2="15.4" y2="18.1"/>
	<line class="st0" x1="15.4" y1="18.4" x2="15.4" y2="21.2"/>
	<line class="st0" x1="15.4" y1="21.2" x2="15.4" y2="21.2"/>
	<line class="st0" x1="5.9" y1="18.3" x2="5.9" y2="21.2"/>
	<line class="st0" x1="5.9" y1="18.3" x2="5.9" y2="18.2"/>
	<line class="st0" x1="47.2" y1="22.1" x2="47.2" y2="24.8"/>
	<line class="st0" x1="47.2" y1="24.8" x2="47.2" y2="24.8"/>
	<line class="st0" x1="38.3" y1="22" x2="38.3" y2="22.1"/>
	<line class="st0" x1="38.3" y1="22.1" x2="38.3" y2="24.7"/>
	<line class="st0" x1="29.2" y1="24.7" x2="29.2" y2="24.8"/>
	<line class="st0" x1="29.2" y1="22.1" x2="29.2" y2="22.1"/>
	<line class="st0" x1="29.2" y1="24.7" x2="29.2" y2="22.1"/>
	<line class="st0" x1="19.8" y1="24.8" x2="19.8" y2="22.2"/>
	<line class="st0" x1="19.8" y1="24.8" x2="19.8" y2="24.8"/>
	<line class="st0" x1="11" y1="24.8" x2="11" y2="22.1"/>
	<line class="st0" x1="11" y1="24.8" x2="11" y2="24.8"/>
	<line class="st0" x1="1.5" y1="22.2" x2="1.5" y2="22.1"/>
	<line class="st0" x1="1.5" y1="22.2" x2="1.5" y2="24.8"/>
	<line class="st0" x1="1.5" y1="24.8" x2="1.5" y2="24.8"/>
	<line class="st0" x1="51.4" y1="25.8" x2="51.4" y2="28.6"/>
	<line class="st0" x1="42.5" y1="28.6" x2="42.5" y2="28.7"/>
	<line class="st0" x1="42.5" y1="28.6" x2="42.5" y2="25.7"/>
	<line class="st0" x1="33.4" y1="25.7" x2="33.4" y2="28.5"/>
	<line class="st0" x1="33.4" y1="25.7" x2="33.4" y2="25.6"/>
	<line class="st0" x1="33.4" y1="28.6" x2="33.4" y2="28.5"/>
	<line class="st0" x1="24" y1="25.7" x2="24" y2="28.5"/>
	<line class="st0" x1="24" y1="25.7" x2="24" y2="25.7"/>
	<line class="st0" x1="24" y1="28.5" x2="24" y2="28.6"/>
	<line class="st0" x1="15.3" y1="28.6" x2="15.3" y2="25.7"/>
	<line class="st0" x1="15.3" y1="25.7" x2="15.3" y2="25.6"/>
	<line class="st0" x1="15.3" y1="28.6" x2="15.3" y2="28.6"/>
	<line class="st0" x1="5.8" y1="25.7" x2="5.8" y2="25.6"/>
	<line class="st0" x1="5.8" y1="28.6" x2="5.8" y2="28.7"/>
	<line class="st0" x1="5.8" y1="25.7" x2="5.8" y2="28.6"/>
	<line class="st0" x1="47.3" y1="29.5" x2="47.3" y2="32.2"/>
	<line class="st0" x1="47.3" y1="29.5" x2="47.3" y2="29.5"/>
	<line class="st0" x1="38.4" y1="29.3" x2="38.4" y2="29.5"/>
	<line class="st0" x1="38.4" y1="29.5" x2="38.4" y2="32.2"/>
	<line class="st0" x1="29.3" y1="32.2" x2="29.3" y2="29.5"/>
	<line class="st0" x1="29.3" y1="32.2" x2="29.3" y2="32.3"/>
	<line class="st0" x1="29.3" y1="29.5" x2="29.3" y2="29.3"/>
	<line class="st0" x1="19.9" y1="32.2" x2="19.9" y2="32.3"/>
	<line class="st0" x1="19.9" y1="32.2" x2="19.9" y2="29.5"/>
	<line class="st0" x1="19.9" y1="29.3" x2="19.9" y2="29.5"/>
	<line class="st0" x1="11.2" y1="29.4" x2="11.2" y2="29.2"/>
	<line class="st0" x1="11.2" y1="32.3" x2="11.2" y2="32.3"/>
	<line class="st0" x1="11.2" y1="29.4" x2="11.2" y2="32.3"/>
	<line class="st0" x1="1.7" y1="32.3" x2="1.7" y2="32.3"/>
	<line class="st0" x1="1.7" y1="29.5" x2="1.7" y2="32.3"/>
	<line class="st0" x1="1.7" y1="29.5" x2="1.7" y2="29.5"/>
	<line class="st0" x1="52.2" y1="33.3" x2="52.2" y2="36.2"/>
	<line class="st0" x1="43.3" y1="36.3" x2="43.3" y2="36.3"/>
	<line class="st0" x1="43.3" y1="36.3" x2="43.3" y2="33.2"/>
	<line class="st0" x1="34.2" y1="36.2" x2="34.2" y2="33.1"/>
	<line class="st0" x1="34.2" y1="33.1" x2="34.2" y2="33.1"/>
	<line class="st0" x1="34.2" y1="36.2" x2="34.2" y2="36.2"/>
	<line class="st0" x1="24.8" y1="36.2" x2="24.8" y2="33.2"/>
	<line class="st0" x1="24.8" y1="36.2" x2="24.8" y2="36.2"/>
	<line class="st0" x1="16" y1="33.1" x2="16" y2="36.2"/>
	<line class="st0" x1="16" y1="33.1" x2="16" y2="33.1"/>
	<line class="st0" x1="6.5" y1="33.1" x2="6.5" y2="33.1"/>
	<line class="st0" x1="6.5" y1="33.1" x2="6.5" y2="36.2"/>
	<line class="st0" x1="46.9" y1="39.8" x2="46.9" y2="39.8"/>
	<line class="st0" x1="46.9" y1="37.2" x2="46.9" y2="39.8"/>
	<line class="st0" x1="38" y1="39.8" x2="38" y2="37.1"/>
	<line class="st0" x1="38" y1="39.8" x2="38" y2="40"/>
	<line class="st0" x1="28.9" y1="37.1" x2="28.9" y2="39.7"/>
	<line class="st0" x1="28.9" y1="39.7" x2="28.9" y2="39.8"/>
	<line class="st0" x1="28.9" y1="37.1" x2="28.9" y2="37"/>
	<line class="st0" x1="19.5" y1="37.1" x2="19.5" y2="39.8"/>
	<line class="st0" x1="19.5" y1="39.8" x2="19.5" y2="39.8"/>
	<line class="st0" x1="10.8" y1="37.1" x2="10.8" y2="37"/>
	<line class="st0" x1="10.8" y1="39.8" x2="10.8" y2="39.8"/>
	<line class="st0" x1="10.8" y1="37.1" x2="10.8" y2="39.8"/>
	<line class="st0" x1="1.3" y1="39.9" x2="1.3" y2="40"/>
	<line class="st0" x1="1.3" y1="39.9" x2="1.3" y2="37.2"/>
	<line class="st0" x1="51.8" y1="40.7" x2="51.8" y2="40.8"/>
	<line class="st0" x1="51.8" y1="43.7" x2="51.8" y2="40.8"/>
	<line class="st0" x1="42.9" y1="40.6" x2="42.9" y2="40.7"/>
	<line class="st0" x1="42.9" y1="43.7" x2="42.9" y2="40.7"/>
	<line class="st0" x1="42.9" y1="43.7" x2="42.9" y2="43.8"/>
	<line class="st0" x1="33.8" y1="43.7" x2="33.8" y2="40.7"/>
	<line class="st0" x1="33.8" y1="40.5" x2="33.8" y2="40.7"/>
	<line class="st0" x1="33.8" y1="43.7" x2="33.8" y2="43.7"/>
	<line class="st0" x1="24.4" y1="43.7" x2="24.4" y2="43.7"/>
	<line class="st0" x1="24.4" y1="40.6" x2="24.4" y2="40.8"/>
	<line class="st0" x1="24.4" y1="43.7" x2="24.4" y2="40.8"/>
	<line class="st0" x1="15.7" y1="40.7" x2="15.7" y2="43.7"/>
	<line class="st0" x1="15.7" y1="40.5" x2="15.7" y2="40.7"/>
	<line class="st0" x1="6.2" y1="40.7" x2="6.2" y2="43.7"/>
	<line class="st0" x1="46.8" y1="44.7" x2="46.8" y2="47.7"/>
	<line class="st0" x1="37.9" y1="44.6" x2="37.9" y2="47.8"/>
	<line class="st0" x1="37.9" y1="44.6" x2="37.9" y2="44.5"/>
	<line class="st0" x1="28.8" y1="44.6" x2="28.8" y2="47.7"/>
	<line class="st0" x1="28.8" y1="44.6" x2="28.8" y2="44.6"/>
	<line class="st0" x1="19.4" y1="47.8" x2="19.4" y2="44.7"/>
	<line class="st0" x1="19.4" y1="47.8" x2="19.4" y2="47.8"/>
	<line class="st0" x1="10.7" y1="44.6" x2="10.7" y2="47.7"/>
	<line class="st0" x1="1.2" y1="48" x2="1.2" y2="47.9"/>
	<line class="st0" x1="1.2" y1="44.6" x2="1.2" y2="44.7"/>
	<line class="st0" x1="1.2" y1="47.9" x2="1.2" y2="44.7"/>
	<line class="st0" x1="51.3" y1="48.8" x2="51.3" y2="48.7"/>
	<line class="st0" x1="51.3" y1="48.8" x2="51.3" y2="51.3"/>
	<line class="st0" x1="42.4" y1="51.4" x2="42.4" y2="48.7"/>
	<line class="st0" x1="42.4" y1="51.4" x2="42.4" y2="51.5"/>
	<line class="st0" x1="42.4" y1="48.7" x2="42.4" y2="48.6"/>
	<line class="st0" x1="33.3" y1="48.5" x2="33.3" y2="48.7"/>
	<line class="st0" x1="33.3" y1="48.7" x2="33.3" y2="51.2"/>
	<line class="st0" x1="23.9" y1="51.3" x2="23.9" y2="51.5"/>
	<line class="st0" x1="23.9" y1="51.3" x2="23.9" y2="48.8"/>
	<line class="st0" x1="23.9" y1="48.7" x2="23.9" y2="48.8"/>
	<line class="st0" x1="15.2" y1="48.7" x2="15.2" y2="48.7"/>
	<line class="st0" x1="15.2" y1="48.7" x2="15.2" y2="51.3"/>
	<line class="st0" x1="5.7" y1="51.4" x2="5.7" y2="51.5"/>
	<line class="st0" x1="5.7" y1="51.4" x2="5.7" y2="48.7"/>
	<path class="st0" d="M48.5,1.7c-0.4-0.3-1.2-0.4-2.1-0.4"/>
	<path class="st0" d="M48.5,1.7C48.5,1.7,48.5,1.7,48.5,1.7L48.5,1.7C48.5,1.8,48.5,1.8,48.5,1.7"/>
	<path class="st0" d="M41.8,2.2c0.8,0,1.7-0.1,2.3-0.4c0.6-0.3,1.5-0.5,2.4-0.5"/>
	<path class="st0" d="M5.4,2.2C4.7,2.2,4,2,3.3,1.8C2.3,1.4,1,1.3,0,1.4"/>
	<path class="st0" d="M14.8,2.2c-1,0-1.9-0.3-2.4-0.5c-0.8-0.5-3.3-0.5-4.5,0C7.1,2.1,6.2,2.2,5.4,2.2"/>
	<path class="st0" d="M41.8,2.2c-0.9,0-1.8-0.2-2.3-0.5C38.7,1.3,37,1.1,35,1.8c-0.8,0.3-1.7,0.4-2.4,0.4"/>
	<path class="st0" d="M32.7,2.2c-1,0-1.8-0.3-2.2-0.5c-0.7-0.4-2.8-0.9-4.5,0.1c-1.3,0.7-3.6,0.6-4.5,0.1c-1.2-0.6-3.1-0.9-4.6-0.1
		c-0.6,0.3-1.4,0.5-2.1,0.5"/>
	<path class="st0" d="M48.5,1.7c2.6,1,3.1,0.4,4.4,0c0.3-0.2,0.7-0.3,1.2-0.3"/>
	<path class="st0" d="M37.3,6.3c0.7,0,1.5-0.1,2.3-0.4c2-0.8,3.7-0.5,4.5-0.1C45,6.3,47.4,6.7,48.6,6c1.2-0.7,3.6-0.6,4.5-0.1"/>
	<path class="st0" d="M10,6.3c0.8,0,1.6-0.1,2.4-0.5c1.2-0.5,3.8-0.5,4.5,0c0.9,0.4,3,0.9,4.5,0.1C23,5.1,24.9,5.4,26,6
		c0.5,0.2,1.3,0.4,2.1,0.4"/>
	<path class="st0" d="M53.1,5.9c0.4,0.1,0.7,0.3,1,0.3"/>
	<path class="st0" d="M53.1,5.9C53.1,5.9,53,5.9,53.1,5.9L53.1,5.9C53.1,5.9,53.1,5.9,53.1,5.9"/>
	<path class="st0" d="M28.2,6.4c0.8,0,1.7-0.1,2.4-0.5C32.3,5,34.4,5.5,35,5.8c0.4,0.2,1.2,0.5,2.3,0.5"/>
	<path class="st0" d="M10,6.3c-0.7,0-1.5-0.2-2.2-0.4c-1.4-0.5-3.5-0.5-4.5,0C2.3,6.3,1.7,6.7,0,6.2"/>
	<path class="st0" d="M18.8,9.4c-0.6,0-1.3,0.2-1.8,0.5c-1.5,0.8-3.6,0.4-4.5-0.1c-0.8-0.5-3.3-0.5-4.5,0c-1.5,0.7-3.2,0.6-4.6,0.1
		C2.5,9.6,1.5,9.5,0.5,9.5"/>
	<path class="st0" d="M48.6,9.9c2.6,1,3.1,0.4,4.4,0c0.3-0.1,0.7-0.2,1.1-0.3"/>
	<path class="st0" d="M32.8,10.3c-1,0-1.9-0.3-2.2-0.5C29.9,9.5,27.8,9,26,9.9c-1.3,0.7-3.6,0.6-4.5,0.1c-0.7-0.4-1.7-0.6-2.8-0.6"
		/>
	<path class="st0" d="M48.6,9.9C48.6,9.9,48.5,9.9,48.6,9.9L48.6,9.9C48.6,9.9,48.6,9.9,48.6,9.9"/>
	<path class="st0" d="M0,9.6c0.2,0,0.4,0,0.6-0.1"/>
	<path class="st0" d="M32.8,10.3c0.7,0,1.5-0.1,2.3-0.4c2-0.8,3.7-0.5,4.5-0.1c0.8,0.4,3.3,0.8,4.5,0.1c1.2-0.7,3.6-0.6,4.5-0.1"/>
	<path class="st0" d="M53.3,13.8C53.3,13.7,53.3,13.7,53.3,13.8L53.3,13.8C53.4,13.8,53.4,13.8,53.3,13.8"/>
	<path class="st0" d="M41.9,13.4c1.1-0.1,1.9,0.1,2.5,0.4c0.8,0.4,3.3,0.8,4.5,0.1c1.2-0.7,3.6-0.6,4.5-0.1"/>
	<path class="st0" d="M53.3,13.8c0.3,0.1,0.5,0.2,0.8,0.3"/>
	<path class="st0" d="M5.2,13.4c-0.6,0-1.2,0.2-1.5,0.4C2.5,14.2,1.9,14.6,0,14"/>
	<path class="st0" d="M23.4,13.3c-0.6,0-1.2,0.2-1.7,0.5c-1.5,0.8-3.6,0.4-4.5-0.1c-0.8-0.5-3.3-0.5-4.5,0c-0.9,0.4-1.9,0.5-2.8,0.5
		"/>
	<path class="st0" d="M23.4,13.3c1.1-0.1,2.1,0.2,2.9,0.6c0.9,0.5,3.2,0.6,4.5-0.1c1.7-0.9,3.8-0.4,4.5-0.1c0.4,0.2,1.2,0.5,2.3,0.5
		"/>
	<path class="st0" d="M37.5,14.2c0.7,0,1.5-0.1,2.3-0.4c0.7-0.3,1.4-0.4,2-0.5"/>
	<path class="st0" d="M5.2,13.4c1-0.1,2.1,0,3,0.4c0.6,0.2,1.2,0.4,1.8,0.4"/>
	<path class="st0" d="M1.4,17.5c-0.5,0-1,0.1-1.4,0.2"/>
	<path class="st0" d="M51.5,18.4c0.7,0,1.2-0.3,2-0.5c0.2-0.1,0.4-0.2,0.6-0.2"/>
	<path class="st0" d="M49.1,17.9C49.1,17.9,49,17.9,49.1,17.9L49.1,17.9C49.1,17.9,49.1,17.9,49.1,17.9"/>
	<path class="st0" d="M49.1,17.9c1.1,0.4,1.9,0.6,2.4,0.6"/>
	<path class="st0" d="M15.4,18.4c0.7,0,1.4-0.1,2-0.5c0.6-0.3,1.3-0.5,2-0.5"/>
	<path class="st0" d="M24.2,18.4c-0.8,0-1.6-0.1-2.1-0.4c-0.7-0.4-1.6-0.6-2.6-0.6"/>
	<path class="st0" d="M24.2,18.4c0.8,0,1.7-0.1,2.4-0.5c1.7-0.9,3.8-0.4,4.5-0.1c0.4,0.2,1.4,0.5,2.5,0.5"/>
	<path class="st0" d="M15.4,18.4c-1,0-1.9-0.3-2.5-0.5c-0.8-0.5-3.3-0.5-4.5,0c-0.8,0.4-1.7,0.5-2.5,0.5"/>
	<path class="st0" d="M5.9,18.3c-0.7,0-1.4-0.2-2-0.4c-0.7-0.3-1.6-0.4-2.5-0.4"/>
	<path class="st0" d="M33.5,18.3c0.6,0,1.4-0.1,2.1-0.4c2-0.8,3.7-0.5,4.5-0.1c0.5,0.3,1.5,0.5,2.5,0.5"/>
	<path class="st0" d="M42.7,18.4c0.7,0,1.4-0.1,2-0.4c1.2-0.7,3.6-0.6,4.5-0.1"/>
	<path class="st0" d="M24.2,21.2c-0.7,0-1.4,0.1-2.1,0.5c-1.5,0.8-3.6,0.4-4.5-0.1c-0.4-0.2-1.3-0.4-2.2-0.4"/>
	<path class="st0" d="M1.5,22.2c-0.4,0-0.9-0.2-1.6-0.4"/>
	<path class="st0" d="M29.2,22.1c0.7,0,1.4-0.2,2-0.5c1.7-0.9,3.8-0.4,4.5-0.1c0.4,0.3,1.4,0.5,2.6,0.5"/>
	<path class="st0" d="M42.7,21.2c0.9,0,1.6,0.2,2.1,0.4c0.8,0.4,3.3,0.8,4.5,0.1c0.6-0.3,1.5-0.5,2.3-0.5"/>
	<path class="st0" d="M15.4,21.2c-0.9,0-1.8,0.1-2.3,0.4c-1.5,0.7-3.2,0.6-4.6,0.1c-1.4-0.5-3.5-0.5-4.5,0c-0.9,0.3-1.4,0.6-2.5,0.5
		"/>
	<path class="st0" d="M53.7,21.6c0.1,0.1,0.3,0.1,0.4,0.1"/>
	<path class="st0" d="M53.7,21.6C53.7,21.6,53.7,21.6,53.7,21.6L53.7,21.6C53.7,21.6,53.7,21.6,53.7,21.6"/>
	<path class="st0" d="M51.5,21.2c0.9,0,1.7,0.1,2.2,0.4"/>
	<path class="st0" d="M24.2,21.2c0.9,0,1.8,0.3,2.5,0.6c0.5,0.3,1.5,0.4,2.5,0.4"/>
	<path class="st0" d="M42.7,21.2c-0.7,0-1.5,0.1-2.4,0.5c-0.7,0.3-1.3,0.4-2,0.4"/>
	<path class="st0" d="M33.4,25.7c0.6,0,1.3-0.1,2-0.4c2-0.8,3.7-0.5,4.5-0.1c0.8,0.4,3.3,0.8,4.5,0.1c0.7-0.4,1.8-0.5,2.8-0.5"/>
	<path class="st0" d="M29.2,24.7c0.7,0.1,1.3,0.3,1.6,0.4c0.4,0.3,1.4,0.5,2.6,0.5"/>
	<path class="st0" d="M5.8,25.7c0.8,0,1.6-0.1,2.4-0.5c0.7-0.3,1.8-0.4,2.8-0.4"/>
	<path class="st0" d="M1.5,24.8c-0.5,0-1.1,0-1.6,0.1"/>
	<path class="st0" d="M48.8,25.2c2.6,1,3.1,0.4,4.4,0c0.2-0.1,0.5-0.2,0.9-0.3"/>
	<path class="st0" d="M11,24.8c0.7,0,1.4,0.2,1.7,0.4c0.6,0.3,1.6,0.5,2.6,0.5"/>
	<path class="st0" d="M5.8,25.7c-0.7,0-1.5-0.2-2.2-0.4C3,25,2.3,24.9,1.5,24.8"/>
	<path class="st0" d="M19.8,24.8c-0.9-0.1-1.8,0-2.6,0.5c-0.6,0.3-1.3,0.4-1.9,0.5"/>
	<path class="st0" d="M48.8,25.2c-0.4-0.2-1-0.4-1.7-0.4"/>
	<path class="st0" d="M19.8,24.8c0.8,0.1,1.5,0.3,2,0.6c0.5,0.3,1.4,0.4,2.3,0.4"/>
	<path class="st0" d="M24,25.7c0.8,0,1.6-0.2,2.3-0.5c0.9-0.5,2-0.6,2.9-0.5"/>
	<path class="st0" d="M48.8,25.2C48.8,25.2,48.8,25.2,48.8,25.2L48.8,25.2C48.9,25.2,48.9,25.2,48.8,25.2"/>
	<path class="st0" d="M47.3,29.5c0.7,0,1.4-0.1,2-0.4c1.2-0.7,3.6-0.6,4.5-0.1"/>
	<path class="st0" d="M53.7,29C53.7,29,53.7,29,53.7,29L53.7,29C53.7,29,53.7,29,53.7,29"/>
	<path class="st0" d="M24,28.5c-0.7,0-1.3,0.2-2,0.5c-0.7,0.4-1.4,0.5-2.2,0.5"/>
	<path class="st0" d="M11.2,29.4c0.6,0,1.3-0.2,1.9-0.5c0.5-0.3,1.4-0.4,2.2-0.4"/>
	<path class="st0" d="M19.9,29.5c-0.9,0-1.8-0.3-2.3-0.5c-0.4-0.3-1.3-0.4-2.3-0.4"/>
	<path class="st0" d="M29.3,29.5c-1,0.1-2.1-0.1-2.6-0.4C26,28.8,25,28.5,24,28.5"/>
	<path class="st0" d="M53.7,29c0.1,0.1,0.3,0.1,0.4,0.1"/>
	<path class="st0" d="M42.5,28.6c1,0,1.7,0.2,2.2,0.4c0.5,0.3,1.5,0.5,2.5,0.5"/>
	<path class="st0" d="M1.7,29.5c-0.4,0-1-0.2-1.7-0.4"/>
	<path class="st0" d="M5.8,28.6c-0.7,0-1.4,0.2-1.8,0.4c-0.9,0.3-1.4,0.6-2.3,0.5"/>
	<path class="st0" d="M5.8,28.6c0.9,0,1.9,0.1,2.7,0.4c0.8,0.3,1.7,0.5,2.7,0.4"/>
	<path class="st0" d="M29.3,29.5c0.7,0,1.3-0.2,1.9-0.5c0.7-0.4,1.5-0.5,2.2-0.5"/>
	<path class="st0" d="M42.5,28.6c-0.7,0-1.5,0.2-2.3,0.5c-0.6,0.2-1.3,0.4-1.8,0.4"/>
	<path class="st0" d="M38.4,29.5c-1.3,0.1-2.3-0.2-2.8-0.5c-0.4-0.2-1.3-0.5-2.3-0.5"/>
	<path class="st0" d="M29.3,32.2c0.9,0,1.6,0.3,2,0.5c0.5,0.3,1.6,0.6,2.9,0.5"/>
	<path class="st0" d="M6.5,33.1c-0.8,0-1.7-0.1-2.4-0.4c-0.7-0.3-1.6-0.4-2.5-0.4"/>
	<path class="st0" d="M34.2,33.1c0.5,0,1.1-0.2,1.7-0.4c2-0.8,3.7-0.5,4.5-0.1c0.8,0.4,3.3,0.8,4.5,0.1c1.2-0.7,3.6-0.6,4.5-0.1"/>
	<path class="st0" d="M19.9,32.2c-0.7,0-1.5,0.1-2.2,0.5c-0.5,0.3-1.1,0.4-1.7,0.4"/>
	<path class="st0" d="M11.2,32.3c-0.9,0-1.9,0.1-2.5,0.4C8,33,7.3,33.1,6.5,33.1"/>
	<path class="st0" d="M49.4,32.7c2.6,1,3.1,0.4,4.4,0c0.1-0.1,0.2-0.1,0.4-0.1"/>
	<path class="st0" d="M16,33.1c-1.1,0.1-2.2-0.2-2.8-0.5c-0.4-0.2-1.2-0.4-2-0.4"/>
	<path class="st0" d="M1.7,32.3c-0.6,0-1.2,0.1-1.7,0.2"/>
	<path class="st0" d="M49.4,32.7C49.3,32.7,49.3,32.7,49.4,32.7L49.4,32.7C49.4,32.7,49.4,32.7,49.4,32.7"/>
	<path class="st0" d="M19.9,32.2c0.9,0,1.7,0.3,2.4,0.6c0.9,0.5,3.2,0.6,4.5-0.1c0.8-0.4,1.7-0.5,2.5-0.5"/>
	<path class="st0" d="M24.8,36.2c-0.9-0.1-2,0-2.8,0.4c-1.5,0.8-3.6,0.4-4.5-0.1c-0.8-0.5-3.3-0.5-4.5,0c-0.7,0.3-1.4,0.5-2.2,0.5"
		/>
	<path class="st0" d="M34.2,36.2c0.6,0.1,1.1,0.3,1.4,0.4c0.7,0.4,2.6,0.9,4.6,0.1c1.2-0.5,2.3-0.5,3.2-0.4"/>
	<path class="st0" d="M34.2,36.2c-0.9-0.1-2.1-0.1-3.1,0.5c-0.6,0.3-1.4,0.5-2.1,0.5"/>
	<path class="st0" d="M53.6,36.6c0.2,0.1,0.4,0.1,0.5,0.2"/>
	<path class="st0" d="M10.8,37.1c-0.8,0-1.7-0.1-2.4-0.4c-1.4-0.5-3.5-0.5-4.5,0C2.7,37,2.1,37.5,0,36.8"/>
	<path class="st0" d="M43.3,36.3c0.6,0.1,1,0.2,1.3,0.4c0.8,0.4,3.3,0.8,4.5,0.1c1.2-0.7,3.6-0.6,4.5-0.1"/>
	<path class="st0" d="M24.8,36.2c0.7,0.1,1.3,0.3,1.8,0.5c0.5,0.3,1.4,0.4,2.4,0.4"/>
	<path class="st0" d="M53.6,36.6C53.6,36.6,53.5,36.6,53.6,36.6L53.6,36.6C53.6,36.6,53.6,36.6,53.6,36.6"/>
	<path class="st0" d="M54.1,40c-0.2,0.1-0.4,0.1-0.6,0.2c-0.7,0.2-1.1,0.4-1.7,0.5"/>
	<path class="st0" d="M49.1,40.2c1.3,0.5,2.1,0.6,2.7,0.5"/>
	<path class="st0" d="M15.7,40.7c-1.1,0-2.1-0.2-2.7-0.5c-0.4-0.3-1.3-0.4-2.2-0.4"/>
	<path class="st0" d="M19.5,39.8c-0.7,0-1.4,0.1-2.1,0.5c-0.5,0.3-1.2,0.4-1.8,0.5"/>
	<path class="st0" d="M1.3,39.9c0.9,0,1.8,0.1,2.6,0.4c1.4,0.5,3.1,0.6,4.6-0.1c0.6-0.3,1.5-0.4,2.3-0.4"/>
	<path class="st0" d="M24.4,40.8c-0.9,0-1.9-0.1-2.4-0.4c-0.7-0.3-1.6-0.6-2.5-0.6"/>
	<path class="st0" d="M46.9,39.8c-0.8,0-1.7,0.2-2.3,0.5c-0.5,0.3-1.1,0.4-1.7,0.4"/>
	<path class="st0" d="M49.1,40.2C49.1,40.2,49,40.2,49.1,40.2L49.1,40.2C49.1,40.3,49.1,40.3,49.1,40.2"/>
	<path class="st0" d="M38,39.8c0.9,0,1.6,0.2,2.1,0.4c0.5,0.3,1.7,0.5,2.8,0.5"/>
	<path class="st0" d="M1.3,39.9C0.8,39.9,0.4,40,0,40"/>
	<path class="st0" d="M49.1,40.2c-0.4-0.3-1.3-0.4-2.2-0.4"/>
	<path class="st0" d="M28.9,39.7c-0.8,0-1.6,0.1-2.4,0.5c-0.6,0.3-1.4,0.5-2.1,0.5"/>
	<path class="st0" d="M33.8,40.7c-1.3,0.1-2.3-0.2-2.7-0.5c-0.4-0.2-1.2-0.4-2.1-0.5"/>
	<path class="st0" d="M38,39.8c-0.7,0-1.5,0.1-2.4,0.5c-0.6,0.2-1.3,0.4-1.8,0.4"/>
	<path class="st0" d="M53.4,44.1c0.3,0.1,0.5,0.2,0.7,0.3"/>
	<path class="st0" d="M28.8,44.6c-1,0-1.9-0.1-2.5-0.4c-0.5-0.3-1.2-0.5-1.9-0.6"/>
	<path class="st0" d="M37.9,44.6c0.6,0,1.3-0.1,2-0.4c1.1-0.4,2.2-0.5,3-0.5"/>
	<path class="st0" d="M37.9,44.6c-1.2,0-2.1-0.3-2.6-0.5c-0.3-0.2-0.9-0.3-1.5-0.4"/>
	<path class="st0" d="M28.8,44.6c0.7,0,1.5-0.2,2-0.5c1-0.5,2.1-0.6,3-0.5"/>
	<path class="st0" d="M42.9,43.7c0.6,0.1,1.1,0.2,1.5,0.4c0.8,0.4,3.3,0.8,4.5,0.1c1.2-0.7,3.6-0.6,4.5-0.1"/>
	<path class="st0" d="M24.4,43.7c-0.9-0.1-1.8,0-2.7,0.5c-1.5,0.8-3.6,0.4-4.5-0.1c-0.8-0.5-3.3-0.5-4.5,0c-1.5,0.7-3.2,0.6-4.6,0.1
		c-1.4-0.5-3.5-0.5-4.5,0c-0.9,0.3-1.4,0.6-2.5,0.5"/>
	<path class="st0" d="M53.4,44.1C53.4,44.1,53.3,44.1,53.4,44.1L53.4,44.1C53.4,44.1,53.4,44.1,53.4,44.1"/>
	<path class="st0" d="M0,44.4c0.5,0.1,0.8,0.2,1.2,0.3"/>
	<path class="st0" d="M51.3,48.8c0.8,0,1.3-0.3,2.1-0.5c0.2-0.1,0.4-0.2,0.7-0.2"/>
	<path class="st0" d="M33.3,48.7c-1.1,0-1.9-0.3-2.3-0.5c-0.7-0.4-2.8-0.9-4.5,0.1c-0.7,0.4-1.7,0.5-2.5,0.5"/>
	<path class="st0" d="M1.2,47.9c0.9,0,1.9,0.1,2.6,0.4c1.4,0.5,3.1,0.6,4.6-0.1c1.2-0.5,3.8-0.5,4.5,0c0.5,0.2,1.4,0.5,2.3,0.5"/>
	<path class="st0" d="M42.4,48.7c-1,0-1.9-0.2-2.4-0.5c-0.8-0.4-2.5-0.7-4.5,0.1c-0.8,0.3-1.6,0.4-2.3,0.4"/>
	<path class="st0" d="M0,48c0.4-0.1,0.8-0.1,1.2-0.1"/>
	<path class="st0" d="M42.4,48.7c0.8,0,1.6-0.1,2.1-0.4c1.2-0.7,3.6-0.6,4.5-0.1"/>
	<path class="st0" d="M15.2,48.7c0.7,0,1.5-0.1,2.2-0.5c0.6-0.3,1.3-0.5,2-0.5"/>
	<path class="st0" d="M51.3,48.8c-0.6,0-1.3-0.2-2.3-0.6"/>
	<path class="st0" d="M49,48.3C49,48.2,49,48.2,49,48.3L49,48.3C49,48.3,49,48.3,49,48.3"/>
	<path class="st0" d="M23.9,48.8c-0.8,0-1.5-0.2-2-0.4c-0.7-0.3-1.6-0.6-2.5-0.6"/>
	<path class="st0" d="M5.7,51.4c0.8,0,1.6,0.1,2.3,0.4c0.7,0.3,1.6,0.4,2.4,0.4"/>
	<path class="st0" d="M53.1,51.8c-0.9-0.5-3.2-0.6-4.5,0.1c-0.6,0.3-1.4,0.4-2.3,0.4"/>
	<path class="st0" d="M0,52.1c1.8,0.5,2.3,0.1,3.4-0.3c0.5-0.3,1.4-0.4,2.3-0.4"/>
	<path class="st0" d="M42.4,51.4c0.7,0,1.3,0.2,1.8,0.4c0.4,0.2,1.3,0.4,2.3,0.5"/>
	<path class="st0" d="M53.1,51.8C53.1,51.7,53.1,51.7,53.1,51.8L53.1,51.8C53.2,51.8,53.2,51.8,53.1,51.8"/>
	<path class="st0" d="M53.1,51.8c0.4,0.1,0.7,0.2,1,0.3"/>
	<path class="st0" d="M23.9,51.3c-0.8-0.1-1.7,0.1-2.4,0.5c-0.7,0.4-1.6,0.5-2.5,0.4"/>
	<path class="st0" d="M19,52.2c-0.8-0.1-1.6-0.3-2-0.5c-0.8-0.5-3.3-0.5-4.5,0c-0.7,0.3-1.5,0.5-2.2,0.5"/>
	<path class="st0" d="M23.9,51.3c0.8,0.1,1.6,0.3,2.2,0.6c0.9,0.5,3.2,0.6,4.5-0.1c1.7-0.9,3.8-0.4,4.5-0.1c0.7,0.4,2.6,0.9,4.6,0.1
		c1-0.4,2-0.5,2.8-0.5"/>
	<line class="st0" x1="46.4" y1="52.2" x2="46.4" y2="52.2"/>
	<line class="st0" x1="46.4" y1="52.2" x2="46.4" y2="54.1"/>
	<line class="st0" x1="37.5" y1="52.3" x2="37.5" y2="54.1"/>
	<line class="st0" x1="28.4" y1="52.3" x2="28.4" y2="54.1"/>
	<line class="st0" x1="19" y1="52.2" x2="19" y2="54.1"/>
	<line class="st0" x1="19" y1="52.1" x2="19" y2="52.2"/>
	<line class="st0" x1="10.3" y1="52.2" x2="10.3" y2="54.1"/>
	<line class="st0" x1="10.3" y1="52.2" x2="10.3" y2="52.2"/>
	<line class="st0" x1="0.8" y1="52.3" x2="0.8" y2="54.1"/>
	<rect x="0" y="0" class="st1" width="54.1" height="54.1"/>
</g>
</svg>
