<?xml version="1.0" encoding="utf-8"?>
<!-- Generator: Adobe Illustrator 23.0.1, SVG Export Plug-In . SVG Version: 6.00 Build 0)  -->
<svg version="1.1" id="Layer_1" xmlns="http://www.w3.org/2000/svg" xmlns:xlink="http://www.w3.org/1999/xlink" x="0px" y="0px"
	 viewBox="0 0 85 85" style="enable-background:new 0 0 85 85;" xml:space="preserve">
<style type="text/css">
	.st0{clip-path:url(#SVGID_2_);fill:none;stroke:#000000;stroke-width:0.3;}
</style>
<g>
	<defs>
		<rect id="SVGID_1_" x="0" y="0" width="85" height="85"/>
	</defs>
	<clipPath id="SVGID_2_">
		<use xlink:href="#SVGID_1_"  style="overflow:visible;"/>
	</clipPath>
	<line class="st0" x1="3.8" y1="2.2" x2="3.6" y2="0"/>
	<line class="st0" x1="12.9" y1="0" x2="13" y2="0.6"/>
	<line class="st0" x1="8" y1="1.6" x2="8" y2="1.6"/>
	<line class="st0" x1="8" y1="1.6" x2="8.6" y2="4.1"/>
	<line class="st0" x1="19.3" y1="1.6" x2="18.8" y2="0"/>
	<line class="st0" x1="3.6" y1="10.5" x2="3" y2="5.1"/>
	<line class="st0" x1="12.3" y1="3.5" x2="13.6" y2="8.2"/>
	<line class="st0" x1="22.5" y1="0.6" x2="24.2" y2="3.6"/>
	<line class="st0" x1="77.3" y1="0" x2="77" y2="2.7"/>
	<line class="st0" x1="64.5" y1="0" x2="62.8" y2="4.3"/>
	<line class="st0" x1="79.8" y1="5.8" x2="79.8" y2="2.9"/>
	<line class="st0" x1="79.8" y1="5.8" x2="79.8" y2="5.8"/>
	<path class="st0" d="M11.3,37.1C6.7,35.6,2.6,33.9,0,31.9"/>
	<path class="st0" d="M33.6,41.7c2.8,0.3,5.4,0.5,7.6,0.6"/>
	<path class="st0" d="M24.7,40.4c3.1,0.6,6.1,1,8.9,1.3"/>
	<path class="st0" d="M24.7,40.4c-4.5-0.8-9.2-1.9-13.4-3.3"/>
	<path class="st0" d="M42.5,42.3c-0.4,0-0.9,0-1.4,0"/>
	<path class="st0" d="M42.5,42.3c2.6,0,6.1-0.3,10-0.8"/>
	<path class="st0" d="M60.6,40.3c-2.7,0.5-5.5,0.9-8,1.3"/>
	<path class="st0" d="M69.3,38.4c-2.8,0.7-5.8,1.4-8.7,1.9"/>
	<path class="st0" d="M81.4,34.1c1.4-0.7,2.6-1.5,3.7-2.2"/>
	<path class="st0" d="M69.3,38.4c4.5-1.2,8.8-2.6,12.1-4.3"/>
	<path class="st0" d="M17.7,60c3.8,0.9,7.8,1.7,11.5,2.2"/>
	<path class="st0" d="M29.2,62.2c5.2,0.8,10,1.2,13.3,1.2"/>
	<path class="st0" d="M0,53C0,52.9,0,52.9,0,53"/>
	<path class="st0" d="M17.7,60c-7.2-1.8-14-4.1-17.7-7"/>
	<path class="st0" d="M48.5,63.1c-2.3,0.2-4.3,0.3-6,0.3"/>
	<path class="st0" d="M79.4,56.1c-1.7,0.7-3.5,1.4-5.4,2"/>
	<path class="st0" d="M79.4,56.1c2.2-1,4.2-2,5.6-3.2"/>
	<path class="st0" d="M71.4,58.9c-2.3,0.7-4.8,1.3-7.3,1.8"/>
	<path class="st0" d="M85,53C85.1,52.9,85.1,52.9,85,53"/>
	<path class="st0" d="M74,58.1c-0.8,0.3-1.7,0.5-2.6,0.8"/>
	<path class="st0" d="M48.5,63.1c4.6-0.4,10.1-1.2,15.6-2.4"/>
	<path class="st0" d="M0,10.7C0,10.7,0.1,10.7,0,10.7"/>
	<path class="st0" d="M6.3,14.1c-2.5-1-4.6-2.2-6.3-3.4"/>
	<path class="st0" d="M15.1,17C12,16.2,9,15.2,6.3,14.1"/>
	<path class="st0" d="M24.4,19.1c-3.1-0.6-6.3-1.3-9.3-2.1"/>
	<path class="st0" d="M24.4,19.1c2.1,0.4,4.2,0.7,6.2,1"/>
	<path class="st0" d="M30.6,20.1c4.7,0.7,8.9,1,11.9,1"/>
	<path class="st0" d="M85,10.7C85,10.7,85,10.7,85,10.7"/>
	<path class="st0" d="M55.8,19.9c-5.2,0.8-10,1.2-13.2,1.2"/>
	<path class="st0" d="M55.8,19.9c10.7-1.6,23.4-4.8,29.2-9.2"/>
	<path class="st0" d="M77.1,52.5c-6.5-0.6-13.6-2.1-19.5-4.8"/>
	<path class="st0" d="M77.1,52.5c2.8,0.3,5.5,0.4,8,0.4"/>
	<path class="st0" d="M51.6,44.3C51.6,44.2,51.5,44.2,51.6,44.3"/>
	<path class="st0" d="M57.6,47.8c-2.2-1-4.2-2.2-6-3.5"/>
	<path class="st0" d="M85,52.9C85.1,52.9,85.1,52.9,85,52.9"/>
	<path class="st0" d="M43.6,69c0.3,0.3,0.7,0.5,1.1,0.8"/>
	<path class="st0" d="M62.1,73.8c-1.9-0.1-3.8-0.3-5.6-0.6"/>
	<path class="st0" d="M44.8,69.7c2.9,1.8,7.1,2.9,11.7,3.5"/>
	<path class="st0" d="M62.1,73.8C70.6,74.4,79.6,74,85,74"/>
	<path class="st0" d="M37.3,25c1.3,0.6,2.6,1.1,4.1,1.6"/>
	<path class="st0" d="M30.5,20c0,0,0.1,0.1,0.1,0.1"/>
	<path class="st0" d="M78.2,31.6c2.8,0.1,5.2,0.1,6.8,0.1"/>
	<path class="st0" d="M63.9,30.7c2.2,0.2,4.4,0.4,6.5,0.5"/>
	<path class="st0" d="M36.3,24.5c-2.5-1.2-4.5-2.7-5.7-4.4"/>
	<path class="st0" d="M70.4,31.2c2.8,0.2,5.5,0.3,7.8,0.4"/>
	<path class="st0" d="M37.3,25c-0.4-0.2-0.7-0.3-1-0.5"/>
	<path class="st0" d="M41.4,26.6c6.5,2.1,14.7,3.4,22.5,4.1"/>
	<path class="st0" d="M44.4,84.7c1.9-0.1,4.2-0.3,6.6-0.5"/>
	<path class="st0" d="M82.3,76c1-0.6,1.9-1.1,2.7-1.8"/>
	<path class="st0" d="M42.5,84.7C42.5,84.7,42.4,84.7,42.5,84.7"/>
	<path class="st0" d="M42.5,84.7c0.6,0,1.3,0,2,0"/>
	<path class="st0" d="M74.4,79.2c-0.8,0.3-1.7,0.5-2.5,0.8"/>
	<path class="st0" d="M63.2,82.2c-4.2,0.9-8.4,1.5-12.2,2"/>
	<path class="st0" d="M63.2,82.2c2.9-0.6,5.9-1.3,8.6-2.1"/>
	<path class="st0" d="M82.3,76c-2.2,1.2-4.9,2.3-7.9,3.3"/>
	<path class="st0" d="M23.3,82.5c-1.4-0.3-2.7-0.5-4.1-0.9"/>
	<path class="st0" d="M6.6,77.8c-1.9-0.8-3.6-1.6-5-2.4"/>
	<path class="st0" d="M1.6,75.4C1,75,0.5,74.6,0,74.2"/>
	<path class="st0" d="M42.5,84.7C42.5,84.7,42.5,84.7,42.5,84.7"/>
	<path class="st0" d="M16.3,80.9c1,0.2,2,0.5,2.9,0.7"/>
	<path class="st0" d="M42.5,84.7c-0.7,0-1.6,0-2.4-0.1"/>
	<path class="st0" d="M12.5,79.9c1.2,0.4,2.5,0.7,3.8,1"/>
	<path class="st0" d="M8,78.3C7.5,78.2,7,78,6.6,77.8"/>
	<path class="st0" d="M31.4,83.8c0.4,0,0.7,0.1,1.1,0.1"/>
	<path class="st0" d="M40,84.6c-2.2-0.1-4.8-0.3-7.6-0.7"/>
	<path class="st0" d="M23.3,82.5c1.5,0.3,3,0.6,4.4,0.8"/>
	<path class="st0" d="M12.5,79.9c-1.6-0.5-3.1-1-4.6-1.5"/>
	<path class="st0" d="M31.4,83.8c-1.2-0.2-2.4-0.3-3.6-0.5"/>
	<path class="st0" d="M27.5,1.7c-0.1,0-0.1-0.1-0.2-0.1"/>
	<path class="st0" d="M33.6,4.6c3.9,1.6,7.9,2.9,11.8,3.8"/>
	<path class="st0" d="M85,10.7C85,10.7,85,10.7,85,10.7"/>
	<path class="st0" d="M45.4,8.5c3.1,0.7,6.1,1.3,9,1.7"/>
	<path class="st0" d="M54.4,10.1c13,1.7,24.4,0.6,30.5,0.6"/>
	<path class="st0" d="M33.6,4.6c-2-0.9-4.1-1.8-6.1-2.9"/>
	<path class="st0" d="M38.2,47.6c-2.9,0.6-5.9,1.2-8.9,1.7"/>
	<path class="st0" d="M60.6,40.3c-1.8,1.3-4.9,2.7-9,3.9"/>
	<path class="st0" d="M8.3,52.3c-3.5,0.4-6.4,0.6-8.3,0.6"/>
	<path class="st0" d="M60.6,40.3C60.6,40.3,60.6,40.3,60.6,40.3"/>
	<path class="st0" d="M47.7,45.4c1.4-0.4,2.7-0.8,3.9-1.1"/>
	<path class="st0" d="M29.3,49.3c-7.6,1.3-15.2,2.4-21,3"/>
	<path class="st0" d="M47.7,45.4c-2.9,0.8-6.1,1.5-9.5,2.2"/>
	<path class="st0" d="M34.2,70.9c-0.6,0.1-1.2,0.2-1.7,0.3"/>
	<path class="st0" d="M62.4,63.4c3.6-1.4,6.7-2.9,9-4.5"/>
	<path class="st0" d="M62.4,63.4C61,63.9,59.5,64.5,58,65"/>
	<path class="st0" d="M27.6,72C16.3,73.8,5.9,74.5,0,74"/>
	<path class="st0" d="M27.6,72c1.6-0.2,3.2-0.5,4.9-0.8"/>
	<path class="st0" d="M34.2,70.9c1.6-0.3,3.3-0.6,4.9-1"/>
	<path class="st0" d="M53.1,66.5c-4.4,1.3-9.2,2.4-14,3.4"/>
	<path class="st0" d="M53.1,66.5c1.7-0.5,3.3-1,4.9-1.5"/>
	<path class="st0" d="M71.8,58.6c-0.1,0.1-0.2,0.2-0.4,0.3"/>
	<path class="st0" d="M36.3,24.5c-1.2,0.8-2.3,1.4-3.4,2.1"/>
	<path class="st0" d="M28.1,28.9c1.5-0.6,3.1-1.4,4.7-2.3"/>
	<path class="st0" d="M36.3,24.5C36.3,24.5,36.3,24.5,36.3,24.5"/>
	<path class="st0" d="M28.1,28.9C16.7,33.7,8.2,31.8,0,31.7"/>
	<path class="st0" d="M22.9,4.4c1.6-0.8,3.1-1.7,4.6-2.7"/>
	<path class="st0" d="M4.8,10.4c1.7-0.2,3.5-0.6,5.3-1"/>
	<path class="st0" d="M0,10.7C0,10.7,0.1,10.7,0,10.7"/>
	<path class="st0" d="M4.8,10.4c-1.6,0.2-3.2,0.3-4.7,0.4"/>
	<path class="st0" d="M10.1,9.3c2.6-0.7,5.2-1.5,7.8-2.6"/>
	<path class="st0" d="M27.5,1.7C28.4,1.2,29.2,0.6,30,0"/>
	<path class="st0" d="M22.9,4.4c-1.6,0.8-3.3,1.6-5,2.3"/>
	<path class="st0" d="M23.9,0C17.7,2.4,9,4.6,0,5.4"/>
	<path class="st0" d="M34.5,23.6c-7.3,4.8-18.5,6-30.1,5.4"/>
	<path class="st0" d="M4.3,29c-1.4-0.1-2.9-0.2-4.3-0.3"/>
	<path class="st0" d="M27.2,23.9c1.8-0.5,3.5-1.1,5.2-1.8"/>
	<path class="st0" d="M27.2,23.9c-4.2,1.2-8.8,2-13.5,2.4"/>
	<path class="st0" d="M13.7,26.3c-4,0.3-8.1,0.3-12.1,0.1"/>
	<path class="st0" d="M0,26.3c0.5,0,1.1,0.1,1.6,0.1"/>
	<path class="st0" d="M6.3,14.1C6.4,14.1,6.4,14.1,6.3,14.1"/>
	<path class="st0" d="M6.3,14.1c-1.6,0.2-2.9,0.4-4,0.4"/>
	<path class="st0" d="M2.3,14.5c-0.8,0-1.6,0-2.3-0.2"/>
	<path class="st0" d="M12,18.3C8,19.6,3.9,20,0,19.8"/>
	<path class="st0" d="M12,18.3c1-0.3,2.1-0.7,3.1-1.2"/>
	<path class="st0" d="M15.1,17C15.1,17,15.1,17,15.1,17"/>
	<path class="st0" d="M24.4,19.1c0,0,0.1,0,0.1,0"/>
	<path class="st0" d="M7.5,23.3c-2.6,0.2-5.1,0.2-7.5,0"/>
	<path class="st0" d="M24.4,19.1c-1.8,0.7-3.5,1.3-5.2,1.9"/>
	<path class="st0" d="M7.5,23.3c3.8-0.3,7.7-1,11.7-2.3"/>
	<line class="st0" x1="19.3" y1="81.6" x2="19.3" y2="81.6"/>
	<path class="st0" d="M3.6,84.9c4.9-0.4,10.2-1.5,14.9-3l0.7-0.3"/>
	<path class="st0" d="M3.6,84.9C2.4,85,1.2,85,0,85"/>
	<line class="st0" x1="12.5" y1="79.9" x2="12.6" y2="79.8"/>
	<path class="st0" d="M12.5,79.9l-0.8,0.3C7.5,81.5,3.4,81.8,0,81.6"/>
	<line class="st0" x1="71.9" y1="80" x2="71.8" y2="80"/>
	<path class="st0" d="M77.5,84c-2.4-0.7-4.2-1.9-5.4-3.6L71.9,80"/>
	<path class="st0" d="M85,85c-2.8,0-5.4-0.3-7.6-1"/>
	<path class="st0" d="M85,81.6c-1.7-0.1-3.3-0.4-4.6-0.7"/>
	<path class="st0" d="M75.4,78.9l0.5,0.3c0.6,0.5,2.2,1.2,4.5,1.7"/>
	<path class="st0" d="M79.8,5.8c-2.1,0.1-4.2,0-6.3-0.1"/>
	<path class="st0" d="M79.8,5.8c1.8,0,3.5-0.2,5.2-0.3c0,0,0,0,0,0"/>
	<path class="st0" d="M73.5,5.7c-5.1-0.2-10.1-1-14.5-2.4"/>
	<path class="st0" d="M52,0c2,1.4,4.3,2.5,7,3.3"/>
	<path class="st0" d="M6.5,16.9c-2.6,0.5-4.7,0.5-6.5,0.2"/>
	<path class="st0" d="M6.5,16.9c1.3-0.2,2.7-0.6,4.2-1.1"/>
	<path class="st0" d="M74.6,27.4c-2.3-0.3-4.5-0.7-6.6-1.1"/>
	<path class="st0" d="M60,24.6c-6-1.4-10.8-2.7-13.5-3.6"/>
	<path class="st0" d="M68,26.3c-2.8-0.5-5.5-1.1-8-1.7"/>
	<path class="st0" d="M74.6,27.4c3.4,0.5,6.9,1,10.4,1.3c0,0,0,0,0.1,0"/>
	<path class="st0" d="M81.1,25.9c1.3,0.1,2.6,0.2,3.9,0.3c0,0,0,0,0.1,0"/>
	<path class="st0" d="M55.8,19.9C55.8,19.9,55.7,19.9,55.8,19.9"/>
	<path class="st0" d="M81.1,25.9c-8.9-0.9-19-2.7-24.8-5.7"/>
	<path class="st0" d="M55.8,19.9c0.2,0.1,0.4,0.2,0.5,0.3"/>
	<path class="st0" d="M80.3,13.5c1.7,0.6,3.4,0.7,4.7,0.9c0,0,0,0,0.1,0"/>
	<path class="st0" d="M71,17.2c-0.2-0.1-0.4-0.2-0.6-0.3"/>
	<path class="st0" d="M71,17.2c3.7,1.5,9.2,2.3,14,2.6"/>
	<path class="st0" d="M64.8,18.8c-0.2-0.1-0.4-0.2-0.6-0.3"/>
	<path class="st0" d="M64.8,18.8c3,1.6,7,2.6,11.1,3.3"/>
	<path class="st0" d="M82.9,23c0.7,0.1,1.4,0.1,2.1,0.2c0,0,0,0,0.1,0"/>
	<path class="st0" d="M82.9,23c-2.2-0.2-4.6-0.5-7-0.9"/>
	<path class="st0" d="M76.5,15.1c1.2,1,5,1.5,8.5,2.1c0,0,0,0,0.1,0"/>
	<path class="st0" d="M44.7,0.1c2.5,1.9,5.1,3.4,7.7,4.6"/>
	<path class="st0" d="M83.2,10.6C68.9,9.5,60,8.2,52.4,4.6"/>
	<path class="st0" d="M43.7,3.1C42.3,2,41.2,0.9,40.3,0"/>
	<path class="st0" d="M43.7,3.1C46.8,5.9,51.3,9,57,10.3"/>
	<path class="st0" d="M45.4,8.5c0.1,0,0.2,0.1,0.3,0.1"/>
	<path class="st0" d="M45.4,8.5C42.2,6.9,36.9,3,33.4,0"/>
	<path class="st0" d="M85,0c-0.4,0-0.7,0-1.1,0"/>
	<path class="st0" d="M36.4,20.8c0.6,0.5,1.1,0.9,1.7,1.3"/>
	<path class="st0" d="M55.3,29.6c-7.7-1.6-12.9-4.3-17.2-7.5"/>
	<path class="st0" d="M81.6,31.7c-13.5-0.4-33.5-6.8-39.3-10.5"/>
	<path class="st0" d="M33.6,4.6c0,0,0.1,0,0.1,0"/>
	<path class="st0" d="M33.6,4.6c-1.6-0.2-3.5-0.4-5.1-0.8"/>
	<path class="st0" d="M28.5,3.8c-1.1-0.2-2.1-0.5-2.9-0.9"/>
	<path class="st0" d="M22.9,4.4c0,0-0.1,0-0.1,0"/>
	<path class="st0" d="M38.9,6.6c-7.1,1.5-9.7-0.3-16-2.2"/>
	<path class="st0" d="M27.8,9.7c4.7,0.7,9.9,0.8,14.1,0.3"/>
	<path class="st0" d="M47.1,9c-1.4,0.5-3.2,0.9-5.2,1.1"/>
	<path class="st0" d="M27.8,9.7c-3.9-0.6-7.4-1.6-9.9-3"/>
	<path class="st0" d="M17.8,6.7C17.8,6.7,17.8,6.7,17.8,6.7"/>
	<path class="st0" d="M14.5,8c0.6,0.6,1.4,1.1,2.4,1.7"/>
	<path class="st0" d="M54.4,10.1C54.5,10.1,54.5,10.1,54.4,10.1"/>
	<path class="st0" d="M54.4,10.1c-16.3,6.1-31,3.1-37.6-0.4"/>
	<path class="st0" d="M10.1,9.3c0,0-0.1-0.1-0.1-0.1"/>
	<path class="st0" d="M23.1,15.2c-5.4-1-9.8-2.7-12.2-4.9"/>
	<path class="st0" d="M10.9,10.3c-0.3-0.3-0.6-0.6-0.8-0.9"/>
	<path class="st0" d="M40.5,16.5c6.5-0.2,12.9-1,17.9-2.5"/>
	<path class="st0" d="M23.1,15.2c5.2,1,11.4,1.5,17.5,1.3"/>
	<path class="st0" d="M64.8,11c-1.6,1.2-3.8,2.2-6.4,3"/>
	<path class="st0" d="M66.8,15.1c-5.5,1.6-12,2.8-18.8,3.3"/>
	<path class="st0" d="M76.6,11c-2.6,1.6-6,3-9.9,4.1"/>
	<path class="st0" d="M4.8,10.4c0.2,0.1,0.4,0.2,0.5,0.4"/>
	<path class="st0" d="M29.9,18.3c-9.4-0.9-18.2-3.3-24.6-7.6"/>
	<path class="st0" d="M4.7,10.4C4.7,10.4,4.8,10.4,4.7,10.4"/>
	<path class="st0" d="M29.9,18.3c6,0.6,12.2,0.6,18.1,0.1"/>
	<path class="st0" d="M41.4,26.6c-1.5,0.4-5.7,1.2-8.6,0"/>
	<path class="st0" d="M41.4,26.6C41.4,26.6,41.5,26.6,41.4,26.6"/>
	<path class="st0" d="M32.8,26.6C32.8,26.6,32.8,26.6,32.8,26.6"/>
	<path class="st0" d="M28.1,28.9c0.1,0,0.2,0,0.3,0.1"/>
	<path class="st0" d="M28.1,28.9C28.1,28.9,28.1,28.9,28.1,28.9"/>
	<path class="st0" d="M49.6,28.7C41,31,35.5,30.6,28.4,29"/>
	<path class="st0" d="M43,33.3c-9,0.9-16.9-0.1-20-2.6"/>
	<path class="st0" d="M57.9,30.1c-4.9,1.7-10,2.7-14.9,3.2"/>
	<path class="st0" d="M46.8,37c4.4-0.4,8.7-1.4,12.3-3.2"/>
	<line class="st0" x1="63.9" y1="30.7" x2="63.9" y2="30.7"/>
	<path class="st0" d="M46.8,37c-5.6,0.5-11.5,0.2-16.8-0.7"/>
	<path class="st0" d="M59.1,33.8c1.7-0.8,3.4-1.9,4.8-3.1"/>
	<path class="st0" d="M30,36.3c-6.6-1-12.2-2.7-15.5-4.2"/>
	<path class="st0" d="M76.3,31.6c-2.8,1.8-5.8,3.2-8.9,4.4"/>
	<path class="st0" d="M16.8,36c-4.7-1.4-8.2-2.9-9.8-3.9"/>
	<path class="st0" d="M56.5,38.8c3.7-0.6,7.3-1.6,10.9-2.9"/>
	<path class="st0" d="M31.2,39c-5.4-0.7-10.4-1.8-14.4-3"/>
	<path class="st0" d="M31.2,39c7.8,1,16.6,1.3,25.3-0.2"/>
	<path class="st0" d="M47.6,45.3C47.6,45.4,47.6,45.4,47.6,45.3"/>
	<path class="st0" d="M47.7,45.4c1.2,1,2.2,1.5,3.6,1.8"/>
	<path class="st0" d="M57.7,47.8c0,0-0.1,0-0.1,0"/>
	<path class="st0" d="M57.6,47.8c-3-0.1-4.9-0.2-6.4-0.5"/>
	<path class="st0" d="M58.4,49.5c0.7-0.1,1.5-0.3,2.3-0.5"/>
	<path class="st0" d="M38,47.6c0.1,0,0.1,0,0.2,0"/>
	<path class="st0" d="M38.2,47.6c2,0.6,3.7,1.1,5.1,1.5"/>
	<path class="st0" d="M58.4,49.5c-7.2,1.4-10.1,1-15.1-0.4"/>
	<path class="st0" d="M48.5,52.3c-5.6-0.2-11.4-1.4-19.2-3"/>
	<path class="st0" d="M64.8,50.4c-6.2,1.6-11.2,2.1-16.3,1.9"/>
	<path class="st0" d="M29.3,49.3c-0.1,0-0.2,0-0.3-0.1"/>
	<path class="st0" d="M39.5,54.5c5.6,0.7,11.6,0.8,18.4-0.1"/>
	<path class="st0" d="M39.5,54.5c-6-0.7-11.6-2.2-17.4-3.9"/>
	<path class="st0" d="M71,51.9c-4.7,1.2-9,2-13.1,2.5"/>
	<path class="st0" d="M40.6,57.3c-4.3-0.2-8.6-0.7-13.1-1.8"/>
	<path class="st0" d="M54.5,56.6c-4.8,0.6-9.3,0.9-13.9,0.7"/>
	<path class="st0" d="M27.4,55.5c-3.9-0.9-7.9-2.2-12.3-4"/>
	<path class="st0" d="M77.1,52.5c-8.5,1.7-15.8,3.2-22.6,4.1"/>
	<path class="st0" d="M77.1,52.5c0.1,0,0.2,0,0.3-0.1"/>
	<path class="st0" d="M8.2,52.3c0,0,0.1,0,0.1,0.1"/>
	<path class="st0" d="M76.5,54.8c-4.2,1.6-8.5,2.9-12.7,3.8"/>
	<path class="st0" d="M63.8,58.6C43.6,63.1,24,60.4,8.3,52.3"/>
	<path class="st0" d="M76.5,54.8c1.4-0.5,2.9-1.1,4.3-1.7"/>
	<path class="st0" d="M39.2,69.9c0,0-0.1,0-0.1,0"/>
	<path class="st0" d="M42.6,71.2c1.2,0.3,2.6,0.3,6.1,0.4"/>
	<path class="st0" d="M42.6,71.2c-1-0.2-1.8-0.6-3.4-1.2"/>
	<path class="st0" d="M47.2,74c-5,0-7.7-0.9-10.4-2"/>
	<path class="st0" d="M55.7,73.4c0.2,0,0.5-0.1,0.8-0.1"/>
	<path class="st0" d="M56.5,73.3C56.5,73.3,56.5,73.3,56.5,73.3"/>
	<path class="st0" d="M34.1,70.8c0.1,0,0.1,0,0.2,0.1"/>
	<path class="st0" d="M34.2,70.9c0.9,0.4,1.7,0.7,2.5,1"/>
	<path class="st0" d="M47.2,74c2.3,0,5.1-0.2,8.6-0.6"/>
	<path class="st0" d="M62.1,73.8c0,0,0.1,0,0.1,0"/>
	<path class="st0" d="M62.1,73.8c-1,0.1-2,0.3-3,0.4"/>
	<path class="st0" d="M27.6,72c0,0-0.1,0-0.1,0"/>
	<path class="st0" d="M39.6,75.3c-4.2-0.4-7.5-1.5-11.9-3.3"/>
	<path class="st0" d="M39.6,75.3c2.7,0.3,5.8,0.3,9.8,0"/>
	<path class="st0" d="M49.4,75.3c2.7-0.2,5.9-0.6,9.7-1"/>
	<path class="st0" d="M65.8,75c-7.5,2.4-13.9,3.5-19.6,3.6"/>
	<path class="st0" d="M46.2,78.7c-2.4,0.1-4.7,0-6.8-0.3"/>
	<path class="st0" d="M65.8,75c0.8-0.3,1.5-0.5,2.3-0.8"/>
	<path class="st0" d="M39.4,78.4c-5.8-0.6-10.8-2.1-15.4-3.8"/>
	<path class="st0" d="M19.8,73.1c1.4,0.5,2.7,1,4.1,1.5"/>
	<path class="st0" d="M29.1,79.3c-3.1-0.7-6.1-1.6-8.8-2.6"/>
	<path class="st0" d="M68.2,76.2c-3.3,1.4-6.6,2.4-9.7,3.2"/>
	<path class="st0" d="M58.5,79.3c-3.5,0.9-6.9,1.4-10.2,1.6"/>
	<path class="st0" d="M29.1,79.3c5.8,1.3,12.2,2.1,19.3,1.6"/>
	<path class="st0" d="M20.3,76.8c-2.9-1-5.5-2-7.9-2.9"/>
	<path class="st0" d="M68.2,76.2c1.5-0.6,3-1.3,4.5-2"/>
	<path class="st0" d="M29.3,82.2c2.7,0.4,5.3,0.7,7.9,0.8"/>
	<path class="st0" d="M73.5,76.8c2.3-0.9,4.3-1.7,6-2.5"/>
	<path class="st0" d="M43.5,83.1c11.9-0.4,22.4-3.3,30-6.2"/>
	<path class="st0" d="M37.3,83c1,0,2.1,0.1,3.1,0.1"/>
	<path class="st0" d="M43.5,83.1c-1,0-2,0-3.1,0"/>
	<path class="st0" d="M15.4,78.6c2.3,0.9,4.7,1.6,7,2.2"/>
	<path class="st0" d="M22.4,80.8c2.3,0.6,4.6,1.1,6.9,1.4"/>
	<path class="st0" d="M15.4,78.6C12.2,77.4,9,76,5.8,74.2"/>
	<path class="st0" d="M5,57.1c-2,0.4-3.6,0.5-5,0.4"/>
	<path class="st0" d="M5,57.1c0.5-0.1,1-0.2,1.5-0.3"/>
	<path class="st0" d="M12,58.6c-3.7,0.5-6.8,1.1-9.6,1.6"/>
	<path class="st0" d="M2.3,60.2c-0.8,0.1-1.6,0.3-2.3,0.4"/>
	<path class="st0" d="M17.7,60C17.7,60,17.8,60,17.7,60"/>
	<path class="st0" d="M15.1,60.9c-3.9,1.2-9.5,2.2-15.1,2.6"/>
	<path class="st0" d="M15.1,60.9c1-0.3,1.9-0.6,2.6-0.9"/>
	<path class="st0" d="M6.8,64.9c-2.2,0.3-4.5,0.6-6.8,0.8"/>
	<path class="st0" d="M11,64.2c3.5-0.6,6.8-1.3,9.6-2.1"/>
	<path class="st0" d="M6.8,64.9c1.4-0.2,2.9-0.4,4.3-0.7"/>
	<path class="st0" d="M20.6,62.1c1.1-0.3,2.1-0.6,3-0.9"/>
	<path class="st0" d="M20.4,64.7c2.9-0.8,5.8-1.6,8.8-2.5"/>
	<path class="st0" d="M29.2,62.2C29.2,62.2,29.2,62.2,29.2,62.2"/>
	<path class="st0" d="M20.4,64.7c-2.6,0.7-5.2,1.4-7.8,1.9"/>
	<path class="st0" d="M12.7,66.6c-4.4,1-8.6,1.7-12.7,2.2"/>
	<path class="st0" d="M21.1,67.2c6.4-1.3,12-2.7,16.3-4"/>
	<path class="st0" d="M21.1,67.2c-2.8,0.6-5.8,1.1-8.8,1.5"/>
	<path class="st0" d="M12.3,68.8c-3.1,0.5-6.2,0.9-9.3,1.1"/>
	<path class="st0" d="M3,69.9c-1,0.1-2,0.2-3,0.2"/>
	<path class="st0" d="M49.7,64.2c-1.1-0.1-2.5-0.4-4.6-0.8"/>
	<path class="st0" d="M49.7,64.2c3.1,0.4,3.9-0.1,11-0.2"/>
	<path class="st0" d="M51.5,66.9c-12.9,0.8-11.9,0.7-25.6-0.7"/>
	<path class="st0" d="M20.8,69.7c-1.8-0.3-4-0.7-6.6-1.2"/>
	<path class="st0" d="M32.5,71.2C32.5,71.2,32.6,71.2,32.5,71.2"/>
	<path class="st0" d="M20.8,69.7c5.2,0.9,7.9,1.4,11.7,1.5"/>
	<path class="st0" d="M23,72.5c-2.8,0-5.1,0-7.2-0.2"/>
	<path class="st0" d="M3,69.9C3,69.9,3,69.9,3,69.9"/>
	<path class="st0" d="M15.8,72.3C11.4,72.1,8,71.4,3,69.9"/>
	<path class="st0" d="M4.6,74C3,73.8,1.4,73.5,0,73.4"/>
	<path class="st0" d="M81.7,56.9c1,0.3,2.1,0.5,3.4,0.6"/>
	<path class="st0" d="M79.4,56.1C79.4,56.1,79.4,56.1,79.4,56.1"/>
	<path class="st0" d="M81.7,56.9c-0.8-0.2-1.5-0.5-2.3-0.8"/>
	<path class="st0" d="M75.2,61.2c2.9,0.3,6,0,9.8-0.6"/>
	<path class="st0" d="M75.2,61.2c-1.8-0.2-3.4-0.7-5.2-1.4"/>
	<path class="st0" d="M70.1,62.8c-1.3-0.3-2.4-0.7-3.4-1.2"/>
	<path class="st0" d="M79.5,63.7c1.8,0,3.7-0.1,5.5-0.2"/>
	<path class="st0" d="M79.5,63.7c-3.4,0-6.7-0.3-9.4-0.9"/>
	<path class="st0" d="M62.4,63.4C62.3,63.4,62.3,63.4,62.4,63.4"/>
	<path class="st0" d="M73.7,65.8c-3.2-0.2-6.3-0.7-8.8-1.5"/>
	<path class="st0" d="M73.7,65.8c3.6,0.2,7.4,0.1,11.3-0.2"/>
	<path class="st0" d="M62.4,63.4c0.8,0.4,1.6,0.7,2.5,1"/>
	<path class="st0" d="M75.6,69.1c3.1,0.1,6.2,0,9.4-0.3"/>
	<path class="st0" d="M73.7,69c-5.4-0.4-10.5-1.7-15.6-4"/>
	<path class="st0" d="M58,65C58,65,58,65,58,65"/>
	<path class="st0" d="M75.6,69.1c-0.6,0-1.3-0.1-1.9-0.1"/>
	<path class="st0" d="M53.1,66.5C53.1,66.5,53.1,66.5,53.1,66.5"/>
	<path class="st0" d="M60.5,69c7.2,1.6,15.8,1.8,24.5,1.2"/>
	<path class="st0" d="M53.1,66.5c2.2,1.1,4.7,1.9,7.4,2.5"/>
	<path class="st0" d="M77.8,72.5c2.1,0.3,4.4,0.5,7.2,0.9"/>
	<path class="st0" d="M77.8,72.5c-3-0.4-5.5-1-8.4-2.2"/>
	<line class="st0" x1="31.4" y1="83.8" x2="31.4" y2="83.8"/>
	<path class="st0" d="M31.4,83.8l-0.2,0.4c-0.4,0.3-0.7,0.6-1.1,0.8"/>
	<line class="st0" x1="27.7" y1="83.3" x2="27.8" y2="83.2"/>
	<path class="st0" d="M23.9,85c1.2-0.5,2.3-0.9,3.2-1.4l0.6-0.4"/>
	<path class="st0" d="M23.3,82.5l-0.8,0.4c-2.2,0.8-4.6,1.5-7.1,2.2"/>
	<line class="st0" x1="23.3" y1="82.5" x2="23.4" y2="82.4"/>
	<line class="st0" x1="63.1" y1="82.1" x2="63.2" y2="82.2"/>
	<path class="st0" d="M66.1,85c-1.1-0.7-2-1.5-2.7-2.5l-0.2-0.4"/>
	<path class="st0" d="M85,2.7c-7.6,0.6-14.7,0-19-2.7"/>
	<path class="st0" d="M8,1.6c2.6-0.5,5.1-1,7.5-1.6"/>
	<path class="st0" d="M8,1.6c-2.7,0.5-5.4,0.8-8,1"/>
	<line class="st0" x1="51" y1="84.1" x2="51" y2="84.1"/>
	<path class="st0" d="M52.1,85c-0.2-0.2-0.5-0.3-0.7-0.5L51,84.1"/>
	<line class="st0" x1="44.4" y1="84.7" x2="44.4" y2="84.6"/>
	<line class="st0" x1="44.4" y1="84.7" x2="44.7" y2="85"/>
	<path class="st0" d="M40.4,85C40.4,85,40.4,85,40.4,85L40,84.6"/>
	<line class="st0" x1="40" y1="84.6" x2="40" y2="84.6"/>
	<path class="st0" d="M32.5,84l0.5,0.7c0.2,0.1,0.3,0.3,0.5,0.4"/>
	<line class="st0" x1="32.5" y1="84" x2="32.5" y2="83.9"/>
	<path class="st0" d="M6.6,77.8C6.6,77.8,6.6,77.8,6.6,77.8"/>
	<path class="st0" d="M6.6,77.8c-2.5-0.1-5.1-0.6-6.6-1"/>
	<path class="st0" d="M82.3,76c0.9,0.3,2.1,0.6,2.7,0.8c0,0,0,0,0,0"/>
	<path class="st0" d="M82.3,76c0,0-0.1,0-0.1,0"/>
	<path class="st0" d="M6.2,37.4c3.6,0.9,7.6,1.5,11.7,1.6"/>
	<path class="st0" d="M6.2,37.4C4,36.8,1.8,36.2,0,35.5"/>
	<path class="st0" d="M9.9,39.6c-3.4-0.5-6.8-1.1-9.9-1.8"/>
	<path class="st0" d="M20.1,40.6c2,0.1,3.6,0,4.6-0.2"/>
	<line class="st0" x1="24.7" y1="40.4" x2="24.7" y2="40.4"/>
	<path class="st0" d="M20.1,40.6c-2.9-0.1-6.5-0.4-10.2-1"/>
	<path class="st0" d="M9.9,42.4c1.8,0.1,3.6,0.2,5.3,0.2"/>
	<path class="st0" d="M5.7,42.1C3.7,42,1.8,41.8,0,41.6"/>
	<path class="st0" d="M33.7,41.7c0,0-0.1,0-0.1,0"/>
	<path class="st0" d="M33.6,41.7C30,42.6,23,42.9,15.2,42.7"/>
	<path class="st0" d="M9.9,42.4c-1.4-0.1-2.8-0.2-4.2-0.3"/>
	<path class="st0" d="M11.8,45.3c12.5-0.1,24.5-1.2,29.1-2.9"/>
	<path class="st0" d="M11.8,45.3c-3.9,0-7.9,0-11.8-0.2"/>
	<path class="st0" d="M41.3,42.2c-0.1,0-0.1,0-0.2,0.1"/>
	<path class="st0" d="M40.9,42.4c0.1,0,0.2-0.1,0.3-0.1"/>
	<path class="st0" d="M52.6,41.6c-1.1,1-7.1,2.9-15.8,4.6"/>
	<path class="st0" d="M52.6,41.6C52.6,41.5,52.6,41.5,52.6,41.6"/>
	<path class="st0" d="M26.5,47.8c-3.2,0.4-6.5,0.8-10,1"/>
	<path class="st0" d="M26.5,47.8c3.7-0.5,7.1-1,10.2-1.6"/>
	<path class="st0" d="M6.2,49.2c-2,0-4.1,0-6.2-0.1"/>
	<path class="st0" d="M6.2,49.2c3.5,0,7-0.2,10.3-0.4"/>
	<path class="st0" d="M81.4,34.1c0.7,0.3,1.6,0.7,2.5,1"/>
	<path class="st0" d="M81.4,34.1C81.4,34.1,81.4,34.1,81.4,34.1"/>
	<path class="st0" d="M83.9,35.1c0.4,0.1,0.8,0.3,1.2,0.4"/>
	<path class="st0" d="M85,37.9c-2.6-0.6-5-1.2-6.8-1.9"/>
	<path class="st0" d="M78.3,36c-0.3-0.1-0.5-0.2-0.7-0.3"/>
	<path class="st0" d="M71.6,39.2c3.5,1,8.2,1.8,13.5,2.4"/>
	<path class="st0" d="M71.6,39.2c-0.8-0.2-1.6-0.5-2.3-0.8"/>
	<path class="st0" d="M69.3,38.4c0,0-0.1,0-0.1,0"/>
	<path class="st0" d="M60.2,40.6c0.9,1,2.9,1.8,5.8,2.5"/>
	<path class="st0" d="M66,43.1c4.7,1.1,11.6,1.8,19.1,2.1"/>
	<path class="st0" d="M79.3,48.8c1.9,0.2,3.8,0.3,5.7,0.3"/>
	<path class="st0" d="M68.8,47.4c3.5,0.6,7,1.1,10.5,1.4"/>
	<path class="st0" d="M54.5,43.4c4.5,1.8,9.4,3.1,14.4,4"/>
	<line class="st0" x1="3.6" y1="84.9" x2="3.6" y2="84.9"/>
	<line class="st0" x1="3.6" y1="84.9" x2="3.6" y2="85"/>
	<line class="st0" x1="12.6" y1="83.5" x2="12.9" y2="85"/>
	<line class="st0" x1="18.5" y1="84.2" x2="18.8" y2="85"/>
	<line class="st0" x1="77.5" y1="84" x2="77.4" y2="85"/>
	<line class="st0" x1="77.5" y1="84" x2="77.5" y2="84"/>
	<line class="st0" x1="64.5" y1="85" x2="64.9" y2="84.1"/>
	<line class="st0" x1="79.6" y1="84.5" x2="80.4" y2="80.9"/>
	<line class="st0" x1="80.4" y1="80.9" x2="80.4" y2="80.9"/>
	<line class="st0" x1="7.1" y1="81.3" x2="7.8" y2="84.4"/>
	<line class="st0" x1="16.3" y1="80.9" x2="16.3" y2="80.8"/>
	<line class="st0" x1="16.9" y1="82.4" x2="16.3" y2="80.9"/>
	<line class="st0" x1="3.1" y1="77.5" x2="3.5" y2="81.6"/>
	<line class="st0" x1="1.6" y1="75.4" x2="1.6" y2="75.3"/>
	<line class="st0" x1="1.6" y1="75.4" x2="1.3" y2="77.1"/>
	<line class="st0" x1="20.8" y1="69.7" x2="20.7" y2="72.5"/>
	<line class="st0" x1="20.8" y1="69.7" x2="20.8" y2="69.7"/>
	<line class="st0" x1="12.3" y1="68.8" x2="11.8" y2="71.9"/>
	<line class="st0" x1="12.3" y1="68.8" x2="12.3" y2="68.7"/>
	<line class="st0" x1="15.8" y1="72.3" x2="15.8" y2="72.2"/>
	<line class="st0" x1="15.8" y1="72.3" x2="15.8" y2="73.5"/>
	<line class="st0" x1="7" y1="74" x2="7.3" y2="71.1"/>
	<line class="st0" x1="9" y1="75.9" x2="8" y2="78.3"/>
	<line class="st0" x1="8" y1="78.3" x2="8" y2="78.4"/>
	<line class="st0" x1="15.4" y1="78.6" x2="15.1" y2="80.5"/>
	<line class="st0" x1="15.4" y1="78.6" x2="15.4" y2="78.6"/>
	<line class="st0" x1="12.5" y1="77.4" x2="13.6" y2="74.4"/>
	<line class="st0" x1="22.4" y1="80.8" x2="22.1" y2="82.2"/>
	<line class="st0" x1="22.4" y1="80.8" x2="22.4" y2="80.8"/>
	<line class="st0" x1="20.3" y1="76.8" x2="20.3" y2="76.7"/>
	<line class="st0" x1="20.3" y1="76.8" x2="19.4" y2="79.9"/>
	<line class="st0" x1="29.3" y1="82.2" x2="29.3" y2="83.4"/>
	<line class="st0" x1="29.3" y1="82.2" x2="29.3" y2="82.2"/>
	<line class="st0" x1="37.3" y1="83" x2="37.2" y2="84.4"/>
	<line class="st0" x1="37.3" y1="83" x2="37.3" y2="83"/>
	<line class="st0" x1="43.5" y1="83.1" x2="43.5" y2="83.1"/>
	<line class="st0" x1="43.5" y1="83.1" x2="43.5" y2="84.6"/>
	<line class="st0" x1="53.9" y1="82.1" x2="54.1" y2="83.7"/>
	<line class="st0" x1="64.3" y1="79.9" x2="64.7" y2="81.8"/>
	<line class="st0" x1="73.5" y1="76.8" x2="73.5" y2="76.8"/>
	<line class="st0" x1="74.4" y1="79.2" x2="74.4" y2="79.2"/>
	<line class="st0" x1="73.5" y1="76.8" x2="74.4" y2="79.2"/>
	<line class="st0" x1="82.1" y1="74.1" x2="82.9" y2="75.6"/>
	<line class="st0" x1="68.2" y1="76.1" x2="68.2" y2="76.2"/>
	<line class="st0" x1="68.2" y1="76.2" x2="69.1" y2="78.4"/>
	<line class="st0" x1="58.5" y1="79.3" x2="58.5" y2="79.3"/>
	<line class="st0" x1="58.5" y1="79.3" x2="59" y2="81.1"/>
	<line class="st0" x1="48.3" y1="80.9" x2="48.3" y2="80.9"/>
	<line class="st0" x1="48.3" y1="80.9" x2="48.5" y2="82.7"/>
	<line class="st0" x1="40.3" y1="81" x2="40.4" y2="83.1"/>
	<line class="st0" x1="40.4" y1="83.1" x2="40.4" y2="83.1"/>
	<line class="st0" x1="29.1" y1="79.3" x2="29.1" y2="79.3"/>
	<line class="st0" x1="29.1" y1="79.3" x2="28.6" y2="82.1"/>
	<line class="st0" x1="23" y1="77.6" x2="24" y2="74.6"/>
	<line class="st0" x1="24" y1="74.6" x2="24" y2="74.6"/>
	<line class="st0" x1="34.9" y1="77.7" x2="34.5" y2="80.3"/>
	<line class="st0" x1="46.2" y1="78.7" x2="46.4" y2="81"/>
	<line class="st0" x1="46.2" y1="78.6" x2="46.2" y2="78.7"/>
	<line class="st0" x1="57.2" y1="79.6" x2="56.7" y2="77.4"/>
	<line class="st0" x1="65.8" y1="75" x2="66.5" y2="76.7"/>
	<line class="st0" x1="65.8" y1="75" x2="65.8" y2="75"/>
	<line class="st0" x1="59.1" y1="74.2" x2="59.1" y2="74.2"/>
	<line class="st0" x1="59.1" y1="74.2" x2="59.8" y2="76.7"/>
	<line class="st0" x1="49.4" y1="75.3" x2="49.7" y2="78.4"/>
	<line class="st0" x1="49.4" y1="75.2" x2="49.4" y2="75.3"/>
	<line class="st0" x1="39.6" y1="75.3" x2="39.4" y2="78.4"/>
	<line class="st0" x1="39.4" y1="78.4" x2="39.4" y2="78.4"/>
	<line class="st0" x1="39.6" y1="75.3" x2="39.6" y2="75.3"/>
	<line class="st0" x1="30.3" y1="73.1" x2="29.1" y2="76.3"/>
	<line class="st0" x1="36.2" y1="74.7" x2="36.8" y2="71.9"/>
	<line class="st0" x1="36.8" y1="71.9" x2="36.8" y2="71.9"/>
	<line class="st0" x1="47.3" y1="75.4" x2="47.2" y2="74"/>
	<line class="st0" x1="47.2" y1="74" x2="47.1" y2="73.9"/>
	<line class="st0" x1="55.7" y1="73.3" x2="55.7" y2="73.4"/>
	<line class="st0" x1="55.7" y1="73.4" x2="56" y2="74.6"/>
	<line class="st0" x1="42.6" y1="71.2" x2="42.1" y2="73.6"/>
	<line class="st0" x1="42.6" y1="71.2" x2="42.6" y2="71.2"/>
	<line class="st0" x1="51.8" y1="73.7" x2="51.8" y2="72.4"/>
	<line class="st0" x1="44.8" y1="69.7" x2="44.5" y2="71.4"/>
	<line class="st0" x1="44.8" y1="69.7" x2="44.8" y2="69.7"/>
	<line class="st0" x1="25.6" y1="70.5" x2="26.6" y2="66.4"/>
	<line class="st0" x1="37.8" y1="63.2" x2="37.3" y2="67.2"/>
	<line class="st0" x1="49.7" y1="64.2" x2="49.8" y2="67"/>
	<line class="st0" x1="49.7" y1="64.2" x2="49.7" y2="64.2"/>
	<line class="st0" x1="20.4" y1="64.7" x2="21.1" y2="67.2"/>
	<line class="st0" x1="20.4" y1="64.7" x2="20.4" y2="64.7"/>
	<line class="st0" x1="21.1" y1="67.2" x2="21.1" y2="67.2"/>
	<line class="st0" x1="28.9" y1="62.3" x2="30" y2="65.2"/>
	<line class="st0" x1="12.7" y1="66.6" x2="12.6" y2="66.6"/>
	<line class="st0" x1="12.7" y1="66.6" x2="13.1" y2="68.6"/>
	<line class="st0" x1="5.3" y1="68.1" x2="5.5" y2="69.6"/>
	<line class="st0" x1="55.7" y1="67.7" x2="53.7" y2="72.7"/>
	<line class="st0" x1="64.7" y1="69.8" x2="64.3" y2="73.9"/>
	<line class="st0" x1="73.6" y1="74.1" x2="73.4" y2="71.7"/>
	<line class="st0" x1="77.8" y1="72.5" x2="78.1" y2="70.5"/>
	<line class="st0" x1="77.8" y1="72.5" x2="77.8" y2="72.5"/>
	<line class="st0" x1="60.5" y1="69" x2="61.1" y2="66.3"/>
	<line class="st0" x1="60.5" y1="69" x2="60.5" y2="69"/>
	<line class="st0" x1="68.2" y1="68.3" x2="68.2" y2="70.1"/>
	<line class="st0" x1="75.6" y1="69.1" x2="75.6" y2="69"/>
	<line class="st0" x1="75.8" y1="70.4" x2="75.6" y2="69.1"/>
	<line class="st0" x1="82.8" y1="70.2" x2="82.7" y2="69.1"/>
	<line class="st0" x1="73.7" y1="65.8" x2="73.7" y2="69"/>
	<line class="st0" x1="73.7" y1="65.8" x2="73.7" y2="65.8"/>
	<line class="st0" x1="73.7" y1="69" x2="73.7" y2="69"/>
	<line class="st0" x1="64.9" y1="64.4" x2="64.9" y2="64.4"/>
	<line class="st0" x1="64.1" y1="67.2" x2="64.9" y2="64.4"/>
	<line class="st0" x1="69.7" y1="65.3" x2="70.1" y2="62.8"/>
	<line class="st0" x1="70.1" y1="62.8" x2="70.1" y2="62.7"/>
	<line class="st0" x1="79.5" y1="63.7" x2="79.5" y2="65.9"/>
	<line class="st0" x1="79.5" y1="63.7" x2="79.5" y2="63.7"/>
	<line class="st0" x1="75.2" y1="61.2" x2="75.2" y2="61.2"/>
	<line class="st0" x1="75.1" y1="63.5" x2="75.2" y2="61.2"/>
	<line class="st0" x1="81.7" y1="56.9" x2="81.7" y2="56.9"/>
	<line class="st0" x1="82.2" y1="60.9" x2="81.7" y2="56.9"/>
	<line class="st0" x1="74" y1="58.1" x2="74" y2="58.1"/>
	<line class="st0" x1="74" y1="58.1" x2="73.9" y2="60.9"/>
	<line class="st0" x1="83.6" y1="57.3" x2="84" y2="53.8"/>
	<line class="st0" x1="2.6" y1="68.4" x2="2.2" y2="65.5"/>
	<line class="st0" x1="11" y1="64.2" x2="11" y2="64.2"/>
	<line class="st0" x1="11.6" y1="66.9" x2="11" y2="64.2"/>
	<line class="st0" x1="20.6" y1="62.1" x2="20.6" y2="62.1"/>
	<line class="st0" x1="21.3" y1="64.4" x2="20.6" y2="62.1"/>
	<line class="st0" x1="15.1" y1="60.9" x2="15.6" y2="63.2"/>
	<line class="st0" x1="15.1" y1="60.9" x2="15.1" y2="60.9"/>
	<line class="st0" x1="6.5" y1="62.8" x2="6.8" y2="64.9"/>
	<line class="st0" x1="6.8" y1="64.9" x2="6.8" y2="64.9"/>
	<line class="st0" x1="2.3" y1="60.2" x2="2.6" y2="63.2"/>
	<line class="st0" x1="2.3" y1="60.2" x2="2.3" y2="60.2"/>
	<line class="st0" x1="10.5" y1="58.9" x2="11.1" y2="61.9"/>
	<line class="st0" x1="5" y1="57.1" x2="5.7" y2="59.6"/>
	<line class="st0" x1="5" y1="57.1" x2="5" y2="57.1"/>
	<line class="st0" x1="10.9" y1="53.6" x2="9" y2="57.4"/>
	<line class="st0" x1="21.8" y1="60.8" x2="22.5" y2="57.9"/>
	<line class="st0" x1="35.1" y1="62.9" x2="35.2" y2="60.3"/>
	<line class="st0" x1="48.5" y1="63.1" x2="48.2" y2="60.7"/>
	<line class="st0" x1="48.5" y1="63.1" x2="48.5" y2="63.1"/>
	<line class="st0" x1="63.8" y1="58.6" x2="64.1" y2="60.7"/>
	<line class="st0" x1="64.1" y1="60.7" x2="64.1" y2="60.7"/>
	<line class="st0" x1="63.8" y1="58.6" x2="63.8" y2="58.5"/>
	<line class="st0" x1="76.5" y1="54.7" x2="76.5" y2="54.8"/>
	<line class="st0" x1="76.5" y1="54.8" x2="77.5" y2="56.9"/>
	<line class="st0" x1="69.6" y1="57" x2="68.7" y2="54.2"/>
	<line class="st0" x1="54.5" y1="56.6" x2="55" y2="60.1"/>
	<line class="st0" x1="54.5" y1="56.6" x2="54.5" y2="56.6"/>
	<line class="st0" x1="40.6" y1="57.2" x2="40.6" y2="57.3"/>
	<line class="st0" x1="40.6" y1="57.3" x2="40.6" y2="60.6"/>
	<line class="st0" x1="27.4" y1="55.5" x2="26.7" y2="58.9"/>
	<line class="st0" x1="27.4" y1="55.5" x2="27.5" y2="55.4"/>
	<line class="st0" x1="23.5" y1="51" x2="22.3" y2="54.1"/>
	<line class="st0" x1="39.5" y1="54.5" x2="39.5" y2="54.5"/>
	<line class="st0" x1="39.5" y1="54.5" x2="39.4" y2="57.2"/>
	<line class="st0" x1="58" y1="54.4" x2="58.3" y2="56.1"/>
	<line class="st0" x1="58" y1="54.4" x2="58" y2="54.4"/>
	<line class="st0" x1="48.5" y1="52.3" x2="48.5" y2="55"/>
	<line class="st0" x1="48.5" y1="52.3" x2="48.5" y2="52.2"/>
	<line class="st0" x1="33.3" y1="50.2" x2="32.6" y2="53.3"/>
	<line class="st0" x1="65.3" y1="53.2" x2="64.4" y2="50.6"/>
	<line class="st0" x1="58.4" y1="49.5" x2="58.9" y2="51.6"/>
	<line class="st0" x1="58.4" y1="49.5" x2="58.4" y2="49.5"/>
	<line class="st0" x1="42.8" y1="51.7" x2="43.3" y2="49.2"/>
	<line class="st0" x1="43.3" y1="49.1" x2="43.3" y2="49.2"/>
	<line class="st0" x1="51.2" y1="50.4" x2="51.2" y2="47.2"/>
	<line class="st0" x1="51.2" y1="47.2" x2="51.2" y2="47.2"/>
	<line class="st0" x1="53.9" y1="45.9" x2="53.6" y2="47.5"/>
	<line class="st0" x1="2.2" y1="33.4" x2="1.7" y2="36"/>
	<line class="st0" x1="11.3" y1="37.1" x2="11.3" y2="37"/>
	<line class="st0" x1="11.3" y1="37.1" x2="11.2" y2="38.4"/>
	<line class="st0" x1="6.2" y1="37.4" x2="6.2" y2="37.4"/>
	<line class="st0" x1="6.2" y1="37.4" x2="6.1" y2="38.9"/>
	<line class="st0" x1="16.7" y1="38.9" x2="16.7" y2="40.4"/>
	<line class="st0" x1="9.9" y1="39.6" x2="9.9" y2="42.4"/>
	<line class="st0" x1="9.9" y1="42.4" x2="9.9" y2="42.4"/>
	<line class="st0" x1="9.9" y1="39.6" x2="9.9" y2="39.6"/>
	<line class="st0" x1="20.1" y1="40.6" x2="20.1" y2="40.4"/>
	<line class="st0" x1="20.1" y1="40.6" x2="20.1" y2="42.6"/>
	<line class="st0" x1="28.1" y1="42.4" x2="27.8" y2="40.9"/>
	<line class="st0" x1="2.7" y1="38.5" x2="2.7" y2="41.8"/>
	<line class="st0" x1="5.7" y1="42.1" x2="5.8" y2="45.2"/>
	<line class="st0" x1="5.7" y1="42" x2="5.7" y2="42.1"/>
	<line class="st0" x1="15.2" y1="42.6" x2="15.2" y2="42.7"/>
	<line class="st0" x1="15.2" y1="45.2" x2="15.2" y2="42.7"/>
	<line class="st0" x1="25.7" y1="44.7" x2="25.4" y2="42.7"/>
	<line class="st0" x1="35.7" y1="43.5" x2="35.3" y2="41.9"/>
	<line class="st0" x1="2.2" y1="49" x2="2.2" y2="45.3"/>
	<line class="st0" x1="11.8" y1="45.3" x2="12.1" y2="49"/>
	<line class="st0" x1="11.8" y1="45.3" x2="11.7" y2="45.3"/>
	<line class="st0" x1="21.2" y1="48.4" x2="20.8" y2="45.1"/>
	<line class="st0" x1="31.5" y1="44.3" x2="31.9" y2="46.9"/>
	<line class="st0" x1="40.9" y1="42.4" x2="42" y2="44.9"/>
	<line class="st0" x1="40.9" y1="42.4" x2="40.8" y2="42.4"/>
	<line class="st0" x1="6.2" y1="49.2" x2="6.3" y2="52.4"/>
	<line class="st0" x1="6.2" y1="49.1" x2="6.2" y2="49.2"/>
	<line class="st0" x1="16.5" y1="48.8" x2="16.9" y2="51.1"/>
	<line class="st0" x1="16.5" y1="48.7" x2="16.5" y2="48.8"/>
	<line class="st0" x1="26.5" y1="47.8" x2="27" y2="49.6"/>
	<line class="st0" x1="26.5" y1="47.7" x2="26.5" y2="47.8"/>
	<line class="st0" x1="36.7" y1="46.1" x2="36.7" y2="46.1"/>
	<line class="st0" x1="37.1" y1="47.8" x2="36.7" y2="46.1"/>
	<line class="st0" x1="45.8" y1="44.1" x2="46.5" y2="45.7"/>
	<line class="st0" x1="56" y1="42.6" x2="55.1" y2="41.3"/>
	<line class="st0" x1="59.7" y1="45.2" x2="58.8" y2="48.2"/>
	<line class="st0" x1="68.8" y1="47.4" x2="68.3" y2="51.1"/>
	<line class="st0" x1="68.8" y1="47.4" x2="68.8" y2="47.4"/>
	<line class="st0" x1="79.1" y1="52.6" x2="79.3" y2="48.8"/>
	<line class="st0" x1="79.3" y1="48.7" x2="79.3" y2="48.8"/>
	<line class="st0" x1="76.3" y1="44.7" x2="76.1" y2="48.4"/>
	<line class="st0" x1="66" y1="43.1" x2="66" y2="43.1"/>
	<line class="st0" x1="66" y1="43.1" x2="65.3" y2="46.6"/>
	<line class="st0" x1="71.6" y1="39.2" x2="71.6" y2="39.1"/>
	<line class="st0" x1="71.6" y1="39.2" x2="70.8" y2="43.9"/>
	<line class="st0" x1="81.3" y1="41.1" x2="81" y2="44.9"/>
	<line class="st0" x1="77.3" y1="40.4" x2="78.3" y2="36"/>
	<line class="st0" x1="78.3" y1="36" x2="78.3" y2="36"/>
	<line class="st0" x1="83.3" y1="37.4" x2="83.9" y2="35.1"/>
	<line class="st0" x1="83.9" y1="35.1" x2="83.9" y2="35.1"/>
	<line class="st0" x1="78.2" y1="31.6" x2="78.2" y2="31.6"/>
	<line class="st0" x1="79.8" y1="34.8" x2="78.2" y2="31.6"/>
	<line class="st0" x1="68.1" y1="38.6" x2="67.3" y2="35.9"/>
	<line class="st0" x1="67.3" y1="35.9" x2="67.3" y2="35.9"/>
	<line class="st0" x1="56.5" y1="38.8" x2="56.5" y2="38.8"/>
	<line class="st0" x1="56.5" y1="38.8" x2="56.8" y2="40.9"/>
	<line class="st0" x1="43.8" y1="39.9" x2="44" y2="42.2"/>
	<line class="st0" x1="31.2" y1="39" x2="31" y2="41.3"/>
	<line class="st0" x1="31.2" y1="39" x2="31.2" y2="39"/>
	<line class="st0" x1="19.7" y1="36.9" x2="19.2" y2="39.1"/>
	<line class="st0" x1="9.2" y1="33.3" x2="8.1" y2="36"/>
	<line class="st0" x1="16.8" y1="36" x2="16.8" y2="36.1"/>
	<line class="st0" x1="16.8" y1="36" x2="17.7" y2="33.4"/>
	<line class="st0" x1="34.1" y1="36.9" x2="34" y2="39.3"/>
	<line class="st0" x1="47" y1="39.7" x2="46.8" y2="37"/>
	<line class="st0" x1="46.8" y1="37" x2="46.8" y2="36.9"/>
	<line class="st0" x1="60.6" y1="37.9" x2="59.1" y2="33.8"/>
	<line class="st0" x1="59.1" y1="33.8" x2="59.1" y2="33.8"/>
	<line class="st0" x1="70.4" y1="31.2" x2="70.3" y2="31.2"/>
	<line class="st0" x1="71.7" y1="34" x2="70.4" y2="31.2"/>
	<line class="st0" x1="53.8" y1="35.6" x2="52.8" y2="31.6"/>
	<line class="st0" x1="43" y1="33.3" x2="43.3" y2="37.1"/>
	<line class="st0" x1="43" y1="33.2" x2="43" y2="33.3"/>
	<line class="st0" x1="30" y1="36.3" x2="30.4" y2="33.2"/>
	<line class="st0" x1="30" y1="36.3" x2="30" y2="36.3"/>
	<line class="st0" x1="27.2" y1="32.6" x2="28.4" y2="29"/>
	<line class="st0" x1="28.4" y1="29" x2="28.4" y2="29"/>
	<line class="st0" x1="39.6" y1="33.4" x2="39.7" y2="30.3"/>
	<line class="st0" x1="53.8" y1="31.2" x2="53.1" y2="29.4"/>
	<line class="st0" x1="40.6" y1="26.8" x2="41.3" y2="30.1"/>
	<line class="st0" x1="33.5" y1="29.9" x2="34.1" y2="27"/>
	<line class="st0" x1="37.3" y1="25" x2="37.3" y2="27.1"/>
	<line class="st0" x1="37.3" y1="25" x2="37.3" y2="25"/>
	<line class="st0" x1="4.3" y1="28.9" x2="4.3" y2="29"/>
	<line class="st0" x1="4.3" y1="29" x2="4.4" y2="31.9"/>
	<line class="st0" x1="19.4" y1="28.6" x2="20" y2="31.4"/>
	<line class="st0" x1="27.2" y1="23.9" x2="27.2" y2="23.9"/>
	<line class="st0" x1="27.2" y1="23.9" x2="28" y2="26.5"/>
	<line class="st0" x1="13.7" y1="26.3" x2="14" y2="28.9"/>
	<line class="st0" x1="13.7" y1="26.3" x2="13.7" y2="26.2"/>
	<line class="st0" x1="1.6" y1="26.4" x2="1.6" y2="26.4"/>
	<line class="st0" x1="1.6" y1="26.4" x2="1.6" y2="28.7"/>
	<line class="st0" x1="7.5" y1="23.3" x2="7.6" y2="26.4"/>
	<line class="st0" x1="7.5" y1="23.2" x2="7.5" y2="23.3"/>
	<line class="st0" x1="19.2" y1="21" x2="19.2" y2="20.9"/>
	<line class="st0" x1="19.2" y1="21" x2="20.3" y2="25.3"/>
	<line class="st0" x1="12" y1="18.3" x2="12" y2="18.2"/>
	<line class="st0" x1="12" y1="18.3" x2="13.1" y2="22.5"/>
	<line class="st0" x1="2.5" y1="23.2" x2="2.2" y2="19.9"/>
	<line class="st0" x1="6.5" y1="16.9" x2="7" y2="19.4"/>
	<line class="st0" x1="6.5" y1="16.9" x2="6.5" y2="16.9"/>
	<line class="st0" x1="2.3" y1="14.4" x2="2.3" y2="14.5"/>
	<line class="st0" x1="2.3" y1="14.5" x2="2.6" y2="17.2"/>
	<line class="st0" x1="1" y1="11.4" x2="1" y2="14.4"/>
	<line class="st0" x1="28.5" y1="3.8" x2="28.5" y2="3.8"/>
	<line class="st0" x1="28" y1="6" x2="28.5" y2="3.8"/>
	<line class="st0" x1="33.6" y1="10.2" x2="33.7" y2="7.2"/>
	<line class="st0" x1="22.3" y1="8.5" x2="23.6" y2="4.7"/>
	<line class="st0" x1="27.8" y1="9.7" x2="27.8" y2="9.7"/>
	<line class="st0" x1="27.8" y1="9.7" x2="27.3" y2="12.9"/>
	<line class="st0" x1="16.9" y1="9.7" x2="16.9" y2="9.7"/>
	<line class="st0" x1="16.9" y1="9.7" x2="15.6" y2="12.9"/>
	<line class="st0" x1="32.6" y1="16.3" x2="32.6" y2="13.6"/>
	<line class="st0" x1="23.1" y1="15.2" x2="22.7" y2="17.2"/>
	<line class="st0" x1="23.1" y1="15.2" x2="23.1" y2="15.1"/>
	<line class="st0" x1="10.9" y1="10.2" x2="10.9" y2="10.3"/>
	<line class="st0" x1="10.9" y1="10.3" x2="9.3" y2="13"/>
	<line class="st0" x1="16" y1="17.1" x2="16.3" y2="15.7"/>
	<line class="st0" x1="4" y1="13" x2="5.3" y2="10.8"/>
	<line class="st0" x1="5.3" y1="10.8" x2="5.3" y2="10.7"/>
	<line class="st0" x1="29.9" y1="18.3" x2="29.8" y2="20"/>
	<line class="st0" x1="29.9" y1="18.3" x2="29.9" y2="18.3"/>
	<line class="st0" x1="42.4" y1="13.1" x2="41.9" y2="10.1"/>
	<line class="st0" x1="41.9" y1="10.1" x2="41.9" y2="10.1"/>
	<line class="st0" x1="48.2" y1="12.1" x2="49" y2="15.8"/>
	<line class="st0" x1="40.6" y1="18.7" x2="40.5" y2="16.5"/>
	<line class="st0" x1="40.5" y1="16.5" x2="40.5" y2="16.5"/>
	<line class="st0" x1="48" y1="18.5" x2="48" y2="18.4"/>
	<line class="st0" x1="48" y1="18.5" x2="48.2" y2="20.7"/>
	<line class="st0" x1="58.4" y1="14" x2="59.1" y2="16.9"/>
	<line class="st0" x1="58.4" y1="14" x2="58.4" y2="13.9"/>
	<line class="st0" x1="66.8" y1="15.1" x2="66.8" y2="15.1"/>
	<line class="st0" x1="66.8" y1="15.1" x2="67.4" y2="17.6"/>
	<line class="st0" x1="81.3" y1="12.7" x2="79.9" y2="10.9"/>
	<line class="st0" x1="82.4" y1="14" x2="82" y2="16.5"/>
	<line class="st0" x1="77.4" y1="15.6" x2="76.5" y2="18.7"/>
	<line class="st0" x1="82.9" y1="23" x2="82.9" y2="23"/>
	<line class="st0" x1="82.9" y1="23" x2="83.1" y2="19.7"/>
	<line class="st0" x1="71" y1="17.2" x2="71.1" y2="17.1"/>
	<line class="st0" x1="71" y1="17.2" x2="69.5" y2="20.5"/>
	<line class="st0" x1="75.3" y1="25.2" x2="75.9" y2="22.1"/>
	<line class="st0" x1="75.9" y1="22" x2="75.9" y2="22.1"/>
	<line class="st0" x1="64.8" y1="18.8" x2="64.8" y2="18.7"/>
	<line class="st0" x1="62.7" y1="22.6" x2="64.8" y2="18.8"/>
	<line class="st0" x1="68" y1="26.3" x2="68" y2="26.3"/>
	<line class="st0" x1="68.5" y1="24.1" x2="68" y2="26.3"/>
	<line class="st0" x1="81.1" y1="25.9" x2="81.1" y2="25.9"/>
	<line class="st0" x1="81.1" y1="25.9" x2="80.9" y2="28.1"/>
	<line class="st0" x1="74.6" y1="27.4" x2="74.6" y2="27.4"/>
	<line class="st0" x1="74.6" y1="27.4" x2="74.2" y2="30.9"/>
	<line class="st0" x1="60" y1="24.6" x2="60" y2="24.6"/>
	<line class="st0" x1="60" y1="24.6" x2="59.2" y2="27.6"/>
	<line class="st0" x1="55.2" y1="23.4" x2="56.3" y2="20.2"/>
	<line class="st0" x1="56.3" y1="20.2" x2="56.3" y2="20.2"/>
	<line class="st0" x1="47.7" y1="27.3" x2="48.9" y2="24.3"/>
	<line class="st0" x1="61.7" y1="30.4" x2="62.2" y2="28.5"/>
	<line class="st0" x1="38.1" y1="22.2" x2="38.2" y2="22.1"/>
	<line class="st0" x1="36.8" y1="24.7" x2="38.1" y2="22.2"/>
	<line class="st0" x1="34.6" y1="4.9" x2="35.7" y2="2.1"/>
	<line class="st0" x1="43.7" y1="3.1" x2="43.7" y2="3.1"/>
	<line class="st0" x1="43.7" y1="3.1" x2="41.5" y2="6"/>
	<line class="st0" x1="52.4" y1="4.6" x2="52.4" y2="4.6"/>
	<line class="st0" x1="52.4" y1="4.6" x2="50.7" y2="7.9"/>
	<line class="st0" x1="65.9" y1="10.9" x2="66.1" y2="8.7"/>
	<line class="st0" x1="58.1" y1="6.7" x2="59" y2="3.3"/>
	<line class="st0" x1="59" y1="3.3" x2="59" y2="3.3"/>
	<line class="st0" x1="73.2" y1="9.6" x2="73.5" y2="5.7"/>
	<line class="st0" x1="73.5" y1="5.7" x2="73.5" y2="5.7"/>
	<line class="st0" x1="0" y1="52.9" x2="0" y2="53"/>
	<line class="st0" x1="0" y1="10.7" x2="0" y2="10.7"/>
	<line class="st0" x1="0" y1="31.9" x2="0" y2="31.7"/>
	<line class="st0" x1="85" y1="10.7" x2="85" y2="10.7"/>
	<line class="st0" x1="85" y1="31.7" x2="85" y2="31.9"/>
</g>
</svg>
