<?xml version="1.0" encoding="utf-8"?>
<!-- Generator: Adobe Illustrator 23.0.1, SVG Export Plug-In . SVG Version: 6.00 Build 0)  -->
<svg version="1.1" id="Layer_1" xmlns="http://www.w3.org/2000/svg" xmlns:xlink="http://www.w3.org/1999/xlink" x="0px" y="0px"
	 viewBox="0 0 54 54" style="enable-background:new 0 0 54 54;" xml:space="preserve">
<style type="text/css">
	.st0{clip-path:url(#SVGID_2_);fill:none;stroke:#000000;stroke-width:0.3;}
	.st1{clip-path:url(#SVGID_2_);fill:none;stroke:#000000;stroke-width:0.7;stroke-linecap:round;}
</style>
<g>
	<defs>
		<rect id="SVGID_1_" width="54" height="54"/>
	</defs>
	<clipPath id="SVGID_2_">
		<use xlink:href="#SVGID_1_"  style="overflow:visible;"/>
	</clipPath>
	<path class="st0" d="M38.3,6.7c-3.2,1-6.4,2-9.6,2.8"/>
	<path class="st0" d="M22,11.3c2.2-0.5,4.4-1.1,6.7-1.7"/>
	<path class="st0" d="M46.9,3.7c2.5-1,4.9-2,7.1-3"/>
	<path class="st0" d="M46.9,3.7c-2.7,1.1-5.6,2.1-8.6,3"/>
	<path class="st0" d="M5.2,14.5C9.3,14,15.3,12.9,22,11.3"/>
	<line class="st0" x1="0" y1="0.8" x2="1.6" y2="0"/>
	<line class="st0" x1="1.7" y1="54" x2="3.7" y2="53.1"/>
	<line class="st0" x1="3.8" y1="53.1" x2="3.7" y2="53.1"/>
	<path class="st0" d="M32.5,50.8c4.4,1.3,9.1,2.4,14.1,3.2"/>
	<path class="st0" d="M4.5,39.9c-0.1,0-0.1,0-0.2-0.1"/>
	<path class="st0" d="M19.7,46.4c-5.9-2.3-11.1-4.7-15.2-6.5"/>
	<path class="st0" d="M19.7,46.4c3.9,1.5,8.2,3,12.8,4.4"/>
	<path class="st0" d="M22,37c-1.5,0.3-3,0.6-4.5,0.9"/>
	<path class="st0" d="M0,40.3c1.5-0.1,3-0.2,4.5-0.4"/>
	<path class="st0" d="M31.2,34.9c-3,0.7-6.1,1.5-9.2,2.1"/>
	<path class="st0" d="M46.2,30.7c-4.4,1.3-9.5,2.8-15,4.1"/>
	<path class="st0" d="M17.5,37.9c-4.4,0.8-8.8,1.5-13,2"/>
	<path class="st0" d="M46.2,30.7c3-0.9,5.6-1.8,7.8-2.5"/>
	<path class="st0" d="M54,12.8c-0.4-0.2-0.9-0.3-1.3-0.5"/>
	<path class="st0" d="M38.2,6.7c0,0,0.1,0,0.1,0.1"/>
	<path class="st0" d="M52.7,12.3C46.3,10,41.3,8,38.3,6.7"/>
	<path class="st0" d="M48.5,40.5c1.8,0,3.6-0.1,5.5-0.2"/>
	<path class="st0" d="M38,40.2c-4.1-0.3-11.5-1-16-3.2"/>
	<line class="st0" x1="22" y1="37" x2="22" y2="37"/>
	<path class="st0" d="M48.5,40.5c-0.2,0-0.3,0-0.5,0c0,0-5,0-7.7-0.2c-0.5,0-1.3-0.1-2.4-0.2"/>
	<path class="st0" d="M48.4,25.1c1.9,0.3,3.8,0.5,5.6,0.7"/>
	<path class="st0" d="M19.8,19c8.9,2.5,18.8,4.7,28.6,6.1"/>
	<path class="st0" d="M19.8,19c-7.3-2-14-4.2-19.8-6.2"/>
	<path class="st0" d="M0,12.2c10-1,33.1-3.9,46.2-8.4"/>
	<path class="st0" d="M0,7.9c13.6-0.7,35.1-2.3,49.2-7.4"/>
	<path class="st0" d="M0,3.8C12.5,3.7,30.3,2.7,42.7,0"/>
	<path class="st0" d="M44.5,53.6c-0.5,0.1-1,0.2-1.6,0.4"/>
	<path class="st0" d="M38.4,52.4c-11.5,1.3-24.4,1.2-34.7,0.7"/>
	<path class="st0" d="M3.7,53.1C2.4,53,1.2,53,0,52.9"/>
	<path class="st0" d="M15.2,12.8c1,0.5,2.1,0.9,3.2,1.3"/>
	<path class="st0" d="M39.5,20.3c4.9,1,9.8,1.8,14.5,2.3"/>
	<path class="st0" d="M18.3,14.2c6.7,2.7,13.9,4.7,21.1,6.2"/>
	<path class="st0" d="M22,11.3c0.9,0.4,1.9,0.8,3.1,1.3"/>
	<path class="st0" d="M22,11.3c-0.1,0-0.1-0.1-0.2-0.1"/>
	<path class="st0" d="M25.1,12.5c6.6,2.5,17.8,5.4,28.9,7.2"/>
	<path class="st0" d="M31.9,10.8c2.7,1.1,5.9,2.3,9.6,3.6"/>
	<path class="st0" d="M28.8,9.5c0,0-0.1,0-0.1,0"/>
	<path class="st0" d="M54,17.8c-4.5-0.9-8.7-2.2-12.5-3.4"/>
	<path class="st0" d="M31.9,10.8c-1.2-0.5-2.2-0.9-3.1-1.3"/>
	<path class="st0" d="M34.3,8c7.4,3,10.9,5.2,19.7,6.7"/>
	<path class="st0" d="M26,20.7c-6.5,1.3-16.2,0.6-26-1"/>
	<path class="st0" d="M0,17.8c0.2,0,0.3,0.1,0.5,0.1"/>
	<path class="st0" d="M19.8,19c0.1,0,0.2,0,0.3,0"/>
	<path class="st0" d="M7.8,19c4,0.4,8,0.5,11.9,0"/>
	<path class="st0" d="M7.8,19c-2.5-0.3-4.9-0.6-7.3-1.1"/>
	<path class="st0" d="M8.7,15.8c-3.2-0.3-5.9-0.7-8.2-1"/>
	<path class="st0" d="M0,14.7c0.2,0,0.3,0.1,0.5,0.1"/>
	<line class="st0" x1="52.7" y1="12.3" x2="52.7" y2="12.3"/>
	<path class="st0" d="M54,12.2c-0.5,0-0.9,0.1-1.3,0.1"/>
	<path class="st0" d="M54,7.9c-5.8,0.3-10.1,0.4-11.8,0.5"/>
	<path class="st0" d="M46.9,3.7C49,3.8,51.4,3.8,54,3.8"/>
	<path class="st0" d="M46.9,3.7C46.9,3.7,46.8,3.7,46.9,3.7"/>
	<path class="st0" d="M5.2,26.2c-1.6-0.1-3.1-0.2-4.6-0.3"/>
	<path class="st0" d="M15.1,26.5c10.3,0.1,20.1-0.6,26.5-2.4"/>
	<path class="st0" d="M0,25.9c0.2,0,0.4,0,0.6,0"/>
	<path class="st0" d="M5.2,26.2c3.3,0.2,6.6,0.3,9.8,0.3"/>
	<path class="st0" d="M20.9,30.2C14,30.8,6.7,31,0,31"/>
	<path class="st0" d="M48.4,25.1c-7.1,2.6-17,4.2-27.4,5.1"/>
	<path class="st0" d="M48.4,25.1C48.4,25.1,48.4,25.1,48.4,25.1"/>
	<path class="st0" d="M0,36.3c21.4-1.6,47-8.1,54-10.1"/>
	<path class="st0" d="M46.2,30.7C46.2,30.7,46.1,30.7,46.2,30.7"/>
	<path class="st0" d="M46.2,30.7c2.5,0.1,5.1,0.2,7.8,0.2"/>
	<path class="st0" d="M31.2,34.9C31.2,34.9,31.1,34.9,31.2,34.9"/>
	<path class="st0" d="M31.2,34.9c2.7,0.9,7.1,1.3,9.3,1.5c2.2,0.2,5.1,0.3,5.1,0.3c2.7,0,5.6-0.2,8.5-0.4"/>
	<path class="st0" d="M32.5,50.8C25.3,51,13,51,0,49.5"/>
	<path class="st0" d="M32.5,50.8c0,0,0.1,0,0.1,0"/>
	<path class="st0" d="M15.7,48.3c-4.2-0.1-9.2-0.5-15.7-1.6"/>
	<path class="st0" d="M24.4,48.1c-2.4,0.2-5.2,0.3-8.7,0.2"/>
	<path class="st0" d="M2.8,44.9C1.9,44.8,1,44.6,0,44.4"/>
	<path class="st0" d="M19.7,46.4c-3.1,0.1-9.3-0.2-16.9-1.5"/>
	<path class="st0" d="M19.7,46.4C19.7,46.4,19.7,46.4,19.7,46.4"/>
	<path class="st0" d="M15.4,44.6c-4.2,0-8-0.5-15.4-3.6"/>
	<path class="st0" d="M17.5,40.9c-1.6-0.6-3.1-1.3-4.6-2.1"/>
	<path class="st0" d="M17.5,40.9c10.5,4.4,21.2,6.3,21.2,6.3c5,1.1,10.2,1.8,15.3,2.4"/>
	<path class="st0" d="M20.1,37.5c4.9,2.4,17.3,5.9,17.3,5.9c6.4,1.5,11.9,2.6,16.6,3.4"/>
	<line class="st0" x1="38" y1="40.2" x2="37.9" y2="40.2"/>
	<path class="st0" d="M38,40.2l4.4,1.4c4,1.2,7.9,2.1,11.6,2.8"/>
	<path class="st0" d="M52.9,40.5c0.4,0.2,0.8,0.3,1.1,0.5"/>
	<path class="st0" d="M39.5,51.2c1.7,0.4,2.5,0.5,2.5,0.5l0.3,0.1c2.6,0.3,6.3,0.7,10.7,0.9"/>
	<path class="st0" d="M39.5,51.2c-2.9-0.6-8.3-1.8-16.5-3.7"/>
	<path class="st0" d="M53,52.8c0.3,0,0.7,0,1,0.1"/>
	<path class="st0" d="M36.2,23c-5.8,1.1-20,1.6-36.2-0.4"/>
	<path class="st0" d="M0,26.2c0.1,0,0.1,0,0.2-0.1l0.4-0.2"/>
	<line class="st0" x1="0.6" y1="25.9" x2="0.6" y2="25.9"/>
	<path class="st0" d="M5.2,26.2L5,26.3c-1.1,0.5-2.8,1.1-5,1.9"/>
	<line class="st0" x1="5.2" y1="26.2" x2="5.4" y2="26.1"/>
	<path class="st0" d="M46.6,0c2.3,0.4,4.6,0.7,7,0.9"/>
	<path class="st0" d="M11.8,5.2c0-0.9-3-0.9-3,0.2C8.8,6.2,11.8,6.3,11.8,5.2z"/>
	<path class="st0" d="M29.7,16.1c-0.3,0.8,2.5,1.9,2.9,0.9C32.9,16.1,30.1,15.1,29.7,16.1z"/>
	<path class="st0" d="M7.1,28.6c0,0.8,3,1,3-0.1C10.1,27.6,7.1,27.6,7.1,28.6z"/>
	<path class="st0" d="M33.6,37.7c-0.2,0.8,2.8,1.5,3,0.4C36.8,37.2,33.8,36.7,33.6,37.7z"/>
	<path class="st0" d="M26,46.2c-0.2,0.8,2.8,1.5,3,0.4C29.2,45.7,26.2,45.2,26,46.2z"/>
	<path class="st0" d="M48.5,47.2c0.2-0.9-2.8-1.5-3-0.4C45.4,47.6,48.3,48.3,48.5,47.2z"/>
	<path class="st0" d="M0.4,33.6c0.1,0.8,3.1,0.7,3-0.4C3.4,32.3,0.4,32.6,0.4,33.6z"/>
	<path class="st0" d="M44.8,22.6c-0.3,0.8,2.5,1.9,2.9,0.9C48,22.6,45.2,21.6,44.8,22.6z"/>
	<path class="st0" d="M42.3,3.6c0,0.5,1.8,0.6,1.8-0.1C44.1,3,42.3,3,42.3,3.6z"/>
	<path class="st0" d="M32.9,3.3c0-0.5-1.8-0.5-1.8,0.1C31.1,3.9,32.9,3.9,32.9,3.3z"/>
	<path class="st0" d="M53,6.2c0-0.5-1.8-0.5-1.8,0.1C51.2,6.8,53,6.8,53,6.2z"/>
	<path class="st0" d="M6.6,12.9c0-0.5-1.8-0.5-1.8,0.1C4.8,13.5,6.6,13.5,6.6,12.9z"/>
	<path class="st0" d="M24.8,35c0-0.5-1.8-0.5-1.8,0.1C23,35.6,24.8,35.7,24.8,35z"/>
	<path class="st0" d="M40.9,9.4c0.3-0.5-1.4-1.3-1.6-0.7C39,9.1,40.6,9.9,40.9,9.4z"/>
	<path class="st0" d="M4.5,37.7c0,0.5,1.7,0.7,1.8,0.1C6.4,37.2,4.6,37.1,4.5,37.7z"/>
	<path class="st0" d="M2.8,43.3c0-0.5-1.7-0.7-1.8-0.1C1,43.7,2.8,43.9,2.8,43.3z"/>
	<path class="st0" d="M16.5,32.5c0-0.5-1.7-0.7-1.8-0.1C14.7,32.9,16.4,33.1,16.5,32.5z"/>
	<path class="st0" d="M6.6,48.8c0-0.5-1.7-0.7-1.8-0.1C4.7,49.2,6.5,49.4,6.6,48.8z"/>
	<path class="st0" d="M17.9,51.9c0,0.5,1.7,0.7,1.8,0.1C19.7,51.5,17.9,51.3,17.9,51.9z"/>
	<path class="st0" d="M20,22.7c0-0.5-1.7-0.7-1.8-0.1C18.2,23.1,19.9,23.3,20,22.7z"/>
	<path class="st0" d="M35.1,20.9c0-0.5-1.7-0.7-1.8-0.1C33.3,21.3,35.1,21.5,35.1,20.9z"/>
	<path class="st0" d="M3,21.3c0-0.5-1.7-0.7-1.8-0.1C1.2,21.8,2.9,22,3,21.3z"/>
	<path class="st0" d="M31.3,30.6c0-0.5-1.7-0.7-1.8-0.1C29.4,31,31.2,31.2,31.3,30.6z"/>
	<path class="st0" d="M22.4,7.5c0,0.8,3,0.9,3-0.2C25.4,6.4,22.4,6.5,22.4,7.5z"/>
	<path class="st0" d="M50.2,15.5c0.3-0.9-2.6-1.8-2.9-0.8C47,15.5,49.9,16.5,50.2,15.5z"/>
	<line class="st0" x1="11.2" y1="9.7" x2="8.7" y2="8.7"/>
	<line class="st0" x1="30.5" y1="32.7" x2="33" y2="33.7"/>
	<line class="st0" x1="18.1" y1="24.8" x2="20.6" y2="25.8"/>
	<line class="st0" x1="43.7" y1="6.1" x2="46.2" y2="7.1"/>
	<line class="st0" x1="23.1" y1="18.9" x2="21.9" y2="17"/>
	<line class="st0" x1="26.9" y1="29.1" x2="25.6" y2="27.2"/>
	<line class="st0" x1="40" y1="46.4" x2="38.7" y2="44.5"/>
	<line class="st0" x1="41.1" y1="37.7" x2="42.4" y2="39.6"/>
	<line class="st0" x1="17.5" y1="43.9" x2="16.2" y2="42"/>
	<line class="st0" x1="5.9" y1="51.2" x2="7.1" y2="53.1"/>
	<line class="st0" x1="34.6" y1="16.7" x2="35.9" y2="18.6"/>
	<line class="st0" x1="2.5" y1="28.4" x2="3.8" y2="30.3"/>
	<line class="st0" x1="27" y1="1.4" x2="24.5" y2="0.4"/>
	<line class="st0" x1="2.2" y1="5.1" x2="4.7" y2="6.1"/>
	<line class="st0" x1="29.3" y1="5.9" x2="27.6" y2="7.3"/>
	<line class="st0" x1="29.3" y1="42.2" x2="27.5" y2="43.5"/>
	<line class="st0" x1="50.1" y1="51.6" x2="51.9" y2="50.2"/>
	<line class="st0" x1="23.3" y1="49.1" x2="21.6" y2="50.4"/>
	<line class="st0" x1="42.1" y1="33.6" x2="40.4" y2="34.9"/>
	<line class="st0" x1="8.7" y1="25.8" x2="10.5" y2="24.4"/>
	<line class="st0" x1="13.2" y1="37.3" x2="15.3" y2="36.6"/>
	<line class="st0" x1="21.6" y1="5.1" x2="23.3" y2="3.8"/>
	<line class="st0" x1="29.5" y1="19.3" x2="27.4" y2="19.6"/>
	<line class="st0" x1="7.6" y1="1.3" x2="5.8" y2="2.7"/>
	<line class="st0" x1="11.4" y1="3.4" x2="11.4" y2="0"/>
	<line class="st0" x1="30.7" y1="1.9" x2="30.7" y2="0"/>
	<line class="st0" x1="11.4" y1="54" x2="11.4" y2="53.4"/>
	<line class="st0" x1="30.7" y1="54" x2="30.7" y2="53.1"/>
	<line class="st0" x1="15.3" y1="6.8" x2="15.3" y2="3.4"/>
	<line class="st0" x1="2.2" y1="7.9" x2="2.2" y2="11.9"/>
	<line class="st0" x1="34.8" y1="4.2" x2="34.8" y2="6.8"/>
	<line class="st0" x1="48.2" y1="3.8" x2="48.2" y2="8"/>
	<line class="st0" x1="17.5" y1="10" x2="17.5" y2="12.3"/>
	<line class="st0" x1="0.5" y1="17.9" x2="0.5" y2="14.8"/>
	<line class="st0" x1="0.5" y1="14.8" x2="0.5" y2="14.8"/>
	<line class="st0" x1="0.5" y1="17.9" x2="0.5" y2="17.9"/>
	<line class="st0" x1="25.1" y1="12.5" x2="25.1" y2="12.4"/>
	<line class="st0" x1="25.1" y1="12.5" x2="25.1" y2="16.5"/>
	<line class="st0" x1="31.9" y1="10.8" x2="31.9" y2="14.7"/>
	<line class="st0" x1="31.9" y1="10.8" x2="31.9" y2="10.8"/>
	<line class="st0" x1="41.5" y1="14.4" x2="41.5" y2="14.4"/>
	<line class="st0" x1="41.5" y1="11.1" x2="41.5" y2="14.4"/>
	<line class="st0" x1="36.8" y1="19.6" x2="36.8" y2="16.2"/>
	<line class="st0" x1="18.3" y1="14.2" x2="18.3" y2="14.1"/>
	<line class="st0" x1="18.3" y1="14.2" x2="18.3" y2="18.6"/>
	<line class="st0" x1="39.5" y1="20.3" x2="39.5" y2="20.2"/>
	<line class="st0" x1="39.5" y1="20.3" x2="39.5" y2="23.6"/>
	<line class="st0" x1="50.4" y1="25.3" x2="50.4" y2="22.3"/>
	<line class="st0" x1="27.4" y1="21.1" x2="27.4" y2="23.8"/>
	<line class="st0" x1="48.2" y1="30" x2="48.2" y2="27.8"/>
	<line class="st0" x1="36.5" y1="33.4" x2="36.5" y2="30.6"/>
	<line class="st0" x1="31.1" y1="29" x2="31.1" y2="25.9"/>
	<line class="st0" x1="12.1" y1="26.4" x2="12.1" y2="23.8"/>
	<line class="st0" x1="7.8" y1="19" x2="7.8" y2="19"/>
	<line class="st0" x1="7.8" y1="19" x2="7.8" y2="20.7"/>
	<line class="st0" x1="15.1" y1="26.5" x2="15.1" y2="26.5"/>
	<line class="st0" x1="15.1" y1="30.6" x2="15.1" y2="26.5"/>
	<line class="st0" x1="6.3" y1="31" x2="6.3" y2="35.7"/>
	<line class="st0" x1="20.9" y1="30.2" x2="20.9" y2="33.4"/>
	<line class="st0" x1="20.9" y1="30.2" x2="20.9" y2="30.2"/>
	<line class="st0" x1="9.7" y1="39.1" x2="9.7" y2="35.4"/>
	<line class="st0" x1="50.1" y1="36.5" x2="50.1" y2="30.9"/>
	<line class="st0" x1="27.3" y1="35.9" x2="27.3" y2="38.7"/>
	<line class="st0" x1="48.5" y1="40.5" x2="48.5" y2="43.2"/>
	<line class="st0" x1="48.5" y1="40.5" x2="48.5" y2="40.4"/>
	<line class="st0" x1="31.7" y1="41.7" x2="31.7" y2="45.4"/>
	<line class="st0" x1="17.5" y1="40.9" x2="17.5" y2="40.9"/>
	<line class="st0" x1="17.5" y1="37.8" x2="17.5" y2="37.9"/>
	<line class="st0" x1="17.5" y1="40.9" x2="17.5" y2="37.9"/>
	<line class="st0" x1="21.6" y1="47" x2="21.6" y2="42.5"/>
	<line class="st0" x1="39.5" y1="51.2" x2="39.5" y2="47.3"/>
	<line class="st0" x1="39.5" y1="51.2" x2="39.5" y2="51.3"/>
	<line class="st0" x1="9.3" y1="42.1" x2="9.3" y2="44"/>
	<line class="st0" x1="2.8" y1="44.9" x2="2.8" y2="44.9"/>
	<line class="st0" x1="2.8" y1="44.9" x2="2.8" y2="47.1"/>
	<line class="st0" x1="15.7" y1="48.3" x2="15.7" y2="50.6"/>
	<line class="st0" x1="15.7" y1="48.3" x2="15.7" y2="48.2"/>
	<line class="st0" x1="4.4" y1="53.1" x2="4.4" y2="50"/>
	<line class="st0" x1="25.5" y1="53.2" x2="25.5" y2="50.9"/>
	<line class="st0" x1="42.3" y1="51.9" x2="42.3" y2="53.1"/>
	<line class="st1" x1="52.8" y1="2.8" x2="52.8" y2="2.8"/>
	<line class="st1" x1="15.6" y1="8.5" x2="15.6" y2="8.5"/>
	<line class="st1" x1="14.4" y1="15.1" x2="14.4" y2="15.1"/>
	<line class="st1" x1="4.3" y1="17" x2="4.3" y2="17"/>
	<line class="st1" x1="13.9" y1="20.4" x2="13.9" y2="20.4"/>
	<line class="st1" x1="29.1" y1="11.8" x2="29.1" y2="11.8"/>
	<line class="st1" x1="52" y1="18.4" x2="52" y2="18.4"/>
	<line class="st1" x1="39.5" y1="4.5" x2="39.5" y2="4.5"/>
	<line class="st1" x1="41" y1="1.5" x2="41" y2="1.5"/>
	<line class="st1" x1="42" y1="18.8" x2="42" y2="18.8"/>
	<line class="st1" x1="45" y1="10.7" x2="45" y2="10.7"/>
	<line class="st1" x1="36.9" y1="10.6" x2="36.9" y2="10.6"/>
	<line class="st1" x1="51.1" y1="9.6" x2="51.1" y2="9.6"/>
	<line class="st1" x1="20.5" y1="1.3" x2="20.5" y2="1.3"/>
	<line class="st1" x1="11.3" y1="33.3" x2="11.3" y2="33.3"/>
	<line class="st1" x1="4.9" y1="24.5" x2="4.9" y2="24.5"/>
	<line class="st1" x1="26.9" y1="25" x2="26.9" y2="25"/>
	<line class="st1" x1="37.9" y1="26.5" x2="37.9" y2="26.5"/>
	<line class="st1" x1="46.9" y1="41.5" x2="46.9" y2="41.5"/>
	<line class="st1" x1="38.1" y1="41.9" x2="38.1" y2="41.9"/>
	<line class="st1" x1="30.5" y1="37.4" x2="30.5" y2="37.4"/>
	<line class="st1" x1="19.6" y1="35.6" x2="19.6" y2="35.6"/>
	<line class="st1" x1="45.1" y1="33.4" x2="45.1" y2="33.4"/>
	<line class="st1" x1="52.1" y1="45.3" x2="52.1" y2="45.3"/>
	<line class="st1" x1="50.5" y1="38.3" x2="50.5" y2="38.3"/>
	<line class="st1" x1="42.1" y1="50.1" x2="42.1" y2="50.1"/>
	<line class="st1" x1="1.8" y1="37.6" x2="1.8" y2="37.6"/>
	<line class="st1" x1="20.9" y1="28.4" x2="20.9" y2="28.4"/>
	<line class="st1" x1="34.9" y1="32.1" x2="34.9" y2="32.1"/>
	<line class="st1" x1="31.9" y1="47.8" x2="31.9" y2="47.8"/>
	<line class="st1" x1="22.5" y1="40.5" x2="22.5" y2="40.5"/>
	<line class="st1" x1="12.1" y1="41.5" x2="12.1" y2="41.5"/>
	<line class="st1" x1="6.9" y1="44.5" x2="6.9" y2="44.5"/>
	<line class="st1" x1="1.6" y1="48.5" x2="1.6" y2="48.5"/>
	<line class="st1" x1="11.6" y1="51.8" x2="11.6" y2="51.8"/>
	<line class="st1" x1="32.1" y1="51.8" x2="32.1" y2="51.8"/>
</g>
</svg>
