<?xml version="1.0" encoding="utf-8"?>
<!-- Generator: Adobe Illustrator 23.0.1, SVG Export Plug-In . SVG Version: 6.00 Build 0)  -->
<svg version="1.1" id="Layer_1" xmlns="http://www.w3.org/2000/svg" xmlns:xlink="http://www.w3.org/1999/xlink" x="0px" y="0px"
	 viewBox="0 0 54.2 54.1" style="enable-background:new 0 0 54.2 54.1;" xml:space="preserve">
<style type="text/css">
	.st0{fill:none;stroke:#000000;stroke-width:0.7;stroke-linecap:round;}
	.st1{fill:none;stroke:#000000;stroke-width:0.3;}
</style>
<g>
	<line class="st0" x1="25.4" y1="1.7" x2="25.4" y2="1.7"/>
	<line class="st0" x1="22.3" y1="1.7" x2="22.3" y2="1.7"/>
	<line class="st0" x1="28.1" y1="1.7" x2="28.1" y2="1.7"/>
	<line class="st0" x1="1.9" y1="1.7" x2="1.9" y2="1.7"/>
	<line class="st0" x1="53.4" y1="1.7" x2="53.4" y2="1.7"/>
	<line class="st0" x1="51.1" y1="1.7" x2="51.1" y2="1.7"/>
	<line class="st0" x1="34.4" y1="6" x2="34.4" y2="6"/>
	<line class="st0" x1="6.1" y1="6" x2="6.1" y2="6"/>
	<line class="st0" x1="9" y1="6" x2="9" y2="6"/>
	<line class="st0" x1="13.8" y1="10" x2="13.8" y2="10"/>
	<line class="st0" x1="16.8" y1="10" x2="16.8" y2="10"/>
	<line class="st0" x1="10.6" y1="10" x2="10.6" y2="10"/>
	<line class="st0" x1="34.6" y1="21.1" x2="34.6" y2="21.1"/>
	<line class="st0" x1="37.6" y1="21.1" x2="37.6" y2="21.1"/>
	<line class="st0" x1="31.4" y1="21.1" x2="31.4" y2="21.1"/>
	<line class="st0" x1="6.1" y1="21.1" x2="6.1" y2="21.1"/>
	<line class="st0" x1="9.1" y1="21.1" x2="9.1" y2="21.1"/>
	<line class="st0" x1="2.9" y1="21.1" x2="2.9" y2="21.1"/>
	<line class="st0" x1="13.6" y1="24.9" x2="13.6" y2="24.9"/>
	<line class="st0" x1="16.6" y1="24.9" x2="16.6" y2="24.9"/>
	<line class="st0" x1="10.4" y1="24.9" x2="10.4" y2="24.9"/>
	<line class="st0" x1="41.4" y1="24.9" x2="41.4" y2="24.9"/>
	<line class="st0" x1="44.4" y1="24.9" x2="44.4" y2="24.9"/>
	<line class="st0" x1="38.3" y1="24.9" x2="38.3" y2="24.9"/>
	<line class="st0" x1="33.6" y1="28.9" x2="33.6" y2="28.9"/>
	<line class="st0" x1="36.6" y1="28.9" x2="36.6" y2="28.9"/>
	<line class="st0" x1="30.4" y1="28.9" x2="30.4" y2="28.9"/>
	<line class="st0" x1="5.4" y1="28.9" x2="5.4" y2="28.9"/>
	<line class="st0" x1="8.4" y1="28.9" x2="8.4" y2="28.9"/>
	<line class="st0" x1="2.3" y1="28.9" x2="2.3" y2="28.9"/>
	<line class="st0" x1="25.6" y1="32.9" x2="25.6" y2="32.9"/>
	<line class="st0" x1="28.6" y1="32.9" x2="28.6" y2="32.9"/>
	<line class="st0" x1="22.4" y1="32.9" x2="22.4" y2="32.9"/>
	<line class="st0" x1="20.9" y1="36.5" x2="20.9" y2="36.5"/>
	<line class="st0" x1="23.9" y1="36.5" x2="23.9" y2="36.5"/>
	<line class="st0" x1="17.8" y1="36.5" x2="17.8" y2="36.5"/>
	<line class="st0" x1="48.8" y1="36.5" x2="48.8" y2="36.5"/>
	<line class="st0" x1="51.8" y1="36.5" x2="51.8" y2="36.5"/>
	<line class="st0" x1="45.6" y1="36.5" x2="45.6" y2="36.5"/>
	<line class="st0" x1="41.6" y1="40" x2="41.6" y2="40"/>
	<line class="st0" x1="44.6" y1="40" x2="44.6" y2="40"/>
	<line class="st0" x1="38.4" y1="40" x2="38.4" y2="40"/>
	<line class="st0" x1="13.9" y1="40" x2="13.9" y2="40"/>
	<line class="st0" x1="16.9" y1="40" x2="16.9" y2="40"/>
	<line class="st0" x1="10.8" y1="40" x2="10.8" y2="40"/>
	<line class="st0" x1="5.8" y1="43.7" x2="5.8" y2="43.7"/>
	<line class="st0" x1="8.8" y1="43.7" x2="8.8" y2="43.7"/>
	<line class="st0" x1="2.6" y1="43.7" x2="2.6" y2="43.7"/>
	<line class="st0" x1="33.6" y1="43.7" x2="33.6" y2="43.7"/>
	<line class="st0" x1="36.6" y1="43.7" x2="36.6" y2="43.7"/>
	<line class="st0" x1="30.4" y1="43.7" x2="30.4" y2="43.7"/>
	<line class="st0" x1="25.1" y1="47.8" x2="25.1" y2="47.8"/>
	<line class="st0" x1="28.1" y1="47.8" x2="28.1" y2="47.8"/>
	<line class="st0" x1="21.9" y1="47.8" x2="21.9" y2="47.8"/>
	<line class="st0" x1="18.1" y1="51.6" x2="18.1" y2="51.6"/>
	<line class="st0" x1="21.1" y1="51.6" x2="21.1" y2="51.6"/>
	<line class="st0" x1="14.9" y1="51.6" x2="14.9" y2="51.6"/>
	<line class="st0" x1="45.1" y1="51.6" x2="45.1" y2="51.6"/>
	<line class="st0" x1="48.1" y1="51.6" x2="48.1" y2="51.6"/>
	<line class="st0" x1="42" y1="51.6" x2="42" y2="51.6"/>
	<line class="st0" x1="53.1" y1="47.8" x2="53.1" y2="47.8"/>
	<line class="st0" x1="1.8" y1="47.8" x2="1.8" y2="47.8"/>
	<line class="st0" x1="49.9" y1="47.8" x2="49.9" y2="47.8"/>
	<line class="st0" x1="53.1" y1="32.9" x2="53.1" y2="32.9"/>
	<line class="st0" x1="49.9" y1="32.9" x2="49.9" y2="32.9"/>
	<line class="st0" x1="2.4" y1="32.9" x2="2.4" y2="32.9"/>
	<line class="st0" x1="41.4" y1="10" x2="41.4" y2="10"/>
	<line class="st0" x1="44.6" y1="10" x2="44.6" y2="10"/>
	<line class="st0" x1="37.8" y1="10" x2="37.8" y2="10"/>
	<line class="st0" x1="46.9" y1="14.1" x2="46.9" y2="14.1"/>
	<line class="st0" x1="49.8" y1="14.1" x2="49.8" y2="14.1"/>
	<line class="st0" x1="43.6" y1="14.1" x2="43.6" y2="14.1"/>
	<line class="st0" x1="19.9" y1="14.1" x2="19.9" y2="14.1"/>
	<line class="st0" x1="22.8" y1="14.1" x2="22.8" y2="14.1"/>
	<line class="st0" x1="16.6" y1="14.1" x2="16.6" y2="14.1"/>
	<line class="st0" x1="25.4" y1="17.9" x2="25.4" y2="17.9"/>
	<line class="st0" x1="28.3" y1="17.9" x2="28.3" y2="17.9"/>
	<line class="st0" x1="22.1" y1="17.9" x2="22.1" y2="17.9"/>
	<line class="st0" x1="53.3" y1="17.9" x2="53.3" y2="17.9"/>
	<line class="st0" x1="2" y1="17.9" x2="2" y2="17.9"/>
	<line class="st0" x1="49.9" y1="17.9" x2="49.9" y2="17.9"/>
	<line class="st0" x1="2.9" y1="6" x2="2.9" y2="6"/>
	<line class="st0" x1="37.3" y1="6" x2="37.3" y2="6"/>
	<line class="st0" x1="31.3" y1="6" x2="31.3" y2="6"/>
	<line class="st1" x1="0.1" y1="3.8" x2="54.2" y2="3.8"/>
	<line class="st1" x1="0.1" y1="7.9" x2="54.2" y2="7.9"/>
	<line class="st1" x1="0.1" y1="12.1" x2="54.2" y2="12.1"/>
	<line class="st1" x1="0.1" y1="41.7" x2="54.2" y2="41.7"/>
	<line class="st1" x1="0.1" y1="45.5" x2="54.2" y2="45.5"/>
	<line class="st1" x1="0.1" y1="16.1" x2="54.2" y2="16.1"/>
	<line class="st1" x1="0.1" y1="19.4" x2="54.2" y2="19.4"/>
	<line class="st1" x1="0.1" y1="22.8" x2="54.2" y2="22.8"/>
	<line class="st1" x1="0.1" y1="26.9" x2="54.2" y2="26.9"/>
	<line class="st1" x1="0.1" y1="30.7" x2="54.2" y2="30.7"/>
	<line class="st1" x1="0.1" y1="34.9" x2="54.2" y2="34.9"/>
	<line class="st1" x1="0.1" y1="38.1" x2="54.2" y2="38.1"/>
	<line class="st1" x1="0.1" y1="53.3" x2="54.2" y2="53.3"/>
	<line class="st1" x1="6" y1="0" x2="6" y2="3.8"/>
	<line class="st1" x1="18.7" y1="0" x2="18.7" y2="3.8"/>
	<line class="st1" x1="32.2" y1="0" x2="32.2" y2="3.8"/>
	<line class="st1" x1="46.6" y1="0" x2="46.6" y2="3.8"/>
	<line class="st1" x1="6" y1="53.3" x2="6" y2="54.1"/>
	<line class="st1" x1="18.7" y1="53.3" x2="18.7" y2="54.1"/>
	<line class="st1" x1="32.2" y1="53.3" x2="32.2" y2="54.1"/>
	<line class="st1" x1="46.6" y1="53.3" x2="46.6" y2="54.1"/>
	<line class="st1" x1="12.7" y1="3.7" x2="12.7" y2="7.9"/>
	<line class="st1" x1="27.5" y1="3.7" x2="27.5" y2="7.9"/>
	<line class="st1" x1="41.2" y1="3.7" x2="41.2" y2="7.9"/>
	<line class="st1" x1="54" y1="3.7" x2="54" y2="7.9"/>
	<line class="st1" x1="7.1" y1="8.1" x2="7.1" y2="12.1"/>
	<line class="st1" x1="20.3" y1="8.1" x2="20.3" y2="12.1"/>
	<line class="st1" x1="33.9" y1="8.1" x2="33.9" y2="12.1"/>
	<line class="st1" x1="48.8" y1="8.1" x2="48.8" y2="12.1"/>
	<line class="st1" x1="40.2" y1="12.1" x2="40.2" y2="16.1"/>
	<line class="st1" x1="26.8" y1="12.1" x2="26.8" y2="16.1"/>
	<line class="st1" x1="12" y1="12.1" x2="12" y2="16.1"/>
	<line class="st1" x1="53.5" y1="12.1" x2="53.5" y2="16.1"/>
	<line class="st1" x1="46.6" y1="16.1" x2="46.6" y2="19.4"/>
	<line class="st1" x1="32" y1="16.1" x2="32" y2="19.4"/>
	<line class="st1" x1="18.7" y1="16.1" x2="18.7" y2="19.4"/>
	<line class="st1" x1="6" y1="16.1" x2="6" y2="19.4"/>
	<line class="st1" x1="12.5" y1="19.4" x2="12.5" y2="22.8"/>
	<line class="st1" x1="27.5" y1="19.4" x2="27.5" y2="22.8"/>
	<line class="st1" x1="41.3" y1="19.4" x2="41.3" y2="22.8"/>
	<line class="st1" x1="54" y1="19.4" x2="54" y2="22.8"/>
	<line class="st1" x1="6.7" y1="22.8" x2="6.7" y2="26.9"/>
	<line class="st1" x1="20.2" y1="22.8" x2="20.2" y2="26.9"/>
	<line class="st1" x1="33.8" y1="22.8" x2="33.8" y2="26.9"/>
	<line class="st1" x1="48.7" y1="22.8" x2="48.7" y2="26.9"/>
	<line class="st1" x1="40.1" y1="26.9" x2="40.1" y2="30.7"/>
	<line class="st1" x1="26.8" y1="26.9" x2="26.8" y2="30.7"/>
	<line class="st1" x1="11.8" y1="26.9" x2="11.8" y2="30.7"/>
	<line class="st1" x1="53.3" y1="26.9" x2="53.3" y2="30.7"/>
	<line class="st1" x1="5.6" y1="30.7" x2="5.6" y2="34.9"/>
	<line class="st1" x1="18.6" y1="30.7" x2="18.6" y2="34.9"/>
	<line class="st1" x1="32.2" y1="30.7" x2="32.2" y2="34.9"/>
	<line class="st1" x1="46.5" y1="30.7" x2="46.5" y2="34.9"/>
	<line class="st1" x1="42.3" y1="34.9" x2="42.3" y2="38.1"/>
	<line class="st1" x1="28.1" y1="34.9" x2="28.1" y2="38.1"/>
	<line class="st1" x1="13" y1="34.9" x2="13" y2="38.1"/>
	<line class="st1" x1="0.6" y1="34.9" x2="0.6" y2="38.1"/>
	<line class="st1" x1="6.9" y1="38.2" x2="6.9" y2="41.7"/>
	<line class="st1" x1="20.2" y1="38.2" x2="20.2" y2="41.7"/>
	<line class="st1" x1="33.8" y1="38.2" x2="33.8" y2="41.7"/>
	<line class="st1" x1="48.7" y1="38.2" x2="48.7" y2="41.7"/>
	<line class="st1" x1="40.3" y1="41.8" x2="40.3" y2="45.5"/>
	<line class="st1" x1="26.5" y1="41.8" x2="26.5" y2="45.5"/>
	<line class="st1" x1="11.9" y1="41.8" x2="11.9" y2="45.5"/>
	<line class="st1" x1="53.8" y1="41.8" x2="53.8" y2="45.5"/>
	<line class="st1" x1="0.1" y1="49.9" x2="54.2" y2="49.9"/>
	<line class="st1" x1="10.4" y1="49.9" x2="10.4" y2="53.4"/>
	<line class="st1" x1="24.8" y1="49.9" x2="24.8" y2="53.4"/>
	<line class="st1" x1="38.4" y1="49.9" x2="38.4" y2="53.4"/>
	<line class="st1" x1="51.8" y1="49.9" x2="51.8" y2="53.4"/>
	<line class="st1" x1="4.6" y1="45.5" x2="4.6" y2="49.9"/>
	<line class="st1" x1="17.6" y1="45.5" x2="17.6" y2="49.9"/>
	<line class="st1" x1="31.6" y1="45.5" x2="31.6" y2="49.9"/>
	<line class="st1" x1="46.2" y1="45.5" x2="46.2" y2="49.9"/>
	<line class="st1" x1="8.8" y1="1.7" x2="16.1" y2="1.7"/>
	<line class="st1" x1="35.9" y1="1.7" x2="43.2" y2="1.7"/>
	<line class="st1" x1="16.3" y1="5.9" x2="23.6" y2="5.9"/>
	<line class="st1" x1="44.1" y1="5.9" x2="51.3" y2="5.9"/>
	<line class="st1" x1="23.6" y1="10" x2="30.8" y2="10"/>
	<line class="st1" x1="0" y1="10" x2="4.5" y2="10"/>
	<line class="st1" x1="30.2" y1="14.2" x2="37.5" y2="14.2"/>
	<line class="st1" x1="1.9" y1="14.2" x2="9.1" y2="14.2"/>
	<line class="st1" x1="35.5" y1="17.7" x2="42.7" y2="17.7"/>
	<line class="st1" x1="44.2" y1="21.1" x2="51.5" y2="21.1"/>
	<line class="st1" x1="51.4" y1="25" x2="54.1" y2="25"/>
	<line class="st1" x1="43.2" y1="28.7" x2="50.5" y2="28.7"/>
	<line class="st1" x1="35.9" y1="32.7" x2="43.1" y2="32.7"/>
	<line class="st1" x1="31.7" y1="36.5" x2="39" y2="36.5"/>
	<line class="st1" x1="23.6" y1="40" x2="30.9" y2="40"/>
	<line class="st1" x1="15.5" y1="43.6" x2="22.7" y2="43.6"/>
	<line class="st1" x1="7.4" y1="48" x2="14.6" y2="48"/>
	<line class="st1" x1="0.2" y1="51.7" x2="7.5" y2="51.7"/>
	<line class="st1" x1="8.6" y1="17.8" x2="15.9" y2="17.8"/>
	<line class="st1" x1="16" y1="21.1" x2="23.2" y2="21.1"/>
	<line class="st1" x1="23.4" y1="24.8" x2="30.6" y2="24.8"/>
	<line class="st1" x1="15.9" y1="28.8" x2="23.1" y2="28.8"/>
	<line class="st1" x1="8.5" y1="32.8" x2="15.7" y2="32.8"/>
	<line class="st1" x1="3.2" y1="36.6" x2="10.5" y2="36.6"/>
	<line class="st1" x1="0" y1="40.1" x2="3.9" y2="40.1"/>
	<line class="st1" x1="43.7" y1="43.7" x2="51" y2="43.7"/>
	<line class="st1" x1="35.4" y1="47.8" x2="42.6" y2="47.8"/>
	<line class="st1" x1="28" y1="51.6" x2="35.2" y2="51.6"/>
	<line class="st1" x1="51.3" y1="10" x2="54.1" y2="10"/>
	<line class="st1" x1="51.3" y1="40.1" x2="54.1" y2="40.1"/>
	<line class="st1" x1="0.1" y1="25" x2="2.7" y2="25"/>
</g>
</svg>
