<?xml version="1.0" encoding="utf-8"?>
<!-- Generator: Adobe Illustrator 23.0.1, SVG Export Plug-In . SVG Version: 6.00 Build 0)  -->
<svg version="1.1" id="Layer_1" xmlns="http://www.w3.org/2000/svg" xmlns:xlink="http://www.w3.org/1999/xlink" x="0px" y="0px"
	 viewBox="0 0 54.1 54.1" style="enable-background:new 0 0 54.1 54.1;" xml:space="preserve">
<style type="text/css">
	.st0{clip-path:url(#SVGID_2_);fill:none;stroke:#000000;stroke-width:0.3;}
	.st1{clip-path:url(#SVGID_2_);fill:none;stroke:#000000;stroke-width:0.7;stroke-linecap:round;}
</style>
<g>
	<defs>
		<rect id="SVGID_1_" x="0" y="0" width="54.1" height="54.1"/>
	</defs>
	<clipPath id="SVGID_2_">
		<use xlink:href="#SVGID_1_"  style="overflow:visible;"/>
	</clipPath>
	<line class="st0" x1="30.8" y1="3.8" x2="28.3" y2="3.8"/>
	<line class="st0" x1="17.3" y1="3.8" x2="28.3" y2="3.8"/>
	<line class="st0" x1="4.6" y1="3.8" x2="17.3" y2="3.8"/>
	<line class="st0" x1="42" y1="3.8" x2="45.1" y2="3.8"/>
	<line class="st0" x1="42" y1="3.8" x2="30.8" y2="3.8"/>
	<line class="st0" x1="54.1" y1="3.8" x2="45.1" y2="3.8"/>
	<line class="st0" x1="4.6" y1="3.8" x2="0" y2="3.8"/>
	<line class="st0" x1="8" y1="7.9" x2="0" y2="7.9"/>
	<line class="st0" x1="34.8" y1="7.9" x2="8" y2="7.9"/>
	<line class="st0" x1="54.1" y1="7.9" x2="34.8" y2="7.9"/>
	<line class="st0" x1="27.5" y1="12.1" x2="12.7" y2="12.1"/>
	<line class="st0" x1="53.8" y1="12.1" x2="54.1" y2="12.1"/>
	<line class="st0" x1="41" y1="12.1" x2="53.8" y2="12.1"/>
	<line class="st0" x1="27.5" y1="12.1" x2="41" y2="12.1"/>
	<line class="st0" x1="12.7" y1="12.1" x2="0" y2="12.1"/>
	<line class="st0" x1="54.2" y1="41.7" x2="54.1" y2="41.7"/>
	<line class="st0" x1="12.6" y1="41.7" x2="27.1" y2="41.7"/>
	<line class="st0" x1="12.6" y1="41.7" x2="0" y2="41.7"/>
	<line class="st0" x1="53.7" y1="41.7" x2="54.1" y2="41.7"/>
	<line class="st0" x1="27.1" y1="41.7" x2="41.1" y2="41.7"/>
	<line class="st0" x1="41.1" y1="41.7" x2="53.7" y2="41.7"/>
	<line class="st0" x1="32.5" y1="45.5" x2="24.8" y2="45.5"/>
	<line class="st0" x1="18.5" y1="45.5" x2="24.8" y2="45.5"/>
	<line class="st0" x1="5.5" y1="45.5" x2="0" y2="45.5"/>
	<line class="st0" x1="51.2" y1="45.5" x2="54.1" y2="45.5"/>
	<line class="st0" x1="47.1" y1="45.5" x2="38.8" y2="45.5"/>
	<line class="st0" x1="5.5" y1="45.5" x2="10.3" y2="45.5"/>
	<line class="st0" x1="10.3" y1="45.5" x2="18.5" y2="45.5"/>
	<line class="st0" x1="32.5" y1="45.5" x2="38.8" y2="45.5"/>
	<line class="st0" x1="51.2" y1="45.5" x2="47.1" y2="45.5"/>
	<line class="st0" x1="32.6" y1="16.1" x2="19.3" y2="16.1"/>
	<line class="st0" x1="6.6" y1="16.1" x2="0" y2="16.1"/>
	<line class="st0" x1="47.2" y1="16.1" x2="54.1" y2="16.1"/>
	<line class="st0" x1="6.6" y1="16.1" x2="19.3" y2="16.1"/>
	<line class="st0" x1="47.2" y1="16.1" x2="32.6" y2="16.1"/>
	<line class="st0" x1="53.9" y1="19.4" x2="41.9" y2="19.4"/>
	<line class="st0" x1="53.9" y1="19.4" x2="54.1" y2="19.4"/>
	<line class="st0" x1="28" y1="19.4" x2="13" y2="19.4"/>
	<line class="st0" x1="28" y1="19.4" x2="41.9" y2="19.4"/>
	<line class="st0" x1="13" y1="19.4" x2="0" y2="19.4"/>
	<line class="st0" x1="34.6" y1="22.8" x2="20.9" y2="22.8"/>
	<line class="st0" x1="51.7" y1="22.8" x2="54.1" y2="22.8"/>
	<line class="st0" x1="7.5" y1="22.8" x2="0" y2="22.8"/>
	<line class="st0" x1="34.6" y1="22.8" x2="49.5" y2="22.8"/>
	<line class="st0" x1="51.7" y1="22.8" x2="49.5" y2="22.8"/>
	<line class="st0" x1="7.5" y1="22.8" x2="20.9" y2="22.8"/>
	<line class="st0" x1="54.1" y1="26.9" x2="40.9" y2="26.9"/>
	<line class="st0" x1="54.1" y1="26.9" x2="54.1" y2="26.9"/>
	<line class="st0" x1="27.5" y1="26.9" x2="12.5" y2="26.9"/>
	<line class="st0" x1="12.5" y1="26.9" x2="0" y2="26.9"/>
	<line class="st0" x1="40.9" y1="26.9" x2="27.5" y2="26.9"/>
	<line class="st0" x1="54.1" y1="30.7" x2="0" y2="30.7"/>
	<line class="st0" x1="54.1" y1="34.9" x2="0" y2="34.9"/>
	<line class="st0" x1="51.8" y1="38.1" x2="54.1" y2="38.1"/>
	<line class="st0" x1="51.8" y1="38.1" x2="0" y2="38.1"/>
	<line class="st0" x1="50.4" y1="53.3" x2="54.1" y2="53.3"/>
	<line class="st0" x1="9" y1="53.3" x2="0" y2="53.3"/>
	<line class="st0" x1="23.3" y1="53.3" x2="37" y2="53.3"/>
	<line class="st0" x1="9" y1="53.3" x2="23.3" y2="53.3"/>
	<line class="st0" x1="37" y1="53.3" x2="50.4" y2="53.3"/>
	<line class="st0" x1="54.1" y1="49.9" x2="0" y2="49.9"/>
	<line class="st0" x1="5.5" y1="45.5" x2="2.9" y2="49.9"/>
	<line class="st0" x1="5.5" y1="45.5" x2="5.5" y2="45.4"/>
	<line class="st0" x1="15.9" y1="49.9" x2="18.5" y2="45.5"/>
	<line class="st0" x1="18.5" y1="45.5" x2="18.5" y2="45.4"/>
	<line class="st0" x1="32.5" y1="45.5" x2="29.9" y2="49.9"/>
	<line class="st0" x1="32.5" y1="45.5" x2="32.5" y2="45.4"/>
	<line class="st0" x1="47.1" y1="45.5" x2="44.4" y2="49.9"/>
	<line class="st0" x1="50.4" y1="53.3" x2="52.4" y2="49.9"/>
	<line class="st0" x1="50.4" y1="53.3" x2="50.4" y2="53.3"/>
	<line class="st0" x1="37" y1="53.3" x2="39.1" y2="49.9"/>
	<line class="st0" x1="37" y1="53.3" x2="37" y2="53.3"/>
	<line class="st0" x1="23.3" y1="53.3" x2="25.4" y2="49.9"/>
	<line class="st0" x1="23.3" y1="53.3" x2="23.3" y2="53.3"/>
	<line class="st0" x1="9" y1="53.3" x2="9" y2="53.3"/>
	<line class="st0" x1="9" y1="53.3" x2="11.1" y2="49.9"/>
	<line class="st0" x1="51.2" y1="45.5" x2="51.2" y2="45.6"/>
	<line class="st0" x1="53.7" y1="41.7" x2="53.7" y2="41.7"/>
	<line class="st0" x1="51.2" y1="45.5" x2="53.7" y2="41.7"/>
	<line class="st0" x1="47.3" y1="41.7" x2="49.4" y2="38.1"/>
	<line class="st0" x1="44.8" y1="34.8" x2="47.4" y2="30.8"/>
	<line class="st0" x1="51.8" y1="38.1" x2="51.8" y2="38.1"/>
	<line class="st0" x1="51.8" y1="38.1" x2="53.9" y2="34.9"/>
	<line class="st0" x1="54.1" y1="26.9" x2="51.8" y2="30.6"/>
	<line class="st0" x1="54.1" y1="26.9" x2="54.1" y2="26.9"/>
	<line class="st0" x1="49.5" y1="22.8" x2="47.1" y2="26.9"/>
	<line class="st0" x1="49.5" y1="22.8" x2="49.6" y2="22.8"/>
	<line class="st0" x1="53.9" y1="19.4" x2="53.9" y2="19.4"/>
	<line class="st0" x1="51.7" y1="22.8" x2="53.9" y2="19.4"/>
	<line class="st0" x1="51.7" y1="22.8" x2="51.7" y2="22.9"/>
	<line class="st0" x1="47.2" y1="16.1" x2="47.3" y2="16.1"/>
	<line class="st0" x1="47.2" y1="16.1" x2="45.3" y2="19.4"/>
	<line class="st0" x1="51.4" y1="16.1" x2="53.8" y2="12.1"/>
	<line class="st0" x1="53.8" y1="12.1" x2="53.8" y2="12.1"/>
	<line class="st0" x1="46.2" y1="12.1" x2="48.8" y2="8"/>
	<line class="st0" x1="53.9" y1="3.8" x2="51.3" y2="7.9"/>
	<line class="st0" x1="45.1" y1="3.8" x2="45.1" y2="3.8"/>
	<line class="st0" x1="45.1" y1="3.8" x2="47.4" y2="0"/>
	<line class="st0" x1="38.8" y1="45.6" x2="38.8" y2="45.5"/>
	<line class="st0" x1="38.8" y1="45.5" x2="41.1" y2="41.7"/>
	<line class="st0" x1="41.1" y1="41.7" x2="41.1" y2="41.7"/>
	<line class="st0" x1="27.1" y1="41.7" x2="27.1" y2="41.7"/>
	<line class="st0" x1="24.8" y1="45.6" x2="24.8" y2="45.5"/>
	<line class="st0" x1="24.8" y1="45.5" x2="27.1" y2="41.7"/>
	<line class="st0" x1="12.6" y1="41.7" x2="10.3" y2="45.5"/>
	<line class="st0" x1="12.6" y1="41.7" x2="12.6" y2="41.7"/>
	<line class="st0" x1="10.3" y1="45.6" x2="10.3" y2="45.5"/>
	<line class="st0" x1="32.4" y1="41.7" x2="34.6" y2="38.1"/>
	<line class="st0" x1="18.8" y1="41.7" x2="20.9" y2="38.1"/>
	<line class="st0" x1="5.5" y1="41.7" x2="7.6" y2="38.1"/>
	<line class="st0" x1="40" y1="38.1" x2="41.9" y2="34.9"/>
	<line class="st0" x1="25.8" y1="38.1" x2="27.7" y2="34.9"/>
	<line class="st0" x1="10.7" y1="38.1" x2="12.6" y2="34.9"/>
	<line class="st0" x1="30.5" y1="34.8" x2="33.1" y2="30.8"/>
	<line class="st0" x1="16.9" y1="34.8" x2="19.4" y2="30.8"/>
	<line class="st0" x1="3.9" y1="34.8" x2="6.4" y2="30.8"/>
	<line class="st0" x1="40.9" y1="26.9" x2="40.9" y2="26.9"/>
	<line class="st0" x1="40.9" y1="26.9" x2="38.6" y2="30.6"/>
	<line class="st0" x1="27.5" y1="26.9" x2="27.5" y2="26.9"/>
	<line class="st0" x1="27.5" y1="26.9" x2="25.3" y2="30.6"/>
	<line class="st0" x1="12.5" y1="26.9" x2="10.3" y2="30.6"/>
	<line class="st0" x1="12.5" y1="26.9" x2="12.5" y2="26.9"/>
	<line class="st0" x1="34.6" y1="22.8" x2="34.6" y2="22.8"/>
	<line class="st0" x1="34.6" y1="22.8" x2="32.2" y2="26.9"/>
	<line class="st0" x1="18.5" y1="26.9" x2="20.9" y2="22.8"/>
	<line class="st0" x1="20.9" y1="22.8" x2="20.9" y2="22.8"/>
	<line class="st0" x1="7.5" y1="22.8" x2="7.5" y2="22.8"/>
	<line class="st0" x1="7.5" y1="22.8" x2="5.1" y2="26.9"/>
	<line class="st0" x1="41.9" y1="19.4" x2="41.9" y2="19.4"/>
	<line class="st0" x1="39.9" y1="22.8" x2="41.9" y2="19.4"/>
	<line class="st0" x1="28" y1="19.4" x2="26.1" y2="22.8"/>
	<line class="st0" x1="28" y1="19.4" x2="28.1" y2="19.4"/>
	<line class="st0" x1="13" y1="19.4" x2="13.1" y2="19.4"/>
	<line class="st0" x1="13" y1="19.4" x2="11.1" y2="22.8"/>
	<line class="st0" x1="32.6" y1="16.1" x2="30.6" y2="19.4"/>
	<line class="st0" x1="32.6" y1="16.1" x2="32.6" y2="16.1"/>
	<line class="st0" x1="19.3" y1="16.1" x2="19.3" y2="16.1"/>
	<line class="st0" x1="17.3" y1="19.4" x2="19.3" y2="16.1"/>
	<line class="st0" x1="6.6" y1="16.1" x2="4.6" y2="19.4"/>
	<line class="st0" x1="6.6" y1="16.1" x2="6.6" y2="16.1"/>
	<line class="st0" x1="41" y1="12.1" x2="41" y2="12.1"/>
	<line class="st0" x1="38.6" y1="16.1" x2="41" y2="12.1"/>
	<line class="st0" x1="27.5" y1="12.1" x2="27.6" y2="12.1"/>
	<line class="st0" x1="27.5" y1="12.1" x2="25.1" y2="16.1"/>
	<line class="st0" x1="12.7" y1="12.1" x2="10.3" y2="16.1"/>
	<line class="st0" x1="12.7" y1="12.1" x2="12.8" y2="12.1"/>
	<line class="st0" x1="34.8" y1="7.9" x2="34.8" y2="7.9"/>
	<line class="st0" x1="34.8" y1="7.9" x2="32.3" y2="12.1"/>
	<line class="st0" x1="18.6" y1="12.1" x2="21.1" y2="7.9"/>
	<line class="st0" x1="8" y1="7.9" x2="8" y2="7.9"/>
	<line class="st0" x1="8" y1="7.9" x2="5.4" y2="12.1"/>
	<line class="st0" x1="42" y1="3.8" x2="42" y2="3.7"/>
	<line class="st0" x1="42" y1="3.8" x2="39.5" y2="7.9"/>
	<line class="st0" x1="25.8" y1="7.9" x2="28.3" y2="3.8"/>
	<line class="st0" x1="28.4" y1="3.7" x2="28.3" y2="3.8"/>
	<line class="st0" x1="13.5" y1="3.8" x2="10.9" y2="7.9"/>
	<line class="st0" x1="30.8" y1="3.8" x2="30.8" y2="3.8"/>
	<line class="st0" x1="30.8" y1="3.8" x2="33.1" y2="0"/>
	<line class="st0" x1="17.3" y1="3.8" x2="17.3" y2="3.8"/>
	<line class="st0" x1="17.3" y1="3.8" x2="19.6" y2="0"/>
	<line class="st0" x1="4.6" y1="3.8" x2="4.6" y2="3.8"/>
	<line class="st0" x1="6.9" y1="0" x2="4.6" y2="3.8"/>
	<line class="st0" x1="47.9" y1="53.4" x2="47.4" y2="54.1"/>
	<line class="st0" x1="33.5" y1="53.4" x2="33" y2="54.1"/>
	<line class="st0" x1="20.1" y1="53.4" x2="19.6" y2="54.1"/>
	<line class="st0" x1="7.3" y1="53.4" x2="6.9" y2="54.1"/>
	<line class="st1" x1="33.6" y1="33.7" x2="33.6" y2="33.7"/>
	<line class="st1" x1="37" y1="32" x2="37" y2="32"/>
	<line class="st1" x1="40" y1="33.8" x2="40" y2="33.8"/>
	<line class="st1" x1="43.4" y1="32" x2="43.4" y2="32"/>
	<line class="st1" x1="19.6" y1="33.7" x2="19.6" y2="33.7"/>
	<line class="st1" x1="23.1" y1="32" x2="23.1" y2="32"/>
	<line class="st1" x1="26" y1="33.8" x2="26" y2="33.8"/>
	<line class="st1" x1="29.4" y1="32" x2="29.4" y2="32"/>
	<line class="st1" x1="6.3" y1="33.7" x2="6.3" y2="33.7"/>
	<line class="st1" x1="9.7" y1="32" x2="9.7" y2="32"/>
	<line class="st1" x1="12.6" y1="33.8" x2="12.6" y2="33.8"/>
	<line class="st1" x1="16.1" y1="32" x2="16.1" y2="32"/>
	<line class="st1" x1="47.3" y1="33.7" x2="47.3" y2="33.7"/>
	<line class="st1" x1="50.7" y1="32" x2="50.7" y2="32"/>
	<line class="st1" x1="53.6" y1="33.8" x2="53.6" y2="33.8"/>
	<line class="st1" x1="41.3" y1="44.5" x2="41.3" y2="44.5"/>
	<line class="st1" x1="44.7" y1="42.7" x2="44.7" y2="42.7"/>
	<line class="st1" x1="47.6" y1="44.5" x2="47.6" y2="44.5"/>
	<line class="st1" x1="51.1" y1="42.8" x2="51.1" y2="42.8"/>
	<line class="st1" x1="27.8" y1="44.5" x2="27.8" y2="44.5"/>
	<line class="st1" x1="31.2" y1="42.7" x2="31.2" y2="42.7"/>
	<line class="st1" x1="34.1" y1="44.5" x2="34.1" y2="44.5"/>
	<line class="st1" x1="37.6" y1="42.8" x2="37.6" y2="42.8"/>
	<line class="st1" x1="14" y1="44.5" x2="14" y2="44.5"/>
	<line class="st1" x1="17.4" y1="42.7" x2="17.4" y2="42.7"/>
	<line class="st1" x1="20.3" y1="44.5" x2="20.3" y2="44.5"/>
	<line class="st1" x1="23.7" y1="42.8" x2="23.7" y2="42.8"/>
	<line class="st1" x1="0.5" y1="44.5" x2="0.5" y2="44.5"/>
	<line class="st1" x1="3.9" y1="42.7" x2="3.9" y2="42.7"/>
	<line class="st1" x1="6.8" y1="44.5" x2="6.8" y2="44.5"/>
	<line class="st1" x1="10.2" y1="42.8" x2="10.2" y2="42.8"/>
	<line class="st1" x1="5.5" y1="48.8" x2="5.5" y2="48.8"/>
	<line class="st1" x1="8.9" y1="47" x2="8.9" y2="47"/>
	<line class="st1" x1="11.8" y1="48.9" x2="11.8" y2="48.9"/>
	<line class="st1" x1="15.2" y1="47.1" x2="15.2" y2="47.1"/>
	<line class="st1" x1="19.3" y1="48.8" x2="19.3" y2="48.8"/>
	<line class="st1" x1="22.7" y1="47" x2="22.7" y2="47"/>
	<line class="st1" x1="25.6" y1="48.9" x2="25.6" y2="48.9"/>
	<line class="st1" x1="29.1" y1="47.1" x2="29.1" y2="47.1"/>
	<line class="st1" x1="33.3" y1="48.8" x2="33.3" y2="48.8"/>
	<line class="st1" x1="36.7" y1="47" x2="36.7" y2="47"/>
	<line class="st1" x1="39.6" y1="48.9" x2="39.6" y2="48.9"/>
	<line class="st1" x1="43" y1="47.1" x2="43" y2="47.1"/>
	<line class="st1" x1="41.1" y1="51" x2="41.1" y2="51"/>
	<line class="st1" x1="45.5" y1="52" x2="45.5" y2="52"/>
	<line class="st1" x1="49.3" y1="50.8" x2="49.3" y2="50.8"/>
	<line class="st1" x1="13.6" y1="51" x2="13.6" y2="51"/>
	<line class="st1" x1="18" y1="52" x2="18" y2="52"/>
	<line class="st1" x1="21.8" y1="50.8" x2="21.8" y2="50.8"/>
	<line class="st1" x1="22.1" y1="39.6" x2="22.1" y2="39.6"/>
	<line class="st1" x1="26.5" y1="40.6" x2="26.5" y2="40.6"/>
	<line class="st1" x1="30.3" y1="39.4" x2="30.3" y2="39.4"/>
	<line class="st1" x1="1" y1="40.6" x2="1" y2="40.6"/>
	<line class="st1" x1="4.8" y1="39.4" x2="4.8" y2="39.4"/>
	<line class="st1" x1="50.3" y1="39.6" x2="50.3" y2="39.6"/>
	<line class="st1" x1="42.8" y1="36.1" x2="42.8" y2="36.1"/>
	<line class="st1" x1="47.1" y1="37.1" x2="47.1" y2="37.1"/>
	<line class="st1" x1="51" y1="35.9" x2="51" y2="35.9"/>
	<line class="st1" x1="15.3" y1="36.1" x2="15.3" y2="36.1"/>
	<line class="st1" x1="19.6" y1="37.1" x2="19.6" y2="37.1"/>
	<line class="st1" x1="23.5" y1="35.9" x2="23.5" y2="35.9"/>
	<line class="st1" x1="30.3" y1="20.8" x2="30.3" y2="20.8"/>
	<line class="st1" x1="34.6" y1="21.8" x2="34.6" y2="21.8"/>
	<line class="st1" x1="38.5" y1="20.6" x2="38.5" y2="20.6"/>
	<line class="st1" x1="27" y1="51.8" x2="27" y2="51.8"/>
	<line class="st1" x1="31.3" y1="50.8" x2="31.3" y2="50.8"/>
	<line class="st1" x1="35.1" y1="52" x2="35.1" y2="52"/>
	<line class="st1" x1="3.5" y1="50.8" x2="3.5" y2="50.8"/>
	<line class="st1" x1="7.3" y1="52" x2="7.3" y2="52"/>
	<line class="st1" x1="53.3" y1="51.8" x2="53.3" y2="51.8"/>
	<line class="st1" x1="36.8" y1="40.2" x2="36.8" y2="40.2"/>
	<line class="st1" x1="41.1" y1="39.1" x2="41.1" y2="39.1"/>
	<line class="st1" x1="45" y1="40.3" x2="45" y2="40.3"/>
	<line class="st1" x1="9" y1="40.3" x2="9" y2="40.3"/>
	<line class="st1" x1="13.3" y1="39.3" x2="13.3" y2="39.3"/>
	<line class="st1" x1="17.1" y1="40.5" x2="17.1" y2="40.5"/>
	<line class="st1" x1="29.5" y1="37" x2="29.5" y2="37"/>
	<line class="st1" x1="33.8" y1="36" x2="33.8" y2="36"/>
	<line class="st1" x1="37.6" y1="37.2" x2="37.6" y2="37.2"/>
	<line class="st1" x1="1" y1="37" x2="1" y2="37"/>
	<line class="st1" x1="5.3" y1="36" x2="5.3" y2="36"/>
	<line class="st1" x1="9.1" y1="37.2" x2="9.1" y2="37.2"/>
	<line class="st1" x1="2.1" y1="33.2" x2="2.1" y2="33.2"/>
	<line class="st1" x1="15.3" y1="21.3" x2="15.3" y2="21.3"/>
	<line class="st1" x1="19.6" y1="20.3" x2="19.6" y2="20.3"/>
	<line class="st1" x1="23.5" y1="21.5" x2="23.5" y2="21.5"/>
	<line class="st1" x1="42.8" y1="21.5" x2="42.8" y2="21.5"/>
	<line class="st1" x1="47.1" y1="20.5" x2="47.1" y2="20.5"/>
	<line class="st1" x1="51" y1="21.7" x2="51" y2="21.7"/>
	<line class="st1" x1="34.6" y1="18.3" x2="34.6" y2="18.3"/>
	<line class="st1" x1="39" y1="17.3" x2="39" y2="17.3"/>
	<line class="st1" x1="42.8" y1="18.5" x2="42.8" y2="18.5"/>
	<line class="st1" x1="7.6" y1="18.3" x2="7.6" y2="18.3"/>
	<line class="st1" x1="12" y1="17.3" x2="12" y2="17.3"/>
	<line class="st1" x1="15.8" y1="18.5" x2="15.8" y2="18.5"/>
	<line class="st1" x1="1" y1="20.8" x2="1" y2="20.8"/>
	<line class="st1" x1="5.3" y1="21.8" x2="5.3" y2="21.8"/>
	<line class="st1" x1="9.1" y1="20.6" x2="9.1" y2="20.6"/>
	<line class="st1" x1="3.3" y1="17.4" x2="3.3" y2="17.4"/>
	<line class="st1" x1="48.5" y1="17.6" x2="48.5" y2="17.6"/>
	<line class="st1" x1="52.8" y1="18.6" x2="52.8" y2="18.6"/>
	<line class="st1" x1="20.8" y1="17.6" x2="20.8" y2="17.6"/>
	<line class="st1" x1="25.1" y1="18.6" x2="25.1" y2="18.6"/>
	<line class="st1" x1="29" y1="17.4" x2="29" y2="17.4"/>
	<line class="st1" x1="46.8" y1="48.8" x2="46.8" y2="48.8"/>
	<line class="st1" x1="50.2" y1="47" x2="50.2" y2="47"/>
	<line class="st1" x1="53.1" y1="48.9" x2="53.1" y2="48.9"/>
	<line class="st1" x1="41.1" y1="29.8" x2="41.1" y2="29.8"/>
	<line class="st1" x1="44.6" y1="28" x2="44.6" y2="28"/>
	<line class="st1" x1="47.5" y1="29.9" x2="47.5" y2="29.9"/>
	<line class="st1" x1="50.9" y1="28.1" x2="50.9" y2="28.1"/>
	<line class="st1" x1="27.6" y1="29.8" x2="27.6" y2="29.8"/>
	<line class="st1" x1="31.1" y1="28" x2="31.1" y2="28"/>
	<line class="st1" x1="34" y1="29.9" x2="34" y2="29.9"/>
	<line class="st1" x1="37.4" y1="28.1" x2="37.4" y2="28.1"/>
	<line class="st1" x1="14.1" y1="29.8" x2="14.1" y2="29.8"/>
	<line class="st1" x1="17.6" y1="28" x2="17.6" y2="28"/>
	<line class="st1" x1="20.5" y1="29.9" x2="20.5" y2="29.9"/>
	<line class="st1" x1="23.9" y1="28.1" x2="23.9" y2="28.1"/>
	<line class="st1" x1="3.1" y1="28" x2="3.1" y2="28"/>
	<line class="st1" x1="6" y1="29.9" x2="6" y2="29.9"/>
	<line class="st1" x1="9.4" y1="28.1" x2="9.4" y2="28.1"/>
	<line class="st1" x1="7.6" y1="25.8" x2="7.6" y2="25.8"/>
	<line class="st1" x1="11.1" y1="24" x2="11.1" y2="24"/>
	<line class="st1" x1="14" y1="25.9" x2="14" y2="25.9"/>
	<line class="st1" x1="17.4" y1="24.1" x2="17.4" y2="24.1"/>
	<line class="st1" x1="21.3" y1="25.8" x2="21.3" y2="25.8"/>
	<line class="st1" x1="24.7" y1="24" x2="24.7" y2="24"/>
	<line class="st1" x1="27.6" y1="25.9" x2="27.6" y2="25.9"/>
	<line class="st1" x1="31.1" y1="24.1" x2="31.1" y2="24.1"/>
	<line class="st1" x1="35.3" y1="25.8" x2="35.3" y2="25.8"/>
	<line class="st1" x1="38.7" y1="24" x2="38.7" y2="24"/>
	<line class="st1" x1="41.6" y1="25.9" x2="41.6" y2="25.9"/>
	<line class="st1" x1="45.1" y1="24.1" x2="45.1" y2="24.1"/>
	<line class="st1" x1="49.1" y1="25.8" x2="49.1" y2="25.8"/>
	<line class="st1" x1="52.6" y1="24" x2="52.6" y2="24"/>
	<line class="st1" x1="0.8" y1="25.9" x2="0.8" y2="25.9"/>
	<line class="st1" x1="4.2" y1="24.1" x2="4.2" y2="24.1"/>
	<line class="st1" x1="13.6" y1="15" x2="13.6" y2="15"/>
	<line class="st1" x1="17.1" y1="13.2" x2="17.1" y2="13.2"/>
	<line class="st1" x1="20" y1="15" x2="20" y2="15"/>
	<line class="st1" x1="23.4" y1="13.3" x2="23.4" y2="13.3"/>
	<line class="st1" x1="2.6" y1="13.2" x2="2.6" y2="13.2"/>
	<line class="st1" x1="5.5" y1="15" x2="5.5" y2="15"/>
	<line class="st1" x1="8.9" y1="13.3" x2="8.9" y2="13.3"/>
	<line class="st1" x1="27.8" y1="15" x2="27.8" y2="15"/>
	<line class="st1" x1="31.2" y1="13.2" x2="31.2" y2="13.2"/>
	<line class="st1" x1="34.1" y1="15" x2="34.1" y2="15"/>
	<line class="st1" x1="37.6" y1="13.3" x2="37.6" y2="13.3"/>
	<line class="st1" x1="41" y1="15" x2="41" y2="15"/>
	<line class="st1" x1="44.4" y1="13.2" x2="44.4" y2="13.2"/>
	<line class="st1" x1="47.3" y1="15" x2="47.3" y2="15"/>
	<line class="st1" x1="50.7" y1="13.3" x2="50.7" y2="13.3"/>
	<line class="st1" x1="35.6" y1="11" x2="35.6" y2="11"/>
	<line class="st1" x1="39.1" y1="9.2" x2="39.1" y2="9.2"/>
	<line class="st1" x1="42" y1="11" x2="42" y2="11"/>
	<line class="st1" x1="45.4" y1="9.3" x2="45.4" y2="9.3"/>
	<line class="st1" x1="21.5" y1="11" x2="21.5" y2="11"/>
	<line class="st1" x1="24.9" y1="9.2" x2="24.9" y2="9.2"/>
	<line class="st1" x1="27.8" y1="11" x2="27.8" y2="11"/>
	<line class="st1" x1="31.2" y1="9.3" x2="31.2" y2="9.3"/>
	<line class="st1" x1="7.6" y1="11" x2="7.6" y2="11"/>
	<line class="st1" x1="11.1" y1="9.2" x2="11.1" y2="9.2"/>
	<line class="st1" x1="14" y1="11" x2="14" y2="11"/>
	<line class="st1" x1="17.4" y1="9.3" x2="17.4" y2="9.3"/>
	<line class="st1" x1="0.8" y1="11" x2="0.8" y2="11"/>
	<line class="st1" x1="4.2" y1="9.3" x2="4.2" y2="9.3"/>
	<line class="st1" x1="49.6" y1="11" x2="49.6" y2="11"/>
	<line class="st1" x1="53.1" y1="9.2" x2="53.1" y2="9.2"/>
	<line class="st1" x1="41.6" y1="6.6" x2="41.6" y2="6.6"/>
	<line class="st1" x1="45.1" y1="4.9" x2="45.1" y2="4.9"/>
	<line class="st1" x1="48" y1="6.7" x2="48" y2="6.7"/>
	<line class="st1" x1="51.4" y1="5" x2="51.4" y2="5"/>
	<line class="st1" x1="28.5" y1="6.6" x2="28.5" y2="6.6"/>
	<line class="st1" x1="31.9" y1="4.9" x2="31.9" y2="4.9"/>
	<line class="st1" x1="34.8" y1="6.7" x2="34.8" y2="6.7"/>
	<line class="st1" x1="38.2" y1="5" x2="38.2" y2="5"/>
	<line class="st1" x1="14.5" y1="6.6" x2="14.5" y2="6.6"/>
	<line class="st1" x1="17.9" y1="4.9" x2="17.9" y2="4.9"/>
	<line class="st1" x1="20.8" y1="6.7" x2="20.8" y2="6.7"/>
	<line class="st1" x1="24.2" y1="5" x2="24.2" y2="5"/>
	<line class="st1" x1="0.5" y1="6.6" x2="0.5" y2="6.6"/>
	<line class="st1" x1="4" y1="4.9" x2="4" y2="4.9"/>
	<line class="st1" x1="6.9" y1="6.7" x2="6.9" y2="6.7"/>
	<line class="st1" x1="10.3" y1="5" x2="10.3" y2="5"/>
	<line class="st1" x1="7.3" y1="2.3" x2="7.3" y2="2.3"/>
	<line class="st1" x1="10.7" y1="0.5" x2="10.7" y2="0.5"/>
	<line class="st1" x1="13.6" y1="2.4" x2="13.6" y2="2.4"/>
	<line class="st1" x1="17.1" y1="0.6" x2="17.1" y2="0.6"/>
	<line class="st1" x1="3.1" y1="0.6" x2="3.1" y2="0.6"/>
	<line class="st1" x1="20" y1="2.3" x2="20" y2="2.3"/>
	<line class="st1" x1="23.4" y1="0.5" x2="23.4" y2="0.5"/>
	<line class="st1" x1="26.3" y1="2.4" x2="26.3" y2="2.4"/>
	<line class="st1" x1="29.7" y1="0.6" x2="29.7" y2="0.6"/>
	<line class="st1" x1="33.6" y1="2.3" x2="33.6" y2="2.3"/>
	<line class="st1" x1="37.1" y1="0.5" x2="37.1" y2="0.5"/>
	<line class="st1" x1="40" y1="2.4" x2="40" y2="2.4"/>
	<line class="st1" x1="43.4" y1="0.6" x2="43.4" y2="0.6"/>
	<line class="st1" x1="47.5" y1="2.3" x2="47.5" y2="2.3"/>
	<line class="st1" x1="51" y1="0.5" x2="51" y2="0.5"/>
	<line class="st1" x1="53.9" y1="2.4" x2="53.9" y2="2.4"/>
</g>
</svg>
