<?xml version="1.0" encoding="utf-8"?>
<!-- Generator: Adobe Illustrator 23.0.1, SVG Export Plug-In . SVG Version: 6.00 Build 0)  -->
<svg version="1.1" id="Layer_1" xmlns="http://www.w3.org/2000/svg" xmlns:xlink="http://www.w3.org/1999/xlink" x="0px" y="0px"
	 viewBox="0 0 54.1 54.1" style="enable-background:new 0 0 54.1 54.1;" xml:space="preserve">
<style type="text/css">
	.st0{clip-path:url(#SVGID_2_);fill:none;stroke:#231F20;stroke-width:0.3;}
</style>
<g>
	<defs>
		<rect id="SVGID_1_" x="0" y="0" width="54.1" height="54.1"/>
	</defs>
	<clipPath id="SVGID_2_">
		<use xlink:href="#SVGID_1_"  style="overflow:visible;"/>
	</clipPath>
	<line class="st0" x1="54.1" y1="21.1" x2="54.1" y2="21.4"/>
	<line class="st0" x1="54.1" y1="50.2" x2="54.1" y2="50.2"/>
	<line class="st0" x1="0" y1="50.2" x2="0" y2="50.2"/>
	<line class="st0" x1="54.1" y1="36.3" x2="54.1" y2="37"/>
	<path class="st0" d="M16.1,3.8c-0.1,0-0.1,0-0.2,0h-0.9"/>
	<path class="st0" d="M16.1,3.8c3.3-0.5,3.3-3.4-0.2-3.8"/>
	<path class="st0" d="M10.2,3.9H8.5c-0.1,0-0.1,0-0.2,0"/>
	<line class="st0" x1="10.2" y1="3.9" x2="15.1" y2="3.9"/>
	<path class="st0" d="M8.5,0C5.1,0.5,5.2,3.3,8.4,3.8"/>
	<line class="st0" x1="8.5" y1="0" x2="15.9" y2="0"/>
	<path class="st0" d="M21.1,3.8c-3.2-0.6-3.3-3.3,0.2-3.8"/>
	<path class="st0" d="M24.9,3.9h4.5c3.5-0.4,3.6-3.4,0-3.9"/>
	<path class="st0" d="M21.1,3.8c0.1,0,0.1,0,0.2,0h3.7"/>
	<line class="st0" x1="29.4" y1="0" x2="21.3" y2="0"/>
	<path class="st0" d="M44,3.8c3.3-0.5,3.3-3.4-0.2-3.8"/>
	<line class="st0" x1="38.6" y1="3.9" x2="43.6" y2="3.9"/>
	<path class="st0" d="M43.6,3.9h0.3c0.1,0,0.1,0,0.2,0"/>
	<path class="st0" d="M34.8,0c-3.4,0.5-3.3,3.3-0.2,3.8"/>
	<path class="st0" d="M38.6,3.9h-3.8c-0.1,0-0.1,0-0.2,0"/>
	<line class="st0" x1="34.8" y1="0" x2="43.8" y2="0"/>
	<path class="st0" d="M10.2,3.9c-0.1,0-0.1,0-0.2,0H8.4"/>
	<line class="st0" x1="8.4" y1="3.8" x2="3.4" y2="3.8"/>
	<path class="st0" d="M2.4,3.9c0,0,0.1,0,0.1,0h0.8"/>
	<path class="st0" d="M10.2,3.9c3.4,0.6,3.3,3.5-0.2,3.8H2.6c-3.3-0.4-3.5-3.2-0.1-3.8"/>
	<path class="st0" d="M15.1,3.9c-3.3,0.6-3.1,3.4,0.1,3.8h9.6c3.4-0.4,3.6-3.3,0.2-3.8"/>
	<path class="st0" d="M21.1,3.8h3.7c0.1,0,0.1,0,0.2,0"/>
	<path class="st0" d="M16.1,3.8h-0.9c0,0-0.1,0-0.1,0"/>
	<line class="st0" x1="21.1" y1="3.8" x2="16.1" y2="3.8"/>
	<path class="st0" d="M38.6,3.9c3.4,0.6,3.3,3.5-0.2,3.8h-8.3c-3.3-0.4-3.5-3.3,0-3.9h4.5"/>
	<path class="st0" d="M38.6,3.9c-0.1,0-0.1,0-0.2,0h-3.8"/>
	<path class="st0" d="M51.6,3.9c3.4,0.6,3.3,3.5-0.2,3.8h-7.8c-3.3-0.4-3.5-3.2-0.1-3.8"/>
	<line class="st0" x1="49" y1="3.8" x2="44" y2="3.8"/>
	<path class="st0" d="M51.6,3.9c-0.1,0-0.1,0-0.2,0H49"/>
	<path class="st0" d="M43.6,3.9c0,0,0.1,0,0.1,0H44"/>
	<line class="st0" x1="1.7" y1="11.6" x2="0" y2="11.6"/>
	<path class="st0" d="M4.6,11.5c3.3-0.5,3.3-3.4-0.2-3.8H0"/>
	<path class="st0" d="M4.6,11.5c-0.1,0-0.1,0-0.2,0H1.7"/>
	<path class="st0" d="M14.4,11.6H9.6c-3.3-0.4-3.5-3.3,0-3.8h8c3.5,0.4,3.5,3.3,0.2,3.8"/>
	<path class="st0" d="M14.4,11.6h3.2c0.1,0,0.1,0,0.2,0"/>
	<path class="st0" d="M29.2,11.6h2c0.1,0,0.1,0,0.2,0"/>
	<line class="st0" x1="24.3" y1="11.6" x2="29.2" y2="11.6"/>
	<path class="st0" d="M33.8,9.8c0-0.1,0-0.1,0-0.2"/>
	<path class="st0" d="M33.8,9.8c-0.1,0.8-0.9,1.5-2.4,1.8"/>
	<path class="st0" d="M24.3,11.6h-1.4c-0.1,0-0.1,0-0.2,0"/>
	<path class="st0" d="M22.7,11.5c-3.2-0.5-3.2-3.3,0.2-3.8h8.3c1.7,0.2,2.6,1,2.6,1.8"/>
	<path class="st0" d="M37.7,11.6h-1.3c-0.1,0-0.1,0-0.2,0"/>
	<path class="st0" d="M46.3,11.5c3.3-0.5,3.3-3.4-0.2-3.8h-9.8c-1.6,0.2-2.5,1-2.5,1.8"/>
	<path class="st0" d="M36.2,11.5c-1.5-0.2-2.3-1-2.4-1.8"/>
	<line class="st0" x1="37.7" y1="11.6" x2="42.6" y2="11.6"/>
	<path class="st0" d="M46.3,11.5c-0.1,0-0.1,0-0.2,0h-3.6"/>
	<path class="st0" d="M33.8,9.5c0,0.1,0,0.1,0,0.2"/>
	<path class="st0" d="M1.7,11.6C1,11.7,0.4,11.9,0,12.3"/>
	<path class="st0" d="M4.6,11.5H1.9c0,0-0.1,0-0.1,0"/>
	<path class="st0" d="M4.6,11.5h4.7c3.6,0.5,3.5,3.5,0,3.9H1.9C1.1,15.3,0.4,15,0,14.7"/>
	<path class="st0" d="M24.3,11.6c-0.1,0-0.1,0-0.2,0h-1.4"/>
	<line class="st0" x1="22.7" y1="11.5" x2="17.8" y2="11.5"/>
	<path class="st0" d="M14.4,11.6c0,0,0.1,0,0.1,0h3.3"/>
	<path class="st0" d="M24.3,11.6c3.4,0.6,3.3,3.5-0.2,3.8h-9.6c-3.3-0.4-3.5-3.2-0.1-3.8"/>
	<path class="st0" d="M29.2,11.6c0,0,0.1,0,0.1,0h2"/>
	<path class="st0" d="M37.7,11.6c-0.1,0-0.1,0-0.2,0h-1.3"/>
	<line class="st0" x1="36.2" y1="11.5" x2="31.4" y2="11.5"/>
	<path class="st0" d="M37.7,11.6c3.4,0.6,3.3,3.5-0.2,3.8h-8.2c-3.3-0.4-3.5-3.2-0.1-3.8"/>
	<path class="st0" d="M42.6,11.6c-3.3,0.6-3.1,3.4,0.1,3.8h8c3.5-0.4,3.6-3.4,0-3.9h-4.4"/>
	<path class="st0" d="M46.3,11.5h-3.6c0,0-0.1,0-0.1,0"/>
	<path class="st0" d="M0,19.3h3.3c3.5-0.4,3.6-3.4,0-3.9H0"/>
	<path class="st0" d="M8.5,15.4c-3.5,0.5-3.3,3.4,0,3.9H16c3.5-0.4,3.6-3.4,0-3.9H8.5z"/>
	<path class="st0" d="M29.3,15.4h-8c-3.5,0.5-3.3,3.4,0,3.9h8C32.8,18.9,32.8,15.9,29.3,15.4z"/>
	<path class="st0" d="M43.8,15.4h-9.4c-3.5,0.5-3.3,3.4,0,3.9h9.4C47.3,18.9,47.4,15.9,43.8,15.4z"/>
	<path class="st0" d="M12.4,21.5c0-0.1,0-0.3,0-0.4"/>
	<path class="st0" d="M12.4,21c-0.1-0.8-1-1.5-2.6-1.7H2.6c-3.5,0.6-3.3,3.4,0,3.9h7.2c1.6-0.2,2.5-0.9,2.6-1.7"/>
	<path class="st0" d="M12.4,21.5c0.1,0.8,1,1.5,2.5,1.7h9.8c3.5-0.4,3.6-3.4,0-3.9H15c-1.6,0.3-2.4,1-2.5,1.7"/>
	<path class="st0" d="M12.4,21c0,0.1,0,0.3,0,0.4"/>
	<path class="st0" d="M30,19.3c-3.5,0.6-3.3,3.4,0,3.9h8.5c3.5-0.4,3.6-3.4,0-3.9H30z"/>
	<path class="st0" d="M54.1,21.1c0,0.1,0,0.2,0,0.3"/>
	<path class="st0" d="M54.1,21.1c-0.1-0.8-1-1.6-2.6-1.8h-7.7c-3.5,0.6-3.3,3.4,0,3.9h7.7c1.6-0.2,2.5-0.9,2.6-1.7"/>
	<path class="st0" d="M0,27h4c3.5-0.4,3.6-3.4,0-3.9H0"/>
	<path class="st0" d="M9.2,27h8.3c3.5-0.4,3.6-3.4,0-3.9H9.2C5.8,23.7,5.9,26.6,9.2,27z"/>
	<path class="st0" d="M22.7,27h8.4c3.5-0.4,3.6-3.4,0-3.9h-8.4C19.3,23.7,19.4,26.6,22.7,27z"/>
	<path class="st0" d="M46,27c3.5-0.4,3.6-3.4,0-3.9h-9.7c-3.5,0.5-3.3,3.4,0,3.9H46z"/>
	<path class="st0" d="M8,30.9H9c0.1,0,0.1,0,0.2,0"/>
	<path class="st0" d="M1.5,30.9c-0.6-0.1-1.1-0.3-1.5-0.5"/>
	<path class="st0" d="M3.1,30.9H1.6c-0.1,0-0.1,0-0.2,0"/>
	<path class="st0" d="M9.2,30.9c3.3-0.5,3.3-3.4-0.2-3.8H1.6C1,27.2,0.4,27.4,0,27.6"/>
	<line class="st0" x1="3.1" y1="30.9" x2="8" y2="30.9"/>
	<path class="st0" d="M16,30.9h-1.8c-0.1,0-0.1,0-0.2,0"/>
	<path class="st0" d="M21,30.9h3c0.1,0,0.1,0,0.2,0"/>
	<line class="st0" x1="16" y1="30.9" x2="21" y2="30.9"/>
	<path class="st0" d="M24.2,30.9c3.3-0.5,3.3-3.4-0.2-3.8h-9.8c-3.4,0.5-3.3,3.3-0.2,3.8"/>
	<path class="st0" d="M37.5,30.9c-0.1,0-0.1,0-0.2,0h-2.7"/>
	<path class="st0" d="M29.2,30.9c0.1,0,0.1,0,0.2,0h0.4"/>
	<line class="st0" x1="34.6" y1="30.9" x2="29.7" y2="30.9"/>
	<path class="st0" d="M29.2,30.9c-3.2-0.5-3.2-3.3,0.2-3.8h8c3.5,0.4,3.5,3.3,0.2,3.8"/>
	<line class="st0" x1="43.9" y1="30.9" x2="48.8" y2="30.9"/>
	<path class="st0" d="M50.8,30.9c-0.1,0-0.1,0-0.2,0h-1.8"/>
	<path class="st0" d="M42.4,30.9c0.1,0,0.1,0,0.2,0h1.3"/>
	<path class="st0" d="M53.2,28.7c0,0.2,0,0.3,0,0.5"/>
	<path class="st0" d="M53.2,29.2c-0.1,0.7-1,1.4-2.4,1.6"/>
	<path class="st0" d="M42.4,30.9c-3.2-0.5-3.2-3.3,0.2-3.8h8c1.6,0.2,2.5,0.9,2.6,1.7"/>
	<line class="st0" x1="1.5" y1="30.9" x2="0" y2="30.9"/>
	<path class="st0" d="M3.1,30.9c3.4,0.5,3.3,3.4-0.2,3.8H0"/>
	<path class="st0" d="M3.1,30.9c-0.1,0-0.1,0-0.2,0H1.5"/>
	<line class="st0" x1="9.2" y1="30.9" x2="14.1" y2="30.9"/>
	<path class="st0" d="M8,30.9c0.1,0,0.1,0,0.2,0h1.1"/>
	<path class="st0" d="M16,30.9c-0.1,0-0.1,0-0.2,0h-1.8"/>
	<path class="st0" d="M16,30.9c3.4,0.5,3.3,3.4-0.2,3.8H8.1c-3.3-0.5-3.5-3.3-0.2-3.8"/>
	<path class="st0" d="M29.2,30.9h0.3c0.1,0,0.1,0,0.2,0"/>
	<line class="st0" x1="29.2" y1="30.9" x2="24.2" y2="30.9"/>
	<path class="st0" d="M21,30.9c0.1,0,0.1,0,0.2,0h3.1"/>
	<path class="st0" d="M21,30.9c-3.3,0.6-3.1,3.4,0.2,3.8h8.4c3.4-0.4,3.6-3.3,0.2-3.8"/>
	<path class="st0" d="M34.6,30.9c-3.3,0.6-3.1,3.4,0.2,3.8h8.9c3.4-0.4,3.6-3.3,0.2-3.8"/>
	<line class="st0" x1="42.4" y1="30.9" x2="37.5" y2="30.9"/>
	<path class="st0" d="M37.5,30.9h-2.8c-0.1,0-0.1,0-0.2,0"/>
	<path class="st0" d="M42.4,30.9h1.2c0.1,0,0.1,0,0.2,0"/>
	<line class="st0" x1="4.2" y1="38.6" x2="9.5" y2="38.6"/>
	<path class="st0" d="M2.5,38.6c-3.3-0.5-3.5-3.4,0-3.9h7.1c3.6,0.4,3.5,3.4,0,3.9"/>
	<line class="st0" x1="17.5" y1="38.6" x2="22.7" y2="38.6"/>
	<path class="st0" d="M24.8,38.6c3.5-0.4,3.6-3.4,0-3.9H15c-3.5,0.5-3.3,3.4,0,3.9"/>
	<path class="st0" d="M41.6,36.4c0,0.1,0,0.3,0,0.4"/>
	<line class="st0" x1="36.4" y1="38.6" x2="31.1" y2="38.6"/>
	<path class="st0" d="M41.6,36.9c-0.1,0.8-1,1.5-2.6,1.7"/>
	<path class="st0" d="M41.6,36.4c-0.1-0.8-1-1.5-2.6-1.7h-9c-3.5,0.5-3.3,3.4,0,3.9"/>
	<path class="st0" d="M41.6,36.4c0.1-0.8,1-1.5,2.5-1.7h7.4c1.5,0.2,2.4,0.8,2.6,1.5"/>
	<path class="st0" d="M54.1,37c-0.2,0.7-1.1,1.4-2.6,1.5"/>
	<path class="st0" d="M44.1,38.6c-1.5-0.2-2.4-1-2.5-1.7"/>
	<line class="st0" x1="51.2" y1="38.6" x2="46" y2="38.6"/>
	<path class="st0" d="M41.6,36.4c0,0.1,0,0.3,0,0.4"/>
	<line class="st0" x1="2.5" y1="38.6" x2="0" y2="38.6"/>
	<line class="st0" x1="1.9" y1="42.4" x2="0" y2="42.4"/>
	<path class="st0" d="M4.2,42.4c3.5-0.4,3.6-3.4,0-3.8"/>
	<line class="st0" x1="2.5" y1="38.6" x2="4.2" y2="38.6"/>
	<line class="st0" x1="9.7" y1="38.6" x2="15" y2="38.6"/>
	<path class="st0" d="M14.5,42.4h-5c-3.3-0.4-3.5-3.3,0-3.8"/>
	<path class="st0" d="M17.5,38.6c3.6,0.4,3.5,3.4,0,3.8"/>
	<line class="st0" x1="9.7" y1="38.6" x2="9.5" y2="38.6"/>
	<line class="st0" x1="17.5" y1="38.6" x2="15" y2="38.6"/>
	<line class="st0" x1="24.8" y1="38.6" x2="30" y2="38.6"/>
	<path class="st0" d="M31.1,42.4c3.5-0.4,3.6-3.4,0-3.8"/>
	<path class="st0" d="M22.7,38.6c-3.5,0.5-3.3,3.4,0,3.8"/>
	<line class="st0" x1="24.1" y1="42.4" x2="29.4" y2="42.4"/>
	<line class="st0" x1="22.7" y1="38.6" x2="24.8" y2="38.6"/>
	<line class="st0" x1="30" y1="38.6" x2="31.1" y2="38.6"/>
	<path class="st0" d="M36.4,38.6c-3.5,0.5-3.3,3.4,0,3.8"/>
	<path class="st0" d="M46,38.6c1.7,0.2,2.6,1,2.6,1.8"/>
	<path class="st0" d="M48.7,40.6c0-0.1,0-0.2,0-0.2"/>
	<line class="st0" x1="44.1" y1="38.6" x2="39" y2="38.6"/>
	<path class="st0" d="M48.7,40.6c-0.1,0.8-1,1.6-2.6,1.8"/>
	<line class="st0" x1="37.5" y1="42.4" x2="42.7" y2="42.4"/>
	<line class="st0" x1="36.4" y1="38.6" x2="39" y2="38.6"/>
	<line class="st0" x1="44.1" y1="38.6" x2="46" y2="38.6"/>
	<path class="st0" d="M1.9,50.2c3.5-0.4,3.6-3.4,0-3.9H0"/>
	<line class="st0" x1="0" y1="50.2" x2="0.2" y2="50.2"/>
	<line class="st0" x1="7.6" y1="50.2" x2="12.9" y2="50.2"/>
	<path class="st0" d="M7.2,50.2c-3.3-0.5-3.5-3.4,0-3.9H15c1.5,0.2,2.4,0.9,2.6,1.6"/>
	<path class="st0" d="M17.6,48.6c-0.2,0.7-1.1,1.4-2.6,1.6"/>
	<path class="st0" d="M17.6,47.9c0.1,0.2,0.1,0.4,0,0.7"/>
	<path class="st0" d="M20.1,50.2c-1.5-0.2-2.3-0.9-2.5-1.6"/>
	<path class="st0" d="M31.6,48c0,0.2,0,0.4,0,0.6"/>
	<path class="st0" d="M17.6,47.9c-0.1,0.2-0.1,0.4,0,0.7"/>
	<line class="st0" x1="22.1" y1="50.2" x2="27.2" y2="50.2"/>
	<path class="st0" d="M17.6,47.9c0.2-0.7,1-1.4,2.5-1.6h8.9c1.6,0.2,2.4,0.9,2.6,1.7"/>
	<path class="st0" d="M28.9,50.2c1.6-0.2,2.5-0.9,2.6-1.7"/>
	<line class="st0" x1="35.7" y1="50.2" x2="40.9" y2="50.2"/>
	<path class="st0" d="M31.6,48c0,0.2,0,0.4,0,0.6"/>
	<path class="st0" d="M34.1,50.2c-1.5-0.2-2.3-0.9-2.5-1.7"/>
	<path class="st0" d="M31.6,48c0.2-0.7,1-1.4,2.5-1.7h9.4c3.6,0.5,3.5,3.5,0,3.9"/>
	<path class="st0" d="M7.6,50.2c3.6,0.5,3.5,3.5,0,3.9H0.2c-0.1,0-0.1,0-0.2,0"/>
	<path class="st0" d="M0,50.2c0.1,0,0.1,0,0.2,0"/>
	<line class="st0" x1="7.2" y1="50.2" x2="1.9" y2="50.2"/>
	<line class="st0" x1="1.9" y1="50.2" x2="0.2" y2="50.2"/>
	<line class="st0" x1="7.2" y1="50.2" x2="7.6" y2="50.2"/>
	<line class="st0" x1="15" y1="50.2" x2="20.1" y2="50.2"/>
	<path class="st0" d="M24.7,52.4c-0.1,0.8-1,1.5-2.6,1.7h-9.2c-3.3-0.4-3.5-3.3,0-3.9"/>
	<path class="st0" d="M24.7,52.4c0-0.1,0-0.3,0-0.4"/>
	<path class="st0" d="M22.1,50.2c1.6,0.2,2.5,1,2.6,1.8"/>
	<line class="st0" x1="15" y1="50.2" x2="12.9" y2="50.2"/>
	<line class="st0" x1="22.1" y1="50.2" x2="20.1" y2="50.2"/>
	<path class="st0" d="M38.3,52.4c0-0.1,0-0.3,0-0.4"/>
	<line class="st0" x1="34.1" y1="50.2" x2="28.9" y2="50.2"/>
	<path class="st0" d="M35.7,50.2c1.6,0.2,2.5,1,2.6,1.8"/>
	<path class="st0" d="M27.2,50.2c-1.6,0.3-2.4,1-2.5,1.8"/>
	<path class="st0" d="M38.3,52.4c-0.1,0.8-1,1.5-2.6,1.7h-8.5c-1.5-0.2-2.4-0.9-2.5-1.7"/>
	<path class="st0" d="M24.7,52c0,0.1,0,0.3,0,0.4"/>
	<line class="st0" x1="27.2" y1="50.2" x2="28.9" y2="50.2"/>
	<line class="st0" x1="35.7" y1="50.2" x2="34.1" y2="50.2"/>
	<path class="st0" d="M40.9,50.2c-1.6,0.3-2.4,1-2.5,1.8"/>
	<path class="st0" d="M38.3,52.4c0-0.1,0-0.3,0-0.4"/>
	<path class="st0" d="M38.3,52.4c0.1,0.8,1,1.5,2.5,1.7h8.2c3.5-0.4,3.6-3.4,0-3.9"/>
	<line class="st0" x1="43.5" y1="50.2" x2="48.7" y2="50.2"/>
	<line class="st0" x1="43.5" y1="50.2" x2="40.9" y2="50.2"/>
	<path class="st0" d="M2.4,3.9h0.8c0.1,0,0.1,0,0.2,0"/>
	<path class="st0" d="M3.4,3.8C6.8,3.3,6.8,0.4,3.3,0"/>
	<line class="st0" x1="2.4" y1="3.9" x2="0" y2="3.9"/>
	<line class="st0" x1="0" y1="0" x2="3.3" y2="0"/>
	<path class="st0" d="M54.1,7.7h-2.8c-3.5,0.5-3.3,3.4,0,3.8h2.8"/>
	<path class="st0" d="M54.1,12.3c-0.9,0.7-0.9,1.7,0,2.4"/>
	<path class="st0" d="M1.9,42.4C1,42.5,0.4,42.8,0,43.1"/>
	<path class="st0" d="M0,45.6c0.4,0.3,1.1,0.6,1.9,0.7h7.4c3.5-0.4,3.6-3.4,0-3.9H4.2"/>
	<line class="st0" x1="4.2" y1="42.4" x2="1.9" y2="42.4"/>
	<path class="st0" d="M24.1,42.4c3.6,0.5,3.5,3.5,0,3.9h-9.6c-3.3-0.4-3.5-3.3,0-3.9"/>
	<line class="st0" x1="17.5" y1="42.4" x2="22.7" y2="42.4"/>
	<line class="st0" x1="14.5" y1="42.4" x2="17.5" y2="42.4"/>
	<line class="st0" x1="24.1" y1="42.4" x2="22.7" y2="42.4"/>
	<line class="st0" x1="36.4" y1="42.4" x2="31.1" y2="42.4"/>
	<path class="st0" d="M37.5,42.4c3.6,0.5,3.5,3.5,0,3.9h-8.2c-3.3-0.4-3.5-3.3,0-3.9"/>
	<line class="st0" x1="29.4" y1="42.4" x2="31.1" y2="42.4"/>
	<line class="st0" x1="37.5" y1="42.4" x2="36.4" y2="42.4"/>
	<path class="st0" d="M42.7,42.4c-3.5,0.5-3.3,3.4,0,3.9h8c3.5-0.4,3.6-3.4,0-3.9H46"/>
	<line class="st0" x1="46" y1="42.4" x2="42.7" y2="42.4"/>
	<path class="st0" d="M54.1,43.1c-0.9,0.7-0.9,1.7,0,2.4"/>
	<path class="st0" d="M54.1,19.3h-5c-3.3-0.5-3.5-3.4,0-3.9h5"/>
	<path class="st0" d="M54.1,23.2h-2.9c-3.5,0.5-3.3,3.4,0,3.9h2.9"/>
	<path class="st0" d="M53.2,28.7c0,0.2,0,0.3,0,0.5"/>
	<path class="st0" d="M53.2,28.7c0.1-0.4,0.4-0.8,0.9-1.1"/>
	<path class="st0" d="M54.1,30.3c-0.5-0.3-0.8-0.7-0.9-1.1"/>
	<line class="st0" x1="50.8" y1="30.9" x2="54.1" y2="30.9"/>
	<path class="st0" d="M54.1,34.7H49c-3.3-0.5-3.5-3.3-0.2-3.8"/>
	<path class="st0" d="M50.8,30.9H49c-0.1,0-0.1,0-0.2,0"/>
	<path class="st0" d="M48.7,40.6c0.1,0.8,0.9,1.6,2.5,1.8h2.9"/>
	<path class="st0" d="M48.7,40.6c0-0.1,0-0.2,0-0.2"/>
	<line class="st0" x1="51.5" y1="38.6" x2="54.1" y2="38.6"/>
	<path class="st0" d="M48.7,40.4c0.1-0.8,0.9-1.6,2.5-1.8"/>
	<line class="st0" x1="51.2" y1="38.6" x2="51.5" y2="38.6"/>
	<path class="st0" d="M54.1,46.3h-5.4c-3.5,0.5-3.3,3.4,0,3.9"/>
	<line class="st0" x1="49.1" y1="50.2" x2="54.1" y2="50.2"/>
	<line class="st0" x1="49.1" y1="50.2" x2="48.7" y2="50.2"/>
	<path class="st0" d="M54.1,50.2c-3.2,0.7-3.1,3.3,0,3.8"/>
	<path class="st0" d="M51.6,3.9h-2.5c-0.1,0-0.1,0-0.2,0"/>
	<path class="st0" d="M49.2,0c-3.4,0.5-3.3,3.3-0.2,3.8"/>
	<line class="st0" x1="51.6" y1="3.9" x2="54.1" y2="3.9"/>
	<line class="st0" x1="49.2" y1="0" x2="54.1" y2="0"/>
</g>
</svg>
