<?xml version="1.0" encoding="utf-8"?>
<!-- Generator: Adobe Illustrator 23.0.1, SVG Export Plug-In . SVG Version: 6.00 Build 0)  -->
<svg version="1.1" id="Layer_1" xmlns="http://www.w3.org/2000/svg" xmlns:xlink="http://www.w3.org/1999/xlink" x="0px" y="0px"
	 viewBox="0 0 54.1 54.1" style="enable-background:new 0 0 54.1 54.1;" xml:space="preserve">
<style type="text/css">
	.st0{clip-path:url(#SVGID_2_);fill:none;stroke:#000000;stroke-width:0.3;}
</style>
<g>
	<defs>
		<rect id="SVGID_1_" x="0" y="0" width="54.1" height="54.1"/>
	</defs>
	<clipPath id="SVGID_2_">
		<use xlink:href="#SVGID_1_"  style="overflow:visible;"/>
	</clipPath>
	<path class="st0" d="M51.3,0c-0.4,0-0.7,0-1.1,0c-1.1,0-2.1-0.1-3.2,0"/>
	<path class="st0" d="M45.7,3.8c0.8,0.3,1.6,0.3,2.5,0.3"/>
	<path class="st0" d="M47.1,0c-0.6,0.1-1.2,0.2-1.9,0.4c-0.9,0.3-1.5,1.1-1.1,2.1c0.2,0.6,0.9,1,1.4,1.3c0.1,0,0.1,0,0.2,0.1"/>
	<path class="st0" d="M48.1,4.1c1,0,1.9-0.1,2.9,0c1,0.1,2.1,0.1,3.1-0.1"/>
	<path class="st0" d="M51.3,0c0.9,0.1,1.8,0.2,2.8,0.3"/>
	<path class="st0" d="M41.7,3.7c-0.9,0.2-1.8,0.3-2.6,0.4"/>
	<path class="st0" d="M34.7,4.3c1.5,0,2.9-0.1,4.3-0.2"/>
	<path class="st0" d="M34.7,4.3c-1,0-1.9,0-2.9-0.1c-0.3,0-0.7-0.1-1-0.2"/>
	<path class="st0" d="M30.8,4c-0.8-0.3-1.5-1-1.6-1.8c-0.1-0.9,0.5-1.5,1.1-1.7c1.9-0.7,4.1-0.3,6.3-0.3c2.8,0,5.7-0.9,7.2,1.7
		c0.4,0.6-0.5,1.5-1.2,1.6c-0.3,0.1-0.7,0.1-1,0.2"/>
	<path class="st0" d="M25.7,3.9c-0.5,0.1-1,0.2-1.4,0.3"/>
	<path class="st0" d="M17.7,4.1c-1.2-0.3-2.3-0.9-2.2-1.9c0.7-1.8,2.2-2.2,3.8-2.3"/>
	<path class="st0" d="M19.9,4.5c-0.2,0-0.5,0-0.7,0c-0.4-0.1-0.9-0.1-1.4-0.3"/>
	<path class="st0" d="M19.4,0c0.4,0,0.8,0,1.3,0"/>
	<path class="st0" d="M25.7,0c-0.6,0-1.3,0-1.9,0"/>
	<path class="st0" d="M20.6,0c0.7,0,1.3,0.1,1.9,0c0.4,0,0.8,0,1.3,0"/>
	<path class="st0" d="M19.9,4.5c1.5,0.1,2.9,0,4.4-0.3"/>
	<path class="st0" d="M25.7,3.9c0.8-0.2,1.6-0.4,2.4-0.6c0.6-0.1,1.3-0.8,1-1.3c-0.6-1.5-1.9-1.9-3.4-2"/>
	<path class="st0" d="M9.6,0C9.6,0,9.6,0,9.6,0c0.5,0,1,0,1.5,0"/>
	<path class="st0" d="M9.2,0c0.1,0,0.2,0,0.3,0"/>
	<path class="st0" d="M8.5,0c0.1,0,0.3,0,0.4,0c0.1,0,0.2,0,0.3,0"/>
	<path class="st0" d="M4,0c0.7-0.2,1.7-0.1,2.7,0"/>
	<path class="st0" d="M6.7,0c0.6,0,1.2,0.1,1.8,0"/>
	<path class="st0" d="M4,0C3.1,0.2,2.5,0.8,2.4,2.2c0,0.5,0.8,1.3,1.6,1.6C7.3,4.9,10.8,4,14.3,3.6c0.7,0,1-0.7,1.1-1.6
		c0-1.5-2.2-1.9-4.3-2"/>
	<path class="st0" d="M51.7,7.9c-1.1-0.3-1.9-0.9-2-1.9c-0.1-0.5,0.7-1.7,2.2-1.7c1,0,1.6-0.1,2.2-0.3"/>
	<path class="st0" d="M53,8.2c0.3,0,0.7,0,1.1,0"/>
	<path class="st0" d="M53,8.2c-0.5,0-0.9-0.1-1.3-0.2"/>
	<path class="st0" d="M41.7,3.7c0.8,0,1.6,0,2.4,0c0.5,0,1.1,0.1,1.6,0.1"/>
	<path class="st0" d="M48.1,4.1c-0.7-0.2-1.6-0.3-2.5-0.3"/>
	<path class="st0" d="M46.2,7.8c0.6-0.1,1.2-0.1,1.7-0.1c0.5,0,1.6-1.2,1.8-1.7c0.4-1-0.3-1.6-1.5-1.9"/>
	<path class="st0" d="M39.1,4.1c-1.1,0.4-2,1.1-2.3,2.4c0.2,2,3.8,1.9,7.3,1.6"/>
	<path class="st0" d="M46.2,7.8C45.5,7.9,44.8,8,44,8"/>
	<path class="st0" d="M41.7,3.7c-0.9,0-1.8,0.1-2.6,0.4"/>
	<path class="st0" d="M30,8c-3.5,0.3-6.8,0-7.3-1.9"/>
	<path class="st0" d="M25.7,3.9c-0.4,0-0.9,0.1-1.4,0.3"/>
	<path class="st0" d="M22.7,5.8c0-0.4,0.1-0.8,0.7-1.3c0.2-0.1,0.5-0.2,0.9-0.4"/>
	<path class="st0" d="M34.7,4.3c-1.2-0.1-2.6-0.2-3.9-0.3"/>
	<path class="st0" d="M30,8c0.8-0.1,1.7-0.2,2.5-0.3"/>
	<path class="st0" d="M22.7,5.8c0,0.1,0,0.1,0,0.2c0,0,0,0.1,0,0.1"/>
	<path class="st0" d="M30.8,4c-0.3,0-0.7,0-1,0c-1.6-0.1-2.5,0.1-3.9,0c-0.1,0-0.1,0-0.2,0"/>
	<path class="st0" d="M34.7,4.3c0.2,0,0.3,0,0.5,0c0.7,0.2,1.5,0.8,1.5,1.4c0.3,0.8-0.9,1.4-1.5,1.5c-0.8,0.2-1.7,0.3-2.7,0.5"/>
	<path class="st0" d="M22.7,5.8c0,0.1,0.1,0.2,0.1,0.3"/>
	<path class="st0" d="M19.9,4.5c0.4,0,0.8,0.1,1.3,0.1c0.8,0.1,1.1,0.5,1.5,1.2c0,0,0,0,0,0"/>
	<path class="st0" d="M18.6,7.9c1-0.1,1.9-0.3,2.7-0.4c0.5-0.1,1.4-0.7,1.4-1.3"/>
	<path class="st0" d="M11.7,8.1c1.2,0.1,2.6,0.1,4,0"/>
	<path class="st0" d="M10,7.8C9,7.5,8.3,7,8,6.2c-0.1-1.8,4.6-2.5,7-2.3h0.3c0.9,0,1.6,0.2,2.4,0.3"/>
	<path class="st0" d="M18.6,7.9c-0.9,0.1-1.9,0.2-2.8,0.3"/>
	<path class="st0" d="M19.9,4.5c-0.8-0.1-1.5-0.2-2.1-0.3"/>
	<path class="st0" d="M11.7,8.1C11.1,8.1,10.5,8,10,7.8"/>
	<path class="st0" d="M45.5,12.2c1.1,0.1,2.1,0.1,3.1-0.1"/>
	<path class="st0" d="M50.1,11.9c-0.5,0.1-1,0.2-1.5,0.2"/>
	<path class="st0" d="M53,8.2c0.4,0.1,0.8,0.3,1.1,0.5"/>
	<path class="st0" d="M46.2,7.8c0.6,0,1.2,0,1.9,0c1.2,0,2.5,0,3.7,0.1"/>
	<path class="st0" d="M42,10c0.3,0.9,1.1,1.5,2.1,1.9"/>
	<path class="st0" d="M44.1,11.9c0.3,0.1,0.6,0.2,1,0.2c0.2,0,0.3,0,0.5,0.1"/>
	<path class="st0" d="M50.1,11.9c1-0.2,2-0.4,3.1-0.6c0.3-0.1,0.7-0.2,0.9-0.5"/>
	<path class="st0" d="M46.2,7.8c-0.7,0-1.4,0-2.1,0.2"/>
	<path class="st0" d="M42,9.9c-0.2-0.7,0.8-1.3,1.5-1.7C43.6,8.1,43.8,8.1,44,8"/>
	<path class="st0" d="M53,8.2c-0.4-0.1-0.8-0.2-1.3-0.2"/>
	<path class="st0" d="M42,10c0,0,0-0.1,0-0.1"/>
	<path class="st0" d="M29.5,11.8c0.7,0.2,1.4,0.2,2,0.3c0.1,0,0.1,0,0.2,0"/>
	<path class="st0" d="M30,8c-1.1,0.3-2.1,1-2.5,2.2c0,0.9,0.9,1.3,2,1.6"/>
	<path class="st0" d="M42,9.9c-1-2.2-4-1.9-6.3-2c-0.9-0.1-2-0.2-3.1-0.2"/>
	<path class="st0" d="M39.9,11.7c-1.2,0.1-2.2,0.2-3.3,0.2"/>
	<path class="st0" d="M30,8c0.8-0.2,1.7-0.3,2.5-0.3"/>
	<path class="st0" d="M36.6,11.9c-1.6,0-3.2,0-4.9,0.1"/>
	<path class="st0" d="M42,10c0,0,0-0.1,0-0.1"/>
	<path class="st0" d="M42,10c0.1,0.5-0.5,1.4-1.4,1.6c-0.2,0-0.5,0.1-0.7,0.1"/>
	<path class="st0" d="M14,10.2c0.2-1.1,0.9-1.7,1.8-2"/>
	<path class="st0" d="M22.8,12c0.8,0,1.5-0.1,2.3-0.2"/>
	<path class="st0" d="M13.9,10.4c0.1,0.6,0.9,1.1,1.6,1.3"/>
	<path class="st0" d="M18.6,7.9c-1,0-2,0-2.8,0.3"/>
	<path class="st0" d="M18.4,11.8c-0.8,0-1.7-0.1-2.5-0.1c-0.1,0-0.2,0-0.3-0.1"/>
	<path class="st0" d="M13.9,10.4C13.9,10.4,13.9,10.4,13.9,10.4c0-0.1,0-0.2,0-0.2"/>
	<path class="st0" d="M22.8,12c-1.4,0-2.9-0.1-4.4-0.1"/>
	<path class="st0" d="M25,11.8c0.4-0.1,0.8-0.2,1.2-0.3c0.7-0.2,1.5-0.8,1.3-1.6c-0.6-2.1-3.1-2.2-6.5-2.1c-0.7,0-1.6,0-2.4,0"/>
	<path class="st0" d="M10,7.8c-0.8-0.1-1.7,0-2.6,0c-1,0-2.1-0.1-3.1,0"/>
	<path class="st0" d="M2.1,11.8c0.1,0,0.2,0,0.3,0.1c0.2,0,0.3,0,0.5,0"/>
	<path class="st0" d="M2.3,8c-1,0.3-1.6,1-1.7,2.3c0,0.5,0.7,1.2,1.4,1.4"/>
	<path class="st0" d="M10.1,11.5c-0.8,0-1.6,0.1-2.4,0.1"/>
	<path class="st0" d="M4.4,7.7c-0.7,0-1.4,0.1-2,0.3"/>
	<path class="st0" d="M13.9,10.4c-0.1,0.5-0.7,0.9-1.2,0.9c-0.9,0.1-1.8,0.2-2.7,0.2"/>
	<path class="st0" d="M11.7,8.1c0.9,0.3,1.6,0.8,2.1,1.8c0.1,0.1,0.1,0.2,0.1,0.3"/>
	<path class="st0" d="M13.9,10.4c0-0.1,0-0.1,0-0.2"/>
	<path class="st0" d="M11.7,8.1C11.2,8,10.6,7.9,10,7.8"/>
	<path class="st0" d="M7.7,11.7c-1.6,0.1-3.2,0.1-4.9,0.2"/>
	<path class="st0" d="M48.7,15.4c0.2,0,0.3,0.1,0.5,0.1c0.5,0,1,0.1,1.5,0.1"/>
	<path class="st0" d="M50.1,11.9c1.4-0.1,2.7-0.2,4.1-0.1"/>
	<path class="st0" d="M50.1,11.9c-0.3,0-0.6,0.1-0.9,0.1c-0.2,0-0.4,0.1-0.6,0.1"/>
	<path class="st0" d="M48.6,12.1c-0.8,0.3-1.5,1.1-1.5,1.9c0,0.9,0.8,1.3,1.6,1.5"/>
	<path class="st0" d="M50.7,15.6c1.2,0.1,2.3,0.1,3.5,0.1"/>
	<path class="st0" d="M39.9,11.7c0.1,0,0.3,0,0.4,0h0.4c1.1,0.2,2.3,0.1,3.3,0.2"/>
	<path class="st0" d="M38.6,15.5c2.5-0.5,4.7,0.4,7-0.2c0.8-0.1,1.6-1.2,1.4-1.8c-0.3-0.7-0.8-1.1-1.4-1.4"/>
	<path class="st0" d="M45.5,12.2c-0.4-0.2-0.9-0.2-1.4-0.3"/>
	<path class="st0" d="M36.9,15.6c0.5,0,1.1,0,1.7-0.1"/>
	<path class="st0" d="M39.9,11.7c-1.2-0.1-2.1,0-3.3,0.2"/>
	<path class="st0" d="M36.9,15.6c-0.5,0-1-0.1-1.5-0.3c-0.6-0.2-1.2-0.6-1.5-1.2c-0.4-0.8,0.5-1.9,1.3-2c0.5-0.1,0.9-0.2,1.4-0.2"/>
	<path class="st0" d="M31,15.5c0.6,0,1.1-0.1,1.7-0.2c1.1-0.2,1.1-1.5,1-1.5c0.2-1.1-0.8-1.5-1.6-1.6c-0.1,0-0.2-0.1-0.4-0.1"/>
	<path class="st0" d="M27.3,11.6c0.9,0.1,1.5,0.1,2.2,0.1"/>
	<path class="st0" d="M25,11.8c0.3,0,0.6-0.1,1-0.1c0.3,0,0.8,0.1,1.3,0"/>
	<path class="st0" d="M22.8,12c-0.1,0-0.3,0-0.5,0.1c-0.8,0.1-1.8,0.7-2,1.5"/>
	<path class="st0" d="M25,11.8c-0.9,0.1-1.5,0.1-2.3,0.2"/>
	<path class="st0" d="M27.7,11.6c-0.1,0-0.2,0.1-0.3,0.1"/>
	<path class="st0" d="M31,15.5c-0.5,0-1.1,0.1-1.6,0.1"/>
	<path class="st0" d="M29.4,15.5c-2,0-3.9-0.2-6-0.1c-1.2,0-2.8-0.3-3.1-1.3c0-0.1,0-0.1,0-0.2"/>
	<path class="st0" d="M29.5,11.8c0.3,0,0.6,0,1,0.1c0.2,0,0.8,0.1,1.2,0.2"/>
	<path class="st0" d="M27.3,11.6C27.3,11.6,27.3,11.6,27.3,11.6"/>
	<path class="st0" d="M20.3,13.5c0,0.1-0.1,0.3,0,0.4"/>
	<path class="st0" d="M5.6,13.2c-0.1,0.1-0.1,0.3-0.2,0.5c-0.1,0.3-0.1,0.6,0,0.8"/>
	<path class="st0" d="M5.6,13.2c0.4-0.9,1-1.2,2-1.5c0.1,0,0.1,0,0.2-0.1"/>
	<path class="st0" d="M10.1,11.5c-0.1,0-0.2,0-0.3,0c-0.6,0.1-1.5,0-2.1,0.1"/>
	<path class="st0" d="M20.3,13.5C20.3,13.5,20.3,13.5,20.3,13.5c-0.2-1-0.9-1.5-1.9-1.7"/>
	<path class="st0" d="M6.9,15.3c-0.3,0-0.5-0.1-0.8-0.2c-0.2-0.1-0.5-0.3-0.6-0.7"/>
	<path class="st0" d="M10.1,11.5c1,0.1,1.8-0.1,2.8,0c0.8,0.1,1.7,0.1,2.6,0.1"/>
	<path class="st0" d="M18.4,11.8c-0.8-0.2-1.8-0.2-2.8-0.2"/>
	<path class="st0" d="M20.3,13.9c-0.2,0.6-0.9,1.1-1.6,1.2c-3.4,0.5-5.9,0.1-9.3,0.1c-0.4,0-0.8,0-1.2,0.1"/>
	<path class="st0" d="M6.9,15.3c0.4,0.1,0.9,0,1.3,0"/>
	<path class="st0" d="M20.3,13.9c0-0.1,0.1-0.3,0-0.4"/>
	<path class="st0" d="M50.7,15.6c0.4,0.1,0.9,0.1,1.3,0.3c1,0.3,2,0.4,2.1,1.4c0.1,1.3-0.9,1.9-2.2,2.1"/>
	<path class="st0" d="M48.7,15.4c0.7,0,1.3,0.1,2,0.2"/>
	<path class="st0" d="M51.9,19.4c-0.5,0.1-1,0.1-1.4,0.1"/>
	<path class="st0" d="M48.7,15.4c-0.4,0-0.9,0-1.4,0c-2.2,0.1-5.6,0-5.8,2.5c0.4,1.1,2,1.5,3.3,1.6c1.5,0.1,2.9-0.2,4.5-0.2
		c0.3,0,0.7,0.1,1,0.1"/>
	<path class="st0" d="M28.8,19.4c3.2-0.3,6-0.1,9.2,0"/>
	<path class="st0" d="M36.9,15.6c0.5,0,1.1-0.1,1.7-0.1"/>
	<path class="st0" d="M28.4,19.4c0.1,0,0.3,0.1,0.4,0"/>
	<path class="st0" d="M36.9,15.6c-1,0-1.9,0-2.8-0.1c-0.4-0.1-1.3-0.1-1.7-0.1c-0.5,0-0.9,0-1.4,0"/>
	<path class="st0" d="M29.4,15.5c-0.3,0-0.6,0.1-0.9,0.2c-0.9,0.3-2,1-1.7,2c0.1,0.5,0.8,1.4,1.5,1.6"/>
	<path class="st0" d="M38,19.4c0.4,0,0.7,0,1.1,0c0.2,0,0.4,0,0.6-0.1"/>
	<path class="st0" d="M31,15.5c-0.5,0-1.1,0-1.6,0.1"/>
	<path class="st0" d="M38.6,15.5c0.4,0.1,0.9,0.2,1.4,0.2c0.8,0.2,1.5,0.8,1.7,1.4c0.3,1.2-0.9,2-2,2.2"/>
	<path class="st0" d="M14.5,19.5c-1.2-0.2-2.4-0.8-2.4-1.9c0,0,0,0,0-0.1"/>
	<path class="st0" d="M25.1,19.2c1-0.4,1.7-1,1.6-2.2c-0.6-2.2-5.1-1.5-7.8-1.5c-1.8,0-3.5-0.4-5.1,0.3c-0.7,0.3-1.4,0.6-1.7,1.2"/>
	<path class="st0" d="M15,19.5c-0.1,0-0.2,0-0.3,0"/>
	<path class="st0" d="M19,19.6c-0.9,0-1.8,0-2.8,0"/>
	<path class="st0" d="M15,19.5c0.4,0,0.8,0.1,1.2,0"/>
	<path class="st0" d="M19,19.6c1.5,0,3,0,4.6-0.1c0.1,0,0.2,0,0.3,0"/>
	<path class="st0" d="M25.1,19.2c-0.4,0.1-0.8,0.2-1.3,0.3"/>
	<path class="st0" d="M12.2,17c-0.1,0.2-0.1,0.3-0.1,0.5"/>
	<path class="st0" d="M14.5,19.5c0.1,0,0.2,0,0.3,0"/>
	<path class="st0" d="M2.8,19.5c0.9,0.1,1.7,0.1,2.6,0.1"/>
	<path class="st0" d="M3.1,15.5C3.1,15.5,3,15.5,3.1,15.5c-0.4,0-0.9,0-1.2,0.2"/>
	<path class="st0" d="M2.8,19.5c-0.5-0.1-1-0.2-1.6-0.3C0.6,19,0.1,18.4,0,18c0,0,0-0.1,0-0.1"/>
	<path class="st0" d="M10.8,19.2c0,0,0.1,0,0.1-0.1c0.7-0.4,1-0.9,1.2-1.6"/>
	<path class="st0" d="M1.9,15.6c-0.1,0-0.3,0.1-0.4,0.2c-0.7,0.5-1.4,1-1.5,1.8"/>
	<path class="st0" d="M8.2,15.3c1.8,0,3.7,0.4,4,1.7"/>
	<path class="st0" d="M9.3,19.6c-1.1,0.1-2.2-0.1-3.4-0.1c-0.2,0-0.4,0-0.6,0"/>
	<path class="st0" d="M0,17.6c0,0.1,0,0.2,0,0.3"/>
	<path class="st0" d="M6.9,15.3c-0.2,0-0.5,0-0.7,0.1c-1,0.1-2,0.2-3.1,0.1"/>
	<path class="st0" d="M8.2,15.3c-0.4,0-0.9,0-1.3,0"/>
	<path class="st0" d="M12.1,17.5c0-0.1,0.1-0.3,0.1-0.4c0,0,0-0.1,0-0.1"/>
	<path class="st0" d="M10.8,19.2c-0.5,0.2-1,0.4-1.5,0.4"/>
	<path class="st0" d="M50.4,19.5c-0.1,0-0.3,0.1-0.4,0.1c-0.8,0.4-1.9,1.2-1.6,2.1c0.2,0.5,0.8,1,1.4,1.3"/>
	<path class="st0" d="M51.9,19.4c0.5,0,1,0.1,1.5,0.1c0.2,0,0.5,0,0.7,0"/>
	<path class="st0" d="M53,23.5c0.4,0,0.8,0,1.2,0"/>
	<path class="st0" d="M51.9,19.4c-0.5,0-1,0-1.4,0.1"/>
	<path class="st0" d="M53,23.5c-0.8,0-1.6-0.1-2.5-0.3c-0.2,0-0.4-0.1-0.6-0.2"/>
	<path class="st0" d="M38,23.3c-1.1-0.1-2-0.8-2.4-1.7c-0.3-0.8,0.5-1.6,1.2-1.9c0.3-0.1,0.7-0.2,1.1-0.3"/>
	<path class="st0" d="M46.2,23.3c-0.4,0.1-0.8,0.2-1.2,0.2c-0.3,0-0.5,0-0.8,0"/>
	<path class="st0" d="M38,23.3c0.1,0,0.2,0,0.3,0c0.6,0,1.2,0,1.8,0.1"/>
	<path class="st0" d="M44.2,23.5c-1.4,0-2.7-0.1-4.1-0.2"/>
	<path class="st0" d="M46.2,23.3c1.1-0.3,2-0.9,2.2-2.1c-0.1-1-0.6-1.6-2.5-1.6c-2.6,0-4.6-0.2-4.6-0.2c-0.6,0-1.2-0.1-1.7-0.1"/>
	<path class="st0" d="M38,19.4c0.5-0.1,1.1-0.1,1.6,0"/>
	<path class="st0" d="M28.8,19.4c-0.1,0-0.3,0-0.4,0"/>
	<path class="st0" d="M25.1,19.2c1-0.1,2.1,0,3.2,0.2"/>
	<path class="st0" d="M23.9,19.5c-0.2,0.1-0.3,0.1-0.4,0.2c-0.8,0.4-1.7,1.4-1.4,2.2c0.5,1.4,2.5,1.1,3.9,1.1c3-0.1,6,0.8,9-0.3
		c0.7-0.2,0.6-1.2,0.5-2.1c-0.3-2.3-4.4-1.1-6.7-1.3"/>
	<path class="st0" d="M25.1,19.2c-0.4,0-0.9,0.1-1.3,0.3"/>
	<path class="st0" d="M15.7,23.5c-1.7,0.1-3.4,0.1-5-0.1"/>
	<path class="st0" d="M15,19.5c-0.1,0-0.1,0-0.2,0c0,0-0.1,0-0.1,0"/>
	<path class="st0" d="M14.7,19.5c-0.1,0-0.2,0-0.3,0"/>
	<path class="st0" d="M10.8,19.2c1.2-0.2,2.5,0,3.7,0.2"/>
	<path class="st0" d="M10.7,23.4c-0.4,0-0.7-0.1-1-0.2"/>
	<path class="st0" d="M10.8,19.2c-0.4,0.1-0.8,0.2-1.2,0.3c-0.1,0-0.2,0.1-0.3,0.1"/>
	<path class="st0" d="M9.3,19.6C8.4,20.1,7.5,21,7.9,22c0.2,0.4,0.5,0.9,1,1c0.2,0.1,0.5,0.1,0.7,0.2"/>
	<path class="st0" d="M15,19.5c0.4,0,0.8-0.1,1.2,0"/>
	<path class="st0" d="M15.7,23.5c1.1,0,2.1-0.1,3.2-0.1c0.3,0,0.7,0,1-0.1"/>
	<path class="st0" d="M19.9,23.3c1.1-0.3,2.1-1,2-2.1c-0.1-0.8-1-1.4-1.9-1.5c-0.3,0-0.6-0.1-0.9-0.1"/>
	<path class="st0" d="M19,19.6c-0.9-0.1-1.8-0.2-2.8,0"/>
	<path class="st0" d="M46.2,23.3c-0.7,0-1.4,0.1-2,0.2"/>
	<path class="st0" d="M53.2,27.1c-0.3,0.1-0.5,0.1-0.8,0.1c-0.9,0.1-1.7,0.1-2.5,0.1"/>
	<path class="st0" d="M46.2,23.3c0.7,0,1.4-0.1,2-0.2c0.6-0.1,1.1-0.2,1.7-0.1"/>
	<path class="st0" d="M53,23.5c-0.9-0.3-1.8-0.3-2.7-0.4c-0.1,0-0.2,0-0.4,0"/>
	<path class="st0" d="M53.3,27c0.3-0.1,0.6-0.2,0.8-0.3"/>
	<path class="st0" d="M53,23.5c0.2,0.1,0.4,0.2,0.7,0.3c0.2,0.1,0.3,0.2,0.5,0.2"/>
	<path class="st0" d="M44.2,23.5c-1.1,0.2-2,0.8-1.8,2.3c0.1,0.4,0.6,0.8,1.1,1c2.1,0.3,4.2,0.5,6.3,0.5"/>
	<path class="st0" d="M53.3,27c0,0-0.1,0-0.1,0"/>
	<path class="st0" d="M31.5,27.1c1.8,0,3.5-0.2,5.3,0"/>
	<path class="st0" d="M39,27.1c0.3,0,0.6-0.1,0.9-0.2c1.1-0.3,2.4-0.9,2.6-2.1c-0.1-0.9-1.1-1.3-2.3-1.5"/>
	<path class="st0" d="M38,23.3c-1.2,0-2.5,0.1-3.5,0.1c-1.9,0.1-3.8-0.3-5.7,0.1c-1,0.2-1.7,1.4-1.5,1.9c0.2,0.8,1,1.4,2,1.6"/>
	<path class="st0" d="M31.5,27.1c-0.5,0-1,0-1.5,0c-0.2,0-0.5,0-0.7-0.1"/>
	<path class="st0" d="M36.8,27.1c0.2,0,0.3,0,0.5,0.1c0.6,0,1.1,0,1.7-0.1"/>
	<path class="st0" d="M38,23.3c0.7,0,1.5,0,2.1,0.1"/>
	<path class="st0" d="M15.7,23.5c0.4-0.1,0.8-0.2,1.2-0.2c1.1,0,2,0.1,3,0"/>
	<path class="st0" d="M24.4,27.2c-0.8,0.2-1.7,0.3-2.5,0.3"/>
	<path class="st0" d="M21.9,27.5c-1.9,0.1-3.8-0.1-5.7-0.4c-0.9-0.1-2.1-0.5-2.2-1.4c-0.3-1.1,0.7-1.9,1.8-2.2"/>
	<path class="st0" d="M20.8,23.2c2.7-0.5,5.8,0.1,6.4,1.5c0.3,0.8-0.1,1.7-1.3,2.1c-0.5,0.2-1,0.3-1.5,0.4"/>
	<path class="st0" d="M21.1,23.2c-0.4,0.1-0.8,0.1-1.2,0.1"/>
	<path class="st0" d="M8.1,27.1c1,0.1,2.1,0.2,3.1,0.1c0.1,0,0.1,0,0.2,0"/>
	<path class="st0" d="M9.6,23.2c-0.7-0.1-1.4-0.2-2.2-0.1c-0.6,0-1.2,0-1.9,0.1"/>
	<path class="st0" d="M11.4,27.2c1.3-0.1,2.8-0.6,2.4-2.6c-0.1-0.3-0.6-0.8-1.1-0.9c-0.7-0.1-1.4-0.2-2-0.4"/>
	<path class="st0" d="M8.1,27.1C7.6,27,7.2,27,6.7,27c-2,0.1-5.3,0.2-5.8-1.2"/>
	<path class="st0" d="M1,25c0.3-0.8,0.9-1.2,1.7-1.5"/>
	<path class="st0" d="M10.7,23.4c-0.3-0.1-0.7-0.1-1-0.2"/>
	<path class="st0" d="M0.9,25.9c0-0.1-0.1-0.2-0.1-0.3c0-0.2,0.1-0.4,0.2-0.6"/>
	<path class="st0" d="M5.6,23.1c-1,0-2,0.1-2.9,0.4"/>
	<path class="st0" d="M51.2,31c-0.3,0-0.5,0-0.8,0"/>
	<path class="st0" d="M53.2,27.1c-1,0-2.3,0-3.3,0.2"/>
	<path class="st0" d="M53.3,27c-0.1,0-0.2,0-0.3,0"/>
	<path class="st0" d="M47.5,28.9c0.1-0.6,0.6-0.9,1.2-1.2c0.3-0.1,0.7-0.3,1.1-0.3"/>
	<path class="st0" d="M53.3,27.1c0,0-0.1,0-0.1,0"/>
	<path class="st0" d="M47.6,29.4c0.3,1.1,1.6,1.6,2.8,1.6"/>
	<path class="st0" d="M53.3,27c0.3,0,0.5,0,0.8,0"/>
	<path class="st0" d="M47.5,28.9c0,0.2,0,0.3,0.1,0.5"/>
	<path class="st0" d="M51.2,31c1,0,2,0.1,3,0.1"/>
	<path class="st0" d="M33.8,29.1c0-0.1,0-0.1,0-0.2"/>
	<path class="st0" d="M33.8,28.9c0.2-0.6,0.8-1.1,1.4-1.4c0.5-0.2,1-0.3,1.6-0.4"/>
	<path class="st0" d="M37.5,31c0.6,0.1,1.3,0.1,1.9,0.1"/>
	<path class="st0" d="M39,27.1c-0.7,0-1.5,0-2.2,0"/>
	<path class="st0" d="M39,27.1c0.6,0,1.3,0,1.9-0.1c2-0.3,4.8,0,5.7,0.8c0.4,0.4,0.8,0.6,1,1"/>
	<path class="st0" d="M47.6,29.4c0-0.2,0-0.4-0.1-0.5"/>
	<path class="st0" d="M33.8,29.1c0,0.1,0,0.2,0,0.3c0.1,0.8,1.1,1.2,2,1.4c0.6,0.1,1.1,0.2,1.7,0.2"/>
	<path class="st0" d="M47.6,29.4c-0.2,0.5-0.7,0.9-1.2,1.1c-2.4,0.5-4.7,0.8-7,0.7"/>
	<path class="st0" d="M24.4,27.2c-0.9,0-1.8,0.1-2.5,0.3"/>
	<path class="st0" d="M28.2,31.1c0.8,0,1.7,0,2.5-0.2"/>
	<path class="st0" d="M21.9,27.5c-0.8,0.3-1.3,0.7-1.4,1.6"/>
	<path class="st0" d="M20.5,29.3c0,0.5,0.3,0.9,0.7,1c2.2,0.8,4.5,0.7,7,0.8"/>
	<path class="st0" d="M20.5,29.1c0,0.1,0,0.1,0,0.2c0,0,0,0,0,0"/>
	<path class="st0" d="M24.4,27.2c0.9,0,1.8,0,2.5-0.1c0.9-0.1,1.7-0.1,2.4,0"/>
	<path class="st0" d="M33.8,29.1C33.8,29.1,33.8,29.1,33.8,29.1c-0.2,0.6-0.2,0.9-0.9,1.2c-0.7,0.3-1.4,0.5-2.2,0.7"/>
	<path class="st0" d="M33.8,28.9c0.1-1-1.3-1.6-2.3-1.7"/>
	<path class="st0" d="M31.5,27.1c-0.1,0-0.1,0-0.2,0c-0.7,0-1.4-0.1-2-0.1"/>
	<path class="st0" d="M33.8,29.1c0-0.1,0-0.1,0-0.2"/>
	<path class="st0" d="M14.9,31.1c-1.5,0-3.1-0.1-4.7-0.1"/>
	<path class="st0" d="M10.2,31.1c-0.2,0-0.3,0-0.5,0c-0.4,0-0.9,0-1.3-0.1"/>
	<path class="st0" d="M20.5,29.3c-0.2,0.8-1.5,1.5-2.5,1.6c-0.2,0-0.5,0.1-0.7,0.1"/>
	<path class="st0" d="M20.5,29.3c0-0.1,0-0.2,0-0.2"/>
	<path class="st0" d="M14.9,31.1c0.8,0,1.6,0,2.4-0.1"/>
	<path class="st0" d="M8.1,27.1C8.4,27,8.6,27,8.9,27c1,0,1.7,0.1,2.5,0.2"/>
	<path class="st0" d="M5.7,28.6c-0.1,0.2-0.2,0.4-0.2,0.5c0,0.1,0.1,0.3,0.1,0.4"/>
	<path class="st0" d="M20.5,29.1c0-0.2-0.1-0.3-0.2-0.5c-1.8-2-4.6-1.1-7.2-1.4l-0.5,0c-0.4,0.1-0.8,0.1-1.2,0"/>
	<path class="st0" d="M5.7,28.6c0.4-0.7,1.4-1.3,2.4-1.5"/>
	<path class="st0" d="M8.4,31c-1.1-0.2-2.3-0.7-2.7-1.5"/>
	<path class="st0" d="M41.7,33c0.1,0.8,1.1,1.4,1.8,1.7c0.4,0.1,0.8,0.2,1.2,0.3"/>
	<path class="st0" d="M46,35C46,35,46.1,35,46,35c2.5-0.2,4.9-0.1,7.1-0.8c0.5-0.1,1.1-0.6,0.9-1.2c-0.5-1.2-1.6-1.8-2.8-2"/>
	<path class="st0" d="M41.7,32.5c-0.1,0.2-0.1,0.3-0.1,0.5"/>
	<path class="st0" d="M41.7,32.5c1.1-2.5,4-1.2,6.2-1.5c0.8-0.1,1.7,0.2,2.4,0"/>
	<path class="st0" d="M51.2,31c-0.3,0-0.5,0-0.8,0"/>
	<path class="st0" d="M46,35c-0.4,0-0.9,0-1.3,0"/>
	<path class="st0" d="M26.7,33C26.7,33,26.7,33,26.7,33c0-0.2-0.1-0.3,0-0.4"/>
	<path class="st0" d="M30.7,30.9c1.3,0,2.5,0,3.8,0"/>
	<path class="st0" d="M29.3,34.7c0,0,0.1,0,0.1,0c1.4,0.3,2.7,0.4,4,0.5"/>
	<path class="st0" d="M41.7,33c-0.3,1.2-1.6,1.6-2.7,1.9"/>
	<path class="st0" d="M37.5,31c-1.1,0-2.3,0.2-3.4,0"/>
	<path class="st0" d="M41.7,32.5c-0.3-0.7-1.3-1.2-2.3-1.4"/>
	<path class="st0" d="M37.2,35.1c0.5-0.1,1-0.1,1.6-0.2c0.1,0,0.1,0,0.2,0"/>
	<path class="st0" d="M41.7,32.5c0,0.2,0,0.3-0.1,0.5"/>
	<path class="st0" d="M39.4,31.1c-0.3-0.1-0.5-0.1-0.8-0.1c-0.4,0-0.8,0-1.1,0"/>
	<path class="st0" d="M26.6,32.6c0.1-0.7,0.9-1.3,1.6-1.5"/>
	<path class="st0" d="M37.2,35.1c-1.3,0.1-2.5,0.2-3.7,0.1"/>
	<path class="st0" d="M30.7,30.9c-0.8,0-1.6,0.1-2.5,0.2"/>
	<path class="st0" d="M26.7,33c0.4,1.1,1.5,1.4,2.7,1.7"/>
	<path class="st0" d="M14.9,31.1c0.7-0.2,1.6-0.2,2.4-0.1"/>
	<path class="st0" d="M26.7,33c-0.1,0.8-0.8,1.5-1.6,1.8"/>
	<path class="st0" d="M20.3,35.2c1.1,0.1,2.1,0.1,3.2-0.1"/>
	<path class="st0" d="M17.3,31c0.9,0.1,1.8,0.2,2.6,0.2c1.6,0,2.9-0.5,4.8-0.1c0.8,0.2,1.7,0.6,1.9,1.4c0,0,0,0.1,0,0.1"/>
	<path class="st0" d="M20.3,35.2c-1.5-0.1-3.1-0.4-4.6-0.4"/>
	<path class="st0" d="M25.1,34.8c0,0-0.1,0-0.1,0c-0.5,0.2-1,0.3-1.5,0.4"/>
	<path class="st0" d="M26.7,33c0-0.1,0-0.3,0-0.4"/>
	<path class="st0" d="M14.9,31.1c-0.2,0-0.4,0.1-0.6,0.2c-0.4,0.2-1.5,0.8-1.5,2c-0.1,0.9,1.2,1.4,2.2,1.5"/>
	<path class="st0" d="M15,34.8c0,0-0.1,0-0.1,0"/>
	<path class="st0" d="M15.7,34.8c-0.2,0-0.3,0-0.5,0c0,0-0.1,0-0.1,0"/>
	<path class="st0" d="M10.2,31.1C9.6,31,9,31,8.4,31"/>
	<path class="st0" d="M6.9,31c-0.2,0-0.4,0-0.6,0"/>
	<path class="st0" d="M11,34.8c0.7-0.3,1-0.9,1.8-1.9c0.3-0.5-0.1-1.1-0.6-1.3c-0.7-0.3-1.4-0.5-2.1-0.6"/>
	<path class="st0" d="M6.9,31c-1.9-0.2-3.9-0.3-5.8,0.2c-0.6,0.2-1.3,0.9-0.9,1.8C0.6,34,1,34.1,1.7,34.4c0.4,0.1,0.9,0.3,1.3,0.4"
		/>
	<path class="st0" d="M9.6,35.1c-1.6,0.2-3.1,0.2-4.7,0"/>
	<path class="st0" d="M8.4,31c-0.5,0-1,0-1.5,0"/>
	<path class="st0" d="M6.9,31c0.1,0,0.3,0,0.4,0"/>
	<path class="st0" d="M3,34.7c0.7,0.2,1.3,0.3,2,0.3"/>
	<path class="st0" d="M11,34.8c-0.2,0.1-0.5,0.2-0.8,0.2c-0.2,0-0.4,0-0.6,0.1"/>
	<path class="st0" d="M48.3,36.4c0.2-0.7,0.9-1.2,1.5-1.4c1.4-0.5,2.9-0.4,4.4-0.3"/>
	<path class="st0" d="M48.2,36.9c0,0.1,0,0.2,0,0.3c0.4,1,1.4,1.5,2.5,1.6"/>
	<path class="st0" d="M52.8,38.9c0.4,0,0.9,0,1.3,0"/>
	<path class="st0" d="M50.8,38.8c0.2,0,0.3,0,0.5,0.1c0.5,0,1,0,1.5,0"/>
	<path class="st0" d="M48.3,36.4c0,0.2-0.1,0.3-0.1,0.5"/>
	<path class="st0" d="M45.5,38.8c0.2-0.1,0.5-0.2,0.7-0.2c0.8-0.4,1.8-0.9,2.1-1.7"/>
	<path class="st0" d="M43.6,39.2c0.6-0.1,1.2-0.2,1.8-0.4"/>
	<path class="st0" d="M46,35c0.3,0,0.6,0,0.9,0.1c0.6,0,1.3,0.7,1.4,1.2c0,0.1,0,0.1,0,0.2"/>
	<path class="st0" d="M48.2,36.9c0-0.2,0.1-0.3,0.1-0.5"/>
	<path class="st0" d="M44.7,34.9c-1.4,0-2.7,0-4.2,0c-0.5,0-1-0.1-1.6,0"/>
	<path class="st0" d="M39.3,39c-0.8-0.1-1.5-0.3-2.3-0.5c-0.6-0.1-1.2-0.6-1.4-1.1c-0.4-1,0.7-1.9,1.5-2.2"/>
	<path class="st0" d="M46,35c-0.4,0-0.9,0-1.3,0"/>
	<path class="st0" d="M37.2,35.1c0,0,0.1,0,0.1,0c0.5-0.2,1.1-0.2,1.7-0.2"/>
	<path class="st0" d="M43.6,39.2c-1,0.1-2,0.1-3,0"/>
	<path class="st0" d="M40.6,39.2c-0.5-0.1-0.9-0.1-1.4-0.2"/>
	<path class="st0" d="M23.5,35.1c-0.8,0.4-1.6,1.2-1.3,2.2c0.2,0.5,0.7,0.9,1.3,1.1c0,0,0,0,0,0"/>
	<path class="st0" d="M29.3,34.7c1.3,0,2.5,0.2,3.9,0.4c0.1,0,0.2,0,0.3,0.1"/>
	<path class="st0" d="M30.6,39c0.7,0.1,1.3-0.1,1.9-0.2"/>
	<path class="st0" d="M32.5,38.8c0.4-0.1,0.8-0.2,1.3-0.2c1.9-0.1,1.6-1.1,1.6-1.9c-0.1-0.9-1.1-1.2-2-1.5"/>
	<path class="st0" d="M25.8,38.7c-0.8,0-1.5-0.1-2.3-0.3"/>
	<path class="st0" d="M25.8,38.7c1.5,0.1,3.1-0.1,4.7,0.3c0,0,0,0,0.1,0"/>
	<path class="st0" d="M25.1,34.8c-0.5,0-1,0.1-1.5,0.3c0,0-0.1,0-0.1,0.1"/>
	<path class="st0" d="M25.1,34.8c0.9-0.1,1.9,0.1,2.9,0c0.5,0,0.9,0,1.4,0"/>
	<path class="st0" d="M9.6,35.1c-0.2,0.1-0.3,0.1-0.5,0.2c-0.8,0.3-1.8,1-1.5,2.1c0.2,0.5,0.7,1.2,1.4,1.2c0.1,0,0.2,0,0.3,0.1"/>
	<path class="st0" d="M11,34.8c-0.5,0.1-0.9,0.2-1.4,0.3"/>
	<path class="st0" d="M15,34.8c0.2,0,0.4,0,0.6,0"/>
	<path class="st0" d="M15.9,38.8c0.7,0,1.4-0.1,2.1-0.1"/>
	<path class="st0" d="M20.3,35.2c-1.8-0.3-2.1-0.4-4-0.4c0,0-0.3,0-0.7,0"/>
	<path class="st0" d="M9.4,38.6c0.8,0.1,1.6,0.2,2.4,0.2"/>
	<path class="st0" d="M20.3,35.2c0.1,0,0.2,0,0.3,0c0.7,0.1,1.2,0.2,1.4,0.9c0.4,1.1-0.8,2.3-1.8,2.4c-0.8,0-1.5,0.1-2.2,0.1"/>
	<path class="st0" d="M14.9,34.8c-0.2,0-0.3,0-0.5,0c-1.1-0.1-2.3-0.2-3.4,0"/>
	<path class="st0" d="M15.9,38.8c-1.4,0.1-2.7,0.1-4.1,0.1"/>
	<path class="st0" d="M15,34.8c0,0-0.1,0-0.1,0"/>
	<path class="st0" d="M45.5,38.8c-0.7,0-1.3,0.2-1.8,0.4"/>
	<path class="st0" d="M43.6,39.2c-0.8,0.3-1.4,0.9-1.4,1.9c1,1.5,3.1,1.4,4.4,1.5c0.9,0.1,1.7,0.1,2.6,0.1"/>
	<path class="st0" d="M45.5,38.8c1-0.1,1.9,0,2.7,0.1c0.9,0.1,1.8,0,2.7-0.1"/>
	<path class="st0" d="M51.6,42.6c0.7-0.1,1.3-0.3,2-0.5c0.2-0.1,0.4-0.2,0.5-0.3"/>
	<path class="st0" d="M52.8,38.9c0.5,0.1,0.9,0.4,1.3,0.8"/>
	<path class="st0" d="M50.8,38.8c0.7,0,1.4-0.1,2,0.1"/>
	<path class="st0" d="M51.6,42.6c-0.8,0.1-1.6,0.2-2.5,0.2"/>
	<path class="st0" d="M29,42.3c0.2,0.1,0.4,0.1,0.5,0.1c0.6,0.1,1.3,0.1,1.9,0.1"/>
	<path class="st0" d="M30.6,39c-0.6,0.1-1.3,0.2-2,0.2C28,39.3,27,40,27.3,40.9c0.2,0.7,0.9,1.2,1.7,1.4"/>
	<path class="st0" d="M36.1,42.7c1.2,0,2.5-0.2,3.7-0.3"/>
	<path class="st0" d="M30.6,39c0.7-0.1,1.3-0.2,1.9-0.2"/>
	<path class="st0" d="M40.6,39.2c0,0-0.1,0-0.1,0c-0.3-0.1-0.7-0.1-1.2-0.2"/>
	<path class="st0" d="M39.3,39c-1.7-0.2-4.3-0.4-4.9-0.3h0.1c-0.7,0-1.3,0-2,0.1"/>
	<path class="st0" d="M40.6,39.2c0.7,0.1,1.3,0.5,1.5,1.2c0.3,0.9-0.6,1.7-1.2,1.8c-0.4,0.1-0.8,0.1-1.1,0.2"/>
	<path class="st0" d="M36.1,42.7c-1.5,0.1-3.1,0-4.6-0.1"/>
	<path class="st0" d="M15.9,42.4c0.6,0.1,1.3,0.2,1.9,0.2c0,0,0,0,0,0"/>
	<path class="st0" d="M18,38.7c-0.7,0-1.4,0-2.1,0.1"/>
	<path class="st0" d="M21.1,38.4c-1,0.3-2.1,0.3-3.1,0.3"/>
	<path class="st0" d="M21.8,42.6c-1.2,0.1-2.5,0.1-3.9,0"/>
	<path class="st0" d="M15.9,42.4c-0.9-0.2-1.7-0.5-2.1-1.3c0,0,0-0.1-0.1-0.1"/>
	<path class="st0" d="M21.8,42.6c0.8,0,1.5-0.1,2.3-0.2"/>
	<path class="st0" d="M25.8,38.7c0.8,0.3,1.2,0.8,1.1,1.5c-0.1,0.9-0.4,1.9-1.3,2c-0.5,0.1-1.1,0.1-1.6,0.2"/>
	<path class="st0" d="M20.8,38.5c1-0.1,1.9-0.1,2.8-0.1"/>
	<path class="st0" d="M25.8,38.7c-0.6-0.2-1.4-0.3-2.3-0.3"/>
	<path class="st0" d="M13.7,40.6c0,0.1,0,0.3,0.1,0.4"/>
	<path class="st0" d="M15.9,38.8c-0.3,0.1-0.6,0.1-0.9,0.2c-0.5,0.2-1.3,0.8-1.4,1.5"/>
	<path class="st0" d="M2.4,38.9c0.7-0.2,1.5-0.3,2.3-0.3"/>
	<path class="st0" d="M6.9,42.6c1.3,0,2.6-0.1,3.8-0.2"/>
	<path class="st0" d="M2.3,42.4c0.2,0.1,0.5,0.2,0.7,0.2c0.3,0,0.7,0,1,0"/>
	<path class="st0" d="M13.8,41c0,0.6-0.6,1.3-1.2,1.4c-0.6,0-1.2,0.1-1.8,0.1"/>
	<path class="st0" d="M6.9,42.6c-1,0-2,0-2.9,0"/>
	<path class="st0" d="M2.4,38.9C2.4,38.9,2.4,38.9,2.4,38.9c-0.6,0.2-1,0.7-1.3,1.2C0.7,41,1.4,42,2.3,42.4"/>
	<path class="st0" d="M9.4,38.6c-0.8,0-1.7,0.1-2.5,0c-0.7-0.1-1.5-0.1-2.2-0.1"/>
	<path class="st0" d="M13.8,41c0-0.1,0-0.3-0.1-0.4"/>
	<path class="st0" d="M13.7,40.6C13.7,40.5,13.7,40.5,13.7,40.6c-0.4-1-1.1-1.5-1.9-1.7"/>
	<path class="st0" d="M11.8,38.9c-0.7-0.2-1.6-0.2-2.4-0.2"/>
	<path class="st0" d="M51,46.6c1,0.1,2.1,0.1,3.1,0.1"/>
	<path class="st0" d="M51.6,42.6c0.4,0,0.7,0,1.1,0.1c0.5,0,0.9,0,1.4,0"/>
	<path class="st0" d="M47,44.9c0.6,0.8,1.4,1.3,2.3,1.5"/>
	<path class="st0" d="M51.6,42.6c-0.8,0-1.7,0-2.5,0.2"/>
	<path class="st0" d="M47,44.5c0,0.1-0.1,0.2-0.1,0.3c0,0,0,0,0,0.1"/>
	<path class="st0" d="M47,44.5c0.4-1,1.2-1.5,2.1-1.8"/>
	<path class="st0" d="M51,46.6c-0.3,0-0.6,0-0.9-0.1c-0.3,0-0.6-0.1-0.8-0.1"/>
	<path class="st0" d="M36.2,46.4c0.3,0,0.7,0,1,0c0.8,0,1.6,0,2.3,0"/>
	<path class="st0" d="M47,44.5c0,0.1,0,0.3-0.1,0.4"/>
	<path class="st0" d="M39.8,42.3c-1.2,0.1-2.5,0.1-3.7,0.3"/>
	<path class="st0" d="M36.1,42.7c-0.3,0.1-0.7,0.2-1,0.3c-0.6,0.3-1.7,1.1-1.4,1.9c0.3,1.1,1.4,1.5,2.5,1.5"/>
	<path class="st0" d="M47,44.5c0-0.1,0-0.2-0.1-0.3c-0.3-0.6-1-1.2-1.9-1.5c-1.7-0.5-3.4-0.5-5.2-0.4c0,0-0.1,0-0.1,0"/>
	<path class="st0" d="M47,44.9c-0.2,0.5-0.8,0.9-1.2,1.1c-2.1,0.6-4.2,0.5-6.3,0.4"/>
	<path class="st0" d="M20.1,44.3c0,0.1,0,0.2,0,0.4"/>
	<path class="st0" d="M20.1,44.6c0,0,0,0.1,0.1,0.1c0.5,1.1,1.7,1.3,2.7,1.3"/>
	<path class="st0" d="M20.1,44.3c0-0.6,0.7-1.2,1.3-1.5c0.1-0.1,0.3-0.1,0.4-0.2"/>
	<path class="st0" d="M21.8,42.6c0.7-0.2,1.5-0.2,2.3-0.2"/>
	<path class="st0" d="M22.9,46c4.7-0.1,4.7,0.8,8.1,0c0.6-0.1,2.4-0.4,2.5-1.2c0.1-1.2-0.8-1.9-2-2.2"/>
	<path class="st0" d="M31.4,42.6c-0.7-0.2-1.6-0.3-2.4-0.3"/>
	<path class="st0" d="M24.1,42.4c0.9,0,1.8,0.1,2.7,0c0.7-0.1,1.5-0.1,2.3-0.1"/>
	<path class="st0" d="M10.8,42.4c-2.8-0.1-3.2,0-3.8,0.2"/>
	<path class="st0" d="M9.1,46.4c0.5,0,0.9,0.1,1.4,0.1"/>
	<path class="st0" d="M5.4,43.8c0,0.2,0,0.4,0,0.6c0,0.1,0,0.1,0.1,0.2"/>
	<path class="st0" d="M9.1,46.4c-0.3,0-0.6-0.1-0.9-0.1c-1.2-0.2-2.4-0.5-2.8-1.6"/>
	<path class="st0" d="M5.4,43.8c0.1-0.5,0.6-1,1.2-1.1c0.1,0,0.3-0.1,0.4-0.1"/>
	<path class="st0" d="M15.9,42.4c-0.8,0-1.6,0-2.5,0c-0.4,0.1-2.1,0.1-2.2,0.1c-0.2,0-0.3,0-0.5,0"/>
	<path class="st0" d="M14.6,46.6c-1.3,0.1-2.7,0-4.1-0.1"/>
	<path class="st0" d="M20.1,44.3C20.1,44.2,20.1,44.2,20.1,44.3c-0.7-1-1.4-1.4-2.2-1.7"/>
	<path class="st0" d="M20.1,44.6c-0.1,0.5-0.8,1.1-1.2,1.2c-0.8,0.3-1.6,0.5-2.4,0.6"/>
	<path class="st0" d="M15.9,42.4c0.7,0,1.3,0.1,2,0.2"/>
	<path class="st0" d="M16.5,46.5c-0.6,0.1-1.3,0.2-1.9,0.2"/>
	<path class="st0" d="M20.1,44.6c0-0.1,0-0.2,0-0.4"/>
	<path class="st0" d="M41.6,48.1c0,0.1,0,0.3,0,0.5c0,0,0,0,0,0.1"/>
	<path class="st0" d="M51.2,50.2c0.4-0.1,0.8-0.2,1.2-0.3c1-0.3,1.7-1,1.6-1.8c-0.1-0.7-1.4-1.2-3-1.4"/>
	<path class="st0" d="M51,46.6c-0.6-0.1-1.2-0.2-1.7-0.2"/>
	<path class="st0" d="M45.7,50.5c-0.7,0-1.5-0.1-2.2-0.3"/>
	<path class="st0" d="M45.7,50.5c1.5,0,2.9-0.2,4.4-0.1"/>
	<path class="st0" d="M50.2,50.3c0,0,0.1,0,0.1,0c0.3,0,0.6-0.1,0.9-0.1"/>
	<path class="st0" d="M41.6,48.6c0.1,0.6,0.9,1.2,1.6,1.5c0.1,0,0.2,0.1,0.3,0.1"/>
	<path class="st0" d="M41.6,48.1c0.2-2.2,3.5-1.8,5.5-1.7L47,46.5c0.6-0.1,1.5-0.1,2.3-0.1"/>
	<path class="st0" d="M26.7,48.1c0.1-0.6,1-1,1.5-1.3c1.3-0.8,7-0.2,7-0.2c0.4,0,0.7,0,0.9-0.1"/>
	<path class="st0" d="M37.5,50.5c-1.2,0.1-2.4,0.1-3.6,0"/>
	<path class="st0" d="M36.2,46.4c1.2-0.1,1.7-0.2,3.2,0c0,0,0.1,0,0.1,0"/>
	<path class="st0" d="M26.7,48.1c0,0.1,0,0.3,0,0.4c0,0,0,0.1,0,0.1"/>
	<path class="st0" d="M41.6,48.6c0-0.2,0-0.4,0-0.5"/>
	<path class="st0" d="M37.5,50.5c0.7-0.1,1.3-0.2,2-0.3"/>
	<path class="st0" d="M30.9,50.3c-0.5,0-0.9-0.1-1.4-0.1c-1.1-0.1-2.2-0.6-2.7-1.6"/>
	<path class="st0" d="M41.6,48.1c0-0.1,0-0.1-0.1-0.2c-0.4-0.7-1.1-1.4-2-1.5"/>
	<path class="st0" d="M30.9,50.3c1,0.1,2,0.2,3,0.2"/>
	<path class="st0" d="M41.6,48.6c-0.2,0.6-0.8,1.2-1.4,1.3c-0.3,0.1-0.5,0.2-0.8,0.2"/>
	<path class="st0" d="M22.9,46c-1.2,0.1-2.4,0.1-3.5,0.4c-0.9,0.2-1.9,0.1-2.8,0.1"/>
	<path class="st0" d="M26.7,48.1C26.7,48.1,26.7,48.1,26.7,48.1c0.1,0.2,0.1,0.4,0.1,0.5"/>
	<path class="st0" d="M13,48c-0.1,0.2-0.1,0.4,0,0.6"/>
	<path class="st0" d="M13,48.6c0.5,1,1.5,1.4,2.6,1.6"/>
	<path class="st0" d="M13,48c0.2-0.5,0.8-1,1.3-1.3c0.1,0,0.2-0.1,0.3-0.1"/>
	<path class="st0" d="M16.5,46.5c-0.7,0-1.3,0-1.9,0.2"/>
	<path class="st0" d="M22.9,46c1.5,0.2,3.1,0.6,3.8,2"/>
	<path class="st0" d="M15.6,50.2c0.4,0.1,0.9,0.1,1.3,0.1c0,0,0.1,0,0.1,0"/>
	<path class="st0" d="M17,50.3c2,0,3.5,0.2,5.6,0c0.9-0.1,2.1,0,2.8-0.4c0.6-0.3,1.2-0.8,1.3-1.4"/>
	<path class="st0" d="M13,48.6c0-0.2,0-0.4,0-0.6"/>
	<path class="st0" d="M3.5,46.3c-0.7,0-1.3,0-1.9,0.4"/>
	<path class="st0" d="M2.5,50.2c0.9,0.2,1.7,0.2,2.6,0.3"/>
	<path class="st0" d="M1.6,46.6C1.6,46.6,1.6,46.6,1.6,46.6c-0.7,0.5-1.7,1-1.5,2c0.2,0.6,0.6,1.1,1.1,1.2c0.4,0.1,0.9,0.2,1.3,0.3"
		/>
	<path class="st0" d="M9.6,50.2c-1.5,0.1-3,0.2-4.5,0.2"/>
	<path class="st0" d="M9.6,50.2c0,0,0.1,0,0.1,0c0.8-0.1,1.1-0.1,2.1-0.3c0,0,0,0,0,0"/>
	<path class="st0" d="M13,48.6c-0.2,0.6-0.6,1.1-1.2,1.2"/>
	<path class="st0" d="M13,48c-0.2-0.8-1.2-1.3-2-1.4c-0.1,0-0.3-0.1-0.4-0.1"/>
	<path class="st0" d="M9.1,46.4c-0.9,0-1.7,0.1-2.7,0.1c-1.2,0-2.1-0.1-2.9-0.2"/>
	<path class="st0" d="M9.1,46.4c0.5,0,0.9,0,1.4,0.1"/>
	<path class="st0" d="M50.2,50.3c-0.9,0.2-1.6,0.7-2,1.8"/>
	<path class="st0" d="M52.9,54.1c-0.3,0-0.6,0-0.9,0c-1.4,0-3-0.3-3.9-1.5"/>
	<path class="st0" d="M48.2,52.1c0,0.1-0.1,0.3-0.1,0.4c0,0,0,0,0,0.1"/>
	<path class="st0" d="M50.2,50.3c0.3-0.1,0.7-0.1,1-0.1"/>
	<path class="st0" d="M51.2,50.2c1,0,2,0.1,2.9,0.1"/>
	<path class="st0" d="M45.7,50.5c0.9,0.2,1.6,0.7,2.3,1.4c0.1,0.1,0.1,0.2,0.1,0.3"/>
	<path class="st0" d="M45.7,50.5c-0.7-0.2-1.4-0.3-2.2-0.3"/>
	<path class="st0" d="M35.4,51.9c0,0.2,0,0.3,0,0.5"/>
	<path class="st0" d="M43.5,50.2c-0.6,0-1.1,0-1.7,0l-0.8-0.1c-0.5,0-1,0-1.5,0.1"/>
	<path class="st0" d="M37.5,50.5c0.7-0.2,1.3-0.3,2-0.3"/>
	<path class="st0" d="M37.5,50.5c-0.2,0.1-0.5,0.2-0.7,0.3c-0.6,0.3-1.2,0.7-1.3,1.2"/>
	<path class="st0" d="M48.2,52.6c-0.2,0.5-0.9,1-1.4,1.1c-3.8,0.5-6.6,0.6-10.3-0.1c-0.5-0.1-0.9-0.6-1.1-1.1"/>
	<path class="st0" d="M48.2,52.6c0.1-0.2,0.1-0.3,0-0.4"/>
	<path class="st0" d="M33.4,54.1c-0.8,0.1-1.8,0.1-2.5,0"/>
	<path class="st0" d="M25.1,54.1c0.7,0.1,1.3,0,2,0"/>
	<path class="st0" d="M35.4,52.5c-0.2,0.7-0.3,0.9-1,1.3c-0.3,0.2-0.7,0.3-1.1,0.3"/>
	<path class="st0" d="M30.9,50.3c0.9-0.1,1.8-0.1,2.7,0.1c0.1,0,0.2,0,0.2,0.1"/>
	<path class="st0" d="M30.9,54.1c-0.1,0-0.2,0-0.3,0c-1.2-0.1-2.3,0-3.5,0"/>
	<path class="st0" d="M35.4,52.5c0-0.2,0-0.4,0-0.5"/>
	<path class="st0" d="M22,52.1c-0.1,0.9,1,1.5,1.7,1.8c0.4,0.1,0.9,0.2,1.3,0.2"/>
	<path class="st0" d="M33.9,50.5c0.7,0.3,1.4,0.8,1.6,1.4"/>
	<path class="st0" d="M22,52.1c0-0.1,0-0.1,0-0.2"/>
	<path class="st0" d="M22.1,51.9c0.6-2.7,3.8-1.1,5.9-1.3c1-0.1,1.9-0.3,2.9-0.4"/>
	<path class="st0" d="M15.6,50.2c-0.6,0-1.1-0.1-1.5-0.2c-0.8-0.1-1.6-0.2-2.3-0.2"/>
	<path class="st0" d="M9.6,50.2c0.7-0.2,1.4-0.3,2.2-0.3"/>
	<path class="st0" d="M15.6,50.2c0.5,0,0.9,0.1,1.4,0.1"/>
	<path class="st0" d="M22,52.1c-0.3,1.4-1.6,1.8-3,1.8c-3.6,0-6.5,0.2-10-0.1c-0.8-0.1-1.4-0.7-1.7-1.4c-0.4-0.9,0.6-1.8,1.4-2
		c0.3-0.1,0.5-0.2,0.8-0.2"/>
	<path class="st0" d="M17,50.3c2.5,0.1,5,0.3,5,1.6"/>
	<path class="st0" d="M22,52.1c0-0.1,0-0.1,0-0.2"/>
	<path class="st0" d="M0,4c0.3-0.1,0.6-0.1,0.8-0.2c0.6-0.3,1.8-1.2,1.4-2.1c-0.3-0.8-1-1.2-1.8-1.4c-0.1,0-0.3,0-0.4,0"/>
	<path class="st0" d="M4.4,7.7c0.8-0.1,1.5-0.3,2.1-0.4C7,7.2,7.9,6.5,7.9,5.9C7.7,5,6.6,4.4,5.5,4.2c-1.2,0-2.4-0.4-3.7-0.4
		C1.1,3.9,0.5,4,0,4"/>
	<path class="st0" d="M4.4,7.7C3.7,7.8,3,8,2.3,8"/>
	<path class="st0" d="M0,8.2c0.8,0,1.5-0.1,2.3-0.2"/>
	<path class="st0" d="M0,10.7c0.3-0.3,0.5-0.6,0.5-1.1c0-0.4-0.2-0.8-0.5-1"/>
	<path class="st0" d="M0,11.7c0.1,0,0.2,0,0.3,0"/>
	<path class="st0" d="M5.4,14.5c0.3-0.3,0.4-0.7,0.2-1.1c0-0.1-0.1-0.1-0.1-0.2"/>
	<path class="st0" d="M3.1,15.5c-0.4,0.1-0.8,0.1-1.2,0.2"/>
	<path class="st0" d="M2.8,11.8c1.1,0.1,2.1,0.4,2.7,1.4"/>
	<path class="st0" d="M0,15.7c0.6,0,1.2,0,1.9-0.1"/>
	<path class="st0" d="M0,11.7c0.7,0.1,1.4,0,2.1,0.1"/>
	<path class="st0" d="M3.1,15.5c0.5-0.1,1-0.2,1.5-0.4c0.3-0.1,0.6-0.4,0.9-0.7"/>
	<path class="st0" d="M2.8,11.8c-0.2,0-0.5,0-0.7,0"/>
	<path class="st0" d="M0,23.5c0.9,0,1.8,0,2.7-0.1"/>
	<path class="st0" d="M2.7,23.5c0.6,0,1.2,0,1.8-0.1c0.4,0,0.7-0.1,1.1-0.3"/>
	<path class="st0" d="M2.8,19.5c0.5,0,1.1,0,1.6-0.1c0.3,0,0.7,0,1,0.1"/>
	<path class="st0" d="M5.6,23.1c0.9-0.4,1.6-1.3,1.4-2.1c-0.2-0.7-0.8-1.2-1.5-1.5"/>
	<path class="st0" d="M2.8,19.5c-0.9,0-1.8,0-2.8,0"/>
	<path class="st0" d="M0.9,25.9C1,25.6,1,25.3,1,25"/>
	<path class="st0" d="M0,26.7c0.4-0.2,0.7-0.5,0.9-0.9"/>
	<path class="st0" d="M0,24c0.5,0.3,0.9,0.6,1,1c0,0,0,0,0,0"/>
	<path class="st0" d="M5.7,28.6C5.7,28.6,5.7,28.6,5.7,28.6c0.2,0.3,0.1,0.6,0,0.9"/>
	<path class="st0" d="M5.6,29.5c-0.3,0.5-0.9,0.9-1.4,1.1C2.8,30.9,1.4,31,0,31.1"/>
	<path class="st0" d="M5.7,28.6c-1.1-1.9-3.5-1.5-5.7-1.5"/>
	<path class="st0" d="M3,34.7c0.7,0,1.4,0.1,2,0.3"/>
	<path class="st0" d="M4.7,38.5c0.2,0,0.4-0.1,0.5-0.1c0.8-0.2,1.7-1.1,1.3-1.9c-0.3-0.7-0.9-1.2-1.5-1.4"/>
	<path class="st0" d="M0,38.9c0.8,0,1.6,0,2.4-0.1"/>
	<path class="st0" d="M0,34.6c0.3,0,0.5,0,0.8,0.1c0.7,0,1.4,0,2.2,0.1"/>
	<path class="st0" d="M2.4,38.9c0.8-0.1,1.5-0.2,2.3-0.3"/>
	<path class="st0" d="M0,41.8c0.4-0.4,0.7-1,0.5-1.4c-0.1-0.3-0.3-0.5-0.5-0.7"/>
	<path class="st0" d="M5.4,43.8C5.4,43.9,5.4,43.9,5.4,43.8c0.2,0.3,0.2,0.5,0.1,0.8"/>
	<path class="st0" d="M5.5,44.7c-0.2,0.6-0.9,1.3-1.5,1.5c-0.1,0-0.3,0.1-0.4,0.1"/>
	<path class="st0" d="M2.3,42.4c0.6,0,1.2,0,1.7,0.2"/>
	<path class="st0" d="M5.4,43.8c-0.4-0.6-0.8-1-1.4-1.2"/>
	<path class="st0" d="M0,46.7c0.5,0,1.1,0,1.6-0.1"/>
	<path class="st0" d="M1.6,46.6c0.7-0.1,1.3-0.2,1.9-0.4"/>
	<path class="st0" d="M2.3,42.4c-0.7,0-1.5,0.1-2.3,0.2"/>
	<path class="st0" d="M2.5,50.2c0.9,0,1.8,0,2.6,0.3"/>
	<path class="st0" d="M0,50.3c0.1,0,0.3,0,0.4,0c0.7,0,1.4-0.1,2.1-0.1"/>
	<path class="st0" d="M0,54.1c2.3,0,4.1-0.2,5-0.6c0.8-0.4,2-1,1.5-1.9c-0.4-0.6-0.9-1-1.4-1.2"/>
	<line class="st0" x1="54.1" y1="4" x2="54.1" y2="4"/>
	<line class="st0" x1="0" y1="11.7" x2="0" y2="11.7"/>
	<line class="st0" x1="0" y1="4" x2="0" y2="4"/>
	<line class="st0" x1="0" y1="17.8" x2="0" y2="17.6"/>
</g>
</svg>
