<?xml version="1.0" encoding="utf-8"?>
<!-- Generator: Adobe Illustrator 23.0.1, SVG Export Plug-In . SVG Version: 6.00 Build 0)  -->
<svg version="1.1" id="Layer_1" xmlns="http://www.w3.org/2000/svg" xmlns:xlink="http://www.w3.org/1999/xlink" x="0px" y="0px"
	 viewBox="0 0 54 54" style="enable-background:new 0 0 54 54;" xml:space="preserve">
<style type="text/css">
	.st0{clip-path:url(#SVGID_2_);fill:none;stroke:#000000;stroke-width:0.3;}
	.st1{clip-path:url(#SVGID_2_);}
</style>
<g>
	<defs>
		<rect id="SVGID_1_" x="0" y="0" width="54" height="54"/>
	</defs>
	<clipPath id="SVGID_2_">
		<use xlink:href="#SVGID_1_"  style="overflow:visible;"/>
	</clipPath>
	<line class="st0" x1="30.1" y1="23.9" x2="33.9" y2="20.1"/>
	<line class="st0" x1="8.3" y1="45.6" x2="30.1" y2="23.9"/>
	<line class="st0" x1="37.4" y1="16.6" x2="33.9" y2="20.1"/>
	<line class="st0" x1="52.8" y1="1.2" x2="54" y2="0"/>
	<line class="st0" x1="0" y1="53.9" x2="8.3" y2="45.6"/>
	<line class="st0" x1="45" y1="9" x2="52.8" y2="1.2"/>
	<line class="st0" x1="37.4" y1="16.6" x2="45" y2="9"/>
	<line class="st0" x1="49.2" y1="1.2" x2="50.4" y2="0"/>
	<line class="st0" x1="37.4" y1="13" x2="33.8" y2="16.6"/>
	<line class="st0" x1="4.7" y1="45.6" x2="0" y2="50.3"/>
	<line class="st0" x1="37.4" y1="13" x2="49.2" y2="1.2"/>
	<line class="st0" x1="4.7" y1="45.6" x2="26.5" y2="23.9"/>
	<line class="st0" x1="33.8" y1="16.6" x2="26.5" y2="23.9"/>
	<line class="st0" x1="33.8" y1="13" x2="41.8" y2="5"/>
	<line class="st0" x1="33.8" y1="13" x2="26.3" y2="20.5"/>
	<line class="st0" x1="41.8" y1="5" x2="46.8" y2="0"/>
	<line class="st0" x1="8.1" y1="38.6" x2="0" y2="46.7"/>
	<line class="st0" x1="8.1" y1="38.6" x2="26.3" y2="20.5"/>
	<line class="st0" x1="0" y1="43.1" x2="11.3" y2="31.9"/>
	<line class="st0" x1="11.3" y1="31.9" x2="15.3" y2="27.9"/>
	<line class="st0" x1="38.2" y1="5" x2="43.2" y2="0"/>
	<line class="st0" x1="22.7" y1="20.5" x2="34.3" y2="8.9"/>
	<line class="st0" x1="34.3" y1="8.9" x2="38.2" y2="5"/>
	<line class="st0" x1="22.7" y1="20.5" x2="15.3" y2="27.9"/>
	<line class="st0" x1="15.2" y1="24.4" x2="11.7" y2="27.9"/>
	<line class="st0" x1="30.7" y1="8.9" x2="15.2" y2="24.4"/>
	<line class="st0" x1="11.7" y1="27.9" x2="7.7" y2="31.9"/>
	<line class="st0" x1="0" y1="39.5" x2="4" y2="35.5"/>
	<line class="st0" x1="39.6" y1="0" x2="34.6" y2="5"/>
	<line class="st0" x1="30.7" y1="8.9" x2="34.6" y2="5"/>
	<line class="st0" x1="4" y1="35.5" x2="7.7" y2="31.9"/>
	<line class="st0" x1="11.6" y1="24.4" x2="0.4" y2="35.5"/>
	<line class="st0" x1="0" y1="35.9" x2="0.4" y2="35.5"/>
	<line class="st0" x1="11.6" y1="24.4" x2="19.2" y2="16.7"/>
	<line class="st0" x1="27.1" y1="8.9" x2="36" y2="0"/>
	<line class="st0" x1="19.2" y1="16.7" x2="27.1" y2="8.9"/>
	<line class="st0" x1="15.6" y1="16.7" x2="27.7" y2="4.7"/>
	<line class="st0" x1="15.6" y1="16.7" x2="0" y2="32.4"/>
	<line class="st0" x1="27.7" y1="4.7" x2="32.4" y2="0"/>
	<line class="st0" x1="19.6" y1="9.2" x2="28.8" y2="0"/>
	<line class="st0" x1="19.6" y1="9.2" x2="0" y2="28.8"/>
	<line class="st0" x1="4.6" y1="20.6" x2="0" y2="25.2"/>
	<line class="st0" x1="4.6" y1="20.6" x2="16" y2="9.2"/>
	<line class="st0" x1="16" y1="9.2" x2="24.2" y2="1"/>
	<line class="st0" x1="24.2" y1="1" x2="25.2" y2="0"/>
	<line class="st0" x1="20.6" y1="1" x2="21.6" y2="0"/>
	<line class="st0" x1="0" y1="21.6" x2="7.7" y2="13.9"/>
	<line class="st0" x1="7.7" y1="13.9" x2="20.6" y2="1"/>
	<line class="st0" x1="12.8" y1="5.1" x2="17" y2="1"/>
	<line class="st0" x1="0" y1="18" x2="4.1" y2="13.9"/>
	<line class="st0" x1="17" y1="1" x2="18" y2="0"/>
	<line class="st0" x1="12.8" y1="5.1" x2="4.1" y2="13.9"/>
	<line class="st0" x1="4.5" y1="9.9" x2="14.4" y2="0"/>
	<line class="st0" x1="0" y1="14.4" x2="4.5" y2="9.9"/>
	<line class="st0" x1="0.9" y1="9.9" x2="10.8" y2="0"/>
	<line class="st0" x1="0" y1="10.8" x2="0.9" y2="9.9"/>
	<line class="st0" x1="7.2" y1="0" x2="0" y2="7.2"/>
	<line class="st0" x1="0" y1="3.6" x2="3.6" y2="0"/>
	<line class="st0" x1="25.7" y1="31.9" x2="22.3" y2="35.2"/>
	<line class="st0" x1="15.2" y1="42.4" x2="3.5" y2="54"/>
	<line class="st0" x1="15.2" y1="42.4" x2="22.3" y2="35.2"/>
	<line class="st0" x1="41" y1="16.6" x2="29.4" y2="28.1"/>
	<line class="st0" x1="29.4" y1="28.1" x2="25.7" y2="31.9"/>
	<line class="st0" x1="41" y1="16.6" x2="54" y2="3.6"/>
	<line class="st0" x1="18.8" y1="42.4" x2="22.5" y2="38.6"/>
	<line class="st0" x1="54" y1="7.2" x2="51.3" y2="9.9"/>
	<line class="st0" x1="33" y1="28.1" x2="48.2" y2="13"/>
	<line class="st0" x1="25.9" y1="35.2" x2="22.5" y2="38.6"/>
	<line class="st0" x1="48.2" y1="13" x2="51.3" y2="9.9"/>
	<line class="st0" x1="18.8" y1="42.4" x2="7.1" y2="54"/>
	<line class="st0" x1="33" y1="28.1" x2="25.9" y2="35.2"/>
	<line class="st0" x1="22.4" y1="42.4" x2="29.5" y2="35.2"/>
	<line class="st0" x1="36.6" y1="28.1" x2="44.4" y2="20.4"/>
	<line class="st0" x1="22.4" y1="42.4" x2="13.6" y2="51.1"/>
	<line class="st0" x1="54" y1="10.8" x2="51.8" y2="13"/>
	<line class="st0" x1="36.6" y1="28.1" x2="29.5" y2="35.2"/>
	<line class="st0" x1="44.4" y1="20.4" x2="51.8" y2="13"/>
	<line class="st0" x1="10.7" y1="54" x2="13.6" y2="51.1"/>
	<line class="st0" x1="23.1" y1="45.2" x2="17.2" y2="51.1"/>
	<line class="st0" x1="44.5" y1="23.9" x2="23.1" y2="45.2"/>
	<line class="st0" x1="14.3" y1="54" x2="17.2" y2="51.1"/>
	<line class="st0" x1="44.5" y1="23.9" x2="48" y2="20.4"/>
	<line class="st0" x1="48" y1="20.4" x2="54" y2="14.4"/>
	<line class="st0" x1="48.1" y1="23.9" x2="54" y2="18"/>
	<line class="st0" x1="48.1" y1="23.9" x2="40.6" y2="31.4"/>
	<line class="st0" x1="17.9" y1="54" x2="20.8" y2="51.1"/>
	<line class="st0" x1="40.6" y1="31.4" x2="26.7" y2="45.2"/>
	<line class="st0" x1="26.7" y1="45.2" x2="20.8" y2="51.1"/>
	<line class="st0" x1="44.2" y1="31.4" x2="47.7" y2="27.9"/>
	<line class="st0" x1="54" y1="21.6" x2="47.7" y2="27.9"/>
	<line class="st0" x1="30.3" y1="45.2" x2="21.5" y2="54"/>
	<line class="st0" x1="44.2" y1="31.4" x2="30.3" y2="45.2"/>
	<line class="st0" x1="51.3" y1="27.9" x2="54" y2="25.2"/>
	<line class="st0" x1="37" y1="42.1" x2="43.9" y2="35.2"/>
	<line class="st0" x1="51.3" y1="27.9" x2="43.9" y2="35.2"/>
	<line class="st0" x1="37" y1="42.1" x2="25.1" y2="54"/>
	<line class="st0" x1="54" y1="28.8" x2="44.3" y2="38.5"/>
	<line class="st0" x1="28.7" y1="54" x2="35" y2="47.7"/>
	<line class="st0" x1="44.3" y1="38.5" x2="35" y2="47.7"/>
	<line class="st0" x1="54" y1="32.4" x2="38.6" y2="47.7"/>
	<line class="st0" x1="32.3" y1="54" x2="38.6" y2="47.7"/>
	<line class="st0" x1="47.8" y1="42.1" x2="42.2" y2="47.7"/>
	<line class="st0" x1="35.9" y1="54" x2="42.2" y2="47.7"/>
	<line class="st0" x1="54" y1="36" x2="47.8" y2="42.1"/>
	<line class="st0" x1="51.4" y1="42.1" x2="54" y2="39.5"/>
	<line class="st0" x1="39.5" y1="54" x2="42.5" y2="51"/>
	<line class="st0" x1="51.4" y1="42.1" x2="42.5" y2="51"/>
	<line class="st0" x1="54" y1="43.1" x2="46.1" y2="51"/>
	<line class="st0" x1="46.1" y1="51" x2="43.1" y2="54"/>
	<line class="st0" x1="54" y1="46.7" x2="46.7" y2="54"/>
	<line class="st0" x1="54" y1="50.3" x2="50.3" y2="54"/>
	<line class="st0" x1="7.7" y1="13.9" x2="4.1" y2="13.9"/>
	<line class="st0" x1="11.2" y1="13.9" x2="7.7" y2="13.9"/>
	<line class="st0" x1="4.1" y1="13.9" x2="3.5" y2="13.9"/>
	<line class="st0" x1="22.7" y1="20.5" x2="19.1" y2="20.5"/>
	<line class="st0" x1="26.3" y1="20.5" x2="22.7" y2="20.5"/>
	<line class="st0" x1="26.3" y1="20.5" x2="26.9" y2="20.5"/>
	<line class="st0" x1="29.4" y1="28.1" x2="33" y2="28.1"/>
	<line class="st0" x1="36.6" y1="28.1" x2="36.9" y2="28.1"/>
	<line class="st0" x1="33" y1="28.1" x2="36.6" y2="28.1"/>
	<line class="st0" x1="29.1" y1="28.1" x2="29.4" y2="28.1"/>
	<line class="st0" x1="11.6" y1="24.4" x2="15.2" y2="24.4"/>
	<line class="st0" x1="15.2" y1="24.4" x2="15.9" y2="24.4"/>
	<line class="st0" x1="11.6" y1="24.4" x2="8.1" y2="24.4"/>
	<line class="st0" x1="0" y1="35.5" x2="0.4" y2="35.5"/>
	<line class="st0" x1="4" y1="35.5" x2="4.6" y2="35.5"/>
	<line class="st0" x1="0.4" y1="35.5" x2="4" y2="35.5"/>
	<line class="st0" x1="15.6" y1="16.7" x2="13.6" y2="16.7"/>
	<line class="st0" x1="22" y1="16.7" x2="19.2" y2="16.7"/>
	<line class="st0" x1="19.2" y1="16.7" x2="15.6" y2="16.7"/>
	<line class="st0" x1="33.8" y1="13" x2="32.1" y2="13"/>
	<line class="st0" x1="39.5" y1="13" x2="37.4" y2="13"/>
	<line class="st0" x1="37.4" y1="13" x2="33.8" y2="13"/>
	<line class="st0" x1="19.6" y1="9.2" x2="16" y2="9.2"/>
	<line class="st0" x1="16" y1="9.2" x2="12.6" y2="9.2"/>
	<line class="st0" x1="20" y1="9.2" x2="19.6" y2="9.2"/>
	<line class="st0" x1="48.2" y1="13" x2="51.8" y2="13"/>
	<line class="st0" x1="45.2" y1="13" x2="48.2" y2="13"/>
	<line class="st0" x1="51.8" y1="13" x2="52.1" y2="13"/>
	<line class="st0" x1="33" y1="16.6" x2="33.8" y2="16.6"/>
	<line class="st0" x1="41" y1="16.6" x2="37.4" y2="16.6"/>
	<line class="st0" x1="37.4" y1="16.6" x2="33.8" y2="16.6"/>
	<line class="st0" x1="42.1" y1="16.6" x2="41" y2="16.6"/>
	<line class="st0" x1="4.6" y1="20.6" x2="1.6" y2="20.6"/>
	<line class="st0" x1="6.6" y1="20.6" x2="4.6" y2="20.6"/>
	<line class="st0" x1="33.9" y1="20.1" x2="32" y2="20.1"/>
	<line class="st0" x1="33.9" y1="20.1" x2="36" y2="20.1"/>
	<line class="st0" x1="47.2" y1="9" x2="45" y2="9"/>
	<line class="st0" x1="45" y1="9" x2="43.2" y2="9"/>
	<line class="st0" x1="52.9" y1="1.2" x2="52.8" y2="1.2"/>
	<line class="st0" x1="48.9" y1="1.2" x2="49.2" y2="1.2"/>
	<line class="st0" x1="52.8" y1="1.2" x2="49.2" y2="1.2"/>
	<line class="st0" x1="48" y1="20.4" x2="50.9" y2="20.4"/>
	<line class="st0" x1="44.4" y1="20.4" x2="42.4" y2="20.4"/>
	<line class="st0" x1="44.4" y1="20.4" x2="48" y2="20.4"/>
	<line class="st0" x1="30.1" y1="23.9" x2="32.4" y2="23.9"/>
	<line class="st0" x1="26.5" y1="23.9" x2="24.5" y2="23.9"/>
	<line class="st0" x1="30.1" y1="23.9" x2="26.5" y2="23.9"/>
	<line class="st0" x1="48.1" y1="23.9" x2="49.9" y2="23.9"/>
	<line class="st0" x1="44.5" y1="23.9" x2="43" y2="23.9"/>
	<line class="st0" x1="44.5" y1="23.9" x2="48.1" y2="23.9"/>
	<line class="st0" x1="47.7" y1="27.9" x2="51.3" y2="27.9"/>
	<line class="st0" x1="47.7" y1="27.9" x2="47.5" y2="27.9"/>
	<line class="st0" x1="51.3" y1="27.9" x2="53.4" y2="27.9"/>
	<line class="st0" x1="10.5" y1="27.9" x2="11.7" y2="27.9"/>
	<line class="st0" x1="15.3" y1="27.9" x2="11.7" y2="27.9"/>
	<line class="st0" x1="15.3" y1="27.9" x2="16.9" y2="27.9"/>
	<line class="st0" x1="12.8" y1="5.1" x2="10" y2="5.1"/>
	<line class="st0" x1="16.4" y1="5.1" x2="12.8" y2="5.1"/>
	<line class="st0" x1="11.7" y1="31.9" x2="11.3" y2="31.9"/>
	<line class="st0" x1="11.3" y1="31.9" x2="7.7" y2="31.9"/>
	<line class="st0" x1="7.7" y1="31.9" x2="4.4" y2="31.9"/>
	<line class="st0" x1="24.2" y1="31.9" x2="25.7" y2="31.9"/>
	<line class="st0" x1="25.7" y1="31.9" x2="27.7" y2="31.9"/>
	<line class="st0" x1="40.6" y1="31.4" x2="44.2" y2="31.4"/>
	<line class="st0" x1="44.2" y1="31.4" x2="46" y2="31.4"/>
	<line class="st0" x1="39" y1="31.4" x2="40.6" y2="31.4"/>
	<line class="st0" x1="43.9" y1="35.2" x2="44.9" y2="35.2"/>
	<line class="st0" x1="41.7" y1="35.2" x2="43.9" y2="35.2"/>
	<line class="st0" x1="29.5" y1="35.2" x2="25.9" y2="35.2"/>
	<line class="st0" x1="22.3" y1="35.2" x2="22.2" y2="35.2"/>
	<line class="st0" x1="22.3" y1="35.2" x2="25.9" y2="35.2"/>
	<line class="st0" x1="29.5" y1="35.2" x2="30.6" y2="35.2"/>
	<line class="st0" x1="0" y1="9.9" x2="0.9" y2="9.9"/>
	<line class="st0" x1="0.9" y1="9.9" x2="4.5" y2="9.9"/>
	<line class="st0" x1="5.7" y1="9.9" x2="4.5" y2="9.9"/>
	<line class="st0" x1="8.1" y1="38.6" x2="7.7" y2="38.6"/>
	<line class="st0" x1="10.9" y1="38.6" x2="8.1" y2="38.6"/>
	<line class="st0" x1="22.5" y1="38.6" x2="19" y2="38.6"/>
	<line class="st0" x1="22.5" y1="38.6" x2="25.6" y2="38.6"/>
	<line class="st0" x1="44.3" y1="38.5" x2="44.6" y2="38.5"/>
	<line class="st0" x1="41.2" y1="38.5" x2="44.3" y2="38.5"/>
	<line class="st0" x1="27.7" y1="4.7" x2="30.1" y2="4.7"/>
	<line class="st0" x1="26.7" y1="4.7" x2="27.7" y2="4.7"/>
	<line class="st0" x1="12.1" y1="42.4" x2="14.2" y2="42.4"/>
	<line class="st0" x1="22.4" y1="42.4" x2="23" y2="42.4"/>
	<line class="st0" x1="22.4" y1="42.4" x2="22" y2="42.4"/>
	<line class="st0" x1="14.2" y1="42.4" x2="15.2" y2="42.4"/>
	<line class="st0" x1="18.8" y1="42.4" x2="22" y2="42.4"/>
	<line class="st0" x1="15.2" y1="42.4" x2="18.8" y2="42.4"/>
	<line class="st0" x1="41.8" y1="5" x2="38.2" y2="5"/>
	<line class="st0" x1="34.6" y1="5" x2="38.2" y2="5"/>
	<line class="st0" x1="34.6" y1="5" x2="33.1" y2="5"/>
	<line class="st0" x1="44" y1="5" x2="41.8" y2="5"/>
	<line class="st0" x1="17" y1="1" x2="15.9" y2="1"/>
	<line class="st0" x1="24.2" y1="1" x2="20.6" y2="1"/>
	<line class="st0" x1="26.7" y1="1" x2="24.2" y2="1"/>
	<line class="st0" x1="17" y1="1" x2="20.6" y2="1"/>
	<line class="st0" x1="34.5" y1="42.1" x2="37" y2="42.1"/>
	<line class="st0" x1="37" y1="42.1" x2="38.9" y2="42.1"/>
	<line class="st0" x1="51.4" y1="42.1" x2="47.8" y2="42.1"/>
	<line class="st0" x1="47.4" y1="42.1" x2="47.8" y2="42.1"/>
	<line class="st0" x1="51.9" y1="42.1" x2="51.4" y2="42.1"/>
	<line class="st0" x1="42.2" y1="47.7" x2="38.6" y2="47.7"/>
	<line class="st0" x1="42.2" y1="47.7" x2="43.1" y2="47.7"/>
	<line class="st0" x1="35" y1="47.7" x2="38.6" y2="47.7"/>
	<line class="st0" x1="35" y1="47.7" x2="34.5" y2="47.7"/>
	<line class="st0" x1="27.1" y1="8.9" x2="26" y2="8.9"/>
	<line class="st0" x1="27.1" y1="8.9" x2="30.7" y2="8.9"/>
	<line class="st0" x1="34.3" y1="8.9" x2="30.7" y2="8.9"/>
	<line class="st0" x1="34.3" y1="8.9" x2="34.6" y2="8.9"/>
	<line class="st0" x1="26.7" y1="45.2" x2="30.3" y2="45.2"/>
	<line class="st0" x1="30.3" y1="45.2" x2="31.1" y2="45.2"/>
	<line class="st0" x1="23.1" y1="45.2" x2="21.2" y2="45.2"/>
	<line class="st0" x1="26.7" y1="45.2" x2="23.1" y2="45.2"/>
	<line class="st0" x1="4.7" y1="45.6" x2="2.5" y2="45.6"/>
	<line class="st0" x1="8.3" y1="45.6" x2="4.7" y2="45.6"/>
	<line class="st0" x1="11" y1="45.6" x2="8.3" y2="45.6"/>
	<line class="st0" x1="13.6" y1="51.1" x2="13.6" y2="51.1"/>
	<line class="st0" x1="13.6" y1="51.1" x2="17.2" y2="51.1"/>
	<line class="st0" x1="20.8" y1="51.1" x2="21.7" y2="51.1"/>
	<line class="st0" x1="20.8" y1="51.1" x2="17.2" y2="51.1"/>
	<line class="st0" x1="42.5" y1="51" x2="42.2" y2="51"/>
	<line class="st0" x1="48.6" y1="51" x2="46.1" y2="51"/>
	<line class="st0" x1="46.1" y1="51" x2="42.5" y2="51"/>
	<line class="st0" x1="54" y1="35.5" x2="50.9" y2="35.5"/>
	<line class="st0" x1="51.3" y1="9.9" x2="54" y2="9.9"/>
	<line class="st0" x1="51.3" y1="9.9" x2="51.3" y2="9.9"/>
	<path class="st1" d="M9.9,20.6l2.3-1l-0.3-1l-0.8-0.1l-0.9-0.9l0.6-0.9l-1.8-1.5l-4.2,0.9l1.1,2c0,0,0,0.1,1.1-0.4s1.1,1.5,1.1,1.5
		l1-0.1L9.9,20.6z"/>
	<path class="st1" d="M24.7,14.9c2.8,1,1.1,2.4,1.1,2.4l0.5,0.5c0.6,0,1.3,2,1.3,2l1.6-0.9L29,18.2l1.5-1.5l-0.6-0.5l0.6-0.6
		l-3.8-1.5L24.7,14.9z"/>
	<path class="st1" d="M22.3,23.4c0.3,0,0.4,0,0.4,0C22.6,23.4,22.4,23.4,22.3,23.4"/>
	<path class="st1" d="M22.3,23.4c-0.6,0-1.7-0.1-2.5-1c-1.1,0.9-2.1,1.1-3.4,1l4.1,1.4C20.6,24.7,21.2,23.6,22.3,23.4"/>
	<path class="st1" d="M43.9,16.8l5.6,1.1c-0.4-0.8-0.5-0.9-0.3-1.5s0.8-0.6,0.8-0.6s-0.5-1-1.4-0.9S47.4,15,47,14.1s-1.1-0.1-1,0.6
		S45.4,16,43.9,16.8z"/>
	<path class="st1" d="M36.5,24.4l1.4-1.5c0,0,1.3,0.1,1.9,0.4s1.5,0.3,0.8-0.1s-0.6-1.4-0.6-1.4c-1.1,0.3-2.3-0.4-2.1-1.4
		c-0.6,1-1.1,1.3-1.1,1.3L34,22.4L36.5,24.4z"/>
	<path class="st1" d="M41,28.6c1.9,1.5,4.8,1.6,4.8,1.6l1.9-0.1l-1.8-0.6v-0.6l-1.5-1.6C43.2,29,41,28.6,41,28.6z"/>
	<path class="st1" d="M36,32.1l-1.3-2c0,0-1.1,0.9-1.9-0.1S31,28.9,31,28.9l-0.3,1.4l-1.6,0.5c0,0,0.6,0.6,1.4,0.6s0.9,1.1,0.9,1.1
		S33.9,30.6,36,32.1z"/>
	<path class="st1" d="M19,32.5c0,0,2,1,2.6-1.6c1.4-1,1.1-1.5,0.5-1.8S21,28.2,21,28.2s0.4,0.8-0.6,0.8s-2,0.1-1.4,0.9
		s0.1,1.5-0.1,1.6S19,32.5,19,32.5z"/>
	<path class="st1" d="M3.9,28.6c0,0,1.3,0.5,1.5,1.1s-0.1-0.3,1.1-0.5s1.9-1,1.9-1l-1-1.1l-1.5-0.6L3.9,28.6z"/>
	<path class="st1" d="M12,35.8c0,0,0.8,0.9,1,1.5c0.6-0.4,2.1,0.8,2.1,0.8c-0.5-1.9,0.6-1.4,0.6-1.4s0-2.6-0.5-1.6S12,35.8,12,35.8z
		"/>
	<path class="st1" d="M1.7,40.2c0,0,3.3,1,4,2c0.9-0.6,2.3-1,2.3-1s-0.1-0.4-0.9-0.6s-1.4-0.6-0.8-2c-1.5,0.1-2.3-0.8-2.3-0.8
		l-1-0.1C3.1,37.7,3.9,38.7,1.7,40.2z"/>
	<path class="st1" d="M2.9,49.9L4,51.6c0,0,2.6-0.9,4.5-0.1c0.6-0.8,1-1,1-1s-1,0.1-1.4-0.6c-0.9,0.5-3,0-3.5-0.9L2.9,49.9z"/>
	<path class="st1" d="M13,46.9c1.1,0.9,2.5,3,3,2.3c0.5-0.8,2.1-1.5,2.5-1.5s-0.6-1.1-0.5-1.5s-1.8,0-2.1-0.6
		C15.5,44.9,15.5,46.7,13,46.9z"/>
	<path class="st1" d="M26.1,48.9c0,0,1.5,1.5,1.5,1.9s4.9-0.8,4.9-0.8l-2.8-2.8C29.7,47.2,28.6,49,26.1,48.9z"/>
	<path class="st1" d="M26,40.6c2.3,0.6,3.6,2.4,4,2.9s0.6-1.6,1.9-2.3c-1.3-0.5-1.4-0.8-1.4-1.8s-1,1.3-2,0
		C28.1,40.4,24.9,40.3,26,40.6z"/>
	<path class="st1" d="M34.5,37.4c-0.5-0.1-0.9-0.1-0.9-0.1C33.9,37.3,34.2,37.3,34.5,37.4"/>
	<path class="st1" d="M34.5,37.4c0.7,0.2,1.6,0.7,1.1,2.1l3.1-0.8l1.5-2.6l-1.9-0.5C38.4,35.6,37.4,37.6,34.5,37.4"/>
	<path class="st1" d="M39.9,43.5l1.1,1c0,0,1.4-0.8,1.8,0.5l2.1-0.6c0,0-0.8-0.6,0-2.1l-1.5,0.4L41,42.5L39.9,43.5z"/>
	<path class="st1" d="M46.7,36.2l1.8,1.9l1.6-1l2.8-0.5l-3.1-0.9c0,0-0.8-2.3-0.8-1.3S46.7,36.2,46.7,36.2z"/>
	<path class="st1" d="M47.4,47.5c0,0,2.3,1.9,3.5,2.8c0.3-0.8,1.8-2.1,1.3-2.1s-0.8-0.9-0.4-1.9C51.2,47.2,47.4,47.5,47.4,47.5z"/>
	<path class="st1" d="M41.8,10.1l-0.7-1.5c0,0-0.3,1.2-1.2,0.3c-0.8-0.8-1.8-2-1.8-2l-0.8,0.8l-1,1.2l1.3,1.2H41.8z"/>
	<path class="st1" d="M50.3,6.9l-1-0.8c0,0,1-1,0-1.7c-1-0.7-1.7-1.5-1.7-1.5l-1,0.7L45,3l-0.2,2.2l1,0.3l-0.5,1.2l3,1.2L50.3,6.9z"
		/>
	<path class="st1" d="M35.2,0l-0.5,1.2L37,1.7l1.8-1.7c-0.2,0-0.4,0-0.5-0.1H35.2z"/>
	<path class="st1" d="M22.3,5.7l2.5-1.3l-2.2-2l-2.2,2.3L19.2,4l-1,2.3c0,0,0.5,1.2,1.8,0.7c1.3-0.5,2.2,0.8,2.2,0.8L22.3,5.7z"/>
	<path class="st1" d="M9.3,6.3l-2-3.5L3.4,3.3l1.8,2.8c0,0,0-0.7,1-0.8S9.3,6.3,9.3,6.3z"/>
	<polygon class="st1" points="17,11.2 15.5,12.5 17.5,12.7 19.5,14 21.5,12.7 19.5,12.5 	"/>
	<polygon class="st1" points="0,23.5 1.3,22.7 0,22.2 	"/>
	<polygon class="st1" points="54,22.2 53,21.7 51.3,22.2 52.5,24.5 54,23.5 	"/>
	<path class="st1" d="M35.2,54l0.3-0.8l1.5-0.7c0,0,0.1,1.1,1.2,1.4H35.2z"/>
</g>
</svg>
