<?xml version="1.0" encoding="utf-8"?>
<!-- Generator: Adobe Illustrator 23.0.1, SVG Export Plug-In . SVG Version: 6.00 Build 0)  -->
<svg version="1.1" id="Layer_1" xmlns="http://www.w3.org/2000/svg" xmlns:xlink="http://www.w3.org/1999/xlink" x="0px" y="0px"
	 viewBox="0 0 54 54" style="enable-background:new 0 0 54 54;" xml:space="preserve">
<style type="text/css">
	.st0{fill:none;stroke:#000000;stroke-width:0.3;}
</style>
<g>
	<line class="st0" x1="10.7" y1="9.8" x2="11.8" y2="8.8"/>
	<line class="st0" x1="11.8" y1="10.8" x2="10.7" y2="9.8"/>
	<line class="st0" x1="4.5" y1="9.8" x2="10.7" y2="9.8"/>
	<line class="st0" x1="18.8" y1="23.5" x2="17.8" y2="24.5"/>
	<line class="st0" x1="17.8" y1="24.5" x2="18.8" y2="25.5"/>
	<line class="st0" x1="11.6" y1="24.5" x2="17.8" y2="24.5"/>
	<line class="st0" x1="27" y1="41" x2="28.1" y2="40"/>
	<line class="st0" x1="27" y1="41" x2="28.1" y2="42"/>
	<line class="st0" x1="20.8" y1="41" x2="27" y2="41"/>
	<line class="st0" x1="26.7" y1="51.4" x2="27.8" y2="52.4"/>
	<line class="st0" x1="26.7" y1="51.4" x2="27.8" y2="50.4"/>
	<line class="st0" x1="26.7" y1="51.4" x2="20.5" y2="51.4"/>
	<line class="st0" x1="51.5" y1="39.9" x2="50.4" y2="40.9"/>
	<line class="st0" x1="50.4" y1="40.9" x2="51.5" y2="41.9"/>
	<line class="st0" x1="50.4" y1="40.9" x2="44.2" y2="40.9"/>
	<line class="st0" x1="44.6" y1="50.4" x2="45.7" y2="51.4"/>
	<line class="st0" x1="45.7" y1="49.4" x2="44.6" y2="50.4"/>
	<line class="st0" x1="44.6" y1="50.4" x2="38.5" y2="50.4"/>
	<line class="st0" x1="9" y1="36.3" x2="10" y2="37.3"/>
	<line class="st0" x1="9" y1="36.3" x2="10" y2="35.3"/>
	<line class="st0" x1="9" y1="36.3" x2="2.8" y2="36.3"/>
	<line class="st0" x1="28.9" y1="14.6" x2="27.9" y2="15.6"/>
	<line class="st0" x1="27.9" y1="15.6" x2="28.9" y2="16.6"/>
	<line class="st0" x1="21.7" y1="15.6" x2="27.9" y2="15.6"/>
	<line class="st0" x1="47" y1="11.1" x2="45.9" y2="10.1"/>
	<line class="st0" x1="45.9" y1="10.1" x2="47" y2="9.1"/>
	<line class="st0" x1="39.7" y1="10.1" x2="45.9" y2="10.1"/>
	<line class="st0" x1="42.8" y1="21.2" x2="43.8" y2="22.2"/>
	<line class="st0" x1="42.8" y1="21.2" x2="43.8" y2="20.2"/>
	<line class="st0" x1="42.8" y1="21.2" x2="36.6" y2="21.2"/>
	<line class="st0" x1="2.5" y1="26.2" x2="1.4" y2="27.2"/>
	<line class="st0" x1="1.4" y1="27.2" x2="2.5" y2="28.2"/>
	<line class="st0" x1="0" y1="27.2" x2="1.4" y2="27.2"/>
	<line class="st0" x1="34.9" y1="31.9" x2="35.9" y2="32.9"/>
	<line class="st0" x1="35.9" y1="30.9" x2="34.9" y2="31.9"/>
	<line class="st0" x1="34.9" y1="31.9" x2="28.7" y2="31.9"/>
	<line class="st0" x1="50.8" y1="3.4" x2="51.8" y2="4.4"/>
	<line class="st0" x1="51.8" y1="2.4" x2="50.8" y2="3.4"/>
	<line class="st0" x1="50.8" y1="3.4" x2="45.1" y2="3.4"/>
	<line class="st0" x1="40.1" y1="3.5" x2="34.4" y2="3.5"/>
	<line class="st0" x1="29.4" y1="3.6" x2="23.7" y2="3.6"/>
	<line class="st0" x1="18.6" y1="3.7" x2="12.9" y2="3.7"/>
	<line class="st0" x1="41.1" y1="2.5" x2="40.1" y2="3.5"/>
	<line class="st0" x1="40.1" y1="3.5" x2="41.1" y2="4.5"/>
	<line class="st0" x1="30.3" y1="2.6" x2="29.4" y2="3.6"/>
	<line class="st0" x1="29.4" y1="3.6" x2="30.3" y2="4.6"/>
	<line class="st0" x1="19.6" y1="2.7" x2="18.6" y2="3.7"/>
	<line class="st0" x1="18.6" y1="3.7" x2="19.6" y2="4.7"/>
	<line class="st0" x1="7.9" y1="3.7" x2="8.9" y2="4.7"/>
	<line class="st0" x1="8.9" y1="2.7" x2="7.9" y2="3.7"/>
	<line class="st0" x1="7.9" y1="3.7" x2="2.2" y2="3.7"/>
	<line class="st0" x1="0" y1="5.8" x2="54" y2="5.8"/>
	<line class="st0" x1="0" y1="1.6" x2="54" y2="1.6"/>
	<line class="st0" x1="13.2" y1="46.4" x2="14.3" y2="45.4"/>
	<line class="st0" x1="13.2" y1="46.4" x2="14.3" y2="47.4"/>
	<line class="st0" x1="13.2" y1="46.4" x2="7" y2="46.4"/>
	<line class="st0" x1="49.2" y1="27.2" x2="54" y2="27.2"/>
</g>
</svg>
