<?xml version="1.0" encoding="utf-8"?>
<!-- Generator: Adobe Illustrator 23.0.1, SVG Export Plug-In . SVG Version: 6.00 Build 0)  -->
<svg version="1.1" id="Layer_1" xmlns="http://www.w3.org/2000/svg" xmlns:xlink="http://www.w3.org/1999/xlink" x="0px" y="0px"
	 viewBox="0 0 54 54" style="enable-background:new 0 0 54 54;" xml:space="preserve">
<g>
	<path d="M4.8,2.2c-2.6-0.1-3.5,1.3,0,1.3S7.9,2.1,4.8,2.2z"/>
	<path d="M11.5,3.6C12,4,12.8,4.6,14.6,4c2.4-0.8,1.3-1.8-1.3-1.9C11,2.2,11,3.2,11.5,3.6z"/>
	<path d="M22.5,2.2c-4,0.3-2.3,1.8,0.4,1.6S25.4,2.4,22.5,2.2z"/>
	<path d="M31.1,2c-2.6,0.1-3,1.5,0.3,1.4S35,1.9,31.1,2z"/>
	<path d="M40.8,3.9c2.4-0.1,2.8-1.3,0-1.9C35.8,1.9,38.4,4,40.8,3.9z"/>
	<path d="M48.1,2c-2.8,0.3-2.1,1.6,0.4,1.5S50.5,2,48.1,2z"/>
	<path d="M0,8.2c0.3,0,0.6,0.1,1,0.1c2.6-0.1,2-1.8-0.8-1.8c-0.1,0-0.2,0-0.2,0"/>
	<path d="M10.4,6.7c-0.4-1-0.9-1-2.8-0.4C5.3,6.9,7.1,8,8.9,7.9S10.8,7.7,10.4,6.7z"/>
	<path d="M17.4,6.5c-3.6,0-2.3,1.6,0.3,1.6S20.3,6.9,17.4,6.5z"/>
	<path d="M27.6,6.6c-4-1.1-3,1.4-0.6,1.4S29.6,7.5,27.6,6.6z"/>
	<path d="M35.9,6.4c-4.1,0.3-1,1.9,1.6,1.4S38.1,6.6,35.9,6.4z"/>
	<path d="M44.1,7.5c3.1-0.1,2.6-1.4-0.1-1.4C41.5,6,41,7.6,44.1,7.5z"/>
	<path d="M6,44.6c1.8-0.1,1.9-0.1,1.5-1.1s-0.9-1-2.8-0.4C2.4,43.6,4.3,44.7,6,44.6z"/>
	<path d="M14.8,44.9c2.5,0,2.6-1.3-0.3-1.6C10.9,43.2,12.3,44.9,14.8,44.9z"/>
	<path d="M24.1,44.7c2.4,0,2.6-0.5,0.6-1.4C20.8,42.2,21.8,44.7,24.1,44.7z"/>
	<path d="M34.6,44.5c2.6-0.5,0.6-1.1-1.6-1.4C28.9,43.4,32,45,34.6,44.5z"/>
	<path d="M41.3,44.2c3.1-0.1,2.6-1.4-0.1-1.4C38.6,42.7,38.1,44.4,41.3,44.2z"/>
	<path d="M51.1,44.6c2.9,0.1,2.1-1.5-0.5-1.6S47,44.6,51.1,44.6z"/>
	<path d="M45.6,12.9c-1.9,0.4-2.1,1.6,0.9,1.6c3.1,0,2.6-0.6,1.8-1.3S47.5,12.5,45.6,12.9z"/>
	<path d="M34.5,14.5c-1.9,0-3,2,0.3,1.9C38.6,16.6,36.4,14.5,34.5,14.5z"/>
	<path d="M9.3,51.7c3.9,0.3,1.6-1.9-0.3-1.9S6.1,51.9,9.3,51.7z"/>
	<path d="M16.9,13.5c1.5,0.3,1.8,0.3,2.6-0.5s0.4-1.1-1.6-1.1C15.6,11.9,15.4,13.2,16.9,13.5z"/>
	<path d="M44.8,49.2c1.5,0.3,1.8,0.3,2.6-0.5s0.4-1.1-1.6-1.1C43.5,47.6,43.3,49,44.8,49.2z"/>
	<path d="M4.4,12.6c2.4-0.4,2-1.5-0.3-1.8C1.4,10.6,2,13,4.4,12.6z"/>
	<path d="M8.1,18.6c-2.9,0-2.9,1.6,0.3,1.6S10.3,18.5,8.1,18.6z"/>
	<path d="M33.9,25.5c3.1,0,2-1.8-0.3-1.6C30.8,23.9,30.8,25.5,33.9,25.5z"/>
	<path d="M28.1,20.1c1.5-0.5-0.1-1.5-2-1.8C20.9,19.1,25.3,21.1,28.1,20.1z"/>
	<path d="M48,25.6c2.3-0.8,0.8-1.5-1.5-1.5c0,0-1.3,0-1.9,0.3C43,26,45.8,26.3,48,25.6z"/>
	<path d="M20.7,27.2c3,0.1,2.9-1.5,0-1.6C17.5,25.6,17.7,27.1,20.7,27.2z"/>
	<path d="M46.6,35.5c-3.1,0.1-2,1.8,0.4,1.8S49.8,35.4,46.6,35.5z"/>
	<path d="M36,34c2.8,0,2.8-1.8-0.1-1.8C32.8,32.1,33.3,34,36,34z"/>
	<path d="M22.1,36.4c2.5,0,2.3-1.8-0.5-1.8C18.3,35,19.6,36.4,22.1,36.4z"/>
	<path d="M8.1,31.2c2.6,0,3-1.8-0.3-1.8C4.9,29.6,5.5,31.2,8.1,31.2z"/>
	<path d="M29.3,52c2.6,0,3-1.8-0.3-1.8C26,50.4,26.6,52,29.3,52z"/>
	<path d="M3.9,38.7c2.5-0.1,2.5-1.5-0.4-1.4C0.1,37.6,1.4,38.9,3.9,38.7z"/>
	<path d="M54,6.5c-2.2,0.1-1.8,1.4,0,1.7"/>
</g>
</svg>
