<?xml version="1.0" encoding="utf-8"?>
<!-- Generator: Adobe Illustrator 23.0.1, SVG Export Plug-In . SVG Version: 6.00 Build 0)  -->
<svg version="1.1" id="Layer_1" xmlns="http://www.w3.org/2000/svg" xmlns:xlink="http://www.w3.org/1999/xlink" x="0px" y="0px"
	 viewBox="0 0 46.8 46.8" style="enable-background:new 0 0 46.8 46.8;" xml:space="preserve">
<style type="text/css">
	.st0{fill:none;stroke:#000000;stroke-width:0.3;}
	.st1{fill:none;stroke:#000000;stroke-width:0.7;stroke-linecap:round;}
</style>
<g>
	<line class="st0" x1="5.4" y1="1.6" x2="0" y2="1.6"/>
	<line class="st0" x1="12.9" y1="1.6" x2="20.8" y2="1.6"/>
	<line class="st0" x1="28.4" y1="1.6" x2="36.3" y2="1.6"/>
	<line class="st0" x1="0" y1="13.2" x2="3.8" y2="13.2"/>
	<line class="st0" x1="19.2" y1="13.2" x2="11.3" y2="13.2"/>
	<line class="st0" x1="26.8" y1="13.2" x2="34.6" y2="13.2"/>
	<line class="st0" x1="0" y1="24.8" x2="1.7" y2="24.8"/>
	<line class="st0" x1="9.4" y1="24.8" x2="17.2" y2="24.8"/>
	<line class="st0" x1="24.9" y1="24.8" x2="32.7" y2="24.8"/>
	<line class="st0" x1="5.1" y1="36.5" x2="0" y2="36.5"/>
	<line class="st0" x1="20.7" y1="36.5" x2="12.8" y2="36.5"/>
	<line class="st0" x1="36.3" y1="36.5" x2="28.4" y2="36.5"/>
	<line class="st0" x1="44.2" y1="1.6" x2="46.8" y2="1.6"/>
	<line class="st0" x1="42.6" y1="13.2" x2="46.8" y2="13.2"/>
	<line class="st0" x1="40.5" y1="24.8" x2="46.8" y2="24.8"/>
	<line class="st0" x1="43.9" y1="36.5" x2="46.8" y2="36.5"/>
	<line class="st0" x1="43.9" y1="7.4" x2="36" y2="7.4"/>
	<line class="st0" x1="20.4" y1="7.4" x2="28.3" y2="7.4"/>
	<line class="st0" x1="4.6" y1="7.4" x2="12.5" y2="7.4"/>
	<line class="st0" x1="34.1" y1="19" x2="42" y2="19"/>
	<line class="st0" x1="26.4" y1="19" x2="18.5" y2="19"/>
	<line class="st0" x1="10.5" y1="19" x2="2.6" y2="19"/>
	<line class="st0" x1="34.1" y1="30.6" x2="42" y2="30.6"/>
	<line class="st0" x1="26.4" y1="30.6" x2="18.5" y2="30.6"/>
	<line class="st0" x1="10.7" y1="30.6" x2="2.8" y2="30.6"/>
	<line class="st0" x1="43.6" y1="42.2" x2="35.7" y2="42.2"/>
	<line class="st0" x1="28.2" y1="42.2" x2="20.3" y2="42.2"/>
	<line class="st0" x1="12.5" y1="42.2" x2="4.6" y2="42.2"/>
	<line class="st1" x1="24.6" y1="1.6" x2="24.6" y2="1.6"/>
	<line class="st1" x1="26.6" y1="1.6" x2="26.6" y2="1.6"/>
	<line class="st1" x1="22.5" y1="1.6" x2="22.5" y2="1.6"/>
	<line class="st1" x1="9.2" y1="1.6" x2="9.2" y2="1.6"/>
	<line class="st1" x1="11.2" y1="1.6" x2="11.2" y2="1.6"/>
	<line class="st1" x1="7.2" y1="1.6" x2="7.2" y2="1.6"/>
	<line class="st1" x1="40.3" y1="1.6" x2="40.3" y2="1.6"/>
	<line class="st1" x1="42.3" y1="1.6" x2="42.3" y2="1.6"/>
	<line class="st1" x1="38.2" y1="1.6" x2="38.2" y2="1.6"/>
	<line class="st1" x1="23" y1="13.2" x2="23" y2="13.2"/>
	<line class="st1" x1="25" y1="13.2" x2="25" y2="13.2"/>
	<line class="st1" x1="21" y1="13.2" x2="21" y2="13.2"/>
	<line class="st1" x1="7.6" y1="13.2" x2="7.6" y2="13.2"/>
	<line class="st1" x1="9.6" y1="13.2" x2="9.6" y2="13.2"/>
	<line class="st1" x1="5.6" y1="13.2" x2="5.6" y2="13.2"/>
	<line class="st1" x1="38.7" y1="13.2" x2="38.7" y2="13.2"/>
	<line class="st1" x1="40.7" y1="13.2" x2="40.7" y2="13.2"/>
	<line class="st1" x1="36.7" y1="13.2" x2="36.7" y2="13.2"/>
	<line class="st1" x1="21" y1="24.9" x2="21" y2="24.9"/>
	<line class="st1" x1="22.9" y1="24.9" x2="22.9" y2="24.9"/>
	<line class="st1" x1="18.9" y1="24.9" x2="18.9" y2="24.9"/>
	<line class="st1" x1="5.6" y1="24.9" x2="5.6" y2="24.9"/>
	<line class="st1" x1="7.5" y1="24.9" x2="7.5" y2="24.9"/>
	<line class="st1" x1="3.5" y1="24.9" x2="3.5" y2="24.9"/>
	<line class="st1" x1="36.7" y1="24.9" x2="36.7" y2="24.9"/>
	<line class="st1" x1="38.6" y1="24.9" x2="38.6" y2="24.9"/>
	<line class="st1" x1="34.6" y1="24.9" x2="34.6" y2="24.9"/>
	<line class="st1" x1="24.5" y1="36.5" x2="24.5" y2="36.5"/>
	<line class="st1" x1="26.4" y1="36.5" x2="26.4" y2="36.5"/>
	<line class="st1" x1="22.4" y1="36.5" x2="22.4" y2="36.5"/>
	<line class="st1" x1="9.1" y1="36.5" x2="9.1" y2="36.5"/>
	<line class="st1" x1="11" y1="36.5" x2="11" y2="36.5"/>
	<line class="st1" x1="7" y1="36.5" x2="7" y2="36.5"/>
	<line class="st1" x1="40.2" y1="36.5" x2="40.2" y2="36.5"/>
	<line class="st1" x1="42.1" y1="36.5" x2="42.1" y2="36.5"/>
	<line class="st1" x1="38.1" y1="36.5" x2="38.1" y2="36.5"/>
	<line class="st1" x1="16.3" y1="7.4" x2="16.3" y2="7.4"/>
	<line class="st1" x1="18.3" y1="7.4" x2="18.3" y2="7.4"/>
	<line class="st1" x1="14.3" y1="7.4" x2="14.3" y2="7.4"/>
	<line class="st1" x1="0.8" y1="7.4" x2="0.8" y2="7.4"/>
	<line class="st1" x1="2.8" y1="7.4" x2="2.8" y2="7.4"/>
	<line class="st1" x1="32.2" y1="7.4" x2="32.2" y2="7.4"/>
	<line class="st1" x1="34.2" y1="7.4" x2="34.2" y2="7.4"/>
	<line class="st1" x1="30.1" y1="7.4" x2="30.1" y2="7.4"/>
	<line class="st1" x1="45.6" y1="7.4" x2="45.6" y2="7.4"/>
	<line class="st1" x1="14.4" y1="19" x2="14.4" y2="19"/>
	<line class="st1" x1="16.4" y1="19" x2="16.4" y2="19"/>
	<line class="st1" x1="12.3" y1="19" x2="12.3" y2="19"/>
	<line class="st1" x1="30.3" y1="19" x2="30.3" y2="19"/>
	<line class="st1" x1="32.2" y1="19" x2="32.2" y2="19"/>
	<line class="st1" x1="28.2" y1="19" x2="28.2" y2="19"/>
	<line class="st1" x1="45.7" y1="19" x2="45.7" y2="19"/>
	<line class="st1" x1="43.6" y1="19" x2="43.6" y2="19"/>
	<line class="st1" x1="14.4" y1="30.7" x2="14.4" y2="30.7"/>
	<line class="st1" x1="16.4" y1="30.7" x2="16.4" y2="30.7"/>
	<line class="st1" x1="12.4" y1="30.7" x2="12.4" y2="30.7"/>
	<line class="st1" x1="0.9" y1="30.7" x2="0.9" y2="30.7"/>
	<line class="st1" x1="30.3" y1="30.7" x2="30.3" y2="30.7"/>
	<line class="st1" x1="32.3" y1="30.7" x2="32.3" y2="30.7"/>
	<line class="st1" x1="28.2" y1="30.7" x2="28.2" y2="30.7"/>
	<line class="st1" x1="45.8" y1="30.7" x2="45.8" y2="30.7"/>
	<line class="st1" x1="43.7" y1="30.7" x2="43.7" y2="30.7"/>
	<line class="st1" x1="16.2" y1="42.2" x2="16.2" y2="42.2"/>
	<line class="st1" x1="18.2" y1="42.2" x2="18.2" y2="42.2"/>
	<line class="st1" x1="14.2" y1="42.2" x2="14.2" y2="42.2"/>
	<line class="st1" x1="0.7" y1="42.2" x2="0.7" y2="42.2"/>
	<line class="st1" x1="2.7" y1="42.2" x2="2.7" y2="42.2"/>
	<line class="st1" x1="32.1" y1="42.2" x2="32.1" y2="42.2"/>
	<line class="st1" x1="34.1" y1="42.2" x2="34.1" y2="42.2"/>
	<line class="st1" x1="30" y1="42.2" x2="30" y2="42.2"/>
	<line class="st1" x1="45.5" y1="42.2" x2="45.5" y2="42.2"/>
	<line class="st1" x1="1.1" y1="4.5" x2="1.1" y2="4.5"/>
	<line class="st1" x1="4.7" y1="4.5" x2="4.7" y2="4.5"/>
	<line class="st1" x1="2.9" y1="4.5" x2="2.9" y2="4.5"/>
	<line class="st1" x1="8.3" y1="4.5" x2="8.3" y2="4.5"/>
	<line class="st1" x1="6.5" y1="4.5" x2="6.5" y2="4.5"/>
	<line class="st1" x1="11.9" y1="4.5" x2="11.9" y2="4.5"/>
	<line class="st1" x1="10.1" y1="4.5" x2="10.1" y2="4.5"/>
	<line class="st1" x1="15.5" y1="4.5" x2="15.5" y2="4.5"/>
	<line class="st1" x1="13.7" y1="4.5" x2="13.7" y2="4.5"/>
	<line class="st1" x1="19.1" y1="4.5" x2="19.1" y2="4.5"/>
	<line class="st1" x1="17.3" y1="4.5" x2="17.3" y2="4.5"/>
	<line class="st1" x1="22.7" y1="4.5" x2="22.7" y2="4.5"/>
	<line class="st1" x1="20.9" y1="4.5" x2="20.9" y2="4.5"/>
	<line class="st1" x1="26.3" y1="4.5" x2="26.3" y2="4.5"/>
	<line class="st1" x1="24.5" y1="4.5" x2="24.5" y2="4.5"/>
	<line class="st1" x1="29.9" y1="4.5" x2="29.9" y2="4.5"/>
	<line class="st1" x1="28.1" y1="4.5" x2="28.1" y2="4.5"/>
	<line class="st1" x1="33.4" y1="4.5" x2="33.4" y2="4.5"/>
	<line class="st1" x1="31.7" y1="4.5" x2="31.7" y2="4.5"/>
	<line class="st1" x1="37" y1="4.5" x2="37" y2="4.5"/>
	<line class="st1" x1="35.2" y1="4.5" x2="35.2" y2="4.5"/>
	<line class="st1" x1="40.6" y1="4.5" x2="40.6" y2="4.5"/>
	<line class="st1" x1="38.8" y1="4.5" x2="38.8" y2="4.5"/>
	<line class="st1" x1="44.2" y1="4.5" x2="44.2" y2="4.5"/>
	<line class="st1" x1="42.4" y1="4.5" x2="42.4" y2="4.5"/>
	<line class="st1" x1="46" y1="4.5" x2="46" y2="4.5"/>
	<line class="st1" x1="1.1" y1="10.4" x2="1.1" y2="10.4"/>
	<line class="st1" x1="4.7" y1="10.4" x2="4.7" y2="10.4"/>
	<line class="st1" x1="2.9" y1="10.4" x2="2.9" y2="10.4"/>
	<line class="st1" x1="8.3" y1="10.4" x2="8.3" y2="10.4"/>
	<line class="st1" x1="6.5" y1="10.4" x2="6.5" y2="10.4"/>
	<line class="st1" x1="11.9" y1="10.4" x2="11.9" y2="10.4"/>
	<line class="st1" x1="10.1" y1="10.4" x2="10.1" y2="10.4"/>
	<line class="st1" x1="15.5" y1="10.4" x2="15.5" y2="10.4"/>
	<line class="st1" x1="13.7" y1="10.4" x2="13.7" y2="10.4"/>
	<line class="st1" x1="19.1" y1="10.4" x2="19.1" y2="10.4"/>
	<line class="st1" x1="17.3" y1="10.4" x2="17.3" y2="10.4"/>
	<line class="st1" x1="22.7" y1="10.4" x2="22.7" y2="10.4"/>
	<line class="st1" x1="20.9" y1="10.4" x2="20.9" y2="10.4"/>
	<line class="st1" x1="26.3" y1="10.4" x2="26.3" y2="10.4"/>
	<line class="st1" x1="24.5" y1="10.4" x2="24.5" y2="10.4"/>
	<line class="st1" x1="29.9" y1="10.4" x2="29.9" y2="10.4"/>
	<line class="st1" x1="28.1" y1="10.4" x2="28.1" y2="10.4"/>
	<line class="st1" x1="33.4" y1="10.4" x2="33.4" y2="10.4"/>
	<line class="st1" x1="31.7" y1="10.4" x2="31.7" y2="10.4"/>
	<line class="st1" x1="37" y1="10.4" x2="37" y2="10.4"/>
	<line class="st1" x1="35.2" y1="10.4" x2="35.2" y2="10.4"/>
	<line class="st1" x1="40.6" y1="10.4" x2="40.6" y2="10.4"/>
	<line class="st1" x1="38.8" y1="10.4" x2="38.8" y2="10.4"/>
	<line class="st1" x1="44.2" y1="10.4" x2="44.2" y2="10.4"/>
	<line class="st1" x1="42.4" y1="10.4" x2="42.4" y2="10.4"/>
	<line class="st1" x1="46" y1="10.4" x2="46" y2="10.4"/>
	<line class="st1" x1="1.1" y1="16.1" x2="1.1" y2="16.1"/>
	<line class="st1" x1="4.7" y1="16.1" x2="4.7" y2="16.1"/>
	<line class="st1" x1="2.9" y1="16.1" x2="2.9" y2="16.1"/>
	<line class="st1" x1="8.3" y1="16.1" x2="8.3" y2="16.1"/>
	<line class="st1" x1="6.5" y1="16.1" x2="6.5" y2="16.1"/>
	<line class="st1" x1="11.9" y1="16.1" x2="11.9" y2="16.1"/>
	<line class="st1" x1="10.1" y1="16.1" x2="10.1" y2="16.1"/>
	<line class="st1" x1="15.5" y1="16.1" x2="15.5" y2="16.1"/>
	<line class="st1" x1="13.7" y1="16.1" x2="13.7" y2="16.1"/>
	<line class="st1" x1="19.1" y1="16.1" x2="19.1" y2="16.1"/>
	<line class="st1" x1="17.3" y1="16.1" x2="17.3" y2="16.1"/>
	<line class="st1" x1="22.7" y1="16.1" x2="22.7" y2="16.1"/>
	<line class="st1" x1="20.9" y1="16.1" x2="20.9" y2="16.1"/>
	<line class="st1" x1="26.3" y1="16.1" x2="26.3" y2="16.1"/>
	<line class="st1" x1="24.5" y1="16.1" x2="24.5" y2="16.1"/>
	<line class="st1" x1="29.9" y1="16.1" x2="29.9" y2="16.1"/>
	<line class="st1" x1="28.1" y1="16.1" x2="28.1" y2="16.1"/>
	<line class="st1" x1="33.4" y1="16.1" x2="33.4" y2="16.1"/>
	<line class="st1" x1="31.7" y1="16.1" x2="31.7" y2="16.1"/>
	<line class="st1" x1="37" y1="16.1" x2="37" y2="16.1"/>
	<line class="st1" x1="35.2" y1="16.1" x2="35.2" y2="16.1"/>
	<line class="st1" x1="40.6" y1="16.1" x2="40.6" y2="16.1"/>
	<line class="st1" x1="38.8" y1="16.1" x2="38.8" y2="16.1"/>
	<line class="st1" x1="44.2" y1="16.1" x2="44.2" y2="16.1"/>
	<line class="st1" x1="42.4" y1="16.1" x2="42.4" y2="16.1"/>
	<line class="st1" x1="46" y1="16.1" x2="46" y2="16.1"/>
	<line class="st1" x1="1.1" y1="22" x2="1.1" y2="22"/>
	<line class="st1" x1="4.7" y1="22" x2="4.7" y2="22"/>
	<line class="st1" x1="2.9" y1="22" x2="2.9" y2="22"/>
	<line class="st1" x1="8.3" y1="22" x2="8.3" y2="22"/>
	<line class="st1" x1="6.5" y1="22" x2="6.5" y2="22"/>
	<line class="st1" x1="11.9" y1="22" x2="11.9" y2="22"/>
	<line class="st1" x1="10.1" y1="22" x2="10.1" y2="22"/>
	<line class="st1" x1="15.5" y1="22" x2="15.5" y2="22"/>
	<line class="st1" x1="13.7" y1="22" x2="13.7" y2="22"/>
	<line class="st1" x1="19.1" y1="22" x2="19.1" y2="22"/>
	<line class="st1" x1="17.3" y1="22" x2="17.3" y2="22"/>
	<line class="st1" x1="22.7" y1="22" x2="22.7" y2="22"/>
	<line class="st1" x1="20.9" y1="22" x2="20.9" y2="22"/>
	<line class="st1" x1="26.3" y1="22" x2="26.3" y2="22"/>
	<line class="st1" x1="24.5" y1="22" x2="24.5" y2="22"/>
	<line class="st1" x1="29.9" y1="22" x2="29.9" y2="22"/>
	<line class="st1" x1="28.1" y1="22" x2="28.1" y2="22"/>
	<line class="st1" x1="33.4" y1="22" x2="33.4" y2="22"/>
	<line class="st1" x1="31.7" y1="22" x2="31.7" y2="22"/>
	<line class="st1" x1="37" y1="22" x2="37" y2="22"/>
	<line class="st1" x1="35.2" y1="22" x2="35.2" y2="22"/>
	<line class="st1" x1="40.6" y1="22" x2="40.6" y2="22"/>
	<line class="st1" x1="38.8" y1="22" x2="38.8" y2="22"/>
	<line class="st1" x1="44.2" y1="22" x2="44.2" y2="22"/>
	<line class="st1" x1="42.4" y1="22" x2="42.4" y2="22"/>
	<line class="st1" x1="46" y1="22" x2="46" y2="22"/>
	<line class="st1" x1="1.1" y1="27.8" x2="1.1" y2="27.8"/>
	<line class="st1" x1="4.7" y1="27.8" x2="4.7" y2="27.8"/>
	<line class="st1" x1="2.9" y1="27.8" x2="2.9" y2="27.8"/>
	<line class="st1" x1="8.3" y1="27.8" x2="8.3" y2="27.8"/>
	<line class="st1" x1="6.5" y1="27.8" x2="6.5" y2="27.8"/>
	<line class="st1" x1="11.9" y1="27.8" x2="11.9" y2="27.8"/>
	<line class="st1" x1="10.1" y1="27.8" x2="10.1" y2="27.8"/>
	<line class="st1" x1="15.5" y1="27.8" x2="15.5" y2="27.8"/>
	<line class="st1" x1="13.7" y1="27.8" x2="13.7" y2="27.8"/>
	<line class="st1" x1="19.1" y1="27.8" x2="19.1" y2="27.8"/>
	<line class="st1" x1="17.3" y1="27.8" x2="17.3" y2="27.8"/>
	<line class="st1" x1="22.7" y1="27.8" x2="22.7" y2="27.8"/>
	<line class="st1" x1="20.9" y1="27.8" x2="20.9" y2="27.8"/>
	<line class="st1" x1="26.3" y1="27.8" x2="26.3" y2="27.8"/>
	<line class="st1" x1="24.5" y1="27.8" x2="24.5" y2="27.8"/>
	<line class="st1" x1="29.9" y1="27.8" x2="29.9" y2="27.8"/>
	<line class="st1" x1="28.1" y1="27.8" x2="28.1" y2="27.8"/>
	<line class="st1" x1="33.4" y1="27.8" x2="33.4" y2="27.8"/>
	<line class="st1" x1="31.7" y1="27.8" x2="31.7" y2="27.8"/>
	<line class="st1" x1="37" y1="27.8" x2="37" y2="27.8"/>
	<line class="st1" x1="35.2" y1="27.8" x2="35.2" y2="27.8"/>
	<line class="st1" x1="40.6" y1="27.8" x2="40.6" y2="27.8"/>
	<line class="st1" x1="38.8" y1="27.8" x2="38.8" y2="27.8"/>
	<line class="st1" x1="44.2" y1="27.8" x2="44.2" y2="27.8"/>
	<line class="st1" x1="42.4" y1="27.8" x2="42.4" y2="27.8"/>
	<line class="st1" x1="46" y1="27.8" x2="46" y2="27.8"/>
	<line class="st1" x1="1.1" y1="33.5" x2="1.1" y2="33.5"/>
	<line class="st1" x1="4.7" y1="33.5" x2="4.7" y2="33.5"/>
	<line class="st1" x1="2.9" y1="33.5" x2="2.9" y2="33.5"/>
	<line class="st1" x1="8.3" y1="33.5" x2="8.3" y2="33.5"/>
	<line class="st1" x1="6.5" y1="33.5" x2="6.5" y2="33.5"/>
	<line class="st1" x1="11.9" y1="33.5" x2="11.9" y2="33.5"/>
	<line class="st1" x1="10.1" y1="33.5" x2="10.1" y2="33.5"/>
	<line class="st1" x1="15.5" y1="33.5" x2="15.5" y2="33.5"/>
	<line class="st1" x1="13.7" y1="33.5" x2="13.7" y2="33.5"/>
	<line class="st1" x1="19.1" y1="33.5" x2="19.1" y2="33.5"/>
	<line class="st1" x1="17.3" y1="33.5" x2="17.3" y2="33.5"/>
	<line class="st1" x1="22.7" y1="33.5" x2="22.7" y2="33.5"/>
	<line class="st1" x1="20.9" y1="33.5" x2="20.9" y2="33.5"/>
	<line class="st1" x1="26.3" y1="33.5" x2="26.3" y2="33.5"/>
	<line class="st1" x1="24.5" y1="33.5" x2="24.5" y2="33.5"/>
	<line class="st1" x1="29.9" y1="33.5" x2="29.9" y2="33.5"/>
	<line class="st1" x1="28.1" y1="33.5" x2="28.1" y2="33.5"/>
	<line class="st1" x1="33.4" y1="33.5" x2="33.4" y2="33.5"/>
	<line class="st1" x1="31.7" y1="33.5" x2="31.7" y2="33.5"/>
	<line class="st1" x1="37" y1="33.5" x2="37" y2="33.5"/>
	<line class="st1" x1="35.2" y1="33.5" x2="35.2" y2="33.5"/>
	<line class="st1" x1="40.6" y1="33.5" x2="40.6" y2="33.5"/>
	<line class="st1" x1="38.8" y1="33.5" x2="38.8" y2="33.5"/>
	<line class="st1" x1="44.2" y1="33.5" x2="44.2" y2="33.5"/>
	<line class="st1" x1="42.4" y1="33.5" x2="42.4" y2="33.5"/>
	<line class="st1" x1="46" y1="33.5" x2="46" y2="33.5"/>
	<line class="st1" x1="1.1" y1="39.4" x2="1.1" y2="39.4"/>
	<line class="st1" x1="4.7" y1="39.4" x2="4.7" y2="39.4"/>
	<line class="st1" x1="2.9" y1="39.4" x2="2.9" y2="39.4"/>
	<line class="st1" x1="8.3" y1="39.4" x2="8.3" y2="39.4"/>
	<line class="st1" x1="6.5" y1="39.4" x2="6.5" y2="39.4"/>
	<line class="st1" x1="11.9" y1="39.4" x2="11.9" y2="39.4"/>
	<line class="st1" x1="10.1" y1="39.4" x2="10.1" y2="39.4"/>
	<line class="st1" x1="15.5" y1="39.4" x2="15.5" y2="39.4"/>
	<line class="st1" x1="13.7" y1="39.4" x2="13.7" y2="39.4"/>
	<line class="st1" x1="19.1" y1="39.4" x2="19.1" y2="39.4"/>
	<line class="st1" x1="17.3" y1="39.4" x2="17.3" y2="39.4"/>
	<line class="st1" x1="22.7" y1="39.4" x2="22.7" y2="39.4"/>
	<line class="st1" x1="20.9" y1="39.4" x2="20.9" y2="39.4"/>
	<line class="st1" x1="26.3" y1="39.4" x2="26.3" y2="39.4"/>
	<line class="st1" x1="24.5" y1="39.4" x2="24.5" y2="39.4"/>
	<line class="st1" x1="29.9" y1="39.4" x2="29.9" y2="39.4"/>
	<line class="st1" x1="28.1" y1="39.4" x2="28.1" y2="39.4"/>
	<line class="st1" x1="33.4" y1="39.4" x2="33.4" y2="39.4"/>
	<line class="st1" x1="31.7" y1="39.4" x2="31.7" y2="39.4"/>
	<line class="st1" x1="37" y1="39.4" x2="37" y2="39.4"/>
	<line class="st1" x1="35.2" y1="39.4" x2="35.2" y2="39.4"/>
	<line class="st1" x1="40.6" y1="39.4" x2="40.6" y2="39.4"/>
	<line class="st1" x1="38.8" y1="39.4" x2="38.8" y2="39.4"/>
	<line class="st1" x1="44.2" y1="39.4" x2="44.2" y2="39.4"/>
	<line class="st1" x1="42.4" y1="39.4" x2="42.4" y2="39.4"/>
	<line class="st1" x1="46" y1="39.4" x2="46" y2="39.4"/>
	<line class="st1" x1="1.1" y1="45.2" x2="1.1" y2="45.2"/>
	<line class="st1" x1="4.7" y1="45.2" x2="4.7" y2="45.2"/>
	<line class="st1" x1="2.9" y1="45.2" x2="2.9" y2="45.2"/>
	<line class="st1" x1="8.3" y1="45.2" x2="8.3" y2="45.2"/>
	<line class="st1" x1="6.5" y1="45.2" x2="6.5" y2="45.2"/>
	<line class="st1" x1="11.9" y1="45.2" x2="11.9" y2="45.2"/>
	<line class="st1" x1="10.1" y1="45.2" x2="10.1" y2="45.2"/>
	<line class="st1" x1="15.5" y1="45.2" x2="15.5" y2="45.2"/>
	<line class="st1" x1="13.7" y1="45.2" x2="13.7" y2="45.2"/>
	<line class="st1" x1="19.1" y1="45.2" x2="19.1" y2="45.2"/>
	<line class="st1" x1="17.3" y1="45.2" x2="17.3" y2="45.2"/>
	<line class="st1" x1="22.7" y1="45.2" x2="22.7" y2="45.2"/>
	<line class="st1" x1="20.9" y1="45.2" x2="20.9" y2="45.2"/>
	<line class="st1" x1="26.3" y1="45.2" x2="26.3" y2="45.2"/>
	<line class="st1" x1="24.5" y1="45.2" x2="24.5" y2="45.2"/>
	<line class="st1" x1="29.9" y1="45.2" x2="29.9" y2="45.2"/>
	<line class="st1" x1="28.1" y1="45.2" x2="28.1" y2="45.2"/>
	<line class="st1" x1="33.4" y1="45.2" x2="33.4" y2="45.2"/>
	<line class="st1" x1="31.7" y1="45.2" x2="31.7" y2="45.2"/>
	<line class="st1" x1="37" y1="45.2" x2="37" y2="45.2"/>
	<line class="st1" x1="35.2" y1="45.2" x2="35.2" y2="45.2"/>
	<line class="st1" x1="40.6" y1="45.2" x2="40.6" y2="45.2"/>
	<line class="st1" x1="38.8" y1="45.2" x2="38.8" y2="45.2"/>
	<line class="st1" x1="44.2" y1="45.2" x2="44.2" y2="45.2"/>
	<line class="st1" x1="42.4" y1="45.2" x2="42.4" y2="45.2"/>
	<line class="st1" x1="46" y1="45.2" x2="46" y2="45.2"/>
</g>
</svg>
