<?xml version="1.0" encoding="utf-8"?>
<!-- Generator: Adobe Illustrator 23.0.1, SVG Export Plug-In . SVG Version: 6.00 Build 0)  -->
<svg version="1.1" id="Layer_1" xmlns="http://www.w3.org/2000/svg" xmlns:xlink="http://www.w3.org/1999/xlink" x="0px" y="0px"
	 viewBox="0 0 54.1 54.1" style="enable-background:new 0 0 54.1 54.1;" xml:space="preserve">
<style type="text/css">
	.st0{clip-path:url(#SVGID_2_);fill:none;stroke:#000000;stroke-width:0.3;}
	.st1{clip-path:url(#SVGID_2_);fill:none;stroke:#000000;stroke-width:0.7;stroke-linecap:round;}
</style>
<g>
	<defs>
		<rect id="SVGID_1_" x="0" y="0" width="54.1" height="54.1"/>
	</defs>
	<clipPath id="SVGID_2_">
		<use xlink:href="#SVGID_1_"  style="overflow:visible;"/>
	</clipPath>
	<path class="st0" d="M1,4.2C2.2,4,4,2.9,7.1,3.3"/>
	<path class="st0" d="M9.1,3.7C11,4.4,13.2,5.1,16,4"/>
	<path class="st0" d="M17.7,3.3c3.6-0.7,6,0.9,7.5,1.1"/>
	<path class="st0" d="M27.3,4.4c1.5,0,2.6-0.7,3.8-1.1s2.8-0.5,4.4,0.1"/>
	<path class="st0" d="M37.2,4.1c1.2,0.3,5.2,0.3,7.3-0.7"/>
	<path class="st0" d="M46.4,3.3c2-0.1,1.8,0,3.6,0.5c1.4,0.9,3.2,0.4,3.6,0.5"/>
	<path class="st0" d="M3,8.1C2.1,8.6,1.1,8.8,0,8.9"/>
	<path class="st0" d="M12,9.1c-0.4-0.1-2.3,0.4-3.6-0.5C6.5,8.1,6.8,8.1,4.8,8.1"/>
	<path class="st0" d="M38.2,14.1c1.3-0.3,3-1.3,6.2-0.9"/>
	<path class="st0" d="M46.4,13.6c1.8,0.7,4.1,1.4,6.8,0.3"/>
	<path class="st0" d="M21.4,42.8c-3.2-0.4-4.9,0.7-6.2,0.9"/>
	<path class="st0" d="M30.2,43.5c-2.7,1.1-5,0.4-6.8-0.3"/>
	<path class="st0" d="M39.5,43.9c-1.5-0.2-3.9-1.8-7.5-1.1"/>
	<path class="st0" d="M41.5,43.9c1.5,0,2.6-0.8,3.8-1.1s2.8-0.5,4.4,0.1"/>
	<path class="st0" d="M5.1,42.6c-1.4,0.7-3.5,0.9-5.1,0.9"/>
	<path class="st0" d="M14.1,43.6c-0.4-0.1-2.3,0.4-3.6-0.5C8.7,42.6,9,42.6,7,42.6"/>
	<path class="st0" d="M0,53.5c0.3-0.1,0.7-0.2,1-0.3"/>
	<path class="st0" d="M10.3,53.6c-1.5-0.2-3.9-1.8-7.5-1.1"/>
	<path class="st0" d="M20.6,52.6c-1.7-0.6-3.2-0.4-4.4-0.1c-1.3,0.3-2.3,1.1-3.8,1.1"/>
	<path class="st0" d="M29.6,52.5c-2.2,1.1-6.2,1-7.3,0.8"/>
	<path class="st0" d="M38.6,53.5c-0.4-0.1-2.3,0.4-3.6-0.5c-1.8-0.5-1.6-0.6-3.6-0.5"/>
	<path class="st0" d="M46.4,52.3c-3.2-0.4-4.9,0.7-6.2,0.9"/>
	<path class="st0" d="M4.9,18.2c-2.2-0.3-3.8,0.2-4.9,0.5"/>
	<path class="st0" d="M13.8,18.9c-2.7,1.1-5,0.4-6.8-0.3"/>
	<path class="st0" d="M23,19.3c-1.5-0.2-3.9-1.8-7.5-1.1"/>
	<path class="st0" d="M33.3,18.3c-1.7-0.6-3.2-0.4-4.4-0.1s-2.3,1.1-3.8,1.1"/>
	<path class="st0" d="M42.3,18.2c-2.2,1.1-6.2,1-7.3,0.8"/>
	<path class="st0" d="M44.2,18.2c2-0.1,1.8,0,3.6,0.5c1.4,0.9,3.2,0.4,3.6,0.5"/>
	<path class="st0" d="M7.2,32.8C4,32.4,2.3,33.5,1,33.7"/>
	<path class="st0" d="M9.2,33.2c1.8,0.7,4.1,1.4,6.8,0.3"/>
	<path class="st0" d="M17.8,32.8c3.6-0.7,6,0.9,7.5,1.1"/>
	<path class="st0" d="M27.3,33.9c1.5,0,2.6-0.8,3.8-1.1s2.8-0.5,4.4,0.1"/>
	<path class="st0" d="M37.3,33.6c1.2,0.3,5.2,0.3,7.3-0.8"/>
	<path class="st0" d="M46.4,32.8c2-0.1,1.8,0,3.6,0.5c1.4,0.9,3.2,0.4,3.6,0.5"/>
	<path class="st0" d="M7.3,47.7c-3.2-0.4-4.9,0.7-6.2,0.9"/>
	<path class="st0" d="M9.3,48.1c1.8,0.7,4.1,1.4,6.8,0.3"/>
	<path class="st0" d="M17.9,47.7c3.6-0.7,6,0.9,7.5,1.1"/>
	<path class="st0" d="M27.5,48.8c1.5,0,2.6-0.8,3.8-1.1s2.8-0.5,4.4,0.1"/>
	<path class="st0" d="M37.4,48.4c1.2,0.3,5.2,0.3,7.3-0.8"/>
	<path class="st0" d="M53.7,48.7c-0.4-0.1-2.3,0.4-3.6-0.5c-1.8-0.5-1.6-0.6-3.6-0.5"/>
	<path class="st0" d="M19,8.2c-3.2-0.4-4.9,0.7-6.2,0.9"/>
	<path class="st0" d="M27.9,8.9c-2.7,1.1-5,0.4-6.8-0.3"/>
	<path class="st0" d="M29.6,8.2c3.6-0.7,6,0.9,7.5,1.1"/>
	<path class="st0" d="M39.2,9.3c1.5,0,2.6-0.8,3.8-1.1s2.8-0.5,4.4,0.1"/>
	<path class="st0" d="M7.9,14.2C6.4,14,4,12.4,0.4,13.1"/>
	<path class="st0" d="M10,14.2c1.5,0,2.6-0.8,3.8-1.1c1.3-0.3,2.8-0.5,4.4,0.1"/>
	<path class="st0" d="M19.9,13.9c1.2,0.3,5.2,0.3,7.3-0.8"/>
	<path class="st0" d="M29,13.1c2-0.1,1.8,0,3.6,0.5c1.4,0.9,3.2,0.4,3.6,0.5"/>
	<path class="st0" d="M7,22.9c-3.2-0.4-4.9,0.7-6.2,0.9"/>
	<path class="st0" d="M15.8,23.6c-2.7,1.1-5,0.4-6.8-0.3"/>
	<path class="st0" d="M17.5,22.9c3.6-0.7,6,0.9,7.5,1.1"/>
	<path class="st0" d="M27.1,24c1.5,0,2.6-0.8,3.8-1.1s2.8-0.5,4.4,0.1"/>
	<path class="st0" d="M37,23.7c1.2,0.3,5.2,0.3,7.3-0.8"/>
	<path class="st0" d="M46.2,22.9c2-0.1,1.8,0,3.6,0.5c1.4,0.9,3.2,0.4,3.6,0.5"/>
	<path class="st0" d="M20.7,27.8c-3.2-0.4-4.9,0.7-6.2,0.9"/>
	<path class="st0" d="M29.5,28.5c-2.7,1.1-5,0.4-6.8-0.3"/>
	<path class="st0" d="M38.8,28.9c-1.5-0.2-3.9-1.8-7.5-1.1"/>
	<path class="st0" d="M40.9,28.9c1.5,0,2.6-0.8,3.8-1.1s2.8-0.5,4.4,0.1"/>
	<path class="st0" d="M15.8,38.9c1.3-0.3,3-1.3,6.2-0.9"/>
	<path class="st0" d="M24,38.4c1.8,0.7,4.1,1.4,6.8,0.3"/>
	<path class="st0" d="M32.5,37.9c3.6-0.7,6,0.9,7.5,1.1"/>
	<path class="st0" d="M42.1,39c1.5,0,2.6-0.8,3.8-1.1s2.8-0.5,4.4,0.1"/>
	<path class="st0" d="M5.5,37.8C4,38.5,1.7,38.7,0,38.7"/>
	<path class="st0" d="M7.3,37.8c2-0.1,1.8,0,3.6,0.5c1.4,0.9,3.2,0.4,3.6,0.5"/>
	<path class="st0" d="M4.1,27.9C3,28.5,1.4,28.7,0,28.8"/>
	<path class="st0" d="M13.1,28.9c-0.4-0.1-2.3,0.4-3.6-0.5C7.7,27.9,8,27.9,6,27.9"/>
	<path class="st0" d="M49.8,8.9c0.7,0.2,2.6,0.2,4.4,0"/>
	<path class="st0" d="M51.9,43.4c0.4,0.1,1.2,0.2,2.2,0.2"/>
	<path class="st0" d="M48.3,52.9c1.6,0.6,3.5,1.2,5.8,0.6"/>
	<path class="st0" d="M52.9,19.1c0.4-0.1,0.8-0.2,1.3-0.4"/>
	<path class="st0" d="M52.3,38.6c0.4,0.1,1,0.1,1.8,0.2"/>
	<path class="st0" d="M50.9,28.7c0.6,0.1,1.8,0.2,3.2,0.1"/>
	<line class="st1" x1="0.5" y1="1.9" x2="0.5" y2="1.9"/>
	<line class="st1" x1="2.5" y1="1.6" x2="2.5" y2="1.6"/>
	<line class="st1" x1="4.3" y1="0.9" x2="4.3" y2="0.9"/>
	<line class="st1" x1="6.2" y1="0.8" x2="6.2" y2="0.8"/>
	<line class="st1" x1="8.2" y1="0.9" x2="8.2" y2="0.9"/>
	<line class="st1" x1="10.1" y1="1.4" x2="10.1" y2="1.4"/>
	<line class="st1" x1="11.9" y1="1.8" x2="11.9" y2="1.8"/>
	<line class="st1" x1="14" y1="1.9" x2="14" y2="1.9"/>
	<line class="st1" x1="16" y1="1.6" x2="16" y2="1.6"/>
	<line class="st1" x1="17.8" y1="0.9" x2="17.8" y2="0.9"/>
	<line class="st1" x1="19.8" y1="0.8" x2="19.8" y2="0.8"/>
	<line class="st1" x1="21.7" y1="0.9" x2="21.7" y2="0.9"/>
	<line class="st1" x1="23.7" y1="1.4" x2="23.7" y2="1.4"/>
	<line class="st1" x1="25.4" y1="1.8" x2="25.4" y2="1.8"/>
	<line class="st1" x1="27.4" y1="1.8" x2="27.4" y2="1.8"/>
	<line class="st1" x1="29.4" y1="1.5" x2="29.4" y2="1.5"/>
	<line class="st1" x1="31.3" y1="0.9" x2="31.3" y2="0.9"/>
	<line class="st1" x1="33.2" y1="0.8" x2="33.2" y2="0.8"/>
	<line class="st1" x1="35.1" y1="0.9" x2="35.1" y2="0.9"/>
	<line class="st1" x1="37.1" y1="1.3" x2="37.1" y2="1.3"/>
	<line class="st1" x1="39" y1="1.7" x2="39" y2="1.7"/>
	<line class="st1" x1="41" y1="1.8" x2="41" y2="1.8"/>
	<line class="st1" x1="43" y1="1.5" x2="43" y2="1.5"/>
	<line class="st1" x1="44.8" y1="0.9" x2="44.8" y2="0.9"/>
	<line class="st1" x1="46.8" y1="0.8" x2="46.8" y2="0.8"/>
	<line class="st1" x1="48.7" y1="0.9" x2="48.7" y2="0.9"/>
	<line class="st1" x1="50.6" y1="1.3" x2="50.6" y2="1.3"/>
	<line class="st1" x1="52.4" y1="1.7" x2="52.4" y2="1.7"/>
	<line class="st1" x1="0.8" y1="6.4" x2="0.8" y2="6.4"/>
	<line class="st1" x1="2.6" y1="5.8" x2="2.6" y2="5.8"/>
	<line class="st1" x1="4.6" y1="5.7" x2="4.6" y2="5.7"/>
	<line class="st1" x1="6.5" y1="5.8" x2="6.5" y2="5.8"/>
	<line class="st1" x1="8.5" y1="6.3" x2="8.5" y2="6.3"/>
	<line class="st1" x1="10.3" y1="6.6" x2="10.3" y2="6.6"/>
	<line class="st1" x1="12.3" y1="6.8" x2="12.3" y2="6.8"/>
	<line class="st1" x1="14.4" y1="6.4" x2="14.4" y2="6.4"/>
	<line class="st1" x1="16.2" y1="5.8" x2="16.2" y2="5.8"/>
	<line class="st1" x1="18.1" y1="5.7" x2="18.1" y2="5.7"/>
	<line class="st1" x1="20.1" y1="5.8" x2="20.1" y2="5.8"/>
	<line class="st1" x1="22" y1="6.3" x2="22" y2="6.3"/>
	<line class="st1" x1="23.8" y1="6.6" x2="23.8" y2="6.6"/>
	<line class="st1" x1="25.8" y1="6.7" x2="25.8" y2="6.7"/>
	<line class="st1" x1="27.8" y1="6.4" x2="27.8" y2="6.4"/>
	<line class="st1" x1="29.6" y1="5.8" x2="29.6" y2="5.8"/>
	<line class="st1" x1="31.6" y1="5.6" x2="31.6" y2="5.6"/>
	<line class="st1" x1="33.5" y1="5.8" x2="33.5" y2="5.8"/>
	<line class="st1" x1="35.4" y1="6.2" x2="35.4" y2="6.2"/>
	<line class="st1" x1="37.3" y1="6.6" x2="37.3" y2="6.6"/>
	<line class="st1" x1="39.3" y1="6.7" x2="39.3" y2="6.7"/>
	<line class="st1" x1="41.4" y1="6.4" x2="41.4" y2="6.4"/>
	<line class="st1" x1="43.2" y1="5.8" x2="43.2" y2="5.8"/>
	<line class="st1" x1="45.1" y1="5.6" x2="45.1" y2="5.6"/>
	<line class="st1" x1="47.1" y1="5.8" x2="47.1" y2="5.8"/>
	<line class="st1" x1="49" y1="6.2" x2="49" y2="6.2"/>
	<line class="st1" x1="50.7" y1="6.6" x2="50.7" y2="6.6"/>
	<line class="st1" x1="52.7" y1="6.7" x2="52.7" y2="6.7"/>
	<line class="st1" x1="0.5" y1="10.8" x2="0.5" y2="10.8"/>
	<line class="st1" x1="2.4" y1="10.7" x2="2.4" y2="10.7"/>
	<line class="st1" x1="4.4" y1="10.8" x2="4.4" y2="10.8"/>
	<line class="st1" x1="6.3" y1="11.3" x2="6.3" y2="11.3"/>
	<line class="st1" x1="8.1" y1="11.6" x2="8.1" y2="11.6"/>
	<line class="st1" x1="10.2" y1="11.8" x2="10.2" y2="11.8"/>
	<line class="st1" x1="12.2" y1="11.4" x2="12.2" y2="11.4"/>
	<line class="st1" x1="14" y1="10.8" x2="14" y2="10.8"/>
	<line class="st1" x1="16" y1="10.7" x2="16" y2="10.7"/>
	<line class="st1" x1="17.9" y1="10.8" x2="17.9" y2="10.8"/>
	<line class="st1" x1="19.9" y1="11.3" x2="19.9" y2="11.3"/>
	<line class="st1" x1="21.6" y1="11.6" x2="21.6" y2="11.6"/>
	<line class="st1" x1="23.6" y1="11.7" x2="23.6" y2="11.7"/>
	<line class="st1" x1="25.6" y1="11.4" x2="25.6" y2="11.4"/>
	<line class="st1" x1="27.5" y1="10.8" x2="27.5" y2="10.8"/>
	<line class="st1" x1="29.4" y1="10.6" x2="29.4" y2="10.6"/>
	<line class="st1" x1="31.3" y1="10.8" x2="31.3" y2="10.8"/>
	<line class="st1" x1="33.3" y1="11.2" x2="33.3" y2="11.2"/>
	<line class="st1" x1="35.2" y1="11.6" x2="35.2" y2="11.6"/>
	<line class="st1" x1="37.2" y1="11.7" x2="37.2" y2="11.7"/>
	<line class="st1" x1="39.2" y1="11.4" x2="39.2" y2="11.4"/>
	<line class="st1" x1="41" y1="10.8" x2="41" y2="10.8"/>
	<line class="st1" x1="43" y1="10.6" x2="43" y2="10.6"/>
	<line class="st1" x1="44.9" y1="10.8" x2="44.9" y2="10.8"/>
	<line class="st1" x1="46.8" y1="11.2" x2="46.8" y2="11.2"/>
	<line class="st1" x1="48.6" y1="11.6" x2="48.6" y2="11.6"/>
	<line class="st1" x1="50.6" y1="11.7" x2="50.6" y2="11.7"/>
	<line class="st1" x1="52.6" y1="11.3" x2="52.6" y2="11.3"/>
	<line class="st1" x1="0.6" y1="15.7" x2="0.6" y2="15.7"/>
	<line class="st1" x1="2.6" y1="15.5" x2="2.6" y2="15.5"/>
	<line class="st1" x1="4.5" y1="15.7" x2="4.5" y2="15.7"/>
	<line class="st1" x1="6.5" y1="16.1" x2="6.5" y2="16.1"/>
	<line class="st1" x1="8.3" y1="16.5" x2="8.3" y2="16.5"/>
	<line class="st1" x1="10.3" y1="16.6" x2="10.3" y2="16.6"/>
	<line class="st1" x1="12.4" y1="16.3" x2="12.4" y2="16.3"/>
	<line class="st1" x1="14.2" y1="15.7" x2="14.2" y2="15.7"/>
	<line class="st1" x1="16.1" y1="15.5" x2="16.1" y2="15.5"/>
	<line class="st1" x1="18.1" y1="15.7" x2="18.1" y2="15.7"/>
	<line class="st1" x1="20" y1="16.1" x2="20" y2="16.1"/>
	<line class="st1" x1="21.8" y1="16.5" x2="21.8" y2="16.5"/>
	<line class="st1" x1="23.8" y1="16.5" x2="23.8" y2="16.5"/>
	<line class="st1" x1="25.8" y1="16.2" x2="25.8" y2="16.2"/>
	<line class="st1" x1="27.6" y1="15.6" x2="27.6" y2="15.6"/>
	<line class="st1" x1="29.6" y1="15.5" x2="29.6" y2="15.5"/>
	<line class="st1" x1="31.5" y1="15.6" x2="31.5" y2="15.6"/>
	<line class="st1" x1="33.4" y1="16" x2="33.4" y2="16"/>
	<line class="st1" x1="35.3" y1="16.4" x2="35.3" y2="16.4"/>
	<line class="st1" x1="37.3" y1="16.5" x2="37.3" y2="16.5"/>
	<line class="st1" x1="39.4" y1="16.2" x2="39.4" y2="16.2"/>
	<line class="st1" x1="41.2" y1="15.6" x2="41.2" y2="15.6"/>
	<line class="st1" x1="43.1" y1="15.5" x2="43.1" y2="15.5"/>
	<line class="st1" x1="45.1" y1="15.6" x2="45.1" y2="15.6"/>
	<line class="st1" x1="47" y1="16" x2="47" y2="16"/>
	<line class="st1" x1="48.7" y1="16.4" x2="48.7" y2="16.4"/>
	<line class="st1" x1="50.7" y1="16.5" x2="50.7" y2="16.5"/>
	<line class="st1" x1="52.8" y1="16.2" x2="52.8" y2="16.2"/>
	<line class="st1" x1="1.2" y1="21.4" x2="1.2" y2="21.4"/>
	<line class="st1" x1="3" y1="20.8" x2="3" y2="20.8"/>
	<line class="st1" x1="4.9" y1="20.7" x2="4.9" y2="20.7"/>
	<line class="st1" x1="6.9" y1="20.8" x2="6.9" y2="20.8"/>
	<line class="st1" x1="8.8" y1="21.3" x2="8.8" y2="21.3"/>
	<line class="st1" x1="10.6" y1="21.6" x2="10.6" y2="21.6"/>
	<line class="st1" x1="12.7" y1="21.8" x2="12.7" y2="21.8"/>
	<line class="st1" x1="14.7" y1="21.4" x2="14.7" y2="21.4"/>
	<line class="st1" x1="16.5" y1="20.8" x2="16.5" y2="20.8"/>
	<line class="st1" x1="18.5" y1="20.7" x2="18.5" y2="20.7"/>
	<line class="st1" x1="20.4" y1="20.8" x2="20.4" y2="20.8"/>
	<line class="st1" x1="22.4" y1="21.3" x2="22.4" y2="21.3"/>
	<line class="st1" x1="24.1" y1="21.6" x2="24.1" y2="21.6"/>
	<line class="st1" x1="26.1" y1="21.7" x2="26.1" y2="21.7"/>
	<line class="st1" x1="28.1" y1="21.4" x2="28.1" y2="21.4"/>
	<line class="st1" x1="30" y1="20.8" x2="30" y2="20.8"/>
	<line class="st1" x1="31.9" y1="20.6" x2="31.9" y2="20.6"/>
	<line class="st1" x1="33.8" y1="20.8" x2="33.8" y2="20.8"/>
	<line class="st1" x1="35.8" y1="21.2" x2="35.8" y2="21.2"/>
	<line class="st1" x1="37.7" y1="21.6" x2="37.7" y2="21.6"/>
	<line class="st1" x1="39.7" y1="21.7" x2="39.7" y2="21.7"/>
	<line class="st1" x1="41.7" y1="21.4" x2="41.7" y2="21.4"/>
	<line class="st1" x1="43.5" y1="20.8" x2="43.5" y2="20.8"/>
	<line class="st1" x1="45.5" y1="20.6" x2="45.5" y2="20.6"/>
	<line class="st1" x1="47.4" y1="20.8" x2="47.4" y2="20.8"/>
	<line class="st1" x1="49.3" y1="21.2" x2="49.3" y2="21.2"/>
	<line class="st1" x1="51.1" y1="21.6" x2="51.1" y2="21.6"/>
	<line class="st1" x1="53.1" y1="21.7" x2="53.1" y2="21.7"/>
	<line class="st1" x1="1" y1="26.1" x2="1" y2="26.1"/>
	<line class="st1" x1="2.8" y1="25.5" x2="2.8" y2="25.5"/>
	<line class="st1" x1="4.7" y1="25.4" x2="4.7" y2="25.4"/>
	<line class="st1" x1="6.7" y1="25.5" x2="6.7" y2="25.5"/>
	<line class="st1" x1="8.6" y1="25.9" x2="8.6" y2="25.9"/>
	<line class="st1" x1="10.5" y1="26.3" x2="10.5" y2="26.3"/>
	<line class="st1" x1="12.5" y1="26.4" x2="12.5" y2="26.4"/>
	<line class="st1" x1="14.6" y1="26.1" x2="14.6" y2="26.1"/>
	<line class="st1" x1="16.4" y1="25.5" x2="16.4" y2="25.5"/>
	<line class="st1" x1="18.3" y1="25.4" x2="18.3" y2="25.4"/>
	<line class="st1" x1="20.2" y1="25.5" x2="20.2" y2="25.5"/>
	<line class="st1" x1="22.2" y1="25.9" x2="22.2" y2="25.9"/>
	<line class="st1" x1="23.9" y1="26.3" x2="23.9" y2="26.3"/>
	<line class="st1" x1="25.9" y1="26.4" x2="25.9" y2="26.4"/>
	<line class="st1" x1="28" y1="26.1" x2="28" y2="26.1"/>
	<line class="st1" x1="29.8" y1="25.4" x2="29.8" y2="25.4"/>
	<line class="st1" x1="31.7" y1="25.3" x2="31.7" y2="25.3"/>
	<line class="st1" x1="33.7" y1="25.4" x2="33.7" y2="25.4"/>
	<line class="st1" x1="35.6" y1="25.9" x2="35.6" y2="25.9"/>
	<line class="st1" x1="37.5" y1="26.3" x2="37.5" y2="26.3"/>
	<line class="st1" x1="39.5" y1="26.4" x2="39.5" y2="26.4"/>
	<line class="st1" x1="41.5" y1="26.1" x2="41.5" y2="26.1"/>
	<line class="st1" x1="43.4" y1="25.4" x2="43.4" y2="25.4"/>
	<line class="st1" x1="45.3" y1="25.3" x2="45.3" y2="25.3"/>
	<line class="st1" x1="47.2" y1="25.4" x2="47.2" y2="25.4"/>
	<line class="st1" x1="49.2" y1="25.9" x2="49.2" y2="25.9"/>
	<line class="st1" x1="50.9" y1="26.3" x2="50.9" y2="26.3"/>
	<line class="st1" x1="52.9" y1="26.3" x2="52.9" y2="26.3"/>
	<line class="st1" x1="0.5" y1="31.4" x2="0.5" y2="31.4"/>
	<line class="st1" x1="2.3" y1="31.1" x2="2.3" y2="31.1"/>
	<line class="st1" x1="4.1" y1="30.5" x2="4.1" y2="30.5"/>
	<line class="st1" x1="6.1" y1="30.4" x2="6.1" y2="30.4"/>
	<line class="st1" x1="8" y1="30.5" x2="8" y2="30.5"/>
	<line class="st1" x1="10" y1="30.9" x2="10" y2="30.9"/>
	<line class="st1" x1="11.8" y1="31.3" x2="11.8" y2="31.3"/>
	<line class="st1" x1="13.8" y1="31.4" x2="13.8" y2="31.4"/>
	<line class="st1" x1="15.9" y1="31.1" x2="15.9" y2="31.1"/>
	<line class="st1" x1="17.7" y1="30.5" x2="17.7" y2="30.5"/>
	<line class="st1" x1="19.6" y1="30.4" x2="19.6" y2="30.4"/>
	<line class="st1" x1="21.6" y1="30.5" x2="21.6" y2="30.5"/>
	<line class="st1" x1="23.5" y1="30.9" x2="23.5" y2="30.9"/>
	<line class="st1" x1="25.3" y1="31.3" x2="25.3" y2="31.3"/>
	<line class="st1" x1="27.3" y1="31.4" x2="27.3" y2="31.4"/>
	<line class="st1" x1="29.3" y1="31.1" x2="29.3" y2="31.1"/>
	<line class="st1" x1="31.1" y1="30.4" x2="31.1" y2="30.4"/>
	<line class="st1" x1="33.1" y1="30.3" x2="33.1" y2="30.3"/>
	<line class="st1" x1="35" y1="30.4" x2="35" y2="30.4"/>
	<line class="st1" x1="36.9" y1="30.9" x2="36.9" y2="30.9"/>
	<line class="st1" x1="38.8" y1="31.3" x2="38.8" y2="31.3"/>
	<line class="st1" x1="40.8" y1="31.4" x2="40.8" y2="31.4"/>
	<line class="st1" x1="42.9" y1="31.1" x2="42.9" y2="31.1"/>
	<line class="st1" x1="44.7" y1="30.4" x2="44.7" y2="30.4"/>
	<line class="st1" x1="46.6" y1="30.3" x2="46.6" y2="30.3"/>
	<line class="st1" x1="48.6" y1="30.4" x2="48.6" y2="30.4"/>
	<line class="st1" x1="50.5" y1="30.9" x2="50.5" y2="30.9"/>
	<line class="st1" x1="52.2" y1="31.3" x2="52.2" y2="31.3"/>
	<line class="st1" x1="1.3" y1="36.4" x2="1.3" y2="36.4"/>
	<line class="st1" x1="3.3" y1="36.1" x2="3.3" y2="36.1"/>
	<line class="st1" x1="5.1" y1="35.5" x2="5.1" y2="35.5"/>
	<line class="st1" x1="7.1" y1="35.4" x2="7.1" y2="35.4"/>
	<line class="st1" x1="9" y1="35.5" x2="9" y2="35.5"/>
	<line class="st1" x1="11" y1="35.9" x2="11" y2="35.9"/>
	<line class="st1" x1="12.8" y1="36.3" x2="12.8" y2="36.3"/>
	<line class="st1" x1="14.8" y1="36.4" x2="14.8" y2="36.4"/>
	<line class="st1" x1="16.9" y1="36.1" x2="16.9" y2="36.1"/>
	<line class="st1" x1="18.7" y1="35.5" x2="18.7" y2="35.5"/>
	<line class="st1" x1="20.6" y1="35.4" x2="20.6" y2="35.4"/>
	<line class="st1" x1="22.6" y1="35.5" x2="22.6" y2="35.5"/>
	<line class="st1" x1="24.5" y1="35.9" x2="24.5" y2="35.9"/>
	<line class="st1" x1="26.3" y1="36.3" x2="26.3" y2="36.3"/>
	<line class="st1" x1="28.3" y1="36.4" x2="28.3" y2="36.4"/>
	<line class="st1" x1="30.3" y1="36.1" x2="30.3" y2="36.1"/>
	<line class="st1" x1="32.1" y1="35.4" x2="32.1" y2="35.4"/>
	<line class="st1" x1="34.1" y1="35.3" x2="34.1" y2="35.3"/>
	<line class="st1" x1="36" y1="35.4" x2="36" y2="35.4"/>
	<line class="st1" x1="37.9" y1="35.9" x2="37.9" y2="35.9"/>
	<line class="st1" x1="39.8" y1="36.3" x2="39.8" y2="36.3"/>
	<line class="st1" x1="41.8" y1="36.4" x2="41.8" y2="36.4"/>
	<line class="st1" x1="43.9" y1="36.1" x2="43.9" y2="36.1"/>
	<line class="st1" x1="45.7" y1="35.4" x2="45.7" y2="35.4"/>
	<line class="st1" x1="47.6" y1="35.3" x2="47.6" y2="35.3"/>
	<line class="st1" x1="49.6" y1="35.4" x2="49.6" y2="35.4"/>
	<line class="st1" x1="51.5" y1="35.9" x2="51.5" y2="35.9"/>
	<line class="st1" x1="53.2" y1="36.3" x2="53.2" y2="36.3"/>
	<line class="st1" x1="1.2" y1="41.3" x2="1.2" y2="41.3"/>
	<line class="st1" x1="3.2" y1="40.9" x2="3.2" y2="40.9"/>
	<line class="st1" x1="5" y1="40.3" x2="5" y2="40.3"/>
	<line class="st1" x1="6.9" y1="40.2" x2="6.9" y2="40.2"/>
	<line class="st1" x1="8.9" y1="40.3" x2="8.9" y2="40.3"/>
	<line class="st1" x1="10.8" y1="40.8" x2="10.8" y2="40.8"/>
	<line class="st1" x1="12.6" y1="41.1" x2="12.6" y2="41.1"/>
	<line class="st1" x1="14.7" y1="41.3" x2="14.7" y2="41.3"/>
	<line class="st1" x1="16.7" y1="40.9" x2="16.7" y2="40.9"/>
	<line class="st1" x1="18.5" y1="40.3" x2="18.5" y2="40.3"/>
	<line class="st1" x1="20.5" y1="40.2" x2="20.5" y2="40.2"/>
	<line class="st1" x1="22.4" y1="40.3" x2="22.4" y2="40.3"/>
	<line class="st1" x1="24.4" y1="40.8" x2="24.4" y2="40.8"/>
	<line class="st1" x1="26.1" y1="41.1" x2="26.1" y2="41.1"/>
	<line class="st1" x1="28.1" y1="41.2" x2="28.1" y2="41.2"/>
	<line class="st1" x1="30.1" y1="40.9" x2="30.1" y2="40.9"/>
	<line class="st1" x1="32" y1="40.3" x2="32" y2="40.3"/>
	<line class="st1" x1="33.9" y1="40.1" x2="33.9" y2="40.1"/>
	<line class="st1" x1="35.8" y1="40.3" x2="35.8" y2="40.3"/>
	<line class="st1" x1="37.8" y1="40.7" x2="37.8" y2="40.7"/>
	<line class="st1" x1="39.7" y1="41.1" x2="39.7" y2="41.1"/>
	<line class="st1" x1="41.7" y1="41.2" x2="41.7" y2="41.2"/>
	<line class="st1" x1="43.7" y1="40.9" x2="43.7" y2="40.9"/>
	<line class="st1" x1="45.5" y1="40.3" x2="45.5" y2="40.3"/>
	<line class="st1" x1="47.5" y1="40.1" x2="47.5" y2="40.1"/>
	<line class="st1" x1="49.4" y1="40.3" x2="49.4" y2="40.3"/>
	<line class="st1" x1="51.3" y1="40.7" x2="51.3" y2="40.7"/>
	<line class="st1" x1="53.1" y1="41.1" x2="53.1" y2="41.1"/>
	<line class="st1" x1="1.9" y1="46" x2="1.9" y2="46"/>
	<line class="st1" x1="3.7" y1="45.4" x2="3.7" y2="45.4"/>
	<line class="st1" x1="5.6" y1="45.2" x2="5.6" y2="45.2"/>
	<line class="st1" x1="7.6" y1="45.4" x2="7.6" y2="45.4"/>
	<line class="st1" x1="9.5" y1="45.8" x2="9.5" y2="45.8"/>
	<line class="st1" x1="11.4" y1="46.2" x2="11.4" y2="46.2"/>
	<line class="st1" x1="13.4" y1="46.3" x2="13.4" y2="46.3"/>
	<line class="st1" x1="15.4" y1="46" x2="15.4" y2="46"/>
	<line class="st1" x1="17.3" y1="45.4" x2="17.3" y2="45.4"/>
	<line class="st1" x1="19.2" y1="45.2" x2="19.2" y2="45.2"/>
	<line class="st1" x1="21.1" y1="45.4" x2="21.1" y2="45.4"/>
	<line class="st1" x1="23.1" y1="45.8" x2="23.1" y2="45.8"/>
	<line class="st1" x1="24.8" y1="46.2" x2="24.8" y2="46.2"/>
	<line class="st1" x1="26.8" y1="46.3" x2="26.8" y2="46.3"/>
	<line class="st1" x1="28.9" y1="45.9" x2="28.9" y2="45.9"/>
	<line class="st1" x1="30.7" y1="45.3" x2="30.7" y2="45.3"/>
	<line class="st1" x1="32.6" y1="45.2" x2="32.6" y2="45.2"/>
	<line class="st1" x1="34.6" y1="45.3" x2="34.6" y2="45.3"/>
	<line class="st1" x1="36.5" y1="45.8" x2="36.5" y2="45.8"/>
	<line class="st1" x1="38.4" y1="46.1" x2="38.4" y2="46.1"/>
	<line class="st1" x1="40.4" y1="46.3" x2="40.4" y2="46.3"/>
	<line class="st1" x1="42.4" y1="45.9" x2="42.4" y2="45.9"/>
	<line class="st1" x1="44.3" y1="45.3" x2="44.3" y2="45.3"/>
	<line class="st1" x1="46.2" y1="45.2" x2="46.2" y2="45.2"/>
	<line class="st1" x1="48.1" y1="45.3" x2="48.1" y2="45.3"/>
	<line class="st1" x1="50.1" y1="45.8" x2="50.1" y2="45.8"/>
	<line class="st1" x1="51.8" y1="46.1" x2="51.8" y2="46.1"/>
	<line class="st1" x1="53.8" y1="46.2" x2="53.8" y2="46.2"/>
	<line class="st1" x1="0.6" y1="50.9" x2="0.6" y2="50.9"/>
	<line class="st1" x1="2.4" y1="50.3" x2="2.4" y2="50.3"/>
	<line class="st1" x1="4.3" y1="50.1" x2="4.3" y2="50.1"/>
	<line class="st1" x1="6.3" y1="50.3" x2="6.3" y2="50.3"/>
	<line class="st1" x1="8.2" y1="50.7" x2="8.2" y2="50.7"/>
	<line class="st1" x1="10.1" y1="51.1" x2="10.1" y2="51.1"/>
	<line class="st1" x1="12.1" y1="51.2" x2="12.1" y2="51.2"/>
	<line class="st1" x1="14.2" y1="50.9" x2="14.2" y2="50.9"/>
	<line class="st1" x1="16" y1="50.3" x2="16" y2="50.3"/>
	<line class="st1" x1="17.9" y1="50.1" x2="17.9" y2="50.1"/>
	<line class="st1" x1="19.9" y1="50.3" x2="19.9" y2="50.3"/>
	<line class="st1" x1="21.8" y1="50.7" x2="21.8" y2="50.7"/>
	<line class="st1" x1="23.5" y1="51.1" x2="23.5" y2="51.1"/>
	<line class="st1" x1="25.5" y1="51.1" x2="25.5" y2="51.1"/>
	<line class="st1" x1="27.6" y1="50.8" x2="27.6" y2="50.8"/>
	<line class="st1" x1="29.4" y1="50.2" x2="29.4" y2="50.2"/>
	<line class="st1" x1="31.3" y1="50.1" x2="31.3" y2="50.1"/>
	<line class="st1" x1="33.3" y1="50.2" x2="33.3" y2="50.2"/>
	<line class="st1" x1="35.2" y1="50.6" x2="35.2" y2="50.6"/>
	<line class="st1" x1="37.1" y1="51" x2="37.1" y2="51"/>
	<line class="st1" x1="39.1" y1="51.1" x2="39.1" y2="51.1"/>
	<line class="st1" x1="41.2" y1="50.8" x2="41.2" y2="50.8"/>
	<line class="st1" x1="43" y1="50.2" x2="43" y2="50.2"/>
	<line class="st1" x1="44.9" y1="50.1" x2="44.9" y2="50.1"/>
	<line class="st1" x1="46.9" y1="50.2" x2="46.9" y2="50.2"/>
	<line class="st1" x1="48.8" y1="50.6" x2="48.8" y2="50.6"/>
	<line class="st1" x1="50.5" y1="51" x2="50.5" y2="51"/>
	<line class="st1" x1="52.5" y1="51.1" x2="52.5" y2="51.1"/>
</g>
</svg>
