<?xml version="1.0" encoding="utf-8"?>
<!-- Generator: Adobe Illustrator 23.0.1, SVG Export Plug-In . SVG Version: 6.00 Build 0)  -->
<svg version="1.1" id="Layer_1" xmlns="http://www.w3.org/2000/svg" xmlns:xlink="http://www.w3.org/1999/xlink" x="0px" y="0px"
	 viewBox="0 0 53.6 53.6" style="enable-background:new 0 0 53.6 53.6;" xml:space="preserve">
<style type="text/css">
	.st0{fill:none;stroke:#000000;stroke-width:0.3;}
</style>
<g>
	<line class="st0" x1="3.8" y1="2.1" x2="0" y2="2.1"/>
	<line class="st0" x1="6.3" y1="2.1" x2="12.7" y2="2.1"/>
	<line class="st0" x1="15.3" y1="2.1" x2="21.6" y2="2.1"/>
	<line class="st0" x1="24.2" y1="2.1" x2="30.6" y2="2.1"/>
	<line class="st0" x1="33.1" y1="2.1" x2="39.5" y2="2.1"/>
	<line class="st0" x1="42" y1="2.1" x2="48.4" y2="2.1"/>
	<line class="st0" x1="53.6" y1="2.1" x2="50.9" y2="2.1"/>
	<line class="st0" x1="0" y1="14" x2="1.7" y2="14"/>
	<line class="st0" x1="4.3" y1="14" x2="5.3" y2="14"/>
	<line class="st0" x1="5.3" y1="14" x2="10.6" y2="14"/>
	<line class="st0" x1="13.2" y1="14" x2="19.6" y2="14"/>
	<line class="st0" x1="23.4" y1="14" x2="28.5" y2="14"/>
	<line class="st0" x1="23.4" y1="14" x2="22.1" y2="14"/>
	<line class="st0" x1="31" y1="14" x2="37.4" y2="14"/>
	<line class="st0" x1="41.2" y1="14" x2="46.3" y2="14"/>
	<line class="st0" x1="41.2" y1="14" x2="39.9" y2="14"/>
	<line class="st0" x1="48.9" y1="14" x2="53.6" y2="14"/>
	<line class="st0" x1="5.2" y1="17" x2="0" y2="17"/>
	<line class="st0" x1="14.2" y1="17" x2="7.8" y2="17"/>
	<line class="st0" x1="16.7" y1="17" x2="23.1" y2="17"/>
	<line class="st0" x1="32" y1="17" x2="25.6" y2="17"/>
	<line class="st0" x1="34.5" y1="17" x2="40.9" y2="17"/>
	<line class="st0" x1="49.8" y1="17" x2="43.4" y2="17"/>
	<line class="st0" x1="53.6" y1="17" x2="52.4" y2="17"/>
	<line class="st0" x1="0" y1="19.9" x2="2.2" y2="19.9"/>
	<line class="st0" x1="11.1" y1="19.9" x2="4.8" y2="19.9"/>
	<line class="st0" x1="13.7" y1="19.9" x2="14.8" y2="19.9"/>
	<line class="st0" x1="14.8" y1="19.9" x2="20" y2="19.9"/>
	<line class="st0" x1="29" y1="19.9" x2="22.6" y2="19.9"/>
	<line class="st0" x1="32.8" y1="19.9" x2="31.5" y2="19.9"/>
	<line class="st0" x1="32.8" y1="19.9" x2="37.9" y2="19.9"/>
	<line class="st0" x1="46.8" y1="19.9" x2="40.4" y2="19.9"/>
	<line class="st0" x1="50.6" y1="19.9" x2="53.6" y2="19.9"/>
	<line class="st0" x1="49.3" y1="19.9" x2="50.6" y2="19.9"/>
	<line class="st0" x1="6.7" y1="23.1" x2="0.3" y2="23.1"/>
	<line class="st0" x1="15.6" y1="23.1" x2="9.2" y2="23.1"/>
	<line class="st0" x1="18.1" y1="23.1" x2="24.5" y2="23.1"/>
	<line class="st0" x1="33.4" y1="23.1" x2="27" y2="23.1"/>
	<line class="st0" x1="36" y1="23.1" x2="42.3" y2="23.1"/>
	<line class="st0" x1="44.9" y1="23.1" x2="51.3" y2="23.1"/>
	<line class="st0" x1="3.5" y1="26.1" x2="0" y2="26.1"/>
	<line class="st0" x1="6" y1="26.1" x2="12.4" y2="26.1"/>
	<line class="st0" x1="16" y1="26.1" x2="21.3" y2="26.1"/>
	<line class="st0" x1="14.9" y1="26.1" x2="16" y2="26.1"/>
	<line class="st0" x1="23.9" y1="26.1" x2="30.2" y2="26.1"/>
	<line class="st0" x1="34" y1="26.1" x2="32.8" y2="26.1"/>
	<line class="st0" x1="34" y1="26.1" x2="39.2" y2="26.1"/>
	<line class="st0" x1="41.7" y1="26.1" x2="48.1" y2="26.1"/>
	<line class="st0" x1="51.9" y1="26.1" x2="53.6" y2="26.1"/>
	<line class="st0" x1="50.6" y1="26.1" x2="51.9" y2="26.1"/>
	<line class="st0" x1="7.9" y1="29.2" x2="1.6" y2="29.2"/>
	<line class="st0" x1="16.9" y1="29.2" x2="10.5" y2="29.2"/>
	<line class="st0" x1="25.8" y1="29.2" x2="19.4" y2="29.2"/>
	<line class="st0" x1="34.7" y1="29.2" x2="28.3" y2="29.2"/>
	<line class="st0" x1="43.6" y1="29.2" x2="37.2" y2="29.2"/>
	<line class="st0" x1="52.5" y1="29.2" x2="46.2" y2="29.2"/>
	<line class="st0" x1="6" y1="41.1" x2="1.3" y2="41.1"/>
	<line class="st0" x1="0" y1="41.1" x2="1.3" y2="41.1"/>
	<line class="st0" x1="14.9" y1="41.1" x2="8.6" y2="41.1"/>
	<line class="st0" x1="17.5" y1="41.1" x2="18.7" y2="41.1"/>
	<line class="st0" x1="23.9" y1="41.1" x2="18.7" y2="41.1"/>
	<line class="st0" x1="26.4" y1="41.1" x2="32.8" y2="41.1"/>
	<line class="st0" x1="36.5" y1="41.1" x2="41.7" y2="41.1"/>
	<line class="st0" x1="35.3" y1="41.1" x2="36.5" y2="41.1"/>
	<line class="st0" x1="44.2" y1="41.1" x2="50.6" y2="41.1"/>
	<line class="st0" x1="53.6" y1="41.1" x2="53.2" y2="41.1"/>
	<line class="st0" x1="3.1" y1="43.9" x2="0" y2="43.9"/>
	<line class="st0" x1="5.7" y1="43.9" x2="12.1" y2="43.9"/>
	<line class="st0" x1="14.6" y1="43.9" x2="21" y2="43.9"/>
	<line class="st0" x1="29.9" y1="43.9" x2="23.5" y2="43.9"/>
	<line class="st0" x1="38.8" y1="43.9" x2="32.5" y2="43.9"/>
	<line class="st0" x1="41.4" y1="43.9" x2="47.7" y2="43.9"/>
	<line class="st0" x1="50.3" y1="43.9" x2="53.6" y2="43.9"/>
	<line class="st0" x1="8.3" y1="47" x2="1.9" y2="47"/>
	<line class="st0" x1="17.2" y1="47" x2="10.8" y2="47"/>
	<line class="st0" x1="26.1" y1="47" x2="19.7" y2="47"/>
	<line class="st0" x1="35" y1="47" x2="28.6" y2="47"/>
	<line class="st0" x1="43.9" y1="47" x2="37.6" y2="47"/>
	<line class="st0" x1="46.5" y1="47" x2="52.8" y2="47"/>
	<line class="st0" x1="0" y1="50" x2="4.7" y2="50"/>
	<line class="st0" x1="7.3" y1="50" x2="13.7" y2="50"/>
	<line class="st0" x1="16.2" y1="50" x2="22.6" y2="50"/>
	<line class="st0" x1="25.1" y1="50" x2="31.5" y2="50"/>
	<line class="st0" x1="34.1" y1="50" x2="40.4" y2="50"/>
	<line class="st0" x1="43" y1="50" x2="49.3" y2="50"/>
	<line class="st0" x1="51.9" y1="50" x2="53.6" y2="50"/>
	<line class="st0" x1="8.6" y1="52.9" x2="2.2" y2="52.9"/>
	<line class="st0" x1="17.5" y1="52.9" x2="11.1" y2="52.9"/>
	<line class="st0" x1="26.4" y1="52.9" x2="20" y2="52.9"/>
	<line class="st0" x1="35.3" y1="52.9" x2="29" y2="52.9"/>
	<line class="st0" x1="44.2" y1="52.9" x2="37.9" y2="52.9"/>
	<line class="st0" x1="53.2" y1="52.9" x2="46.8" y2="52.9"/>
	<line class="st0" x1="7.7" y1="2.1" x2="8.7" y2="0.6"/>
	<line class="st0" x1="25.6" y1="2.1" x2="26.7" y2="0.6"/>
	<line class="st0" x1="43.6" y1="2.1" x2="44.7" y2="0.6"/>
	<line class="st0" x1="41.1" y1="14" x2="41.2" y2="14"/>
	<line class="st0" x1="41.2" y1="14" x2="42.2" y2="12.6"/>
	<line class="st0" x1="23.4" y1="14" x2="24.5" y2="12.6"/>
	<line class="st0" x1="23.4" y1="14" x2="23.4" y2="14"/>
	<line class="st0" x1="5.3" y1="14" x2="6.4" y2="12.6"/>
	<line class="st0" x1="5.3" y1="14" x2="5.3" y2="14"/>
	<line class="st0" x1="45.8" y1="15.6" x2="44.7" y2="17"/>
	<line class="st0" x1="28" y1="15.6" x2="26.9" y2="17"/>
	<line class="st0" x1="10.1" y1="15.6" x2="9" y2="17"/>
	<line class="st0" x1="32.8" y1="19.9" x2="33.9" y2="18.5"/>
	<line class="st0" x1="32.8" y1="19.9" x2="32.8" y2="19.9"/>
	<line class="st0" x1="50.6" y1="19.9" x2="50.5" y2="19.9"/>
	<line class="st0" x1="50.6" y1="19.9" x2="51.6" y2="18.5"/>
	<line class="st0" x1="14.8" y1="19.9" x2="15.9" y2="18.5"/>
	<line class="st0" x1="14.8" y1="19.9" x2="14.8" y2="19.9"/>
	<line class="st0" x1="46" y1="23" x2="47.1" y2="21.6"/>
	<line class="st0" x1="28.3" y1="23" x2="29.4" y2="21.6"/>
	<line class="st0" x1="10.5" y1="23" x2="11.6" y2="21.6"/>
	<line class="st0" x1="16" y1="26.1" x2="17.1" y2="24.6"/>
	<line class="st0" x1="16" y1="26.1" x2="16" y2="26.1"/>
	<line class="st0" x1="34" y1="26.1" x2="35.1" y2="24.6"/>
	<line class="st0" x1="34" y1="26.1" x2="34" y2="26.1"/>
	<line class="st0" x1="51.9" y1="26.1" x2="53" y2="24.6"/>
	<line class="st0" x1="51.9" y1="26.1" x2="51.9" y2="26.1"/>
	<line class="st0" x1="38.6" y1="29.2" x2="39.6" y2="27.8"/>
	<line class="st0" x1="20.7" y1="29.2" x2="21.8" y2="27.8"/>
	<line class="st0" x1="2.9" y1="29.2" x2="4" y2="27.8"/>
	<line class="st0" x1="36.5" y1="41.1" x2="36.5" y2="41.1"/>
	<line class="st0" x1="36.5" y1="41.1" x2="37.6" y2="39.7"/>
	<line class="st0" x1="18.7" y1="41.1" x2="19.8" y2="39.7"/>
	<line class="st0" x1="18.7" y1="41.1" x2="18.7" y2="41.1"/>
	<line class="st0" x1="2.4" y1="39.7" x2="1.3" y2="41.1"/>
	<line class="st0" x1="1.3" y1="41.1" x2="1.3" y2="41.1"/>
	<line class="st0" x1="42.7" y1="43.8" x2="43.8" y2="42.4"/>
	<line class="st0" x1="24.9" y1="43.8" x2="25.9" y2="42.4"/>
	<line class="st0" x1="6.9" y1="43.8" x2="8" y2="42.4"/>
	<line class="st0" x1="13.2" y1="45.5" x2="12.1" y2="47"/>
	<line class="st0" x1="30" y1="47" x2="31" y2="45.5"/>
	<line class="st0" x1="44.3" y1="50" x2="45.4" y2="48.5"/>
	<line class="st0" x1="39.2" y1="52.9" x2="40.3" y2="51.5"/>
	<line class="st0" x1="21.3" y1="52.9" x2="22.4" y2="51.5"/>
	<line class="st0" x1="3.4" y1="52.9" x2="4.4" y2="51.5"/>
	<line class="st0" x1="27.6" y1="48.5" x2="26.5" y2="50"/>
	<line class="st0" x1="9.6" y1="48.5" x2="8.5" y2="50"/>
	<line class="st0" x1="49.2" y1="45.5" x2="48.1" y2="47"/>
	<line class="st0" x1="5.3" y1="8" x2="0" y2="8"/>
	<line class="st0" x1="5.3" y1="8" x2="9.1" y2="8"/>
	<line class="st0" x1="45.9" y1="8" x2="50.6" y2="8"/>
	<line class="st0" x1="37.9" y1="8" x2="31.3" y2="8"/>
	<line class="st0" x1="53.6" y1="8" x2="50.6" y2="8"/>
	<line class="st0" x1="45.9" y1="8" x2="37.9" y2="8"/>
	<line class="st0" x1="31.3" y1="8" x2="24.1" y2="8"/>
	<line class="st0" x1="9.1" y1="8" x2="18" y2="8"/>
	<line class="st0" x1="18" y1="8" x2="24.1" y2="8"/>
	<line class="st0" x1="53.6" y1="11.3" x2="0" y2="11.3"/>
	<line class="st0" x1="45.9" y1="8" x2="45.9" y2="11.3"/>
	<line class="st0" x1="45.9" y1="8" x2="45.9" y2="8"/>
	<line class="st0" x1="31.3" y1="8" x2="31.3" y2="11.3"/>
	<line class="st0" x1="31.3" y1="8" x2="31.3" y2="8"/>
	<line class="st0" x1="18" y1="11.3" x2="18" y2="8"/>
	<line class="st0" x1="18" y1="8" x2="18" y2="8"/>
	<line class="st0" x1="5.3" y1="8" x2="5.3" y2="8"/>
	<line class="st0" x1="5.3" y1="8" x2="5.3" y2="11.3"/>
	<line class="st0" x1="9.1" y1="4.7" x2="24.1" y2="4.7"/>
	<line class="st0" x1="50.6" y1="4.7" x2="53.6" y2="4.7"/>
	<line class="st0" x1="37.9" y1="4.7" x2="24.1" y2="4.7"/>
	<line class="st0" x1="37.9" y1="4.7" x2="50.6" y2="4.7"/>
	<line class="st0" x1="9.1" y1="4.7" x2="0" y2="4.7"/>
	<line class="st0" x1="9.1" y1="8.1" x2="9.1" y2="8"/>
	<line class="st0" x1="9.1" y1="4.7" x2="9.1" y2="8"/>
	<line class="st0" x1="9.1" y1="4.7" x2="9.1" y2="4.7"/>
	<line class="st0" x1="24.1" y1="8.1" x2="24.1" y2="8"/>
	<line class="st0" x1="24.1" y1="8" x2="24.1" y2="4.7"/>
	<line class="st0" x1="24.1" y1="4.7" x2="24.1" y2="4.7"/>
	<line class="st0" x1="37.9" y1="8" x2="37.9" y2="8.1"/>
	<line class="st0" x1="37.9" y1="4.7" x2="37.9" y2="8"/>
	<line class="st0" x1="37.9" y1="4.7" x2="37.9" y2="4.7"/>
	<line class="st0" x1="50.6" y1="8" x2="50.6" y2="4.7"/>
	<line class="st0" x1="50.6" y1="8.1" x2="50.6" y2="8"/>
	<line class="st0" x1="50.6" y1="4.7" x2="50.6" y2="4.7"/>
	<line class="st0" x1="8.4" y1="38.8" x2="0" y2="38.8"/>
	<line class="st0" x1="50.2" y1="38.8" x2="53.6" y2="38.8"/>
	<line class="st0" x1="8.4" y1="38.8" x2="21.7" y2="38.8"/>
	<line class="st0" x1="35.3" y1="38.8" x2="50.2" y2="38.8"/>
	<line class="st0" x1="21.7" y1="38.8" x2="35.3" y2="38.8"/>
	<line class="st0" x1="53.6" y1="31.9" x2="0" y2="31.9"/>
	<line class="st0" x1="53.6" y1="35.1" x2="0" y2="35.1"/>
	<line class="st0" x1="43.8" y1="35.1" x2="43.8" y2="32"/>
	<line class="st0" x1="29.6" y1="35.1" x2="29.6" y2="32"/>
	<line class="st0" x1="14.5" y1="35.1" x2="14.5" y2="32"/>
	<line class="st0" x1="2.1" y1="32" x2="2.1" y2="35.1"/>
	<line class="st0" x1="8.4" y1="38.8" x2="8.4" y2="35.2"/>
	<line class="st0" x1="21.7" y1="38.8" x2="21.7" y2="35.2"/>
	<line class="st0" x1="35.3" y1="38.8" x2="35.3" y2="35.2"/>
	<line class="st0" x1="50.2" y1="38.8" x2="50.2" y2="35.2"/>
</g>
</svg>
