<?xml version="1.0" encoding="utf-8"?>
<!-- Generator: Adobe Illustrator 23.0.1, SVG Export Plug-In . SVG Version: 6.00 Build 0)  -->
<svg version="1.1" id="Layer_1" xmlns="http://www.w3.org/2000/svg" xmlns:xlink="http://www.w3.org/1999/xlink" x="0px" y="0px"
	 viewBox="0 0 48.7 48.7" style="enable-background:new 0 0 48.7 48.7;" xml:space="preserve">
<style type="text/css">
	.st0{fill:none;stroke:#000000;stroke-width:0.3;}
</style>
<g>
	<line class="st0" x1="0.4" y1="10.3" x2="0" y2="10.3"/>
	<line class="st0" x1="2.7" y1="10.3" x2="8.4" y2="10.3"/>
	<line class="st0" x1="10.7" y1="10.3" x2="16.5" y2="10.3"/>
	<line class="st0" x1="18.7" y1="10.3" x2="24.5" y2="10.3"/>
	<line class="st0" x1="26.8" y1="10.3" x2="32.5" y2="10.3"/>
	<line class="st0" x1="34.8" y1="10.3" x2="40.5" y2="10.3"/>
	<line class="st0" x1="42.8" y1="10.3" x2="48.7" y2="10.3"/>
	<line class="st0" x1="3.5" y1="14.1" x2="0" y2="14.1"/>
	<line class="st0" x1="11.5" y1="14.1" x2="5.8" y2="14.1"/>
	<line class="st0" x1="13.8" y1="14.1" x2="19.6" y2="14.1"/>
	<line class="st0" x1="21.9" y1="14.1" x2="27.6" y2="14.1"/>
	<line class="st0" x1="35.6" y1="14.1" x2="29.9" y2="14.1"/>
	<line class="st0" x1="43.6" y1="14.1" x2="37.9" y2="14.1"/>
	<line class="st0" x1="48.7" y1="14.1" x2="45.9" y2="14.1"/>
	<line class="st0" x1="0" y1="17.4" x2="0.8" y2="17.4"/>
	<line class="st0" x1="8.8" y1="17.4" x2="3.1" y2="17.4"/>
	<line class="st0" x1="16.8" y1="17.4" x2="11.1" y2="17.4"/>
	<line class="st0" x1="24.9" y1="17.4" x2="19.1" y2="17.4"/>
	<line class="st0" x1="32.9" y1="17.4" x2="27.2" y2="17.4"/>
	<line class="st0" x1="40.9" y1="17.4" x2="35.2" y2="17.4"/>
	<line class="st0" x1="43.2" y1="17.4" x2="48.7" y2="17.4"/>
	<line class="st0" x1="0.4" y1="34.3" x2="0" y2="34.3"/>
	<line class="st0" x1="2.7" y1="34.3" x2="8.4" y2="34.3"/>
	<line class="st0" x1="10.7" y1="34.3" x2="16.5" y2="34.3"/>
	<line class="st0" x1="18.7" y1="34.3" x2="24.5" y2="34.3"/>
	<line class="st0" x1="26.8" y1="34.3" x2="32.5" y2="34.3"/>
	<line class="st0" x1="34.8" y1="34.3" x2="40.5" y2="34.3"/>
	<line class="st0" x1="42.8" y1="34.3" x2="48.7" y2="34.3"/>
	<line class="st0" x1="3.5" y1="37.8" x2="0" y2="37.8"/>
	<line class="st0" x1="11.5" y1="37.8" x2="5.8" y2="37.8"/>
	<line class="st0" x1="19.6" y1="37.8" x2="13.8" y2="37.8"/>
	<line class="st0" x1="21.9" y1="37.8" x2="27.6" y2="37.8"/>
	<line class="st0" x1="29.9" y1="37.8" x2="35.6" y2="37.8"/>
	<line class="st0" x1="43.6" y1="37.8" x2="37.9" y2="37.8"/>
	<line class="st0" x1="45.9" y1="37.8" x2="48.7" y2="37.8"/>
	<line class="st0" x1="0.8" y1="41.7" x2="0" y2="41.7"/>
	<line class="st0" x1="8.8" y1="41.7" x2="3.1" y2="41.7"/>
	<line class="st0" x1="16.8" y1="41.7" x2="11.1" y2="41.7"/>
	<line class="st0" x1="19.1" y1="41.7" x2="24.9" y2="41.7"/>
	<line class="st0" x1="32.9" y1="41.7" x2="27.2" y2="41.7"/>
	<line class="st0" x1="40.9" y1="41.7" x2="35.2" y2="41.7"/>
	<line class="st0" x1="43.2" y1="41.7" x2="48.7" y2="41.7"/>
	<line class="st0" x1="24.7" y1="3.4" x2="16.8" y2="3.4"/>
	<line class="st0" x1="11.3" y1="3.4" x2="16.8" y2="3.4"/>
	<line class="st0" x1="0" y1="3.4" x2="5.3" y2="3.4"/>
	<line class="st0" x1="11.3" y1="3.4" x2="5.3" y2="3.4"/>
	<line class="st0" x1="41.9" y1="3.4" x2="37" y2="3.4"/>
	<line class="st0" x1="29" y1="3.4" x2="24.7" y2="3.4"/>
	<line class="st0" x1="48.5" y1="3.4" x2="48.7" y2="3.4"/>
	<line class="st0" x1="29" y1="3.4" x2="37" y2="3.4"/>
	<line class="st0" x1="48.5" y1="3.4" x2="41.9" y2="3.4"/>
	<line class="st0" x1="48.7" y1="7.1" x2="0" y2="7.1"/>
	<line class="st0" x1="43.8" y1="20.6" x2="48.7" y2="20.6"/>
	<line class="st0" x1="43.8" y1="20.6" x2="30.4" y2="20.6"/>
	<line class="st0" x1="6" y1="20.6" x2="0" y2="20.6"/>
	<line class="st0" x1="18.1" y1="20.6" x2="6" y2="20.6"/>
	<line class="st0" x1="18.1" y1="20.6" x2="30.4" y2="20.6"/>
	<line class="st0" x1="48.7" y1="24.2" x2="0" y2="24.2"/>
	<line class="st0" x1="48.7" y1="27.6" x2="0" y2="27.6"/>
	<line class="st0" x1="48.7" y1="31.4" x2="0" y2="31.4"/>
	<line class="st0" x1="29" y1="48" x2="34.5" y2="48"/>
	<line class="st0" x1="5.3" y1="48" x2="0" y2="48"/>
	<line class="st0" x1="41.9" y1="48" x2="46.6" y2="48"/>
	<line class="st0" x1="41.9" y1="48" x2="34.5" y2="48"/>
	<line class="st0" x1="46.6" y1="48" x2="48.7" y2="48"/>
	<line class="st0" x1="22.3" y1="48" x2="29" y2="48"/>
	<line class="st0" x1="9.3" y1="48" x2="16.8" y2="48"/>
	<line class="st0" x1="5.3" y1="48" x2="9.3" y2="48"/>
	<line class="st0" x1="16.8" y1="48" x2="22.3" y2="48"/>
	<line class="st0" x1="5.3" y1="0" x2="5.3" y2="3.4"/>
	<line class="st0" x1="16.8" y1="0" x2="16.8" y2="3.4"/>
	<line class="st0" x1="29" y1="3.4" x2="29" y2="0"/>
	<line class="st0" x1="41.9" y1="0" x2="41.9" y2="3.4"/>
	<line class="st0" x1="5.3" y1="48" x2="5.3" y2="47.9"/>
	<line class="st0" x1="5.3" y1="48" x2="5.3" y2="48.7"/>
	<line class="st0" x1="16.8" y1="47.9" x2="16.8" y2="48"/>
	<line class="st0" x1="16.8" y1="48.7" x2="16.8" y2="48"/>
	<line class="st0" x1="29" y1="48" x2="29" y2="47.9"/>
	<line class="st0" x1="29" y1="48.7" x2="29" y2="48"/>
	<line class="st0" x1="41.9" y1="48" x2="41.9" y2="47.9"/>
	<line class="st0" x1="41.9" y1="48" x2="41.9" y2="48.7"/>
	<line class="st0" x1="11.3" y1="3.4" x2="11.3" y2="7.1"/>
	<line class="st0" x1="11.3" y1="3.4" x2="11.3" y2="3.3"/>
	<line class="st0" x1="24.7" y1="3.3" x2="24.7" y2="3.4"/>
	<line class="st0" x1="24.7" y1="3.4" x2="24.7" y2="7.1"/>
	<line class="st0" x1="37" y1="3.3" x2="37" y2="3.4"/>
	<line class="st0" x1="37" y1="7.1" x2="37" y2="3.4"/>
	<line class="st0" x1="48.5" y1="3.4" x2="48.5" y2="7.1"/>
	<line class="st0" x1="6" y1="20.6" x2="6" y2="20.5"/>
	<line class="st0" x1="6" y1="20.6" x2="6" y2="24.2"/>
	<line class="st0" x1="18.1" y1="20.6" x2="18.1" y2="24.2"/>
	<line class="st0" x1="18.1" y1="20.5" x2="18.1" y2="20.6"/>
	<line class="st0" x1="30.4" y1="24.2" x2="30.4" y2="20.6"/>
	<line class="st0" x1="30.4" y1="20.5" x2="30.4" y2="20.6"/>
	<line class="st0" x1="43.8" y1="20.6" x2="43.8" y2="24.2"/>
	<line class="st0" x1="43.8" y1="20.5" x2="43.8" y2="20.6"/>
	<line class="st0" x1="36" y1="27.6" x2="36" y2="24.2"/>
	<line class="st0" x1="24" y1="27.6" x2="24" y2="24.2"/>
	<line class="st0" x1="10.5" y1="24.2" x2="10.5" y2="27.6"/>
	<line class="st0" x1="47.9" y1="27.6" x2="47.9" y2="24.2"/>
	<line class="st0" x1="5" y1="27.7" x2="5" y2="31.4"/>
	<line class="st0" x1="16.7" y1="31.4" x2="16.7" y2="27.7"/>
	<line class="st0" x1="28.9" y1="31.4" x2="28.9" y2="27.7"/>
	<line class="st0" x1="41.8" y1="31.4" x2="41.8" y2="27.7"/>
	<line class="st0" x1="46.6" y1="44.9" x2="34.5" y2="44.9"/>
	<line class="st0" x1="22.3" y1="44.9" x2="34.5" y2="44.9"/>
	<line class="st0" x1="9.3" y1="44.9" x2="22.3" y2="44.9"/>
	<line class="st0" x1="9.3" y1="44.9" x2="0" y2="44.9"/>
	<line class="st0" x1="46.6" y1="44.9" x2="48.7" y2="44.9"/>
	<line class="st0" x1="9.3" y1="44.9" x2="9.3" y2="44.9"/>
	<line class="st0" x1="9.3" y1="44.9" x2="9.3" y2="48"/>
	<line class="st0" x1="9.3" y1="48" x2="9.3" y2="48"/>
	<line class="st0" x1="22.3" y1="44.9" x2="22.3" y2="44.9"/>
	<line class="st0" x1="22.3" y1="44.9" x2="22.3" y2="48"/>
	<line class="st0" x1="22.3" y1="48" x2="22.3" y2="48"/>
	<line class="st0" x1="34.5" y1="48" x2="34.5" y2="48"/>
	<line class="st0" x1="34.5" y1="44.9" x2="34.5" y2="44.9"/>
	<line class="st0" x1="34.5" y1="48" x2="34.5" y2="44.9"/>
	<line class="st0" x1="46.6" y1="44.9" x2="46.6" y2="44.9"/>
	<line class="st0" x1="46.6" y1="44.9" x2="46.6" y2="48"/>
	<line class="st0" x1="46.6" y1="48" x2="46.6" y2="48"/>
</g>
</svg>
