<?xml version="1.0" encoding="utf-8"?>
<!-- Generator: Adobe Illustrator 23.0.1, SVG Export Plug-In . SVG Version: 6.00 Build 0)  -->
<svg version="1.1" id="Layer_1" xmlns="http://www.w3.org/2000/svg" xmlns:xlink="http://www.w3.org/1999/xlink" x="0px" y="0px"
	 viewBox="0 0 54.1 54.1" style="enable-background:new 0 0 54.1 54.1;" xml:space="preserve">
<style type="text/css">
	.st0{fill:none;stroke:#000000;stroke-width:0.3;}
	.st1{fill:none;}
</style>
<g>
	<path class="st0" d="M53,14.6c0.2,1,0.3,2.9,0.1,4.6"/>
	<path class="st0" d="M53.3,22c-0.3,1.6-0.2,4.7,0.1,5.6"/>
	<path class="st0" d="M50.9,17c0.2,1.9,0.2,2.5-0.2,4.5c-0.4,2-0.4,2.9,0,4.3"/>
	<path class="st0" d="M48,14.2c0.4,1.5,0.2,3.3-0.2,5.4"/>
	<path class="st0" d="M47.8,21.9c-0.1,1.2-0.2,0.7-0.3,2c-0.1,1.3,0.9,4.1,1.7,5.4"/>
	<path class="st0" d="M44.5,16c0.4,1.8,0.3,3.1-0.2,5.2c-0.5,2.1-0.4,3.1,0.5,4.5"/>
	<path class="st0" d="M40.8,14.4c0.6,1.5,0.9,3.4,0.8,4.5"/>
	<path class="st0" d="M41.6,20.8c-0.3,2.3-1.2,6.6,0.4,8.4"/>
	<path class="st0" d="M40,9.9c0.2,1.2,0.3,2.2,0.3,2.6"/>
	<path class="st0" d="M38.6,18.5c0.1,1.6,0,3.4-0.3,4.9c-0.3,1.4,0.6,5.4,1.2,6.5"/>
	<path class="st0" d="M35.8,14.8c0.3,2.1,0.4,4.3,0,6.7"/>
	<path class="st0" d="M35.4,23.6c-0.3,1.3-0.3,3.9,0.2,4.7"/>
	<path class="st0" d="M33.4,18c0.2,1.9,0.1,3.3-0.5,5.1c-0.6,1.8-0.7,4.1-0.2,5.4"/>
	<path class="st0" d="M30.3,14.7c0.3,1.6,0.5,4.5,0,6.5"/>
	<path class="st0" d="M29.9,23.5C29.1,27,29,30.2,29.5,31"/>
	<path class="st0" d="M27.7,17.1c0.2,2.4,0.3,3.3-0.2,5.3c-0.5,2-0.6,3.5-0.4,4.4"/>
	<path class="st0" d="M25.5,13.8c0.4,1.7-0.1,4.6-0.3,5.8"/>
	<path class="st0" d="M25,21.8c-0.1,1-0.1,0.6-0.3,1.9c-0.2,1.3-0.3,3.6,0.3,4.7"/>
	<path class="st0" d="M22.3,16.5c0.3,2.6,0.3,5,0.1,6.8c-0.2,1.9-0.2,4.1,0.2,4.9"/>
	<path class="st0" d="M19.4,15c0.6,1.9,0.9,3.1,0.8,4.6"/>
	<path class="st0" d="M19.6,22.3c-0.3,1.5-0.5,4.5,0.4,6"/>
	<path class="st0" d="M16.6,14.6c0.6,2.7,1.2,4.9,0.8,6.8C17,23.3,17,23.1,17,23.7"/>
	<path class="st0" d="M17.4,25.5c0.3,1.1,0.4,3.4,0.5,4.3"/>
	<path class="st0" d="M14.6,16.5c0.4,2.3,0.6,3.6,0.1,5.6c-0.4,2-0.4,4.3,0.3,6.1"/>
	<path class="st0" d="M11.4,14.2c0.5,1.7,1,3.7,1,4.8"/>
	<path class="st0" d="M12,22.4c-0.5,1.9-0.7,4.9,0.6,6.9"/>
	<path class="st0" d="M9.4,15.8c0.3,2.3,0.5,3.4,0.1,5c-0.4,1.7-0.3,1.6-0.3,2.2"/>
	<path class="st0" d="M34.6,2.4c0.9,1.2,1.2,9.7,1.2,9.7"/>
	<path class="st0" d="M7.4,17.2c-0.3,1.8-0.6,5-1,6.2c-0.3,1.2-0.8,3.6,0,5"/>
	<path class="st0" d="M4.6,14.8c0.3,1.8,0.5,3,0.2,4.6c-0.3,1.6-0.2,2-0.3,2.4"/>
	<path class="st0" d="M4,24.6c-0.3,1-0.4,2.3-0.1,3c0.3,0.8,1,2.1,1,2.1"/>
	<path class="st0" d="M1.8,17.2c0.4,1.5,0.8,4.2,0.3,6C1.6,25,1.3,27.3,2,28.7"/>
	<path class="st0" d="M8.8,25.5c0.1,1.1,1.6,4.8,2.1,5.5"/>
	<path class="st0" d="M1.4,32.1C1.9,34.3,2,35,1.5,36.9c-0.5,1.9-0.8,3.3-0.3,4.8"/>
	<path class="st0" d="M3.4,30.5c0.4,1.2,0.9,2.6,0.8,3.7c-0.1,1.1-0.4,1.7-0.3,1.9"/>
	<path class="st0" d="M3.6,37.5c-0.4,1.3,0.2,4.4,0.8,5.6"/>
	<path class="st0" d="M6.2,31.8c0.3,1.4,0.5,2.1-0.1,4.1c-0.7,2-0.5,3.6-0.2,4.7"/>
	<path class="st0" d="M8.3,29.9c0.3,1.4,0.6,2.9,0.3,4.3"/>
	<path class="st0" d="M8.8,36.6c-0.5,1.4-0.4,4.6,0,5.7"/>
	<path class="st0" d="M11.5,33.7c0.1,1.2,0.1,1.3-0.3,3.1c-0.4,1.8-1,5-0.4,6.1"/>
	<path class="st0" d="M14.1,31.4c0.3,1.5,0.6,2.8,0.1,4.6c-0.5,1.8-1,3.4,0.1,5.3"/>
	<path class="st0" d="M16.3,29.9c0.4,1.6,1.1,2.7,0.8,3.9c-0.3,1.2-0.6,1.8-0.7,2.4"/>
	<path class="st0" d="M16.4,37.8c0,1.2,0,2.6,0.3,3.4"/>
	<path class="st0" d="M18.9,31.3c0.5,2.1,1,3,0.3,4.8s-0.6,5.3-0.4,6.5"/>
	<path class="st0" d="M21,30.2c0.6,1.3,0.9,3.4,0.8,4.2"/>
	<path class="st0" d="M21.4,36.9c-0.4,1.3-0.3,4.7,0,5.5"/>
	<path class="st0" d="M23,31.3c0.6,2,0.9,2.8,0.5,4.6c-0.4,1.8-0.9,3.7-0.6,4.8"/>
	<path class="st0" d="M25.9,29.8c0.2,1.1-0.3,3.1-0.3,3.8"/>
	<path class="st0" d="M25.4,36c-0.1,1.2-0.1,1-0.3,2c-0.3,1,0.7,6.3,1,7"/>
	<path class="st0" d="M27.7,31.8c0.6,2.5,1,3.8,0.7,5.2c-0.4,1.4-0.5,3.1-0.3,3.9"/>
	<path class="st0" d="M30.1,32c-0.1,1.1,0.1,1.7,0.3,2.6c0.2,0.9,0.4,1.7,0,3.3c-0.4,1.6,0.1,2.9,0.2,3.5"/>
	<path class="st0" d="M32.8,30.5c0,1,0.2,2.9,0.4,3.6"/>
	<path class="st0" d="M33.3,35.7c-0.1,1.3-0.1,1.4-0.3,2.8c-0.2,1.4-0.2,3.8,0,4.4"/>
	<path class="st0" d="M37.2,29.3c0.5,1.7,1,3.3,0.8,4.9"/>
	<path class="st0" d="M37.7,36.2c-0.2,1.7-0.5,3.2-0.3,4.3c0.2,1,0.2,2.9,0.2,2.9"/>
	<path class="st0" d="M40.4,31.5c0.2,2.3,0.2,2.3-0.2,4c-0.4,1.7-0.3,4.8,0.3,6.1"/>
	<path class="st0" d="M44.2,27.6c1,1.6,1.4,6.2,0.9,8.3c-0.4,2.1-0.2,3.8,0.3,5.3"/>
	<path class="st0" d="M46.7,28.7c0.3,1.4,1.2,5,1.1,6.4"/>
	<path class="st0" d="M47.5,37.3c-0.2,1.4,0.3,4.5,0.5,5.5"/>
	<path class="st0" d="M49.8,31.4c0.5,2.1,0.8,2.9,0.5,4.7c-0.3,1.9-0.4,3.5-0.2,4.2"/>
	<path class="st0" d="M52,29.3c0.9,1.3,0.8,2.9,0.8,3.9"/>
	<path class="st0" d="M52.9,35.8c-0.2,1.3-1,4.7,0.1,6.8"/>
	<path class="st0" d="M1.8,1.2c0.4,1.2,0.1,2.4-0.1,3.5C1.6,5.8,1.4,6.4,1.4,6.6"/>
	<path class="st0" d="M1.1,8.7c-0.4,1.3,0.3,4.7,0.9,5.9"/>
	<path class="st0" d="M3.7,2.2c0.3,1.4,0.6,2.9-0.1,5c-0.7,2-0.5,3.6-0.2,4.7"/>
	<path class="st0" d="M5.8,1.2c0.3,1.4,0.6,2.4,0.3,3.7"/>
	<path class="st0" d="M6.3,7.4c-0.5,1.4-0.2,6.4,0.2,7.5"/>
	<path class="st0" d="M9,4.9C9.1,6,9.1,6.2,8.7,8c-0.4,1.8-0.2,4.7,0.4,5.9"/>
	<path class="st0" d="M11.6,1.6c0.3,1.5,0.6,3.8,0.1,5.6c-0.6,1.8-1,3.4,0.1,5.3"/>
	<path class="st0" d="M13.8,0.6c0.4,1.6,0.6,2.1,0.3,3.3c-0.3,1.2-0.6,1.8-0.7,2.4"/>
	<path class="st0" d="M13.6,7.9c0,1.2,0.9,5.7,1.3,6.4"/>
	<path class="st0" d="M16.4,1.4c0.5,2.1,1,3.2,0.3,5c-0.7,1.8-1.2,3.1-0.9,4.3"/>
	<path class="st0" d="M19.3,3.1c0.6,1.3,0.3,3.7,0.2,4.5"/>
	<path class="st0" d="M18.3,9.1c-0.4,1.3-0.7,4-0.4,4.7"/>
	<path class="st0" d="M20.6,0.6c0.6,2,0.9,4,0.5,5.9c-0.4,1.8-0.6,6-0.3,7"/>
	<path class="st0" d="M23.3,1.8c0.5,2.7,0,5.5,0,4.8"/>
	<path class="st0" d="M23.8,8.3c-0.1,1.2-0.5,2.1-0.8,3.1s-0.2,2.8,0.1,3.5"/>
	<path class="st0" d="M25.2,0.6c0.6,2.5,1,5.3,0.7,6.8c-0.4,1.4-0.5,3.1-0.3,3.9"/>
	<path class="st0" d="M27.7,3.7c-0.1,1.1,0.1,1.3,0.3,2.2c0.2,0.9,0.4,1.7,0,3.3c-0.4,1.6-0.2,4.3-0.1,4.9"/>
	<path class="st0" d="M30.1,1c0,1-0.6,2.9-0.4,3.6"/>
	<path class="st0" d="M30.3,6.9c-0.1,1.3-0.1,1.4-0.3,2.8c-0.2,1.4-0.1,2.6,0.1,3.2"/>
	<path class="st0" d="M32.3,0.3c0.6,2,0.1,7.4-0.1,9.2"/>
	<path class="st0" d="M34,9.4c-0.2,1.7-1.2,3.9-1,4.9c0.2,1,0.4,1.5,0.4,1.5"/>
	<path class="st0" d="M37.5,0.5c0.2,2.3,0.2,3.6-0.2,5.3c-0.4,1.7-0.7,3-0.2,4.3"/>
	<path class="st0" d="M40.4,3.7c0.2,1.2,0.3,1.3,0.1,2.5c-0.2,1.2-0.5,1.8-0.5,2.3"/>
	<path class="st0" d="M42.8,1.3c0.4,1.7,0.5,2.8,0.1,5c-0.4,2.1-0.6,5.5-0.1,7"/>
	<path class="st0" d="M45.6,0.4c0.3,1.4,0.2,4.3,0.1,5.6"/>
	<path class="st0" d="M45,8.5c-0.2,1.4,0.3,5.5,0.5,6.4"/>
	<path class="st0" d="M47.6,3.3c0.5,2.1,0.8,2.2,0.5,4.1c-0.3,1.9-0.4,3.5-0.2,4.2"/>
	<path class="st0" d="M50.4,0.5c0.3,1.5,0.3,2.9,0.3,3.8"/>
	<path class="st0" d="M50.7,7c-0.2,1.3-1.1,4.4-0.1,6.6"/>
	<path class="st0" d="M52.6,1c0.3,1.8,0.2,4.6,0,6.1c-0.2,1.5-0.4,3.3,0.2,4.8"/>
	<path class="st0" d="M2.3,43.7c0.4,1.7,0.5,2.8,0.3,3.9"/>
	<path class="st0" d="M2,49.1c-0.4,1.4-1.2,3.7-0.8,4.7"/>
	<path class="st0" d="M4.6,45c0.2,1.6-0.2,2.6-0.4,4s-0.4,3.5-0.1,4.6"/>
	<path class="st0" d="M7.2,41.8c0.2,1.2-0.5,8.4-1,10.1"/>
	<path class="st0" d="M9.3,45.9c0.1,1.5-0.1,1.2-0.4,2.5c-0.4,1.7-0.7,3.9-0.6,5.7"/>
	<path class="st0" d="M14.5,45c0.1,1.9,0.3,2.4-0.3,4.1c-0.7,1.7-0.8,1.9-0.5,3.1"/>
	<path class="st0" d="M16.4,42.8c0.3,1,1.1,3.1,1,4"/>
	<path class="st0" d="M16.4,48.4c-0.4,1-1.1,3.4-0.9,5"/>
	<path class="st0" d="M18.9,44.8c0.5,2,0.6,2.9,0,4.3c-0.5,1.2-0.4,3.5-0.4,5"/>
	<path class="st0" d="M23.5,43.1c0.5,2,0.7,4.3,0.2,5.6c-0.5,1.3-0.8,3.8-0.5,5"/>
	<path class="st0" d="M26.1,46.8c-0.1,0.9-1.1,4.5-0.9,5.2"/>
	<path class="st0" d="M27.9,42.5c0.5,1.8,0.4,3.9-0.1,5.3c-0.4,1.2-0.6,4.4-0.6,6.4"/>
	<path class="st0" d="M32.1,44.6c0.5,1.6,0.5,2.5,0.1,4.2c-0.4,1.7-0.7,2.1-0.4,3.2"/>
	<path class="st0" d="M35,43.2c0.2,1-0.3,2.6-0.3,3.3"/>
	<path class="st0" d="M34.9,47.9c-0.4,1.1-1.2,4.3-1.1,5.1"/>
	<path class="st0" d="M36.6,44.7c0.4,2.4,0.5,3.4-0.2,4.8c-0.7,1.4-0.9,3.2-0.5,4.3"/>
	<path class="st0" d="M41.8,44.3c0.8,2,0.5,2.9-0.6,4.8c-0.6,1.1-0.8,3.4-0.8,5.1"/>
	<path class="st0" d="M43.1,41.9c0.7,0.7,1.2,4,1,4.6"/>
	<path class="st0" d="M43.4,48.6c0,1.4-0.7,4-1.1,5.1"/>
	<path class="st0" d="M46.1,44c0.2,1-0.4,0.7,0.1,2.4c0.4,1.7,0.1,2.4-0.3,3.5c-0.4,1.2-0.1,2.1-0.1,2.8"/>
	<path class="st0" d="M8.3,0c0,1.3,0.2,1.9,0.5,2.3"/>
	<path class="st0" d="M18.5,0c0,0.6,0,1-0.1,1.1"/>
	<path class="st0" d="M27.2,0c0,0.9,0,1.9,0.1,2"/>
	<path class="st0" d="M40.4,0c0,0.9,0.1,2,0.2,2.2"/>
	<path class="st0" d="M48.3,0c0,0.5,0,1.5,0,1.6"/>
	<path class="st0" d="M48.5,44.7c0.3,1.1,0.6,2.6,0.3,3.9c-0.3,1-0.5,3.9-0.5,5.5"/>
	<path class="st0" d="M53.6,44.4c0.1,1.3,0.2,1.6-0.2,2.9c-0.3,1.3-0.7,4.6-0.3,5.9"/>
	<path class="st0" d="M35.1,31.5c0.2,2,0.7,2.3,0.3,4.8c-0.3,2.5-0.7,3.7-0.3,4.7"/>
	<path class="st0" d="M38.1,11.6c-0.1,1.5,0.2,3.7,0.5,4.5"/>
	<path class="st0" d="M39.1,43.3c0.3,1.4,0.5,2.1-0.1,4.1c-0.5,1.5-1.2,3.5-0.6,5.1"/>
	<path class="st0" d="M42.7,31.1c0.3,1.4,0.5,2.1-0.1,4.1c-0.7,2-0.5,3.6-0.2,4.7"/>
	<path class="st0" d="M30.3,43.4c0.3,1.4,0.3,2.7-0.4,4.7c-0.7,2-0.9,4-0.5,5.1"/>
	<path class="st0" d="M21,44.2c0.3,1.4,0.7,2.2,0,4.3c-0.7,2-0.7,3-0.3,4.1"/>
	<path class="st0" d="M12.6,42.1c0.3,1.4-0.4,4-1,6c-0.7,2-0.6,4.5-0.2,5.6"/>
	<path class="st0" d="M50.9,42.9c0.3,1.4,1,3.3,0.4,5.3c-0.7,2-0.5,3.1-0.2,4.2"/>
	<rect x="0" y="0" class="st1" width="54.1" height="54.1"/>
</g>
</svg>
