<?xml version="1.0" encoding="utf-8"?>
<!-- Generator: Adobe Illustrator 23.0.1, SVG Export Plug-In . SVG Version: 6.00 Build 0)  -->
<svg version="1.1" id="Layer_1" xmlns="http://www.w3.org/2000/svg" xmlns:xlink="http://www.w3.org/1999/xlink" x="0px" y="0px"
	 viewBox="0 0 53.5 53.5" style="enable-background:new 0 0 53.5 53.5;" xml:space="preserve">
<style type="text/css">
	.st0{clip-path:url(#SVGID_1_);fill:none;stroke:#000000;stroke-width:0.3;}
</style>
<g>
	<defs>
		<rect id="SVGID_3_" x="0" y="0" width="53.5" height="53.5"/>
	</defs>
	<clipPath id="SVGID_1_">
		<use xlink:href="#SVGID_3_"  style="overflow:visible;"/>
	</clipPath>
	<path class="st0" d="M0,5.5C1.9,4.6,1.7,4,1.9,2.4C2,1.2,3.1,0.5,4.5,0"/>
	<path class="st0" d="M0,12.4c1.7-1.8,1.3-2.5,1.3-3.6c0-1.3,0.3-1.8,1.9-2.1s1.7-3.1,2.2-4.4C5.7,1.4,7.3,0.8,8.7,0"/>
	<path class="st0" d="M3.5,7.5C4.6,7,5,5.5,5.8,3.6s1.9-1.8,3.4-2.3C10.3,1,10.4,0.9,10.7,0"/>
	<path class="st0" d="M1.4,11.8c-0.1,1.4-0.5,2-1.4,2.6"/>
	<path class="st0" d="M0,31.7c0.9-0.5,1.7-0.3,2.8-0.2c1.4,0.1,1.6-0.3,2.2-0.9s0.8-0.8,1.8-1.4s0.9-1-0.1-1.8s-1.4-1.4-3.9-2
		s-0.5-1.6,0.8-1.9s2.4-0.5,3.5-1.5s4-1.8,5.3-2.6s0.3-2.3-1.1-2.1s-0.9-1.1-2.6-1.5S4.3,18.4,2,18.8s-1-3.3-0.3-4.5
		s0.6-1.3,0.5-2.5s1.3-3,2.4-3.9s1-1,1.3-2.4s2.4-2.7,3.8-3.1c0.9-0.3,1.8-1.2,2.6-2.4"/>
	<path class="st0" d="M0,29.1c0.2,0,0.4,0,0.9,0c1,0,1.1,0.1,1.8-0.6s0-1-0.9-1.1c-0.5-0.1-1.1-0.6-1.8-1.3"/>
	<path class="st0" d="M0,22.4c1.3-0.8,3.1-1.3,4-1.5C5.3,20.6,5.9,20,6.8,19s-1.4-0.3-3,0.6c-1.1,0.6-2.4,0.7-3.8,0.6"/>
	<path class="st0" d="M1.1,23.5c0.5-0.9,1.8-1,2.8-1.1s2.1-0.9,2.7-1.6s1.9-1.1,3-1.5s0.9-0.9-0.3-1.1s-0.8,0.1-0.8-0.8
		s-1.1-0.6-2.5,0.3"/>
	<path class="st0" d="M1.9,26.1c1.6,0.4,3.6,0.6,3.4,1.8s-0.1,1-1,1.6S3,30.3,2,30.1c-0.8-0.1-1.2-0.3-2,0.1"/>
	<path class="st0" d="M0,33.7c1.4-0.7,3.4-0.7,4.4-0.4c1.3,0.4,3.1-1.5,3.8-2.5s0.6-1.5,2-1.9s-0.8-2.5-3-3.1s-0.1-1.6,1-1.9
		s1.5-0.5,2.5-1s1.8-0.9,2.9-0.9s1.1-0.3,1.8-1.3s0.6-2,0-2.6s-0.9-0.9-0.9-1.9s-1-1.1-1.8-1.1s-1.4,0.1-2.4-0.4s-1.9-0.5-4.8,0.6
		s-2.7,0.1-2.4-0.5s0.4-1.1,0.1-2.1s2-3.3,3.4-4.8S9.4,4.1,11,4c1.3-0.1,2.4-1.7,4.5-4"/>
	<path class="st0" d="M6.8,33.9c-1.3,1.1-2.1,1.8-3.6,1.5c-1.1-0.2-2.1,0-3.1,0.6"/>
	<path class="st0" d="M0,37.7c1.7-0.8,3.1-0.3,4.5-0.3c1.6,0,3.4-2.1,3.9-3.5s2.9-2.9,4.4-4.1s-0.4-2.3-1.5-3.3s0.3-1.5,1.3-2.4
		s2.6-1,4.8-1.3s2-1.8,1.6-2.5s-0.5-1-0.3-2.3s0-1.1-1.4-2s-0.9-1.4-1.4-2.3s-2.3-0.5-3-0.5s-1.5-0.3-2.1-0.8s-2-0.3-3.5,0.4
		s-1.8-0.1-1.6-0.9s0.8-1.3,2-1.9s0.8-1.1,1.1-2s2.4-2.5,3.3-2.8s1.5-0.8,2.5-1.9s1.4-1.6,2.8-2.1c0.9-0.3,1.5-0.7,2.3-1.5"/>
	<path class="st0" d="M12.1,32.6c-0.8,0.9-0.3,0.9-1.1,1.8s-1.5,1-2.1,2.3s-1.8,2.3-4.1,2.5c-2,0.2-3.5,0.1-4.8,0.8"/>
	<path class="st0" d="M0,42.5c2.1-1,1.9-1.2,3.6-1.4c2-0.1,3.2-0.4,4.4-1.4s0.3-0.3,2-0.9s1.8-1,2.1-2.3c0,0,0-0.9,0-1.3
		s0.3-0.9,0.9-1.5c0.6-0.6,0.3-1.2,0.5-2.2c0.2-1,0.6-1.4,1.1-1.9s0.7-0.3,0.7-0.3c0.9-0.5,0.5-0.5,0.9-1.4s0.6-1,1.4-1.6
		s3.5-1.3,5.1-1.8s1.1-2,0.6-3.3s0-1.1,0.8-2.6s-1-3-2.1-3.8s-1.8-1.5-2.5-2.6s-2.4-1.5-4.4-1.8s-2.4-1.5-2.4-2.6s1.9-2.5,3.1-3
		s1.3-0.4,1.9-1.4s0.9-1,2.5-1.4c1.3-0.3,2.4-1,3.5-2.4"/>
	<path class="st0" d="M21.6,13c-0.6-0.6-1.6-2-2.1-2.9s-2.1-0.5-3.1-0.9s-0.6-1.8,0-2.4s0.9-0.4,1.1-1.1s1.4-1,2.5-1.4
		s1-0.5,1.8-1.1s1.4-1,2.6-1.5c1-0.4,1.6-0.5,2.3-1.8"/>
	<path class="st0" d="M12.2,53.5c0.4-0.6,0.7-1.2,1.1-1.9c0,0,0.1-0.4,0.4-1.4s1-2.8,1.6-3.7s4.7-1.8,5.6-2.2s2.1-2.6,3-4
		s0.1-2.3-0.4-2.9s-0.9-1.4-0.7-2.4s3.1-2.1,3.9-2.2s2.4-1,3.6-1.4s5.1-0.2,6.1-0.1s1.6,0.2,2.3-0.1s1.9-0.2,3.4-0.3s3.2-1.4,3.9-2
		s0.1-1-0.4-1.2s-2.1,0.3-3.1,0.5s-2.6,0.1-3.4-0.6s-1.4-0.5-2.9-0.6s-1.5-1.6-1.5-2.3s-0.1-1.3-0.8-1.9s-0.5-1.7-0.6-2.8
		s1.3-1.6,2.2-2.1s0.4-0.3,0.4-0.3c1.3-0.9,0.4-0.9-0.4-1.1s-1.3-0.3-1.9-1.1s-3.1-1.8-4.7-2.5s-1.5-2.3-2-3.3s-1.3-1.1-1-2
		s3.6-2.6,5.1-3.6c1.1-0.7,1.8-2.3,2.2-4.1"/>
	<path class="st0" d="M36.6,25.6c-1.1-0.8-0.4-5-0.3-6s1.1-1,2.4-1.5s0.9-0.9,0.5-1.6s-0.6-0.6-1.4-0.8s-1.4,0-2.9-0.9
		s-1.4-1.4-3.5-1.6s-2.4-1.6-2.4-2.6S29.3,10,28.5,9S28,8,28.6,7.5s0.9-0.9,3-2.1c1.7-1,2.6-3,3.1-5.4"/>
	<path class="st0" d="M38.1,21.1c0.3-0.9,2.3-2.1,4.3-3.1s-0.1-1.9-0.8-2.8S39,14.1,38,14.1s-2.3-0.3-2.5-1.1s-1.3-1-2.4-1.1
		s-2-1.1-1.6-2s0.4-0.6,0-1.4s1-1.9,3.7-3.3c2.3-1.2,2.2-2.7,2-5.3"/>
	<path class="st0" d="M29.1,53.5c0.1-0.4,0.2-0.9,0.3-1.8c0,0,0-0.4-0.1-1.1s0.2-0.8-0.4-2.6s-0.6-3.2-0.3-4.5
		c0.3-1.3,2.1-2.7,2.4-3.4c0.6-1.9-0.6-2.1-1.2-3s0.1-1.4,1.7-2c1.6-0.6,2.5-0.4,4.5-0.2s3.6-0.4,4.4-0.9s1.3-0.3,2.7-0.3
		s2.6-0.3,3.9-0.9s1.5-1.1,1.9-1.6s0.9-1.1,1.9-1.6s1.4-1.5,1.8-2.4s-0.6-1.9-1.6-2.4s-3-0.4-3.9-0.2s-0.9,0.1-1.8-0.3
		s-2.3-0.3-3.3,0.3s-1.3-0.2-1.4-0.4s-0.3-0.3-1.1-0.2s-0.2-1.1,0.1-1.4s0.1-0.5,0.2-0.9c0.2-1.4,2.5-1.5,3.9-2.3s0.9-2.4,0.9-3.5
		s-1-2.4-2.6-2.8s-1.5,0.1-2-0.3s-1.1-1-1.8-1s-1.3-0.4-2.1-1.1S34.1,9.8,34,8.9s1.9-2,3.9-3.1c1.7-1,1.1-3.5,0.9-5.8"/>
	<path class="st0" d="M50.4,23.8c-0.3-0.3-0.6-0.8-1.3-0.6s-1.2-0.1-1.8-0.5s-1.2,0.1-2.4,0.1s-1.2-0.8-0.9-1.3s1.6-1.6,2.7-2.8
		S46.6,16,46.6,16c-0.4-0.4-0.4-1.4-0.9-2.4s-0.9-1.1-2.4-1.4s-1.6-0.4-3.5-0.9s-1.9-2-2-3.1s1-1.1,2.5-2.1c1.3-0.9,1.6-2.7,1.1-6.1
		"/>
	<path class="st0" d="M47.4,20c0.6-0.6,0.8-1.6,0.7-2.2s0.4-1.1,0.4-1.1c0.8-0.8,0.4-3.3-0.1-4.4s-2.6-1.4-4.6-1.8s-1.9-1.3-2-2.3
		s1.9-2.3,3.1-3.6c1-1.1,0.3-2.8-0.6-4.6"/>
	<path class="st0" d="M50.9,22.9c-0.2-0.5,0.9-0.5,1.4-1.1s-1.4-0.5-2.6-0.6s-1.1-1.9-0.9-2.9s0.9-1.3,0.9-1.3
		c0.6-0.9,1.5-1.3,0.9-2.3s-0.1-0.9-0.3-1.8s-0.5-1.3-1.4-2.3s-1.8-1.3-4.3-1.6s-0.6-1.8,1.4-3.9c1.7-1.8,0.8-2.7-0.3-5.3"/>
	<path class="st0" d="M13.5,34.8c-0.2,0.7-0.3,1,0,2.3s-0.2,1.9-0.8,2.8s-2.2,0.7-2.2,0.7c-1.6,0.1-1.3,0.5-2.9,1.3
		s-1.9,0.6-3.9,1.1c-1.6,0.4-2.4,1.3-3.8,2.5"/>
	<path class="st0" d="M5.2,44.1c-0.7,0.6,0.5,1.8,0.6,2.6s-0.7,1.5-0.7,1.5C3.3,50,1.7,49.9,0,50.9"/>
	<path class="st0" d="M3,47.7c0.9-0.6,0.9-1.6,0.6-2s-1.1-0.1-1.1-0.1c-1.3,0.6-1.8,1.1-2.5,1.5"/>
	<path class="st0" d="M0,51.8c0.3-0.4,0.7-0.5,2-0.7c2.7-0.4,3.2-0.5,4.9-2.4s1.9-2.9,1-3.9c0,0-1.3-0.4-0.5-1s1.9-0.9,2.8-1.4
		c0.8-0.5,2.1-0.8,3.2-0.8c1.1-0.1,3.6-0.9,2.9-2.3s-0.9-2.4-1-3.1c-0.1-0.7-0.2-0.8-0.4-1.8c-0.3-0.9,0.7-3.3,1.6-4.5
		c0.9-1.2,3.3-2.8,5.1-3.3c1.8-0.4,3.4-0.6,4-1.3s0.7-1.3,0.3-2.4c-0.3-1.1-0.3-2.5-0.3-2.5c-0.2-1.2,1.4-1.3,1.7-2.5
		c0.4-1.3-0.1-1.5-1.9-2.5s-2-1.4-2.3-3.1s-0.1-0.8-0.9-1.5s-1.8-1.4-2.1-3s1.4-2,2.3-2.9s3.4-2.1,5.1-3.2c1.1-0.7,1.5-1.1,1.7-1.8"
		/>
	<path class="st0" d="M4.5,53.5c0.9-0.4,2-0.7,3.1-1.1l0.6-0.5c0.4-0.2,0.8-0.7,1.4-1.5s0.4-1.7,0.6-3.3c0.2-1.6,0.8-1.8,2.4-3.3
		s3.9-1.1,4.8-1.3c0.9-0.2,1.3-0.5,1.8-1.3s-0.5-1.8-1.6-2.6c-1.1-0.8-1.4-3.6-1.3-4.7s2.4-3.9,3.7-4.9s4.8-1.5,6.3-2s2.2-2,1.4-3.2
		c-0.8-1.2-0.6-1.8-0.5-2.7c0.1-0.9,1.3-2,1.3-2c0.9-0.9,0.9-1.6,0.4-2.8s-2-1.8-3.5-2.9s-1.3-1.5-1.4-2.6s-0.1-1-1.5-2.3
		S22.3,7.1,23,6.3s1.9-1.4,4.1-2.4c2-0.9,2.8-1.7,3.5-3.9"/>
	<path class="st0" d="M8.7,53.5c0.7-0.4,1.5-0.8,2-1.3c0,0,1.2-0.7,1.2-2s0.8-4.4,2.4-5.1s4.9-1.1,5.7-2.3s1.6-2.9,0.2-4.4
		s-3.4-3.8-1.4-6.3s5-3.5,6.3-3.5s4.3-0.3,5.1-1.5s0.8-2.4,0.1-3.1l-1-1.1c-0.9-1.4,0.5-3.3,1.1-4.5s0.8-1.8,0.4-2.9
		S29,14,27.9,13.8s-1.5-1.6-1.6-2.8S25,9.3,24,8.4s0.1-1.8,1.5-2.3s2-1.1,4-2.2C31.1,3,31.9,1.6,32.2,0"/>
	<path class="st0" d="M30.1,32.9c-0.9,0.6-3,0.6-4.6,1.1s-1,2.3,0.1,4.1s-1.3,4.9-2.1,6.1S20,46.7,19,47s-1.2,1.4-1.3,3.1
		S16.9,52,16.9,52c-0.5,0.5-1,1-1.4,1.5"/>
	<path class="st0" d="M38.1,20.9c0,0,0,0.2-0.1,0.8s-0.3,1.4-0.5,2.6s0.5,1.3,1,1.2s0.7,0.1,1.3,0.6s0.9,0.7,1.9,0.3
		s1.8-0.3,2.8,0.1s1.8,0.1,2.8-0.4s2.9-0.1,3.6,0.5s0.2,1.3-0.7,2s-2.1,1.8-2.9,2.6s-2.9,1.2-4.3,1.4s-3.3,0.5-4.1,0.9s-3.3,0-5,0
		s-2.9,0.1-3.9,0.8s-1.4,0.3-2.9,0.4s-1.3,1.5-0.6,2.5s1.3,2.5,0.8,4.1s-3.1,4-3.8,5.1s-0.3,2.3-0.7,3.4s-1.8,2.2-1.8,2.2
		c-0.6,0.7-1.1,1.2-1.6,1.6"/>
	<path class="st0" d="M25.3,46.7c-0.2,0.9,0.1,1.7,0.3,3.3s-0.8,2.1-0.8,2.1c-0.3,0.5-0.6,1-1,1.4"/>
	<path class="st0" d="M27.8,35.9c-0.9,0.6,1.3,2.3,1.5,3.8s-1.4,2.7-1.4,2.7c-0.5,0.9-0.9,1.7-1.1,3.3s0.4,2.9,0.7,3.9
		s-0.4,2.8-0.4,2.8c-0.2,0.5-0.3,0.8-0.5,1.1"/>
	<path class="st0" d="M30.9,52.5c-0.1,0.4-0.2,0.7-0.3,1"/>
	<path class="st0" d="M32.2,53.5c0.1-0.4,0.1-0.8,0.2-1.3c0.1-2,0-0.8,0-1.6s0.2-2.3,1.1-3.8s0.6-1.8,0.2-3s-0.3-1.6,0.2-2
		s0.4-0.9,0.6-1.9s2-1,3.7-1.1s2.6,0.3,3.6-0.2s1.3-0.6,1.8-0.6s3.3-0.3,4.4-0.6s2.6-1.4,3.2-2.1s1.6-1.2,1.6-1.2
		c0.3-0.2,0.6-0.4,0.9-0.6"/>
	<path class="st0" d="M33.5,53.5c0.2-0.7,0.3-1.6,0.3-2.4c0,0-0.1-1,0.2-2s0.8-1.7,0.8-1.7c0.7-1.3,0.4-2.2-0.1-3.1
		s-0.1-1.3,0.3-1.8s0.2-0.9,0.1-1.6c0,0,1.3-1.3,3.1-1.1s2.8,0.3,3.4-0.1s1.5-0.6,3-0.6s3-0.1,4.1-0.8s1.1-1.1,2.4-1.3
		s1.2-0.4,1.2-0.4c0.4-0.3,0.7-0.6,1.1-0.8"/>
	<path class="st0" d="M34.7,53.5c0.1-0.5,0.2-1.1,0.2-1.6c0,0,0.2-1.2,0.4-1.5s1.4-1.7,1.4-1.7c1-1.1-0.1-2.6-0.4-3.8
		s-0.1-1.6,0.2-2.1s-0.3-0.6,0.4-1.4s1.8-0.6,2.7-0.3s1.6,0.3,2.2-0.2s2-0.6,3.9-0.3s2.7-0.4,3.3-1.2s2.2-1.4,2.9-1.3
		s0.8,0.1,0.8,0.1c0.3-0.2,0.5-0.3,0.8-0.4"/>
	<path class="st0" d="M37.2,53.5c0-0.5-0.1-1-0.1-1.6c0,0-0.2-1.2,0.2-1.7s0.8-1.6,0.8-1.6c0.3-1.4-0.2-2.9-0.6-3.9
		s-0.1-1.4,0.5-1.9c0,0,1.8-0.1,3.1-0.2s0.9-0.1,1.4-0.7s1.6-0.4,2.9,0.1s1.6,0.3,2.7-0.1s1.6-0.7,3.2-0.8s1.7-0.6,1.7-0.6
		c0.2-0.2,0.4-0.3,0.6-0.5"/>
	<path class="st0" d="M39.5,46.1c0.5,1.1,0.2,2.8-0.3,3.9s-0.5,2.4-0.5,2.4c0,0.4,0,0.7,0.1,1.1"/>
	<path class="st0" d="M44.3,53.5c-0.2-0.4-0.4-0.8-0.6-1.3c-1-2.4-0.3-1.5-0.3-2.4s-0.3-2.7-0.4-3.4s0.1-1.4,1.6-0.9
		c0,0,1.9-0.5,2.9-0.7s2.2,0.6,3.2,1.4s1.6,0.3,1.6,0.3c0.5-0.4,0.9-0.7,1.3-1"/>
	<path class="st0" d="M48.8,53.5c-0.2-0.4-0.4-0.8-0.7-1.3"/>
	<path class="st0" d="M47.3,50.3c-0.3-0.8,0.8-0.7,1.5-0.8s1.3,0.5,2.3,1.5s1.3,0.8,1.3,0.8c0.4-0.4,0.8-0.6,1.1-0.9"/>
	<path class="st0" d="M45.9,53.5c-0.2-0.4-0.3-0.9-0.5-1.4c0,0-0.5-1.4-0.3-1.8s0.6-1.6,0.4-2.1s0.4-0.9,1.6-1s1.8,0,2.6,0.3
		s-0.5,0.5,1.9,0.1c0.9-0.1,1.4-0.3,1.9-0.5"/>
	<path class="st0" d="M11.7,7.5c-0.8,0.8-2,1.7-1.8,2.8c0.3,1.1,0.3,1.4,1.3,1.4s0.4-0.2,1.3,0.2c0.9,0.3,0.9,0.2,1.7,0.1
		c0.8-0.1,3.4,0.8,4.2,1.8s0.6,1.3,1.8,2s1.8,1.4,1.5,2.1c-0.3,0.7-0.7,1.3-0.3,2.2c0.3,0.8,0.9,3-0.1,3.3s-3.8,0.9-4.8,1.3
		s-2.5,0.9-2.2,2.2s0.7,1.7,0.3,2.1"/>
	<path class="st0" d="M32.1,15.4c1.1,0.9,1.8,1.2,1.3,1.8s-2.2,1.7-2.1,2.9s0.5,2,0.6,2.7c0.1,0.7-0.1,0.7,0.4,1.3
		c0.4,0.6,0.5,0.6,0.4,1.2s0.1,1.9,1.8,2.5s2.3,0.8,1.9,1.3s-0.8,0.1-2.3,0.1s-3.3,0.3-4.3,0.7s-2.3,0.6-3.6,0.8s-2.3,0.4-3.4,0.9
		c-1.1,0.5-2.3,1.1-2.4,1.9s-0.3,1.4,0.4,2.4s0.5,1.3,0.5,1.6c0,0,1.4,0.8,1.1,2.2S21.9,42.1,21,43"/>
	<path class="st0" d="M47.9,26.9c1.5-0.1,0.4,1.4-1.5,3.1s-4.6,1.9-5.8,1.9s-3.8,0.4-6.3,0.2s-1-0.3-2.3,0.1"/>
	<path class="st0" d="M10.7,53.5c0.1-0.2,0.1-0.4,0.2-0.8c0,0,1-0.9,1.5-1.4s0.5-1.6,1-3.5s1.1-2,2.1-2.5"/>
	<path class="st0" d="M53.5,12.4c-0.2,0.2-0.3,0.3-0.5,0.5l-0.7,0.2l-0.9-0.7c-0.8-1.1,0-2.1-0.3-3.5S48.9,8,47.4,7.6
		c-1.5-0.4,0.6-2.3,1.8-3.5C50.1,3.1,49.9,2,48.8,0"/>
	<path class="st0" d="M44.8,36.6c0.8-0.2,2.4-0.3,3.6-0.6s2.4-1.5,3.1-2.3s1.3-1.4,1.3-1.4c0.3-0.3,0.5-0.5,0.8-0.6"/>
	<path class="st0" d="M53.5,22.4c-0.5,0.4-1,0.8-1.3,1.3c0,0-1-0.1,0,1c0.4,0.5,0.8,1,1.3,1.4"/>
	<path class="st0" d="M53.5,14.3c-0.3,0.2-0.8,0.5-1.3,0.8c0,0-1,1-0.7,1.7s0.4,0.9-0.3,1.4c-0.6,0.5-0.8,1-0.3,1.3s0.6,0.3,0.6,0.3
		c0.6,0.2,1.3,0.3,2,0.3c0,0,0,0,0.1,0"/>
	<path class="st0" d="M52.5,29.8c0.6-0.4,0.8-0.6,1-0.6"/>
	<path class="st0" d="M30.8,52.3c0,0,0.1-2.2-0.2-3.3s-0.7-2.4-0.6-4.7s0.9-1.9,1.6-2.7c0.6-0.8,0.6-1.8,0.4-3.1
		c-0.2-1.3,0.2-1.1,1.1-1.5s1.1-0.4,2.5-0.3s2.1,0.1,2.9-0.4s0.9-0.3,2.1-0.3s3.1,0,3.9-0.5s2-0.8,2.8-0.8s2.2-0.4,2.8-1.5
		s1.6-1.7,2-1.9s0.6-0.7,0.6-0.7c0.3-0.2,0.5-0.4,0.8-0.5"/>
	<path class="st0" d="M41.5,53.5c-0.1-0.5-0.1-1-0.2-1.6v-1.4c0.1-0.4-0.1-1.6,0.1-2.7s-1.2-2.4-1.7-3.2s1.7-0.5,2.3-0.7
		s1.4-0.4,2-0.3s1.2,0.4,2.1-0.3s3.5,0.4,4.8,0.3s1.5-0.6,1.5-0.6c0.4-0.2,0.8-0.4,1.1-0.5"/>
	<path class="st0" d="M53.5,51.8c-0.3,0.3-0.5,0.8-1.2,1.7"/>
	<path class="st0" d="M52.3,0c-0.2,0.2-0.3,0.4-0.6,0.6c0,0-1,0.4-0.7,1s0.9,1.4,0.3,2.3c-1.9,3.1,0.5,2.1,0.5,2.1
		c0.7-0.3,1.2-0.5,1.6-0.7"/>
</g>
</svg>
