<?xml version="1.0" encoding="utf-8"?>
<!-- Generator: Adobe Illustrator 23.0.1, SVG Export Plug-In . SVG Version: 6.00 Build 0)  -->
<svg version="1.1" id="Layer_1" xmlns="http://www.w3.org/2000/svg" xmlns:xlink="http://www.w3.org/1999/xlink" x="0px" y="0px"
	 viewBox="0 0 54.2 54.2" style="enable-background:new 0 0 54.2 54.2;" xml:space="preserve">
<style type="text/css">
	.st0{clip-path:url(#SVGID_1_);fill:none;stroke:#000000;stroke-width:0.3;}
</style>
<g>
	<defs>
		<rect id="SVGID_3_" x="0" y="0" width="54.2" height="54.2"/>
	</defs>
	<clipPath id="SVGID_1_">
		<use xlink:href="#SVGID_3_"  style="overflow:visible;"/>
	</clipPath>
	<path class="st0" d="M54.2,2.1c-4.1,3.7-7,6-6.3,6.7c0.8,0.8-1,2.2-3.5,4.7s-7.3,6.9-6.7,8.6c0,0,0.6,0.9,0.1,1.3s-8.7,9.2-9.3,9.8
		s-1.2,1.7-1.1,2.3s0.1,1.4-0.6,2.1s-6.2,6.4-7.1,7.3"/>
	<path class="st0" d="M54.2,4c-2.3,2-4.5,3.4-4.4,4.1c0.1,0.8,0.8,1-0.5,2.3c-0.1,0.1-0.3,0.3-0.5,0.5"/>
	<path class="st0" d="M48.7,11c-1.7,1.7-5.7,5.8-7.1,7.1"/>
	<path class="st0" d="M41.6,18.2c-0.1,0.1-0.2,0.2-0.3,0.3c-1.2,1.1-2.1,2.5-1.8,3.3c0.3,0.8,0.3,1.3-0.5,2.1c0,0-7,7.2-7.8,8
		s-1.7,2.1-1.6,2.8s0.3,1.3-0.3,1.9c-0.1,0.1-0.5,0.6-1.1,1.2"/>
	<path class="st0" d="M22.9,43.3c-1.3,1.3-2.3,2.4-2.6,2.7c-0.8,0.9-1.2,1.3-1.1,1.9s0.5,1.2,0.1,1.6s-2.8,3-2.8,3"/>
	<path class="st0" d="M49.1,0.8C47.9,2.1,43.7,5,43.9,6s0.5,1.3-0.1,1.9"/>
	<path class="st0" d="M39.7,2.8c-1.5,1.6-2.8,3-3.1,3.3s-0.5,0.7-0.3,1.5c0.2,0.8-0.1,0.6-0.9,1.4c-0.8,0.8-3.6,3.8-3.6,3.8"/>
	<path class="st0" d="M36.5,1.9c-1.4,1.5-3.4,3.4-4,3.9c-0.6,0.5-0.8,0.6-0.8,1.3s-0.6,1.8-1.7,2.9"/>
	<path class="st0" d="M14.8,25.1c0.4-0.3,2.8-2.8,3.3-3.4s0.4-1,0.4-1.7s0.6-1.5,1.4-2.3s8.4-8.6,8.4-8.6c0.9-0.9,1-1.4,1-2.1
		s0-0.8,0.6-1.5c0.5-0.6,3-3.1,5.5-5.7"/>
	<path class="st0" d="M26.4,9.2c0.9-0.9,1.1-1.2,0.8-2.1c-0.3-0.9,0-1.8,0.8-2.4c0.7-0.6,3.2-3,4.8-4.7"/>
	<path class="st0" d="M20.7,10.1c0,0,0.7-0.7,1.5-1.6c0.8-0.9,0.9-1.3,0.6-2.3c-0.3-0.9,0.3-0.9,0.8-1.7c0.5-0.7,2.6-2.9,4.2-4.6"/>
	<path class="st0" d="M0,26.8c2-2.2,6.7-7.3,7.3-8c0,0,0.6-0.6,1-1.1s0.4-0.4,0.3-1.1s-0.4-0.9-0.1-1.2s0.6-0.7,0.6-0.7
		c0.3-0.3,5.4-4.9,6.2-5.5s1.1-1.3,0.9-2.2c-0.2-0.9-0.1-1,0.6-1.6C17.4,4.9,20.5,2,22.7,0"/>
	<path class="st0" d="M4.5,19.6c1-1,1.7-1.8,1.7-2.9s0.7-1.8,1.7-2.7c1-0.8,4.7-4.5,5.8-5.4c1.1-0.9,1-1.5,1-2.2s0.1-0.7,0.9-1.6
		c0.7-0.8,3.2-3.1,5-4.8"/>
	<path class="st0" d="M15.5,2.8C16,2.4,17,1.4,18.3,0"/>
	<path class="st0" d="M12.6,6.4c-1.6,1.7-4.9,5-6.3,6.3c-1.4,1.3-2.1,1.9-2.2,2.7l-0.3,1.3c-0.1,0.9-0.1,1.3-1.1,2.4
		c-0.6,0.6-1.8,1.6-2.7,2.2"/>
	<line class="st0" x1="0.5" y1="1.7" x2="2.2" y2="0"/>
	<path class="st0" d="M3.2,1.2L0.6,3.5C0.4,3.7,0.2,3.9,0,4"/>
	<path class="st0" d="M0,6.1c0.2-0.2,0.5-0.4,0.7-0.6L6.9,0"/>
	<path class="st0" d="M0,10.1c0.6-0.7,1.2-1.2,1.5-1.5C2.9,7.2,2.9,7,2.8,6.2C2.6,5.4,4.5,4,5.8,2.8L8.9,0"/>
	<path class="st0" d="M11.5,0L7.3,3.7c-1.3,1.3-3.2,2.6-3,3.4c0.2,0.8,0.2,1-1.3,2.4c-0.6,0.6-1.8,1.8-3.1,3.1"/>
	<path class="st0" d="M20.4,54.2c0.3-0.3,0.7-0.7,0.9-1c0,0,1.3-1.5,2.1-2.3s1.1-1.1,0.8-2.1s-0.8-1.8,2.4-4.9s4.6-5.1,4.6-5.1
		s2.2-2.3,3-3.3c0.8-1,0.2-1.5,0.2-2.3c0-0.8,0.8-1.5,1.8-2.5s9.7-9.6,9.7-9.6c0.8-0.8,1.1-1.5,0.8-2.2c-0.3-0.7,0.3-1.6,1.3-2.6
		c0.7-0.8,4.1-4.2,6.2-6.3"/>
	<path class="st0" d="M54.2,44.1c-0.5,0.4-0.8,0.7-1,0.9c0,0-0.4,0.3-0.4,0.7s0.5,0.8,0.1,1.3s-3.3,3.2-3.8,3.6s-0.9,1-0.8,1.4
		s0.5,0.5,0.3,0.9s-0.4,0.7-0.4,0.7c-0.2,0.1-0.4,0.3-0.7,0.5"/>
	<path class="st0" d="M45.7,53.4c-0.2,0.2-0.5,0.5-0.8,0.8"/>
	<path class="st0" d="M53.5,30.2c-0.9,0.9-3.2,3.4-3.8,4.1s-1.3,1.3-1.3,2s0.5,1.2,0.1,1.8s-4.3,4.7-4.3,4.7
		c-0.8,0.8-2.8,2.6-3.6,3.5s-0.9,0.7-0.8,1.5s0.6,1.3-0.2,2.3s-0.8,0.6-3.6,3.5c-0.2,0.2-0.5,0.5-0.7,0.7"/>
	<path class="st0" d="M32.8,54.2c0.2-0.3,0.5-0.5,0.6-0.7"/>
	<path class="st0" d="M30.7,53.3c-0.2,0.2-0.5,0.5-0.8,0.9"/>
	<path class="st0" d="M54.2,21.3c-0.7,0.5-1.3,0.9-1.3,0.9s-0.9,0.8-1.1,1.2s-0.1,1-0.1,1.5s-1.3,2.2-1.3,2.2
		c-1,1.1-5.6,5.5-6.3,6.1s-1.3,1.3-1.2,1.9s0.4,1.7-0.3,2.3s-5.8,5.8-6.8,6.6s-1.5,1.5-1.5,2.1s0.5,1.1-0.1,1.8s-3.9,3.4-4.9,4.5
		s0.7-0.6-1,1.1c-0.2,0.2-0.3,0.4-0.5,0.5"/>
	<path class="st0" d="M32.2,40.1c0,0-3.6,3.8-4.7,4.9c-1.1,1.2-0.9,2.5-0.8,3.7c0.1,1.2-0.8,1.9-1.4,2.7c-0.7,0.8-1.8,2-1.8,2
		c-0.3,0.3-0.6,0.6-1,0.9"/>
	<path class="st0" d="M54.2,6c-1.2,1.1-2.5,2.1-2.3,2.8c0.2,0.8,0.2,1-1.3,2.4c-1.4,1.4-6.8,6.8-7.7,7.8s-1.5,1.9-1.3,2.6
		c0.3,0.7-0.1,1.4-0.8,2.2c0,0-6.7,6.8-7.5,7.7s-1.4,2-1.3,2.5s0.5,1.4-0.1,2s-8.1,9-8.5,9.4s-1.8,1.8-1.8,2.3s0.6,1.2,0.6,1.8
		s-1.8,2.3-2.4,2.9l-0.6,0.7c-0.4,0.4-0.7,0.7-1,1"/>
	<path class="st0" d="M45,0c-2,1.9-4.9,4.5-5.7,5.2c-0.8,0.8-0.8,1.1-0.7,2.2c0.2,1.1-0.8,2.2-1.9,3.2c0,0-8.7,8.8-9.3,9.4
		s-0.4,1-0.3,1.8c0.1,0.8-0.8,1.4-1.3,2.1c-0.5,0.7-7,7.2-8.2,8.2s-0.9,1.3-0.8,2.1c0.1,0.8-0.5,1.6-1.6,2.7
		c-1.1,1.1-6.5,6.8-7.6,7.9s-0.5,1.3,0,2.1c0.5,0.8,0.4,1.7-0.3,2.3c-0.8,0.7-3.5,3.5-3.5,3.5l-1.7,1.6"/>
	<line class="st0" x1="8.3" y1="52.9" x2="6.9" y2="54.2"/>
	<path class="st0" d="M8.9,54.2l4.5-3.9c0,0,0.9-0.9,1.3-1.4s0.4-1.3,0.3-1.7s1.7-2.3,3.9-4.4s4.6-4.6,5.1-5s1-0.7,0.6-1.4
		c-0.3-0.5,0.4-1.4,1.8-3"/>
	<line class="st0" x1="15" y1="51.1" x2="11.5" y2="54.2"/>
	<path class="st0" d="M47.7,0c-1.9,1.6-5.8,4.8-6,5.5c-0.2,0.8,0.6,1.8-0.2,2.6c-0.8,0.8-3.6,3.7-4.6,4.5c0,0-5.7,5.6-6.5,6.4
		s-1,1.4-0.8,2.2s0.3,0.9-1.3,2.6s-8.2,8.4-8.9,9.1s-0.7,1.1-0.5,1.9s-0.3,1.3-1.4,2.4s-5.8,6.1-7,7.4s-0.9,1.9-0.6,2.5
		s0.6,1.1,0,1.8S6,52.7,5.1,53.5"/>
	<path class="st0" d="M23.3,32c0.9-0.9,8.6-8.9,8.6-8.9c0.7-0.7,1.4-1.4,1.2-2.1s-0.2-1.3,0.5-1.8s7.3-7.1,7.8-7.6"/>
	<path class="st0" d="M32.8,39.6c0,0,3.6-3.6,4.3-4.3s0.8-1.1,0.6-1.9s0.4-1.4,0.9-2s3.1-3.5,4.4-4.8l1.4-1.5
		c0.8-0.8,3.1-3.1,3.1-3.1c0.8-0.8,1.1-1.5,0.8-2.2c-0.3-0.7,0.3-1.6,1.3-2.6c0.6-0.6,2.7-2.8,4.6-4.7"/>
	<path class="st0" d="M27.8,16.5c-1.8,2.1-2.8,3.4-3.2,3.9s-0.6,0.9-0.4,1.5c0.2,0.6-0.2,0.9-0.7,1.4S21,25.7,21,25.7"/>
	<path class="st0" d="M13.6,0.3c-1.8,2.1-6.5,5.9-6.9,6.4C6.3,7.2,6.1,7.6,6.3,8.2c0.2,0.6-0.2,0.9-0.7,1.4s-4.1,4-4.1,4"/>
	<path class="st0" d="M19.1,27.9c0,0-4,4.5-4.4,4.9c-0.4,0.4-0.8,0.8-0.7,1.6c0.1,0.8,0.1,0.9-0.3,1.3c-0.4,0.4-2.8,2.8-2.8,2.8"/>
	<path class="st0" d="M41.8,32.4c-0.8,1-1.5,1.6-1.4,2.3s0.3,1.6-0.4,2.3s-4.7,4.4-5.3,5.1S33,44,33.1,44.8s0.3,1.2-0.4,2
		s-4.9,4.9-5.6,5.6"/>
	<path class="st0" d="M10.2,39.9c0,0-3.4,3.2-3.8,3.4c-0.4,0.3-1.6,1.8-0.8,3.1c0.3,0.5,0,0.6-0.5,1.2C4.7,48,1.8,50.6,0,52.2"/>
	<path class="st0" d="M13.2,29.6c-1.5,1.5-2.6,2.6-3.4,3.4s-1.4,1.3-1.3,2s-0.5,1.8-1.8,3c-1,1-5,4.5-6.8,6.2"/>
	<path class="st0" d="M13.7,26.5c-2.5,2.5-4.3,3.9-5,4.9S7.2,32.6,7.1,34s-0.3,1.3-1.3,2.3C5.1,37,1.7,39.9,0,41.4"/>
	<path class="st0" d="M0,38.9c1.5-1.3,4.1-3.6,4.7-4.1c0.9-0.6,0.8-1.6,0.8-2.5s0.5-1.1,1.8-2.3s5.5-5,7.1-6.6c0,0,1.3-1.6,1.7-2
		s0.4-0.7,0.4-1.5s-0.1-1.1,0.8-2.1s7.4-7.1,8.3-7.9"/>
	<path class="st0" d="M0,36.9c0.7-0.7,1.7-1.6,2.3-2.3c1-1.1,1.1-0.6,1.1-2s1-1.9,1.9-2.9s3.2-2.9,4.6-4.5c0.9-1.1,1.6-1.4,2.3-2.3
		s1.6-1.4,2.1-2s0.4-1.5,0.4-2.3s0.4-1,0.9-1.6c0,0,1.3-1.3,2.4-2.3s6-6,6-6C25.1,8,25.3,7.6,25,6.8c-0.3-0.8,0-1.1,0.5-1.8
		c0.4-0.6,3-3.3,4.5-5.1"/>
	<path class="st0" d="M7.2,25.4c-1.8,1.9-3.1,3.4-4,4.3s-1.4,1.3-1.5,2.1S1.6,33,1.1,33.4c-0.3,0.2-0.7,0.5-1.1,0.7"/>
	<path class="st0" d="M4,20c-1.2,1.5-2.7,3-4,4.1"/>
	<path class="st0" d="M18.6,12c-1.9,1.9-3.6,3.5-4.4,4.3s-1.1,1.5-1.3,2.1s-0.1,1.3-0.9,2S10,22.5,10,22.5"/>
	<path class="st0" d="M54.2,52.2c-0.4,0.4-0.8,0.7-1.1,1"/>
	<path class="st0" d="M46.2,52.9c0,0,0.6-0.3,0.8-0.6s0.1-0.7,0.1-1.1s0.5-0.8,1.1-1.5s2.7-2.4,2.9-3s0-0.5-0.2-1s-0.4-1,0.1-1.4
		s2-2,2-2s0.4-0.4,1.1-0.9"/>
	<path class="st0" d="M54.2,38.9c-0.6,0.6-1.1,1-1.1,1s-0.9,0.3-0.9,0.8s-0.1,0.9-0.6,1.6s-1.2,1.2-2.8,2.6s-3.9,3.4-4,4.3
		s0.4,1.1-0.2,1.6s-2.4,2.5-2.4,2.5"/>
	<path class="st0" d="M53.2,37.7c0,0,0.4-0.4,1-0.9"/>
	<path class="st0" d="M54.2,34.1c-0.4,0.2-0.7,0.4-0.7,0.4s-1.2,1.1-1.5,1.6s-0.3,1.3-0.3,1.8s-0.3,1.1-1.1,1.8s-6.3,5.4-7.2,6.5
		c0,0-0.8,0.9-1.1,1.2s-0.8,0.9-0.6,1.4s0.3,1.4-0.1,1.8s-2.8,2.7-3.3,3.2"/>
	<path class="st0" d="M32.3,51.8c0.9-1,3.8-3.3,4.2-3.9s-0.3-1.1-0.2-1.8s0.8-1.1,2.3-2.8s5.9-6.1,6.6-7s0.3-1.3,0.1-1.7
		s0.6-1.3,1.1-1.9s1.1-1.2,2.3-2.3c1.1-1,2.6-2.5,3.5-3.3c0.7-0.6,1.5-2.6,1.5-2.6c0.2-0.2,0.4-0.3,0.6-0.5"/>
	<path class="st0" d="M53.3,27.6c0.2-0.2,0.5-0.5,0.8-0.9"/>
	<path class="st0" d="M17.5,24.2c0,0,1.7-1.5,2.3-2.1s0.8-1.3,0.9-2.2s0.6-1,1.4-2s2.5-2.6,4.6-4.8"/>
	<path class="st0" d="M53.5,18.6c-1.2,1.4-3.3,3.9-3.9,4.4S49,23.9,49,24.5s0.1,0.9-0.7,1.6s-4,3.9-4,3.9"/>
</g>
</svg>
