<?xml version="1.0" encoding="utf-8"?>
<!-- Generator: Adobe Illustrator 23.0.1, SVG Export Plug-In . SVG Version: 6.00 Build 0)  -->
<svg version="1.1" id="Layer_1" xmlns="http://www.w3.org/2000/svg" xmlns:xlink="http://www.w3.org/1999/xlink" x="0px" y="0px"
	 viewBox="0 0 46 46" style="enable-background:new 0 0 46 46;" xml:space="preserve">
<style type="text/css">
	.st0{fill:none;stroke:#000000;stroke-width:0.3;}
</style>
<g>
	<line class="st0" x1="4.7" y1="2.2" x2="7" y2="5.4"/>
	<line class="st0" x1="7.1" y1="2.2" x2="4.7" y2="5.4"/>
	<line class="st0" x1="12.4" y1="2.2" x2="14.7" y2="5.4"/>
	<line class="st0" x1="14.7" y1="2.2" x2="12.4" y2="5.4"/>
	<line class="st0" x1="19.9" y1="2.2" x2="22.2" y2="5.4"/>
	<line class="st0" x1="22.3" y1="2.2" x2="19.9" y2="5.4"/>
	<line class="st0" x1="27.6" y1="2.2" x2="29.9" y2="5.4"/>
	<line class="st0" x1="29.9" y1="2.2" x2="27.6" y2="5.4"/>
	<line class="st0" x1="35.2" y1="2.2" x2="37.6" y2="5.4"/>
	<line class="st0" x1="37.6" y1="2.2" x2="35.2" y2="5.4"/>
	<line class="st0" x1="43" y1="2.2" x2="45.3" y2="5.4"/>
	<line class="st0" x1="45.4" y1="2.2" x2="43" y2="5.4"/>
	<line class="st0" x1="0.8" y1="9.9" x2="3.1" y2="13.1"/>
	<line class="st0" x1="3.2" y1="9.9" x2="0.8" y2="13.1"/>
	<line class="st0" x1="8.5" y1="9.9" x2="10.8" y2="13.1"/>
	<line class="st0" x1="10.8" y1="9.9" x2="8.5" y2="13.1"/>
	<line class="st0" x1="16" y1="9.9" x2="18.3" y2="13.1"/>
	<line class="st0" x1="18.4" y1="9.9" x2="16" y2="13.1"/>
	<line class="st0" x1="23.7" y1="9.9" x2="26" y2="13.1"/>
	<line class="st0" x1="26" y1="9.9" x2="23.7" y2="13.1"/>
	<line class="st0" x1="31.3" y1="9.9" x2="33.7" y2="13.1"/>
	<line class="st0" x1="33.7" y1="9.9" x2="31.3" y2="13.1"/>
	<line class="st0" x1="39.1" y1="9.9" x2="41.4" y2="13.1"/>
	<line class="st0" x1="41.5" y1="9.9" x2="39.1" y2="13.1"/>
	<line class="st0" x1="4.7" y1="17.6" x2="7" y2="20.8"/>
	<line class="st0" x1="7.1" y1="17.6" x2="4.7" y2="20.9"/>
	<line class="st0" x1="12.4" y1="17.6" x2="14.7" y2="20.8"/>
	<line class="st0" x1="14.8" y1="17.6" x2="12.4" y2="20.9"/>
	<line class="st0" x1="19.9" y1="17.6" x2="22.3" y2="20.8"/>
	<line class="st0" x1="22.3" y1="17.6" x2="19.9" y2="20.9"/>
	<line class="st0" x1="27.6" y1="17.6" x2="29.9" y2="20.8"/>
	<line class="st0" x1="29.9" y1="17.6" x2="27.6" y2="20.9"/>
	<line class="st0" x1="35.3" y1="17.6" x2="37.6" y2="20.8"/>
	<line class="st0" x1="37.6" y1="17.6" x2="35.3" y2="20.9"/>
	<line class="st0" x1="43" y1="17.6" x2="45.3" y2="20.8"/>
	<line class="st0" x1="45.4" y1="17.6" x2="43" y2="20.9"/>
	<line class="st0" x1="0.6" y1="25.4" x2="2.9" y2="28.6"/>
	<line class="st0" x1="3" y1="25.4" x2="0.6" y2="28.6"/>
	<line class="st0" x1="8.3" y1="25.4" x2="10.6" y2="28.6"/>
	<line class="st0" x1="10.7" y1="25.4" x2="8.3" y2="28.6"/>
	<line class="st0" x1="15.9" y1="25.4" x2="18.2" y2="28.6"/>
	<line class="st0" x1="18.2" y1="25.4" x2="15.9" y2="28.6"/>
	<line class="st0" x1="23.5" y1="25.4" x2="25.8" y2="28.6"/>
	<line class="st0" x1="25.9" y1="25.4" x2="23.5" y2="28.6"/>
	<line class="st0" x1="31.2" y1="25.4" x2="33.5" y2="28.6"/>
	<line class="st0" x1="33.6" y1="25.4" x2="31.2" y2="28.6"/>
	<line class="st0" x1="38.9" y1="25.4" x2="41.2" y2="28.6"/>
	<line class="st0" x1="41.3" y1="25.4" x2="38.9" y2="28.6"/>
	<line class="st0" x1="4.6" y1="32.9" x2="6.9" y2="36.1"/>
	<line class="st0" x1="7" y1="32.9" x2="4.6" y2="36.1"/>
	<line class="st0" x1="12.3" y1="32.9" x2="14.6" y2="36.1"/>
	<line class="st0" x1="14.7" y1="32.9" x2="12.3" y2="36.1"/>
	<line class="st0" x1="19.9" y1="32.9" x2="22.2" y2="36.1"/>
	<line class="st0" x1="22.2" y1="32.9" x2="19.9" y2="36.1"/>
	<line class="st0" x1="27.5" y1="32.9" x2="29.8" y2="36.1"/>
	<line class="st0" x1="29.9" y1="32.9" x2="27.5" y2="36.1"/>
	<line class="st0" x1="35.2" y1="32.9" x2="37.5" y2="36.1"/>
	<line class="st0" x1="37.6" y1="32.9" x2="35.2" y2="36.1"/>
	<line class="st0" x1="42.9" y1="32.9" x2="45.2" y2="36.1"/>
	<line class="st0" x1="45.3" y1="32.9" x2="42.9" y2="36.1"/>
	<line class="st0" x1="0.8" y1="40.6" x2="3.1" y2="43.7"/>
	<line class="st0" x1="3.2" y1="40.6" x2="0.8" y2="43.8"/>
	<line class="st0" x1="8.5" y1="40.6" x2="10.8" y2="43.7"/>
	<line class="st0" x1="10.8" y1="40.6" x2="8.5" y2="43.8"/>
	<line class="st0" x1="16" y1="40.6" x2="18.3" y2="43.7"/>
	<line class="st0" x1="18.4" y1="40.6" x2="16" y2="43.8"/>
	<line class="st0" x1="23.7" y1="40.6" x2="26" y2="43.7"/>
	<line class="st0" x1="26" y1="40.6" x2="23.7" y2="43.8"/>
	<line class="st0" x1="31.3" y1="40.6" x2="33.7" y2="43.7"/>
	<line class="st0" x1="33.7" y1="40.6" x2="31.3" y2="43.8"/>
	<line class="st0" x1="39.1" y1="40.6" x2="41.4" y2="43.7"/>
	<line class="st0" x1="41.5" y1="40.6" x2="39.1" y2="43.8"/>
</g>
</svg>
