<?xml version="1.0" encoding="utf-8"?>
<!-- Generator: Adobe Illustrator 23.0.1, SVG Export Plug-In . SVG Version: 6.00 Build 0)  -->
<svg version="1.1" id="Layer_1" xmlns="http://www.w3.org/2000/svg" xmlns:xlink="http://www.w3.org/1999/xlink" x="0px" y="0px"
	 viewBox="0 0 53.7 53.7" style="enable-background:new 0 0 53.7 53.7;" xml:space="preserve">
<style type="text/css">
	.st0{fill:none;stroke:#000000;stroke-width:0.3;stroke-linejoin:bevel;}
	.st1{fill:none;stroke:#000000;stroke-width:0.8;stroke-linecap:round;stroke-linejoin:bevel;}
</style>
<g>
	<polygon class="st0" points="1.6,0.9 0.5,2.5 2.5,3.3 	"/>
	<polygon class="st0" points="4.1,1.7 5.9,1.9 6.1,3.5 4.7,3.6 	"/>
	<polygon class="st0" points="1,5.7 2.4,4.8 3.6,6.6 2.3,7 	"/>
	<polygon class="st0" points="5.9,5.5 8.6,5.2 8.7,7 	"/>
	<polygon class="st0" points="9.3,1.3 9.3,2.8 10.8,3.9 11.7,2.3 	"/>
	<polygon class="st0" points="14.4,2.7 15.7,1.2 16.8,3.4 	"/>
	<polygon class="st0" points="18.5,1.7 19.9,3.3 21.8,2.1 21.1,0.9 	"/>
	<polygon class="st0" points="23.4,3 22.5,4.3 24.2,5.7 25.2,4.4 	"/>
	<polygon class="st0" points="19.8,4.9 20.2,7.3 17.7,7 	"/>
	<polygon class="st0" points="12.1,5.8 13.2,4.8 14.8,5.2 14.2,7 	"/>
	<polygon class="st0" points="26.3,1.3 27.2,2.8 29.2,2.8 28.3,1.2 	"/>
	<polygon class="st0" points="30.4,3.4 32,3.4 31.7,5.3 29.7,4.3 	"/>
	<polygon class="st0" points="28,5.2 28.3,7.5 25.9,6.9 	"/>
	<polygon class="st0" points="32.9,1.6 35.2,0.7 35.2,2.9 	"/>
	<polygon class="st0" points="37.7,2.2 38.7,1.2 40.1,2.6 39.7,3.4 38.3,3.3 	"/>
	<polygon class="st0" points="42.3,3.8 43.1,4.9 44.7,4 43.4,2.6 	"/>
	<polygon class="st0" points="37.8,5.4 39.6,4.9 41.1,6.2 38.9,7.2 	"/>
	<polygon class="st0" points="34.7,5.4 35.5,7.6 33.2,7.4 	"/>
	<polygon class="st0" points="45.7,1.6 47.9,1.4 48.7,2.6 46.6,3.1 	"/>
	<polygon class="st0" points="49.6,3.5 51.1,4.2 50.1,5.6 49,5 	"/>
	<polygon class="st0" points="50.9,1.9 51,1.2 52.1,0.6 52.9,2.9 	"/>
	<polygon class="st0" points="51.8,5.9 52.9,7.1 51.2,7.7 	"/>
	<polygon class="st0" points="45.2,5.8 46.7,5.9 47.5,7.2 44.6,7.3 	"/>
	<polygon class="st0" points="0.3,35.2 1.7,34.3 2.9,36.1 1.7,36.5 	"/>
	<polygon class="st0" points="4.8,35.1 7.5,34.7 7.6,36.6 	"/>
	<polygon class="st0" points="19.9,34.2 20.2,36.6 17.7,36.2 	"/>
	<polygon class="st0" points="11.6,35.2 12.7,34.2 14.3,34.6 13.7,36.4 	"/>
	<polygon class="st0" points="28.4,34.5 28.7,36.7 26.3,36.2 	"/>
	<polygon class="st0" points="32.1,35.8 33.9,35.3 35.4,36.5 33.2,37.5 	"/>
	<polygon class="st0" points="37.9,33 38.6,35.2 36.4,35 	"/>
	<polygon class="st0" points="51.8,35.2 52.9,36.3 51.2,36.9 	"/>
	<polygon class="st0" points="45.4,34.9 46.9,35 47.7,36.2 44.8,36.4 	"/>
	<polygon class="st0" points="2.5,14 4.9,14.2 4.7,16 2.6,15.9 	"/>
	<polygon class="st0" points="7.3,13.8 9.5,14.2 8.8,16 	"/>
	<polygon class="st0" points="11.2,16.7 14.2,16.2 13.7,18.7 	"/>
	<polygon class="st0" points="16.1,14.2 19.2,14.7 18.4,15.6 18.2,17.3 	"/>
	<polygon class="st0" points="22.7,15.1 23.9,16.7 21.7,17.8 20.4,17.5 	"/>
	<polygon class="st0" points="26.8,14.3 27.2,16.2 29.7,14.9 	"/>
	<polygon class="st0" points="32.7,14.8 35.2,14.4 35.5,16.2 	"/>
	<polygon class="st0" points="40.7,14 41,16 43.4,14.9 	"/>
	<polygon class="st0" points="47.2,14.5 48.2,16.2 49.6,14.8 48.8,13.9 	"/>
	<polygon class="st0" points="51.8,14.1 52.7,15 51.1,15.8 	"/>
	<polygon class="st0" points="6.4,17 6.1,18.2 7.7,19.4 8.2,17.7 	"/>
	<polygon class="st0" points="10.1,19.9 9.3,21.2 11.6,22.2 11.9,20.5 	"/>
	<polygon class="st0" points="14.6,20.7 14.5,21.8 16.5,22.1 16.5,20.5 	"/>
	<polygon class="st0" points="21.3,20.5 19.9,22 22.2,22.9 	"/>
	<polygon class="st0" points="24.7,19.4 26,18.7 27.6,18.7 26.9,21.1 	"/>
	<polygon class="st0" points="29.2,21.2 28.1,23 30.3,23.1 	"/>
	<polygon class="st0" points="30.3,18.1 33,18 31.9,20.2 	"/>
	<polygon class="st0" points="38.5,16.8 38.7,19.5 36.4,19 	"/>
	<polygon class="st0" points="11.9,37.6 12.1,40.2 9.8,39.7 	"/>
	<polygon class="st0" points="40.6,20.8 40.5,22.7 42.8,22.4 41.8,20.9 	"/>
	<polygon class="st0" points="43.3,18.2 45.9,17.4 45.6,19.7 	"/>
	<polygon class="st0" points="47.4,21.1 48.6,20.8 49.6,22.7 47.3,23.1 	"/>
	<polygon class="st0" points="51.8,17.2 51.1,19.2 52.7,19.7 53.4,18 	"/>
	<polygon class="st0" points="52,21.2 51.2,21.9 52.2,23.2 53.2,22.2 	"/>
	<polygon class="st0" points="34.7,21.1 33.8,22.9 36.5,22.8 	"/>
	<polygon class="st0" points="3.2,19.2 1.8,20.7 4,21.5 	"/>
	<polygon class="st0" points="5.8,50.5 5.5,51.7 7.1,52.9 7.6,51.2 	"/>
	<polygon class="st0" points="14.7,51.6 14.6,52.7 16.6,52.9 16.6,51.3 	"/>
	<polygon class="st0" points="21.3,50.5 19.9,52 22.2,52.9 	"/>
	<polygon class="st0" points="23.3,50.1 24.7,49.3 26.2,49.3 25.6,51.7 	"/>
	<polygon class="st0" points="29.2,51.2 28.1,53 30.3,53.1 	"/>
	<polygon class="st0" points="36.7,49.7 39.3,49.6 38.2,51.7 	"/>
	<polygon class="st0" points="11.6,50.6 11.7,53.2 9.5,52.7 	"/>
	<polygon class="st0" points="40.6,50.8 40.5,52.7 42.8,52.4 41.8,50.9 	"/>
	<polygon class="st0" points="42.8,49.8 45.4,49.1 45.1,51.4 	"/>
	<polygon class="st0" points="47.4,51.1 48.6,50.8 49.6,52.7 47.3,53.1 	"/>
	<polygon class="st0" points="31.9,49.5 31.2,51.4 32.7,51.9 33.5,50.2 	"/>
	<polygon class="st0" points="52,51.2 51.2,51.9 52.2,53.2 53.2,52.2 	"/>
	<polygon class="st0" points="34.7,51.1 33.8,52.9 36.5,52.8 	"/>
	<polygon class="st0" points="2.2,50.7 0.9,52.2 3,52.9 	"/>
	<polygon class="st0" points="3,30.5 4.1,32.4 1.6,32.5 	"/>
	<polygon class="st0" points="5.2,30.8 7.5,30.7 6.5,32.6 	"/>
	<polygon class="st0" points="7.7,33.1 9.8,32 10.1,34 	"/>
	<polygon class="st0" points="11.8,31.1 12.9,32.5 14.7,30.8 	"/>
	<polygon class="st0" points="16.4,31.7 16.5,33.1 18.2,33.8 18.5,32.1 	"/>
	<polygon class="st0" points="19.2,30.5 21,30 21.1,32.1 	"/>
	<polygon class="st0" points="21.9,33.4 22.9,35.1 24.4,33.4 	"/>
	<polygon class="st0" points="25.1,32.1 25.8,33.2 28,31.4 26.3,30.7 	"/>
	<polygon class="st0" points="30.3,32.1 28.9,33.4 31.9,33.6 	"/>
	<polygon class="st0" points="32.1,31.2 33.6,32.8 35.1,30.9 32.7,30.6 	"/>
	<polygon class="st0" points="38.3,31.2 39.9,31.1 41,31.8 40.2,33 	"/>
	<polygon class="st0" points="41.3,34.2 40.3,35.6 42.2,36.2 43.7,35.2 	"/>
	<polygon class="st0" points="44.9,31.1 47.7,30.9 46.4,32.6 	"/>
	<polygon class="st0" points="49.1,33.2 50.6,33.8 50.5,34.9 48,34.5 	"/>
	<polygon class="st0" points="53.1,32.6 50.5,32 51.9,30.4 	"/>
	<polygon class="st0" points="1,38.2 3.4,38.5 3.2,40.2 1.1,40.2 	"/>
	<polygon class="st0" points="5.8,38.1 8,38.4 7.3,40.2 	"/>
	<polygon class="st0" points="15.3,37.5 18.4,38 17.7,38.9 17.4,40.7 	"/>
	<polygon class="st0" points="23.3,37.4 24.5,39 22.3,40.1 21,39.8 	"/>
	<polygon class="st0" points="26.4,38.7 26.8,40.5 29.3,39.3 	"/>
	<polygon class="st0" points="33.2,38.7 35.7,38.3 35.9,40.1 	"/>
	<polygon class="st0" points="39.2,38.2 39.5,40.2 41.9,39.2 	"/>
	<polygon class="st0" points="44.4,38.3 45.3,40 46.7,38.6 45.9,37.7 	"/>
	<polygon class="st0" points="50.1,37.8 51.6,39.7 49.1,40.2 	"/>
	<line class="st1" x1="4.1" y1="4.6" x2="4.1" y2="4.6"/>
	<line class="st1" x1="8.5" y1="3.8" x2="8.5" y2="3.8"/>
	<line class="st1" x1="12.9" y1="1.6" x2="12.9" y2="1.6"/>
	<line class="st1" x1="13.3" y1="3.9" x2="13.3" y2="3.9"/>
	<line class="st1" x1="16.9" y1="4.9" x2="16.9" y2="4.9"/>
	<line class="st1" x1="18.2" y1="3.1" x2="18.2" y2="3.1"/>
	<line class="st1" x1="17.2" y1="0.9" x2="17.2" y2="0.9"/>
	<line class="st1" x1="10.3" y1="6.6" x2="10.3" y2="6.6"/>
	<line class="st1" x1="12.7" y1="7.8" x2="12.7" y2="7.8"/>
	<line class="st1" x1="16.1" y1="7.6" x2="16.1" y2="7.6"/>
	<line class="st1" x1="19.2" y1="8.8" x2="19.2" y2="8.8"/>
	<line class="st1" x1="21.3" y1="4.7" x2="21.3" y2="4.7"/>
	<line class="st1" x1="23.2" y1="1.4" x2="23.2" y2="1.4"/>
	<line class="st1" x1="26.1" y1="3.5" x2="26.1" y2="3.5"/>
	<line class="st1" x1="29.9" y1="0.6" x2="29.9" y2="0.6"/>
	<line class="st1" x1="31.4" y1="2.2" x2="31.4" y2="2.2"/>
	<line class="st1" x1="29.9" y1="5.8" x2="29.9" y2="5.8"/>
	<line class="st1" x1="23.5" y1="6.9" x2="23.5" y2="6.9"/>
	<line class="st1" x1="22.5" y1="9.7" x2="22.5" y2="9.7"/>
	<line class="st1" x1="26.9" y1="8.9" x2="26.9" y2="8.9"/>
	<line class="st1" x1="30.3" y1="8.2" x2="30.3" y2="8.2"/>
	<line class="st1" x1="34" y1="8.7" x2="34" y2="8.7"/>
	<line class="st1" x1="36.9" y1="8.5" x2="36.9" y2="8.5"/>
	<line class="st1" x1="36.7" y1="5.4" x2="36.7" y2="5.4"/>
	<line class="st1" x1="33.9" y1="3.9" x2="33.9" y2="3.9"/>
	<line class="st1" x1="36.7" y1="2.4" x2="36.7" y2="2.4"/>
	<line class="st1" x1="40.9" y1="0.6" x2="40.9" y2="0.6"/>
	<line class="st1" x1="41.2" y1="4.2" x2="41.2" y2="4.2"/>
	<line class="st1" x1="42.7" y1="6.9" x2="42.7" y2="6.9"/>
	<line class="st1" x1="46.5" y1="4.6" x2="46.5" y2="4.6"/>
	<line class="st1" x1="44" y1="1.4" x2="44" y2="1.4"/>
	<line class="st1" x1="49.7" y1="0.6" x2="49.7" y2="0.6"/>
	<line class="st1" x1="51.3" y1="3.2" x2="51.3" y2="3.2"/>
	<line class="st1" x1="52.9" y1="5.2" x2="52.9" y2="5.2"/>
	<line class="st1" x1="49.2" y1="7" x2="49.2" y2="7"/>
	<line class="st1" x1="52.7" y1="9.2" x2="52.7" y2="9.2"/>
	<line class="st1" x1="49.5" y1="9.4" x2="49.5" y2="9.4"/>
	<line class="st1" x1="45.6" y1="9" x2="45.6" y2="9"/>
	<line class="st1" x1="5.7" y1="7.1" x2="5.7" y2="7.1"/>
	<line class="st1" x1="1" y1="7.8" x2="1" y2="7.8"/>
	<line class="st1" x1="3.7" y1="8.8" x2="3.7" y2="8.8"/>
	<line class="st1" x1="8.3" y1="9.4" x2="8.3" y2="9.4"/>
	<line class="st1" x1="11.7" y1="10.7" x2="11.7" y2="10.7"/>
	<line class="st1" x1="8.6" y1="11.9" x2="8.6" y2="11.9"/>
	<line class="st1" x1="5.7" y1="10.3" x2="5.7" y2="10.3"/>
	<line class="st1" x1="4" y1="12.6" x2="4" y2="12.6"/>
	<line class="st1" x1="2.2" y1="10.9" x2="2.2" y2="10.9"/>
	<line class="st1" x1="0.9" y1="15.2" x2="0.9" y2="15.2"/>
	<line class="st1" x1="15" y1="9.9" x2="15" y2="9.9"/>
	<line class="st1" x1="14.1" y1="13" x2="14.1" y2="13"/>
	<line class="st1" x1="11.7" y1="14.6" x2="11.7" y2="14.6"/>
	<line class="st1" x1="18.2" y1="11.2" x2="18.2" y2="11.2"/>
	<line class="st1" x1="6.5" y1="0.5" x2="6.5" y2="0.5"/>
	<line class="st1" x1="20.9" y1="12.5" x2="20.9" y2="12.5"/>
	<line class="st1" x1="24.7" y1="12.3" x2="24.7" y2="12.3"/>
	<line class="st1" x1="28.9" y1="11.2" x2="28.9" y2="11.2"/>
	<line class="st1" x1="32.4" y1="11.2" x2="32.4" y2="11.2"/>
	<line class="st1" x1="30.8" y1="14.1" x2="30.8" y2="14.1"/>
	<line class="st1" x1="25" y1="15.5" x2="25" y2="15.5"/>
	<line class="st1" x1="19.8" y1="15.7" x2="19.8" y2="15.7"/>
	<line class="st1" x1="15.7" y1="16.3" x2="15.7" y2="16.3"/>
	<line class="st1" x1="9.8" y1="18.2" x2="9.8" y2="18.2"/>
	<line class="st1" x1="4.6" y1="17.2" x2="4.6" y2="17.2"/>
	<line class="st1" x1="1.3" y1="18.2" x2="1.3" y2="18.2"/>
	<line class="st1" x1="18.3" y1="19.2" x2="18.3" y2="19.2"/>
	<line class="st1" x1="13.2" y1="21" x2="13.2" y2="21"/>
	<line class="st1" x1="22.9" y1="18.8" x2="22.9" y2="18.8"/>
	<line class="st1" x1="24.5" y1="21.6" x2="24.5" y2="21.6"/>
	<line class="st1" x1="27.5" y1="24.7" x2="27.5" y2="24.7"/>
	<line class="st1" x1="29.5" y1="19.7" x2="29.5" y2="19.7"/>
	<line class="st1" x1="28.8" y1="17.2" x2="28.8" y2="17.2"/>
	<line class="st1" x1="34.1" y1="16.7" x2="34.1" y2="16.7"/>
	<line class="st1" x1="34.9" y1="12.6" x2="34.9" y2="12.6"/>
	<line class="st1" x1="36.7" y1="10.6" x2="36.7" y2="10.6"/>
	<line class="st1" x1="39.7" y1="9" x2="39.7" y2="9"/>
	<line class="st1" x1="39.4" y1="11.3" x2="39.4" y2="11.3"/>
	<line class="st1" x1="37.7" y1="13.8" x2="37.7" y2="13.8"/>
	<line class="st1" x1="34.7" y1="19.5" x2="34.7" y2="19.5"/>
	<line class="st1" x1="32" y1="22.7" x2="32" y2="22.7"/>
	<line class="st1" x1="38.1" y1="21.6" x2="38.1" y2="21.6"/>
	<line class="st1" x1="40.8" y1="18.8" x2="40.8" y2="18.8"/>
	<line class="st1" x1="39.5" y1="15.8" x2="39.5" y2="15.8"/>
	<line class="st1" x1="43.3" y1="16.5" x2="43.3" y2="16.5"/>
	<line class="st1" x1="46.1" y1="14.7" x2="46.1" y2="14.7"/>
	<line class="st1" x1="43.2" y1="13" x2="43.2" y2="13"/>
	<line class="st1" x1="43.1" y1="10.2" x2="43.1" y2="10.2"/>
	<line class="st1" x1="46.3" y1="11.9" x2="46.3" y2="11.9"/>
	<line class="st1" x1="50.1" y1="13.2" x2="50.1" y2="13.2"/>
	<line class="st1" x1="51.8" y1="11.4" x2="51.8" y2="11.4"/>
	<line class="st1" x1="48.7" y1="18.2" x2="48.7" y2="18.2"/>
	<line class="st1" x1="50.3" y1="21" x2="50.3" y2="21"/>
	<line class="st1" x1="44.2" y1="20.8" x2="44.2" y2="20.8"/>
	<line class="st1" x1="45.8" y1="23.7" x2="45.8" y2="23.7"/>
	<line class="st1" x1="49.1" y1="24.1" x2="49.1" y2="24.1"/>
	<line class="st1" x1="52.2" y1="24.8" x2="52.2" y2="24.8"/>
	<line class="st1" x1="41.9" y1="23.7" x2="41.9" y2="23.7"/>
	<line class="st1" x1="38.1" y1="24.2" x2="38.1" y2="24.2"/>
	<line class="st1" x1="35.1" y1="24.1" x2="35.1" y2="24.1"/>
	<line class="st1" x1="30.9" y1="25.6" x2="30.9" y2="25.6"/>
	<line class="st1" x1="37" y1="27.7" x2="37" y2="27.7"/>
	<line class="st1" x1="23.4" y1="24" x2="23.4" y2="24"/>
	<line class="st1" x1="18.2" y1="22.4" x2="18.2" y2="22.4"/>
	<line class="st1" x1="15.2" y1="18.7" x2="15.2" y2="18.7"/>
	<line class="st1" x1="15.2" y1="24.1" x2="15.2" y2="24.1"/>
	<line class="st1" x1="9.7" y1="23.4" x2="9.7" y2="23.4"/>
	<line class="st1" x1="5.9" y1="20.7" x2="5.9" y2="20.7"/>
	<line class="st1" x1="1.1" y1="22.2" x2="1.1" y2="22.2"/>
	<line class="st1" x1="4" y1="22.9" x2="4" y2="22.9"/>
	<line class="st1" x1="3.6" y1="33.7" x2="3.6" y2="33.7"/>
	<line class="st1" x1="8.1" y1="41.2" x2="8.1" y2="41.2"/>
	<line class="st1" x1="16.1" y1="35.1" x2="16.1" y2="35.1"/>
	<line class="st1" x1="12.9" y1="41.2" x2="12.9" y2="41.2"/>
	<line class="st1" x1="16.5" y1="42.2" x2="16.5" y2="42.2"/>
	<line class="st1" x1="19.5" y1="38.9" x2="19.5" y2="38.9"/>
	<line class="st1" x1="23.3" y1="30.2" x2="23.3" y2="30.2"/>
	<line class="st1" x1="9.9" y1="43.9" x2="9.9" y2="43.9"/>
	<line class="st1" x1="12.8" y1="44.3" x2="12.8" y2="44.3"/>
	<line class="st1" x1="15.7" y1="44.9" x2="15.7" y2="44.9"/>
	<line class="st1" x1="19" y1="44.9" x2="19" y2="44.9"/>
	<line class="st1" x1="20.9" y1="42.1" x2="20.9" y2="42.1"/>
	<line class="st1" x1="29.9" y1="27.7" x2="29.9" y2="27.7"/>
	<line class="st1" x1="25.7" y1="40.8" x2="25.7" y2="40.8"/>
	<line class="st1" x1="29.5" y1="37.9" x2="29.5" y2="37.9"/>
	<line class="st1" x1="31" y1="39.6" x2="31" y2="39.6"/>
	<line class="st1" x1="29.5" y1="43.2" x2="29.5" y2="43.2"/>
	<line class="st1" x1="23.1" y1="44.2" x2="23.1" y2="44.2"/>
	<line class="st1" x1="22.1" y1="47.1" x2="22.1" y2="47.1"/>
	<line class="st1" x1="26.5" y1="46.2" x2="26.5" y2="46.2"/>
	<line class="st1" x1="29.9" y1="45.6" x2="29.9" y2="45.6"/>
	<line class="st1" x1="33" y1="44.2" x2="33" y2="44.2"/>
	<line class="st1" x1="36.5" y1="45.8" x2="36.5" y2="45.8"/>
	<line class="st1" x1="36.2" y1="42.7" x2="36.2" y2="42.7"/>
	<line class="st1" x1="33.5" y1="41.2" x2="33.5" y2="41.2"/>
	<line class="st1" x1="45.6" y1="26.5" x2="45.6" y2="26.5"/>
	<line class="st1" x1="37.9" y1="37.2" x2="37.9" y2="37.2"/>
	<line class="st1" x1="40.7" y1="41.5" x2="40.7" y2="41.5"/>
	<line class="st1" x1="42.3" y1="44.2" x2="42.3" y2="44.2"/>
	<line class="st1" x1="46.1" y1="41.9" x2="46.1" y2="41.9"/>
	<line class="st1" x1="42.4" y1="37.8" x2="42.4" y2="37.8"/>
	<line class="st1" x1="47.9" y1="39.2" x2="47.9" y2="39.2"/>
	<line class="st1" x1="53.2" y1="38" x2="53.2" y2="38"/>
	<line class="st1" x1="51.5" y1="43.6" x2="51.5" y2="43.6"/>
	<line class="st1" x1="47.2" y1="44.3" x2="47.2" y2="44.3"/>
	<line class="st1" x1="52.2" y1="46.5" x2="52.2" y2="46.5"/>
	<line class="st1" x1="49.1" y1="46.7" x2="49.1" y2="46.7"/>
	<line class="st1" x1="45.2" y1="46.3" x2="45.2" y2="46.3"/>
	<line class="st1" x1="6.4" y1="43.7" x2="6.4" y2="43.7"/>
	<line class="st1" x1="0.6" y1="45.2" x2="0.6" y2="45.2"/>
	<line class="st1" x1="3.3" y1="46.2" x2="3.3" y2="46.2"/>
	<line class="st1" x1="8.7" y1="46.2" x2="8.7" y2="46.2"/>
	<line class="st1" x1="11.3" y1="48.1" x2="11.3" y2="48.1"/>
	<line class="st1" x1="8.2" y1="49.2" x2="8.2" y2="49.2"/>
	<line class="st1" x1="5.3" y1="47.7" x2="5.3" y2="47.7"/>
	<line class="st1" x1="3.6" y1="49.9" x2="3.6" y2="49.9"/>
	<line class="st1" x1="1.7" y1="48.2" x2="1.7" y2="48.2"/>
	<line class="st1" x1="0.5" y1="50.7" x2="0.5" y2="50.7"/>
	<line class="st1" x1="14.6" y1="47.2" x2="14.6" y2="47.2"/>
	<line class="st1" x1="13.7" y1="50.3" x2="13.7" y2="50.3"/>
	<line class="st1" x1="4.2" y1="37.1" x2="4.2" y2="37.1"/>
	<line class="st1" x1="17.7" y1="48.6" x2="17.7" y2="48.6"/>
	<line class="st1" x1="9.6" y1="36" x2="9.6" y2="36"/>
	<line class="st1" x1="20.5" y1="49.8" x2="20.5" y2="49.8"/>
	<line class="st1" x1="2.5" y1="42.2" x2="2.5" y2="42.2"/>
	<line class="st1" x1="28.5" y1="48.5" x2="28.5" y2="48.5"/>
	<line class="st1" x1="32" y1="48.5" x2="32" y2="48.5"/>
	<line class="st1" x1="27.6" y1="51" x2="27.6" y2="51"/>
	<line class="st1" x1="24.6" y1="52.8" x2="24.6" y2="52.8"/>
	<line class="st1" x1="19.4" y1="53" x2="19.4" y2="53"/>
	<line class="st1" x1="31" y1="35.1" x2="31" y2="35.1"/>
	<line class="st1" x1="35.2" y1="33.6" x2="35.2" y2="33.6"/>
	<line class="st1" x1="4.9" y1="29.2" x2="4.9" y2="29.2"/>
	<line class="st1" x1="5.3" y1="41.1" x2="5.3" y2="41.1"/>
	<line class="st1" x1="17.7" y1="26" x2="17.7" y2="26"/>
	<line class="st1" x1="11.6" y1="26.2" x2="11.6" y2="26.2"/>
	<line class="st1" x1="24.5" y1="36.2" x2="24.5" y2="36.2"/>
	<line class="st1" x1="22.8" y1="26.8" x2="22.8" y2="26.8"/>
	<line class="st1" x1="20.7" y1="24.8" x2="20.7" y2="24.8"/>
	<line class="st1" x1="20.2" y1="28.4" x2="20.2" y2="28.4"/>
	<line class="st1" x1="26.4" y1="26.7" x2="26.4" y2="26.7"/>
	<line class="st1" x1="34.3" y1="47" x2="34.3" y2="47"/>
	<line class="st1" x1="35.2" y1="49.2" x2="35.2" y2="49.2"/>
	<line class="st1" x1="39.3" y1="44.1" x2="39.3" y2="44.1"/>
	<line class="st1" x1="39" y1="48.7" x2="39" y2="48.7"/>
	<line class="st1" x1="40" y1="46.4" x2="40" y2="46.4"/>
	<line class="st1" x1="42.6" y1="31.1" x2="42.6" y2="31.1"/>
	<line class="st1" x1="33.3" y1="29.4" x2="33.3" y2="29.4"/>
	<line class="st1" x1="34.1" y1="26.4" x2="34.1" y2="26.4"/>
	<line class="st1" x1="39.4" y1="26.3" x2="39.4" y2="26.3"/>
	<line class="st1" x1="44.6" y1="33.7" x2="44.6" y2="33.7"/>
	<line class="st1" x1="39.1" y1="53.2" x2="39.1" y2="53.2"/>
	<line class="st1" x1="45.7" y1="52" x2="45.7" y2="52"/>
	<line class="st1" x1="41.2" y1="49.6" x2="41.2" y2="49.6"/>
	<line class="st1" x1="42.7" y1="47.6" x2="42.7" y2="47.6"/>
	<line class="st1" x1="47.2" y1="48.7" x2="47.2" y2="48.7"/>
	<line class="st1" x1="49.7" y1="50.5" x2="49.7" y2="50.5"/>
	<line class="st1" x1="51.4" y1="48.7" x2="51.4" y2="48.7"/>
	<line class="st1" x1="26.3" y1="43.4" x2="26.3" y2="43.4"/>
	<line class="st1" x1="51.7" y1="27.4" x2="51.7" y2="27.4"/>
	<line class="st1" x1="48.7" y1="26.2" x2="48.7" y2="26.2"/>
	<line class="st1" x1="42.5" y1="26.1" x2="42.5" y2="26.1"/>
	<line class="st1" x1="44.2" y1="29" x2="44.2" y2="29"/>
	<line class="st1" x1="47.4" y1="29.3" x2="47.4" y2="29.3"/>
	<line class="st1" x1="50.5" y1="30.1" x2="50.5" y2="30.1"/>
	<line class="st1" x1="40.7" y1="29.2" x2="40.7" y2="29.2"/>
	<line class="st1" x1="36.8" y1="30.7" x2="36.8" y2="30.7"/>
	<line class="st1" x1="26.7" y1="29.1" x2="26.7" y2="29.1"/>
	<line class="st1" x1="29.2" y1="30.9" x2="29.2" y2="30.9"/>
	<line class="st1" x1="16.4" y1="29.7" x2="16.4" y2="29.7"/>
	<line class="st1" x1="14.6" y1="27.2" x2="14.6" y2="27.2"/>
	<line class="st1" x1="14.1" y1="38" x2="14.1" y2="38"/>
	<line class="st1" x1="11.4" y1="29.7" x2="11.4" y2="29.7"/>
	<line class="st1" x1="8" y1="28.7" x2="8" y2="28.7"/>
	<line class="st1" x1="4.2" y1="26" x2="4.2" y2="26"/>
	<line class="st1" x1="7.3" y1="25.2" x2="7.3" y2="25.2"/>
	<line class="st1" x1="2.3" y1="28.2" x2="2.3" y2="28.2"/>
	<line class="st1" x1="0.8" y1="12.3" x2="0.8" y2="12.3"/>
	<line class="st1" x1="52.5" y1="40.6" x2="52.5" y2="40.6"/>
	<line class="st1" x1="49.1" y1="36.5" x2="49.1" y2="36.5"/>
	<line class="st1" x1="1" y1="26" x2="1" y2="26"/>
	<line class="st1" x1="0.6" y1="30.1" x2="0.6" y2="30.1"/>
</g>
</svg>
