<?xml version="1.0" encoding="utf-8"?>
<!-- Generator: Adobe Illustrator 23.0.1, SVG Export Plug-In . SVG Version: 6.00 Build 0)  -->
<svg version="1.1" id="Layer_1" xmlns="http://www.w3.org/2000/svg" xmlns:xlink="http://www.w3.org/1999/xlink" x="0px" y="0px"
	 viewBox="0 0 65.2 65.2" style="enable-background:new 0 0 65.2 65.2;" xml:space="preserve">
<style type="text/css">
	.st0{clip-path:url(#SVGID_1_);fill:none;stroke:#000000;stroke-width:0.6;}
	.st1{clip-path:url(#SVGID_1_);fill:none;stroke:#000000;stroke-width:0.3;}
</style>
<g>
	<defs>
		<rect id="SVGID_3_" x="0" y="0" width="65.2" height="65.2"/>
	</defs>
	<clipPath id="SVGID_1_">
		<use xlink:href="#SVGID_3_"  style="overflow:visible;"/>
	</clipPath>
	<path class="st0" d="M44.9,61c2.6,0,7,0.4,8.5,0.5c1.8,0.1,5-0.2,7.5-0.3"/>
	<path class="st0" d="M44.9,61c-0.7,0-1.2,0-1.6,0"/>
	<path class="st0" d="M52.4,2.5c-1.9,0-3.6,0.1-5,0.1"/>
	<path class="st0" d="M47.4,2.6c-1,0.1-1.7,0.1-2.1,0.2c-0.4,0.1-0.8,0.2-1.3,0.2"/>
	<path class="st0" d="M43.9,3.1c-3.1,0.4-8.3,0.5-9.5,0.5"/>
	<path class="st0" d="M58.1,2.5c-1.7,0-3.7,0-5.7,0"/>
	<path class="st0" d="M60.1,2.5c0.8,0,1.5,0,1.9,0"/>
	<path class="st0" d="M58.1,2.5c0.7,0,1.4,0,2,0"/>
	<path class="st0" d="M62,2.5c0.4,0,0.7,0,0.7,0c0.6,0,1.5,0,2.5,0"/>
	<path class="st0" d="M51.6,9.2c0.9,0,2,0,3.1,0"/>
	<path class="st0" d="M49.3,9.3c0.5,0,1.3,0,2.3,0"/>
	<path class="st0" d="M61.7,9.6c-0.4,0-2.7-0.1-5.3-0.3"/>
	<path class="st0" d="M54.7,9.2c0.4,0,0.9,0,1.4,0c0.1,0,0.2,0,0.3,0"/>
	<path class="st0" d="M61.7,9.6C61.8,9.6,61.8,9.6,61.7,9.6c1.1,0,2.3,0.1,3.5,0.1"/>
	<path class="st0" d="M60.2,16.9c-1,0-2.5,0-4,0.1c-2.9,0.2-7.2-0.1-8.9,0"/>
	<path class="st0" d="M60.2,16.9c1,0,1.6,0.1,1.6,0.1c1-0.1,2.1-0.1,3.4-0.2"/>
	<path class="st0" d="M42.9,22.1c1.8,0,3.6,0.1,5.2,0.1c4.7,0.2,13.4-0.1,13.4-0.1c1.2,0.1,2.6,0.2,3.7,0.2"/>
	<path class="st0" d="M34.6,22.2c1.2-0.2,4.7-0.2,8.3-0.1"/>
	<path class="st0" d="M23.5,29.9c1-0.2,6.1-0.2,9.4-0.5c3.3-0.3,10.7,0.2,16,0.4c0.7,0,1.4,0.1,2.2,0.1"/>
	<path class="st0" d="M52,30c-0.3,0-0.6,0-0.9-0.1"/>
	<path class="st0" d="M60.7,30.9C59,30.7,55.4,30.2,52,30"/>
	<path class="st0" d="M64.7,31.1c-0.7,0-1.4,0-2,0"/>
	<path class="st0" d="M61.5,31c-0.2,0-0.5-0.1-0.8-0.1"/>
	<path class="st0" d="M62.7,31.1c-0.4,0-0.7,0-0.9-0.1c0,0-0.1,0-0.3,0"/>
	<path class="st0" d="M64.7,31.1c0.2,0,0.4,0,0.6,0"/>
	<path class="st0" d="M39.9,35.2c1.1-0.2,4.5-0.2,6.2-0.3c1.7-0.1,6.2,0.2,8.7,0.3c2.5,0.1,7.7,0.3,7.7,0.3c0.7-0.1,1.7,0,2.8,0"/>
	<path class="st0" d="M35.5,49c0.9-0.2,2.8,0.1,6.2,0c3.3-0.2,8.7-0.5,12.1-0.8c3.5-0.3,8.9-0.3,8.9-0.3c0.6,0,1.5,0,2.5,0"/>
	<path class="st0" d="M64.1,55.1c-0.7,0-1.3,0-2-0.1"/>
	<path class="st0" d="M64.1,55.1c0.4,0,0.7,0,1.1,0"/>
	<path class="st0" d="M61,55c-1.1-0.1-2.9-0.2-4-0.1c-1.7,0.2-7.4-0.5-8.1-0.3"/>
	<path class="st0" d="M62.2,55c-0.1,0-0.2,0-0.4,0c0,0-0.3,0-0.8-0.1"/>
	<path class="st0" d="M61.3,61c1.1-0.1,2.5-0.1,4-0.2"/>
	<path class="st0" d="M54.6,42.3c0.5,0,1.5,0,2.5,0c1.1,0,4.4-0.5,4.4-0.5c1,0,2.3,0,3.7,0.1"/>
	<path class="st0" d="M24.7,3.1c-0.8,0-1.7,0-2.4-0.1"/>
	<path class="st0" d="M22.2,3.1c-0.8,0-1.5,0-2.1-0.1c-1.9-0.1-7.3-0.2-12.5-0.3"/>
	<path class="st0" d="M31,3.4c-0.7-0.1-1.8-0.2-3.2-0.2"/>
	<path class="st0" d="M27.8,3.2c-1,0-2.1-0.1-3.2-0.1"/>
	<path class="st0" d="M7.6,2.7c-1.1,0-2.2,0-3.3-0.1"/>
	<path class="st0" d="M0,2.6c1.1,0,2.3,0,3.6,0.1"/>
	<path class="st0" d="M4.3,2.6c-0.3,0-0.5,0-0.8,0"/>
	<path class="st0" d="M38.9,8.9c2.2,0.3,4,0.1,5.8,0.1"/>
	<path class="st0" d="M7.2,10C4.8,9.9,2.3,9.8,0,9.7"/>
	<path class="st0" d="M36.5,8.7c0.8,0,1.4,0.1,1.9,0.1c0.2,0,0.3,0.1,0.5,0.1"/>
	<path class="st0" d="M36.5,8.7c-2.9,0-7.4,0.4-10.2,0.3c-3.6-0.2-5.3,0-9.6,0.8c-2.2,0.4-5.7,0.4-9.4,0.3"/>
	<path class="st0" d="M0,16.8c7.8-0.3,19.9-0.4,22.6,0c0.2,0,0.5,0.1,0.8,0.1"/>
	<path class="st0" d="M40.6,16.8c-0.9-0.2-5.7-0.2-7.3,0.1c-1.5,0.3-6.6,0.3-9.9-0.1"/>
	<path class="st0" d="M10.7,22.1c-0.6,0.1-1.4,0.2-2.4,0.2c-2.9,0.2-5.6-0.3-6.5-0.2c-0.4,0.1-1,0.1-1.8,0.1"/>
	<path class="st0" d="M29.7,22.2c-6.3,0.3-11.3,0.5-14.6-0.1c-1.9-0.3-2.7-0.1-4.4,0.1"/>
	<path class="st0" d="M13,31.2c1.5,0,3.2-0.2,4.8-0.4"/>
	<path class="st0" d="M6.4,31.1c0.3,0,0.5,0,0.8,0"/>
	<path class="st0" d="M5.5,31c0.3,0,0.6,0,0.9,0"/>
	<path class="st0" d="M17.8,30.8c0.2,0,0.4-0.1,0.6-0.1"/>
	<path class="st0" d="M9.9,31.2c1,0,2,0,3.1,0"/>
	<path class="st0" d="M7.2,31.1c0.8,0,1.7,0.1,2.7,0.1"/>
	<path class="st0" d="M5.5,31c-0.2,0-0.5,0-0.7,0c-1.5,0-3.2,0-4.8,0.1"/>
	<path class="st0" d="M34.5,35.2c-3.4,0-9.6-0.3-14.1-0.3"/>
	<path class="st0" d="M4.6,35.7c0.7,0,1.4,0,2.2,0c5,0,6.6-0.1,9-0.6c0.8-0.1,2.4-0.2,4.5-0.2"/>
	<path class="st0" d="M3.6,35.6c-1.4,0-2.6-0.1-3.6-0.1"/>
	<path class="st0" d="M3.6,35.6c0.3,0,0.7,0,1.1,0"/>
	<path class="st0" d="M1.7,48c-0.5,0-1,0-1.5,0"/>
	<path class="st0" d="M31,48.9c-1.4-0.2-5.3-0.3-8.5-0.4"/>
	<path class="st0" d="M2.6,48c-0.3,0-0.6,0-0.8,0"/>
	<path class="st0" d="M21.2,48.5c0.4,0,0.8,0,1.3,0"/>
	<path class="st0" d="M2.6,48c6.1,0.1,15,0.3,17.5,0.4c0.4,0,0.7,0,1.1,0"/>
	<path class="st0" d="M23.8,54.4c-2.2,0-3.9,0.2-7.2,0.8c-0.3,0-0.6,0.1-0.9,0.1"/>
	<path class="st0" d="M15.7,55.3C11.9,55.7,5.3,55.4,0,55.2"/>
	<path class="st0" d="M23.8,54.4c0.7,0,1.5,0,2.4,0.1c3.6,0.2,9.8-0.6,12.1-0.1c2.4,0.5,4.4,0.1,6.3,0.1"/>
	<path class="st0" d="M35.9,60.8c0.5,0,1.1,0,1.6,0"/>
	<path class="st0" d="M0,60.8c7.8-0.3,19.5-0.3,22.1,0c3.1,0.5,9,0.5,10.6,0.2c0.7-0.1,1.9-0.2,3.2-0.2"/>
	<path class="st0" d="M37.5,60.8c1.2,0,2.2,0,2.6,0.1"/>
	<path class="st0" d="M26.8,41.7c-0.3,0-0.5,0-0.8,0"/>
	<path class="st0" d="M29.6,41.8c0.9,0,1.7,0.1,2.2,0.2c2.8,0.4,9.2,0.4,13.8-0.2c3.3-0.4,3.9-0.4,5-0.2"/>
	<path class="st0" d="M7.2,42.4c0.4,0,0.8,0,1.1,0c2.9,0,5-0.1,7.4-0.4c1.5-0.2,6.2-0.3,10.2-0.3"/>
	<path class="st0" d="M52.5,42c-0.9-0.1-1.4-0.3-1.9-0.3"/>
	<path class="st0" d="M7.2,42.4c-2-0.1-4.8-0.3-7.3-0.5"/>
	<path class="st0" d="M28.5,41.8c-0.5,0-1.1,0-1.7,0"/>
	<path class="st0" d="M29.6,41.8c-0.3,0-0.7,0-1.1,0"/>
	<line class="st1" x1="2.8" y1="61.4" x2="2.8" y2="65.2"/>
	<line class="st1" x1="1.1" y1="61.5" x2="1.1" y2="65.2"/>
	<line class="st1" x1="3.6" y1="61.4" x2="3.6" y2="65.2"/>
	<line class="st1" x1="4.3" y1="61.4" x2="4.3" y2="65.2"/>
	<line class="st1" x1="5.3" y1="61.4" x2="5.3" y2="65.2"/>
	<line class="st1" x1="26.2" y1="61.8" x2="26.2" y2="65.2"/>
	<line class="st1" x1="27.1" y1="62" x2="27.1" y2="65.2"/>
	<line class="st1" x1="27.8" y1="61.9" x2="27.8" y2="65.2"/>
	<line class="st1" x1="28.8" y1="61.9" x2="28.8" y2="65.2"/>
	<line class="st1" x1="7.6" y1="61.4" x2="7.6" y2="65.2"/>
	<line class="st1" x1="9.5" y1="61.3" x2="9.5" y2="65.2"/>
	<line class="st1" x1="11.9" y1="61.3" x2="11.9" y2="65.2"/>
	<line class="st1" x1="42.8" y1="61.7" x2="42.8" y2="65.2"/>
	<line class="st1" x1="45.6" y1="61.7" x2="45.6" y2="65.2"/>
	<line class="st1" x1="46.6" y1="61.5" x2="46.6" y2="65.2"/>
	<line class="st1" x1="41.3" y1="61.7" x2="41.3" y2="65.2"/>
	<line class="st1" x1="39" y1="61.5" x2="39" y2="65.2"/>
	<line class="st1" x1="51.5" y1="61.7" x2="51.5" y2="65.2"/>
	<line class="st1" x1="49.3" y1="61.6" x2="49.3" y2="65.2"/>
	<line class="st1" x1="48.3" y1="61.5" x2="48.3" y2="65.2"/>
	<line class="st1" x1="47.4" y1="61.3" x2="47.4" y2="65.2"/>
	<line class="st1" x1="53.8" y1="61.8" x2="53.8" y2="65.2"/>
	<line class="st1" x1="55.5" y1="61.8" x2="55.5" y2="65.2"/>
	<line class="st1" x1="52.4" y1="61.8" x2="52.4" y2="65.2"/>
	<line class="st1" x1="24.7" y1="61.8" x2="24.7" y2="65.2"/>
	<line class="st1" x1="35.4" y1="61.5" x2="35.4" y2="65.2"/>
	<line class="st1" x1="36.2" y1="61.4" x2="36.2" y2="65.2"/>
	<line class="st1" x1="37" y1="61.4" x2="37" y2="65.2"/>
	<line class="st1" x1="37.9" y1="61.5" x2="37.9" y2="65.2"/>
	<line class="st1" x1="19.8" y1="54.4" x2="19.8" y2="49.1"/>
	<line class="st1" x1="20.4" y1="54.4" x2="20.4" y2="49.3"/>
	<line class="st1" x1="21.3" y1="49.1" x2="21.3" y2="54.4"/>
	<line class="st1" x1="17.8" y1="54.4" x2="17.8" y2="49.2"/>
	<line class="st1" x1="23.8" y1="54.4" x2="23.8" y2="49.3"/>
	<line class="st0" x1="23.8" y1="54.4" x2="23.8" y2="54.4"/>
	<line class="st1" x1="22" y1="49.1" x2="22" y2="54.2"/>
	<line class="st1" x1="30.7" y1="61.9" x2="30.7" y2="65.2"/>
	<line class="st1" x1="33.8" y1="61.6" x2="33.8" y2="65.2"/>
	<line class="st1" x1="60.1" y1="61.9" x2="60.1" y2="65.2"/>
	<line class="st1" x1="62" y1="61.7" x2="62" y2="65.2"/>
	<line class="st1" x1="1.9" y1="49" x2="1.9" y2="55.2"/>
	<line class="st1" x1="3.7" y1="49" x2="3.7" y2="55.1"/>
	<line class="st1" x1="7.6" y1="48.3" x2="7.6" y2="55"/>
	<line class="st1" x1="7" y1="48.6" x2="7" y2="54.5"/>
	<line class="st1" x1="6.1" y1="49" x2="6.1" y2="55.1"/>
	<line class="st0" x1="15.7" y1="55.3" x2="15.7" y2="55.3"/>
	<line class="st1" x1="16" y1="48.6" x2="16" y2="55.3"/>
	<line class="st1" x1="14.2" y1="48.7" x2="14.2" y2="55.3"/>
	<line class="st1" x1="12" y1="49.1" x2="12" y2="55"/>
	<line class="st1" x1="9.3" y1="48.8" x2="9.3" y2="54.7"/>
	<line class="st1" x1="8.4" y1="48.9" x2="8.4" y2="54.8"/>
	<line class="st1" x1="61.2" y1="54.8" x2="61.2" y2="48.6"/>
	<line class="st1" x1="61.9" y1="54.6" x2="61.9" y2="48.4"/>
	<line class="st1" x1="60.6" y1="54.8" x2="60.6" y2="48.6"/>
	<line class="st1" x1="64.1" y1="54.3" x2="64.1" y2="48.4"/>
	<line class="st1" x1="63.4" y1="54.6" x2="63.4" y2="48.7"/>
	<line class="st1" x1="62.7" y1="54.7" x2="62.7" y2="48.8"/>
	<line class="st1" x1="15.1" y1="48.5" x2="15.1" y2="55.3"/>
	<line class="st1" x1="58.9" y1="62" x2="58.9" y2="65.2"/>
	<line class="st1" x1="33.8" y1="49.8" x2="33.8" y2="53.9"/>
	<line class="st1" x1="36.6" y1="49.2" x2="36.6" y2="53.8"/>
	<line class="st1" x1="32.3" y1="49.7" x2="32.3" y2="53.8"/>
	<line class="st1" x1="30" y1="49.9" x2="30" y2="53.7"/>
	<line class="st1" x1="42.5" y1="49.6" x2="42.5" y2="54.2"/>
	<line class="st1" x1="41.7" y1="49.7" x2="41.7" y2="54.1"/>
	<line class="st1" x1="40" y1="49.7" x2="40" y2="54.1"/>
	<line class="st1" x1="38.9" y1="49.6" x2="38.9" y2="54"/>
	<line class="st1" x1="38.1" y1="49.5" x2="38.1" y2="53.8"/>
	<line class="st1" x1="44.8" y1="48.9" x2="44.8" y2="54.4"/>
	<line class="st1" x1="46.5" y1="49" x2="46.5" y2="54.4"/>
	<line class="st1" x1="43.4" y1="49.9" x2="43.4" y2="54.3"/>
	<line class="st1" x1="26.4" y1="49" x2="26.4" y2="53.7"/>
	<line class="st1" x1="27.2" y1="49.1" x2="27.2" y2="53.6"/>
	<line class="st1" x1="28" y1="49.2" x2="28" y2="53.6"/>
	<line class="st1" x1="28.9" y1="49" x2="28.9" y2="53.7"/>
	<line class="st1" x1="24.8" y1="49.1" x2="24.8" y2="53.8"/>
	<line class="st1" x1="51.1" y1="54.1" x2="51.1" y2="48.9"/>
	<line class="st1" x1="53" y1="53.9" x2="53" y2="48.9"/>
	<line class="st1" x1="49.9" y1="54.2" x2="49.9" y2="48.8"/>
	<line class="st1" x1="49.1" y1="54.3" x2="49.1" y2="48.9"/>
	<line class="st1" x1="56.5" y1="54.1" x2="56.5" y2="48.9"/>
	<line class="st1" x1="58.4" y1="53.9" x2="58.4" y2="48.9"/>
	<line class="st1" x1="55.3" y1="54.2" x2="55.3" y2="48.8"/>
	<line class="st1" x1="54.5" y1="54.3" x2="54.5" y2="48.9"/>
	<line class="st1" x1="58.1" y1="62.1" x2="58.1" y2="65.2"/>
	<line class="st1" x1="2.8" y1="2.6" x2="2.8" y2="0"/>
	<line class="st1" x1="1.1" y1="2.6" x2="1.1" y2="0"/>
	<line class="st1" x1="3.6" y1="0" x2="3.6" y2="2.6"/>
	<line class="st0" x1="3.6" y1="2.6" x2="3.6" y2="2.6"/>
	<line class="st0" x1="4.3" y1="2.7" x2="4.3" y2="2.6"/>
	<line class="st1" x1="4.3" y1="2.6" x2="4.3" y2="0"/>
	<line class="st1" x1="5.3" y1="2.6" x2="5.3" y2="0"/>
	<line class="st1" x1="26.2" y1="3.1" x2="26.2" y2="0"/>
	<line class="st1" x1="27.1" y1="3.2" x2="27.1" y2="0"/>
	<line class="st0" x1="27.8" y1="3.2" x2="27.8" y2="3.2"/>
	<line class="st1" x1="27.8" y1="3.2" x2="27.8" y2="0"/>
	<line class="st1" x1="28.8" y1="3.1" x2="28.8" y2="0"/>
	<line class="st0" x1="7.6" y1="2.7" x2="7.6" y2="2.7"/>
	<line class="st1" x1="7.6" y1="2.7" x2="7.6" y2="0"/>
	<line class="st1" x1="9.5" y1="2.7" x2="9.5" y2="0"/>
	<line class="st1" x1="14.5" y1="2.7" x2="14.5" y2="0"/>
	<line class="st1" x1="19.2" y1="2.8" x2="19.2" y2="0"/>
	<line class="st1" x1="16.3" y1="2.9" x2="16.3" y2="0"/>
	<line class="st1" x1="18.3" y1="2.8" x2="18.3" y2="0"/>
	<line class="st1" x1="11.9" y1="2.7" x2="11.9" y2="0"/>
	<line class="st1" x1="21.5" y1="3" x2="21.5" y2="0"/>
	<line class="st1" x1="42.8" y1="3.1" x2="42.8" y2="0"/>
	<line class="st1" x1="45.6" y1="2.4" x2="45.6" y2="0"/>
	<line class="st1" x1="46.6" y1="2.2" x2="46.6" y2="0"/>
	<line class="st1" x1="41.3" y1="2.9" x2="41.3" y2="0"/>
	<line class="st1" x1="39" y1="3.2" x2="39" y2="0"/>
	<line class="st1" x1="51.5" y1="2.3" x2="51.5" y2="0"/>
	<line class="st1" x1="49.3" y1="2.3" x2="49.3" y2="0"/>
	<line class="st1" x1="48.3" y1="2.3" x2="48.3" y2="0"/>
	<line class="st0" x1="47.4" y1="2.6" x2="47.4" y2="2.7"/>
	<line class="st1" x1="47.4" y1="2.6" x2="47.4" y2="0"/>
	<line class="st1" x1="53.8" y1="2.3" x2="53.8" y2="0"/>
	<line class="st1" x1="55.5" y1="2.3" x2="55.5" y2="0"/>
	<line class="st0" x1="52.4" y1="2.5" x2="52.4" y2="2.5"/>
	<line class="st1" x1="52.4" y1="2.5" x2="52.4" y2="0"/>
	<line class="st1" x1="24.7" y1="3.1" x2="24.7" y2="0"/>
	<line class="st0" x1="24.7" y1="3.1" x2="24.7" y2="3.2"/>
	<line class="st1" x1="35.4" y1="3.4" x2="35.4" y2="0"/>
	<line class="st1" x1="36.2" y1="3.5" x2="36.2" y2="0"/>
	<line class="st1" x1="37" y1="3.5" x2="37" y2="0"/>
	<line class="st1" x1="37.9" y1="3.4" x2="37.9" y2="0"/>
	<line class="st1" x1="30.7" y1="3.3" x2="30.7" y2="0"/>
	<line class="st1" x1="33.8" y1="3.5" x2="33.8" y2="0"/>
	<line class="st1" x1="60.1" y1="2.5" x2="60.1" y2="0"/>
	<line class="st0" x1="60.1" y1="2.5" x2="60.1" y2="2.5"/>
	<line class="st0" x1="62" y1="2.6" x2="62" y2="2.5"/>
	<line class="st1" x1="62" y1="2.5" x2="62" y2="0"/>
	<line class="st1" x1="20.4" y1="2.5" x2="20.4" y2="0"/>
	<line class="st1" x1="14.5" y1="61.3" x2="14.5" y2="65.2"/>
	<line class="st1" x1="19.2" y1="61.1" x2="19.2" y2="65.2"/>
	<line class="st1" x1="16.3" y1="61.2" x2="16.3" y2="65.2"/>
	<line class="st1" x1="18.3" y1="61.1" x2="18.3" y2="65.2"/>
	<line class="st1" x1="21.5" y1="61.5" x2="21.5" y2="65.2"/>
	<line class="st1" x1="20.4" y1="60.8" x2="20.4" y2="65.2"/>
	<line class="st1" x1="58.9" y1="2.5" x2="58.9" y2="0"/>
	<line class="st1" x1="58.1" y1="2.5" x2="58.1" y2="0"/>
	<line class="st0" x1="58.1" y1="2.5" x2="58.1" y2="2.5"/>
	<line class="st1" x1="2.3" y1="30.6" x2="2.3" y2="22.5"/>
	<line class="st1" x1="0.7" y1="22.6" x2="0.7" y2="30.6"/>
	<line class="st1" x1="3.1" y1="30.7" x2="3.1" y2="22.5"/>
	<line class="st1" x1="3.9" y1="30.8" x2="3.9" y2="22.5"/>
	<line class="st1" x1="4.9" y1="30.6" x2="4.9" y2="22.5"/>
	<line class="st1" x1="25.8" y1="23.3" x2="25.8" y2="29.4"/>
	<line class="st1" x1="26.6" y1="23.4" x2="26.6" y2="29.5"/>
	<line class="st1" x1="27.4" y1="23.3" x2="27.4" y2="29.6"/>
	<line class="st1" x1="28.3" y1="23.3" x2="28.3" y2="29.4"/>
	<line class="st1" x1="7.9" y1="30.4" x2="7.9" y2="22.5"/>
	<line class="st1" x1="9.7" y1="30.4" x2="9.7" y2="22.4"/>
	<line class="st1" x1="14.8" y1="30.4" x2="14.8" y2="22.7"/>
	<line class="st1" x1="18.9" y1="30.3" x2="18.9" y2="22.7"/>
	<line class="st1" x1="16.6" y1="30.6" x2="16.6" y2="22.7"/>
	<line class="st1" x1="17.9" y1="30.2" x2="17.9" y2="22.6"/>
	<line class="st1" x1="12.2" y1="30.4" x2="12.2" y2="22"/>
	<line class="st1" x1="21.1" y1="30" x2="21.1" y2="23"/>
	<line class="st1" x1="42.4" y1="23.2" x2="42.4" y2="28.7"/>
	<line class="st1" x1="45.2" y1="29.1" x2="45.2" y2="23.1"/>
	<line class="st1" x1="46.2" y1="28.9" x2="46.2" y2="22.9"/>
	<line class="st1" x1="40.8" y1="23.1" x2="40.8" y2="28.6"/>
	<line class="st1" x1="38.6" y1="23" x2="38.6" y2="28.8"/>
	<line class="st0" x1="51.1" y1="29.9" x2="51.1" y2="30"/>
	<line class="st1" x1="51.1" y1="23.1" x2="51.1" y2="29.9"/>
	<line class="st1" x1="49.2" y1="29.3" x2="49.2" y2="23.4"/>
	<line class="st1" x1="48.4" y1="29" x2="48.4" y2="23.1"/>
	<line class="st1" x1="47.6" y1="29.3" x2="47.6" y2="23.3"/>
	<line class="st1" x1="47" y1="29.4" x2="47" y2="22.8"/>
	<line class="st1" x1="53.3" y1="30" x2="53.3" y2="23.3"/>
	<line class="st1" x1="55.1" y1="30" x2="55.1" y2="23.3"/>
	<line class="st1" x1="52" y1="23.2" x2="52" y2="30"/>
	<line class="st0" x1="52" y1="30" x2="52" y2="30.2"/>
	<line class="st1" x1="24.2" y1="23.3" x2="24.2" y2="29.5"/>
	<line class="st1" x1="34.9" y1="23" x2="34.9" y2="29"/>
	<line class="st1" x1="35.8" y1="22.9" x2="35.8" y2="29.1"/>
	<line class="st1" x1="36.5" y1="22.9" x2="36.5" y2="29.2"/>
	<line class="st1" x1="37.5" y1="23" x2="37.5" y2="29"/>
	<line class="st1" x1="19.3" y1="16.2" x2="19.3" y2="9.9"/>
	<line class="st1" x1="20.2" y1="16.2" x2="20.2" y2="10"/>
	<line class="st1" x1="20.8" y1="16.2" x2="20.8" y2="9.9"/>
	<line class="st1" x1="17.4" y1="15.8" x2="17.4" y2="10.6"/>
	<line class="st0" x1="23.4" y1="16.9" x2="23.4" y2="16.9"/>
	<line class="st1" x1="23.4" y1="16.9" x2="23.4" y2="9.7"/>
	<line class="st1" x1="21.6" y1="16" x2="21.6" y2="9.8"/>
	<line class="st1" x1="30.2" y1="23.3" x2="30.2" y2="29"/>
	<line class="st1" x1="33.4" y1="23" x2="33.4" y2="29.1"/>
	<line class="st1" x1="59.6" y1="30.3" x2="59.6" y2="22.6"/>
	<line class="st1" x1="61.6" y1="31" x2="61.6" y2="22.5"/>
	<line class="st1" x1="19.8" y1="30.1" x2="19.8" y2="22.9"/>
	<line class="st1" x1="1.4" y1="16.6" x2="1.4" y2="10.4"/>
	<line class="st1" x1="3.2" y1="16.6" x2="3.2" y2="10.4"/>
	<line class="st1" x1="6.6" y1="16.6" x2="6.6" y2="10.4"/>
	<line class="st0" x1="7.2" y1="10" x2="7.2" y2="9.7"/>
	<line class="st1" x1="7.2" y1="10" x2="7.2" y2="16.5"/>
	<line class="st1" x1="5.7" y1="16.6" x2="5.7" y2="10.4"/>
	<line class="st1" x1="15.6" y1="16.4" x2="15.6" y2="10.7"/>
	<line class="st1" x1="13.7" y1="16.4" x2="13.7" y2="10.8"/>
	<line class="st1" x1="11.5" y1="16.4" x2="11.5" y2="10.5"/>
	<line class="st1" x1="9.2" y1="16.1" x2="9.2" y2="10.2"/>
	<line class="st1" x1="8.4" y1="16.4" x2="8.4" y2="10.5"/>
	<line class="st1" x1="61.7" y1="9.6" x2="61.7" y2="16.8"/>
	<line class="st0" x1="61.7" y1="9.6" x2="61.7" y2="9.4"/>
	<line class="st1" x1="60.9" y1="10.1" x2="60.9" y2="16.7"/>
	<line class="st0" x1="60.2" y1="16.9" x2="60.2" y2="16.9"/>
	<line class="st1" x1="60.2" y1="16.9" x2="60.2" y2="10.1"/>
	<line class="st1" x1="63.7" y1="16.5" x2="63.7" y2="9.9"/>
	<line class="st1" x1="62.9" y1="10.2" x2="62.9" y2="16.8"/>
	<line class="st1" x1="14.7" y1="16.4" x2="14.7" y2="10.6"/>
	<line class="st1" x1="58.4" y1="30.2" x2="58.4" y2="22.8"/>
	<line class="st1" x1="33.4" y1="16.7" x2="33.4" y2="9.6"/>
	<line class="st1" x1="36.2" y1="16.3" x2="36.2" y2="9.2"/>
	<line class="st1" x1="31.8" y1="16.7" x2="31.8" y2="9.4"/>
	<line class="st1" x1="29.6" y1="16.5" x2="29.6" y2="9.6"/>
	<line class="st1" x1="42.1" y1="16.7" x2="42.1" y2="9.4"/>
	<line class="st1" x1="41.3" y1="9.4" x2="41.3" y2="16.6"/>
	<line class="st1" x1="40.4" y1="16.6" x2="40.4" y2="9.4"/>
	<line class="st1" x1="38.5" y1="16.5" x2="38.5" y2="9.4"/>
	<line class="st1" x1="37.6" y1="9.6" x2="37.6" y2="16.3"/>
	<line class="st1" x1="44.3" y1="9.7" x2="44.3" y2="16.5"/>
	<line class="st1" x1="46.1" y1="9.7" x2="46.1" y2="16.5"/>
	<line class="st1" x1="43" y1="9.6" x2="43" y2="16.8"/>
	<line class="st1" x1="25.9" y1="16.5" x2="25.9" y2="9.4"/>
	<line class="st1" x1="26.8" y1="16.4" x2="26.8" y2="9.5"/>
	<line class="st1" x1="27.5" y1="16.4" x2="27.5" y2="9.6"/>
	<line class="st1" x1="28.5" y1="16.5" x2="28.5" y2="9.4"/>
	<line class="st1" x1="24.4" y1="16.3" x2="24.4" y2="9.5"/>
	<line class="st1" x1="50.6" y1="9.6" x2="50.6" y2="16.6"/>
	<line class="st1" x1="52.6" y1="9.7" x2="52.6" y2="16.4"/>
	<line class="st1" x1="49.4" y1="9.6" x2="49.4" y2="16.7"/>
	<line class="st1" x1="48.6" y1="16.8" x2="48.6" y2="9.6"/>
	<line class="st1" x1="56" y1="9.6" x2="56" y2="16.6"/>
	<line class="st1" x1="58" y1="16.4" x2="58" y2="9.7"/>
	<line class="st1" x1="54.8" y1="9.6" x2="54.8" y2="16.7"/>
	<line class="st1" x1="54" y1="9.6" x2="54" y2="16.8"/>
	<line class="st1" x1="19.3" y1="35.5" x2="19.3" y2="41.4"/>
	<line class="st1" x1="19.9" y1="35.5" x2="19.9" y2="41.4"/>
	<line class="st1" x1="20.8" y1="35.5" x2="20.8" y2="41.5"/>
	<line class="st1" x1="17.4" y1="35.6" x2="17.4" y2="41.8"/>
	<line class="st1" x1="23.4" y1="35.7" x2="23.4" y2="41.5"/>
	<line class="st1" x1="21.6" y1="35.5" x2="21.6" y2="41.2"/>
	<line class="st1" x1="1.4" y1="36.1" x2="1.4" y2="41.9"/>
	<line class="st1" x1="3.2" y1="41.9" x2="3.2" y2="36.1"/>
	<line class="st0" x1="7.2" y1="42.4" x2="7.2" y2="42.5"/>
	<line class="st1" x1="7.2" y1="42.4" x2="7.2" y2="36.1"/>
	<line class="st1" x1="6.4" y1="36.3" x2="6.4" y2="41.9"/>
	<line class="st1" x1="5.7" y1="36.1" x2="5.7" y2="41.9"/>
	<line class="st1" x1="15.6" y1="36" x2="15.6" y2="41.7"/>
	<line class="st1" x1="13.7" y1="36.1" x2="13.7" y2="41.7"/>
	<line class="st1" x1="11.5" y1="35.8" x2="11.5" y2="41.7"/>
	<line class="st1" x1="9.2" y1="35.9" x2="9.2" y2="42.1"/>
	<line class="st1" x1="8.4" y1="36.2" x2="8.4" y2="42.4"/>
	<line class="st1" x1="61.7" y1="35.7" x2="61.7" y2="41.8"/>
	<line class="st1" x1="60.9" y1="36" x2="60.9" y2="41.3"/>
	<line class="st1" x1="60.2" y1="36.4" x2="60.2" y2="41.9"/>
	<line class="st1" x1="63.7" y1="41.4" x2="63.7" y2="36.2"/>
	<line class="st1" x1="62.9" y1="36.5" x2="62.9" y2="41.7"/>
	<line class="st1" x1="14.7" y1="35.9" x2="14.7" y2="41.7"/>
	<line class="st1" x1="33.4" y1="35.9" x2="33.4" y2="42"/>
	<line class="st1" x1="36.2" y1="35.5" x2="36.2" y2="41.6"/>
	<line class="st1" x1="31.8" y1="35.7" x2="31.8" y2="42"/>
	<line class="st1" x1="29.6" y1="41.8" x2="29.6" y2="35.6"/>
	<line class="st0" x1="29.6" y1="41.8" x2="29.6" y2="41.8"/>
	<line class="st1" x1="42.1" y1="42" x2="42.1" y2="35.7"/>
	<line class="st1" x1="41.3" y1="41.9" x2="41.3" y2="35.7"/>
	<line class="st1" x1="39.5" y1="35.8" x2="39.5" y2="41.8"/>
	<line class="st1" x1="38.5" y1="35.7" x2="38.5" y2="41.8"/>
	<line class="st1" x1="37.6" y1="35.9" x2="37.6" y2="41.6"/>
	<line class="st1" x1="44.3" y1="41.1" x2="44.3" y2="36"/>
	<line class="st1" x1="46.1" y1="41.1" x2="46.1" y2="36.1"/>
	<line class="st1" x1="43" y1="42.1" x2="43" y2="35.9"/>
	<line class="st0" x1="25.9" y1="41.7" x2="25.9" y2="41.8"/>
	<line class="st1" x1="25.9" y1="41.7" x2="25.9" y2="35.4"/>
	<line class="st1" x1="26.8" y1="35.5" x2="26.8" y2="41.7"/>
	<line class="st0" x1="26.8" y1="41.7" x2="26.8" y2="41.7"/>
	<line class="st1" x1="27.5" y1="41.7" x2="27.5" y2="35.6"/>
	<line class="st0" x1="28.5" y1="41.8" x2="28.5" y2="41.8"/>
	<line class="st1" x1="28.5" y1="35.4" x2="28.5" y2="41.8"/>
	<line class="st1" x1="24.4" y1="35.5" x2="24.4" y2="41.5"/>
	<line class="st1" x1="50.6" y1="36" x2="50.6" y2="41.6"/>
	<line class="st0" x1="50.6" y1="41.6" x2="50.6" y2="41.8"/>
	<line class="st1" x1="52.6" y1="36" x2="52.6" y2="41.7"/>
	<line class="st1" x1="49.4" y1="41.3" x2="49.4" y2="35.9"/>
	<line class="st1" x1="48.6" y1="41.4" x2="48.6" y2="35.9"/>
	<line class="st1" x1="56" y1="36" x2="56" y2="42.2"/>
	<line class="st1" x1="58" y1="36" x2="58" y2="42"/>
	<line class="st1" x1="54.8" y1="35.9" x2="54.8" y2="42"/>
	<line class="st1" x1="54" y1="35.9" x2="54" y2="42.1"/>
	<line class="st1" x1="57.6" y1="30.2" x2="57.6" y2="22.9"/>
	<line class="st1" x1="64.6" y1="30.3" x2="64.6" y2="22.6"/>
	<line class="st1" x1="63.4" y1="30.2" x2="63.4" y2="22.8"/>
	<line class="st1" x1="62.6" y1="30.2" x2="62.6" y2="22.9"/>
	<line class="st1" x1="6.5" y1="30.6" x2="6.5" y2="22.7"/>
	<line class="st1" x1="30.5" y1="54.5" x2="30.5" y2="60.8"/>
	<line class="st1" x1="31.3" y1="54.5" x2="31.3" y2="60.9"/>
	<line class="st1" x1="32.1" y1="54.7" x2="32.1" y2="60.9"/>
	<line class="st1" x1="33.1" y1="54.5" x2="33.1" y2="60.9"/>
	<line class="st1" x1="28.9" y1="54.6" x2="28.9" y2="60.8"/>
	<line class="st1" x1="34.9" y1="54.8" x2="34.9" y2="60.6"/>
	<line class="st1" x1="13.2" y1="55.8" x2="13.2" y2="60.3"/>
	<line class="st1" x1="14.8" y1="55.8" x2="14.8" y2="60.2"/>
	<line class="st1" x1="19.9" y1="55.1" x2="19.9" y2="60.2"/>
	<line class="st1" x1="22.9" y1="54.4" x2="22.9" y2="60.8"/>
	<line class="st1" x1="21.7" y1="54.9" x2="21.7" y2="60.8"/>
	<line class="st1" x1="9.3" y1="56" x2="9.3" y2="60.4"/>
	<line class="st1" x1="12.4" y1="55.7" x2="12.4" y2="60.4"/>
	<line class="st1" x1="11.1" y1="56.2" x2="11.1" y2="60.4"/>
	<line class="st1" x1="17.2" y1="55.1" x2="17.2" y2="60.2"/>
	<line class="st1" x1="26.8" y1="54.7" x2="26.8" y2="61.1"/>
	<line class="st1" x1="25.3" y1="54.8" x2="25.3" y2="61"/>
	<line class="st1" x1="26.2" y1="54.6" x2="26.2" y2="61.1"/>
	<line class="st0" x1="44.9" y1="61" x2="44.9" y2="61.1"/>
	<line class="st1" x1="44.9" y1="61" x2="44.9" y2="54.9"/>
	<line class="st1" x1="47.7" y1="55.3" x2="47.7" y2="61"/>
	<line class="st1" x1="43.4" y1="61" x2="43.4" y2="54.8"/>
	<line class="st1" x1="41.1" y1="55" x2="41.1" y2="60.9"/>
	<line class="st1" x1="53.2" y1="55.1" x2="53.2" y2="61.1"/>
	<line class="st1" x1="52.6" y1="55.1" x2="52.6" y2="61"/>
	<line class="st1" x1="51.8" y1="55.1" x2="51.8" y2="60.9"/>
	<line class="st1" x1="51" y1="55.1" x2="51" y2="61.2"/>
	<line class="st1" x1="49.2" y1="54.9" x2="49.2" y2="61"/>
	<line class="st1" x1="55.9" y1="55.1" x2="55.9" y2="61.2"/>
	<line class="st1" x1="57.6" y1="55.1" x2="57.6" y2="61.2"/>
	<line class="st1" x1="54.2" y1="55.3" x2="54.2" y2="61.1"/>
	<line class="st1" x1="0.7" y1="55.7" x2="0.7" y2="60.3"/>
	<line class="st1" x1="6.6" y1="55.8" x2="6.6" y2="60.4"/>
	<line class="st1" x1="5.8" y1="55.8" x2="5.8" y2="60.3"/>
	<line class="st1" x1="4.9" y1="55.8" x2="4.9" y2="60.3"/>
	<line class="st1" x1="4.1" y1="56.2" x2="4.1" y2="60.6"/>
	<line class="st1" x1="3" y1="56.1" x2="3" y2="60.5"/>
	<line class="st1" x1="2.2" y1="56" x2="2.2" y2="60.3"/>
	<line class="st1" x1="7.5" y1="56" x2="7.5" y2="60.4"/>
	<line class="st1" x1="37.5" y1="60.8" x2="37.5" y2="54.5"/>
	<line class="st0" x1="37.5" y1="60.8" x2="37.5" y2="60.9"/>
	<line class="st1" x1="38.3" y1="54.9" x2="38.3" y2="60.8"/>
	<line class="st1" x1="39.1" y1="55" x2="39.1" y2="60.8"/>
	<line class="st1" x1="40" y1="54.8" x2="40" y2="60.9"/>
	<line class="st0" x1="35.9" y1="60.8" x2="35.9" y2="60.9"/>
	<line class="st1" x1="35.9" y1="60.8" x2="35.9" y2="54.5"/>
	<line class="st0" x1="62.2" y1="55" x2="62.2" y2="55"/>
	<line class="st1" x1="62.2" y1="55" x2="62.2" y2="60.9"/>
	<line class="st0" x1="64.1" y1="55.1" x2="64.1" y2="55"/>
	<line class="st1" x1="64.1" y1="55.1" x2="64.1" y2="60.7"/>
	<line class="st1" x1="61" y1="55" x2="61" y2="61"/>
	<line class="st0" x1="61" y1="55" x2="61" y2="55"/>
	<line class="st1" x1="60.2" y1="55" x2="60.2" y2="61.1"/>
	<line class="st1" x1="30.1" y1="17.4" x2="30.1" y2="21.9"/>
	<line class="st1" x1="30.9" y1="17.4" x2="30.9" y2="22"/>
	<line class="st1" x1="31.6" y1="17.5" x2="31.6" y2="22"/>
	<line class="st1" x1="32.6" y1="17.4" x2="32.6" y2="22"/>
	<line class="st1" x1="28.5" y1="21.9" x2="28.5" y2="17.5"/>
	<line class="st1" x1="34.5" y1="17.3" x2="34.5" y2="21.7"/>
	<line class="st1" x1="12.8" y1="16.9" x2="12.8" y2="21.7"/>
	<line class="st1" x1="14.3" y1="17.2" x2="14.3" y2="21.7"/>
	<line class="st1" x1="19.4" y1="16.9" x2="19.4" y2="22.3"/>
	<line class="st1" x1="22.5" y1="16.9" x2="22.5" y2="22.3"/>
	<line class="st1" x1="21.2" y1="17.4" x2="21.2" y2="22.3"/>
	<line class="st1" x1="8.9" y1="22.2" x2="8.9" y2="16.8"/>
	<line class="st1" x1="12" y1="16.8" x2="12" y2="21.8"/>
	<line class="st1" x1="10.7" y1="22.1" x2="10.7" y2="16.9"/>
	<line class="st0" x1="10.7" y1="22.1" x2="10.7" y2="22.1"/>
	<line class="st1" x1="16.8" y1="16.5" x2="16.8" y2="21.7"/>
	<line class="st1" x1="26.4" y1="22.2" x2="26.4" y2="17.5"/>
	<line class="st1" x1="24.8" y1="22.1" x2="24.8" y2="17.6"/>
	<line class="st1" x1="25.8" y1="22.2" x2="25.8" y2="17.5"/>
	<line class="st1" x1="44.5" y1="17.1" x2="44.5" y2="21.5"/>
	<line class="st1" x1="47.3" y1="17.4" x2="47.3" y2="21.4"/>
	<line class="st0" x1="42.9" y1="22.1" x2="42.9" y2="22.1"/>
	<line class="st1" x1="42.9" y1="22.1" x2="42.9" y2="16.9"/>
	<line class="st1" x1="40.7" y1="17.5" x2="40.7" y2="22"/>
	<line class="st1" x1="53" y1="17.4" x2="53" y2="21.5"/>
	<line class="st1" x1="52.2" y1="17.3" x2="52.2" y2="21.4"/>
	<line class="st1" x1="51.3" y1="17.3" x2="51.3" y2="21.3"/>
	<line class="st1" x1="50.6" y1="17.2" x2="50.6" y2="21.6"/>
	<line class="st1" x1="48.7" y1="17.1" x2="48.7" y2="21.4"/>
	<line class="st1" x1="55.4" y1="17.2" x2="55.4" y2="21.6"/>
	<line class="st1" x1="57.2" y1="17.2" x2="57.2" y2="21.6"/>
	<line class="st1" x1="53.7" y1="17.4" x2="53.7" y2="21.5"/>
	<line class="st1" x1="6.2" y1="22.2" x2="6.2" y2="16.9"/>
	<line class="st1" x1="5.4" y1="22.1" x2="5.4" y2="16.9"/>
	<line class="st1" x1="4.5" y1="22.1" x2="4.5" y2="16.9"/>
	<line class="st1" x1="3.6" y1="21.3" x2="3.6" y2="17.3"/>
	<line class="st1" x1="2.6" y1="21.9" x2="2.6" y2="16.9"/>
	<line class="st1" x1="1.7" y1="21.8" x2="1.7" y2="16.7"/>
	<line class="st1" x1="7.1" y1="22.2" x2="7.1" y2="17.1"/>
	<line class="st1" x1="37" y1="17" x2="37" y2="22"/>
	<line class="st1" x1="37.9" y1="17.4" x2="37.9" y2="21.9"/>
	<line class="st1" x1="38.6" y1="17.5" x2="38.6" y2="21.9"/>
	<line class="st1" x1="39.6" y1="17.3" x2="39.6" y2="22"/>
	<line class="st1" x1="35.5" y1="17" x2="35.5" y2="22"/>
	<line class="st1" x1="61.7" y1="17.1" x2="61.7" y2="21.3"/>
	<line class="st1" x1="63.7" y1="17.2" x2="63.7" y2="22.2"/>
	<line class="st1" x1="60.5" y1="17.1" x2="60.5" y2="21.4"/>
	<line class="st1" x1="59.7" y1="17.1" x2="59.7" y2="21.5"/>
	<line class="st1" x1="31.1" y1="3.7" x2="31.1" y2="8.6"/>
	<line class="st1" x1="31.9" y1="3.8" x2="31.9" y2="8.7"/>
	<line class="st1" x1="32.6" y1="3.9" x2="32.6" y2="8.7"/>
	<line class="st1" x1="33.6" y1="8.7" x2="33.6" y2="3.7"/>
	<line class="st1" x1="29.5" y1="3.8" x2="29.5" y2="8.6"/>
	<line class="st1" x1="35.5" y1="8.4" x2="35.5" y2="4"/>
	<line class="st1" x1="13.8" y1="2.9" x2="13.8" y2="9.5"/>
	<line class="st1" x1="15.3" y1="2.9" x2="15.3" y2="9.4"/>
	<line class="st1" x1="20.4" y1="3.2" x2="20.4" y2="9"/>
	<line class="st1" x1="23.5" y1="3.6" x2="23.5" y2="8.6"/>
	<line class="st0" x1="22.2" y1="3.1" x2="22.2" y2="3.1"/>
	<line class="st1" x1="22.2" y1="3.1" x2="22.2" y2="9"/>
	<line class="st1" x1="9.9" y1="3.1" x2="9.9" y2="9.6"/>
	<line class="st1" x1="13" y1="2.8" x2="13" y2="9.5"/>
	<line class="st1" x1="11.7" y1="3.3" x2="11.7" y2="9.5"/>
	<line class="st1" x1="17.8" y1="3.2" x2="17.8" y2="9.4"/>
	<line class="st1" x1="27.4" y1="3.9" x2="27.4" y2="8.9"/>
	<line class="st1" x1="25.8" y1="4" x2="25.8" y2="8.8"/>
	<line class="st1" x1="26.8" y1="3.8" x2="26.8" y2="8.9"/>
	<line class="st1" x1="45.5" y1="3.1" x2="45.5" y2="8.9"/>
	<line class="st1" x1="48.3" y1="9.2" x2="48.3" y2="3.1"/>
	<line class="st0" x1="43.9" y1="3.1" x2="43.9" y2="2.9"/>
	<line class="st1" x1="43.9" y1="3.1" x2="43.9" y2="8.8"/>
	<line class="st1" x1="41.7" y1="9" x2="41.7" y2="4.2"/>
	<line class="st1" x1="53.9" y1="9.1" x2="53.9" y2="2.8"/>
	<line class="st1" x1="53.2" y1="9.1" x2="53.2" y2="2.9"/>
	<line class="st1" x1="52.3" y1="9" x2="52.3" y2="3"/>
	<line class="st1" x1="51.6" y1="9.2" x2="51.6" y2="2.9"/>
	<line class="st0" x1="51.6" y1="9.3" x2="51.6" y2="9.2"/>
	<line class="st1" x1="49.7" y1="9.2" x2="49.7" y2="2.7"/>
	<line class="st1" x1="56.4" y1="9.3" x2="56.4" y2="2.9"/>
	<line class="st0" x1="56.4" y1="9.3" x2="56.4" y2="9.3"/>
	<line class="st1" x1="58.2" y1="9.3" x2="58.2" y2="2.9"/>
	<line class="st0" x1="54.7" y1="9.3" x2="54.7" y2="9.2"/>
	<line class="st1" x1="54.7" y1="9.2" x2="54.7" y2="3.1"/>
	<line class="st1" x1="1.3" y1="2.8" x2="1.3" y2="9.5"/>
	<line class="st1" x1="7.2" y1="9.6" x2="7.2" y2="2.9"/>
	<line class="st1" x1="6.4" y1="9.5" x2="6.4" y2="2.9"/>
	<line class="st1" x1="5.5" y1="9.5" x2="5.5" y2="3"/>
	<line class="st1" x1="4.6" y1="9.7" x2="4.6" y2="3.3"/>
	<line class="st1" x1="3.6" y1="3.2" x2="3.6" y2="9.7"/>
	<line class="st1" x1="2.7" y1="3.1" x2="2.7" y2="9.5"/>
	<line class="st1" x1="8.1" y1="3.1" x2="8.1" y2="9.6"/>
	<line class="st1" x1="38" y1="8.7" x2="38" y2="3.7"/>
	<line class="st0" x1="38.9" y1="8.9" x2="38.9" y2="8.9"/>
	<line class="st1" x1="38.9" y1="8.9" x2="38.9" y2="4.1"/>
	<line class="st1" x1="39.6" y1="8.9" x2="39.6" y2="4.2"/>
	<line class="st1" x1="40.6" y1="9" x2="40.6" y2="4"/>
	<line class="st1" x1="36.5" y1="8.7" x2="36.5" y2="3.7"/>
	<line class="st0" x1="36.5" y1="8.7" x2="36.5" y2="8.7"/>
	<line class="st1" x1="62.7" y1="2.8" x2="62.7" y2="9"/>
	<line class="st1" x1="64.7" y1="2.8" x2="64.7" y2="8.9"/>
	<line class="st1" x1="61.5" y1="9.2" x2="61.5" y2="2.8"/>
	<line class="st1" x1="60.7" y1="9.3" x2="60.7" y2="2.8"/>
	<line class="st1" x1="30.1" y1="42.7" x2="30.1" y2="48.3"/>
	<line class="st1" x1="30.8" y1="42.7" x2="30.8" y2="48.4"/>
	<line class="st1" x1="31.6" y1="42.8" x2="31.6" y2="48.3"/>
	<line class="st1" x1="32.6" y1="42.7" x2="32.6" y2="48.3"/>
	<line class="st1" x1="28.5" y1="42.4" x2="28.5" y2="48.3"/>
	<line class="st1" x1="34.5" y1="43.6" x2="34.5" y2="48"/>
	<line class="st1" x1="12.5" y1="42.9" x2="12.5" y2="48.1"/>
	<line class="st1" x1="14.3" y1="42.5" x2="14.3" y2="48"/>
	<line class="st1" x1="19.4" y1="42.2" x2="19.4" y2="48"/>
	<line class="st1" x1="22.5" y1="42.2" x2="22.5" y2="48.5"/>
	<line class="st0" x1="22.5" y1="48.6" x2="22.5" y2="48.5"/>
	<line class="st0" x1="21.2" y1="48.5" x2="21.2" y2="48.6"/>
	<line class="st1" x1="21.2" y1="48.5" x2="21.2" y2="42.7"/>
	<line class="st1" x1="8.9" y1="43.1" x2="8.9" y2="47.5"/>
	<line class="st1" x1="12" y1="42.8" x2="12" y2="47.8"/>
	<line class="st1" x1="10.7" y1="42.9" x2="10.7" y2="47.8"/>
	<line class="st1" x1="16.8" y1="42.9" x2="16.8" y2="48"/>
	<line class="st1" x1="26.4" y1="42.1" x2="26.4" y2="48.5"/>
	<line class="st1" x1="24.8" y1="42.2" x2="24.8" y2="48.5"/>
	<line class="st1" x1="25.8" y1="48.5" x2="25.8" y2="42.1"/>
	<line class="st1" x1="44.5" y1="43.4" x2="44.5" y2="47.8"/>
	<line class="st1" x1="47.3" y1="42.4" x2="47.3" y2="47.7"/>
	<line class="st1" x1="42.9" y1="43.2" x2="42.9" y2="48.4"/>
	<line class="st1" x1="40.7" y1="43.1" x2="40.7" y2="48.3"/>
	<line class="st1" x1="52.9" y1="43.2" x2="52.9" y2="47.4"/>
	<line class="st1" x1="52.2" y1="42.5" x2="52.2" y2="47.7"/>
	<line class="st1" x1="51.3" y1="42.6" x2="51.3" y2="47.6"/>
	<line class="st1" x1="50.6" y1="42.5" x2="50.6" y2="47.9"/>
	<line class="st1" x1="48.7" y1="42.3" x2="48.7" y2="47.7"/>
	<line class="st1" x1="55.4" y1="42.8" x2="55.4" y2="47.9"/>
	<line class="st1" x1="57.2" y1="42.9" x2="57.2" y2="47.9"/>
	<line class="st1" x1="53.7" y1="43.1" x2="53.7" y2="47.8"/>
	<line class="st1" x1="6.2" y1="42.5" x2="6.2" y2="47.4"/>
	<line class="st1" x1="5.4" y1="42.5" x2="5.4" y2="47.4"/>
	<line class="st1" x1="4.5" y1="42.6" x2="4.5" y2="47.4"/>
	<line class="st1" x1="3.6" y1="42.9" x2="3.6" y2="47.6"/>
	<line class="st0" x1="2.6" y1="48" x2="2.6" y2="48.3"/>
	<line class="st1" x1="2.6" y1="48" x2="2.6" y2="42.5"/>
	<line class="st0" x1="1.7" y1="48" x2="1.7" y2="48.1"/>
	<line class="st1" x1="1.7" y1="42.4" x2="1.7" y2="48"/>
	<line class="st1" x1="7.1" y1="42.7" x2="7.1" y2="47.5"/>
	<line class="st1" x1="37" y1="43.3" x2="37" y2="48.3"/>
	<line class="st1" x1="37.9" y1="43.7" x2="37.9" y2="48.2"/>
	<line class="st1" x1="38.6" y1="43.1" x2="38.6" y2="48.2"/>
	<line class="st1" x1="39.6" y1="42.9" x2="39.6" y2="48.3"/>
	<line class="st1" x1="35.5" y1="43.4" x2="35.5" y2="48.4"/>
	<line class="st1" x1="61.7" y1="42.4" x2="61.7" y2="47.6"/>
	<line class="st1" x1="63.7" y1="42.5" x2="63.7" y2="47.5"/>
	<line class="st1" x1="60.5" y1="42.7" x2="60.5" y2="47.8"/>
	<line class="st1" x1="59.7" y1="42.7" x2="59.7" y2="47.8"/>
	<line class="st1" x1="31.1" y1="34.6" x2="31.1" y2="29.7"/>
	<line class="st1" x1="31.9" y1="34.6" x2="31.9" y2="29.7"/>
	<line class="st1" x1="32.6" y1="34.8" x2="32.6" y2="29.8"/>
	<line class="st1" x1="33.6" y1="34.7" x2="33.6" y2="29.7"/>
	<line class="st1" x1="29.5" y1="34.6" x2="29.5" y2="29.8"/>
	<line class="st1" x1="35.5" y1="29.9" x2="35.5" y2="34.3"/>
	<line class="st1" x1="13.8" y1="31.3" x2="13.8" y2="34.8"/>
	<line class="st1" x1="15.3" y1="31.3" x2="15.3" y2="34.7"/>
	<line class="st0" x1="20.4" y1="34.9" x2="20.4" y2="35"/>
	<line class="st1" x1="20.4" y1="30.6" x2="20.4" y2="34.9"/>
	<line class="st1" x1="23.5" y1="29.9" x2="23.5" y2="34.6"/>
	<line class="st1" x1="22.2" y1="34.9" x2="22.2" y2="30.4"/>
	<line class="st1" x1="9.9" y1="35.6" x2="9.9" y2="31.2"/>
	<line class="st0" x1="9.9" y1="31.2" x2="9.9" y2="31.2"/>
	<line class="st1" x1="13" y1="34.8" x2="13" y2="31.2"/>
	<line class="st0" x1="13" y1="31.2" x2="13" y2="31.2"/>
	<line class="st1" x1="11.7" y1="31.3" x2="11.7" y2="35.5"/>
	<line class="st1" x1="17.8" y1="34.7" x2="17.8" y2="30.8"/>
	<line class="st0" x1="17.8" y1="30.8" x2="17.8" y2="30.6"/>
	<line class="st1" x1="27.4" y1="34.9" x2="27.4" y2="29.9"/>
	<line class="st1" x1="25.8" y1="34.8" x2="25.8" y2="29.9"/>
	<line class="st1" x1="26.8" y1="34.9" x2="26.8" y2="29.8"/>
	<line class="st1" x1="45.5" y1="30.4" x2="45.5" y2="34.9"/>
	<line class="st1" x1="48.3" y1="30.4" x2="48.3" y2="34.4"/>
	<line class="st1" x1="43.9" y1="30.3" x2="43.9" y2="34.8"/>
	<line class="st1" x1="41.7" y1="30.2" x2="41.7" y2="35"/>
	<line class="st1" x1="54" y1="30.7" x2="54" y2="34.8"/>
	<line class="st1" x1="53.2" y1="30.6" x2="53.2" y2="34.7"/>
	<line class="st1" x1="52.4" y1="30.5" x2="52.4" y2="34.5"/>
	<line class="st1" x1="51.5" y1="30.3" x2="51.5" y2="34.6"/>
	<line class="st1" x1="49.7" y1="30.1" x2="49.7" y2="34.4"/>
	<line class="st1" x1="56.4" y1="30.9" x2="56.4" y2="35.3"/>
	<line class="st1" x1="58.2" y1="31" x2="58.2" y2="35.3"/>
	<line class="st1" x1="54.7" y1="30.8" x2="54.7" y2="34.9"/>
	<line class="st1" x1="1.3" y1="35.5" x2="1.3" y2="31.5"/>
	<line class="st1" x1="7.2" y1="35.5" x2="7.2" y2="31.1"/>
	<line class="st0" x1="7.2" y1="31.1" x2="7.2" y2="31"/>
	<line class="st0" x1="6.4" y1="31.1" x2="6.4" y2="31"/>
	<line class="st1" x1="6.4" y1="35.5" x2="6.4" y2="31.1"/>
	<line class="st1" x1="5.5" y1="31" x2="5.5" y2="35.5"/>
	<line class="st0" x1="5.5" y1="31" x2="5.5" y2="31"/>
	<line class="st0" x1="4.6" y1="35.7" x2="4.6" y2="35.7"/>
	<line class="st1" x1="4.6" y1="35.7" x2="4.6" y2="31.4"/>
	<line class="st0" x1="3.6" y1="35.6" x2="3.6" y2="35.6"/>
	<line class="st1" x1="3.6" y1="35.6" x2="3.6" y2="31.3"/>
	<line class="st1" x1="2.7" y1="35.5" x2="2.7" y2="31.1"/>
	<line class="st1" x1="8.1" y1="31.2" x2="8.1" y2="35.6"/>
	<line class="st1" x1="38" y1="29.6" x2="38" y2="34.6"/>
	<line class="st1" x1="39.6" y1="34.9" x2="39.6" y2="30.1"/>
	<line class="st1" x1="40.6" y1="30" x2="40.6" y2="35"/>
	<line class="st1" x1="36.5" y1="29.7" x2="36.5" y2="34.7"/>
	<line class="st1" x1="62.7" y1="31.1" x2="62.7" y2="35"/>
	<line class="st0" x1="62.7" y1="30.9" x2="62.7" y2="31.1"/>
	<line class="st0" x1="64.7" y1="31.1" x2="64.7" y2="30.9"/>
	<line class="st1" x1="64.7" y1="31.1" x2="64.7" y2="34.9"/>
	<line class="st1" x1="61.5" y1="31" x2="61.5" y2="35.2"/>
	<line class="st0" x1="61.5" y1="30.8" x2="61.5" y2="31"/>
	<line class="st0" x1="60.7" y1="30.8" x2="60.7" y2="30.9"/>
	<line class="st1" x1="60.7" y1="30.9" x2="60.7" y2="35.2"/>
	<line class="st1" x1="0.3" y1="42.1" x2="0.3" y2="47.8"/>
</g>
</svg>
