<?xml version="1.0" encoding="utf-8"?>
<!-- Generator: Adobe Illustrator 23.0.1, SVG Export Plug-In . SVG Version: 6.00 Build 0)  -->
<svg version="1.1" id="Layer_1" xmlns="http://www.w3.org/2000/svg" xmlns:xlink="http://www.w3.org/1999/xlink" x="0px" y="0px"
	 viewBox="0 0 80.6 80.5" style="enable-background:new 0 0 80.6 80.5;" xml:space="preserve">
<style type="text/css">
	.st0{fill:none;stroke:#000000;stroke-width:0.3;}
</style>
<g>
	<line class="st0" x1="8.6" y1="3.4" x2="11.4" y2="3.4"/>
	<line class="st0" x1="10" y1="1.9" x2="10" y2="4.9"/>
	<line class="st0" x1="8.6" y1="16.7" x2="11.4" y2="16.7"/>
	<line class="st0" x1="10" y1="15.2" x2="10" y2="18.2"/>
	<line class="st0" x1="22" y1="16.7" x2="24.9" y2="16.7"/>
	<line class="st0" x1="23.4" y1="15.2" x2="23.4" y2="18.2"/>
	<line class="st0" x1="35.5" y1="16.7" x2="38.3" y2="16.7"/>
	<line class="st0" x1="36.8" y1="15.2" x2="36.8" y2="18.2"/>
	<line class="st0" x1="35.5" y1="3.4" x2="38.3" y2="3.4"/>
	<line class="st0" x1="36.8" y1="1.9" x2="36.8" y2="4.9"/>
	<line class="st0" x1="22.1" y1="3.4" x2="24.9" y2="3.4"/>
	<line class="st0" x1="23.4" y1="1.9" x2="23.4" y2="4.9"/>
	<line class="st0" x1="28.8" y1="10.1" x2="31.6" y2="10.1"/>
	<line class="st0" x1="30.1" y1="8.6" x2="30.1" y2="11.6"/>
	<line class="st0" x1="2" y1="10" x2="4.8" y2="10"/>
	<line class="st0" x1="3.4" y1="8.5" x2="3.4" y2="11.5"/>
	<line class="st0" x1="15.4" y1="10" x2="18.2" y2="10"/>
	<line class="st0" x1="16.8" y1="8.5" x2="16.8" y2="11.5"/>
	<line class="st0" x1="8.6" y1="30.1" x2="11.4" y2="30.1"/>
	<line class="st0" x1="10" y1="28.6" x2="10" y2="31.6"/>
	<line class="st0" x1="35.5" y1="30.2" x2="38.3" y2="30.2"/>
	<line class="st0" x1="36.8" y1="28.7" x2="36.8" y2="31.7"/>
	<line class="st0" x1="22.1" y1="30.2" x2="24.9" y2="30.2"/>
	<line class="st0" x1="23.4" y1="28.7" x2="23.4" y2="31.7"/>
	<line class="st0" x1="28.8" y1="36.9" x2="31.6" y2="36.9"/>
	<line class="st0" x1="30.1" y1="35.4" x2="30.1" y2="38.4"/>
	<line class="st0" x1="2" y1="36.8" x2="4.8" y2="36.8"/>
	<line class="st0" x1="3.4" y1="35.3" x2="3.4" y2="38.3"/>
	<line class="st0" x1="2" y1="23.5" x2="4.8" y2="23.5"/>
	<line class="st0" x1="3.4" y1="22" x2="3.4" y2="25"/>
	<line class="st0" x1="15.4" y1="23.5" x2="18.2" y2="23.5"/>
	<line class="st0" x1="16.7" y1="22" x2="16.7" y2="25"/>
	<line class="st0" x1="28.8" y1="23.5" x2="31.6" y2="23.5"/>
	<line class="st0" x1="30.2" y1="22" x2="30.2" y2="25"/>
	<line class="st0" x1="15.4" y1="36.8" x2="18.2" y2="36.8"/>
	<line class="st0" x1="16.8" y1="35.3" x2="16.8" y2="38.3"/>
	<line class="st0" x1="48.9" y1="3.4" x2="51.7" y2="3.4"/>
	<line class="st0" x1="50.3" y1="1.9" x2="50.3" y2="4.9"/>
	<line class="st0" x1="48.9" y1="16.7" x2="51.7" y2="16.7"/>
	<line class="st0" x1="50.3" y1="15.2" x2="50.3" y2="18.2"/>
	<line class="st0" x1="62.4" y1="16.7" x2="65.2" y2="16.7"/>
	<line class="st0" x1="63.7" y1="15.2" x2="63.7" y2="18.2"/>
	<line class="st0" x1="75.8" y1="16.7" x2="78.6" y2="16.7"/>
	<line class="st0" x1="77.1" y1="15.2" x2="77.1" y2="18.2"/>
	<line class="st0" x1="75.8" y1="3.4" x2="78.6" y2="3.4"/>
	<line class="st0" x1="77.1" y1="1.9" x2="77.1" y2="4.9"/>
	<line class="st0" x1="62.4" y1="3.4" x2="65.2" y2="3.4"/>
	<line class="st0" x1="63.7" y1="1.9" x2="63.7" y2="4.9"/>
	<line class="st0" x1="69.1" y1="10.1" x2="71.9" y2="10.1"/>
	<line class="st0" x1="70.4" y1="8.6" x2="70.4" y2="11.6"/>
	<line class="st0" x1="42.3" y1="10" x2="45.1" y2="10"/>
	<line class="st0" x1="43.7" y1="8.5" x2="43.7" y2="11.5"/>
	<line class="st0" x1="55.7" y1="10" x2="58.5" y2="10"/>
	<line class="st0" x1="57.1" y1="8.5" x2="57.1" y2="11.5"/>
	<line class="st0" x1="48.9" y1="30.1" x2="51.7" y2="30.1"/>
	<line class="st0" x1="50.3" y1="28.6" x2="50.3" y2="31.6"/>
	<line class="st0" x1="75.8" y1="30.2" x2="78.6" y2="30.2"/>
	<line class="st0" x1="77.1" y1="28.7" x2="77.1" y2="31.7"/>
	<line class="st0" x1="62.4" y1="30.2" x2="65.2" y2="30.2"/>
	<line class="st0" x1="63.7" y1="28.7" x2="63.7" y2="31.7"/>
	<line class="st0" x1="69.1" y1="36.9" x2="71.9" y2="36.9"/>
	<line class="st0" x1="70.4" y1="35.4" x2="70.4" y2="38.4"/>
	<line class="st0" x1="42.3" y1="36.8" x2="45.1" y2="36.8"/>
	<line class="st0" x1="43.7" y1="35.3" x2="43.7" y2="38.3"/>
	<line class="st0" x1="42.3" y1="23.5" x2="45.1" y2="23.5"/>
	<line class="st0" x1="43.7" y1="22" x2="43.7" y2="25"/>
	<line class="st0" x1="55.7" y1="23.5" x2="58.5" y2="23.5"/>
	<line class="st0" x1="57.1" y1="22" x2="57.1" y2="25"/>
	<line class="st0" x1="69.1" y1="23.5" x2="71.9" y2="23.5"/>
	<line class="st0" x1="70.5" y1="22" x2="70.5" y2="25"/>
	<line class="st0" x1="55.7" y1="36.8" x2="58.5" y2="36.8"/>
	<line class="st0" x1="57.1" y1="35.3" x2="57.1" y2="38.3"/>
	<line class="st0" x1="8.6" y1="43.6" x2="11.4" y2="43.6"/>
	<line class="st0" x1="10" y1="42.1" x2="10" y2="45.1"/>
	<line class="st0" x1="8.6" y1="57" x2="11.4" y2="57"/>
	<line class="st0" x1="10" y1="55.5" x2="10" y2="58.5"/>
	<line class="st0" x1="22" y1="57" x2="24.9" y2="57"/>
	<line class="st0" x1="23.4" y1="55.5" x2="23.4" y2="58.5"/>
	<line class="st0" x1="35.5" y1="57" x2="38.3" y2="57"/>
	<line class="st0" x1="36.8" y1="55.5" x2="36.8" y2="58.5"/>
	<line class="st0" x1="35.5" y1="43.7" x2="38.3" y2="43.7"/>
	<line class="st0" x1="36.8" y1="42.2" x2="36.8" y2="45.2"/>
	<line class="st0" x1="22.1" y1="43.7" x2="24.9" y2="43.7"/>
	<line class="st0" x1="23.4" y1="42.2" x2="23.4" y2="45.2"/>
	<line class="st0" x1="28.8" y1="50.4" x2="31.6" y2="50.4"/>
	<line class="st0" x1="30.1" y1="48.9" x2="30.1" y2="51.9"/>
	<line class="st0" x1="2" y1="50.3" x2="4.8" y2="50.3"/>
	<line class="st0" x1="3.4" y1="48.8" x2="3.4" y2="51.8"/>
	<line class="st0" x1="15.4" y1="50.3" x2="18.2" y2="50.3"/>
	<line class="st0" x1="16.8" y1="48.8" x2="16.8" y2="51.8"/>
	<line class="st0" x1="8.6" y1="70.4" x2="11.4" y2="70.4"/>
	<line class="st0" x1="10" y1="68.9" x2="10" y2="71.9"/>
	<line class="st0" x1="35.5" y1="70.4" x2="38.3" y2="70.4"/>
	<line class="st0" x1="36.8" y1="68.9" x2="36.8" y2="71.9"/>
	<line class="st0" x1="22.1" y1="70.4" x2="24.9" y2="70.4"/>
	<line class="st0" x1="23.4" y1="68.9" x2="23.4" y2="71.9"/>
	<line class="st0" x1="28.8" y1="77.1" x2="31.6" y2="77.1"/>
	<line class="st0" x1="30.1" y1="75.6" x2="30.1" y2="78.6"/>
	<line class="st0" x1="2" y1="77.1" x2="4.8" y2="77.1"/>
	<line class="st0" x1="3.4" y1="75.6" x2="3.4" y2="78.6"/>
	<line class="st0" x1="2" y1="63.8" x2="4.8" y2="63.8"/>
	<line class="st0" x1="3.4" y1="62.3" x2="3.4" y2="65.3"/>
	<line class="st0" x1="15.4" y1="63.8" x2="18.2" y2="63.8"/>
	<line class="st0" x1="16.7" y1="62.3" x2="16.7" y2="65.3"/>
	<line class="st0" x1="28.8" y1="63.8" x2="31.6" y2="63.8"/>
	<line class="st0" x1="30.2" y1="62.3" x2="30.2" y2="65.3"/>
	<line class="st0" x1="15.4" y1="77.1" x2="18.2" y2="77.1"/>
	<line class="st0" x1="16.8" y1="75.6" x2="16.8" y2="78.6"/>
	<line class="st0" x1="48.9" y1="43.6" x2="51.7" y2="43.6"/>
	<line class="st0" x1="50.3" y1="42.1" x2="50.3" y2="45.1"/>
	<line class="st0" x1="48.9" y1="57" x2="51.7" y2="57"/>
	<line class="st0" x1="50.3" y1="55.5" x2="50.3" y2="58.5"/>
	<line class="st0" x1="62.4" y1="57" x2="65.2" y2="57"/>
	<line class="st0" x1="63.7" y1="55.5" x2="63.7" y2="58.5"/>
	<line class="st0" x1="75.8" y1="57" x2="78.6" y2="57"/>
	<line class="st0" x1="77.1" y1="55.5" x2="77.1" y2="58.5"/>
	<line class="st0" x1="75.8" y1="43.7" x2="78.6" y2="43.7"/>
	<line class="st0" x1="77.1" y1="42.2" x2="77.1" y2="45.2"/>
	<line class="st0" x1="62.4" y1="43.7" x2="65.2" y2="43.7"/>
	<line class="st0" x1="63.7" y1="42.2" x2="63.7" y2="45.2"/>
	<line class="st0" x1="69.1" y1="50.4" x2="71.9" y2="50.4"/>
	<line class="st0" x1="70.4" y1="48.9" x2="70.4" y2="51.9"/>
	<line class="st0" x1="42.3" y1="50.3" x2="45.1" y2="50.3"/>
	<line class="st0" x1="43.7" y1="48.8" x2="43.7" y2="51.8"/>
	<line class="st0" x1="55.7" y1="50.3" x2="58.5" y2="50.3"/>
	<line class="st0" x1="57.1" y1="48.8" x2="57.1" y2="51.8"/>
	<line class="st0" x1="48.9" y1="70.4" x2="51.7" y2="70.4"/>
	<line class="st0" x1="50.3" y1="68.9" x2="50.3" y2="71.9"/>
	<line class="st0" x1="75.8" y1="70.4" x2="78.6" y2="70.4"/>
	<line class="st0" x1="77.1" y1="68.9" x2="77.1" y2="71.9"/>
	<line class="st0" x1="62.4" y1="70.4" x2="65.2" y2="70.4"/>
	<line class="st0" x1="63.7" y1="68.9" x2="63.7" y2="71.9"/>
	<line class="st0" x1="69.1" y1="77.1" x2="71.9" y2="77.1"/>
	<line class="st0" x1="70.4" y1="75.6" x2="70.4" y2="78.6"/>
	<line class="st0" x1="42.3" y1="77.1" x2="45.1" y2="77.1"/>
	<line class="st0" x1="43.7" y1="75.6" x2="43.7" y2="78.6"/>
	<line class="st0" x1="42.3" y1="63.8" x2="45.1" y2="63.8"/>
	<line class="st0" x1="43.7" y1="62.3" x2="43.7" y2="65.3"/>
	<line class="st0" x1="55.7" y1="63.8" x2="58.5" y2="63.8"/>
	<line class="st0" x1="57.1" y1="62.3" x2="57.1" y2="65.3"/>
	<line class="st0" x1="69.1" y1="63.8" x2="71.9" y2="63.8"/>
	<line class="st0" x1="70.5" y1="62.3" x2="70.5" y2="65.3"/>
	<line class="st0" x1="55.7" y1="77.1" x2="58.5" y2="77.1"/>
	<line class="st0" x1="57.1" y1="75.6" x2="57.1" y2="78.6"/>
</g>
</svg>
