<?xml version="1.0" encoding="utf-8"?>
<!-- Generator: Adobe Illustrator 23.0.1, SVG Export Plug-In . SVG Version: 6.00 Build 0)  -->
<svg version="1.1" id="Layer_1" xmlns="http://www.w3.org/2000/svg" xmlns:xlink="http://www.w3.org/1999/xlink" x="0px" y="0px"
	 viewBox="0 0 80.6 80.5" style="enable-background:new 0 0 80.6 80.5;" xml:space="preserve">
<style type="text/css">
	.st0{fill:none;stroke:#000000;stroke-width:0.3;}
</style>
<g>
	<polyline class="st0" points="37.6,16 37.9,18 36,17.4 	"/>
	<polyline class="st0" points="23.5,15.1 24.5,16.9 22.5,17 	"/>
	<polyline class="st0" points="57.5,22.7 58.5,24.5 56.5,24.6 	"/>
	<polyline class="st0" points="15.5,74.8 16.5,76.5 14.5,76.6 	"/>
	<polyline class="st0" points="68.9,35.3 69.9,37 67.9,37.2 	"/>
	<polyline class="st0" points="43.1,62.2 44.1,63.9 42.1,64.1 	"/>
	<polyline class="st0" points="21.2,3.6 20.6,1.7 22.5,2 	"/>
	<polyline class="st0" points="29.4,9 31.1,10 29.5,11.2 	"/>
	<polyline class="st0" points="54.8,9.4 56.5,10.4 54.9,11.5 	"/>
	<polyline class="st0" points="17,36.6 17.2,38.6 15.3,37.9 	"/>
	<polyline class="st0" points="70.8,22.6 71,24.6 69.1,23.9 	"/>
	<polyline class="st0" points="42.5,74.1 42.7,76.1 40.8,75.4 	"/>
	<polyline class="st0" points="62.6,39.7 62.9,41.7 61,41 	"/>
	<polyline class="st0" points="63.5,28.5 63.7,30.5 61.8,29.9 	"/>
	<polyline class="st0" points="48.6,28.9 48.9,30.9 47,30.3 	"/>
	<polyline class="st0" points="3.6,39.4 1.8,38.6 3.3,37.3 	"/>
	<polyline class="st0" points="15.4,9.3 14.3,11 13.3,9.2 	"/>
	<polyline class="st0" points="31.3,23.8 29.3,23.4 30.6,21.8 	"/>
	<polyline class="st0" points="36.1,31 37.2,29.3 38.2,31 	"/>
	<polyline class="st0" points="29.6,47.2 29.6,49.2 27.8,48.3 	"/>
	<polyline class="st0" points="50.4,1.3 50.4,3.3 48.6,2.4 	"/>
	<polyline class="st0" points="69.1,75.5 69.2,77.5 67.4,76.7 	"/>
	<polyline class="st0" points="16.3,24.3 18,23.1 18.3,25.1 	"/>
	<polyline class="st0" points="9,29.2 10.7,30.3 9,31.3 	"/>
	<polyline class="st0" points="30.2,61.6 31.9,62.7 30.1,63.7 	"/>
	<polyline class="st0" points="24.4,29.9 22.8,31.1 22.4,29.1 	"/>
	<polyline class="st0" points="76.7,16 75.1,17.3 74.7,15.3 	"/>
	<polyline class="st0" points="50.9,42.7 49.3,44 48.9,42 	"/>
	<polyline class="st0" points="44.4,10.2 42.8,11.4 42.4,9.5 	"/>
	<polyline class="st0" points="2.5,47.9 2.4,49.9 0.6,48.9 	"/>
	<polyline class="st0" points="49.2,54.4 49.1,56.4 47.4,55.5 	"/>
	<polyline class="st0" points="10.6,56.6 8.6,56.1 9.9,54.6 	"/>
	<polyline class="st0" points="57.6,77.2 55.7,76.7 57,75.2 	"/>
	<polyline class="st0" points="17.3,63.3 15.6,62.3 17.3,61.2 	"/>
	<polyline class="st0" points="75.8,69 74.1,67.9 75.8,66.9 	"/>
	<polyline class="st0" points="57.2,51.1 55.4,50 57.2,49 	"/>
	<polyline class="st0" points="21.7,56.6 23.7,56.3 23.1,58.2 	"/>
	<polyline class="st0" points="79.1,33.1 77.9,31.4 79.9,31.1 	"/>
	<polyline class="st0" points="4.1,62.2 5.1,63.9 3.1,64 	"/>
	<polyline class="st0" points="78.4,56.5 76.4,56.8 77,54.9 	"/>
	<polyline class="st0" points="36.1,43.6 37.6,42.2 38.1,44.2 	"/>
	<polyline class="st0" points="67.6,63.3 69.1,62 69.6,63.9 	"/>
	<polyline class="st0" points="55,35.9 56.5,34.6 57,36.6 	"/>
	<polyline class="st0" points="42.4,24.3 44,23 44.5,24.9 	"/>
	<polyline class="st0" points="35.1,4.1 36.7,2.8 37.2,4.8 	"/>
	<polyline class="st0" points="21.1,44.3 21.6,42.3 23.1,43.7 	"/>
	<polyline class="st0" points="61.2,18 61.7,16.1 63.2,17.4 	"/>
	<polyline class="st0" points="34.1,70.8 34.6,68.8 36.1,70.2 	"/>
	<polyline class="st0" points="41.6,37.8 43,36.3 43.7,38.2 	"/>
	<polyline class="st0" points="8.8,42.7 10.7,43.3 9.3,44.7 	"/>
	<polyline class="st0" points="61.3,1.7 63.2,2.3 61.8,3.8 	"/>
	<polyline class="st0" points="76.6,6.6 74.7,7.3 74.9,5.3 	"/>
	<polyline class="st0" points="48.3,69.2 50.2,69.8 48.8,71.3 	"/>
	<polyline class="st0" points="23.2,69 25.1,69.6 23.7,71.1 	"/>
	<polyline class="st0" points="77.6,77.8 79.6,78.4 78.2,79.9 	"/>
	<polyline class="st0" points="3.2,8.9 3.9,10.8 1.9,10.7 	"/>
	<polyline class="st0" points="8.4,16.6 10.4,16.5 9.6,18.4 	"/>
	<polyline class="st0" points="1.4,22.6 3.4,22.5 2.6,24.4 	"/>
	<polyline class="st0" points="16.9,49.7 17.6,51.6 15.6,51.4 	"/>
	<polyline class="st0" points="68.3,48.6 68.9,50.5 66.9,50.3 	"/>
	<polyline class="st0" points="63.5,55.4 64.2,57.3 62.2,57.1 	"/>
	<polyline class="st0" points="36.4,55.4 34.3,55.3 35.4,53.6 	"/>
	<polyline class="st0" points="29.8,77.8 27.8,77.7 28.8,75.9 	"/>
	<polyline class="st0" points="57.2,63.4 55.2,63.3 56.2,61.5 	"/>
	<polyline class="st0" points="5.6,73.6 3.6,73.4 4.6,71.7 	"/>
	<polyline class="st0" points="30.8,37.2 28.8,37.4 29.6,35.5 	"/>
	<polyline class="st0" points="68.8,10.8 66.8,10.9 67.6,9.1 	"/>
	<polyline class="st0" points="49.9,19.4 47.9,19.6 48.6,17.7 	"/>
	<polyline class="st0" points="13.2,69.3 11.2,69.5 12,67.6 	"/>
	<polyline class="st0" points="76.9,44 74.9,44.2 75.7,42.3 	"/>
	<polyline class="st0" points="65.1,70.6 63.1,70.7 63.9,68.9 	"/>
	<polyline class="st0" points="42.7,49.5 44.6,49.9 43.3,51.5 	"/>
	<polyline class="st0" points="9.7,2.5 10.5,0.6 11.8,2.2 	"/>
</g>
</svg>
