<?xml version="1.0" encoding="utf-8"?>
<!-- Generator: Adobe Illustrator 23.0.1, SVG Export Plug-In . SVG Version: 6.00 Build 0)  -->
<svg version="1.1" id="Layer_1" xmlns="http://www.w3.org/2000/svg" xmlns:xlink="http://www.w3.org/1999/xlink" x="0px" y="0px"
	 viewBox="0 0 86.2 86.2" style="enable-background:new 0 0 86.2 86.2;" xml:space="preserve">
<style type="text/css">
	.st0{fill:none;stroke:#000000;stroke-width:0.3;}
</style>
<g>
	<line class="st0" x1="12.2" y1="7.3" x2="16.1" y2="3"/>
	<line class="st0" x1="13.5" y1="4.3" x2="15" y2="5.6"/>
	<line class="st0" x1="5.2" y1="5.4" x2="1.2" y2="1.2"/>
	<line class="st0" x1="2.3" y1="3.8" x2="3.7" y2="2.5"/>
	<line class="st0" x1="0.4" y1="12.9" x2="5.9" y2="10.7"/>
	<line class="st0" x1="3" y1="10.8" x2="3.7" y2="12.6"/>
	<line class="st0" x1="19.5" y1="32.7" x2="24.9" y2="30.5"/>
	<line class="st0" x1="22" y1="30.6" x2="22.8" y2="32.4"/>
	<line class="st0" x1="9" y1="13.8" x2="14.7" y2="12.6"/>
	<line class="st0" x1="11.9" y1="12.2" x2="12.3" y2="14.1"/>
	<line class="st0" x1="17.7" y1="16.5" x2="21.4" y2="12"/>
	<line class="st0" x1="18.9" y1="13.5" x2="20.4" y2="14.7"/>
	<line class="st0" x1="9.8" y1="33.7" x2="13.6" y2="29.2"/>
	<line class="st0" x1="11.1" y1="30.7" x2="12.6" y2="31.9"/>
	<line class="st0" x1="31.3" y1="14.3" x2="27.4" y2="9.9"/>
	<line class="st0" x1="28.5" y1="12.6" x2="29.9" y2="11.3"/>
	<line class="st0" x1="6.4" y1="37.5" x2="1.3" y2="40.3"/>
	<line class="st0" x1="4.2" y1="39.8" x2="3.2" y2="38.2"/>
	<line class="st0" x1="30.7" y1="25.9" x2="32.8" y2="20.4"/>
	<line class="st0" x1="30.9" y1="22.7" x2="32.7" y2="23.3"/>
	<line class="st0" x1="19.9" y1="41.6" x2="22" y2="36.1"/>
	<line class="st0" x1="20.1" y1="38.3" x2="21.9" y2="39"/>
	<line class="st0" x1="41.7" y1="21.5" x2="35.9" y2="22"/>
	<line class="st0" x1="38.7" y1="22.7" x2="38.5" y2="20.8"/>
	<line class="st0" x1="15.1" y1="39.4" x2="9.3" y2="39.9"/>
	<line class="st0" x1="12.1" y1="40.6" x2="11.9" y2="38.7"/>
	<line class="st0" x1="6.3" y1="19.9" x2="2" y2="23.9"/>
	<line class="st0" x1="4.7" y1="22.7" x2="3.4" y2="21.4"/>
	<line class="st0" x1="13.6" y1="25.6" x2="11.1" y2="20.3"/>
	<line class="st0" x1="11.4" y1="23.2" x2="13.1" y2="22.4"/>
	<line class="st0" x1="40" y1="33.2" x2="37.5" y2="28"/>
	<line class="st0" x1="37.8" y1="30.9" x2="39.5" y2="30"/>
	<line class="st0" x1="31.8" y1="6.6" x2="30.1" y2="1"/>
	<line class="st0" x1="29.9" y1="3.9" x2="31.7" y2="3.3"/>
	<line class="st0" x1="37.2" y1="4.4" x2="42.6" y2="2"/>
	<line class="st0" x1="39.7" y1="2.3" x2="40.5" y2="4"/>
	<line class="st0" x1="37.4" y1="16.6" x2="40" y2="11.4"/>
	<line class="st0" x1="37.9" y1="13.4" x2="39.7" y2="14.2"/>
	<line class="st0" x1="23.1" y1="8.2" x2="20.2" y2="3.2"/>
	<line class="st0" x1="20.7" y1="6.1" x2="22.4" y2="5"/>
	<line class="st0" x1="33.9" y1="33.1" x2="29.1" y2="29.8"/>
	<line class="st0" x1="30.8" y1="32.1" x2="31.8" y2="30.6"/>
	<line class="st0" x1="39.4" y1="41" x2="34.6" y2="37.7"/>
	<line class="st0" x1="36.3" y1="40.1" x2="37.4" y2="38.5"/>
	<line class="st0" x1="23.4" y1="25.2" x2="17.6" y2="25.2"/>
	<line class="st0" x1="20.3" y1="26.2" x2="20.2" y2="24.3"/>
	<line class="st0" x1="31.2" y1="40" x2="25.3" y2="40.1"/>
	<line class="st0" x1="28.1" y1="41" x2="28" y2="39.1"/>
	<line class="st0" x1="6.6" y1="31.6" x2="0.7" y2="31.7"/>
	<line class="st0" x1="3.5" y1="32.6" x2="3.4" y2="30.7"/>
	<line class="st0" x1="54.8" y1="8.5" x2="58.8" y2="4.2"/>
	<line class="st0" x1="56.2" y1="5.5" x2="57.6" y2="6.8"/>
	<line class="st0" x1="48.4" y1="5.4" x2="44.4" y2="1.2"/>
	<line class="st0" x1="45.6" y1="3.8" x2="46.9" y2="2.5"/>
	<line class="st0" x1="43.6" y1="11.8" x2="49" y2="9.6"/>
	<line class="st0" x1="46.1" y1="9.8" x2="46.9" y2="11.5"/>
	<line class="st0" x1="62.2" y1="29.4" x2="67.6" y2="27.2"/>
	<line class="st0" x1="64.7" y1="27.4" x2="65.5" y2="29.1"/>
	<line class="st0" x1="54.9" y1="16" x2="58.4" y2="11.3"/>
	<line class="st0" x1="56" y1="12.9" x2="57.5" y2="14"/>
	<line class="st0" x1="63.1" y1="15.8" x2="66.9" y2="11.3"/>
	<line class="st0" x1="64.4" y1="12.8" x2="65.9" y2="14"/>
	<line class="st0" x1="52.5" y1="33.7" x2="56.2" y2="29.2"/>
	<line class="st0" x1="53.8" y1="30.7" x2="55.3" y2="31.9"/>
	<line class="st0" x1="74.5" y1="14.3" x2="70.7" y2="9.9"/>
	<line class="st0" x1="71.7" y1="12.6" x2="73.1" y2="11.3"/>
	<line class="st0" x1="47.2" y1="42.9" x2="46.8" y2="37"/>
	<line class="st0" x1="46" y1="39.8" x2="47.9" y2="39.7"/>
	<line class="st0" x1="27.1" y1="21.8" x2="23.3" y2="17.5"/>
	<line class="st0" x1="24.3" y1="20.2" x2="25.7" y2="18.9"/>
	<line class="st0" x1="73.1" y1="25.9" x2="75.2" y2="20.4"/>
	<line class="st0" x1="73.3" y1="22.7" x2="75.1" y2="23.3"/>
	<line class="st0" x1="65.7" y1="42.9" x2="67.8" y2="37.4"/>
	<line class="st0" x1="65.9" y1="39.7" x2="67.7" y2="40.3"/>
	<line class="st0" x1="85" y1="21.5" x2="79.1" y2="22"/>
	<line class="st0" x1="82" y1="22.7" x2="81.8" y2="20.8"/>
	<line class="st0" x1="56" y1="37.4" x2="55.1" y2="43.2"/>
	<line class="st0" x1="56.5" y1="40.6" x2="54.6" y2="40.4"/>
	<line class="st0" x1="49.6" y1="19.9" x2="45.2" y2="23.9"/>
	<line class="st0" x1="47.9" y1="22.7" x2="46.6" y2="21.4"/>
	<line class="st0" x1="56.8" y1="25.6" x2="54.3" y2="20.3"/>
	<line class="st0" x1="54.6" y1="23.2" x2="56.3" y2="22.4"/>
	<line class="st0" x1="83.2" y1="33.2" x2="80.7" y2="28"/>
	<line class="st0" x1="81" y1="30.9" x2="82.7" y2="30"/>
	<line class="st0" x1="75" y1="6.6" x2="73.3" y2="1"/>
	<line class="st0" x1="73.2" y1="3.9" x2="75" y2="3.3"/>
	<line class="st0" x1="80.5" y1="4.4" x2="85.8" y2="2"/>
	<line class="st0" x1="82.9" y1="2.3" x2="83.7" y2="4"/>
	<line class="st0" x1="80.7" y1="16.6" x2="83.2" y2="11.4"/>
	<line class="st0" x1="81.2" y1="13.4" x2="82.9" y2="14.2"/>
	<line class="st0" x1="66.4" y1="8.2" x2="63.4" y2="3.2"/>
	<line class="st0" x1="64" y1="6.1" x2="65.6" y2="5"/>
	<line class="st0" x1="74.8" y1="34.3" x2="70" y2="31"/>
	<line class="st0" x1="71.7" y1="33.3" x2="72.7" y2="31.7"/>
	<line class="st0" x1="85.1" y1="41.7" x2="80.3" y2="38.4"/>
	<line class="st0" x1="82" y1="40.7" x2="83" y2="39.1"/>
	<line class="st0" x1="67.4" y1="21.5" x2="61.6" y2="21.6"/>
	<line class="st0" x1="64.3" y1="22.5" x2="64.3" y2="20.6"/>
	<line class="st0" x1="76.9" y1="38" x2="71.1" y2="38.1"/>
	<line class="st0" x1="73.8" y1="39" x2="73.7" y2="37.1"/>
	<line class="st0" x1="49.8" y1="31.6" x2="44" y2="31.7"/>
	<line class="st0" x1="46.7" y1="32.6" x2="46.7" y2="30.7"/>
	<line class="st0" x1="12.1" y1="48.9" x2="16.1" y2="44.5"/>
	<line class="st0" x1="13.5" y1="45.9" x2="14.9" y2="47.2"/>
	<line class="st0" x1="5.2" y1="48.7" x2="1.2" y2="44.4"/>
	<line class="st0" x1="2.3" y1="47.1" x2="3.7" y2="45.8"/>
	<line class="st0" x1="0.4" y1="56.1" x2="5.9" y2="53.9"/>
	<line class="st0" x1="3" y1="54.1" x2="3.7" y2="55.8"/>
	<line class="st0" x1="19.5" y1="74.8" x2="24.9" y2="72.6"/>
	<line class="st0" x1="22" y1="72.8" x2="22.8" y2="74.5"/>
	<line class="st0" x1="7.7" y1="57.2" x2="13.4" y2="56"/>
	<line class="st0" x1="10.5" y1="55.6" x2="10.9" y2="57.5"/>
	<line class="st0" x1="16.4" y1="60.5" x2="20.2" y2="56"/>
	<line class="st0" x1="17.7" y1="57.5" x2="19.2" y2="58.7"/>
	<line class="st0" x1="9.8" y1="77" x2="13.6" y2="72.5"/>
	<line class="st0" x1="11.1" y1="74" x2="12.6" y2="75.1"/>
	<line class="st0" x1="29.4" y1="59.3" x2="25.5" y2="54.9"/>
	<line class="st0" x1="26.6" y1="57.6" x2="28" y2="56.3"/>
	<line class="st0" x1="5.5" y1="84.8" x2="1.7" y2="80.4"/>
	<line class="st0" x1="2.8" y1="83.1" x2="4.2" y2="81.8"/>
	<line class="st0" x1="28.9" y1="68.8" x2="30.9" y2="63.3"/>
	<line class="st0" x1="29.1" y1="65.5" x2="30.9" y2="66.2"/>
	<line class="st0" x1="19.9" y1="84.8" x2="22" y2="79.4"/>
	<line class="st0" x1="20.1" y1="81.6" x2="21.9" y2="82.2"/>
	<line class="st0" x1="38.7" y1="68.3" x2="36.1" y2="63.1"/>
	<line class="st0" x1="36.4" y1="66" x2="38.1" y2="65.1"/>
	<line class="st0" x1="15.1" y1="82.7" x2="9.3" y2="83.1"/>
	<line class="st0" x1="12.1" y1="83.9" x2="11.9" y2="82"/>
	<line class="st0" x1="6.3" y1="63.2" x2="2" y2="67.1"/>
	<line class="st0" x1="4.7" y1="66" x2="3.4" y2="64.6"/>
	<line class="st0" x1="13.6" y1="68.9" x2="11.1" y2="63.6"/>
	<line class="st0" x1="11.4" y1="66.5" x2="13.1" y2="65.6"/>
	<line class="st0" x1="37.9" y1="77.3" x2="39.5" y2="71.7"/>
	<line class="st0" x1="37.8" y1="74.1" x2="39.6" y2="74.6"/>
	<line class="st0" x1="38.9" y1="49.8" x2="37.2" y2="44.2"/>
	<line class="st0" x1="37.1" y1="47.1" x2="38.9" y2="46.5"/>
	<line class="st0" x1="27.8" y1="50.4" x2="33.2" y2="48"/>
	<line class="st0" x1="30.3" y1="48.3" x2="31.1" y2="50"/>
	<line class="st0" x1="33.4" y1="56.9" x2="39.1" y2="55.6"/>
	<line class="st0" x1="36.2" y1="55.3" x2="36.7" y2="57.1"/>
	<line class="st0" x1="32.7" y1="78" x2="27.9" y2="74.7"/>
	<line class="st0" x1="29.6" y1="77.1" x2="30.6" y2="75.5"/>
	<line class="st0" x1="63.7" y1="36" x2="58.9" y2="32.7"/>
	<line class="st0" x1="60.6" y1="35.1" x2="61.6" y2="33.5"/>
	<line class="st0" x1="41.8" y1="84.9" x2="37" y2="81.6"/>
	<line class="st0" x1="38.7" y1="84" x2="39.8" y2="82.4"/>
	<line class="st0" x1="24.2" y1="64.7" x2="18.3" y2="64.8"/>
	<line class="st0" x1="21.1" y1="65.7" x2="21" y2="63.8"/>
	<line class="st0" x1="33.1" y1="84.2" x2="27.3" y2="84.3"/>
	<line class="st0" x1="30" y1="85.2" x2="30" y2="83.3"/>
	<line class="st0" x1="6.6" y1="74.9" x2="0.7" y2="74.9"/>
	<line class="st0" x1="3.5" y1="75.9" x2="3.4" y2="74"/>
	<line class="st0" x1="52.8" y1="51" x2="56.7" y2="46.7"/>
	<line class="st0" x1="54.2" y1="48" x2="55.6" y2="49.3"/>
	<line class="st0" x1="48.4" y1="50.4" x2="44.4" y2="46.1"/>
	<line class="st0" x1="45.5" y1="48.8" x2="46.9" y2="47.5"/>
	<line class="st0" x1="43.5" y1="58.9" x2="46.1" y2="53.7"/>
	<line class="st0" x1="44" y1="55.7" x2="45.8" y2="56.6"/>
	<line class="st0" x1="62.7" y1="74.8" x2="68.1" y2="72.6"/>
	<line class="st0" x1="65.2" y1="72.8" x2="66" y2="74.5"/>
	<line class="st0" x1="54.3" y1="55.7" x2="60.1" y2="54.6"/>
	<line class="st0" x1="57.2" y1="54.2" x2="57.6" y2="56"/>
	<line class="st0" x1="63.1" y1="59.1" x2="66.8" y2="54.6"/>
	<line class="st0" x1="64.3" y1="56.1" x2="65.8" y2="57.3"/>
	<line class="st0" x1="53.1" y1="77" x2="56.8" y2="72.5"/>
	<line class="st0" x1="54.3" y1="74" x2="55.8" y2="75.1"/>
	<line class="st0" x1="74.5" y1="57.6" x2="70.6" y2="53.2"/>
	<line class="st0" x1="71.7" y1="55.9" x2="73.1" y2="54.6"/>
	<line class="st0" x1="48.7" y1="84.8" x2="44.9" y2="80.4"/>
	<line class="st0" x1="46" y1="83.1" x2="47.4" y2="81.8"/>
	<line class="st0" x1="73.1" y1="69.1" x2="75.1" y2="63.7"/>
	<line class="st0" x1="73.3" y1="65.9" x2="75.1" y2="66.5"/>
	<line class="st0" x1="63.1" y1="84.8" x2="65.2" y2="79.4"/>
	<line class="st0" x1="63.3" y1="81.6" x2="65.1" y2="82.2"/>
	<line class="st0" x1="84.9" y1="64.7" x2="79.1" y2="65.2"/>
	<line class="st0" x1="81.9" y1="66" x2="81.7" y2="64.1"/>
	<line class="st0" x1="58.3" y1="82.7" x2="52.5" y2="83.1"/>
	<line class="st0" x1="55.3" y1="83.9" x2="55.1" y2="82"/>
	<line class="st0" x1="48.6" y1="65.8" x2="44.3" y2="69.7"/>
	<line class="st0" x1="47" y1="68.6" x2="45.7" y2="67.2"/>
	<line class="st0" x1="58" y1="68.6" x2="55.5" y2="63.3"/>
	<line class="st0" x1="55.8" y1="66.2" x2="57.5" y2="65.3"/>
	<line class="st0" x1="83.2" y1="76.5" x2="80.7" y2="71.2"/>
	<line class="st0" x1="81" y1="74.1" x2="82.7" y2="73.3"/>
	<line class="st0" x1="75" y1="49.9" x2="73.3" y2="44.3"/>
	<line class="st0" x1="73.1" y1="47.2" x2="75" y2="46.6"/>
	<line class="st0" x1="80.4" y1="47.7" x2="85.8" y2="45.3"/>
	<line class="st0" x1="82.9" y1="45.5" x2="83.7" y2="47.2"/>
	<line class="st0" x1="80.7" y1="59.9" x2="83.2" y2="54.6"/>
	<line class="st0" x1="81.1" y1="56.7" x2="82.9" y2="57.5"/>
	<line class="st0" x1="66.4" y1="51.5" x2="63.4" y2="46.5"/>
	<line class="st0" x1="63.9" y1="49.3" x2="65.6" y2="48.3"/>
	<line class="st0" x1="21.5" y1="52.6" x2="20.1" y2="47"/>
	<line class="st0" x1="19.8" y1="49.9" x2="21.6" y2="49.4"/>
	<line class="st0" x1="77.1" y1="76.4" x2="72.3" y2="73"/>
	<line class="st0" x1="74" y1="75.4" x2="75" y2="73.8"/>
	<line class="st0" x1="85" y1="84.9" x2="80.2" y2="81.6"/>
	<line class="st0" x1="81.9" y1="84" x2="83" y2="82.4"/>
	<line class="st0" x1="67.4" y1="64.7" x2="61.5" y2="64.8"/>
	<line class="st0" x1="64.3" y1="65.7" x2="64.2" y2="63.8"/>
	<line class="st0" x1="53.9" y1="60.8" x2="48" y2="60.9"/>
	<line class="st0" x1="50.8" y1="61.8" x2="50.7" y2="59.9"/>
	<line class="st0" x1="76.3" y1="84.2" x2="70.5" y2="84.3"/>
	<line class="st0" x1="73.2" y1="85.2" x2="73.2" y2="83.3"/>
	<line class="st0" x1="49.8" y1="74.9" x2="43.9" y2="74.9"/>
	<line class="st0" x1="46.7" y1="75.9" x2="46.6" y2="74"/>
</g>
</svg>
