<?xml version="1.0" encoding="utf-8"?>
<!-- Generator: Adobe Illustrator 23.0.1, SVG Export Plug-In . SVG Version: 6.00 Build 0)  -->
<svg version="1.1" id="Layer_1" xmlns="http://www.w3.org/2000/svg" xmlns:xlink="http://www.w3.org/1999/xlink" x="0px" y="0px"
	 viewBox="0 0 80.6 80.5" style="enable-background:new 0 0 80.6 80.5;" xml:space="preserve">
<style type="text/css">
	.st0{fill:none;stroke:#000000;stroke-width:0.6;stroke-linecap:round;}
	.st1{fill:none;stroke:#000000;stroke-width:0.3;}
</style>
<g>
	<line class="st0" x1="7.5" y1="10.2" x2="7.5" y2="10.2"/>
	<line class="st0" x1="7.4" y1="13.5" x2="7.4" y2="13.5"/>
	<line class="st0" x1="2.8" y1="13.5" x2="2.8" y2="13.5"/>
	<line class="st0" x1="11.5" y1="13.1" x2="11.5" y2="13.1"/>
	<line class="st0" x1="14.1" y1="15" x2="14.1" y2="15"/>
	<line class="st0" x1="17.5" y1="15.6" x2="17.5" y2="15.6"/>
	<line class="st0" x1="24" y1="7.1" x2="24" y2="7.1"/>
	<line class="st0" x1="21" y1="12.9" x2="21" y2="12.9"/>
	<line class="st0" x1="14.5" y1="18.2" x2="14.5" y2="18.2"/>
	<line class="st0" x1="16.6" y1="12.2" x2="16.6" y2="12.2"/>
	<line class="st0" x1="17.1" y1="6.5" x2="17.1" y2="6.5"/>
	<line class="st0" x1="20.6" y1="8.9" x2="20.6" y2="8.9"/>
	<line class="st0" x1="24.3" y1="10.2" x2="24.3" y2="10.2"/>
	<line class="st0" x1="20.3" y1="3.9" x2="20.3" y2="3.9"/>
	<line class="st0" x1="12" y1="9" x2="12" y2="9"/>
	<line class="st0" x1="5.3" y1="7.2" x2="5.3" y2="7.2"/>
	<line class="st0" x1="6.6" y1="2.6" x2="6.6" y2="2.6"/>
	<line class="st0" x1="13.2" y1="0.9" x2="13.2" y2="0.9"/>
	<line class="st0" x1="16.5" y1="2.8" x2="16.5" y2="2.8"/>
	<line class="st0" x1="2.7" y1="3.5" x2="2.7" y2="3.5"/>
	<line class="st0" x1="1.2" y1="7.7" x2="1.2" y2="7.7"/>
	<line class="st0" x1="14" y1="5.2" x2="14" y2="5.2"/>
	<line class="st0" x1="8.8" y1="6.7" x2="8.8" y2="6.7"/>
	<line class="st0" x1="7.5" y1="27.9" x2="7.5" y2="27.9"/>
	<line class="st0" x1="3.6" y1="28.1" x2="3.6" y2="28.1"/>
	<line class="st0" x1="7.4" y1="31.2" x2="7.4" y2="31.2"/>
	<line class="st0" x1="2.8" y1="31.2" x2="2.8" y2="31.2"/>
	<line class="st0" x1="12.8" y1="30.2" x2="12.8" y2="30.2"/>
	<line class="st0" x1="14.8" y1="32.9" x2="14.8" y2="32.9"/>
	<line class="st0" x1="10" y1="34" x2="10" y2="34"/>
	<line class="st0" x1="5" y1="34.2" x2="5" y2="34.2"/>
	<line class="st0" x1="7.3" y1="37" x2="7.3" y2="37"/>
	<line class="st0" x1="11.1" y1="38.4" x2="11.1" y2="38.4"/>
	<line class="st0" x1="17.8" y1="33.2" x2="17.8" y2="33.2"/>
	<line class="st0" x1="12.8" y1="36.1" x2="12.8" y2="36.1"/>
	<line class="st0" x1="16.6" y1="29.1" x2="16.6" y2="29.1"/>
	<line class="st0" x1="16.4" y1="26.6" x2="16.4" y2="26.6"/>
	<line class="st0" x1="20.6" y1="26.6" x2="20.6" y2="26.6"/>
	<line class="st0" x1="20.3" y1="21.6" x2="20.3" y2="21.6"/>
	<line class="st0" x1="19.9" y1="17.2" x2="19.9" y2="17.2"/>
	<line class="st0" x1="12" y1="26.7" x2="12" y2="26.7"/>
	<line class="st0" x1="5.3" y1="24.9" x2="5.3" y2="24.9"/>
	<line class="st0" x1="4.6" y1="16.6" x2="4.6" y2="16.6"/>
	<line class="st0" x1="6.6" y1="20.3" x2="6.6" y2="20.3"/>
	<line class="st0" x1="10.6" y1="20.6" x2="10.6" y2="20.6"/>
	<line class="st0" x1="16.5" y1="20.5" x2="16.5" y2="20.5"/>
	<line class="st0" x1="3" y1="20.1" x2="3" y2="20.1"/>
	<line class="st0" x1="1.2" y1="25.4" x2="1.2" y2="25.4"/>
	<line class="st0" x1="14" y1="22.9" x2="14" y2="22.9"/>
	<line class="st0" x1="8.8" y1="24.4" x2="8.8" y2="24.4"/>
	<line class="st0" x1="34.2" y1="10.2" x2="34.2" y2="10.2"/>
	<line class="st0" x1="34.1" y1="13.5" x2="34.1" y2="13.5"/>
	<line class="st0" x1="29.5" y1="13.5" x2="29.5" y2="13.5"/>
	<line class="st0" x1="26" y1="13.4" x2="26" y2="13.4"/>
	<line class="st0" x1="27.6" y1="16.7" x2="27.6" y2="16.7"/>
	<line class="st0" x1="23.3" y1="19.9" x2="23.3" y2="19.9"/>
	<line class="st0" x1="23.1" y1="23.4" x2="23.1" y2="23.4"/>
	<line class="st0" x1="24.5" y1="26.7" x2="24.5" y2="26.7"/>
	<line class="st0" x1="26.3" y1="21.7" x2="26.3" y2="21.7"/>
	<line class="st0" x1="38.2" y1="13.1" x2="38.2" y2="13.1"/>
	<line class="st0" x1="40.9" y1="15" x2="40.9" y2="15"/>
	<line class="st0" x1="44.7" y1="15.4" x2="44.7" y2="15.4"/>
	<line class="st0" x1="41.3" y1="18.2" x2="41.3" y2="18.2"/>
	<line class="st0" x1="43.4" y1="12.2" x2="43.4" y2="12.2"/>
	<line class="st0" x1="43" y1="6.4" x2="43" y2="6.4"/>
	<line class="st0" x1="47.3" y1="10.4" x2="47.3" y2="10.4"/>
	<line class="st0" x1="46.7" y1="7.1" x2="46.7" y2="7.1"/>
	<line class="st0" x1="47" y1="3.9" x2="47" y2="3.9"/>
	<line class="st0" x1="38.8" y1="9" x2="38.8" y2="9"/>
	<line class="st0" x1="32" y1="7.2" x2="32" y2="7.2"/>
	<line class="st0" x1="33.4" y1="2.6" x2="33.4" y2="2.6"/>
	<line class="st0" x1="39.9" y1="0.9" x2="39.9" y2="0.9"/>
	<line class="st0" x1="43.3" y1="2.8" x2="43.3" y2="2.8"/>
	<line class="st0" x1="50.5" y1="79.4" x2="50.5" y2="79.4"/>
	<line class="st0" x1="29.4" y1="3.5" x2="29.4" y2="3.5"/>
	<line class="st0" x1="26.1" y1="4.5" x2="26.1" y2="4.5"/>
	<line class="st0" x1="25.3" y1="0.9" x2="25.3" y2="0.9"/>
	<line class="st0" x1="27.9" y1="7.7" x2="27.9" y2="7.7"/>
	<line class="st0" x1="39.3" y1="4.1" x2="39.3" y2="4.1"/>
	<line class="st0" x1="35.5" y1="6.7" x2="35.5" y2="6.7"/>
	<line class="st0" x1="34.2" y1="27.9" x2="34.2" y2="27.9"/>
	<line class="st0" x1="30.3" y1="27.2" x2="30.3" y2="27.2"/>
	<line class="st0" x1="26.6" y1="28.4" x2="26.6" y2="28.4"/>
	<line class="st0" x1="19.8" y1="31" x2="19.8" y2="31"/>
	<line class="st0" x1="34.1" y1="31.2" x2="34.1" y2="31.2"/>
	<line class="st0" x1="26.1" y1="32.2" x2="26.1" y2="32.2"/>
	<line class="st0" x1="25.3" y1="35.6" x2="25.3" y2="35.6"/>
	<line class="st0" x1="20.3" y1="36.4" x2="20.3" y2="36.4"/>
	<line class="st0" x1="22" y1="39.1" x2="22" y2="39.1"/>
	<line class="st0" x1="56" y1="33.8" x2="56" y2="33.8"/>
	<line class="st0" x1="52.5" y1="36.1" x2="52.5" y2="36.1"/>
	<line class="st0" x1="60.8" y1="35.9" x2="60.8" y2="35.9"/>
	<line class="st0" x1="78.4" y1="37.6" x2="78.4" y2="37.6"/>
	<line class="st0" x1="21.9" y1="33.4" x2="21.9" y2="33.4"/>
	<line class="st0" x1="30.1" y1="30.6" x2="30.1" y2="30.6"/>
	<line class="st0" x1="40.8" y1="29.4" x2="40.8" y2="29.4"/>
	<line class="st0" x1="40.9" y1="32.7" x2="40.9" y2="32.7"/>
	<line class="st0" x1="36.8" y1="34" x2="36.8" y2="34"/>
	<line class="st0" x1="31.3" y1="34.1" x2="31.3" y2="34.1"/>
	<line class="st0" x1="34" y1="37" x2="34" y2="37"/>
	<line class="st0" x1="37.9" y1="38.4" x2="37.9" y2="38.4"/>
	<line class="st0" x1="44.8" y1="34.7" x2="44.8" y2="34.7"/>
	<line class="st0" x1="39.8" y1="36.1" x2="39.8" y2="36.1"/>
	<line class="st0" x1="44" y1="30.9" x2="44" y2="30.9"/>
	<line class="st0" x1="43.1" y1="26.6" x2="43.1" y2="26.6"/>
	<line class="st0" x1="46.1" y1="29.2" x2="46.1" y2="29.2"/>
	<line class="st0" x1="49.1" y1="26.7" x2="49.1" y2="26.7"/>
	<line class="st0" x1="51.9" y1="24.2" x2="51.9" y2="24.2"/>
	<line class="st0" x1="52.4" y1="27.7" x2="52.4" y2="27.7"/>
	<line class="st0" x1="55.1" y1="26.1" x2="55.1" y2="26.1"/>
	<line class="st0" x1="55.8" y1="29.9" x2="55.8" y2="29.9"/>
	<line class="st0" x1="58.6" y1="30.6" x2="58.6" y2="30.6"/>
	<line class="st0" x1="53" y1="31.4" x2="53" y2="31.4"/>
	<line class="st0" x1="49.6" y1="34" x2="49.6" y2="34"/>
	<line class="st0" x1="54.3" y1="21.4" x2="54.3" y2="21.4"/>
	<line class="st0" x1="46.8" y1="20.6" x2="46.8" y2="20.6"/>
	<line class="st0" x1="46.6" y1="17.2" x2="46.6" y2="17.2"/>
	<line class="st0" x1="38.8" y1="26.7" x2="38.8" y2="26.7"/>
	<line class="st0" x1="32.8" y1="25.1" x2="32.8" y2="25.1"/>
	<line class="st0" x1="47" y1="36.7" x2="47" y2="36.7"/>
	<line class="st0" x1="31.9" y1="16.7" x2="31.9" y2="16.7"/>
	<line class="st0" x1="33.4" y1="20.3" x2="33.4" y2="20.3"/>
	<line class="st0" x1="37.4" y1="20.6" x2="37.4" y2="20.6"/>
	<line class="st0" x1="43.3" y1="20.5" x2="43.3" y2="20.5"/>
	<line class="st0" x1="29.2" y1="20.3" x2="29.2" y2="20.3"/>
	<line class="st0" x1="26.8" y1="25.3" x2="26.8" y2="25.3"/>
	<line class="st0" x1="40.8" y1="22.9" x2="40.8" y2="22.9"/>
	<line class="st0" x1="36.3" y1="24.1" x2="36.3" y2="24.1"/>
	<line class="st0" x1="79.9" y1="11.5" x2="79.9" y2="11.5"/>
	<line class="st0" x1="79.9" y1="29.2" x2="79.9" y2="29.2"/>
	<line class="st0" x1="79.6" y1="18.1" x2="79.6" y2="18.1"/>
	<line class="st0" x1="72.1" y1="9.6" x2="72.1" y2="9.6"/>
	<line class="st0" x1="72.1" y1="12.9" x2="72.1" y2="12.9"/>
	<line class="st0" x1="75.6" y1="10.2" x2="75.6" y2="10.2"/>
	<line class="st0" x1="76.8" y1="13" x2="76.8" y2="13"/>
	<line class="st0" x1="68.1" y1="12.5" x2="68.1" y2="12.5"/>
	<line class="st0" x1="65.4" y1="14.4" x2="65.4" y2="14.4"/>
	<line class="st0" x1="60" y1="13.1" x2="60" y2="13.1"/>
	<line class="st0" x1="64" y1="8.5" x2="64" y2="8.5"/>
	<line class="st0" x1="62.9" y1="11.7" x2="62.9" y2="11.7"/>
	<line class="st0" x1="62.4" y1="5.9" x2="62.4" y2="5.9"/>
	<line class="st0" x1="58.7" y1="7.1" x2="58.7" y2="7.1"/>
	<line class="st0" x1="59.3" y1="3.3" x2="59.3" y2="3.3"/>
	<line class="st0" x1="55.5" y1="1.5" x2="55.5" y2="1.5"/>
	<line class="st0" x1="52.9" y1="3.5" x2="52.9" y2="3.5"/>
	<line class="st0" x1="56" y1="4.4" x2="56" y2="4.4"/>
	<line class="st0" x1="53.8" y1="6.6" x2="53.8" y2="6.6"/>
	<line class="st0" x1="50.8" y1="8" x2="50.8" y2="8"/>
	<line class="st0" x1="52.3" y1="11.1" x2="52.3" y2="11.1"/>
	<line class="st0" x1="65.8" y1="18.9" x2="65.8" y2="18.9"/>
	<line class="st0" x1="48.3" y1="13.6" x2="48.3" y2="13.6"/>
	<line class="st0" x1="52.8" y1="14.6" x2="52.8" y2="14.6"/>
	<line class="st0" x1="59.3" y1="9.4" x2="59.3" y2="9.4"/>
	<line class="st0" x1="56.9" y1="14.1" x2="56.9" y2="14.1"/>
	<line class="st0" x1="55.9" y1="17.5" x2="55.9" y2="17.5"/>
	<line class="st0" x1="52.1" y1="18.6" x2="52.1" y2="18.6"/>
	<line class="st0" x1="50.3" y1="21.5" x2="50.3" y2="21.5"/>
	<line class="st0" x1="47" y1="24.7" x2="47" y2="24.7"/>
	<line class="st0" x1="67.5" y1="8.5" x2="67.5" y2="8.5"/>
	<line class="st0" x1="78.1" y1="1.6" x2="78.1" y2="1.6"/>
	<line class="st0" x1="72.9" y1="2" x2="72.9" y2="2"/>
	<line class="st0" x1="66.3" y1="0.9" x2="66.3" y2="0.9"/>
	<line class="st0" x1="68.6" y1="3.1" x2="68.6" y2="3.1"/>
	<line class="st0" x1="77.6" y1="7.1" x2="77.6" y2="7.1"/>
	<line class="st0" x1="75.8" y1="4" x2="75.8" y2="4"/>
	<line class="st0" x1="65.5" y1="4.6" x2="65.5" y2="4.6"/>
	<line class="st0" x1="22" y1="78.6" x2="22" y2="78.6"/>
	<line class="st0" x1="9.5" y1="79.9" x2="9.5" y2="79.9"/>
	<line class="st0" x1="1.2" y1="79.6" x2="1.2" y2="79.6"/>
	<line class="st0" x1="17.3" y1="79.3" x2="17.3" y2="79.3"/>
	<line class="st0" x1="29.8" y1="57.1" x2="29.8" y2="57.1"/>
	<line class="st0" x1="43.5" y1="78.8" x2="43.5" y2="78.8"/>
	<line class="st0" x1="29.2" y1="79.4" x2="29.2" y2="79.4"/>
	<line class="st0" x1="46.5" y1="68.6" x2="46.5" y2="68.6"/>
	<line class="st0" x1="57.2" y1="79.3" x2="57.2" y2="79.3"/>
	<line class="st0" x1="46.5" y1="79.9" x2="46.5" y2="79.9"/>
	<line class="st0" x1="70.2" y1="79.8" x2="70.2" y2="79.8"/>
	<line class="st0" x1="62.2" y1="79.6" x2="62.2" y2="79.6"/>
	<line class="st0" x1="70.8" y1="6.1" x2="70.8" y2="6.1"/>
	<line class="st0" x1="72.1" y1="27.3" x2="72.1" y2="27.3"/>
	<line class="st0" x1="75.9" y1="27.5" x2="75.9" y2="27.5"/>
	<line class="st0" x1="72.5" y1="32.2" x2="72.5" y2="32.2"/>
	<line class="st0" x1="78" y1="33.4" x2="78" y2="33.4"/>
	<line class="st0" x1="66.4" y1="29.4" x2="66.4" y2="29.4"/>
	<line class="st0" x1="65.4" y1="32.1" x2="65.4" y2="32.1"/>
	<line class="st0" x1="69.5" y1="33.4" x2="69.5" y2="33.4"/>
	<line class="st0" x1="75.6" y1="34.6" x2="75.6" y2="34.6"/>
	<line class="st0" x1="73.5" y1="36.6" x2="73.5" y2="36.6"/>
	<line class="st0" x1="67.1" y1="38.9" x2="67.1" y2="38.9"/>
	<line class="st0" x1="60.6" y1="32.7" x2="60.6" y2="32.7"/>
	<line class="st0" x1="65" y1="35.4" x2="65" y2="35.4"/>
	<line class="st0" x1="68" y1="16.4" x2="68" y2="16.4"/>
	<line class="st0" x1="63.1" y1="26" x2="63.1" y2="26"/>
	<line class="st0" x1="61.7" y1="22.9" x2="61.7" y2="22.9"/>
	<line class="st0" x1="58.9" y1="26" x2="58.9" y2="26"/>
	<line class="st0" x1="59.3" y1="21" x2="59.3" y2="21"/>
	<line class="st0" x1="59.6" y1="16.6" x2="59.6" y2="16.6"/>
	<line class="st0" x1="67.5" y1="26.2" x2="67.5" y2="26.2"/>
	<line class="st0" x1="74.3" y1="24.4" x2="74.3" y2="24.4"/>
	<line class="st0" x1="69.5" y1="29.5" x2="69.5" y2="29.5"/>
	<line class="st0" x1="72.9" y1="19.7" x2="72.9" y2="19.7"/>
	<line class="st0" x1="68.9" y1="20" x2="68.9" y2="20"/>
	<line class="st0" x1="63" y1="19.9" x2="63" y2="19.9"/>
	<line class="st0" x1="76.8" y1="20.6" x2="76.8" y2="20.6"/>
	<line class="st0" x1="78.3" y1="24.8" x2="78.3" y2="24.8"/>
	<line class="st0" x1="65.5" y1="22.3" x2="65.5" y2="22.3"/>
	<line class="st0" x1="71.4" y1="16.2" x2="71.4" y2="16.2"/>
	<line class="st0" x1="7.5" y1="70.6" x2="7.5" y2="70.6"/>
	<line class="st0" x1="7.4" y1="67.3" x2="7.4" y2="67.3"/>
	<line class="st0" x1="2.8" y1="67.2" x2="2.8" y2="67.2"/>
	<line class="st0" x1="14.1" y1="65.8" x2="14.1" y2="65.8"/>
	<line class="st0" x1="18" y1="56.9" x2="18" y2="56.9"/>
	<line class="st0" x1="23.3" y1="64.6" x2="23.3" y2="64.6"/>
	<line class="st0" x1="22.9" y1="73.5" x2="22.9" y2="73.5"/>
	<line class="st0" x1="25.1" y1="75.6" x2="25.1" y2="75.6"/>
	<line class="st0" x1="21" y1="67.9" x2="21" y2="67.9"/>
	<line class="st0" x1="13.2" y1="62.8" x2="13.2" y2="62.8"/>
	<line class="st0" x1="17.5" y1="66.9" x2="17.5" y2="66.9"/>
	<line class="st0" x1="17" y1="71.9" x2="17" y2="71.9"/>
	<line class="st0" x1="20.6" y1="71.9" x2="20.6" y2="71.9"/>
	<line class="st0" x1="29" y1="43.3" x2="29" y2="43.3"/>
	<line class="st0" x1="20.2" y1="75.8" x2="20.2" y2="75.8"/>
	<line class="st0" x1="9.8" y1="72.4" x2="9.8" y2="72.4"/>
	<line class="st0" x1="6.2" y1="78.9" x2="6.2" y2="78.9"/>
	<line class="st0" x1="14.5" y1="69.9" x2="14.5" y2="69.9"/>
	<line class="st0" x1="3.3" y1="70.3" x2="3.3" y2="70.3"/>
	<line class="st0" x1="1.2" y1="73.1" x2="1.2" y2="73.1"/>
	<line class="st0" x1="13.7" y1="74.1" x2="13.7" y2="74.1"/>
	<line class="st0" x1="12.5" y1="77.3" x2="12.5" y2="77.3"/>
	<line class="st0" x1="7.5" y1="52.9" x2="7.5" y2="52.9"/>
	<line class="st0" x1="3.6" y1="52.7" x2="3.6" y2="52.7"/>
	<line class="st0" x1="7.4" y1="49.6" x2="7.4" y2="49.6"/>
	<line class="st0" x1="18.2" y1="40.3" x2="18.2" y2="40.3"/>
	<line class="st0" x1="13.1" y1="50.8" x2="13.1" y2="50.8"/>
	<line class="st0" x1="14.1" y1="48.1" x2="14.1" y2="48.1"/>
	<line class="st0" x1="10" y1="46.8" x2="10" y2="46.8"/>
	<line class="st0" x1="5" y1="46.6" x2="5" y2="46.6"/>
	<line class="st0" x1="7.3" y1="43.8" x2="7.3" y2="43.8"/>
	<line class="st0" x1="13.2" y1="41.4" x2="13.2" y2="41.4"/>
	<line class="st0" x1="17.8" y1="47.6" x2="17.8" y2="47.6"/>
	<line class="st0" x1="12.8" y1="44.7" x2="12.8" y2="44.7"/>
	<line class="st0" x1="16.3" y1="44.1" x2="16.3" y2="44.1"/>
	<line class="st0" x1="16.4" y1="54.2" x2="16.4" y2="54.2"/>
	<line class="st0" x1="20.6" y1="54.2" x2="20.6" y2="54.2"/>
	<line class="st0" x1="20.3" y1="59.2" x2="20.3" y2="59.2"/>
	<line class="st0" x1="19.9" y1="63.6" x2="19.9" y2="63.6"/>
	<line class="st0" x1="12" y1="54" x2="12" y2="54"/>
	<line class="st0" x1="5.3" y1="55.9" x2="5.3" y2="55.9"/>
	<line class="st0" x1="1.5" y1="44.6" x2="1.5" y2="44.6"/>
	<line class="st0" x1="6.6" y1="60.5" x2="6.6" y2="60.5"/>
	<line class="st0" x1="10.6" y1="60.2" x2="10.6" y2="60.2"/>
	<line class="st0" x1="16.5" y1="60.3" x2="16.5" y2="60.3"/>
	<line class="st0" x1="2.7" y1="59.6" x2="2.7" y2="59.6"/>
	<line class="st0" x1="1.2" y1="55.4" x2="1.2" y2="55.4"/>
	<line class="st0" x1="14" y1="57.9" x2="14" y2="57.9"/>
	<line class="st0" x1="9.2" y1="64.1" x2="9.2" y2="64.1"/>
	<line class="st0" x1="34.3" y1="67.1" x2="34.3" y2="67.1"/>
	<line class="st0" x1="34.3" y1="63.6" x2="34.3" y2="63.6"/>
	<line class="st0" x1="29.5" y1="67.2" x2="29.5" y2="67.2"/>
	<line class="st0" x1="26" y1="67.4" x2="26" y2="67.4"/>
	<line class="st0" x1="27" y1="64.1" x2="27" y2="64.1"/>
	<line class="st0" x1="23.3" y1="60.9" x2="23.3" y2="60.9"/>
	<line class="st0" x1="23.2" y1="50.4" x2="23.2" y2="50.4"/>
	<line class="st0" x1="26.3" y1="59.1" x2="26.3" y2="59.1"/>
	<line class="st0" x1="38.2" y1="67.7" x2="38.2" y2="67.7"/>
	<line class="st0" x1="44.6" y1="71.9" x2="44.6" y2="71.9"/>
	<line class="st0" x1="40.9" y1="65.8" x2="40.9" y2="65.8"/>
	<line class="st0" x1="45.5" y1="65.8" x2="45.5" y2="65.8"/>
	<line class="st0" x1="41.3" y1="62.6" x2="41.3" y2="62.6"/>
	<line class="st0" x1="41.7" y1="68.1" x2="41.7" y2="68.1"/>
	<line class="st0" x1="43.9" y1="74.3" x2="43.9" y2="74.3"/>
	<line class="st0" x1="46.7" y1="73.7" x2="46.7" y2="73.7"/>
	<line class="st0" x1="48.7" y1="76.4" x2="48.7" y2="76.4"/>
	<line class="st0" x1="40.4" y1="71.4" x2="40.4" y2="71.4"/>
	<line class="st0" x1="32" y1="73.6" x2="32" y2="73.6"/>
	<line class="st0" x1="33.4" y1="78.2" x2="33.4" y2="78.2"/>
	<line class="st0" x1="38" y1="78.6" x2="38" y2="78.6"/>
	<line class="st0" x1="32.5" y1="70.5" x2="32.5" y2="70.5"/>
	<line class="st0" x1="25.8" y1="78.5" x2="25.8" y2="78.5"/>
	<line class="st0" x1="27.9" y1="73.1" x2="27.9" y2="73.1"/>
	<line class="st0" x1="39" y1="75.4" x2="39" y2="75.4"/>
	<line class="st0" x1="35" y1="75.1" x2="35" y2="75.1"/>
	<line class="st0" x1="34.2" y1="52.9" x2="34.2" y2="52.9"/>
	<line class="st0" x1="30.4" y1="52.7" x2="30.4" y2="52.7"/>
	<line class="st0" x1="27" y1="51.9" x2="27" y2="51.9"/>
	<line class="st0" x1="19.9" y1="50.8" x2="19.9" y2="50.8"/>
	<line class="st0" x1="34.1" y1="49.6" x2="34.1" y2="49.6"/>
	<line class="st0" x1="26.1" y1="48.6" x2="26.1" y2="48.6"/>
	<line class="st0" x1="25.3" y1="45.2" x2="25.3" y2="45.2"/>
	<line class="st0" x1="25.7" y1="39.9" x2="25.7" y2="39.9"/>
	<line class="st0" x1="56" y1="47" x2="56" y2="47"/>
	<line class="st0" x1="51.9" y1="44.7" x2="51.9" y2="44.7"/>
	<line class="st0" x1="60.8" y1="44.9" x2="60.8" y2="44.9"/>
	<line class="st0" x1="75.2" y1="39.6" x2="75.2" y2="39.6"/>
	<line class="st0" x1="71.3" y1="40.8" x2="71.3" y2="40.8"/>
	<line class="st0" x1="55.3" y1="39.3" x2="55.3" y2="39.3"/>
	<line class="st0" x1="49.9" y1="38.2" x2="49.9" y2="38.2"/>
	<line class="st0" x1="33.5" y1="40.3" x2="33.5" y2="40.3"/>
	<line class="st0" x1="29.7" y1="39.8" x2="29.7" y2="39.8"/>
	<line class="st0" x1="7.5" y1="40.1" x2="7.5" y2="40.1"/>
	<line class="st0" x1="4.3" y1="42.1" x2="4.3" y2="42.1"/>
	<line class="st0" x1="1.1" y1="35.1" x2="1.1" y2="35.1"/>
	<line class="st0" x1="79.3" y1="41.9" x2="79.3" y2="41.9"/>
	<line class="st0" x1="21.9" y1="47.4" x2="21.9" y2="47.4"/>
	<line class="st0" x1="29.5" y1="49.5" x2="29.5" y2="49.5"/>
	<line class="st0" x1="39.9" y1="50.8" x2="39.9" y2="50.8"/>
	<line class="st0" x1="40.9" y1="48.1" x2="40.9" y2="48.1"/>
	<line class="st0" x1="36.8" y1="46.8" x2="36.8" y2="46.8"/>
	<line class="st0" x1="31.8" y1="46.6" x2="31.8" y2="46.6"/>
	<line class="st0" x1="32.6" y1="43" x2="32.6" y2="43"/>
	<line class="st0" x1="39.7" y1="41.4" x2="39.7" y2="41.4"/>
	<line class="st0" x1="45.6" y1="47.6" x2="45.6" y2="47.6"/>
	<line class="st0" x1="40.9" y1="45.1" x2="40.9" y2="45.1"/>
	<line class="st0" x1="43.3" y1="43.8" x2="43.3" y2="43.8"/>
	<line class="st0" x1="43.1" y1="54.2" x2="43.1" y2="54.2"/>
	<line class="st0" x1="48" y1="50.4" x2="48" y2="50.4"/>
	<line class="st0" x1="47.3" y1="53.1" x2="47.3" y2="53.1"/>
	<line class="st0" x1="51.9" y1="56.6" x2="51.9" y2="56.6"/>
	<line class="st0" x1="52.4" y1="53.1" x2="52.4" y2="53.1"/>
	<line class="st0" x1="55.8" y1="53.9" x2="55.8" y2="53.9"/>
	<line class="st0" x1="55" y1="42.7" x2="55" y2="42.7"/>
	<line class="st0" x1="58.5" y1="42.4" x2="58.5" y2="42.4"/>
	<line class="st0" x1="59.3" y1="51.5" x2="59.3" y2="51.5"/>
	<line class="st0" x1="53" y1="49.4" x2="53" y2="49.4"/>
	<line class="st0" x1="49.4" y1="47.4" x2="49.4" y2="47.4"/>
	<line class="st0" x1="54.3" y1="59.4" x2="54.3" y2="59.4"/>
	<line class="st0" x1="46.8" y1="60.2" x2="46.8" y2="60.2"/>
	<line class="st0" x1="48.3" y1="63.4" x2="48.3" y2="63.4"/>
	<line class="st0" x1="38.8" y1="54" x2="38.8" y2="54"/>
	<line class="st0" x1="32.8" y1="55.7" x2="32.8" y2="55.7"/>
	<line class="st0" x1="47" y1="44.1" x2="47" y2="44.1"/>
	<line class="st0" x1="38" y1="63.8" x2="38" y2="63.8"/>
	<line class="st0" x1="33.4" y1="60.5" x2="33.4" y2="60.5"/>
	<line class="st0" x1="37.4" y1="60.2" x2="37.4" y2="60.2"/>
	<line class="st0" x1="43.3" y1="60.3" x2="43.3" y2="60.3"/>
	<line class="st0" x1="29.2" y1="60.5" x2="29.2" y2="60.5"/>
	<line class="st0" x1="26.8" y1="55.5" x2="26.8" y2="55.5"/>
	<line class="st0" x1="40.8" y1="57.9" x2="40.8" y2="57.9"/>
	<line class="st0" x1="36.7" y1="51.3" x2="36.7" y2="51.3"/>
	<line class="st0" x1="79.9" y1="69.2" x2="79.9" y2="69.2"/>
	<line class="st0" x1="79.9" y1="51.5" x2="79.9" y2="51.5"/>
	<line class="st0" x1="79.6" y1="62.7" x2="79.6" y2="62.7"/>
	<line class="st0" x1="72.1" y1="71.2" x2="72.1" y2="71.2"/>
	<line class="st0" x1="72.1" y1="67.9" x2="72.1" y2="67.9"/>
	<line class="st0" x1="77.3" y1="66.9" x2="77.3" y2="66.9"/>
	<line class="st0" x1="68.1" y1="68.2" x2="68.1" y2="68.2"/>
	<line class="st0" x1="65.4" y1="66.4" x2="65.4" y2="66.4"/>
	<line class="st0" x1="60" y1="67.7" x2="60" y2="67.7"/>
	<line class="st0" x1="8.8" y1="76.4" x2="8.8" y2="76.4"/>
	<line class="st0" x1="63.2" y1="75.1" x2="63.2" y2="75.1"/>
	<line class="st0" x1="58.9" y1="72.5" x2="58.9" y2="72.5"/>
	<line class="st0" x1="59.8" y1="76.6" x2="59.8" y2="76.6"/>
	<line class="st0" x1="52.9" y1="77.3" x2="52.9" y2="77.3"/>
	<line class="st0" x1="57" y1="70.4" x2="57" y2="70.4"/>
	<line class="st0" x1="52.1" y1="74.4" x2="52.1" y2="74.4"/>
	<line class="st0" x1="44.7" y1="39.9" x2="44.7" y2="39.9"/>
	<line class="st0" x1="65.8" y1="61.9" x2="65.8" y2="61.9"/>
	<line class="st0" x1="52.7" y1="67.8" x2="52.7" y2="67.8"/>
	<line class="st0" x1="49.3" y1="66.1" x2="49.3" y2="66.1"/>
	<line class="st0" x1="53.5" y1="70.7" x2="53.5" y2="70.7"/>
	<line class="st0" x1="56.9" y1="66.7" x2="56.9" y2="66.7"/>
	<line class="st0" x1="61.8" y1="39.4" x2="61.8" y2="39.4"/>
	<line class="st0" x1="52.3" y1="63.4" x2="52.3" y2="63.4"/>
	<line class="st0" x1="50.3" y1="59.3" x2="50.3" y2="59.3"/>
	<line class="st0" x1="45" y1="56.8" x2="45" y2="56.8"/>
	<line class="st0" x1="67.5" y1="72.3" x2="67.5" y2="72.3"/>
	<line class="st0" x1="74.3" y1="74.1" x2="74.3" y2="74.1"/>
	<line class="st0" x1="78.8" y1="76.4" x2="78.8" y2="76.4"/>
	<line class="st0" x1="73.2" y1="77.4" x2="73.2" y2="77.4"/>
	<line class="st0" x1="75.8" y1="64.4" x2="75.8" y2="64.4"/>
	<line class="st0" x1="68.3" y1="44.1" x2="68.3" y2="44.1"/>
	<line class="st0" x1="78.3" y1="73.7" x2="78.3" y2="73.7"/>
	<line class="st0" x1="65.8" y1="77.6" x2="65.8" y2="77.6"/>
	<line class="st0" x1="70" y1="73.8" x2="70" y2="73.8"/>
	<line class="st0" x1="72.1" y1="53.5" x2="72.1" y2="53.5"/>
	<line class="st0" x1="75.9" y1="53.2" x2="75.9" y2="53.2"/>
	<line class="st0" x1="72.1" y1="50.2" x2="72.1" y2="50.2"/>
	<line class="st0" x1="78" y1="47.4" x2="78" y2="47.4"/>
	<line class="st0" x1="66.4" y1="51.4" x2="66.4" y2="51.4"/>
	<line class="st0" x1="64.3" y1="48.4" x2="64.3" y2="48.4"/>
	<line class="st0" x1="69.5" y1="47.4" x2="69.5" y2="47.4"/>
	<line class="st0" x1="74.5" y1="47.1" x2="74.5" y2="47.1"/>
	<line class="st0" x1="72.3" y1="44.4" x2="72.3" y2="44.4"/>
	<line class="st0" x1="67.1" y1="41.9" x2="67.1" y2="41.9"/>
	<line class="st0" x1="60.6" y1="48.1" x2="60.6" y2="48.1"/>
	<line class="st0" x1="65" y1="45.4" x2="65" y2="45.4"/>
	<line class="st0" x1="63.3" y1="64.1" x2="63.3" y2="64.1"/>
	<line class="st0" x1="63" y1="52.4" x2="63" y2="52.4"/>
	<line class="st0" x1="57.2" y1="57.1" x2="57.2" y2="57.1"/>
	<line class="st0" x1="60.1" y1="55.1" x2="60.1" y2="55.1"/>
	<line class="st0" x1="59.3" y1="59.8" x2="59.3" y2="59.8"/>
	<line class="st0" x1="59.6" y1="64.2" x2="59.6" y2="64.2"/>
	<line class="st0" x1="67.5" y1="54.6" x2="67.5" y2="54.6"/>
	<line class="st0" x1="75.7" y1="49.8" x2="75.7" y2="49.8"/>
	<line class="st0" x1="71.3" y1="57.1" x2="71.3" y2="57.1"/>
	<line class="st0" x1="72.9" y1="61" x2="72.9" y2="61"/>
	<line class="st0" x1="71.6" y1="64.5" x2="71.6" y2="64.5"/>
	<line class="st0" x1="69.9" y1="60.2" x2="69.9" y2="60.2"/>
	<line class="st0" x1="63" y1="60.9" x2="63" y2="60.9"/>
	<line class="st0" x1="76.8" y1="60.2" x2="76.8" y2="60.2"/>
	<line class="st0" x1="78.3" y1="56" x2="78.3" y2="56"/>
	<line class="st0" x1="66.9" y1="59" x2="66.9" y2="59"/>
	<line class="st0" x1="10.3" y1="49.9" x2="10.3" y2="49.9"/>
	<line class="st1" x1="9.6" y1="2.1" x2="10.1" y2="5.4"/>
	<line class="st1" x1="11" y1="1.9" x2="11.6" y2="5.4"/>
	<line class="st1" x1="13.7" y1="9.8" x2="17.1" y2="10.5"/>
	<line class="st1" x1="13.8" y1="8.3" x2="17.3" y2="9"/>
	<line class="st1" x1="15.8" y1="24.3" x2="19.2" y2="25"/>
	<line class="st1" x1="15.9" y1="22.8" x2="19.4" y2="23.5"/>
	<line class="st1" x1="9.1" y1="14.7" x2="8" y2="17.9"/>
	<line class="st1" x1="10.5" y1="15.1" x2="9.4" y2="18.5"/>
	<line class="st1" x1="23" y1="28.5" x2="21.9" y2="31.7"/>
	<line class="st1" x1="24.4" y1="28.9" x2="23.3" y2="32.3"/>
	<line class="st1" x1="4.7" y1="21" x2="1.8" y2="22.8"/>
	<line class="st1" x1="5.5" y1="22.2" x2="2.5" y2="24.1"/>
	<line class="st1" x1="22.4" y1="14.8" x2="23.3" y2="18.1"/>
	<line class="st1" x1="23.7" y1="14.4" x2="24.8" y2="17.8"/>
	<line class="st1" x1="30.9" y1="21.9" x2="28.4" y2="24.2"/>
	<line class="st1" x1="31.9" y1="22.9" x2="29.3" y2="25.4"/>
	<line class="st1" x1="42.5" y1="8.5" x2="40" y2="10.8"/>
	<line class="st1" x1="43.6" y1="9.6" x2="41" y2="12"/>
	<line class="st1" x1="74.2" y1="5" x2="72.5" y2="7.9"/>
	<line class="st1" x1="75.5" y1="5.6" x2="73.8" y2="8.8"/>
	<line class="st1" x1="75.1" y1="14.8" x2="74.5" y2="18.2"/>
	<line class="st1" x1="76.5" y1="14.9" x2="76" y2="18.5"/>
	<line class="st1" x1="68.5" y1="23.5" x2="70.5" y2="26.3"/>
	<line class="st1" x1="69.7" y1="22.6" x2="71.8" y2="25.5"/>
	<line class="st1" x1="77.1" y1="29.1" x2="74.4" y2="31.2"/>
	<line class="st1" x1="78" y1="30.2" x2="75.3" y2="32.4"/>
	<line class="st1" x1="38.6" y1="3.9" x2="35.6" y2="2.2"/>
	<line class="st1" x1="38" y1="5.2" x2="34.8" y2="3.6"/>
	<line class="st1" x1="31.2" y1="9.5" x2="27.8" y2="9.6"/>
	<line class="st1" x1="31.3" y1="10.9" x2="27.8" y2="11.1"/>
	<line class="st1" x1="38.4" y1="16" x2="34.9" y2="16.1"/>
	<line class="st1" x1="38.5" y1="17.5" x2="34.9" y2="17.7"/>
	<line class="st1" x1="24.3" y1="2.4" x2="21.7" y2="4.7"/>
	<line class="st1" x1="25.3" y1="3.4" x2="22.7" y2="5.9"/>
	<line class="st1" x1="5.5" y1="9.3" x2="2.1" y2="9.9"/>
	<line class="st1" x1="5.9" y1="10.7" x2="2.4" y2="11.4"/>
	<line class="st1" x1="52" y1="3" x2="49.5" y2="0.6"/>
	<line class="st1" x1="51" y1="4.1" x2="48.4" y2="1.6"/>
	<line class="st1" x1="57.9" y1="9.4" x2="54.5" y2="9.7"/>
	<line class="st1" x1="58.1" y1="10.8" x2="54.6" y2="11.3"/>
	<line class="st1" x1="61.3" y1="15.4" x2="61.7" y2="18.8"/>
	<line class="st1" x1="62.7" y1="15.2" x2="63.2" y2="18.7"/>
	<line class="st1" x1="48.3" y1="16.3" x2="48.7" y2="19.7"/>
	<line class="st1" x1="49.7" y1="16.1" x2="50.2" y2="19.6"/>
	<line class="st1" x1="54.9" y1="24.3" x2="58.2" y2="25.1"/>
	<line class="st1" x1="55.2" y1="22.9" x2="58.6" y2="23.6"/>
	<line class="st1" x1="43.7" y1="21.7" x2="42.7" y2="25"/>
	<line class="st1" x1="45.1" y1="22.1" x2="44.1" y2="25.5"/>
	<line class="st1" x1="48.3" y1="31.2" x2="50.8" y2="33.6"/>
	<line class="st1" x1="49.2" y1="30.1" x2="51.9" y2="32.5"/>
	<line class="st1" x1="36.9" y1="28.1" x2="36.6" y2="31.5"/>
	<line class="st1" x1="38.3" y1="28.1" x2="38.1" y2="31.7"/>
	<line class="st1" x1="56.1" y1="38.8" x2="57.8" y2="35.8"/>
	<line class="st1" x1="54.8" y1="38.2" x2="56.5" y2="35"/>
	<line class="st1" x1="42.6" y1="40" x2="43.9" y2="36.9"/>
	<line class="st1" x1="41.2" y1="39.6" x2="42.5" y2="36.2"/>
	<line class="st1" x1="28.5" y1="37.9" x2="31.4" y2="36.1"/>
	<line class="st1" x1="27.7" y1="36.7" x2="30.7" y2="34.8"/>
	<line class="st1" x1="8.1" y1="30.1" x2="11.5" y2="30.9"/>
	<line class="st1" x1="8.4" y1="28.7" x2="11.9" y2="29.4"/>
	<line class="st1" x1="2.4" y1="40.8" x2="4.5" y2="38.1"/>
	<line class="st1" x1="1.2" y1="39.9" x2="3.4" y2="37.1"/>
	<line class="st1" x1="11.5" y1="45.5" x2="11.2" y2="42"/>
	<line class="st1" x1="10" y1="45.7" x2="9.6" y2="42.1"/>
	<line class="st1" x1="21.8" y1="42.3" x2="19.2" y2="44.6"/>
	<line class="st1" x1="22.8" y1="43.3" x2="20.3" y2="45.7"/>
	<line class="st1" x1="0.6" y1="49.4" x2="4" y2="50.2"/>
	<line class="st1" x1="0.9" y1="47.9" x2="4.4" y2="48.7"/>
	<line class="st1" x1="15" y1="51.6" x2="18.4" y2="52.4"/>
	<line class="st1" x1="15.3" y1="50.2" x2="18.8" y2="50.9"/>
	<line class="st1" x1="27.1" y1="45.3" x2="28.9" y2="48.2"/>
	<line class="st1" x1="28.3" y1="44.4" x2="30.3" y2="47.4"/>
	<line class="st1" x1="34.4" y1="57.6" x2="37.8" y2="58.1"/>
	<line class="st1" x1="34.5" y1="56.2" x2="38.1" y2="56.6"/>
	<line class="st1" x1="29.9" y1="62.1" x2="30.6" y2="65.5"/>
	<line class="st1" x1="31.3" y1="61.8" x2="32.1" y2="65.3"/>
	<line class="st1" x1="23" y1="69" x2="26" y2="70.8"/>
	<line class="st1" x1="23.7" y1="67.8" x2="26.8" y2="69.5"/>
	<line class="st1" x1="14.7" y1="64" x2="18.1" y2="64.5"/>
	<line class="st1" x1="14.9" y1="62.6" x2="18.4" y2="62.9"/>
	<line class="st1" x1="3.8" y1="65" x2="7.3" y2="64.6"/>
	<line class="st1" x1="3.6" y1="63.6" x2="7.1" y2="63"/>
	<line class="st1" x1="10.8" y1="67.3" x2="10.7" y2="70.8"/>
	<line class="st1" x1="12.2" y1="67.3" x2="12.3" y2="70.9"/>
	<line class="st1" x1="14.9" y1="77" x2="18.3" y2="77.5"/>
	<line class="st1" x1="15" y1="75.6" x2="18.6" y2="75.9"/>
	<line class="st1" x1="3" y1="77.2" x2="6.1" y2="75.8"/>
	<line class="st1" x1="2.4" y1="75.9" x2="5.6" y2="74.4"/>
	<line class="st1" x1="29.9" y1="74.2" x2="28.1" y2="77.2"/>
	<line class="st1" x1="31.1" y1="74.9" x2="29.4" y2="78"/>
	<line class="st1" x1="35.2" y1="72.2" x2="38.6" y2="71.5"/>
	<line class="st1" x1="34.9" y1="70.8" x2="38.4" y2="70"/>
	<line class="st1" x1="40.7" y1="75" x2="41.5" y2="78.3"/>
	<line class="st1" x1="42.1" y1="74.6" x2="43" y2="78"/>
	<line class="st1" x1="47.9" y1="71.6" x2="51.3" y2="71.9"/>
	<line class="st1" x1="47.9" y1="70.2" x2="51.5" y2="70.4"/>
	<line class="st1" x1="55.7" y1="61.1" x2="56.7" y2="64.4"/>
	<line class="st1" x1="57.1" y1="60.7" x2="58.2" y2="64"/>
	<line class="st1" x1="63" y1="58.4" x2="65.5" y2="56.1"/>
	<line class="st1" x1="62" y1="57.4" x2="64.5" y2="54.9"/>
	<line class="st1" x1="73.8" y1="56.7" x2="74.9" y2="59.9"/>
	<line class="st1" x1="75.1" y1="56.1" x2="76.4" y2="59.4"/>
	<line class="st1" x1="69.7" y1="66.6" x2="69" y2="63.2"/>
	<line class="st1" x1="68.3" y1="66.9" x2="67.5" y2="63.5"/>
	<line class="st1" x1="73.4" y1="70.3" x2="76.8" y2="70.8"/>
	<line class="st1" x1="73.5" y1="68.9" x2="77.1" y2="69.3"/>
	<line class="st1" x1="74.6" y1="79.2" x2="78" y2="79.6"/>
	<line class="st1" x1="74.7" y1="77.7" x2="78.2" y2="78.1"/>
	<line class="st1" x1="68.6" y1="73.8" x2="66.6" y2="76.6"/>
	<line class="st1" x1="69.8" y1="74.5" x2="67.9" y2="77.5"/>
	<line class="st1" x1="63.1" y1="72.3" x2="63.7" y2="68.9"/>
	<line class="st1" x1="61.7" y1="72.2" x2="62.2" y2="68.6"/>
	<line class="st1" x1="55.4" y1="74.4" x2="55.1" y2="77.9"/>
	<line class="st1" x1="56.9" y1="74.5" x2="56.6" y2="78.1"/>
	<line class="st1" x1="47.2" y1="56.2" x2="50.6" y2="56.6"/>
	<line class="st1" x1="47.4" y1="54.7" x2="50.9" y2="55.1"/>
	<line class="st1" x1="43.7" y1="61.9" x2="45.6" y2="64.8"/>
	<line class="st1" x1="44.9" y1="61" x2="46.9" y2="64"/>
	<line class="st1" x1="35.1" y1="44.2" x2="38.5" y2="44.4"/>
	<line class="st1" x1="35.1" y1="42.7" x2="38.6" y2="42.9"/>
	<line class="st1" x1="47.1" y1="42.6" x2="50.4" y2="43.3"/>
	<line class="st1" x1="47.3" y1="41.1" x2="50.8" y2="41.8"/>
	<line class="st1" x1="61.5" y1="41.9" x2="63.5" y2="44.7"/>
	<line class="st1" x1="62.7" y1="41" x2="64.8" y2="43.9"/>
	<line class="st1" x1="75" y1="45.5" x2="77.6" y2="43.3"/>
	<line class="st1" x1="74" y1="44.5" x2="76.6" y2="42.1"/>
	<line class="st1" x1="66.9" y1="50.2" x2="69.6" y2="52.3"/>
	<line class="st1" x1="67.7" y1="49" x2="70.6" y2="51.1"/>
	<line class="st1" x1="54.9" y1="51.2" x2="58.1" y2="49.8"/>
	<line class="st1" x1="54.3" y1="49.9" x2="57.5" y2="48.4"/>
	<line class="st1" x1="44.2" y1="52.7" x2="44.1" y2="49.2"/>
	<line class="st1" x1="42.7" y1="52.8" x2="42.5" y2="49.2"/>
	<line class="st1" x1="22.6" y1="57.4" x2="25.4" y2="55.4"/>
	<line class="st1" x1="21.7" y1="56.3" x2="24.5" y2="54.1"/>
	<line class="st1" x1="10.7" y1="58" x2="10.3" y2="54.6"/>
	<line class="st1" x1="9.3" y1="58.3" x2="8.8" y2="54.7"/>
	<line class="st1" x1="15.2" y1="36.4" x2="17.5" y2="38.9"/>
	<line class="st1" x1="16.2" y1="35.4" x2="18.7" y2="37.9"/>
	<line class="st1" x1="61.5" y1="28.8" x2="62.6" y2="32.1"/>
	<line class="st1" x1="62.9" y1="28.3" x2="64" y2="31.7"/>
	<line class="st1" x1="67.6" y1="35.9" x2="69.9" y2="38.5"/>
	<line class="st1" x1="68.6" y1="34.9" x2="71.1" y2="37.5"/>
	<line class="st1" x1="66.9" y1="9.2" x2="64.5" y2="11.6"/>
	<line class="st1" x1="68" y1="10.2" x2="65.5" y2="12.7"/>
	<line class="st1" x1="63.7" y1="1.1" x2="60.7" y2="2.7"/>
	<line class="st1" x1="64.4" y1="2.4" x2="61.3" y2="4.1"/>
</g>
</svg>
