<?xml version="1.0" encoding="utf-8"?>
<!-- Generator: Adobe Illustrator 23.0.1, SVG Export Plug-In . SVG Version: 6.00 Build 0)  -->
<svg version="1.1" id="Layer_1" xmlns="http://www.w3.org/2000/svg" xmlns:xlink="http://www.w3.org/1999/xlink" x="0px" y="0px"
	 viewBox="0 0 85.1 85" style="enable-background:new 0 0 85.1 85;" xml:space="preserve">
<style type="text/css">
	.st0{fill:none;stroke:#000000;stroke-width:0.3;}
</style>
<g>
	<line class="st0" x1="23.9" y1="18.6" x2="29.2" y2="13.4"/>
	<line class="st0" x1="26" y1="14.6" x2="27.9" y2="16.6"/>
	<line class="st0" x1="25.1" y1="15.6" x2="27" y2="17.5"/>
	<line class="st0" x1="34.5" y1="18.6" x2="39.9" y2="13.4"/>
	<line class="st0" x1="36.6" y1="14.6" x2="38.6" y2="16.6"/>
	<line class="st0" x1="35.8" y1="15.6" x2="37.7" y2="17.5"/>
	<line class="st0" x1="13.3" y1="18.6" x2="18.6" y2="13.4"/>
	<line class="st0" x1="15.4" y1="14.6" x2="17.3" y2="16.6"/>
	<line class="st0" x1="14.5" y1="15.6" x2="16.4" y2="17.5"/>
	<line class="st0" x1="2.6" y1="18.6" x2="8" y2="13.4"/>
	<line class="st0" x1="4.8" y1="14.6" x2="6.7" y2="16.6"/>
	<line class="st0" x1="3.9" y1="15.6" x2="5.8" y2="17.5"/>
	<line class="st0" x1="23.9" y1="8" x2="29.2" y2="2.7"/>
	<line class="st0" x1="26" y1="4" x2="27.9" y2="6"/>
	<line class="st0" x1="25.1" y1="4.9" x2="27" y2="6.9"/>
	<line class="st0" x1="34.5" y1="8" x2="39.9" y2="2.7"/>
	<line class="st0" x1="36.6" y1="4" x2="38.6" y2="6"/>
	<line class="st0" x1="35.8" y1="4.9" x2="37.7" y2="6.9"/>
	<line class="st0" x1="13.3" y1="8" x2="18.6" y2="2.7"/>
	<line class="st0" x1="15.4" y1="4" x2="17.3" y2="6"/>
	<line class="st0" x1="14.5" y1="4.9" x2="16.4" y2="6.9"/>
	<line class="st0" x1="2.6" y1="8" x2="8" y2="2.7"/>
	<line class="st0" x1="4.8" y1="4" x2="6.7" y2="6"/>
	<line class="st0" x1="3.9" y1="4.9" x2="5.8" y2="6.9"/>
	<line class="st0" x1="23.9" y1="29.3" x2="29.2" y2="24"/>
	<line class="st0" x1="26" y1="25.3" x2="27.9" y2="27.3"/>
	<line class="st0" x1="25.1" y1="26.2" x2="27" y2="28.2"/>
	<line class="st0" x1="34.5" y1="29.3" x2="39.9" y2="24"/>
	<line class="st0" x1="36.6" y1="25.3" x2="38.6" y2="27.3"/>
	<line class="st0" x1="35.8" y1="26.2" x2="37.7" y2="28.2"/>
	<line class="st0" x1="13.3" y1="29.3" x2="18.6" y2="24"/>
	<line class="st0" x1="15.4" y1="25.3" x2="17.3" y2="27.3"/>
	<line class="st0" x1="14.5" y1="26.2" x2="16.4" y2="28.2"/>
	<line class="st0" x1="2.6" y1="29.3" x2="8" y2="24"/>
	<line class="st0" x1="4.8" y1="25.3" x2="6.7" y2="27.3"/>
	<line class="st0" x1="3.9" y1="26.2" x2="5.8" y2="28.2"/>
	<line class="st0" x1="23.9" y1="39.8" x2="29.2" y2="34.5"/>
	<line class="st0" x1="26" y1="35.8" x2="27.9" y2="37.8"/>
	<line class="st0" x1="25.1" y1="36.7" x2="27" y2="38.7"/>
	<line class="st0" x1="34.5" y1="39.8" x2="39.9" y2="34.5"/>
	<line class="st0" x1="36.6" y1="35.8" x2="38.6" y2="37.8"/>
	<line class="st0" x1="35.8" y1="36.7" x2="37.7" y2="38.7"/>
	<line class="st0" x1="13.3" y1="39.8" x2="18.6" y2="34.5"/>
	<line class="st0" x1="15.4" y1="35.8" x2="17.3" y2="37.8"/>
	<line class="st0" x1="14.5" y1="36.7" x2="16.4" y2="38.7"/>
	<line class="st0" x1="2.6" y1="39.8" x2="8" y2="34.5"/>
	<line class="st0" x1="4.8" y1="35.8" x2="6.7" y2="37.8"/>
	<line class="st0" x1="3.9" y1="36.7" x2="5.8" y2="38.7"/>
	<line class="st0" x1="66.4" y1="18.6" x2="71.7" y2="13.4"/>
	<line class="st0" x1="68.5" y1="14.6" x2="70.5" y2="16.6"/>
	<line class="st0" x1="67.6" y1="15.6" x2="69.6" y2="17.5"/>
	<line class="st0" x1="77.1" y1="18.6" x2="82.4" y2="13.4"/>
	<line class="st0" x1="79.2" y1="14.6" x2="81.1" y2="16.6"/>
	<line class="st0" x1="78.3" y1="15.6" x2="80.2" y2="17.5"/>
	<line class="st0" x1="55.8" y1="18.6" x2="61.2" y2="13.4"/>
	<line class="st0" x1="57.9" y1="14.6" x2="59.9" y2="16.6"/>
	<line class="st0" x1="57.1" y1="15.6" x2="59" y2="17.5"/>
	<line class="st0" x1="45.2" y1="18.6" x2="50.5" y2="13.4"/>
	<line class="st0" x1="47.3" y1="14.6" x2="49.2" y2="16.6"/>
	<line class="st0" x1="46.4" y1="15.6" x2="48.4" y2="17.5"/>
	<line class="st0" x1="66.4" y1="8" x2="71.7" y2="2.7"/>
	<line class="st0" x1="68.5" y1="4" x2="70.5" y2="6"/>
	<line class="st0" x1="67.6" y1="4.9" x2="69.6" y2="6.9"/>
	<line class="st0" x1="77.1" y1="8" x2="82.4" y2="2.7"/>
	<line class="st0" x1="79.2" y1="4" x2="81.1" y2="6"/>
	<line class="st0" x1="78.3" y1="4.9" x2="80.2" y2="6.9"/>
	<line class="st0" x1="55.8" y1="8" x2="61.2" y2="2.7"/>
	<line class="st0" x1="57.9" y1="4" x2="59.9" y2="6"/>
	<line class="st0" x1="57.1" y1="4.9" x2="59" y2="6.9"/>
	<line class="st0" x1="45.2" y1="8" x2="50.5" y2="2.7"/>
	<line class="st0" x1="47.3" y1="4" x2="49.2" y2="6"/>
	<line class="st0" x1="46.4" y1="4.9" x2="48.4" y2="6.9"/>
	<line class="st0" x1="66.4" y1="29.3" x2="71.7" y2="24"/>
	<line class="st0" x1="68.5" y1="25.3" x2="70.5" y2="27.3"/>
	<line class="st0" x1="67.6" y1="26.2" x2="69.6" y2="28.2"/>
	<line class="st0" x1="77.1" y1="29.3" x2="82.4" y2="24"/>
	<line class="st0" x1="79.2" y1="25.3" x2="81.1" y2="27.3"/>
	<line class="st0" x1="78.3" y1="26.2" x2="80.2" y2="28.2"/>
	<line class="st0" x1="55.8" y1="29.3" x2="61.2" y2="24"/>
	<line class="st0" x1="57.9" y1="25.3" x2="59.9" y2="27.3"/>
	<line class="st0" x1="57.1" y1="26.2" x2="59" y2="28.2"/>
	<line class="st0" x1="45.2" y1="29.3" x2="50.5" y2="24"/>
	<line class="st0" x1="47.3" y1="25.3" x2="49.2" y2="27.3"/>
	<line class="st0" x1="46.4" y1="26.2" x2="48.4" y2="28.2"/>
	<line class="st0" x1="66.4" y1="39.8" x2="71.7" y2="34.5"/>
	<line class="st0" x1="68.5" y1="35.8" x2="70.5" y2="37.8"/>
	<line class="st0" x1="67.6" y1="36.7" x2="69.6" y2="38.7"/>
	<line class="st0" x1="77.1" y1="39.8" x2="82.4" y2="34.5"/>
	<line class="st0" x1="79.2" y1="35.8" x2="81.1" y2="37.8"/>
	<line class="st0" x1="78.3" y1="36.7" x2="80.2" y2="38.7"/>
	<line class="st0" x1="55.8" y1="39.8" x2="61.2" y2="34.5"/>
	<line class="st0" x1="57.9" y1="35.8" x2="59.9" y2="37.8"/>
	<line class="st0" x1="57.1" y1="36.7" x2="59" y2="38.7"/>
	<line class="st0" x1="45.2" y1="39.8" x2="50.5" y2="34.5"/>
	<line class="st0" x1="47.3" y1="35.8" x2="49.2" y2="37.8"/>
	<line class="st0" x1="46.4" y1="36.7" x2="48.4" y2="38.7"/>
	<line class="st0" x1="23.9" y1="61.1" x2="29.2" y2="55.9"/>
	<line class="st0" x1="26" y1="57.2" x2="27.9" y2="59.2"/>
	<line class="st0" x1="25.1" y1="58.1" x2="27" y2="60"/>
	<line class="st0" x1="34.5" y1="61.1" x2="39.9" y2="55.9"/>
	<line class="st0" x1="36.6" y1="57.2" x2="38.6" y2="59.2"/>
	<line class="st0" x1="35.8" y1="58.1" x2="37.7" y2="60"/>
	<line class="st0" x1="13.3" y1="61.1" x2="18.6" y2="55.9"/>
	<line class="st0" x1="15.4" y1="57.2" x2="17.3" y2="59.2"/>
	<line class="st0" x1="14.5" y1="58.1" x2="16.4" y2="60"/>
	<line class="st0" x1="2.6" y1="61.1" x2="8" y2="55.9"/>
	<line class="st0" x1="4.8" y1="57.2" x2="6.7" y2="59.2"/>
	<line class="st0" x1="3.9" y1="58.1" x2="5.8" y2="60"/>
	<line class="st0" x1="23.9" y1="50.5" x2="29.2" y2="45.3"/>
	<line class="st0" x1="26" y1="46.5" x2="27.9" y2="48.5"/>
	<line class="st0" x1="25.1" y1="47.5" x2="27" y2="49.4"/>
	<line class="st0" x1="34.5" y1="50.5" x2="39.9" y2="45.3"/>
	<line class="st0" x1="36.6" y1="46.5" x2="38.6" y2="48.5"/>
	<line class="st0" x1="35.8" y1="47.5" x2="37.7" y2="49.4"/>
	<line class="st0" x1="13.3" y1="50.5" x2="18.6" y2="45.3"/>
	<line class="st0" x1="15.4" y1="46.5" x2="17.3" y2="48.5"/>
	<line class="st0" x1="14.5" y1="47.5" x2="16.4" y2="49.4"/>
	<line class="st0" x1="2.6" y1="50.5" x2="8" y2="45.3"/>
	<line class="st0" x1="4.8" y1="46.5" x2="6.7" y2="48.5"/>
	<line class="st0" x1="3.9" y1="47.5" x2="5.8" y2="49.4"/>
	<line class="st0" x1="23.9" y1="71.8" x2="29.2" y2="66.6"/>
	<line class="st0" x1="26" y1="67.8" x2="27.9" y2="69.8"/>
	<line class="st0" x1="25.1" y1="68.8" x2="27" y2="70.7"/>
	<line class="st0" x1="34.5" y1="71.8" x2="39.9" y2="66.6"/>
	<line class="st0" x1="36.6" y1="67.8" x2="38.6" y2="69.8"/>
	<line class="st0" x1="35.8" y1="68.8" x2="37.7" y2="70.7"/>
	<line class="st0" x1="13.3" y1="71.8" x2="18.6" y2="66.6"/>
	<line class="st0" x1="15.4" y1="67.8" x2="17.3" y2="69.8"/>
	<line class="st0" x1="14.5" y1="68.8" x2="16.4" y2="70.7"/>
	<line class="st0" x1="2.6" y1="71.8" x2="8" y2="66.6"/>
	<line class="st0" x1="4.8" y1="67.8" x2="6.7" y2="69.8"/>
	<line class="st0" x1="3.9" y1="68.8" x2="5.8" y2="70.7"/>
	<line class="st0" x1="23.9" y1="82.3" x2="29.2" y2="77.1"/>
	<line class="st0" x1="26" y1="78.3" x2="27.9" y2="80.3"/>
	<line class="st0" x1="25.1" y1="79.3" x2="27" y2="81.2"/>
	<line class="st0" x1="34.5" y1="82.3" x2="39.9" y2="77.1"/>
	<line class="st0" x1="36.6" y1="78.3" x2="38.6" y2="80.3"/>
	<line class="st0" x1="35.8" y1="79.3" x2="37.7" y2="81.2"/>
	<line class="st0" x1="13.3" y1="82.3" x2="18.6" y2="77.1"/>
	<line class="st0" x1="15.4" y1="78.3" x2="17.3" y2="80.3"/>
	<line class="st0" x1="14.5" y1="79.3" x2="16.4" y2="81.2"/>
	<line class="st0" x1="2.6" y1="82.3" x2="8" y2="77.1"/>
	<line class="st0" x1="4.8" y1="78.3" x2="6.7" y2="80.3"/>
	<line class="st0" x1="3.9" y1="79.3" x2="5.8" y2="81.2"/>
	<line class="st0" x1="66.4" y1="61.1" x2="71.7" y2="55.9"/>
	<line class="st0" x1="68.5" y1="57.2" x2="70.5" y2="59.2"/>
	<line class="st0" x1="67.6" y1="58.1" x2="69.6" y2="60"/>
	<line class="st0" x1="77.1" y1="61.1" x2="82.4" y2="55.9"/>
	<line class="st0" x1="79.2" y1="57.2" x2="81.1" y2="59.2"/>
	<line class="st0" x1="78.3" y1="58.1" x2="80.2" y2="60"/>
	<line class="st0" x1="55.8" y1="61.1" x2="61.2" y2="55.9"/>
	<line class="st0" x1="57.9" y1="57.2" x2="59.9" y2="59.2"/>
	<line class="st0" x1="57.1" y1="58.1" x2="59" y2="60"/>
	<line class="st0" x1="45.2" y1="61.1" x2="50.5" y2="55.9"/>
	<line class="st0" x1="47.3" y1="57.2" x2="49.2" y2="59.2"/>
	<line class="st0" x1="46.4" y1="58.1" x2="48.4" y2="60"/>
	<line class="st0" x1="66.4" y1="50.5" x2="71.7" y2="45.3"/>
	<line class="st0" x1="68.5" y1="46.5" x2="70.5" y2="48.5"/>
	<line class="st0" x1="67.6" y1="47.5" x2="69.6" y2="49.4"/>
	<line class="st0" x1="77.1" y1="50.5" x2="82.4" y2="45.3"/>
	<line class="st0" x1="79.2" y1="46.5" x2="81.1" y2="48.5"/>
	<line class="st0" x1="78.3" y1="47.5" x2="80.2" y2="49.4"/>
	<line class="st0" x1="55.8" y1="50.5" x2="61.2" y2="45.3"/>
	<line class="st0" x1="57.9" y1="46.5" x2="59.9" y2="48.5"/>
	<line class="st0" x1="57.1" y1="47.5" x2="59" y2="49.4"/>
	<line class="st0" x1="45.2" y1="50.5" x2="50.5" y2="45.3"/>
	<line class="st0" x1="47.3" y1="46.5" x2="49.2" y2="48.5"/>
	<line class="st0" x1="46.4" y1="47.5" x2="48.4" y2="49.4"/>
	<line class="st0" x1="66.4" y1="71.8" x2="71.7" y2="66.6"/>
	<line class="st0" x1="68.5" y1="67.8" x2="70.5" y2="69.8"/>
	<line class="st0" x1="67.6" y1="68.8" x2="69.6" y2="70.7"/>
	<line class="st0" x1="77.1" y1="71.8" x2="82.4" y2="66.6"/>
	<line class="st0" x1="79.2" y1="67.8" x2="81.1" y2="69.8"/>
	<line class="st0" x1="78.3" y1="68.8" x2="80.2" y2="70.7"/>
	<line class="st0" x1="55.8" y1="71.8" x2="61.2" y2="66.6"/>
	<line class="st0" x1="57.9" y1="67.8" x2="59.9" y2="69.8"/>
	<line class="st0" x1="57.1" y1="68.8" x2="59" y2="70.7"/>
	<line class="st0" x1="45.2" y1="71.8" x2="50.5" y2="66.6"/>
	<line class="st0" x1="47.3" y1="67.8" x2="49.2" y2="69.8"/>
	<line class="st0" x1="46.4" y1="68.8" x2="48.4" y2="70.7"/>
	<line class="st0" x1="66.4" y1="82.3" x2="71.7" y2="77.1"/>
	<line class="st0" x1="68.5" y1="78.3" x2="70.5" y2="80.3"/>
	<line class="st0" x1="67.6" y1="79.3" x2="69.6" y2="81.2"/>
	<line class="st0" x1="77.1" y1="82.3" x2="82.4" y2="77.1"/>
	<line class="st0" x1="79.2" y1="78.3" x2="81.1" y2="80.3"/>
	<line class="st0" x1="78.3" y1="79.3" x2="80.2" y2="81.2"/>
	<line class="st0" x1="55.8" y1="82.3" x2="61.2" y2="77.1"/>
	<line class="st0" x1="57.9" y1="78.3" x2="59.9" y2="80.3"/>
	<line class="st0" x1="57.1" y1="79.3" x2="59" y2="81.2"/>
	<line class="st0" x1="45.2" y1="82.3" x2="50.5" y2="77.1"/>
	<line class="st0" x1="47.3" y1="78.3" x2="49.2" y2="80.3"/>
	<line class="st0" x1="46.4" y1="79.3" x2="48.4" y2="81.2"/>
</g>
</svg>
