<?xml version="1.0" encoding="utf-8"?>
<!-- Generator: Adobe Illustrator 23.0.1, SVG Export Plug-In . SVG Version: 6.00 Build 0)  -->
<svg version="1.1" id="Layer_1" xmlns="http://www.w3.org/2000/svg" xmlns:xlink="http://www.w3.org/1999/xlink" x="0px" y="0px"
	 viewBox="0 0 54.1 54.1" style="enable-background:new 0 0 54.1 54.1;" xml:space="preserve">
<style type="text/css">
	.st0{clip-path:url(#SVGID_2_);fill:none;stroke:#000000;stroke-width:0.3;}
	.st1{clip-path:url(#SVGID_2_);fill:none;stroke:#000000;stroke-width:0.7;stroke-linecap:round;}
</style>
<g>
	<defs>
		<rect id="SVGID_1_" x="0" y="0" width="54.1" height="54.1"/>
	</defs>
	<clipPath id="SVGID_2_">
		<use xlink:href="#SVGID_1_"  style="overflow:visible;"/>
	</clipPath>
	<path class="st0" d="M20.7,27.4l-2,2l-2,0.5v1.9c0,0,0.5,0.9,1.2,1c0.7,0.2,3.1,0.3,3.9-0.5c0.9-0.8,0.9-3.4,0.9-3.4L20.7,27.4z"/>
	<polygon class="st0" points="19.9,26 19.1,24.6 17.5,24.2 16.5,26.6 18.1,27.2 	"/>
	<polygon class="st0" points="21.5,15.7 16.9,16.9 16.3,20.9 19.3,21.7 20.7,19.1 22.9,18.1 	"/>
	<polygon class="st0" points="30,4.9 28.5,2.3 25.5,3.1 26.1,7.2 30.8,8.4 32.2,6 	"/>
	<path class="st0" d="M23.3,31.9l4,1.8c0,0,0.8-2,0-2.5s-1.5-1.3-1.5-1.3L23.3,31.9z"/>
	<polygon class="st0" points="21.8,4.4 19.8,4.4 18.3,4.9 17.8,6.6 21.8,8.1 	"/>
	<polygon class="st0" points="27.8,27.4 29.3,30 31.7,27 	"/>
	<path class="st0" d="M18.7,36.9c0.5-1.3-1.3-1.5-2.3-2l-0.3,3C16.2,37.9,18.2,38.1,18.7,36.9z"/>
	<polygon class="st0" points="40.3,24.7 41.8,23.4 38.3,21.4 38.6,23.2 	"/>
	<polygon class="st0" points="35.8,28.9 39,30.9 39.4,26.1 35.2,24.9 33.6,25.9 	"/>
	<polygon class="st0" points="32.8,34.4 35.8,32.4 33,30.6 31.8,30.2 30.8,31.8 	"/>
	<path class="st0" d="M9.3,19.7c0.4,2.2,2,3,2,3l2.4,1.6l0.8-3L9.3,19.7z"/>
	<path class="st0" d="M2.3,17.4l-2,1.3l2.3,1.8l0.8,2.5c0,0,2.5,0.3,2.7-1.3S4.3,17.7,2.3,17.4z"/>
	<polygon class="st0" points="41.1,32.7 44.1,32.7 45.7,31.5 43.1,29.9 	"/>
	<path class="st0" d="M36.6,37.4c0,0,1.2,2.2,2,2.2c0.8,0,2.6-1,3-2.4c0.4-1.4-1-2.6-1-2.6l-4-0.6l-2,2.6L36.6,37.4z"/>
	<path class="st0" d="M27.3,39.1l1.2,2.4c0,0,2.8,1.4,3.2-0.4c0.4-1.8-0.4-3.2-0.4-3.2l-4.4-1.8l-1.4,2.6L27.3,39.1z"/>
	<path class="st0" d="M8.6,36.1c1,1.2,4.2,1,4.2,1L12,34.7l-2.4-3.4C8.2,32.5,7.6,34.9,8.6,36.1z"/>
	<polygon class="st0" points="20.9,35.1 21.5,37.1 21.9,40.3 23.3,38.7 23.3,35.5 	"/>
	<polygon class="st0" points="25.2,8.1 23,12.1 27.2,13.9 27.7,15.1 29.1,13.1 27.8,10.1 	"/>
	<path class="st0" d="M17,15l3.4-2.2l0.2-3.1l-6.2-2.4v2.4c0,0,1,1.9,1.7,2.2C16.8,12.1,17,15,17,15z"/>
	<polygon class="st0" points="12.4,12.5 11.2,15.7 12.6,18.3 14.6,18.1 15.2,14.7 	"/>
	<polygon class="st0" points="36.8,21.8 35.4,20.4 33.8,20.4 32.4,19.2 30.8,22.2 32.8,24.6 	"/>
	<polygon class="st0" points="2.6,44.9 5.5,46 7.6,41.6 5.7,41.1 4.3,41.9 2.5,41.5 	"/>
	<polygon class="st0" points="36.1,9.1 33.9,7.4 32.7,11.2 34.4,13.6 36.1,12.2 	"/>
	<polygon class="st0" points="17.1,44.6 19.1,46.4 22.7,46.6 25.9,45.2 23.5,42.6 20.7,42 17.7,42.2 	"/>
	<polygon class="st0" points="31.8,42.9 34.6,45.1 36,42.5 35,40.5 	"/>
	<polygon class="st0" points="42.5,41.1 40.3,39.9 39.3,42.9 41.1,44.7 45.1,44.9 44.3,41.7 	"/>
	<polygon class="st0" points="50.8,31.6 48.7,29.2 48.1,32.2 46.3,33.7 49.9,35.5 	"/>
	<polygon class="st0" points="12.6,8.9 10.4,7.3 7.2,8.3 8.6,10.1 8.6,12.1 	"/>
	<polygon class="st0" points="7.6,28.1 10.6,29.7 13.8,28.5 11.4,25.1 7.4,23.9 6.4,25.7 	"/>
	<polygon class="st0" points="6.1,13.2 4.6,15.4 5.3,16.9 7.3,16.9 8.6,14.2 	"/>
	<polyline class="st0" points="0,8.7 1.3,8.4 1.8,10.7 4.8,10.4 6.1,3.4 1.8,2.4 0,3.5 	"/>
	<polyline class="st0" points="9.6,0 8.3,1.7 9.1,4.4 11.1,3.7 13.3,6.2 14.1,2.9 11.3,0 	"/>
	<polyline class="st0" points="6.8,0 6.8,1.2 4.6,1.2 5.7,0 	"/>
	<polyline class="st0" points="0,28.2 1.6,28.2 4.3,25.7 0,22.3 	"/>
	<polyline class="st0" points="0,16.5 1.5,16.2 1.5,12.9 0,12.1 	"/>
	<polygon class="st0" points="2.5,30.9 3.2,32.9 5.5,31.9 5.7,28.6 3.5,29.1 	"/>
	<polyline class="st0" points="0,33.7 2.1,35.2 1.6,38.7 0,38.1 	"/>
	<polygon class="st0" points="3.6,38.7 7.1,38.4 5.6,34.2 	"/>
	<polygon class="st0" points="22.7,19.9 21.5,22.9 24.2,23.4 25.5,25.9 30,23.1 26.7,19.1 	"/>
	<polygon class="st0" points="50.6,3.7 47.1,1.4 42.8,1.1 41.6,4.1 45.6,4.9 46.8,7.2 	"/>
	<polyline class="st0" points="14.7,0 14.8,0.7 20.8,2.7 21.3,0.4 21,0 	"/>
	<polygon class="st0" points="47.3,48.2 46.1,45.7 45.1,47.2 45.6,49.7 	"/>
	<polyline class="st0" points="0,1.1 3.1,0.7 3,0 	"/>
	<polyline class="st0" points="27.5,0 26.3,0.9 22.8,0.4 23.1,0 	"/>
	<polyline class="st0" points="34.5,0 34.6,1.7 34.1,4.7 37.6,5.9 39.8,2.9 38,0 	"/>
	<polygon class="st0" points="32.3,3.7 31.8,0.2 30.6,1.7 	"/>
	<polygon class="st0" points="43.8,7.3 40.5,6 38.5,7.3 37.8,9.3 38.8,12.3 42.5,11.5 	"/>
	<polygon class="st0" points="36.3,17.4 35.1,15.7 32.6,15.7 30.6,14.7 28.8,17.2 30.1,18.2 	"/>
	<polygon class="st0" points="44.8,20.4 44.8,17.7 43.1,16.2 44.3,13.4 38.1,14.9 38.3,17.9 40.8,20.2 	"/>
	<polygon class="st0" points="4.5,49.1 5.2,51.1 9,51.3 12.2,50.6 11.7,47.6 9,45.8 	"/>
	<polygon class="st0" points="12.6,44.8 12.8,46.8 16.3,46.8 15.6,44.6 	"/>
	<polygon class="st0" points="20.3,49.3 21.8,51.8 24.5,49.3 22.3,48.3 	"/>
	<polygon class="st0" points="29.6,52.4 32.8,51.7 34.1,47.9 31.8,44.9 27.8,43.7 26.6,47.7 	"/>
	<polygon class="st0" points="36.1,45.7 38.1,49.4 41.3,47.9 39.1,45.9 	"/>
	<polygon class="st0" points="49.8,44.7 52.1,39.2 48.6,37.2 44.8,38.2 46.6,41.9 	"/>
	<polygon class="st0" points="50.8,11.2 48.6,9.4 45.1,9.7 47.6,12.4 	"/>
	<polygon class="st0" points="9.8,40.2 11.3,43.2 15.6,41.4 15.1,39.2 	"/>
	<polygon class="st0" points="49.8,22.9 52.6,19.7 50.6,17.4 49.6,14.7 46.1,15.9 47.1,21.2 	"/>
	<polygon class="st0" points="50.1,26.7 47.6,24.2 44.3,22.9 42.8,25.4 46.6,28.2 	"/>
	<polyline class="st0" points="0,49 1.1,48.2 1.3,45.7 0,45.9 	"/>
	<polygon class="st0" points="42.6,50.2 40.3,52.2 44.1,53.2 48.6,51.7 	"/>
	<polyline class="st0" points="54.1,3.5 52,4.7 52.7,8.9 54.1,8.7 	"/>
	<polyline class="st0" points="54.1,22.3 53.7,21.9 52.5,24.9 51.7,28.2 54.1,28.2 	"/>
	<polyline class="st0" points="54.1,12.1 52.6,11.2 51.6,13.9 52.3,16.9 54.1,16.5 	"/>
	<polyline class="st0" points="54.1,33.7 52.7,32.7 53.2,37.7 54.1,38.1 	"/>
	<polyline class="st0" points="54.1,1.1 52,1.4 51.8,0 	"/>
	<polyline class="st0" points="9.6,54.1 10.3,53.1 11.3,54.1 	"/>
	<polyline class="st0" points="5.7,54.1 6.8,52.8 6.8,54.1 	"/>
	<polyline class="st0" points="21,54.1 18.3,50.1 13.8,50.3 14.7,54.1 	"/>
	<polyline class="st0" points="0,52.1 0.3,52.1 2.3,50.3 3,54.1 	"/>
	<polyline class="st0" points="23.1,54.1 25.6,50.6 27.1,51.6 27.6,54.1 27.5,54.1 	"/>
	<polyline class="st0" points="34.5,54.1 34.3,52.3 36.1,51.1 38,54.1 	"/>
	<polyline class="st0" points="54.1,52.1 51.7,52.6 51.8,54.1 	"/>
	<polyline class="st0" points="54.1,45.9 51.7,46.2 49,49.2 52.2,50.4 54.1,49 	"/>
	<line class="st0" x1="6.8" y1="0" x2="5.7" y2="0"/>
	<line class="st1" x1="7.3" y1="5.4" x2="7.3" y2="5.4"/>
	<line class="st1" x1="7.1" y1="2.6" x2="7.1" y2="2.6"/>
	<line class="st1" x1="10.6" y1="5.8" x2="10.6" y2="5.8"/>
	<line class="st1" x1="2.8" y1="1.6" x2="2.8" y2="1.6"/>
	<line class="st1" x1="13" y1="7.8" x2="13" y2="7.8"/>
	<line class="st1" x1="15.8" y1="5.6" x2="15.8" y2="5.6"/>
	<line class="st1" x1="15.3" y1="2.3" x2="15.3" y2="2.3"/>
	<line class="st1" x1="18.3" y1="3.3" x2="18.3" y2="3.3"/>
	<line class="st1" x1="6.5" y1="10.2" x2="6.5" y2="10.2"/>
	<line class="st1" x1="2.1" y1="12.1" x2="2.1" y2="12.1"/>
	<line class="st1" x1="4.2" y1="13.6" x2="4.2" y2="13.6"/>
	<line class="st1" x1="2.8" y1="15.9" x2="2.8" y2="15.9"/>
	<line class="st1" x1="5.8" y1="18.4" x2="5.8" y2="18.4"/>
	<line class="st1" x1="12.7" y1="11.2" x2="12.7" y2="11.2"/>
	<line class="st1" x1="10.2" y1="13.2" x2="10.2" y2="13.2"/>
	<line class="st1" x1="9.5" y1="17.1" x2="9.5" y2="17.1"/>
	<line class="st1" x1="11.1" y1="18.8" x2="11.1" y2="18.8"/>
	<line class="st1" x1="7.7" y1="20.9" x2="7.7" y2="20.9"/>
	<line class="st1" x1="9.7" y1="23.2" x2="9.7" y2="23.2"/>
	<line class="st1" x1="5.2" y1="24.4" x2="5.2" y2="24.4"/>
	<line class="st1" x1="1.6" y1="21.9" x2="1.6" y2="21.9"/>
	<line class="st1" x1="14.3" y1="26.4" x2="14.3" y2="26.4"/>
	<line class="st1" x1="16.1" y1="22.9" x2="16.1" y2="22.9"/>
	<line class="st1" x1="15" y1="19.8" x2="15" y2="19.8"/>
	<line class="st1" x1="22.3" y1="1.3" x2="22.3" y2="1.3"/>
	<line class="st1" x1="23.6" y1="4.2" x2="23.6" y2="4.2"/>
	<line class="st1" x1="24.1" y1="7.3" x2="24.1" y2="7.3"/>
	<line class="st1" x1="22.6" y1="9.8" x2="22.6" y2="9.8"/>
	<line class="st1" x1="21.6" y1="13.4" x2="21.6" y2="13.4"/>
	<line class="st1" x1="19" y1="15.3" x2="19" y2="15.3"/>
	<line class="st1" x1="25.2" y1="14.6" x2="25.2" y2="14.6"/>
	<line class="st1" x1="25.7" y1="17.9" x2="25.7" y2="17.9"/>
	<line class="st1" x1="28.7" y1="19.1" x2="28.7" y2="19.1"/>
	<line class="st1" x1="30" y1="21.1" x2="30" y2="21.1"/>
	<line class="st1" x1="29.1" y1="15.1" x2="29.1" y2="15.1"/>
	<line class="st1" x1="30.8" y1="12.6" x2="30.8" y2="12.6"/>
	<line class="st1" x1="29.1" y1="9.6" x2="29.1" y2="9.6"/>
	<line class="st1" x1="31.3" y1="9.7" x2="31.3" y2="9.7"/>
	<line class="st1" x1="33.2" y1="6.4" x2="33.2" y2="6.4"/>
	<line class="st1" x1="33.3" y1="1.8" x2="33.3" y2="1.8"/>
	<line class="st1" x1="36.4" y1="6.5" x2="36.4" y2="6.5"/>
	<line class="st1" x1="37" y1="8.5" x2="37" y2="8.5"/>
	<line class="st1" x1="33" y1="14.4" x2="33" y2="14.4"/>
	<line class="st1" x1="37.6" y1="12.2" x2="37.6" y2="12.2"/>
	<line class="st1" x1="35.8" y1="14.2" x2="35.8" y2="14.2"/>
	<line class="st1" x1="37" y1="16.3" x2="37" y2="16.3"/>
	<line class="st1" x1="39.4" y1="13.5" x2="39.4" y2="13.5"/>
	<line class="st1" x1="43.3" y1="12.5" x2="43.3" y2="12.5"/>
	<line class="st1" x1="45.9" y1="12.5" x2="45.9" y2="12.5"/>
	<line class="st1" x1="45.3" y1="14.9" x2="45.3" y2="14.9"/>
	<line class="st1" x1="34.3" y1="19.1" x2="34.3" y2="19.1"/>
	<line class="st1" x1="37.1" y1="19.2" x2="37.1" y2="19.2"/>
	<line class="st1" x1="39.4" y1="20.7" x2="39.4" y2="20.7"/>
	<line class="st1" x1="42.3" y1="21.9" x2="42.3" y2="21.9"/>
	<line class="st1" x1="36.3" y1="23.9" x2="36.3" y2="23.9"/>
	<line class="st1" x1="38.6" y1="24.7" x2="38.6" y2="24.7"/>
	<line class="st1" x1="40.8" y1="25.9" x2="40.8" y2="25.9"/>
	<line class="st1" x1="40.8" y1="28.5" x2="40.8" y2="28.5"/>
	<line class="st1" x1="43.8" y1="28.4" x2="43.8" y2="28.4"/>
	<line class="st1" x1="46.4" y1="30.1" x2="46.4" y2="30.1"/>
	<line class="st1" x1="50" y1="28.4" x2="50" y2="28.4"/>
	<line class="st1" x1="52.5" y1="30.7" x2="52.5" y2="30.7"/>
	<line class="st1" x1="48.4" y1="23.5" x2="48.4" y2="23.5"/>
	<line class="st1" x1="50.8" y1="25" x2="50.8" y2="25"/>
	<line class="st1" x1="48.2" y1="13.8" x2="48.2" y2="13.8"/>
	<line class="st1" x1="50.8" y1="12.5" x2="50.8" y2="12.5"/>
	<line class="st1" x1="51" y1="15.4" x2="51" y2="15.4"/>
	<line class="st1" x1="52.9" y1="18.3" x2="52.9" y2="18.3"/>
	<line class="st1" x1="52.5" y1="21.9" x2="52.5" y2="21.9"/>
	<line class="st1" x1="51.4" y1="34.1" x2="51.4" y2="34.1"/>
	<line class="st1" x1="51.4" y1="37" x2="51.4" y2="37"/>
	<line class="st1" x1="47.7" y1="36" x2="47.7" y2="36"/>
	<line class="st1" x1="45.3" y1="33.4" x2="45.3" y2="33.4"/>
	<line class="st1" x1="45.2" y1="35.9" x2="45.2" y2="35.9"/>
	<line class="st1" x1="42.5" y1="34.4" x2="42.5" y2="34.4"/>
	<line class="st1" x1="40.7" y1="30.8" x2="40.7" y2="30.8"/>
	<line class="st1" x1="37.8" y1="32.4" x2="37.8" y2="32.4"/>
	<line class="st1" x1="39.9" y1="33.6" x2="39.9" y2="33.6"/>
	<line class="st1" x1="35.3" y1="34.1" x2="35.3" y2="34.1"/>
	<line class="st1" x1="43" y1="36.9" x2="43" y2="36.9"/>
	<line class="st1" x1="41.3" y1="39" x2="41.3" y2="39"/>
	<line class="st1" x1="43.9" y1="39.5" x2="43.9" y2="39.5"/>
	<line class="st1" x1="45.4" y1="41.5" x2="45.4" y2="41.5"/>
	<line class="st1" x1="46.7" y1="44.2" x2="46.7" y2="44.2"/>
	<line class="st1" x1="52.6" y1="42" x2="52.6" y2="42"/>
	<line class="st1" x1="52.2" y1="44.5" x2="52.2" y2="44.5"/>
	<line class="st1" x1="49.3" y1="46.4" x2="49.3" y2="46.4"/>
	<line class="st1" x1="44" y1="46.2" x2="44" y2="46.2"/>
	<line class="st1" x1="41.2" y1="46.2" x2="41.2" y2="46.2"/>
	<line class="st1" x1="39" y1="44.4" x2="39" y2="44.4"/>
	<line class="st1" x1="36.3" y1="44.6" x2="36.3" y2="44.6"/>
	<line class="st1" x1="37.8" y1="41.5" x2="37.8" y2="41.5"/>
	<line class="st1" x1="36.3" y1="39.3" x2="36.3" y2="39.3"/>
	<line class="st1" x1="33.6" y1="40" x2="33.6" y2="40"/>
	<line class="st1" x1="33.4" y1="37.1" x2="33.4" y2="37.1"/>
	<line class="st1" x1="32" y1="35.5" x2="32" y2="35.5"/>
	<line class="st1" x1="30.2" y1="36.4" x2="30.2" y2="36.4"/>
	<line class="st1" x1="42.9" y1="48.4" x2="42.9" y2="48.4"/>
	<line class="st1" x1="48" y1="50.1" x2="48" y2="50.1"/>
	<line class="st1" x1="52.6" y1="51.4" x2="52.6" y2="51.4"/>
	<line class="st1" x1="49" y1="52.9" x2="49" y2="52.9"/>
	<line class="st1" x1="40.8" y1="49.9" x2="40.8" y2="49.9"/>
	<line class="st1" x1="37.3" y1="50.3" x2="37.3" y2="50.3"/>
	<line class="st1" x1="34.8" y1="47.2" x2="34.8" y2="47.2"/>
	<line class="st1" x1="34.8" y1="50.5" x2="34.8" y2="50.5"/>
	<line class="st1" x1="32.9" y1="44.8" x2="32.9" y2="44.8"/>
	<line class="st1" x1="29.6" y1="43.2" x2="29.6" y2="43.2"/>
	<line class="st1" x1="32.8" y1="53.1" x2="32.8" y2="53.1"/>
	<line class="st1" x1="28.2" y1="51.9" x2="28.2" y2="51.9"/>
	<line class="st1" x1="26.3" y1="49.5" x2="26.3" y2="49.5"/>
	<line class="st1" x1="24.9" y1="47.4" x2="24.9" y2="47.4"/>
	<line class="st1" x1="26.3" y1="43.3" x2="26.3" y2="43.3"/>
	<line class="st1" x1="26.4" y1="40.5" x2="26.4" y2="40.5"/>
	<line class="st1" x1="24.5" y1="38.7" x2="24.5" y2="38.7"/>
	<line class="st1" x1="24" y1="41.7" x2="24" y2="41.7"/>
	<line class="st1" x1="16.8" y1="42" x2="16.8" y2="42"/>
	<line class="st1" x1="13.8" y1="43.6" x2="13.8" y2="43.6"/>
	<line class="st1" x1="17.5" y1="46.6" x2="17.5" y2="46.6"/>
	<line class="st1" x1="21.3" y1="47.9" x2="21.3" y2="47.9"/>
	<line class="st1" x1="19.2" y1="49.4" x2="19.2" y2="49.4"/>
	<line class="st1" x1="23.7" y1="51.5" x2="23.7" y2="51.5"/>
	<line class="st1" x1="21.4" y1="53.3" x2="21.4" y2="53.3"/>
	<line class="st1" x1="15.3" y1="47.9" x2="15.3" y2="47.9"/>
	<line class="st1" x1="13.3" y1="49.5" x2="13.3" y2="49.5"/>
	<line class="st1" x1="11.4" y1="46.1" x2="11.4" y2="46.1"/>
	<line class="st1" x1="12.5" y1="52.8" x2="12.5" y2="52.8"/>
	<line class="st1" x1="9.3" y1="52.2" x2="9.3" y2="52.2"/>
	<line class="st1" x1="4.5" y1="51.8" x2="4.5" y2="51.8"/>
	<line class="st1" x1="1.3" y1="49.9" x2="1.3" y2="49.9"/>
	<line class="st1" x1="3" y1="47.3" x2="3" y2="47.3"/>
	<line class="st1" x1="6.6" y1="46.5" x2="6.6" y2="46.5"/>
	<line class="st1" x1="38.8" y1="52.8" x2="38.8" y2="52.8"/>
	<line class="st1" x1="45.5" y1="0.2" x2="45.5" y2="0.2"/>
	<line class="st1" x1="50.1" y1="1.6" x2="50.1" y2="1.6"/>
	<line class="st1" x1="53.5" y1="2.7" x2="53.5" y2="2.7"/>
	<line class="st1" x1="45.7" y1="22" x2="45.7" y2="22"/>
	<line class="st1" x1="39.8" y1="5.3" x2="39.8" y2="5.3"/>
	<line class="st1" x1="40.3" y1="1.2" x2="40.3" y2="1.2"/>
	<line class="st1" x1="43.4" y1="5.7" x2="43.4" y2="5.7"/>
	<line class="st1" x1="45.6" y1="7.9" x2="45.6" y2="7.9"/>
	<line class="st1" x1="50.2" y1="8.3" x2="50.2" y2="8.3"/>
	<line class="st1" x1="50.3" y1="6.3" x2="50.3" y2="6.3"/>
	<line class="st1" x1="52.8" y1="10.1" x2="52.8" y2="10.1"/>
	<line class="st1" x1="30.8" y1="3.8" x2="30.8" y2="3.8"/>
	<line class="st1" x1="28.7" y1="0.8" x2="28.7" y2="0.8"/>
	<line class="st1" x1="21.3" y1="20.2" x2="21.3" y2="20.2"/>
	<line class="st1" x1="20" y1="23.1" x2="20" y2="23.1"/>
	<line class="st1" x1="23.1" y1="24.7" x2="23.1" y2="24.7"/>
	<line class="st1" x1="21.1" y1="26.4" x2="21.1" y2="26.4"/>
	<line class="st1" x1="23.8" y1="27.9" x2="23.8" y2="27.9"/>
	<line class="st1" x1="16.7" y1="28.7" x2="16.7" y2="28.7"/>
	<line class="st1" x1="14" y1="30.1" x2="14" y2="30.1"/>
	<line class="st1" x1="5.1" y1="27.6" x2="5.1" y2="27.6"/>
	<line class="st1" x1="1.6" y1="29.8" x2="1.6" y2="29.8"/>
	<line class="st1" x1="1.7" y1="33.2" x2="1.7" y2="33.2"/>
	<line class="st1" x1="3.7" y1="34.9" x2="3.7" y2="34.9"/>
	<line class="st1" x1="7" y1="33.7" x2="7" y2="33.7"/>
	<line class="st1" x1="7.5" y1="30.6" x2="7.5" y2="30.6"/>
	<line class="st1" x1="11.8" y1="32.3" x2="11.8" y2="32.3"/>
	<line class="st1" x1="15.3" y1="32.6" x2="15.3" y2="32.6"/>
	<line class="st1" x1="14" y1="34.8" x2="14" y2="34.8"/>
	<line class="st1" x1="14.5" y1="37.8" x2="14.5" y2="37.8"/>
	<line class="st1" x1="7.8" y1="36.9" x2="7.8" y2="36.9"/>
	<line class="st1" x1="10.3" y1="39.1" x2="10.3" y2="39.1"/>
	<line class="st1" x1="7.3" y1="40.2" x2="7.3" y2="40.2"/>
	<line class="st1" x1="3.5" y1="40.4" x2="3.5" y2="40.4"/>
	<line class="st1" x1="0.7" y1="39.9" x2="0.7" y2="39.9"/>
	<line class="st1" x1="1" y1="43.9" x2="1" y2="43.9"/>
	<line class="st1" x1="9" y1="43.9" x2="9" y2="43.9"/>
	<line class="st1" x1="18.5" y1="34.3" x2="18.5" y2="34.3"/>
	<line class="st1" x1="22.5" y1="33.9" x2="22.5" y2="33.9"/>
	<line class="st1" x1="20" y1="36.9" x2="20" y2="36.9"/>
	<line class="st1" x1="20.1" y1="40.8" x2="20.1" y2="40.8"/>
	<line class="st1" x1="17.3" y1="39.4" x2="17.3" y2="39.4"/>
	<line class="st1" x1="26.8" y1="28.4" x2="26.8" y2="28.4"/>
	<line class="st1" x1="28.7" y1="25.7" x2="28.7" y2="25.7"/>
	<line class="st1" x1="28.7" y1="31.2" x2="28.7" y2="31.2"/>
	<line class="st1" x1="33.1" y1="29.1" x2="33.1" y2="29.1"/>
	<line class="st1" x1="35.5" y1="30.6" x2="35.5" y2="30.6"/>
	<line class="st1" x1="30.5" y1="34.2" x2="30.5" y2="34.2"/>
	<line class="st1" x1="27.6" y1="35.1" x2="27.6" y2="35.1"/>
	<line class="st1" x1="25.1" y1="35.6" x2="25.1" y2="35.6"/>
	<line class="st1" x1="31.8" y1="25.6" x2="31.8" y2="25.6"/>
	<line class="st1" x1="23.5" y1="16.4" x2="23.5" y2="16.4"/>
</g>
</svg>
