<?xml version="1.0" encoding="utf-8"?>
<!-- Generator: Adobe Illustrator 23.0.1, SVG Export Plug-In . SVG Version: 6.00 Build 0)  -->
<svg version="1.1" id="Layer_1" xmlns="http://www.w3.org/2000/svg" xmlns:xlink="http://www.w3.org/1999/xlink" x="0px" y="0px"
	 viewBox="0 0 54 54" style="enable-background:new 0 0 54 54;" xml:space="preserve">
<style type="text/css">
	.st0{fill:none;stroke:#000000;stroke-width:0.7;stroke-linecap:round;}
</style>
<g>
	<line class="st0" x1="15.7" y1="2.2" x2="15.7" y2="2.2"/>
	<line class="st0" x1="15.7" y1="5.2" x2="15.7" y2="5.2"/>
	<line class="st0" x1="15.2" y1="7.9" x2="15.2" y2="7.9"/>
	<line class="st0" x1="10.9" y1="8.1" x2="10.9" y2="8.1"/>
	<line class="st0" x1="18" y1="15.7" x2="18" y2="15.7"/>
	<line class="st0" x1="10.2" y1="20.5" x2="10.2" y2="20.5"/>
	<line class="st0" x1="18" y1="20.2" x2="18" y2="20.2"/>
	<line class="st0" x1="22.3" y1="20.2" x2="22.3" y2="20.2"/>
	<line class="st0" x1="21.9" y1="13.7" x2="21.9" y2="13.7"/>
	<line class="st0" x1="24.1" y1="15.2" x2="24.1" y2="15.2"/>
	<line class="st0" x1="25.5" y1="11.2" x2="25.5" y2="11.2"/>
	<line class="st0" x1="23.8" y1="8.8" x2="23.8" y2="8.8"/>
	<line class="st0" x1="24.2" y1="5.2" x2="24.2" y2="5.2"/>
	<line class="st0" x1="22.8" y1="2.2" x2="22.8" y2="2.2"/>
	<line class="st0" x1="25.5" y1="0.9" x2="25.5" y2="0.9"/>
	<line class="st0" x1="31.1" y1="5.2" x2="31.1" y2="5.2"/>
	<line class="st0" x1="34.1" y1="5.1" x2="34.1" y2="5.1"/>
	<line class="st0" x1="35.8" y1="14.8" x2="35.8" y2="14.8"/>
	<line class="st0" x1="28.1" y1="15.2" x2="28.1" y2="15.2"/>
	<line class="st0" x1="41" y1="8.2" x2="41" y2="8.2"/>
	<line class="st0" x1="42.4" y1="0.6" x2="42.4" y2="0.6"/>
	<line class="st0" x1="50.6" y1="1.3" x2="50.6" y2="1.3"/>
	<line class="st0" x1="50.6" y1="6.8" x2="50.6" y2="6.8"/>
	<line class="st0" x1="49.1" y1="8.5" x2="49.1" y2="8.5"/>
	<line class="st0" x1="48.9" y1="11.8" x2="48.9" y2="11.8"/>
	<line class="st0" x1="47.8" y1="14.1" x2="47.8" y2="14.1"/>
	<line class="st0" x1="5.2" y1="39.2" x2="5.2" y2="39.2"/>
	<line class="st0" x1="6" y1="41.5" x2="6" y2="41.5"/>
	<line class="st0" x1="1.7" y1="40.9" x2="1.7" y2="40.9"/>
	<line class="st0" x1="7.3" y1="48" x2="7.3" y2="48"/>
	<line class="st0" x1="8.2" y1="53.2" x2="8.2" y2="53.2"/>
	<path class="st0" d="M13.9,49.1L13.9,49.1"/>
	<line class="st0" x1="12.2" y1="46.7" x2="12.2" y2="46.7"/>
	<line class="st0" x1="9.2" y1="46.5" x2="9.2" y2="46.5"/>
	<line class="st0" x1="12.7" y1="41.7" x2="12.7" y2="41.7"/>
	<line class="st0" x1="14.4" y1="38.2" x2="14.4" y2="38.2"/>
	<line class="st0" x1="12.3" y1="39" x2="12.3" y2="39"/>
	<line class="st0" x1="12.2" y1="35.4" x2="12.2" y2="35.4"/>
	<line class="st0" x1="24.3" y1="39.2" x2="24.3" y2="39.2"/>
	<line class="st0" x1="18.8" y1="41.8" x2="18.8" y2="41.8"/>
	<line class="st0" x1="24" y1="41.8" x2="24" y2="41.8"/>
	<line class="st0" x1="19.5" y1="47.8" x2="19.5" y2="47.8"/>
	<line class="st0" x1="27" y1="42.2" x2="27" y2="42.2"/>
	<line class="st0" x1="30.6" y1="38.7" x2="30.6" y2="38.7"/>
	<line class="st0" x1="33" y1="32.8" x2="33" y2="32.8"/>
	<line class="st0" x1="37.7" y1="38.6" x2="37.7" y2="38.6"/>
	<line class="st0" x1="37.5" y1="35.3" x2="37.5" y2="35.3"/>
	<line class="st0" x1="41.2" y1="35.2" x2="41.2" y2="35.2"/>
	<line class="st0" x1="41.2" y1="40.7" x2="41.2" y2="40.7"/>
	<line class="st0" x1="38.4" y1="42.2" x2="38.4" y2="42.2"/>
	<line class="st0" x1="35.9" y1="45.5" x2="35.9" y2="45.5"/>
	<line class="st0" x1="43.7" y1="46.1" x2="43.7" y2="46.1"/>
	<line class="st0" x1="29.2" y1="18.6" x2="29.2" y2="18.6"/>
	<line class="st0" x1="35.6" y1="20.4" x2="35.6" y2="20.4"/>
	<line class="st0" x1="42.5" y1="21.5" x2="42.5" y2="21.5"/>
	<line class="st0" x1="38.4" y1="18.9" x2="38.4" y2="18.9"/>
	<line class="st0" x1="39" y1="22.1" x2="39" y2="22.1"/>
	<line class="st0" x1="46.9" y1="26.6" x2="46.9" y2="26.6"/>
	<line class="st0" x1="42.5" y1="29.2" x2="42.5" y2="29.2"/>
	<line class="st0" x1="34.5" y1="27.3" x2="34.5" y2="27.3"/>
	<line class="st0" x1="36" y1="33.2" x2="36" y2="33.2"/>
	<line class="st0" x1="44.2" y1="34.7" x2="44.2" y2="34.7"/>
	<line class="st0" x1="51.4" y1="32.8" x2="51.4" y2="32.8"/>
	<line class="st0" x1="46.3" y1="29.2" x2="46.3" y2="29.2"/>
	<line class="st0" x1="24.4" y1="35.2" x2="24.4" y2="35.2"/>
	<line class="st0" x1="19" y1="27.8" x2="19" y2="27.8"/>
	<line class="st0" x1="22.3" y1="26.6" x2="22.3" y2="26.6"/>
	<line class="st0" x1="8.1" y1="21.8" x2="8.1" y2="21.8"/>
	<line class="st0" x1="1.9" y1="26.4" x2="1.9" y2="26.4"/>
	<line class="st0" x1="9.6" y1="32.4" x2="9.6" y2="32.4"/>
	<line class="st0" x1="10.5" y1="25.5" x2="10.5" y2="25.5"/>
	<line class="st0" x1="19.8" y1="21.7" x2="19.8" y2="21.7"/>
	<line class="st0" x1="28.1" y1="25.7" x2="28.1" y2="25.7"/>
	<line class="st0" x1="4.6" y1="14.8" x2="4.6" y2="14.8"/>
	<line class="st0" x1="7.3" y1="14.1" x2="7.3" y2="14.1"/>
	<line class="st0" x1="9.1" y1="18.4" x2="9.1" y2="18.4"/>
	<line class="st0" x1="1.7" y1="18.5" x2="1.7" y2="18.5"/>
	<line class="st0" x1="48.2" y1="22.1" x2="48.2" y2="22.1"/>
	<line class="st0" x1="52.1" y1="22.3" x2="52.1" y2="22.3"/>
	<line class="st0" x1="1.1" y1="6.7" x2="1.1" y2="6.7"/>
	<line class="st0" x1="13.3" y1="5.1" x2="13.3" y2="5.1"/>
	<line class="st0" x1="3" y1="5.3" x2="3" y2="5.3"/>
	<line class="st0" x1="13.9" y1="14.4" x2="13.9" y2="14.4"/>
	<line class="st0" x1="15.9" y1="27.7" x2="15.9" y2="27.7"/>
	<line class="st0" x1="0.6" y1="33.2" x2="0.6" y2="33.2"/>
	<line class="st0" x1="52.1" y1="49.3" x2="52.1" y2="49.3"/>
	<line class="st0" x1="43.1" y1="51.7" x2="43.1" y2="51.7"/>
	<line class="st0" x1="3.5" y1="45.4" x2="3.5" y2="45.4"/>
	<line class="st0" x1="20" y1="45" x2="20" y2="45"/>
	<line class="st0" x1="39.2" y1="28.5" x2="39.2" y2="28.5"/>
	<line class="st0" x1="48.5" y1="34.3" x2="48.5" y2="34.3"/>
	<line class="st0" x1="36.8" y1="49.2" x2="36.8" y2="49.2"/>
	<line class="st0" x1="30" y1="28.3" x2="30" y2="28.3"/>
	<line class="st0" x1="14.8" y1="19.9" x2="14.8" y2="19.9"/>
	<line class="st0" x1="8.8" y1="1.3" x2="8.8" y2="1.3"/>
	<line class="st0" x1="36" y1="51.7" x2="36" y2="51.7"/>
	<line class="st0" x1="14.3" y1="11.4" x2="14.3" y2="11.4"/>
	<line class="st0" x1="9.6" y1="12" x2="9.6" y2="12"/>
	<line class="st0" x1="4.5" y1="8.8" x2="4.5" y2="8.8"/>
	<line class="st0" x1="5.2" y1="2.1" x2="5.2" y2="2.1"/>
	<line class="st0" x1="9.8" y1="5.2" x2="9.8" y2="5.2"/>
	<line class="st0" x1="19.3" y1="5.2" x2="19.3" y2="5.2"/>
	<line class="st0" x1="27.7" y1="5.6" x2="27.7" y2="5.6"/>
	<line class="st0" x1="32.6" y1="1.1" x2="32.6" y2="1.1"/>
	<line class="st0" x1="38.4" y1="6.7" x2="38.4" y2="6.7"/>
	<line class="st0" x1="26.8" y1="8.2" x2="26.8" y2="8.2"/>
	<line class="st0" x1="29.4" y1="11.2" x2="29.4" y2="11.2"/>
	<line class="st0" x1="19.1" y1="12" x2="19.1" y2="12"/>
	<line class="st0" x1="5.4" y1="20.8" x2="5.4" y2="20.8"/>
	<line class="st0" x1="7.9" y1="25.1" x2="7.9" y2="25.1"/>
	<line class="st0" x1="4" y1="28.7" x2="4" y2="28.7"/>
	<line class="st0" x1="2.4" y1="15.4" x2="2.4" y2="15.4"/>
	<line class="st0" x1="13.1" y1="26.6" x2="13.1" y2="26.6"/>
	<line class="st0" x1="12" y1="29.2" x2="12" y2="29.2"/>
	<line class="st0" x1="9.6" y1="34.9" x2="9.6" y2="34.9"/>
	<line class="st0" x1="8.8" y1="41.5" x2="8.8" y2="41.5"/>
	<line class="st0" x1="4.5" y1="47.6" x2="4.5" y2="47.6"/>
	<line class="st0" x1="1.7" y1="46.5" x2="1.7" y2="46.5"/>
	<line class="st0" x1="10.1" y1="52.1" x2="10.1" y2="52.1"/>
	<line class="st0" x1="16.3" y1="53" x2="16.3" y2="53"/>
	<line class="st0" x1="24.5" y1="49" x2="24.5" y2="49"/>
	<line class="st0" x1="16.8" y1="45.4" x2="16.8" y2="45.4"/>
	<line class="st0" x1="19.7" y1="35.8" x2="19.7" y2="35.8"/>
	<line class="st0" x1="19.3" y1="32.6" x2="19.3" y2="32.6"/>
	<line class="st0" x1="25.7" y1="20.2" x2="25.7" y2="20.2"/>
	<line class="st0" x1="32.8" y1="18.7" x2="32.8" y2="18.7"/>
	<line class="st0" x1="32.2" y1="15.6" x2="32.2" y2="15.6"/>
	<line class="st0" x1="34" y1="12.3" x2="34" y2="12.3"/>
	<line class="st0" x1="37.9" y1="13.5" x2="37.9" y2="13.5"/>
	<line class="st0" x1="44.6" y1="12.9" x2="44.6" y2="12.9"/>
	<line class="st0" x1="44.6" y1="8.1" x2="44.6" y2="8.1"/>
	<line class="st0" x1="44" y1="5.6" x2="44" y2="5.6"/>
	<line class="st0" x1="50.6" y1="4.5" x2="50.6" y2="4.5"/>
	<line class="st0" x1="47.6" y1="6.9" x2="47.6" y2="6.9"/>
	<line class="st0" x1="44.3" y1="18.7" x2="44.3" y2="18.7"/>
	<line class="st0" x1="41.3" y1="18.8" x2="41.3" y2="18.8"/>
	<line class="st0" x1="41.6" y1="14.1" x2="41.6" y2="14.1"/>
	<line class="st0" x1="49.1" y1="18.5" x2="49.1" y2="18.5"/>
	<line class="st0" x1="39.1" y1="25.5" x2="39.1" y2="25.5"/>
	<line class="st0" x1="35.6" y1="25.3" x2="35.6" y2="25.3"/>
	<line class="st0" x1="33.2" y1="29.4" x2="33.2" y2="29.4"/>
	<line class="st0" x1="25" y1="32.2" x2="25" y2="32.2"/>
	<line class="st0" x1="30.2" y1="33.8" x2="30.2" y2="33.8"/>
	<line class="st0" x1="34.3" y1="39.2" x2="34.3" y2="39.2"/>
	<line class="st0" x1="34.9" y1="42.5" x2="34.9" y2="42.5"/>
	<line class="st0" x1="31.6" y1="45" x2="31.6" y2="45"/>
	<line class="st0" x1="30" y1="47" x2="30" y2="47"/>
	<line class="st0" x1="27.6" y1="48.3" x2="27.6" y2="48.3"/>
	<line class="st0" x1="27.4" y1="39.5" x2="27.4" y2="39.5"/>
	<line class="st0" x1="22.7" y1="46.7" x2="22.7" y2="46.7"/>
	<line class="st0" x1="28.1" y1="52.5" x2="28.1" y2="52.5"/>
	<line class="st0" x1="47.2" y1="42.7" x2="47.2" y2="42.7"/>
	<line class="st0" x1="44.8" y1="39.2" x2="44.8" y2="39.2"/>
	<line class="st0" x1="40.8" y1="38.7" x2="40.8" y2="38.7"/>
	<line class="st0" x1="41.5" y1="32.3" x2="41.5" y2="32.3"/>
	<line class="st0" x1="46.9" y1="31.7" x2="46.9" y2="31.7"/>
	<line class="st0" x1="52.1" y1="40.7" x2="52.1" y2="40.7"/>
	<line class="st0" x1="47.6" y1="46.3" x2="47.6" y2="46.3"/>
	<line class="st0" x1="48.5" y1="49.1" x2="48.5" y2="49.1"/>
	<line class="st0" x1="46.9" y1="52.7" x2="46.9" y2="52.7"/>
	<line class="st0" x1="39.5" y1="52.3" x2="39.5" y2="52.3"/>
	<line class="st0" x1="31.9" y1="49.4" x2="31.9" y2="49.4"/>
	<line class="st0" x1="21.4" y1="53.4" x2="21.4" y2="53.4"/>
	<line class="st0" x1="1.5" y1="21.9" x2="1.5" y2="21.9"/>
	<line class="st0" x1="52.7" y1="25.9" x2="52.7" y2="25.9"/>
	<line class="st0" x1="2.2" y1="38.2" x2="2.2" y2="38.2"/>
	<line class="st0" x1="51.7" y1="19.9" x2="51.7" y2="19.9"/>
	<line class="st0" x1="50.6" y1="46.3" x2="50.6" y2="46.3"/>
	<line class="st0" x1="2.1" y1="53.4" x2="2.1" y2="53.4"/>
	<line class="st0" x1="0.9" y1="12.6" x2="0.9" y2="12.6"/>
	<line class="st0" x1="21.9" y1="7.5" x2="21.9" y2="7.5"/>
	<line class="st0" x1="30.2" y1="7.7" x2="30.2" y2="7.7"/>
	<line class="st0" x1="34.7" y1="7.7" x2="34.7" y2="7.7"/>
	<line class="st0" x1="41" y1="5.1" x2="41" y2="5.1"/>
	<line class="st0" x1="48" y1="4.9" x2="48" y2="4.9"/>
	<line class="st0" x1="47" y1="1.5" x2="47" y2="1.5"/>
	<line class="st0" x1="52.1" y1="13.5" x2="52.1" y2="13.5"/>
	<line class="st0" x1="6" y1="35.2" x2="6" y2="35.2"/>
	<line class="st0" x1="3.7" y1="42.5" x2="3.7" y2="42.5"/>
	<line class="st0" x1="2.4" y1="49.3" x2="2.4" y2="49.3"/>
	<line class="st0" x1="13.3" y1="52.3" x2="13.3" y2="52.3"/>
	<line class="st0" x1="15.7" y1="47.2" x2="15.7" y2="47.2"/>
	<line class="st0" x1="15.7" y1="33.9" x2="15.7" y2="33.9"/>
	<line class="st0" x1="20.3" y1="39.2" x2="20.3" y2="39.2"/>
	<line class="st0" x1="27.5" y1="45.4" x2="27.5" y2="45.4"/>
	<line class="st0" x1="31.3" y1="41.2" x2="31.3" y2="41.2"/>
	<line class="st0" x1="39.3" y1="45.2" x2="39.3" y2="45.2"/>
	<line class="st0" x1="37.1" y1="47.4" x2="37.1" y2="47.4"/>
	<line class="st0" x1="41.2" y1="48.9" x2="41.2" y2="48.9"/>
	<line class="st0" x1="18.9" y1="18.4" x2="18.9" y2="18.4"/>
	<line class="st0" x1="31.9" y1="21.2" x2="31.9" y2="21.2"/>
	<line class="st0" x1="39" y1="32.2" x2="39" y2="32.2"/>
	<line class="st0" x1="50.2" y1="38.8" x2="50.2" y2="38.8"/>
	<line class="st0" x1="34.3" y1="35.3" x2="34.3" y2="35.3"/>
	<line class="st0" x1="27.7" y1="33.4" x2="27.7" y2="33.4"/>
	<line class="st0" x1="12.7" y1="21.4" x2="12.7" y2="21.4"/>
	<line class="st0" x1="8.4" y1="27.6" x2="8.4" y2="27.6"/>
	<line class="st0" x1="49.5" y1="25.2" x2="49.5" y2="25.2"/>
	<line class="st0" x1="5.4" y1="11.8" x2="5.4" y2="11.8"/>
	<line class="st0" x1="2.6" y1="1.9" x2="2.6" y2="1.9"/>
	<line class="st0" x1="49.9" y1="27.9" x2="49.9" y2="27.9"/>
	<line class="st0" x1="33" y1="47.2" x2="33" y2="47.2"/>
	<line class="st0" x1="19.3" y1="52.5" x2="19.3" y2="52.5"/>
	<line class="st0" x1="13.3" y1="32.2" x2="13.3" y2="32.2"/>
	<line class="st0" x1="31.1" y1="25.9" x2="31.1" y2="25.9"/>
	<line class="st0" x1="39.9" y1="11.2" x2="39.9" y2="11.2"/>
	<line class="st0" x1="28.5" y1="13.3" x2="28.5" y2="13.3"/>
	<line class="st0" x1="9.7" y1="15" x2="9.7" y2="15"/>
	<line class="st0" x1="44.2" y1="15.6" x2="44.2" y2="15.6"/>
	<line class="st0" x1="50.6" y1="42.9" x2="50.6" y2="42.9"/>
	<line class="st0" x1="3.9" y1="52.3" x2="3.9" y2="52.3"/>
	<line class="st0" x1="12.7" y1="2.1" x2="12.7" y2="2.1"/>
	<line class="st0" x1="1.1" y1="3.4" x2="1.1" y2="3.4"/>
	<line class="st0" x1="3.1" y1="3.4" x2="3.1" y2="3.4"/>
	<line class="st0" x1="5.1" y1="3.4" x2="5.1" y2="3.4"/>
	<line class="st0" x1="7.1" y1="3.4" x2="7.1" y2="3.4"/>
	<line class="st0" x1="9.1" y1="3.4" x2="9.1" y2="3.4"/>
	<line class="st0" x1="11.1" y1="3.4" x2="11.1" y2="3.4"/>
	<line class="st0" x1="13.1" y1="3.4" x2="13.1" y2="3.4"/>
	<line class="st0" x1="15.1" y1="3.4" x2="15.1" y2="3.4"/>
	<line class="st0" x1="17.1" y1="3.4" x2="17.1" y2="3.4"/>
	<line class="st0" x1="19.1" y1="3.4" x2="19.1" y2="3.4"/>
	<line class="st0" x1="21.1" y1="3.4" x2="21.1" y2="3.4"/>
	<line class="st0" x1="23.1" y1="3.4" x2="23.1" y2="3.4"/>
	<line class="st0" x1="25.1" y1="3.4" x2="25.1" y2="3.4"/>
	<line class="st0" x1="27.1" y1="3.4" x2="27.1" y2="3.4"/>
	<line class="st0" x1="29.1" y1="3.4" x2="29.1" y2="3.4"/>
	<line class="st0" x1="31.1" y1="3.4" x2="31.1" y2="3.4"/>
	<line class="st0" x1="33.1" y1="3.4" x2="33.1" y2="3.4"/>
	<line class="st0" x1="35.1" y1="3.4" x2="35.1" y2="3.4"/>
	<line class="st0" x1="37.1" y1="3.4" x2="37.1" y2="3.4"/>
	<line class="st0" x1="39.1" y1="3.4" x2="39.1" y2="3.4"/>
	<line class="st0" x1="41.1" y1="3.4" x2="41.1" y2="3.4"/>
	<line class="st0" x1="43.1" y1="3.4" x2="43.1" y2="3.4"/>
	<line class="st0" x1="45.1" y1="3.4" x2="45.1" y2="3.4"/>
	<line class="st0" x1="47.1" y1="3.4" x2="47.1" y2="3.4"/>
	<line class="st0" x1="49.1" y1="3.4" x2="49.1" y2="3.4"/>
	<line class="st0" x1="51.1" y1="3.4" x2="51.1" y2="3.4"/>
	<line class="st0" x1="53.1" y1="3.4" x2="53.1" y2="3.4"/>
	<line class="st0" x1="1" y1="10.1" x2="1" y2="10.1"/>
	<line class="st0" x1="3" y1="10.1" x2="3" y2="10.1"/>
	<line class="st0" x1="5" y1="10.1" x2="5" y2="10.1"/>
	<line class="st0" x1="7" y1="10.1" x2="7" y2="10.1"/>
	<line class="st0" x1="9" y1="10.1" x2="9" y2="10.1"/>
	<line class="st0" x1="11" y1="10.1" x2="11" y2="10.1"/>
	<line class="st0" x1="13" y1="10.1" x2="13" y2="10.1"/>
	<line class="st0" x1="15" y1="10.1" x2="15" y2="10.1"/>
	<line class="st0" x1="17" y1="10.1" x2="17" y2="10.1"/>
	<line class="st0" x1="19" y1="10.1" x2="19" y2="10.1"/>
	<line class="st0" x1="21" y1="10.1" x2="21" y2="10.1"/>
	<line class="st0" x1="23" y1="10.1" x2="23" y2="10.1"/>
	<line class="st0" x1="25" y1="10.1" x2="25" y2="10.1"/>
	<line class="st0" x1="27" y1="10.1" x2="27" y2="10.1"/>
	<line class="st0" x1="29" y1="10.1" x2="29" y2="10.1"/>
	<line class="st0" x1="31" y1="10.1" x2="31" y2="10.1"/>
	<line class="st0" x1="33" y1="10.1" x2="33" y2="10.1"/>
	<line class="st0" x1="35" y1="10.1" x2="35" y2="10.1"/>
	<line class="st0" x1="37" y1="10.1" x2="37" y2="10.1"/>
	<line class="st0" x1="39" y1="10.1" x2="39" y2="10.1"/>
	<line class="st0" x1="41" y1="10.1" x2="41" y2="10.1"/>
	<line class="st0" x1="43" y1="10.1" x2="43" y2="10.1"/>
	<line class="st0" x1="45" y1="10.1" x2="45" y2="10.1"/>
	<line class="st0" x1="47" y1="10.1" x2="47" y2="10.1"/>
	<line class="st0" x1="49" y1="10.1" x2="49" y2="10.1"/>
	<line class="st0" x1="51" y1="10.1" x2="51" y2="10.1"/>
	<line class="st0" x1="53" y1="10.1" x2="53" y2="10.1"/>
	<line class="st0" x1="1" y1="16.9" x2="1" y2="16.9"/>
	<line class="st0" x1="3" y1="16.9" x2="3" y2="16.9"/>
	<line class="st0" x1="5" y1="16.9" x2="5" y2="16.9"/>
	<line class="st0" x1="7" y1="16.9" x2="7" y2="16.9"/>
	<line class="st0" x1="9" y1="16.9" x2="9" y2="16.9"/>
	<line class="st0" x1="11" y1="16.9" x2="11" y2="16.9"/>
	<line class="st0" x1="13" y1="16.9" x2="13" y2="16.9"/>
	<line class="st0" x1="15" y1="16.9" x2="15" y2="16.9"/>
	<line class="st0" x1="17" y1="16.9" x2="17" y2="16.9"/>
	<line class="st0" x1="19" y1="16.9" x2="19" y2="16.9"/>
	<line class="st0" x1="21" y1="16.9" x2="21" y2="16.9"/>
	<line class="st0" x1="23" y1="16.9" x2="23" y2="16.9"/>
	<line class="st0" x1="25" y1="16.9" x2="25" y2="16.9"/>
	<line class="st0" x1="27" y1="16.9" x2="27" y2="16.9"/>
	<line class="st0" x1="29" y1="16.9" x2="29" y2="16.9"/>
	<line class="st0" x1="31" y1="16.9" x2="31" y2="16.9"/>
	<line class="st0" x1="33" y1="16.9" x2="33" y2="16.9"/>
	<line class="st0" x1="35" y1="16.9" x2="35" y2="16.9"/>
	<line class="st0" x1="37" y1="16.9" x2="37" y2="16.9"/>
	<line class="st0" x1="39" y1="16.9" x2="39" y2="16.9"/>
	<line class="st0" x1="41" y1="16.9" x2="41" y2="16.9"/>
	<line class="st0" x1="43" y1="16.9" x2="43" y2="16.9"/>
	<line class="st0" x1="45" y1="16.9" x2="45" y2="16.9"/>
	<line class="st0" x1="47" y1="16.9" x2="47" y2="16.9"/>
	<line class="st0" x1="49" y1="16.9" x2="49" y2="16.9"/>
	<line class="st0" x1="51" y1="16.9" x2="51" y2="16.9"/>
	<line class="st0" x1="53" y1="16.9" x2="53" y2="16.9"/>
	<line class="st0" x1="0.9" y1="23.6" x2="0.9" y2="23.6"/>
	<line class="st0" x1="3" y1="23.6" x2="3" y2="23.6"/>
	<line class="st0" x1="5" y1="23.6" x2="5" y2="23.6"/>
	<line class="st0" x1="7" y1="23.6" x2="7" y2="23.6"/>
	<line class="st0" x1="9" y1="23.6" x2="9" y2="23.6"/>
	<line class="st0" x1="10.9" y1="23.6" x2="10.9" y2="23.6"/>
	<line class="st0" x1="12.9" y1="23.6" x2="12.9" y2="23.6"/>
	<line class="st0" x1="14.9" y1="23.6" x2="14.9" y2="23.6"/>
	<line class="st0" x1="17" y1="23.6" x2="17" y2="23.6"/>
	<line class="st0" x1="19" y1="23.6" x2="19" y2="23.6"/>
	<line class="st0" x1="21" y1="23.6" x2="21" y2="23.6"/>
	<line class="st0" x1="23" y1="23.6" x2="23" y2="23.6"/>
	<line class="st0" x1="25" y1="23.6" x2="25" y2="23.6"/>
	<line class="st0" x1="27" y1="23.6" x2="27" y2="23.6"/>
	<line class="st0" x1="29" y1="23.6" x2="29" y2="23.6"/>
	<line class="st0" x1="31" y1="23.6" x2="31" y2="23.6"/>
	<line class="st0" x1="33" y1="23.6" x2="33" y2="23.6"/>
	<line class="st0" x1="35" y1="23.6" x2="35" y2="23.6"/>
	<line class="st0" x1="37" y1="23.6" x2="37" y2="23.6"/>
	<line class="st0" x1="39" y1="23.6" x2="39" y2="23.6"/>
	<line class="st0" x1="41" y1="23.6" x2="41" y2="23.6"/>
	<line class="st0" x1="43" y1="23.6" x2="43" y2="23.6"/>
	<line class="st0" x1="45" y1="23.6" x2="45" y2="23.6"/>
	<line class="st0" x1="47" y1="23.6" x2="47" y2="23.6"/>
	<line class="st0" x1="49" y1="23.6" x2="49" y2="23.6"/>
	<line class="st0" x1="51" y1="23.6" x2="51" y2="23.6"/>
	<line class="st0" x1="53" y1="23.6" x2="53" y2="23.6"/>
	<line class="st0" x1="0.9" y1="30.4" x2="0.9" y2="30.4"/>
	<line class="st0" x1="2.9" y1="30.4" x2="2.9" y2="30.4"/>
	<line class="st0" x1="4.9" y1="30.4" x2="4.9" y2="30.4"/>
	<line class="st0" x1="6.9" y1="30.4" x2="6.9" y2="30.4"/>
	<line class="st0" x1="8.9" y1="30.4" x2="8.9" y2="30.4"/>
	<line class="st0" x1="10.9" y1="30.4" x2="10.9" y2="30.4"/>
	<line class="st0" x1="12.9" y1="30.4" x2="12.9" y2="30.4"/>
	<line class="st0" x1="14.9" y1="30.4" x2="14.9" y2="30.4"/>
	<line class="st0" x1="16.9" y1="30.4" x2="16.9" y2="30.4"/>
	<line class="st0" x1="18.9" y1="30.4" x2="18.9" y2="30.4"/>
	<line class="st0" x1="20.9" y1="30.4" x2="20.9" y2="30.4"/>
	<line class="st0" x1="22.9" y1="30.4" x2="22.9" y2="30.4"/>
	<line class="st0" x1="24.9" y1="30.4" x2="24.9" y2="30.4"/>
	<line class="st0" x1="26.9" y1="30.4" x2="26.9" y2="30.4"/>
	<line class="st0" x1="28.9" y1="30.4" x2="28.9" y2="30.4"/>
	<line class="st0" x1="30.9" y1="30.4" x2="30.9" y2="30.4"/>
	<line class="st0" x1="32.9" y1="30.4" x2="32.9" y2="30.4"/>
	<line class="st0" x1="34.9" y1="30.4" x2="34.9" y2="30.4"/>
	<line class="st0" x1="36.9" y1="30.4" x2="36.9" y2="30.4"/>
	<line class="st0" x1="38.9" y1="30.4" x2="38.9" y2="30.4"/>
	<line class="st0" x1="40.9" y1="30.4" x2="40.9" y2="30.4"/>
	<line class="st0" x1="42.9" y1="30.4" x2="42.9" y2="30.4"/>
	<line class="st0" x1="44.9" y1="30.4" x2="44.9" y2="30.4"/>
	<line class="st0" x1="46.9" y1="30.4" x2="46.9" y2="30.4"/>
	<line class="st0" x1="48.9" y1="30.4" x2="48.9" y2="30.4"/>
	<line class="st0" x1="50.9" y1="30.4" x2="50.9" y2="30.4"/>
	<line class="st0" x1="52.9" y1="30.4" x2="52.9" y2="30.4"/>
	<line class="st0" x1="0.8" y1="37.1" x2="0.8" y2="37.1"/>
	<line class="st0" x1="2.8" y1="37.1" x2="2.8" y2="37.1"/>
	<line class="st0" x1="4.8" y1="37.1" x2="4.8" y2="37.1"/>
	<line class="st0" x1="6.8" y1="37.1" x2="6.8" y2="37.1"/>
	<line class="st0" x1="8.8" y1="37.1" x2="8.8" y2="37.1"/>
	<line class="st0" x1="10.8" y1="37.1" x2="10.8" y2="37.1"/>
	<line class="st0" x1="12.8" y1="37.1" x2="12.8" y2="37.1"/>
	<line class="st0" x1="14.8" y1="37.1" x2="14.8" y2="37.1"/>
	<line class="st0" x1="16.8" y1="37.1" x2="16.8" y2="37.1"/>
	<line class="st0" x1="18.8" y1="37.1" x2="18.8" y2="37.1"/>
	<line class="st0" x1="20.8" y1="37.1" x2="20.8" y2="37.1"/>
	<line class="st0" x1="22.8" y1="37.1" x2="22.8" y2="37.1"/>
	<line class="st0" x1="24.8" y1="37.1" x2="24.8" y2="37.1"/>
	<line class="st0" x1="26.8" y1="37.1" x2="26.8" y2="37.1"/>
	<line class="st0" x1="28.8" y1="37.1" x2="28.8" y2="37.1"/>
	<line class="st0" x1="30.8" y1="37.1" x2="30.8" y2="37.1"/>
	<line class="st0" x1="32.8" y1="37.1" x2="32.8" y2="37.1"/>
	<line class="st0" x1="34.8" y1="37.1" x2="34.8" y2="37.1"/>
	<line class="st0" x1="36.8" y1="37.1" x2="36.8" y2="37.1"/>
	<line class="st0" x1="38.8" y1="37.1" x2="38.8" y2="37.1"/>
	<line class="st0" x1="40.8" y1="37.1" x2="40.8" y2="37.1"/>
	<line class="st0" x1="42.8" y1="37.1" x2="42.8" y2="37.1"/>
	<line class="st0" x1="44.9" y1="37.1" x2="44.9" y2="37.1"/>
	<line class="st0" x1="46.9" y1="37.1" x2="46.9" y2="37.1"/>
	<line class="st0" x1="48.9" y1="37.1" x2="48.9" y2="37.1"/>
	<line class="st0" x1="50.9" y1="37.1" x2="50.9" y2="37.1"/>
	<line class="st0" x1="52.8" y1="37.1" x2="52.8" y2="37.1"/>
	<line class="st0" x1="0.8" y1="43.9" x2="0.8" y2="43.9"/>
	<line class="st0" x1="2.8" y1="43.9" x2="2.8" y2="43.9"/>
	<line class="st0" x1="4.8" y1="43.9" x2="4.8" y2="43.9"/>
	<line class="st0" x1="6.8" y1="43.9" x2="6.8" y2="43.9"/>
	<line class="st0" x1="8.8" y1="43.9" x2="8.8" y2="43.9"/>
	<line class="st0" x1="10.8" y1="43.9" x2="10.8" y2="43.9"/>
	<line class="st0" x1="12.8" y1="43.9" x2="12.8" y2="43.9"/>
	<line class="st0" x1="14.8" y1="43.9" x2="14.8" y2="43.9"/>
	<line class="st0" x1="16.8" y1="43.9" x2="16.8" y2="43.9"/>
	<line class="st0" x1="18.8" y1="43.9" x2="18.8" y2="43.9"/>
	<line class="st0" x1="20.8" y1="43.9" x2="20.8" y2="43.9"/>
	<line class="st0" x1="22.8" y1="43.9" x2="22.8" y2="43.9"/>
	<line class="st0" x1="24.8" y1="43.9" x2="24.8" y2="43.9"/>
	<line class="st0" x1="26.8" y1="43.9" x2="26.8" y2="43.9"/>
	<line class="st0" x1="28.8" y1="43.9" x2="28.8" y2="43.9"/>
	<line class="st0" x1="30.8" y1="43.9" x2="30.8" y2="43.9"/>
	<line class="st0" x1="32.8" y1="43.9" x2="32.8" y2="43.9"/>
	<line class="st0" x1="34.8" y1="43.9" x2="34.8" y2="43.9"/>
	<line class="st0" x1="36.8" y1="43.9" x2="36.8" y2="43.9"/>
	<line class="st0" x1="38.8" y1="43.9" x2="38.8" y2="43.9"/>
	<line class="st0" x1="40.8" y1="43.9" x2="40.8" y2="43.9"/>
	<line class="st0" x1="42.8" y1="43.9" x2="42.8" y2="43.9"/>
	<line class="st0" x1="44.8" y1="43.9" x2="44.8" y2="43.9"/>
	<line class="st0" x1="46.8" y1="43.9" x2="46.8" y2="43.9"/>
	<line class="st0" x1="48.8" y1="43.9" x2="48.8" y2="43.9"/>
	<line class="st0" x1="50.8" y1="43.9" x2="50.8" y2="43.9"/>
	<line class="st0" x1="52.8" y1="43.9" x2="52.8" y2="43.9"/>
	<line class="st0" x1="0.8" y1="50.6" x2="0.8" y2="50.6"/>
	<line class="st0" x1="2.8" y1="50.6" x2="2.8" y2="50.6"/>
	<line class="st0" x1="4.8" y1="50.6" x2="4.8" y2="50.6"/>
	<line class="st0" x1="6.8" y1="50.6" x2="6.8" y2="50.6"/>
	<line class="st0" x1="8.8" y1="50.6" x2="8.8" y2="50.6"/>
	<line class="st0" x1="10.8" y1="50.6" x2="10.8" y2="50.6"/>
	<line class="st0" x1="12.8" y1="50.6" x2="12.8" y2="50.6"/>
	<line class="st0" x1="14.8" y1="50.6" x2="14.8" y2="50.6"/>
	<line class="st0" x1="16.8" y1="50.6" x2="16.8" y2="50.6"/>
	<line class="st0" x1="18.8" y1="50.6" x2="18.8" y2="50.6"/>
	<line class="st0" x1="20.8" y1="50.6" x2="20.8" y2="50.6"/>
	<line class="st0" x1="22.8" y1="50.6" x2="22.8" y2="50.6"/>
	<line class="st0" x1="24.8" y1="50.6" x2="24.8" y2="50.6"/>
	<line class="st0" x1="26.8" y1="50.6" x2="26.8" y2="50.6"/>
	<line class="st0" x1="28.8" y1="50.6" x2="28.8" y2="50.6"/>
	<line class="st0" x1="30.8" y1="50.6" x2="30.8" y2="50.6"/>
	<line class="st0" x1="32.8" y1="50.6" x2="32.8" y2="50.6"/>
	<line class="st0" x1="34.8" y1="50.6" x2="34.8" y2="50.6"/>
	<line class="st0" x1="36.8" y1="50.6" x2="36.8" y2="50.6"/>
	<line class="st0" x1="38.8" y1="50.6" x2="38.8" y2="50.6"/>
	<line class="st0" x1="40.8" y1="50.6" x2="40.8" y2="50.6"/>
	<line class="st0" x1="42.8" y1="50.6" x2="42.8" y2="50.6"/>
	<line class="st0" x1="44.8" y1="50.6" x2="44.8" y2="50.6"/>
	<line class="st0" x1="46.8" y1="50.6" x2="46.8" y2="50.6"/>
	<line class="st0" x1="48.8" y1="50.6" x2="48.8" y2="50.6"/>
	<line class="st0" x1="50.8" y1="50.6" x2="50.8" y2="50.6"/>
	<line class="st0" x1="52.8" y1="50.6" x2="52.8" y2="50.6"/>
	<line class="st0" x1="5.6" y1="18.7" x2="5.6" y2="18.7"/>
	<line class="st0" x1="2.4" y1="35.4" x2="2.4" y2="35.4"/>
	<line class="st0" x1="7.6" y1="45.2" x2="7.6" y2="45.2"/>
	<line class="st0" x1="10.1" y1="49.3" x2="10.1" y2="49.3"/>
	<line class="st0" x1="16.5" y1="39.9" x2="16.5" y2="39.9"/>
	<line class="st0" x1="25.5" y1="25.5" x2="25.5" y2="25.5"/>
	<line class="st0" x1="19.5" y1="25.5" x2="19.5" y2="25.5"/>
	<line class="st0" x1="27.9" y1="21.4" x2="27.9" y2="21.4"/>
	<line class="st0" x1="45.9" y1="20.2" x2="45.9" y2="20.2"/>
	<line class="st0" x1="44" y1="42.7" x2="44" y2="42.7"/>
	<line class="st0" x1="44" y1="31.9" x2="44" y2="31.9"/>
	<line class="st0" x1="41.8" y1="26.6" x2="41.8" y2="26.6"/>
	<line class="st0" x1="51.9" y1="52.9" x2="51.9" y2="52.9"/>
	<line class="st0" x1="45.5" y1="49.3" x2="45.5" y2="49.3"/>
	<line class="st0" x1="33.4" y1="53.4" x2="33.4" y2="53.4"/>
	<line class="st0" x1="18.4" y1="0.7" x2="18.4" y2="0.7"/>
	<line class="st0" x1="26.1" y1="27.9" x2="26.1" y2="27.9"/>
	<line class="st0" x1="44.2" y1="25.1" x2="44.2" y2="25.1"/>
	<line class="st0" x1="5.4" y1="32.2" x2="5.4" y2="32.2"/>
	<line class="st0" x1="7.7" y1="6.9" x2="7.7" y2="6.9"/>
	<line class="st0" x1="18.2" y1="7.9" x2="18.2" y2="7.9"/>
	<line class="st0" x1="5.1" y1="6.4" x2="5.1" y2="6.4"/>
	<line class="st0" x1="4.9" y1="25.5" x2="4.9" y2="25.5"/>
	<line class="st0" x1="16.5" y1="25.1" x2="16.5" y2="25.1"/>
	<line class="st0" x1="22.3" y1="33.2" x2="22.3" y2="33.2"/>
	<line class="st0" x1="47.4" y1="40.3" x2="47.4" y2="40.3"/>
	<line class="st0" x1="37.3" y1="0.9" x2="37.3" y2="0.9"/>
	<line class="st0" x1="53.4" y1="47.2" x2="53.4" y2="47.2"/>
	<line class="st0" x1="53.3" y1="38.7" x2="53.3" y2="38.7"/>
	<line class="st0" x1="52.9" y1="8.2" x2="52.9" y2="8.2"/>
	<line class="st0" x1="53.2" y1="28.7" x2="53.2" y2="28.7"/>
	<line class="st0" x1="29.8" y1="1.3" x2="29.8" y2="1.3"/>
	<line class="st0" x1="15.7" y1="2.2" x2="15.7" y2="2.2"/>
	<line class="st0" x1="23.8" y1="8.8" x2="23.8" y2="8.8"/>
	<line class="st0" x1="50.3" y1="15.2" x2="50.3" y2="15.2"/>
	<line class="st0" x1="31.2" y1="35.7" x2="31.2" y2="35.7"/>
	<line class="st0" x1="41.2" y1="40.7" x2="41.2" y2="40.7"/>
	<line class="st0" x1="17.1" y1="13.7" x2="17.1" y2="13.7"/>
	<line class="st0" x1="25.7" y1="20.2" x2="25.7" y2="20.2"/>
	<line class="st0" x1="37.9" y1="13.5" x2="37.9" y2="13.5"/>
	<line class="st0" x1="36.5" y1="28.6" x2="36.5" y2="28.6"/>
	<line class="st0" x1="9.3" y1="38.9" x2="9.3" y2="38.9"/>
	<line class="st0" x1="10.1" y1="49.3" x2="10.1" y2="49.3"/>
	<line class="st0" x1="33.4" y1="53.4" x2="33.4" y2="53.4"/>
	<line class="st0" x1="44.2" y1="25.1" x2="44.2" y2="25.1"/>
	<line class="st0" x1="53.4" y1="47.2" x2="53.4" y2="47.2"/>
</g>
</svg>
