<?xml version="1.0" encoding="utf-8"?>
<!-- Generator: Adobe Illustrator 23.0.1, SVG Export Plug-In . SVG Version: 6.00 Build 0)  -->
<svg version="1.1" id="Layer_1" xmlns="http://www.w3.org/2000/svg" xmlns:xlink="http://www.w3.org/1999/xlink" x="0px" y="0px"
	 viewBox="0 0 54 54" style="enable-background:new 0 0 54 54;" xml:space="preserve">
<style type="text/css">
	.st0{clip-path:url(#SVGID_2_);fill:none;stroke:#000000;stroke-width:0.7;stroke-linecap:round;}
</style>
<g>
	<defs>
		<rect id="SVGID_1_" x="0" width="54" height="54"/>
	</defs>
	<clipPath id="SVGID_2_">
		<use xlink:href="#SVGID_1_"  style="overflow:visible;"/>
	</clipPath>
	<line class="st0" x1="8.6" y1="15" x2="8.6" y2="15"/>
	<line class="st0" x1="10.5" y1="15.8" x2="10.5" y2="15.8"/>
	<line class="st0" x1="10.5" y1="15.8" x2="10.5" y2="15.8"/>
	<line class="st0" x1="6.7" y1="14.2" x2="6.7" y2="14.2"/>
	<line class="st0" x1="4.7" y1="13.5" x2="4.7" y2="13.5"/>
	<line class="st0" x1="8.6" y1="15" x2="8.6" y2="15"/>
	<line class="st0" x1="12.4" y1="16.4" x2="12.4" y2="16.4"/>
	<line class="st0" x1="14.3" y1="17" x2="14.3" y2="17"/>
	<line class="st0" x1="16.1" y1="17.6" x2="16.1" y2="17.6"/>
	<line class="st0" x1="18.1" y1="18.2" x2="18.1" y2="18.2"/>
	<line class="st0" x1="20" y1="18.8" x2="20" y2="18.8"/>
	<line class="st0" x1="21.8" y1="19.4" x2="21.8" y2="19.4"/>
	<line class="st0" x1="23.8" y1="20" x2="23.8" y2="20"/>
	<line class="st0" x1="25.7" y1="20.5" x2="25.7" y2="20.5"/>
	<line class="st0" x1="29.6" y1="21.6" x2="29.6" y2="21.6"/>
	<line class="st0" x1="27.6" y1="21" x2="27.6" y2="21"/>
	<line class="st0" x1="31.5" y1="22.1" x2="31.5" y2="22.1"/>
	<line class="st0" x1="33.5" y1="22.6" x2="33.5" y2="22.6"/>
	<line class="st0" x1="35.4" y1="23.1" x2="35.4" y2="23.1"/>
	<line class="st0" x1="37.4" y1="23.6" x2="37.4" y2="23.6"/>
	<line class="st0" x1="39.3" y1="24" x2="39.3" y2="24"/>
	<line class="st0" x1="41.2" y1="24.4" x2="41.2" y2="24.4"/>
	<line class="st0" x1="43.1" y1="24.7" x2="43.1" y2="24.7"/>
	<line class="st0" x1="47.2" y1="25.4" x2="47.2" y2="25.4"/>
	<line class="st0" x1="45.1" y1="25.1" x2="45.1" y2="25.1"/>
	<line class="st0" x1="49.1" y1="25.7" x2="49.1" y2="25.7"/>
	<line class="st0" x1="51.1" y1="25.9" x2="51.1" y2="25.9"/>
	<line class="st0" x1="53" y1="26" x2="53" y2="26"/>
	<line class="st0" x1="0.6" y1="12.6" x2="0.6" y2="12.6"/>
	<line class="st0" x1="2.7" y1="12.4" x2="2.7" y2="12.4"/>
	<line class="st0" x1="2.7" y1="12.4" x2="2.7" y2="12.4"/>
	<line class="st0" x1="0.6" y1="12.6" x2="0.6" y2="12.6"/>
	<line class="st0" x1="4.6" y1="12.1" x2="4.6" y2="12.1"/>
	<line class="st0" x1="6.6" y1="11.9" x2="6.6" y2="11.9"/>
	<line class="st0" x1="8.5" y1="11.6" x2="8.5" y2="11.6"/>
	<line class="st0" x1="10.6" y1="11.5" x2="10.6" y2="11.5"/>
	<line class="st0" x1="12.5" y1="11.1" x2="12.5" y2="11.1"/>
	<line class="st0" x1="14.5" y1="10.7" x2="14.5" y2="10.7"/>
	<line class="st0" x1="16.5" y1="10.5" x2="16.5" y2="10.5"/>
	<line class="st0" x1="18.5" y1="10" x2="18.5" y2="10"/>
	<line class="st0" x1="22.4" y1="9.4" x2="22.4" y2="9.4"/>
	<line class="st0" x1="20.4" y1="9.8" x2="20.4" y2="9.8"/>
	<line class="st0" x1="24.3" y1="9" x2="24.3" y2="9"/>
	<line class="st0" x1="26.3" y1="8.7" x2="26.3" y2="8.7"/>
	<line class="st0" x1="28.3" y1="8.2" x2="28.3" y2="8.2"/>
	<line class="st0" x1="30.3" y1="7.9" x2="30.3" y2="7.9"/>
	<line class="st0" x1="32.2" y1="7.4" x2="32.2" y2="7.4"/>
	<line class="st0" x1="34.1" y1="6.9" x2="34.1" y2="6.9"/>
	<line class="st0" x1="36.1" y1="6.6" x2="36.1" y2="6.6"/>
	<line class="st0" x1="40" y1="5.6" x2="40" y2="5.6"/>
	<line class="st0" x1="38" y1="6" x2="38" y2="6"/>
	<line class="st0" x1="41.9" y1="5" x2="41.9" y2="5"/>
	<line class="st0" x1="43.8" y1="4.5" x2="43.8" y2="4.5"/>
	<line class="st0" x1="45.8" y1="4" x2="45.8" y2="4"/>
	<line class="st0" x1="47.7" y1="3.3" x2="47.7" y2="3.3"/>
	<line class="st0" x1="51.5" y1="2.2" x2="51.5" y2="2.2"/>
	<line class="st0" x1="49.5" y1="2.7" x2="49.5" y2="2.7"/>
	<line class="st0" x1="53.4" y1="1.4" x2="53.4" y2="1.4"/>
	<line class="st0" x1="1.1" y1="7.7" x2="1.1" y2="7.7"/>
	<line class="st0" x1="3.1" y1="7.6" x2="3.1" y2="7.6"/>
	<line class="st0" x1="5" y1="7.5" x2="5" y2="7.5"/>
	<line class="st0" x1="7.1" y1="7.4" x2="7.1" y2="7.4"/>
	<line class="st0" x1="9.1" y1="7.2" x2="9.1" y2="7.2"/>
	<line class="st0" x1="11.1" y1="6.9" x2="11.1" y2="6.9"/>
	<line class="st0" x1="13.1" y1="6.8" x2="13.1" y2="6.8"/>
	<line class="st0" x1="15.1" y1="6.5" x2="15.1" y2="6.5"/>
	<line class="st0" x1="19" y1="6.2" x2="19" y2="6.2"/>
	<line class="st0" x1="17" y1="6.4" x2="17" y2="6.4"/>
	<line class="st0" x1="21" y1="6" x2="21" y2="6"/>
	<line class="st0" x1="23" y1="5.7" x2="23" y2="5.7"/>
	<line class="st0" x1="24.9" y1="5.4" x2="24.9" y2="5.4"/>
	<line class="st0" x1="27" y1="5.2" x2="27" y2="5.2"/>
	<line class="st0" x1="28.9" y1="4.8" x2="28.9" y2="4.8"/>
	<line class="st0" x1="30.9" y1="4.5" x2="30.9" y2="4.5"/>
	<line class="st0" x1="32.9" y1="4.3" x2="32.9" y2="4.3"/>
	<line class="st0" x1="36.8" y1="3.6" x2="36.8" y2="3.6"/>
	<line class="st0" x1="34.8" y1="3.9" x2="34.8" y2="3.9"/>
	<line class="st0" x1="38.8" y1="3.2" x2="38.8" y2="3.2"/>
	<line class="st0" x1="40.7" y1="2.8" x2="40.7" y2="2.8"/>
	<line class="st0" x1="42.7" y1="2.4" x2="42.7" y2="2.4"/>
	<line class="st0" x1="44.7" y1="1.9" x2="44.7" y2="1.9"/>
	<line class="st0" x1="48.5" y1="1" x2="48.5" y2="1"/>
	<line class="st0" x1="46.6" y1="1.4" x2="46.6" y2="1.4"/>
	<line class="st0" x1="50.5" y1="0.4" x2="50.5" y2="0.4"/>
	<line class="st0" x1="0.8" y1="4" x2="0.8" y2="4"/>
	<line class="st0" x1="2.7" y1="3.9" x2="2.7" y2="3.9"/>
	<line class="st0" x1="4.8" y1="3.8" x2="4.8" y2="3.8"/>
	<line class="st0" x1="6.8" y1="3.8" x2="6.8" y2="3.8"/>
	<line class="st0" x1="8.8" y1="3.6" x2="8.8" y2="3.6"/>
	<line class="st0" x1="12.8" y1="3.5" x2="12.8" y2="3.5"/>
	<line class="st0" x1="10.7" y1="3.6" x2="10.7" y2="3.6"/>
	<line class="st0" x1="14.7" y1="3.4" x2="14.7" y2="3.4"/>
	<line class="st0" x1="16.7" y1="3.3" x2="16.7" y2="3.3"/>
	<line class="st0" x1="18.7" y1="3.1" x2="18.7" y2="3.1"/>
	<line class="st0" x1="20.8" y1="3" x2="20.8" y2="3"/>
	<line class="st0" x1="22.7" y1="2.8" x2="22.7" y2="2.8"/>
	<line class="st0" x1="24.7" y1="2.6" x2="24.7" y2="2.6"/>
	<line class="st0" x1="26.7" y1="2.5" x2="26.7" y2="2.5"/>
	<line class="st0" x1="30.7" y1="2.1" x2="30.7" y2="2.1"/>
	<line class="st0" x1="28.7" y1="2.2" x2="28.7" y2="2.2"/>
	<line class="st0" x1="32.7" y1="1.8" x2="32.7" y2="1.8"/>
	<line class="st0" x1="34.6" y1="1.5" x2="34.6" y2="1.5"/>
	<line class="st0" x1="36.6" y1="1.2" x2="36.6" y2="1.2"/>
	<line class="st0" x1="38.6" y1="0.7" x2="38.6" y2="0.7"/>
	<line class="st0" x1="40.4" y1="0.4" x2="40.4" y2="0.4"/>
	<line class="st0" x1="52.6" y1="12.5" x2="52.6" y2="12.5"/>
	<line class="st0" x1="51.1" y1="7.8" x2="51.1" y2="7.8"/>
	<line class="st0" x1="53.2" y1="7.9" x2="53.2" y2="7.9"/>
	<line class="st0" x1="53.2" y1="7.9" x2="53.2" y2="7.9"/>
	<line class="st0" x1="49.1" y1="7.6" x2="49.1" y2="7.6"/>
	<line class="st0" x1="50.4" y1="12.6" x2="50.4" y2="12.6"/>
	<line class="st0" x1="43.4" y1="11.5" x2="43.4" y2="11.5"/>
	<line class="st0" x1="51.1" y1="7.8" x2="51.1" y2="7.8"/>
	<line class="st0" x1="50.8" y1="3.9" x2="50.8" y2="3.9"/>
	<line class="st0" x1="52.7" y1="3.9" x2="52.7" y2="3.9"/>
	<line class="st0" x1="42.3" y1="53.7" x2="42.3" y2="53.7"/>
	<line class="st0" x1="44" y1="53.1" x2="44" y2="53.1"/>
	<line class="st0" x1="0.8" y1="53" x2="0.8" y2="53"/>
	<line class="st0" x1="2.6" y1="53.1" x2="2.6" y2="53.1"/>
	<line class="st0" x1="4.6" y1="53.2" x2="4.6" y2="53.2"/>
	<line class="st0" x1="6.7" y1="53.3" x2="6.7" y2="53.3"/>
	<line class="st0" x1="8.9" y1="53.3" x2="8.9" y2="53.3"/>
	<line class="st0" x1="13" y1="53.4" x2="13" y2="53.4"/>
	<line class="st0" x1="10.9" y1="53.4" x2="10.9" y2="53.4"/>
	<line class="st0" x1="14.9" y1="53.4" x2="14.9" y2="53.4"/>
	<line class="st0" x1="17" y1="53.5" x2="17" y2="53.5"/>
	<line class="st0" x1="18.9" y1="53.4" x2="18.9" y2="53.4"/>
	<line class="st0" x1="21" y1="53.4" x2="21" y2="53.4"/>
	<line class="st0" x1="22.8" y1="53.2" x2="22.8" y2="53.2"/>
	<line class="st0" x1="24.8" y1="53.1" x2="24.8" y2="53.1"/>
	<line class="st0" x1="26.8" y1="53.1" x2="26.8" y2="53.1"/>
	<line class="st0" x1="30.9" y1="52.7" x2="30.9" y2="52.7"/>
	<line class="st0" x1="28.7" y1="52.9" x2="28.7" y2="52.9"/>
	<line class="st0" x1="32.9" y1="52.6" x2="32.9" y2="52.6"/>
	<line class="st0" x1="34.7" y1="52.3" x2="34.7" y2="52.3"/>
	<line class="st0" x1="36.6" y1="52.1" x2="36.6" y2="52.1"/>
	<line class="st0" x1="38.4" y1="51.9" x2="38.4" y2="51.9"/>
	<line class="st0" x1="0.7" y1="39.6" x2="0.7" y2="39.6"/>
	<line class="st0" x1="2.8" y1="39.5" x2="2.8" y2="39.5"/>
	<line class="st0" x1="2.8" y1="39.5" x2="2.8" y2="39.5"/>
	<line class="st0" x1="0.7" y1="39.6" x2="0.7" y2="39.6"/>
	<line class="st0" x1="4.9" y1="39.3" x2="4.9" y2="39.3"/>
	<line class="st0" x1="6.7" y1="39" x2="6.7" y2="39"/>
	<line class="st0" x1="8.7" y1="38.7" x2="8.7" y2="38.7"/>
	<line class="st0" x1="10.7" y1="38.5" x2="10.7" y2="38.5"/>
	<line class="st0" x1="12.6" y1="38.1" x2="12.6" y2="38.1"/>
	<line class="st0" x1="14.6" y1="37.8" x2="14.6" y2="37.8"/>
	<line class="st0" x1="16.6" y1="37.5" x2="16.6" y2="37.5"/>
	<line class="st0" x1="18.6" y1="37.1" x2="18.6" y2="37.1"/>
	<line class="st0" x1="22.5" y1="36.5" x2="22.5" y2="36.5"/>
	<line class="st0" x1="20.5" y1="36.8" x2="20.5" y2="36.8"/>
	<line class="st0" x1="24.5" y1="36.1" x2="24.5" y2="36.1"/>
	<line class="st0" x1="26.5" y1="35.7" x2="26.5" y2="35.7"/>
	<line class="st0" x1="28.4" y1="35.3" x2="28.4" y2="35.3"/>
	<line class="st0" x1="30.4" y1="34.9" x2="30.4" y2="34.9"/>
	<line class="st0" x1="32.3" y1="34.4" x2="32.3" y2="34.4"/>
	<line class="st0" x1="34.2" y1="34" x2="34.2" y2="34"/>
	<line class="st0" x1="36.2" y1="33.6" x2="36.2" y2="33.6"/>
	<line class="st0" x1="40.1" y1="32.6" x2="40.1" y2="32.6"/>
	<line class="st0" x1="38.1" y1="33.1" x2="38.1" y2="33.1"/>
	<line class="st0" x1="42" y1="32.1" x2="42" y2="32.1"/>
	<line class="st0" x1="44" y1="31.6" x2="44" y2="31.6"/>
	<line class="st0" x1="45.9" y1="31" x2="45.9" y2="31"/>
	<line class="st0" x1="47.8" y1="30.4" x2="47.8" y2="30.4"/>
	<line class="st0" x1="51.6" y1="29.2" x2="51.6" y2="29.2"/>
	<line class="st0" x1="49.7" y1="29.8" x2="49.7" y2="29.8"/>
	<line class="st0" x1="53.1" y1="28.6" x2="53.1" y2="28.6"/>
	<line class="st0" x1="1" y1="27.8" x2="1" y2="27.8"/>
	<line class="st0" x1="1.1" y1="35.2" x2="1.1" y2="35.2"/>
	<line class="st0" x1="3.1" y1="35.2" x2="3.1" y2="35.2"/>
	<line class="st0" x1="5.2" y1="35.1" x2="5.2" y2="35.1"/>
	<line class="st0" x1="7.3" y1="35" x2="7.3" y2="35"/>
	<line class="st0" x1="9.2" y1="34.8" x2="9.2" y2="34.8"/>
	<line class="st0" x1="11.2" y1="34.6" x2="11.2" y2="34.6"/>
	<line class="st0" x1="13.4" y1="34.4" x2="13.4" y2="34.4"/>
	<line class="st0" x1="15.2" y1="34.1" x2="15.2" y2="34.1"/>
	<line class="st0" x1="19.2" y1="33.4" x2="19.2" y2="33.4"/>
	<line class="st0" x1="17.2" y1="33.8" x2="17.2" y2="33.8"/>
	<line class="st0" x1="21.1" y1="33.1" x2="21.1" y2="33.1"/>
	<line class="st0" x1="23.1" y1="32.8" x2="23.1" y2="32.8"/>
	<line class="st0" x1="25.1" y1="32.5" x2="25.1" y2="32.5"/>
	<line class="st0" x1="27.1" y1="32.2" x2="27.1" y2="32.2"/>
	<line class="st0" x1="29" y1="31.9" x2="29" y2="31.9"/>
	<line class="st0" x1="31" y1="31.6" x2="31" y2="31.6"/>
	<line class="st0" x1="33" y1="31.3" x2="33" y2="31.3"/>
	<line class="st0" x1="37" y1="30.6" x2="37" y2="30.6"/>
	<line class="st0" x1="34.9" y1="30.9" x2="34.9" y2="30.9"/>
	<line class="st0" x1="38.9" y1="30.2" x2="38.9" y2="30.2"/>
	<line class="st0" x1="40.9" y1="29.8" x2="40.9" y2="29.8"/>
	<line class="st0" x1="42.8" y1="29.4" x2="42.8" y2="29.4"/>
	<line class="st0" x1="44.8" y1="28.9" x2="44.8" y2="28.9"/>
	<line class="st0" x1="48.6" y1="28" x2="48.6" y2="28"/>
	<line class="st0" x1="46.7" y1="28.4" x2="46.7" y2="28.4"/>
	<line class="st0" x1="50.6" y1="27.5" x2="50.6" y2="27.5"/>
	<line class="st0" x1="0.9" y1="31" x2="0.9" y2="31"/>
	<line class="st0" x1="2.9" y1="30.9" x2="2.9" y2="30.9"/>
	<line class="st0" x1="4.9" y1="30.8" x2="4.9" y2="30.8"/>
	<line class="st0" x1="6.9" y1="30.8" x2="6.9" y2="30.8"/>
	<line class="st0" x1="8.9" y1="30.7" x2="8.9" y2="30.7"/>
	<line class="st0" x1="12.9" y1="30.6" x2="12.9" y2="30.6"/>
	<line class="st0" x1="10.8" y1="30.7" x2="10.8" y2="30.7"/>
	<line class="st0" x1="14.8" y1="30.5" x2="14.8" y2="30.5"/>
	<line class="st0" x1="16.9" y1="30.4" x2="16.9" y2="30.4"/>
	<line class="st0" x1="18.8" y1="30.2" x2="18.8" y2="30.2"/>
	<line class="st0" x1="20.9" y1="30.1" x2="20.9" y2="30.1"/>
	<line class="st0" x1="22.8" y1="29.9" x2="22.8" y2="29.9"/>
	<line class="st0" x1="24.8" y1="29.7" x2="24.8" y2="29.7"/>
	<line class="st0" x1="26.8" y1="29.6" x2="26.8" y2="29.6"/>
	<line class="st0" x1="30.8" y1="29.1" x2="30.8" y2="29.1"/>
	<line class="st0" x1="28.8" y1="29.3" x2="28.8" y2="29.3"/>
	<line class="st0" x1="32.8" y1="28.8" x2="32.8" y2="28.8"/>
	<line class="st0" x1="34.8" y1="28.6" x2="34.8" y2="28.6"/>
	<line class="st0" x1="36.7" y1="28.3" x2="36.7" y2="28.3"/>
	<line class="st0" x1="38.7" y1="27.9" x2="38.7" y2="27.9"/>
	<line class="st0" x1="42.6" y1="27" x2="42.6" y2="27"/>
	<line class="st0" x1="40.7" y1="27.6" x2="40.7" y2="27.6"/>
	<line class="st0" x1="44.6" y1="26.6" x2="44.6" y2="26.6"/>
	<line class="st0" x1="1" y1="26.1" x2="1" y2="26.1"/>
	<line class="st0" x1="3" y1="26.1" x2="3" y2="26.1"/>
	<line class="st0" x1="5" y1="26.1" x2="5" y2="26.1"/>
	<line class="st0" x1="7" y1="26.3" x2="7" y2="26.3"/>
	<line class="st0" x1="9" y1="26.2" x2="9" y2="26.2"/>
	<line class="st0" x1="13" y1="26.4" x2="13" y2="26.4"/>
	<line class="st0" x1="10.9" y1="26.4" x2="10.9" y2="26.4"/>
	<line class="st0" x1="15" y1="26.4" x2="15" y2="26.4"/>
	<line class="st0" x1="17" y1="26.5" x2="17" y2="26.5"/>
	<line class="st0" x1="19" y1="26.4" x2="19" y2="26.4"/>
	<line class="st0" x1="21.1" y1="26.4" x2="21.1" y2="26.4"/>
	<line class="st0" x1="23" y1="26.3" x2="23" y2="26.3"/>
	<line class="st0" x1="25" y1="26.3" x2="25" y2="26.3"/>
	<line class="st0" x1="27" y1="26.3" x2="27" y2="26.3"/>
	<line class="st0" x1="31" y1="26.1" x2="31" y2="26.1"/>
	<line class="st0" x1="29" y1="26.1" x2="29" y2="26.1"/>
	<line class="st0" x1="33" y1="25.9" x2="33" y2="25.9"/>
	<line class="st0" x1="35" y1="25.8" x2="35" y2="25.8"/>
	<line class="st0" x1="37" y1="25.7" x2="37" y2="25.7"/>
	<line class="st0" x1="39" y1="25.4" x2="39" y2="25.4"/>
	<line class="st0" x1="51.1" y1="7.8" x2="51.1" y2="7.8"/>
	<line class="st0" x1="53.2" y1="7.9" x2="53.2" y2="7.9"/>
	<line class="st0" x1="49.1" y1="7.6" x2="49.1" y2="7.6"/>
	<line class="st0" x1="47.1" y1="7.4" x2="47.1" y2="7.4"/>
	<line class="st0" x1="44.6" y1="7" x2="44.6" y2="7"/>
	<line class="st0" x1="50.4" y1="12.6" x2="50.4" y2="12.6"/>
	<line class="st0" x1="48.4" y1="12.4" x2="48.4" y2="12.4"/>
	<line class="st0" x1="45.9" y1="12" x2="45.9" y2="12"/>
	<line class="st0" x1="43.4" y1="11.5" x2="43.4" y2="11.5"/>
	<line class="st0" x1="43.4" y1="11.5" x2="43.4" y2="11.5"/>
	<line class="st0" x1="34.6" y1="8.3" x2="34.6" y2="8.3"/>
	<line class="st0" x1="41.5" y1="11.1" x2="41.5" y2="11.1"/>
	<line class="st0" x1="39" y1="10.4" x2="39" y2="10.4"/>
	<line class="st0" x1="36.7" y1="9.5" x2="36.7" y2="9.5"/>
	<line class="st0" x1="50.7" y1="30.9" x2="50.7" y2="30.9"/>
	<line class="st0" x1="52.6" y1="30.9" x2="52.6" y2="30.9"/>
	<line class="st0" x1="31" y1="18.3" x2="31" y2="18.3"/>
	<line class="st0" x1="33" y1="18.9" x2="33" y2="18.9"/>
	<line class="st0" x1="33" y1="18.9" x2="33" y2="18.9"/>
	<line class="st0" x1="29" y1="17.7" x2="29" y2="17.7"/>
	<line class="st0" x1="31" y1="18.3" x2="31" y2="18.3"/>
	<line class="st0" x1="34.9" y1="19.3" x2="34.9" y2="19.3"/>
	<line class="st0" x1="36.8" y1="19.8" x2="36.8" y2="19.8"/>
	<line class="st0" x1="38.8" y1="20.2" x2="38.8" y2="20.2"/>
	<line class="st0" x1="40.7" y1="20.7" x2="40.7" y2="20.7"/>
	<line class="st0" x1="42.7" y1="21" x2="42.7" y2="21"/>
	<line class="st0" x1="44.7" y1="21.4" x2="44.7" y2="21.4"/>
	<line class="st0" x1="46.6" y1="21.8" x2="46.6" y2="21.8"/>
	<line class="st0" x1="14" y1="12.3" x2="14" y2="12.3"/>
	<line class="st0" x1="15.8" y1="13.2" x2="15.8" y2="13.2"/>
	<line class="st0" x1="15.8" y1="13.2" x2="15.8" y2="13.2"/>
	<line class="st0" x1="14" y1="12.3" x2="14" y2="12.3"/>
	<line class="st0" x1="17.7" y1="13.8" x2="17.7" y2="13.8"/>
	<line class="st0" x1="19.6" y1="14.5" x2="19.6" y2="14.5"/>
	<line class="st0" x1="21.4" y1="15.1" x2="21.4" y2="15.1"/>
	<line class="st0" x1="23.3" y1="15.9" x2="23.3" y2="15.9"/>
	<line class="st0" x1="25.2" y1="16.5" x2="25.2" y2="16.5"/>
	<line class="st0" x1="27.1" y1="17" x2="27.1" y2="17"/>
	<line class="st0" x1="29" y1="17.7" x2="29" y2="17.7"/>
	<line class="st0" x1="48.7" y1="22.1" x2="48.7" y2="22.1"/>
	<line class="st0" x1="52.6" y1="22.7" x2="52.6" y2="22.7"/>
	<line class="st0" x1="50.5" y1="22.4" x2="50.5" y2="22.4"/>
	<line class="st0" x1="39.7" y1="17" x2="39.7" y2="17"/>
	<line class="st0" x1="41.7" y1="17.5" x2="41.7" y2="17.5"/>
	<line class="st0" x1="41.7" y1="17.5" x2="41.7" y2="17.5"/>
	<line class="st0" x1="37.7" y1="16.5" x2="37.7" y2="16.5"/>
	<line class="st0" x1="39.7" y1="17" x2="39.7" y2="17"/>
	<line class="st0" x1="43.6" y1="17.9" x2="43.6" y2="17.9"/>
	<line class="st0" x1="45.6" y1="18.3" x2="45.6" y2="18.3"/>
	<line class="st0" x1="47.5" y1="18.6" x2="47.5" y2="18.6"/>
	<line class="st0" x1="49.5" y1="19.1" x2="49.5" y2="19.1"/>
	<line class="st0" x1="51.4" y1="19.4" x2="51.4" y2="19.4"/>
	<line class="st0" x1="53.3" y1="19.7" x2="53.3" y2="19.7"/>
	<line class="st0" x1="22.5" y1="11.5" x2="22.5" y2="11.5"/>
	<line class="st0" x1="24.4" y1="12.3" x2="24.4" y2="12.3"/>
	<line class="st0" x1="24.4" y1="12.3" x2="24.4" y2="12.3"/>
	<line class="st0" x1="22.5" y1="11.5" x2="22.5" y2="11.5"/>
	<line class="st0" x1="26.2" y1="12.9" x2="26.2" y2="12.9"/>
	<line class="st0" x1="28.1" y1="13.6" x2="28.1" y2="13.6"/>
	<line class="st0" x1="30" y1="14.1" x2="30" y2="14.1"/>
	<line class="st0" x1="31.9" y1="14.8" x2="31.9" y2="14.8"/>
	<line class="st0" x1="33.8" y1="15.3" x2="33.8" y2="15.3"/>
	<line class="st0" x1="35.8" y1="15.8" x2="35.8" y2="15.8"/>
	<line class="st0" x1="37.7" y1="16.5" x2="37.7" y2="16.5"/>
	<line class="st0" x1="41.6" y1="14.4" x2="41.6" y2="14.4"/>
	<line class="st0" x1="43.5" y1="15" x2="43.5" y2="15"/>
	<line class="st0" x1="43.5" y1="15" x2="43.5" y2="15"/>
	<line class="st0" x1="39.6" y1="13.7" x2="39.6" y2="13.7"/>
	<line class="st0" x1="41.6" y1="14.4" x2="41.6" y2="14.4"/>
	<line class="st0" x1="45.4" y1="15.4" x2="45.4" y2="15.4"/>
	<line class="st0" x1="47.4" y1="16" x2="47.4" y2="16"/>
	<line class="st0" x1="49.3" y1="16.4" x2="49.3" y2="16.4"/>
	<line class="st0" x1="51.3" y1="17" x2="51.3" y2="17"/>
	<line class="st0" x1="53.2" y1="17.3" x2="53.2" y2="17.3"/>
	<line class="st0" x1="28.4" y1="9.5" x2="28.4" y2="9.5"/>
	<line class="st0" x1="30.2" y1="10.3" x2="30.2" y2="10.3"/>
	<line class="st0" x1="32" y1="11" x2="32" y2="11"/>
	<line class="st0" x1="33.9" y1="11.8" x2="33.9" y2="11.8"/>
	<line class="st0" x1="35.8" y1="12.4" x2="35.8" y2="12.4"/>
	<line class="st0" x1="37.7" y1="13" x2="37.7" y2="13"/>
	<line class="st0" x1="39.6" y1="13.7" x2="39.6" y2="13.7"/>
	<line class="st0" x1="31" y1="45.3" x2="31" y2="45.3"/>
	<line class="st0" x1="33" y1="45.9" x2="33" y2="45.9"/>
	<line class="st0" x1="33" y1="45.9" x2="33" y2="45.9"/>
	<line class="st0" x1="29" y1="44.7" x2="29" y2="44.7"/>
	<line class="st0" x1="31" y1="45.3" x2="31" y2="45.3"/>
	<line class="st0" x1="34.9" y1="46.3" x2="34.9" y2="46.3"/>
	<line class="st0" x1="36.8" y1="46.8" x2="36.8" y2="46.8"/>
	<line class="st0" x1="38.8" y1="47.2" x2="38.8" y2="47.2"/>
	<line class="st0" x1="40.7" y1="47.7" x2="40.7" y2="47.7"/>
	<line class="st0" x1="42.7" y1="48" x2="42.7" y2="48"/>
	<line class="st0" x1="44.7" y1="48.4" x2="44.7" y2="48.4"/>
	<line class="st0" x1="46.6" y1="48.8" x2="46.6" y2="48.8"/>
	<line class="st0" x1="14" y1="39.3" x2="14" y2="39.3"/>
	<line class="st0" x1="15.8" y1="40.2" x2="15.8" y2="40.2"/>
	<line class="st0" x1="15.8" y1="40.2" x2="15.8" y2="40.2"/>
	<line class="st0" x1="14" y1="39.3" x2="14" y2="39.3"/>
	<line class="st0" x1="17.7" y1="40.8" x2="17.7" y2="40.8"/>
	<line class="st0" x1="19.6" y1="41.5" x2="19.6" y2="41.5"/>
	<line class="st0" x1="21.4" y1="42.1" x2="21.4" y2="42.1"/>
	<line class="st0" x1="23.3" y1="42.9" x2="23.3" y2="42.9"/>
	<line class="st0" x1="25.2" y1="43.5" x2="25.2" y2="43.5"/>
	<line class="st0" x1="27.1" y1="44" x2="27.1" y2="44"/>
	<line class="st0" x1="29" y1="44.7" x2="29" y2="44.7"/>
	<line class="st0" x1="48.7" y1="49.1" x2="48.7" y2="49.1"/>
	<line class="st0" x1="52.6" y1="49.7" x2="52.6" y2="49.7"/>
	<line class="st0" x1="50.5" y1="49.4" x2="50.5" y2="49.4"/>
	<line class="st0" x1="39.7" y1="44" x2="39.7" y2="44"/>
	<line class="st0" x1="41.7" y1="44.5" x2="41.7" y2="44.5"/>
	<line class="st0" x1="41.7" y1="44.5" x2="41.7" y2="44.5"/>
	<line class="st0" x1="37.7" y1="43.5" x2="37.7" y2="43.5"/>
	<line class="st0" x1="39.7" y1="44" x2="39.7" y2="44"/>
	<line class="st0" x1="43.6" y1="44.9" x2="43.6" y2="44.9"/>
	<line class="st0" x1="45.6" y1="45.3" x2="45.6" y2="45.3"/>
	<line class="st0" x1="47.5" y1="45.6" x2="47.5" y2="45.6"/>
	<line class="st0" x1="49.5" y1="46.1" x2="49.5" y2="46.1"/>
	<line class="st0" x1="51.4" y1="46.4" x2="51.4" y2="46.4"/>
	<line class="st0" x1="53.3" y1="46.7" x2="53.3" y2="46.7"/>
	<line class="st0" x1="22.5" y1="38.5" x2="22.5" y2="38.5"/>
	<line class="st0" x1="24.4" y1="39.3" x2="24.4" y2="39.3"/>
	<line class="st0" x1="24.4" y1="39.3" x2="24.4" y2="39.3"/>
	<line class="st0" x1="22.5" y1="38.5" x2="22.5" y2="38.5"/>
	<line class="st0" x1="26.2" y1="39.9" x2="26.2" y2="39.9"/>
	<line class="st0" x1="28.1" y1="40.6" x2="28.1" y2="40.6"/>
	<line class="st0" x1="30" y1="41.1" x2="30" y2="41.1"/>
	<line class="st0" x1="31.9" y1="41.8" x2="31.9" y2="41.8"/>
	<line class="st0" x1="33.8" y1="42.3" x2="33.8" y2="42.3"/>
	<line class="st0" x1="35.8" y1="42.8" x2="35.8" y2="42.8"/>
	<line class="st0" x1="37.7" y1="43.5" x2="37.7" y2="43.5"/>
	<line class="st0" x1="41.6" y1="41.4" x2="41.6" y2="41.4"/>
	<line class="st0" x1="43.5" y1="42" x2="43.5" y2="42"/>
	<line class="st0" x1="43.5" y1="42" x2="43.5" y2="42"/>
	<line class="st0" x1="39.6" y1="40.7" x2="39.6" y2="40.7"/>
	<line class="st0" x1="41.6" y1="41.4" x2="41.6" y2="41.4"/>
	<line class="st0" x1="45.4" y1="42.4" x2="45.4" y2="42.4"/>
	<line class="st0" x1="47.4" y1="43" x2="47.4" y2="43"/>
	<line class="st0" x1="49.3" y1="43.4" x2="49.3" y2="43.4"/>
	<line class="st0" x1="51.3" y1="44" x2="51.3" y2="44"/>
	<line class="st0" x1="53.2" y1="44.3" x2="53.2" y2="44.3"/>
	<line class="st0" x1="28.4" y1="36.5" x2="28.4" y2="36.5"/>
	<line class="st0" x1="30.2" y1="37.3" x2="30.2" y2="37.3"/>
	<line class="st0" x1="32" y1="38" x2="32" y2="38"/>
	<line class="st0" x1="33.9" y1="38.8" x2="33.9" y2="38.8"/>
	<line class="st0" x1="35.8" y1="39.4" x2="35.8" y2="39.4"/>
	<line class="st0" x1="37.7" y1="40" x2="37.7" y2="40"/>
	<line class="st0" x1="39.6" y1="40.7" x2="39.6" y2="40.7"/>
	<line class="st0" x1="1.4" y1="47" x2="1.4" y2="47"/>
	<line class="st0" x1="3.4" y1="47.2" x2="3.4" y2="47.2"/>
	<line class="st0" x1="7.2" y1="47.6" x2="7.2" y2="47.6"/>
	<line class="st0" x1="5.3" y1="47.4" x2="5.3" y2="47.4"/>
	<line class="st0" x1="1.2" y1="44.7" x2="1.2" y2="44.7"/>
	<line class="st0" x1="3.1" y1="45" x2="3.1" y2="45"/>
	<line class="st0" x1="11.4" y1="48" x2="11.4" y2="48"/>
	<line class="st0" x1="9.4" y1="47.8" x2="9.4" y2="47.8"/>
	<line class="st0" x1="13.4" y1="48.2" x2="13.4" y2="48.2"/>
	<line class="st0" x1="15.4" y1="48.2" x2="15.4" y2="48.2"/>
	<line class="st0" x1="17.6" y1="48.4" x2="17.6" y2="48.4"/>
	<line class="st0" x1="20.3" y1="48.5" x2="20.3" y2="48.5"/>
	<line class="st0" x1="22.8" y1="48.6" x2="22.8" y2="48.6"/>
	<line class="st0" x1="25.3" y1="48.7" x2="25.3" y2="48.7"/>
	<line class="st0" x1="13.7" y1="46.4" x2="13.7" y2="46.4"/>
	<line class="st0" x1="15.9" y1="46.7" x2="15.9" y2="46.7"/>
	<line class="st0" x1="20" y1="46.8" x2="20" y2="46.8"/>
	<line class="st0" x1="18.1" y1="46.7" x2="18.1" y2="46.7"/>
	<line class="st0" x1="11.4" y1="46.2" x2="11.4" y2="46.2"/>
	<line class="st0" x1="5.1" y1="45.4" x2="5.1" y2="45.4"/>
	<line class="st0" x1="9.2" y1="45.9" x2="9.2" y2="45.9"/>
	<line class="st0" x1="7.2" y1="45.7" x2="7.2" y2="45.7"/>
	<line class="st0" x1="0.6" y1="41.4" x2="0.6" y2="41.4"/>
	<line class="st0" x1="2.5" y1="42.2" x2="2.5" y2="42.2"/>
	<line class="st0" x1="4.4" y1="42.7" x2="4.4" y2="42.7"/>
	<line class="st0" x1="6.2" y1="43.2" x2="6.2" y2="43.2"/>
	<line class="st0" x1="8.1" y1="43.7" x2="8.1" y2="43.7"/>
	<line class="st0" x1="12.2" y1="44.6" x2="12.2" y2="44.6"/>
	<line class="st0" x1="10.1" y1="44.2" x2="10.1" y2="44.2"/>
	<line class="st0" x1="0.9" y1="49.8" x2="0.9" y2="49.8"/>
	<line class="st0" x1="3.1" y1="49.9" x2="3.1" y2="49.9"/>
	<line class="st0" x1="5.1" y1="50.1" x2="5.1" y2="50.1"/>
	<line class="st0" x1="7.1" y1="50.1" x2="7.1" y2="50.1"/>
	<line class="st0" x1="9" y1="50.4" x2="9" y2="50.4"/>
	<line class="st0" x1="11" y1="50.5" x2="11" y2="50.5"/>
	<line class="st0" x1="12.9" y1="50.6" x2="12.9" y2="50.6"/>
	<line class="st0" x1="16.9" y1="50.7" x2="16.9" y2="50.7"/>
	<line class="st0" x1="14.9" y1="50.7" x2="14.9" y2="50.7"/>
	<line class="st0" x1="18.9" y1="50.9" x2="18.9" y2="50.9"/>
	<line class="st0" x1="21" y1="50.9" x2="21" y2="50.9"/>
	<line class="st0" x1="23" y1="50.9" x2="23" y2="50.9"/>
	<line class="st0" x1="25" y1="51" x2="25" y2="51"/>
	<line class="st0" x1="29" y1="50.9" x2="29" y2="50.9"/>
	<line class="st0" x1="27" y1="51" x2="27" y2="51"/>
	<line class="st0" x1="30.9" y1="50.7" x2="30.9" y2="50.7"/>
	<line class="st0" x1="32.9" y1="50.6" x2="32.9" y2="50.6"/>
	<line class="st0" x1="1.4" y1="20" x2="1.4" y2="20"/>
	<line class="st0" x1="3.4" y1="20.2" x2="3.4" y2="20.2"/>
	<line class="st0" x1="7.4" y1="20.7" x2="7.4" y2="20.7"/>
	<line class="st0" x1="5.3" y1="20.5" x2="5.3" y2="20.5"/>
	<line class="st0" x1="1.2" y1="17.7" x2="1.2" y2="17.7"/>
	<line class="st0" x1="3.1" y1="18.2" x2="3.1" y2="18.2"/>
	<line class="st0" x1="11.4" y1="21.1" x2="11.4" y2="21.1"/>
	<line class="st0" x1="9.4" y1="21" x2="9.4" y2="21"/>
	<line class="st0" x1="13.5" y1="21.2" x2="13.5" y2="21.2"/>
	<line class="st0" x1="15.7" y1="21.3" x2="15.7" y2="21.3"/>
	<line class="st0" x1="17.9" y1="21.4" x2="17.9" y2="21.4"/>
	<line class="st0" x1="20.4" y1="21.3" x2="20.4" y2="21.3"/>
	<line class="st0" x1="22.5" y1="21.1" x2="22.5" y2="21.1"/>
	<line class="st0" x1="13.7" y1="19.4" x2="13.7" y2="19.4"/>
	<line class="st0" x1="15.8" y1="19.5" x2="15.8" y2="19.5"/>
	<line class="st0" x1="18.1" y1="19.6" x2="18.1" y2="19.6"/>
	<line class="st0" x1="11.3" y1="19.5" x2="11.3" y2="19.5"/>
	<line class="st0" x1="5.1" y1="18.5" x2="5.1" y2="18.5"/>
	<line class="st0" x1="9.1" y1="19.2" x2="9.1" y2="19.2"/>
	<line class="st0" x1="7" y1="18.9" x2="7" y2="18.9"/>
	<line class="st0" x1="0.9" y1="22.8" x2="0.9" y2="22.8"/>
	<line class="st0" x1="3" y1="22.9" x2="3" y2="22.9"/>
	<line class="st0" x1="5.1" y1="23.1" x2="5.1" y2="23.1"/>
	<line class="st0" x1="7.1" y1="23.1" x2="7.1" y2="23.1"/>
	<line class="st0" x1="9.3" y1="23.2" x2="9.3" y2="23.2"/>
	<line class="st0" x1="11.2" y1="23.3" x2="11.2" y2="23.3"/>
	<line class="st0" x1="13" y1="23.3" x2="13" y2="23.3"/>
	<line class="st0" x1="17" y1="23.6" x2="17" y2="23.6"/>
	<line class="st0" x1="15" y1="23.4" x2="15" y2="23.4"/>
	<line class="st0" x1="19" y1="23.7" x2="19" y2="23.7"/>
	<line class="st0" x1="21" y1="23.9" x2="21" y2="23.9"/>
	<line class="st0" x1="23" y1="23.9" x2="23" y2="23.9"/>
	<line class="st0" x1="25" y1="24" x2="25" y2="24"/>
	<line class="st0" x1="29" y1="24" x2="29" y2="24"/>
	<line class="st0" x1="27" y1="24" x2="27" y2="24"/>
	<line class="st0" x1="31" y1="23.9" x2="31" y2="23.9"/>
	<line class="st0" x1="33" y1="23.8" x2="33" y2="23.8"/>
	<line class="st0" x1="2.4" y1="15.1" x2="2.4" y2="15.1"/>
	<line class="st0" x1="4.4" y1="15.7" x2="4.4" y2="15.7"/>
	<line class="st0" x1="6.4" y1="16.2" x2="6.4" y2="16.2"/>
	<line class="st0" x1="8.4" y1="16.6" x2="8.4" y2="16.6"/>
	<line class="st0" x1="10.4" y1="16.9" x2="10.4" y2="16.9"/>
	<line class="st0" x1="0.5" y1="14.2" x2="0.5" y2="14.2"/>
	<line class="st0" x1="50.5" y1="39.6" x2="50.5" y2="39.6"/>
	<line class="st0" x1="52.6" y1="39.6" x2="52.6" y2="39.6"/>
	<line class="st0" x1="50.7" y1="35.1" x2="50.7" y2="35.1"/>
	<line class="st0" x1="52.9" y1="35.2" x2="52.9" y2="35.2"/>
	<line class="st0" x1="48.7" y1="34.9" x2="48.7" y2="34.9"/>
	<line class="st0" x1="46.6" y1="34.5" x2="46.6" y2="34.5"/>
	<line class="st0" x1="44.4" y1="34.1" x2="44.4" y2="34.1"/>
	<line class="st0" x1="42.2" y1="33.5" x2="42.2" y2="33.5"/>
	<line class="st0" x1="48.2" y1="39.4" x2="48.2" y2="39.4"/>
	<line class="st0" x1="45.7" y1="39.1" x2="45.7" y2="39.1"/>
	<line class="st0" x1="43.6" y1="38.6" x2="43.6" y2="38.6"/>
	<line class="st0" x1="34.4" y1="35.5" x2="34.4" y2="35.5"/>
	<line class="st0" x1="41.2" y1="37.9" x2="41.2" y2="37.9"/>
	<line class="st0" x1="38.8" y1="37.3" x2="38.8" y2="37.3"/>
	<line class="st0" x1="36.6" y1="36.4" x2="36.6" y2="36.4"/>
	<line class="st0" x1="52.9" y1="52.8" x2="52.9" y2="52.8"/>
	<line class="st0" x1="47.6" y1="52.2" x2="47.6" y2="52.2"/>
	<line class="st0" x1="49.4" y1="52.4" x2="49.4" y2="52.4"/>
	<line class="st0" x1="51.3" y1="52.6" x2="51.3" y2="52.6"/>
	<line class="st0" x1="10.8" y1="42.1" x2="10.8" y2="42.1"/>
	<line class="st0" x1="12.8" y1="42.9" x2="12.8" y2="42.9"/>
	<line class="st0" x1="14.6" y1="43.7" x2="14.6" y2="43.7"/>
	<line class="st0" x1="16.4" y1="44.4" x2="16.4" y2="44.4"/>
	<line class="st0" x1="18.1" y1="45" x2="18.1" y2="45"/>
	<line class="st0" x1="20.1" y1="45.7" x2="20.1" y2="45.7"/>
	<line class="st0" x1="22.2" y1="46.4" x2="22.2" y2="46.4"/>
	<line class="st0" x1="24.1" y1="47.1" x2="24.1" y2="47.1"/>
	<line class="st0" x1="26" y1="47.6" x2="26" y2="47.6"/>
	<line class="st0" x1="29.9" y1="48.7" x2="29.9" y2="48.7"/>
	<line class="st0" x1="28" y1="48.2" x2="28" y2="48.2"/>
	<line class="st0" x1="31.8" y1="49.2" x2="31.8" y2="49.2"/>
	<line class="st0" x1="33.6" y1="49.6" x2="33.6" y2="49.6"/>
	<line class="st0" x1="35.4" y1="50.1" x2="35.4" y2="50.1"/>
	<line class="st0" x1="37.5" y1="50.5" x2="37.5" y2="50.5"/>
	<line class="st0" x1="39.3" y1="50.9" x2="39.3" y2="50.9"/>
	<line class="st0" x1="41.3" y1="51.2" x2="41.3" y2="51.2"/>
	<line class="st0" x1="43.5" y1="51.6" x2="43.5" y2="51.6"/>
	<line class="st0" x1="45.5" y1="51.9" x2="45.5" y2="51.9"/>
	<line class="st0" x1="8.9" y1="41.2" x2="8.9" y2="41.2"/>
	<line class="st0" x1="6.9" y1="40.3" x2="6.9" y2="40.3"/>
</g>
</svg>
