<?xml version="1.0" encoding="utf-8"?>
<!-- Generator: Adobe Illustrator 23.0.1, SVG Export Plug-In . SVG Version: 6.00 Build 0)  -->
<svg version="1.1" id="Layer_1" xmlns="http://www.w3.org/2000/svg" xmlns:xlink="http://www.w3.org/1999/xlink" x="0px" y="0px"
	 viewBox="0 0 54.1 54.1" style="enable-background:new 0 0 54.1 54.1;" xml:space="preserve">
<style type="text/css">
	.st0{fill:none;stroke:#000000;stroke-width:0.3;}
	.st1{fill:none;stroke:#000000;stroke-width:0.7;stroke-linecap:round;}
	.st2{fill:none;}
</style>
<g>
	<line class="st0" x1="32.6" y1="50.8" x2="15.2" y2="50.8"/>
	<line class="st0" x1="0" y1="47.1" x2="7.3" y2="47.1"/>
	<line class="st0" x1="23.3" y1="43.1" x2="42.5" y2="43.1"/>
	<line class="st0" x1="41.4" y1="36.9" x2="53.9" y2="36.9"/>
	<line class="st0" x1="23.6" y1="37.4" x2="8.8" y2="37.4"/>
	<line class="st0" x1="23.3" y1="30.3" x2="40.7" y2="30.3"/>
	<line class="st0" x1="41.8" y1="7.4" x2="24.4" y2="7.4"/>
	<line class="st0" x1="6.9" y1="4.1" x2="0" y2="4.1"/>
	<line class="st0" x1="15" y1="28.8" x2="0.5" y2="28.8"/>
	<line class="st0" x1="39.6" y1="24.2" x2="53.9" y2="24.2"/>
	<line class="st0" x1="11.5" y1="20.4" x2="26.6" y2="20.4"/>
	<line class="st0" x1="14.3" y1="14.5" x2="0.2" y2="14.5"/>
	<line class="st0" x1="32.3" y1="14.3" x2="48.1" y2="14.3"/>
	<line class="st0" x1="44.3" y1="47.1" x2="54.1" y2="47.1"/>
	<line class="st0" x1="48" y1="4.1" x2="54.1" y2="4.1"/>
	<line class="st1" x1="50.3" y1="12.7" x2="50.3" y2="12.7"/>
	<line class="st1" x1="46" y1="13" x2="46" y2="13"/>
	<line class="st1" x1="51.4" y1="16.6" x2="51.4" y2="16.6"/>
	<line class="st1" x1="47.3" y1="16.9" x2="47.3" y2="16.9"/>
	<line class="st1" x1="48.9" y1="19.9" x2="48.9" y2="19.9"/>
	<line class="st1" x1="52.5" y1="20.3" x2="52.5" y2="20.3"/>
	<line class="st1" x1="39.4" y1="11.7" x2="39.4" y2="11.7"/>
	<line class="st1" x1="43.9" y1="15.9" x2="43.9" y2="15.9"/>
	<line class="st1" x1="34.3" y1="12.6" x2="34.3" y2="12.6"/>
	<line class="st1" x1="35.4" y1="16.1" x2="35.4" y2="16.1"/>
	<line class="st1" x1="28.5" y1="14.6" x2="28.5" y2="14.6"/>
	<line class="st1" x1="32.6" y1="17.6" x2="32.6" y2="17.6"/>
	<line class="st1" x1="30.2" y1="23.5" x2="30.2" y2="23.5"/>
	<line class="st1" x1="28" y1="21.2" x2="28" y2="21.2"/>
	<line class="st1" x1="26.5" y1="17.4" x2="26.5" y2="17.4"/>
	<line class="st1" x1="24.1" y1="14.1" x2="24.1" y2="14.1"/>
	<line class="st1" x1="21.7" y1="18.4" x2="21.7" y2="18.4"/>
	<line class="st1" x1="20.5" y1="14.9" x2="20.5" y2="14.9"/>
	<line class="st1" x1="17.8" y1="17.7" x2="17.8" y2="17.7"/>
	<line class="st1" x1="15.7" y1="13.8" x2="15.7" y2="13.8"/>
	<line class="st1" x1="11.8" y1="16.6" x2="11.8" y2="16.6"/>
	<line class="st1" x1="8.5" y1="13.2" x2="8.5" y2="13.2"/>
	<line class="st1" x1="5.4" y1="12.1" x2="5.4" y2="12.1"/>
	<line class="st1" x1="1.9" y1="10.4" x2="1.9" y2="10.4"/>
	<line class="st1" x1="1.4" y1="18.1" x2="1.4" y2="18.1"/>
	<line class="st1" x1="5.3" y1="16.6" x2="5.3" y2="16.6"/>
	<line class="st1" x1="9" y1="17.9" x2="9" y2="17.9"/>
	<line class="st1" x1="13.3" y1="18.6" x2="13.3" y2="18.6"/>
	<line class="st1" x1="7.6" y1="21.5" x2="7.6" y2="21.5"/>
	<line class="st1" x1="3.3" y1="21.5" x2="3.3" y2="21.5"/>
	<line class="st1" x1="12.9" y1="10.6" x2="12.9" y2="10.6"/>
	<line class="st1" x1="1" y1="24.6" x2="1" y2="24.6"/>
	<line class="st1" x1="1.2" y1="27.5" x2="1.2" y2="27.5"/>
	<line class="st1" x1="6.4" y1="27.7" x2="6.4" y2="27.7"/>
	<line class="st1" x1="5.4" y1="24.7" x2="5.4" y2="24.7"/>
	<line class="st1" x1="9.4" y1="25.2" x2="9.4" y2="25.2"/>
	<line class="st1" x1="12.7" y1="23.1" x2="12.7" y2="23.1"/>
	<line class="st1" x1="13" y1="26.6" x2="13" y2="26.6"/>
	<line class="st1" x1="16.2" y1="24" x2="16.2" y2="24"/>
	<line class="st1" x1="17" y1="27.8" x2="17" y2="27.8"/>
	<line class="st1" x1="19.8" y1="23.2" x2="19.8" y2="23.2"/>
	<line class="st1" x1="19.9" y1="28.7" x2="19.9" y2="28.7"/>
	<line class="st1" x1="23.2" y1="25.6" x2="23.2" y2="25.6"/>
	<line class="st1" x1="24.2" y1="22.3" x2="24.2" y2="22.3"/>
	<line class="st1" x1="27.1" y1="25" x2="27.1" y2="25"/>
	<line class="st1" x1="24.3" y1="28.7" x2="24.3" y2="28.7"/>
	<line class="st1" x1="28.7" y1="28.7" x2="28.7" y2="28.7"/>
	<line class="st1" x1="32.2" y1="26.6" x2="32.2" y2="26.6"/>
	<line class="st1" x1="34.4" y1="28.9" x2="34.4" y2="28.9"/>
	<line class="st1" x1="16.3" y1="31.2" x2="16.3" y2="31.2"/>
	<line class="st1" x1="14.4" y1="34.2" x2="14.4" y2="34.2"/>
	<line class="st1" x1="12.2" y1="31.2" x2="12.2" y2="31.2"/>
	<line class="st1" x1="10.9" y1="35.4" x2="10.9" y2="35.4"/>
	<line class="st1" x1="8.6" y1="33" x2="8.6" y2="33"/>
	<line class="st1" x1="6.7" y1="30.3" x2="6.7" y2="30.3"/>
	<line class="st1" x1="6.6" y1="35.7" x2="6.6" y2="35.7"/>
	<line class="st1" x1="4.3" y1="33" x2="4.3" y2="33"/>
	<line class="st1" x1="1.1" y1="31.1" x2="1.1" y2="31.1"/>
	<line class="st1" x1="18.6" y1="11.2" x2="18.6" y2="11.2"/>
	<line class="st1" x1="2.3" y1="35.1" x2="2.3" y2="35.1"/>
	<line class="st1" x1="53.1" y1="13.9" x2="53.1" y2="13.9"/>
	<line class="st1" x1="4.9" y1="39.6" x2="4.9" y2="39.6"/>
	<line class="st1" x1="5.4" y1="8.4" x2="5.4" y2="8.4"/>
	<line class="st1" x1="3.4" y1="44.8" x2="3.4" y2="44.8"/>
	<line class="st1" x1="6.4" y1="42" x2="6.4" y2="42"/>
	<line class="st1" x1="8.4" y1="44.5" x2="8.4" y2="44.5"/>
	<line class="st1" x1="10.6" y1="40.7" x2="10.6" y2="40.7"/>
	<line class="st1" x1="15" y1="39.1" x2="15" y2="39.1"/>
	<line class="st1" x1="12.1" y1="45" x2="12.1" y2="45"/>
	<line class="st1" x1="15.1" y1="42.6" x2="15.1" y2="42.6"/>
	<line class="st1" x1="18.6" y1="42.7" x2="18.6" y2="42.7"/>
	<line class="st1" x1="19.6" y1="39.1" x2="19.6" y2="39.1"/>
	<line class="st1" x1="23.6" y1="39.7" x2="23.6" y2="39.7"/>
	<line class="st1" x1="22.1" y1="42.3" x2="22.1" y2="42.3"/>
	<line class="st1" x1="27.9" y1="40.9" x2="27.9" y2="40.9"/>
	<line class="st1" x1="0.9" y1="38.4" x2="0.9" y2="38.4"/>
	<line class="st1" x1="1.1" y1="42.6" x2="1.1" y2="42.6"/>
	<line class="st1" x1="34.3" y1="41.7" x2="34.3" y2="41.7"/>
	<line class="st1" x1="25.8" y1="10.9" x2="25.8" y2="10.9"/>
	<line class="st1" x1="38.9" y1="40.7" x2="38.9" y2="40.7"/>
	<line class="st1" x1="22.4" y1="9.4" x2="22.4" y2="9.4"/>
	<line class="st1" x1="43.5" y1="38.9" x2="43.5" y2="38.9"/>
	<line class="st1" x1="44.9" y1="41.8" x2="44.9" y2="41.8"/>
	<line class="st1" x1="48" y1="39.7" x2="48" y2="39.7"/>
	<line class="st1" x1="51.6" y1="37.7" x2="51.6" y2="37.7"/>
	<line class="st1" x1="52.4" y1="40.6" x2="52.4" y2="40.6"/>
	<line class="st1" x1="51.9" y1="44.7" x2="51.9" y2="44.7"/>
	<line class="st1" x1="49" y1="43" x2="49" y2="43"/>
	<line class="st1" x1="45.9" y1="45.7" x2="45.9" y2="45.7"/>
	<line class="st1" x1="29.9" y1="11.1" x2="29.9" y2="11.1"/>
	<line class="st1" x1="10.3" y1="5.4" x2="10.3" y2="5.4"/>
	<line class="st1" x1="9.1" y1="9.2" x2="9.1" y2="9.2"/>
	<line class="st1" x1="51.7" y1="47.9" x2="51.7" y2="47.9"/>
	<line class="st1" x1="52.8" y1="50.7" x2="52.8" y2="50.7"/>
	<line class="st1" x1="50.4" y1="52.7" x2="50.4" y2="52.7"/>
	<line class="st1" x1="48.5" y1="50.7" x2="48.5" y2="50.7"/>
	<line class="st1" x1="45.6" y1="52.9" x2="45.6" y2="52.9"/>
	<line class="st1" x1="45.6" y1="49.2" x2="45.6" y2="49.2"/>
	<line class="st1" x1="42" y1="46.7" x2="42" y2="46.7"/>
	<line class="st1" x1="19.8" y1="1.1" x2="19.8" y2="1.1"/>
	<line class="st1" x1="40.7" y1="52.6" x2="40.7" y2="52.6"/>
	<line class="st1" x1="16.1" y1="7.4" x2="16.1" y2="7.4"/>
	<line class="st1" x1="39.4" y1="45.2" x2="39.4" y2="45.2"/>
	<line class="st1" x1="39.1" y1="49.2" x2="39.1" y2="49.2"/>
	<line class="st1" x1="19.9" y1="6.2" x2="19.9" y2="6.2"/>
	<line class="st1" x1="22.8" y1="3.2" x2="22.8" y2="3.2"/>
	<line class="st1" x1="17.4" y1="2.9" x2="17.4" y2="2.9"/>
	<line class="st1" x1="13.8" y1="3.9" x2="13.8" y2="3.9"/>
	<line class="st1" x1="10.3" y1="1.7" x2="10.3" y2="1.7"/>
	<line class="st1" x1="6.8" y1="5.9" x2="6.8" y2="5.9"/>
	<line class="st1" x1="2.1" y1="6.4" x2="2.1" y2="6.4"/>
	<line class="st1" x1="2.1" y1="1.7" x2="2.1" y2="1.7"/>
	<line class="st1" x1="5.4" y1="0.7" x2="5.4" y2="0.7"/>
	<line class="st1" x1="27.4" y1="3.4" x2="27.4" y2="3.4"/>
	<line class="st1" x1="32.3" y1="5.9" x2="32.3" y2="5.9"/>
	<line class="st1" x1="32.1" y1="2.1" x2="32.1" y2="2.1"/>
	<line class="st1" x1="25.6" y1="0.7" x2="25.6" y2="0.7"/>
	<line class="st1" x1="36.3" y1="3.7" x2="36.3" y2="3.7"/>
	<line class="st1" x1="37.8" y1="8.4" x2="37.8" y2="8.4"/>
	<line class="st1" x1="40.8" y1="4.9" x2="40.8" y2="4.9"/>
	<line class="st1" x1="42.1" y1="9.2" x2="42.1" y2="9.2"/>
	<line class="st1" x1="45.1" y1="6.4" x2="45.1" y2="6.4"/>
	<line class="st1" x1="43.1" y1="1.4" x2="43.1" y2="1.4"/>
	<line class="st1" x1="38.3" y1="0.9" x2="38.3" y2="0.9"/>
	<line class="st1" x1="47.6" y1="3.1" x2="47.6" y2="3.1"/>
	<line class="st1" x1="47.3" y1="9.7" x2="47.3" y2="9.7"/>
	<line class="st1" x1="49.8" y1="6.1" x2="49.8" y2="6.1"/>
	<line class="st1" x1="52.1" y1="9.9" x2="52.1" y2="9.9"/>
	<line class="st1" x1="52.8" y1="2.6" x2="52.8" y2="2.6"/>
	<line class="st1" x1="49.8" y1="1.1" x2="49.8" y2="1.1"/>
	<line class="st1" x1="37.3" y1="51.4" x2="37.3" y2="51.4"/>
	<line class="st1" x1="35.4" y1="46.6" x2="35.4" y2="46.6"/>
	<line class="st1" x1="32.6" y1="44.8" x2="32.6" y2="44.8"/>
	<line class="st1" x1="32.8" y1="48.6" x2="32.8" y2="48.6"/>
	<line class="st1" x1="34.3" y1="52.9" x2="34.3" y2="52.9"/>
	<line class="st1" x1="29.6" y1="47.2" x2="29.6" y2="47.2"/>
	<line class="st1" x1="28.1" y1="44.1" x2="28.1" y2="44.1"/>
	<line class="st1" x1="24.9" y1="46.2" x2="24.9" y2="46.2"/>
	<line class="st1" x1="26.6" y1="49.6" x2="26.6" y2="49.6"/>
	<line class="st1" x1="22.1" y1="48.4" x2="22.1" y2="48.4"/>
	<line class="st1" x1="18.8" y1="46" x2="18.8" y2="46"/>
	<line class="st1" x1="17.4" y1="49.6" x2="17.4" y2="49.6"/>
	<line class="st1" x1="15.2" y1="46.5" x2="15.2" y2="46.5"/>
	<line class="st1" x1="19.2" y1="52.1" x2="19.2" y2="52.1"/>
	<line class="st1" x1="23.7" y1="53.1" x2="23.7" y2="53.1"/>
	<line class="st1" x1="29.6" y1="52.1" x2="29.6" y2="52.1"/>
	<line class="st1" x1="14.2" y1="53" x2="14.2" y2="53"/>
	<line class="st1" x1="13" y1="49.4" x2="13" y2="49.4"/>
	<line class="st1" x1="9.3" y1="48.4" x2="9.3" y2="48.4"/>
	<line class="st1" x1="9.4" y1="53" x2="9.4" y2="53"/>
	<line class="st1" x1="6.6" y1="50.5" x2="6.6" y2="50.5"/>
	<line class="st1" x1="2.2" y1="48.8" x2="2.2" y2="48.8"/>
	<line class="st1" x1="2.8" y1="52.5" x2="2.8" y2="52.5"/>
	<line class="st1" x1="39.1" y1="19.4" x2="39.1" y2="19.4"/>
	<line class="st1" x1="40.4" y1="16.6" x2="40.4" y2="16.6"/>
	<line class="st1" x1="44.5" y1="19.2" x2="44.5" y2="19.2"/>
	<line class="st1" x1="51.2" y1="23" x2="51.2" y2="23"/>
	<line class="st1" x1="46.4" y1="22.5" x2="46.4" y2="22.5"/>
	<line class="st1" x1="42" y1="22" x2="42" y2="22"/>
	<line class="st1" x1="38.1" y1="22.1" x2="38.1" y2="22.1"/>
	<line class="st1" x1="34.1" y1="23.3" x2="34.1" y2="23.3"/>
	<line class="st1" x1="32.7" y1="20.8" x2="32.7" y2="20.8"/>
	<line class="st1" x1="36.8" y1="25.8" x2="36.8" y2="25.8"/>
	<line class="st1" x1="39.4" y1="28.4" x2="39.4" y2="28.4"/>
	<line class="st1" x1="42.8" y1="26.7" x2="42.8" y2="26.7"/>
	<line class="st1" x1="42.8" y1="30.1" x2="42.8" y2="30.1"/>
	<line class="st1" x1="46.2" y1="29.6" x2="46.2" y2="29.6"/>
	<line class="st1" x1="47" y1="26.4" x2="47" y2="26.4"/>
	<line class="st1" x1="49.5" y1="28.3" x2="49.5" y2="28.3"/>
	<line class="st1" x1="52.4" y1="26.2" x2="52.4" y2="26.2"/>
	<line class="st1" x1="51.8" y1="29.9" x2="51.8" y2="29.9"/>
	<line class="st1" x1="52.4" y1="33.6" x2="52.4" y2="33.6"/>
	<line class="st1" x1="49.8" y1="34.9" x2="49.8" y2="34.9"/>
	<line class="st1" x1="25.4" y1="5.9" x2="25.4" y2="5.9"/>
	<line class="st1" x1="48.3" y1="32.1" x2="48.3" y2="32.1"/>
	<line class="st1" x1="45.6" y1="34.4" x2="45.6" y2="34.4"/>
	<line class="st1" x1="34.1" y1="9.4" x2="34.1" y2="9.4"/>
	<line class="st1" x1="41.4" y1="33.6" x2="41.4" y2="33.6"/>
	<line class="st1" x1="38.3" y1="32.5" x2="38.3" y2="32.5"/>
	<line class="st1" x1="39" y1="36.1" x2="39" y2="36.1"/>
	<line class="st1" x1="35.3" y1="36.8" x2="35.3" y2="36.8"/>
	<line class="st1" x1="34.7" y1="33.6" x2="34.7" y2="33.6"/>
	<line class="st1" x1="30.9" y1="33.6" x2="30.9" y2="33.6"/>
	<line class="st1" x1="31.4" y1="38.9" x2="31.4" y2="38.9"/>
	<line class="st1" x1="27.2" y1="32.9" x2="27.2" y2="32.9"/>
	<line class="st1" x1="28.1" y1="37.1" x2="28.1" y2="37.1"/>
	<line class="st1" x1="25" y1="36" x2="25" y2="36"/>
	<line class="st1" x1="22.8" y1="33.2" x2="22.8" y2="33.2"/>
	<line class="st1" x1="20.6" y1="36.4" x2="20.6" y2="36.4"/>
	<line class="st1" x1="17.1" y1="35.6" x2="17.1" y2="35.6"/>
	<line class="st1" x1="19.2" y1="32.4" x2="19.2" y2="32.4"/>
	<rect x="0" y="0" class="st2" width="54.1" height="54.1"/>
</g>
</svg>
