<?xml version="1.0" encoding="utf-8"?>
<!-- Generator: Adobe Illustrator 23.0.1, SVG Export Plug-In . SVG Version: 6.00 Build 0)  -->
<svg version="1.1" id="Layer_1" xmlns="http://www.w3.org/2000/svg" xmlns:xlink="http://www.w3.org/1999/xlink" x="0px" y="0px"
	 viewBox="0 0 54.1 54.1" style="enable-background:new 0 0 54.1 54.1;" xml:space="preserve">
<style type="text/css">
	.st0{fill:none;stroke:#231F20;stroke-width:0.3;}
</style>
<g>
	<line class="st0" x1="54.1" y1="10.4" x2="0" y2="10.4"/>
	<line class="st0" x1="54.1" y1="12" x2="0" y2="12"/>
	<line class="st0" x1="54.1" y1="13.5" x2="0" y2="13.5"/>
	<line class="st0" x1="54.1" y1="15.1" x2="0" y2="15.1"/>
	<line class="st0" x1="54.1" y1="16.7" x2="0" y2="16.7"/>
	<line class="st0" x1="54.1" y1="18.3" x2="0" y2="18.3"/>
	<line class="st0" x1="54.1" y1="19.9" x2="0" y2="19.9"/>
	<line class="st0" x1="54.1" y1="21.5" x2="0" y2="21.5"/>
	<line class="st0" x1="54.1" y1="23.1" x2="0" y2="23.1"/>
	<line class="st0" x1="54.1" y1="24.7" x2="0" y2="24.7"/>
	<line class="st0" x1="54.1" y1="26.3" x2="0" y2="26.3"/>
	<line class="st0" x1="0" y1="0.8" x2="54.1" y2="0.8"/>
	<line class="st0" x1="54.1" y1="2.4" x2="0" y2="2.4"/>
	<line class="st0" x1="54.1" y1="4" x2="0" y2="4"/>
	<line class="st0" x1="54.1" y1="5.6" x2="0" y2="5.6"/>
	<line class="st0" x1="54.1" y1="7.2" x2="0" y2="7.2"/>
	<line class="st0" x1="54.1" y1="8.8" x2="0" y2="8.8"/>
	<line class="st0" x1="54.1" y1="27.9" x2="0" y2="27.9"/>
	<line class="st0" x1="54.1" y1="29.4" x2="0" y2="29.4"/>
	<line class="st0" x1="54.1" y1="31" x2="0" y2="31"/>
	<line class="st0" x1="54.1" y1="32.6" x2="0" y2="32.6"/>
	<line class="st0" x1="54.1" y1="34.2" x2="0" y2="34.2"/>
	<line class="st0" x1="54.1" y1="35.8" x2="0" y2="35.8"/>
	<line class="st0" x1="54.1" y1="37.4" x2="0" y2="37.4"/>
	<line class="st0" x1="54.1" y1="39" x2="0" y2="39"/>
	<line class="st0" x1="54.1" y1="40.6" x2="0" y2="40.6"/>
	<line class="st0" x1="54.1" y1="42.2" x2="0" y2="42.2"/>
	<line class="st0" x1="54.1" y1="43.8" x2="0" y2="43.8"/>
	<line class="st0" x1="54.1" y1="45.4" x2="0" y2="45.4"/>
	<line class="st0" x1="54.1" y1="46.9" x2="0" y2="46.9"/>
	<line class="st0" x1="54.1" y1="48.5" x2="0" y2="48.5"/>
	<line class="st0" x1="54.1" y1="50.1" x2="0" y2="50.1"/>
	<line class="st0" x1="54.1" y1="51.7" x2="0" y2="51.7"/>
	<line class="st0" x1="54.1" y1="53.3" x2="0" y2="53.3"/>
</g>
</svg>
