<?xml version="1.0" encoding="utf-8"?>
<!-- Generator: Adobe Illustrator 23.0.1, SVG Export Plug-In . SVG Version: 6.00 Build 0)  -->
<svg version="1.1" id="Layer_1" xmlns="http://www.w3.org/2000/svg" xmlns:xlink="http://www.w3.org/1999/xlink" x="0px" y="0px"
	 viewBox="0 0 54.1 54.1" style="enable-background:new 0 0 54.1 54.1;" xml:space="preserve">
<style type="text/css">
	.st0{clip-path:url(#SVGID_2_);fill:none;stroke:#231F20;stroke-width:4;}
	.st1{clip-path:url(#SVGID_2_);fill:none;stroke:#231F20;stroke-width:4.5;}
	.st2{clip-path:url(#SVGID_2_);fill:none;stroke:#231F20;stroke-width:2;}
	.st3{clip-path:url(#SVGID_2_);fill:none;stroke:#231F20;stroke-width:0.8;}
	.st4{clip-path:url(#SVGID_2_);fill:none;stroke:#231F20;stroke-width:0.7;}
	.st5{clip-path:url(#SVGID_2_);fill:none;stroke:#231F20;stroke-width:0.4;}
	.st6{clip-path:url(#SVGID_2_);fill:none;stroke:#231F20;stroke-width:0.3;}
</style>
<g>
	<defs>
		<rect id="SVGID_1_" x="0" y="0" width="54.1" height="54.1"/>
	</defs>
	<clipPath id="SVGID_2_">
		<use xlink:href="#SVGID_1_"  style="overflow:visible;"/>
	</clipPath>
	<line class="st0" x1="0" y1="11.4" x2="54.1" y2="11.4"/>
	<line class="st0" x1="54.1" y1="54" x2="0" y2="54"/>
	<line class="st0" x1="0" y1="0" x2="54.1" y2="0"/>
	<line class="st1" x1="54.1" y1="44.3" x2="0" y2="44.3"/>
	<line class="st2" x1="54.1" y1="36.8" x2="0" y2="36.8"/>
	<line class="st2" x1="54.1" y1="29.9" x2="0" y2="29.9"/>
	<line class="st3" x1="54.1" y1="24.9" x2="0" y2="24.9"/>
	<line class="st4" x1="54.1" y1="20.4" x2="0" y2="20.4"/>
	<line class="st4" x1="0" y1="4.8" x2="54.1" y2="4.8"/>
	<line class="st4" x1="54.1" y1="17.4" x2="0" y2="17.4"/>
	<line class="st4" x1="54.1" y1="33.6" x2="0" y2="33.6"/>
	<line class="st5" x1="54.1" y1="49" x2="0" y2="49"/>
	<line class="st5" x1="54.1" y1="39.2" x2="0" y2="39.2"/>
	<line class="st5" x1="0" y1="40.2" x2="54.1" y2="40.2"/>
	<line class="st5" x1="54.1" y1="32.4" x2="0" y2="32.4"/>
	<line class="st5" x1="54.1" y1="27.2" x2="0" y2="27.2"/>
	<line class="st5" x1="54.1" y1="19.5" x2="0" y2="19.5"/>
	<line class="st6" x1="0" y1="15.2" x2="54.1" y2="15.2"/>
	<line class="st6" x1="0" y1="16.2" x2="54.1" y2="16.2"/>
	<line class="st6" x1="0" y1="2.9" x2="54.1" y2="2.9"/>
	<line class="st6" x1="54.1" y1="22.6" x2="0" y2="22.6"/>
	<line class="st6" x1="54.1" y1="23.7" x2="0" y2="23.7"/>
	<line class="st6" x1="54.1" y1="49.9" x2="0" y2="49.9"/>
	<line class="st6" x1="54.1" y1="26" x2="0" y2="26"/>
	<line class="st6" x1="54.1" y1="34.9" x2="0" y2="34.9"/>
	<line class="st6" x1="54.1" y1="41.2" x2="0" y2="41.2"/>
	<line class="st6" x1="54.1" y1="47.4" x2="0" y2="47.4"/>
	<line class="st6" x1="54.1" y1="31.6" x2="0" y2="31.6"/>
	<line class="st4" x1="0" y1="8.3" x2="54.1" y2="8.3"/>
	<line class="st5" x1="0" y1="7" x2="54.1" y2="7"/>
	<line class="st6" x1="0" y1="5.9" x2="54.1" y2="5.9"/>
</g>
</svg>
