<?xml version="1.0" encoding="utf-8"?>
<!-- Generator: Adobe Illustrator 23.0.1, SVG Export Plug-In . SVG Version: 6.00 Build 0)  -->
<svg version="1.1" id="Layer_1" xmlns="http://www.w3.org/2000/svg" xmlns:xlink="http://www.w3.org/1999/xlink" x="0px" y="0px"
	 viewBox="0 0 54.1 54.1" style="enable-background:new 0 0 54.1 54.1;" xml:space="preserve">
<style type="text/css">
	.st0{fill:none;stroke:#000000;stroke-width:0.3;}
</style>
<g>
	<line class="st0" x1="18.2" y1="4.5" x2="18.2" y2="2.2"/>
	<line class="st0" x1="1" y1="1.3" x2="14.7" y2="1.3"/>
	<line class="st0" x1="19.8" y1="1.3" x2="32.8" y2="1.3"/>
	<line class="st0" x1="37.5" y1="1.3" x2="52.3" y2="1.3"/>
	<line class="st0" x1="10.6" y1="4.5" x2="0" y2="4.5"/>
	<line class="st0" x1="28.6" y1="4.5" x2="15.6" y2="4.5"/>
	<line class="st0" x1="48.1" y1="4.5" x2="33.8" y2="4.5"/>
	<line class="st0" x1="17" y1="7.5" x2="2.1" y2="7.5"/>
	<line class="st0" x1="22.6" y1="7.5" x2="36" y2="7.5"/>
	<line class="st0" x1="39.8" y1="7.5" x2="52.8" y2="7.5"/>
	<line class="st0" x1="27.5" y1="10.4" x2="6.6" y2="10.4"/>
	<line class="st0" x1="37.3" y1="10.4" x2="54" y2="10.4"/>
	<line class="st0" x1="52.6" y1="13.4" x2="39.3" y2="13.4"/>
	<line class="st0" x1="35.3" y1="13.4" x2="19.8" y2="13.4"/>
	<line class="st0" x1="14.6" y1="13.4" x2="1.6" y2="13.4"/>
	<line class="st0" x1="7.8" y1="16.5" x2="0" y2="16.5"/>
	<line class="st0" x1="14" y1="16.5" x2="26.8" y2="16.5"/>
	<line class="st0" x1="31.9" y1="16.5" x2="47.8" y2="16.5"/>
	<line class="st0" x1="37.4" y1="19.4" x2="24.9" y2="19.4"/>
	<line class="st0" x1="40.9" y1="19.4" x2="51.7" y2="19.4"/>
	<line class="st0" x1="19.6" y1="19.4" x2="1.5" y2="19.4"/>
	<line class="st0" x1="9.8" y1="22.5" x2="0" y2="22.5"/>
	<line class="st0" x1="26.3" y1="22.5" x2="13.8" y2="22.5"/>
	<line class="st0" x1="29.8" y1="22.5" x2="46.3" y2="22.5"/>
	<line class="st0" x1="41.9" y1="25.5" x2="52" y2="25.5"/>
	<line class="st0" x1="17.6" y1="25.5" x2="37.3" y2="25.5"/>
	<line class="st0" x1="0.3" y1="25.5" x2="12.6" y2="25.5"/>
	<line class="st0" x1="9.1" y1="28.7" x2="0" y2="28.7"/>
	<line class="st0" x1="29.5" y1="28.7" x2="15" y2="28.7"/>
	<line class="st0" x1="46.8" y1="28.7" x2="35.6" y2="28.7"/>
	<line class="st0" x1="37.6" y1="31.5" x2="52.5" y2="31.5"/>
	<line class="st0" x1="19.6" y1="31.5" x2="33" y2="31.5"/>
	<line class="st0" x1="14.1" y1="31.5" x2="2.6" y2="31.5"/>
	<line class="st0" x1="0" y1="34.7" x2="7" y2="34.7"/>
	<line class="st0" x1="24.1" y1="34.7" x2="11.5" y2="34.7"/>
	<line class="st0" x1="29.5" y1="34.7" x2="44.8" y2="34.7"/>
	<line class="st0" x1="52.5" y1="37.7" x2="39.8" y2="37.7"/>
	<line class="st0" x1="35" y1="37.7" x2="21.8" y2="37.7"/>
	<line class="st0" x1="17.6" y1="37.7" x2="2.1" y2="37.7"/>
	<line class="st0" x1="9.8" y1="40.7" x2="0" y2="40.7"/>
	<line class="st0" x1="15.5" y1="40.7" x2="29.5" y2="40.7"/>
	<line class="st0" x1="33.4" y1="40.7" x2="47" y2="40.7"/>
	<line class="st0" x1="40.3" y1="43.5" x2="51.1" y2="43.5"/>
	<line class="st0" x1="37" y1="43.5" x2="23.7" y2="43.5"/>
	<line class="st0" x1="19" y1="43.5" x2="3.6" y2="43.5"/>
	<line class="st0" x1="6.5" y1="46.8" x2="0" y2="46.8"/>
	<line class="st0" x1="25.8" y1="46.8" x2="12.8" y2="46.8"/>
	<line class="st0" x1="47" y1="46.8" x2="30.5" y2="46.8"/>
	<line class="st0" x1="41.6" y1="49.7" x2="50.7" y2="49.7"/>
	<line class="st0" x1="23.9" y1="49.7" x2="37" y2="49.7"/>
	<line class="st0" x1="18.1" y1="49.7" x2="2" y2="49.7"/>
	<line class="st0" x1="0" y1="52.8" x2="11" y2="52.8"/>
	<line class="st0" x1="25.2" y1="52.8" x2="16.1" y2="52.8"/>
	<line class="st0" x1="45.5" y1="52.8" x2="31.6" y2="52.8"/>
	<line class="st0" x1="51.9" y1="4.5" x2="54.1" y2="4.5"/>
	<line class="st0" x1="50.1" y1="16.5" x2="54.1" y2="16.5"/>
	<line class="st0" x1="50" y1="22.5" x2="54.1" y2="22.5"/>
	<line class="st0" x1="51.1" y1="28.7" x2="54.1" y2="28.7"/>
	<line class="st0" x1="47.6" y1="34.7" x2="54.1" y2="34.7"/>
	<line class="st0" x1="50.1" y1="40.7" x2="54.1" y2="40.7"/>
	<line class="st0" x1="51.5" y1="46.8" x2="54.1" y2="46.8"/>
	<line class="st0" x1="50.1" y1="52.8" x2="54.1" y2="52.8"/>
	<line class="st0" x1="30.5" y1="5" x2="30.5" y2="7.4"/>
	<line class="st0" x1="29.6" y1="13.3" x2="29.6" y2="11"/>
	<line class="st0" x1="10.3" y1="19.3" x2="10.3" y2="17"/>
	<line class="st0" x1="28.1" y1="23.1" x2="28.1" y2="25.4"/>
	<line class="st0" x1="49" y1="29.1" x2="49" y2="31.4"/>
	<line class="st0" x1="9.1" y1="37.6" x2="9.1" y2="35.3"/>
	<line class="st0" x1="49.8" y1="5.1" x2="49.8" y2="7.4"/>
	<line class="st0" x1="40" y1="26.2" x2="40" y2="28.6"/>
	<line class="st0" x1="18" y1="32.2" x2="18" y2="34.5"/>
	<line class="st0" x1="37.1" y1="38.3" x2="37.1" y2="40.6"/>
	<line class="st0" x1="11.7" y1="43.5" x2="11.7" y2="41.1"/>
	<line class="st0" x1="22.1" y1="46.7" x2="22.1" y2="44.4"/>
	<line class="st0" x1="39.6" y1="50.3" x2="39.6" y2="52.6"/>
	<line class="st0" x1="39.5" y1="20.1" x2="39.5" y2="22.4"/>
	<line class="st0" x1="53.5" y1="20.1" x2="53.5" y2="22.4"/>
	<line class="st0" x1="0.6" y1="46.7" x2="0.6" y2="44.3"/>
	<line class="st0" x1="4.3" y1="11" x2="4.3" y2="13.4"/>
</g>
</svg>
