<?xml version="1.0" encoding="utf-8"?>
<!-- Generator: Adobe Illustrator 23.0.1, SVG Export Plug-In . SVG Version: 6.00 Build 0)  -->
<svg version="1.1" id="Layer_1" xmlns="http://www.w3.org/2000/svg" xmlns:xlink="http://www.w3.org/1999/xlink" x="0px" y="0px"
	 viewBox="0 0 54.1 54.1" style="enable-background:new 0 0 54.1 54.1;" xml:space="preserve">
<style type="text/css">
	.st0{fill:none;stroke:#000000;stroke-width:0.3;}
</style>
<g>
	<line class="st0" x1="32.2" y1="3.7" x2="27.5" y2="3.7"/>
	<line class="st0" x1="53.9" y1="3.7" x2="54.1" y2="3.7"/>
	<line class="st0" x1="18.7" y1="3.7" x2="27.5" y2="3.7"/>
	<line class="st0" x1="12.6" y1="3.7" x2="5.9" y2="3.7"/>
	<line class="st0" x1="0" y1="3.7" x2="5.9" y2="3.7"/>
	<line class="st0" x1="18.7" y1="3.7" x2="12.6" y2="3.7"/>
	<line class="st0" x1="53.9" y1="3.7" x2="46.5" y2="3.7"/>
	<line class="st0" x1="41.1" y1="3.7" x2="46.5" y2="3.7"/>
	<line class="st0" x1="41.1" y1="3.7" x2="32.2" y2="3.7"/>
	<line class="st0" x1="54.1" y1="7.9" x2="0" y2="7.9"/>
	<line class="st0" x1="54.1" y1="12.1" x2="53.4" y2="12.1"/>
	<line class="st0" x1="40.2" y1="12.1" x2="53.4" y2="12.1"/>
	<line class="st0" x1="40.2" y1="12.1" x2="26.8" y2="12.1"/>
	<line class="st0" x1="11.9" y1="12.1" x2="0" y2="12.1"/>
	<line class="st0" x1="26.8" y1="12.1" x2="11.9" y2="12.1"/>
	<line class="st0" x1="33.8" y1="41.7" x2="48.6" y2="41.7"/>
	<line class="st0" x1="20.1" y1="41.7" x2="33.8" y2="41.7"/>
	<line class="st0" x1="6.9" y1="41.7" x2="0" y2="41.7"/>
	<line class="st0" x1="6.9" y1="41.7" x2="20.1" y2="41.7"/>
	<line class="st0" x1="48.6" y1="41.7" x2="54.1" y2="41.7"/>
	<line class="st0" x1="53.7" y1="45.5" x2="54.1" y2="45.5"/>
	<line class="st0" x1="26.4" y1="45.5" x2="11.9" y2="45.5"/>
	<line class="st0" x1="11.9" y1="45.5" x2="0" y2="45.5"/>
	<line class="st0" x1="40.3" y1="45.5" x2="26.4" y2="45.5"/>
	<line class="st0" x1="40.3" y1="45.5" x2="53.7" y2="45.5"/>
	<line class="st0" x1="5.9" y1="16.1" x2="0" y2="16.1"/>
	<line class="st0" x1="31.9" y1="16.1" x2="18.7" y2="16.1"/>
	<line class="st0" x1="31.9" y1="16.1" x2="46.5" y2="16.1"/>
	<line class="st0" x1="18.7" y1="16.1" x2="5.9" y2="16.1"/>
	<line class="st0" x1="46.5" y1="16.1" x2="54.1" y2="16.1"/>
	<line class="st0" x1="27.5" y1="19.4" x2="12.5" y2="19.4"/>
	<line class="st0" x1="41.2" y1="19.4" x2="54" y2="19.4"/>
	<line class="st0" x1="54" y1="19.4" x2="54.1" y2="19.4"/>
	<line class="st0" x1="12.5" y1="19.4" x2="0" y2="19.4"/>
	<line class="st0" x1="41.2" y1="19.4" x2="27.5" y2="19.4"/>
	<line class="st0" x1="48.7" y1="22.8" x2="33.8" y2="22.8"/>
	<line class="st0" x1="33.8" y1="22.8" x2="20.2" y2="22.8"/>
	<line class="st0" x1="6.7" y1="22.8" x2="0" y2="22.8"/>
	<line class="st0" x1="20.2" y1="22.8" x2="6.7" y2="22.8"/>
	<line class="st0" x1="48.7" y1="22.8" x2="54.1" y2="22.8"/>
	<line class="st0" x1="0" y1="26.9" x2="54.1" y2="26.9"/>
	<line class="st0" x1="0" y1="30.7" x2="54.1" y2="30.7"/>
	<line class="st0" x1="54.1" y1="34.9" x2="0" y2="34.9"/>
	<line class="st0" x1="0" y1="38.1" x2="54.1" y2="38.1"/>
	<line class="st0" x1="38.4" y1="53.3" x2="32.2" y2="53.3"/>
	<line class="st0" x1="0" y1="53.3" x2="5.9" y2="53.3"/>
	<line class="st0" x1="18.7" y1="53.3" x2="10.3" y2="53.3"/>
	<line class="st0" x1="38.4" y1="53.3" x2="46.5" y2="53.3"/>
	<line class="st0" x1="51.7" y1="53.3" x2="46.5" y2="53.3"/>
	<line class="st0" x1="51.7" y1="53.3" x2="54.1" y2="53.3"/>
	<line class="st0" x1="24.7" y1="53.3" x2="18.7" y2="53.3"/>
	<line class="st0" x1="24.7" y1="53.3" x2="32.2" y2="53.3"/>
	<line class="st0" x1="5.9" y1="53.3" x2="10.3" y2="53.3"/>
	<line class="st0" x1="5.9" y1="0" x2="5.9" y2="3.7"/>
	<line class="st0" x1="18.7" y1="3.7" x2="18.7" y2="0"/>
	<line class="st0" x1="32.2" y1="0" x2="32.2" y2="3.7"/>
	<line class="st0" x1="46.5" y1="0" x2="46.5" y2="3.7"/>
	<line class="st0" x1="5.9" y1="53.3" x2="5.9" y2="53.3"/>
	<line class="st0" x1="5.9" y1="54.1" x2="5.9" y2="53.3"/>
	<line class="st0" x1="18.7" y1="53.3" x2="18.7" y2="53.3"/>
	<line class="st0" x1="18.7" y1="54.1" x2="18.7" y2="53.3"/>
	<line class="st0" x1="32.2" y1="53.3" x2="32.2" y2="53.3"/>
	<line class="st0" x1="32.2" y1="54.1" x2="32.2" y2="53.3"/>
	<line class="st0" x1="46.5" y1="53.3" x2="46.5" y2="53.3"/>
	<line class="st0" x1="46.5" y1="54.1" x2="46.5" y2="53.3"/>
	<line class="st0" x1="12.6" y1="3.7" x2="12.6" y2="7.9"/>
	<line class="st0" x1="12.6" y1="3.7" x2="12.6" y2="3.7"/>
	<line class="st0" x1="27.5" y1="3.7" x2="27.5" y2="3.7"/>
	<line class="st0" x1="27.5" y1="7.9" x2="27.5" y2="3.7"/>
	<line class="st0" x1="41.1" y1="3.7" x2="41.1" y2="7.9"/>
	<line class="st0" x1="41.1" y1="3.7" x2="41.1" y2="3.7"/>
	<line class="st0" x1="53.9" y1="3.7" x2="53.9" y2="3.7"/>
	<line class="st0" x1="53.9" y1="3.7" x2="53.9" y2="7.9"/>
	<line class="st0" x1="7" y1="12.1" x2="7" y2="8.1"/>
	<line class="st0" x1="20.3" y1="12.1" x2="20.3" y2="8.1"/>
	<line class="st0" x1="33.8" y1="12.1" x2="33.8" y2="8.1"/>
	<line class="st0" x1="48.8" y1="12.1" x2="48.8" y2="8.1"/>
	<line class="st0" x1="40.2" y1="12.1" x2="40.2" y2="16.1"/>
	<line class="st0" x1="40.2" y1="12.1" x2="40.2" y2="12.1"/>
	<line class="st0" x1="26.8" y1="12.1" x2="26.8" y2="12.1"/>
	<line class="st0" x1="26.8" y1="12.1" x2="26.8" y2="16.1"/>
	<line class="st0" x1="11.9" y1="12.1" x2="11.9" y2="12.1"/>
	<line class="st0" x1="11.9" y1="12.1" x2="11.9" y2="16.1"/>
	<line class="st0" x1="53.4" y1="16.1" x2="53.4" y2="12.1"/>
	<line class="st0" x1="53.4" y1="12.1" x2="53.4" y2="12.1"/>
	<line class="st0" x1="46.5" y1="16.1" x2="46.5" y2="16.1"/>
	<line class="st0" x1="46.5" y1="16.1" x2="46.5" y2="19.4"/>
	<line class="st0" x1="31.9" y1="16.1" x2="31.9" y2="16.1"/>
	<line class="st0" x1="31.9" y1="16.1" x2="31.9" y2="19.4"/>
	<line class="st0" x1="18.7" y1="16.1" x2="18.7" y2="19.4"/>
	<line class="st0" x1="18.7" y1="16.1" x2="18.7" y2="16.1"/>
	<line class="st0" x1="5.9" y1="16.1" x2="5.9" y2="19.4"/>
	<line class="st0" x1="5.9" y1="16.1" x2="5.9" y2="16.1"/>
	<line class="st0" x1="12.5" y1="19.4" x2="12.5" y2="22.8"/>
	<line class="st0" x1="12.5" y1="19.4" x2="12.5" y2="19.4"/>
	<line class="st0" x1="27.5" y1="19.4" x2="27.5" y2="22.8"/>
	<line class="st0" x1="27.5" y1="19.4" x2="27.5" y2="19.4"/>
	<line class="st0" x1="41.2" y1="19.4" x2="41.2" y2="19.4"/>
	<line class="st0" x1="41.2" y1="19.4" x2="41.2" y2="22.8"/>
	<line class="st0" x1="54" y1="19.4" x2="54" y2="19.4"/>
	<line class="st0" x1="54" y1="19.4" x2="54" y2="22.8"/>
	<line class="st0" x1="6.7" y1="22.8" x2="6.7" y2="26.9"/>
	<line class="st0" x1="6.7" y1="22.8" x2="6.7" y2="22.8"/>
	<line class="st0" x1="20.2" y1="22.8" x2="20.2" y2="22.8"/>
	<line class="st0" x1="20.2" y1="22.8" x2="20.2" y2="26.9"/>
	<line class="st0" x1="33.8" y1="22.8" x2="33.8" y2="26.9"/>
	<line class="st0" x1="33.8" y1="22.8" x2="33.8" y2="22.8"/>
	<line class="st0" x1="48.7" y1="22.8" x2="48.7" y2="22.8"/>
	<line class="st0" x1="48.7" y1="22.8" x2="48.7" y2="26.9"/>
	<line class="st0" x1="40" y1="26.9" x2="40" y2="30.7"/>
	<line class="st0" x1="26.7" y1="26.9" x2="26.7" y2="30.7"/>
	<line class="st0" x1="11.7" y1="26.9" x2="11.7" y2="30.7"/>
	<line class="st0" x1="53.3" y1="30.7" x2="53.3" y2="26.9"/>
	<line class="st0" x1="5.5" y1="30.7" x2="5.5" y2="34.9"/>
	<line class="st0" x1="18.5" y1="30.7" x2="18.5" y2="34.9"/>
	<line class="st0" x1="32.2" y1="30.7" x2="32.2" y2="34.9"/>
	<line class="st0" x1="46.4" y1="30.7" x2="46.4" y2="34.9"/>
	<line class="st0" x1="42.2" y1="34.9" x2="42.2" y2="38.1"/>
	<line class="st0" x1="28" y1="34.9" x2="28" y2="38.1"/>
	<line class="st0" x1="12.9" y1="34.9" x2="12.9" y2="38.1"/>
	<line class="st0" x1="0.5" y1="34.9" x2="0.5" y2="38.1"/>
	<line class="st0" x1="6.9" y1="41.7" x2="6.9" y2="38.2"/>
	<line class="st0" x1="20.1" y1="41.7" x2="20.1" y2="38.2"/>
	<line class="st0" x1="33.8" y1="41.7" x2="33.8" y2="38.2"/>
	<line class="st0" x1="48.6" y1="41.7" x2="48.6" y2="38.2"/>
	<line class="st0" x1="40.3" y1="45.5" x2="40.3" y2="45.5"/>
	<line class="st0" x1="40.3" y1="45.5" x2="40.3" y2="41.8"/>
	<line class="st0" x1="26.4" y1="45.5" x2="26.4" y2="41.8"/>
	<line class="st0" x1="26.4" y1="45.5" x2="26.4" y2="45.5"/>
	<line class="st0" x1="11.9" y1="45.5" x2="11.9" y2="45.5"/>
	<line class="st0" x1="11.9" y1="41.8" x2="11.9" y2="45.5"/>
	<line class="st0" x1="53.7" y1="45.5" x2="53.7" y2="41.8"/>
	<line class="st0" x1="53.7" y1="45.5" x2="53.7" y2="45.5"/>
	<line class="st0" x1="38.4" y1="49.9" x2="24.7" y2="49.9"/>
	<line class="st0" x1="51.7" y1="49.9" x2="38.4" y2="49.9"/>
	<line class="st0" x1="0" y1="49.9" x2="10.3" y2="49.9"/>
	<line class="st0" x1="51.7" y1="49.9" x2="54.1" y2="49.9"/>
	<line class="st0" x1="24.7" y1="49.9" x2="10.3" y2="49.9"/>
	<line class="st0" x1="10.3" y1="49.9" x2="10.3" y2="53.3"/>
	<line class="st0" x1="10.3" y1="49.9" x2="10.3" y2="49.9"/>
	<line class="st0" x1="10.3" y1="53.3" x2="10.3" y2="53.3"/>
	<line class="st0" x1="24.7" y1="49.9" x2="24.7" y2="53.3"/>
	<line class="st0" x1="24.7" y1="53.3" x2="24.7" y2="53.3"/>
	<line class="st0" x1="24.7" y1="49.9" x2="24.7" y2="49.9"/>
	<line class="st0" x1="38.4" y1="53.3" x2="38.4" y2="49.9"/>
	<line class="st0" x1="38.4" y1="53.3" x2="38.4" y2="53.3"/>
	<line class="st0" x1="38.4" y1="49.9" x2="38.4" y2="49.9"/>
	<line class="st0" x1="51.7" y1="53.3" x2="51.7" y2="49.9"/>
	<line class="st0" x1="51.7" y1="53.3" x2="51.7" y2="53.3"/>
	<line class="st0" x1="51.7" y1="49.9" x2="51.7" y2="49.9"/>
	<line class="st0" x1="4.6" y1="45.5" x2="4.6" y2="49.9"/>
	<line class="st0" x1="17.6" y1="45.5" x2="17.6" y2="49.9"/>
	<line class="st0" x1="31.6" y1="45.5" x2="31.6" y2="49.9"/>
	<line class="st0" x1="46.1" y1="49.9" x2="46.1" y2="45.5"/>
	<polygon class="st0" points="45.8,20.5 45,21.7 49.4,21.7 50.2,20.5 	"/>
	<polygon class="st0" points="36.1,21.7 36.9,20.5 32.5,20.5 31.7,21.7 	"/>
	<polygon class="st0" points="22.1,21.7 22.9,20.5 18.5,20.5 17.7,21.7 	"/>
	<polygon class="st0" points="8,21.8 8.8,20.5 4.4,20.5 3.6,21.8 	"/>
	<polygon class="st0" points="9.7,18.5 14.1,18.5 14.9,17.2 10.5,17.2 	"/>
	<polygon class="st0" points="8.2,13.6 3.8,13.6 3,14.8 7.4,14.8 	"/>
	<polygon class="st0" points="21.9,13.6 17.5,13.6 16.7,14.8 21.1,14.8 	"/>
	<polygon class="st0" points="36,13.6 31.6,13.6 30.9,14.8 35.2,14.8 	"/>
	<polygon class="st0" points="44.6,14.9 49,14.9 49.8,13.7 45.4,13.7 	"/>
	<polygon class="st0" points="43.8,9.4 39.4,9.4 38.6,10.6 43,10.6 	"/>
	<polygon class="st0" points="30,9.4 25.6,9.4 24.9,10.7 29.2,10.7 	"/>
	<polygon class="st0" points="16.4,9.4 12,9.4 11.2,10.6 15.6,10.6 	"/>
	<polyline class="st0" points="0,10.7 3,10.7 3.8,9.4 0,9.4 	"/>
	<polygon class="st0" points="4.3,5.2 3.5,6.5 7.9,6.5 8.7,5.2 	"/>
	<polygon class="st0" points="17.4,6.5 21.7,6.5 22.5,5.2 18.1,5.2 	"/>
	<polygon class="st0" points="32,6.5 36.4,6.5 37.2,5.2 32.8,5.2 	"/>
	<polygon class="st0" points="46.3,5.2 45.5,6.5 49.9,6.5 50.7,5.2 	"/>
	<polygon class="st0" points="28,1.2 23.6,1.2 22.9,2.4 27.2,2.4 	"/>
	<polygon class="st0" points="41.9,1.2 37.5,1.2 36.7,2.4 41.1,2.4 	"/>
	<polygon class="st0" points="14.1,2.4 14.9,1.2 10.5,1.2 9.7,2.4 	"/>
	<polyline class="st0" points="0,2.4 1.4,2.4 2.2,1.2 0,1.2 	"/>
	<polygon class="st0" points="10.6,25.5 15,25.5 15.8,24.3 11.4,24.3 	"/>
	<polyline class="st0" points="0,25.5 2.6,25.5 3.4,24.3 0,24.3 	"/>
	<polygon class="st0" points="24.6,25.5 29,25.5 29.8,24.3 25.4,24.3 	"/>
	<polygon class="st0" points="38.6,25.5 43,25.5 43.8,24.3 39.4,24.3 	"/>
	<polygon class="st0" points="44.2,29.4 48.6,29.4 49.4,28.1 45,28.1 	"/>
	<polygon class="st0" points="30.7,29.4 35.1,29.4 35.9,28.1 31.5,28.1 	"/>
	<polygon class="st0" points="16.4,29.4 20.7,29.4 21.5,28.1 17.1,28.1 	"/>
	<polygon class="st0" points="2.4,29.4 6.7,29.4 7.5,28.1 3.1,28.1 	"/>
	<polygon class="st0" points="9.2,33.3 13.6,33.3 14.4,32.1 10,32.1 	"/>
	<polygon class="st0" points="22.9,33.3 27.2,33.3 28,32.1 23.6,32.1 	"/>
	<polyline class="st0" points="0,33.3 0.7,33.3 1.5,32.1 0,32.1 	"/>
	<polygon class="st0" points="36.7,33.3 41.1,33.3 41.9,32.1 37.5,32.1 	"/>
	<polygon class="st0" points="46.2,37.1 50.6,37.1 51.4,35.9 47,35.9 	"/>
	<polygon class="st0" points="32.3,37.1 36.6,37.1 37.4,35.9 33,35.9 	"/>
	<polygon class="st0" points="17.8,37.1 22.1,37.1 22.9,35.9 18.5,35.9 	"/>
	<polygon class="st0" points="4,37.1 8.4,37.1 9.2,35.9 4.8,35.9 	"/>
	<polyline class="st0" points="0,40.6 2.7,40.6 3.5,39.4 0,39.4 	"/>
	<polygon class="st0" points="16.3,39.4 11.9,39.4 11.1,40.6 15.5,40.6 	"/>
	<polygon class="st0" points="29.4,39.4 25,39.4 24.3,40.6 28.6,40.6 	"/>
	<polygon class="st0" points="43.6,39.4 39.2,39.4 38.4,40.6 42.8,40.6 	"/>
	<polygon class="st0" points="49.8,43 45.4,43 44.6,44.2 49,44.2 	"/>
	<polygon class="st0" points="31.3,43 30.5,44.2 34.9,44.2 35.7,43 	"/>
	<polygon class="st0" points="16.5,44.2 20.9,44.2 21.7,43 17.3,43 	"/>
	<polygon class="st0" points="2.6,44.2 7,44.2 7.8,43 3.4,43 	"/>
	<polyline class="st0" points="0,48.5 0.1,48.5 0.9,47.2 0,47.2 	"/>
	<polygon class="st0" points="12.6,48.5 13.4,47.2 9,47.2 8.3,48.5 	"/>
	<polygon class="st0" points="21.8,48.5 26.1,48.5 26.9,47.2 22.5,47.2 	"/>
	<polygon class="st0" points="40.8,48.5 41.6,47.2 37.2,47.2 36.4,48.5 	"/>
	<polygon class="st0" points="6.7,51 2.3,51 1.5,52.2 5.9,52.2 	"/>
	<polygon class="st0" points="14.9,52.2 19.3,52.2 20.1,51 15.7,51 	"/>
	<polygon class="st0" points="33.6,52.2 34.4,51 30,51 29.3,52.2 	"/>
	<polygon class="st0" points="46.9,52.2 47.7,51 43.3,51 42.5,52.2 	"/>
	<polygon class="st0" points="28,17.3 23.7,17.3 22.9,18.5 27.3,18.5 	"/>
	<polygon class="st0" points="37.1,18.4 41.5,18.4 42.3,17.2 37.9,17.2 	"/>
	<polyline class="st0" points="0,18.5 1,18.5 1.8,17.2 0,17.2 	"/>
	<polyline class="st0" points="54.1,9.4 53.5,9.4 52.8,10.7 54.1,10.7 	"/>
	<polyline class="st0" points="54.1,1.2 51.9,1.2 51.1,2.4 54.1,2.4 	"/>
	<polyline class="st0" points="54.1,24.3 53.1,24.3 52.4,25.5 54.1,25.5 	"/>
	<polyline class="st0" points="54.1,32.1 51.2,32.1 50.4,33.3 54.1,33.3 	"/>
	<polyline class="st0" points="54.1,39.4 53.3,39.4 52.5,40.6 54.1,40.6 	"/>
	<polyline class="st0" points="54.1,47.2 50.6,47.2 49.8,48.5 54.1,48.5 	"/>
	<polyline class="st0" points="54.1,17.2 51.5,17.2 50.7,18.5 54.1,18.5 	"/>
</g>
</svg>
