<?xml version="1.0" encoding="utf-8"?>
<!-- Generator: Adobe Illustrator 23.0.1, SVG Export Plug-In . SVG Version: 6.00 Build 0)  -->
<svg version="1.1" id="Layer_1" xmlns="http://www.w3.org/2000/svg" xmlns:xlink="http://www.w3.org/1999/xlink" x="0px" y="0px"
	 viewBox="0 0 54.1 54.1" style="enable-background:new 0 0 54.1 54.1;" xml:space="preserve">
<style type="text/css">
	.st0{clip-path:url(#SVGID_2_);fill:none;stroke:#000000;stroke-width:0.3;}
</style>
<g>
	<defs>
		<rect id="SVGID_1_" x="0" y="0" width="54.1" height="54.1"/>
	</defs>
	<clipPath id="SVGID_2_">
		<use xlink:href="#SVGID_1_"  style="overflow:visible;"/>
	</clipPath>
	<line class="st0" x1="27.5" y1="3.8" x2="18.7" y2="3.8"/>
	<line class="st0" x1="12.6" y1="3.8" x2="18.7" y2="3.8"/>
	<line class="st0" x1="53.9" y1="3.8" x2="54.1" y2="3.8"/>
	<line class="st0" x1="0" y1="3.8" x2="5.9" y2="3.8"/>
	<line class="st0" x1="12.6" y1="3.8" x2="5.9" y2="3.8"/>
	<line class="st0" x1="53.9" y1="3.8" x2="46.5" y2="3.8"/>
	<line class="st0" x1="32.2" y1="3.8" x2="41.1" y2="3.8"/>
	<line class="st0" x1="46.5" y1="3.8" x2="41.1" y2="3.8"/>
	<line class="st0" x1="32.2" y1="3.8" x2="27.5" y2="3.8"/>
	<line class="st0" x1="54.1" y1="7.9" x2="0" y2="7.9"/>
	<line class="st0" x1="0" y1="12.1" x2="11.9" y2="12.1"/>
	<line class="st0" x1="53.4" y1="12.1" x2="54.1" y2="12.1"/>
	<line class="st0" x1="26.8" y1="12.1" x2="11.9" y2="12.1"/>
	<line class="st0" x1="26.8" y1="12.1" x2="40.2" y2="12.1"/>
	<line class="st0" x1="40.2" y1="12.1" x2="53.4" y2="12.1"/>
	<line class="st0" x1="33.8" y1="41.7" x2="48.6" y2="41.7"/>
	<line class="st0" x1="20.1" y1="41.7" x2="33.8" y2="41.7"/>
	<line class="st0" x1="6.9" y1="41.7" x2="0" y2="41.7"/>
	<line class="st0" x1="6.9" y1="41.7" x2="20.1" y2="41.7"/>
	<line class="st0" x1="48.6" y1="41.7" x2="54.1" y2="41.7"/>
	<line class="st0" x1="26.4" y1="45.5" x2="40.3" y2="45.5"/>
	<line class="st0" x1="40.3" y1="45.5" x2="53.7" y2="45.5"/>
	<line class="st0" x1="26.4" y1="45.5" x2="11.9" y2="45.5"/>
	<line class="st0" x1="11.9" y1="45.5" x2="0" y2="45.5"/>
	<line class="st0" x1="53.7" y1="45.5" x2="54.1" y2="45.5"/>
	<line class="st0" x1="46.5" y1="16.1" x2="54.1" y2="16.1"/>
	<line class="st0" x1="46.5" y1="16.1" x2="31.9" y2="16.1"/>
	<line class="st0" x1="18.7" y1="16.1" x2="31.9" y2="16.1"/>
	<line class="st0" x1="5.9" y1="16.1" x2="0" y2="16.1"/>
	<line class="st0" x1="18.7" y1="16.1" x2="5.9" y2="16.1"/>
	<line class="st0" x1="12.5" y1="19.4" x2="0" y2="19.4"/>
	<line class="st0" x1="54" y1="19.4" x2="54.1" y2="19.4"/>
	<line class="st0" x1="27.5" y1="19.4" x2="12.5" y2="19.4"/>
	<line class="st0" x1="41.2" y1="19.4" x2="54" y2="19.4"/>
	<line class="st0" x1="41.2" y1="19.4" x2="27.5" y2="19.4"/>
	<line class="st0" x1="54.1" y1="22.8" x2="48.7" y2="22.8"/>
	<line class="st0" x1="20.2" y1="22.8" x2="6.7" y2="22.8"/>
	<line class="st0" x1="33.8" y1="22.8" x2="20.2" y2="22.8"/>
	<line class="st0" x1="48.7" y1="22.8" x2="33.8" y2="22.8"/>
	<line class="st0" x1="6.7" y1="22.8" x2="0" y2="22.8"/>
	<line class="st0" x1="0" y1="26.9" x2="54.1" y2="26.9"/>
	<line class="st0" x1="0" y1="30.7" x2="54.1" y2="30.7"/>
	<line class="st0" x1="0" y1="34.9" x2="54.1" y2="34.9"/>
	<line class="st0" x1="0" y1="38.1" x2="54.1" y2="38.1"/>
	<line class="st0" x1="0" y1="53.3" x2="5.9" y2="53.3"/>
	<line class="st0" x1="5.9" y1="53.3" x2="10.3" y2="53.3"/>
	<line class="st0" x1="54.1" y1="53.3" x2="51.7" y2="53.3"/>
	<line class="st0" x1="38.4" y1="53.3" x2="46.5" y2="53.3"/>
	<line class="st0" x1="18.7" y1="53.3" x2="10.3" y2="53.3"/>
	<line class="st0" x1="46.5" y1="53.3" x2="51.7" y2="53.3"/>
	<line class="st0" x1="38.4" y1="53.3" x2="32.2" y2="53.3"/>
	<line class="st0" x1="24.7" y1="53.3" x2="32.2" y2="53.3"/>
	<line class="st0" x1="18.7" y1="53.3" x2="24.7" y2="53.3"/>
	<line class="st0" x1="5.9" y1="0" x2="5.9" y2="3.8"/>
	<line class="st0" x1="18.7" y1="0" x2="18.7" y2="3.8"/>
	<line class="st0" x1="32.2" y1="3.8" x2="32.2" y2="0"/>
	<line class="st0" x1="46.5" y1="0" x2="46.5" y2="3.8"/>
	<line class="st0" x1="5.9" y1="53.3" x2="5.9" y2="53.3"/>
	<line class="st0" x1="5.9" y1="54.1" x2="5.9" y2="53.3"/>
	<line class="st0" x1="18.7" y1="53.3" x2="18.7" y2="53.3"/>
	<line class="st0" x1="18.7" y1="53.3" x2="18.7" y2="54.1"/>
	<line class="st0" x1="32.2" y1="53.3" x2="32.2" y2="53.3"/>
	<line class="st0" x1="32.2" y1="54.1" x2="32.2" y2="53.3"/>
	<line class="st0" x1="46.5" y1="53.3" x2="46.5" y2="53.3"/>
	<line class="st0" x1="46.5" y1="54.1" x2="46.5" y2="53.3"/>
	<line class="st0" x1="12.6" y1="3.8" x2="12.6" y2="7.9"/>
	<line class="st0" x1="12.6" y1="3.8" x2="12.6" y2="3.7"/>
	<line class="st0" x1="27.5" y1="3.7" x2="27.5" y2="3.8"/>
	<line class="st0" x1="27.5" y1="3.8" x2="27.5" y2="7.9"/>
	<line class="st0" x1="41.1" y1="7.9" x2="41.1" y2="3.8"/>
	<line class="st0" x1="41.1" y1="3.7" x2="41.1" y2="3.8"/>
	<line class="st0" x1="53.9" y1="3.8" x2="53.9" y2="3.7"/>
	<line class="st0" x1="53.9" y1="3.8" x2="53.9" y2="7.9"/>
	<line class="st0" x1="7" y1="12.1" x2="7" y2="8"/>
	<line class="st0" x1="20.3" y1="12.1" x2="20.3" y2="8"/>
	<line class="st0" x1="33.8" y1="12.1" x2="33.8" y2="8"/>
	<line class="st0" x1="48.8" y1="12.1" x2="48.8" y2="8"/>
	<line class="st0" x1="40.2" y1="12.1" x2="40.2" y2="12.1"/>
	<line class="st0" x1="40.2" y1="16.1" x2="40.2" y2="12.1"/>
	<line class="st0" x1="26.8" y1="12.1" x2="26.8" y2="12.1"/>
	<line class="st0" x1="26.8" y1="12.1" x2="26.8" y2="16.1"/>
	<line class="st0" x1="11.9" y1="16.1" x2="11.9" y2="12.1"/>
	<line class="st0" x1="11.9" y1="12.1" x2="11.9" y2="12.1"/>
	<line class="st0" x1="53.4" y1="12.1" x2="53.4" y2="12.1"/>
	<line class="st0" x1="53.4" y1="16.1" x2="53.4" y2="12.1"/>
	<line class="st0" x1="46.5" y1="16.1" x2="46.5" y2="19.4"/>
	<line class="st0" x1="46.5" y1="16.1" x2="46.5" y2="16.1"/>
	<line class="st0" x1="31.9" y1="16.1" x2="31.9" y2="16.1"/>
	<line class="st0" x1="31.9" y1="16.1" x2="31.9" y2="19.4"/>
	<line class="st0" x1="18.7" y1="16.1" x2="18.7" y2="19.4"/>
	<line class="st0" x1="18.7" y1="16.1" x2="18.7" y2="16.1"/>
	<line class="st0" x1="5.9" y1="16.1" x2="5.9" y2="19.4"/>
	<line class="st0" x1="5.9" y1="16.1" x2="5.9" y2="16.1"/>
	<line class="st0" x1="12.5" y1="19.4" x2="12.5" y2="22.8"/>
	<line class="st0" x1="12.5" y1="19.4" x2="12.5" y2="19.4"/>
	<line class="st0" x1="27.5" y1="19.4" x2="27.5" y2="22.8"/>
	<line class="st0" x1="27.5" y1="19.4" x2="27.5" y2="19.4"/>
	<line class="st0" x1="41.2" y1="19.4" x2="41.2" y2="19.4"/>
	<line class="st0" x1="41.2" y1="19.4" x2="41.2" y2="22.8"/>
	<line class="st0" x1="54" y1="19.4" x2="54" y2="19.4"/>
	<line class="st0" x1="54" y1="19.4" x2="54" y2="22.8"/>
	<line class="st0" x1="6.7" y1="22.8" x2="6.7" y2="26.9"/>
	<line class="st0" x1="6.7" y1="22.8" x2="6.7" y2="22.8"/>
	<line class="st0" x1="20.2" y1="22.8" x2="20.2" y2="26.9"/>
	<line class="st0" x1="20.2" y1="22.8" x2="20.2" y2="22.8"/>
	<line class="st0" x1="33.8" y1="22.8" x2="33.8" y2="22.8"/>
	<line class="st0" x1="33.8" y1="22.8" x2="33.8" y2="26.9"/>
	<line class="st0" x1="48.7" y1="22.8" x2="48.7" y2="22.8"/>
	<line class="st0" x1="48.7" y1="22.8" x2="48.7" y2="26.9"/>
	<line class="st0" x1="40" y1="26.9" x2="40" y2="30.7"/>
	<line class="st0" x1="26.7" y1="26.9" x2="26.7" y2="30.7"/>
	<line class="st0" x1="11.7" y1="26.9" x2="11.7" y2="30.7"/>
	<line class="st0" x1="53.3" y1="30.7" x2="53.3" y2="26.9"/>
	<line class="st0" x1="5.5" y1="30.7" x2="5.5" y2="34.9"/>
	<line class="st0" x1="18.5" y1="30.7" x2="18.5" y2="34.9"/>
	<line class="st0" x1="32.2" y1="30.7" x2="32.2" y2="34.9"/>
	<line class="st0" x1="46.4" y1="30.7" x2="46.4" y2="34.9"/>
	<line class="st0" x1="42.2" y1="34.9" x2="42.2" y2="38.1"/>
	<line class="st0" x1="28" y1="34.9" x2="28" y2="38.1"/>
	<line class="st0" x1="12.9" y1="34.9" x2="12.9" y2="38.1"/>
	<line class="st0" x1="0.5" y1="34.9" x2="0.5" y2="38.1"/>
	<line class="st0" x1="6.9" y1="41.7" x2="6.9" y2="38.2"/>
	<line class="st0" x1="20.1" y1="41.7" x2="20.1" y2="38.2"/>
	<line class="st0" x1="33.8" y1="41.7" x2="33.8" y2="38.2"/>
	<line class="st0" x1="48.6" y1="41.7" x2="48.6" y2="38.2"/>
	<line class="st0" x1="40.3" y1="45.5" x2="40.3" y2="41.8"/>
	<line class="st0" x1="40.3" y1="45.5" x2="40.3" y2="45.5"/>
	<line class="st0" x1="26.4" y1="45.5" x2="26.4" y2="41.8"/>
	<line class="st0" x1="26.4" y1="45.5" x2="26.4" y2="45.5"/>
	<line class="st0" x1="11.9" y1="45.5" x2="11.9" y2="45.5"/>
	<line class="st0" x1="11.9" y1="41.8" x2="11.9" y2="45.5"/>
	<line class="st0" x1="53.7" y1="45.5" x2="53.7" y2="45.5"/>
	<line class="st0" x1="53.7" y1="45.5" x2="53.7" y2="41.8"/>
	<line class="st0" x1="54.1" y1="49.9" x2="51.7" y2="49.9"/>
	<line class="st0" x1="38.4" y1="49.9" x2="24.7" y2="49.9"/>
	<line class="st0" x1="38.4" y1="49.9" x2="51.7" y2="49.9"/>
	<line class="st0" x1="24.7" y1="49.9" x2="10.3" y2="49.9"/>
	<line class="st0" x1="0" y1="49.9" x2="10.3" y2="49.9"/>
	<line class="st0" x1="10.3" y1="49.9" x2="10.3" y2="53.3"/>
	<line class="st0" x1="10.3" y1="53.3" x2="10.3" y2="53.3"/>
	<line class="st0" x1="10.3" y1="49.9" x2="10.3" y2="49.9"/>
	<line class="st0" x1="24.7" y1="49.9" x2="24.7" y2="49.9"/>
	<line class="st0" x1="24.7" y1="49.9" x2="24.7" y2="53.3"/>
	<line class="st0" x1="24.7" y1="53.3" x2="24.7" y2="53.3"/>
	<line class="st0" x1="38.4" y1="49.9" x2="38.4" y2="49.9"/>
	<line class="st0" x1="38.4" y1="53.3" x2="38.4" y2="49.9"/>
	<line class="st0" x1="38.4" y1="53.3" x2="38.4" y2="53.3"/>
	<line class="st0" x1="51.7" y1="49.9" x2="51.7" y2="49.9"/>
	<line class="st0" x1="51.7" y1="49.9" x2="51.7" y2="53.3"/>
	<line class="st0" x1="51.7" y1="53.3" x2="51.7" y2="53.3"/>
	<line class="st0" x1="4.6" y1="45.5" x2="4.6" y2="49.9"/>
	<line class="st0" x1="17.6" y1="45.5" x2="17.6" y2="49.9"/>
	<line class="st0" x1="31.6" y1="45.5" x2="31.6" y2="49.9"/>
	<line class="st0" x1="46.1" y1="45.5" x2="46.1" y2="49.9"/>
	<path class="st0" d="M0,2.6c0.4-0.1,0.6-0.5,0.6-0.9S0.4,0.9,0,0.8"/>
	<path class="st0" d="M13.3,1.7c0-0.5-0.4-1-1-1c-0.5,0-1,0.4-1,1s0.4,1,1,1C12.9,2.6,13.3,2.2,13.3,1.7z"/>
	<path class="st0" d="M26.4,1.7c0-0.5-0.4-1-1-1c-0.5,0-1,0.4-1,1s0.4,1,1,1C26,2.6,26.4,2.2,26.4,1.7z"/>
	<path class="st0" d="M38.8,1.7c0,0.5,0.4,1,1,1c0.5,0,1-0.4,1-1s-0.4-1-1-1C39.2,0.7,38.8,1.1,38.8,1.7z"/>
	<path class="st0" d="M5.1,5.8c0,0.5,0.4,1,1,1c0.5,0,1-0.4,1-1c0-0.5-0.4-1-1-1C5.6,4.9,5.1,5.3,5.1,5.8z"/>
	<path class="st0" d="M19.5,5.8c0,0.5,0.4,1,1,1c0.5,0,1-0.4,1-1c0-0.5-0.4-1-1-1C19.9,4.9,19.5,5.3,19.5,5.8z"/>
	<path class="st0" d="M33.3,5.8c0,0.5,0.4,1,1,1c0.5,0,1-0.4,1-1c0-0.5-0.4-1-1-1C33.7,4.9,33.3,5.3,33.3,5.8z"/>
	<path class="st0" d="M48.8,5.8c0-0.5-0.4-1-1-1c-0.5,0-1,0.4-1,1c0,0.5,0.4,1,1,1C48.4,6.8,48.8,6.4,48.8,5.8z"/>
	<path class="st0" d="M2.2,10c0-0.5-0.4-1-1-1c-0.5,0-1,0.4-1,1s0.4,1,1,1C1.8,11,2.2,10.6,2.2,10z"/>
	<path class="st0" d="M14.5,10c0-0.5-0.4-1-1-1c-0.5,0-1,0.4-1,1s0.4,1,1,1C14.1,11,14.5,10.6,14.5,10z"/>
	<path class="st0" d="M28.3,10c0-0.5-0.4-1-1-1c-0.5,0-1,0.4-1,1s0.4,1,1,1C27.9,11,28.3,10.6,28.3,10z"/>
	<path class="st0" d="M42.4,10c0-0.5-0.4-1-1-1c-0.5,0-1,0.4-1,1s0.4,1,1,1C42,11,42.4,10.6,42.4,10z"/>
	<path class="st0" d="M6.5,14.1c0-0.5-0.4-1-1-1c-0.5,0-1,0.4-1,1c0,0.5,0.4,1,1,1C6.1,15.1,6.5,14.7,6.5,14.1z"/>
	<path class="st0" d="M20.3,14.1c0-0.5-0.4-1-1-1c-0.5,0-1,0.4-1,1c0,0.5,0.4,1,1,1C19.9,15.1,20.3,14.7,20.3,14.1z"/>
	<path class="st0" d="M34.8,14.1c0-0.5-0.4-1-1-1c-0.5,0-1,0.4-1,1c0,0.5,0.4,1,1,1C34.4,15.1,34.8,14.7,34.8,14.1z"/>
	<path class="st0" d="M47.1,15.1c0.5,0,1-0.4,1-1c0-0.5-0.4-1-1-1c-0.5,0-1,0.4-1,1C46.1,14.7,46.6,15.1,47.1,15.1z"/>
	<path class="st0" d="M0,18.7c0.5,0,0.9-0.4,0.9-1s-0.4-0.9-0.9-1"/>
	<path class="st0" d="M11.4,17.8c0,0.5,0.4,1,1,1c0.5,0,1-0.4,1-1c0-0.5-0.4-1-1-1C11.8,16.8,11.4,17.2,11.4,17.8z"/>
	<path class="st0" d="M24.4,17.8c0,0.5,0.4,1,1,1c0.5,0,1-0.4,1-1c0-0.5-0.4-1-1-1C24.8,16.8,24.4,17.2,24.4,17.8z"/>
	<path class="st0" d="M40.5,17.8c0-0.5-0.4-1-1-1c-0.5,0-1,0.4-1,1c0,0.5,0.4,1,1,1C40.1,18.7,40.5,18.3,40.5,17.8z"/>
	<path class="st0" d="M5.1,21.1c0,0.5,0.4,1,1,1c0.5,0,1-0.4,1-1c0-0.5-0.4-1-1-1C5.6,20.2,5.1,20.6,5.1,21.1z"/>
	<path class="st0" d="M0,24.4c0.2-0.3,0.5-0.5,0.8-0.5c0.5,0,1,0.4,1,1c0,0.5-0.4,1-1,1c-0.3,0-0.6-0.2-0.8-0.5"/>
	<path class="st0" d="M12.6,24.9c0,0.5,0.4,1,1,1c0.5,0,1-0.4,1-1c0-0.5-0.4-1-1-1C13.1,23.9,12.6,24.3,12.6,24.9z"/>
	<path class="st0" d="M26.4,24.9c0,0.5,0.4,1,1,1c0.5,0,1-0.4,1-1c0-0.5-0.4-1-1-1C26.8,23.9,26.4,24.3,26.4,24.9z"/>
	<path class="st0" d="M40.3,24.9c0,0.5,0.4,1,1,1c0.5,0,1-0.4,1-1c0-0.5-0.4-1-1-1C40.7,23.9,40.3,24.3,40.3,24.9z"/>
	<path class="st0" d="M4.4,28.9c0,0.5,0.4,1,1,1c0.5,0,1-0.4,1-1s-0.4-1-1-1C4.8,27.9,4.4,28.3,4.4,28.9z"/>
	<path class="st0" d="M18,28.9c0,0.5,0.4,1,1,1c0.5,0,1-0.4,1-1s-0.4-1-1-1C18.4,27.9,18,28.3,18,28.9z"/>
	<path class="st0" d="M32.6,28.9c0,0.5,0.4,1,1,1c0.5,0,1-0.4,1-1s-0.4-1-1-1C33.1,27.9,32.6,28.3,32.6,28.9z"/>
	<path class="st0" d="M45.8,28.9c0,0.5,0.4,1,1,1c0.5,0,1-0.4,1-1s-0.4-1-1-1C46.2,27.9,45.8,28.3,45.8,28.9z"/>
	<path class="st0" d="M0,33.3c0.1-0.2,0.2-0.3,0.2-0.5c0-0.2-0.1-0.4-0.2-0.5"/>
	<path class="st0" d="M11.1,32.8c0,0.5,0.4,1,1,1c0.5,0,1-0.4,1-1c0-0.5-0.4-1-1-1C11.6,31.8,11.1,32.2,11.1,32.8z"/>
	<path class="st0" d="M24.4,32.8c0,0.5,0.4,1,1,1c0.5,0,1-0.4,1-1c0-0.5-0.4-1-1-1C24.8,31.8,24.4,32.2,24.4,32.8z"/>
	<path class="st0" d="M38.5,32.8c0,0.5,0.4,1,1,1c0.5,0,1-0.4,1-1c0-0.5-0.4-1-1-1C38.9,31.8,38.5,32.2,38.5,32.8z"/>
	<path class="st0" d="M5.8,36.5c0,0.5,0.4,1,1,1c0.5,0,1-0.4,1-1c0-0.5-0.4-1-1-1C6.2,35.5,5.8,36,5.8,36.5z"/>
	<path class="st0" d="M19.5,36.5c0,0.5,0.4,1,1,1c0.5,0,1-0.4,1-1c0-0.5-0.4-1-1-1C19.9,35.5,19.5,36,19.5,36.5z"/>
	<path class="st0" d="M33.9,36.5c0,0.5,0.4,1,1,1c0.5,0,1-0.4,1-1c0-0.5-0.4-1-1-1C34.3,35.5,33.9,36,33.9,36.5z"/>
	<path class="st0" d="M50,36.5c0-0.5-0.4-1-1-1c-0.5,0-1,0.4-1,1c0,0.5,0.4,1,1,1C49.6,37.5,50,37,50,36.5z"/>
	<path class="st0" d="M2.1,39.9c0-0.5-0.4-1-1-1c-0.5,0-1,0.4-1,1c0,0.5,0.4,1,1,1C1.7,40.8,2.1,40.4,2.1,39.9z"/>
	<path class="st0" d="M14.5,39.9c0-0.5-0.4-1-1-1c-0.5,0-1,0.4-1,1c0,0.5,0.4,1,1,1C14.1,40.8,14.5,40.4,14.5,39.9z"/>
	<path class="st0" d="M28,39.9c0-0.5-0.4-1-1-1c-0.5,0-1,0.4-1,1c0,0.5,0.4,1,1,1C27.6,40.8,28,40.4,28,39.9z"/>
	<path class="st0" d="M42.4,39.9c0-0.5-0.4-1-1-1c-0.5,0-1,0.4-1,1c0,0.5,0.4,1,1,1C42,40.8,42.4,40.4,42.4,39.9z"/>
	<path class="st0" d="M6.4,43.8c0-0.5-0.4-1-1-1c-0.5,0-1,0.4-1,1c0,0.5,0.4,1,1,1C6,44.7,6.4,44.3,6.4,43.8z"/>
	<path class="st0" d="M18.6,43.8c0,0.5,0.4,1,1,1c0.5,0,1-0.4,1-1c0-0.5-0.4-1-1-1C19.1,42.8,18.6,43.2,18.6,43.8z"/>
	<path class="st0" d="M34.7,43.8c0-0.5-0.4-1-1-1c-0.5,0-1,0.4-1,1c0,0.5,0.4,1,1,1C34.2,44.7,34.7,44.3,34.7,43.8z"/>
	<path class="st0" d="M46.4,43.8c0,0.5,0.4,1,1,1c0.5,0,1-0.4,1-1c0-0.5-0.4-1-1-1C46.8,42.8,46.4,43.2,46.4,43.8z"/>
	<path class="st0" d="M52,47.9c0,0.5,0.4,1,1,1c0.5,0,1-0.4,1-1c0-0.5-0.4-1-1-1C52.4,46.9,52,47.3,52,47.9z"/>
	<path class="st0" d="M11.2,48.8c0.5,0,1-0.4,1-1c0-0.5-0.4-1-1-1c-0.5,0-1,0.4-1,1C10.3,48.4,10.7,48.8,11.2,48.8z"/>
	<path class="st0" d="M23.6,47.9c0,0.5,0.4,1,1,1c0.5,0,1-0.4,1-1c0-0.5-0.4-1-1-1C24.1,46.9,23.6,47.3,23.6,47.9z"/>
	<path class="st0" d="M38.1,47.9c0,0.5,0.4,1,1,1c0.5,0,1-0.4,1-1c0-0.5-0.4-1-1-1C38.6,46.9,38.1,47.3,38.1,47.9z"/>
	<path class="st0" d="M3.6,51.7c0,0.5,0.4,1,1,1c0.5,0,1-0.4,1-1c0-0.5-0.4-1-1-1C4.1,50.7,3.6,51.2,3.6,51.7z"/>
	<path class="st0" d="M16.6,51.7c0,0.5,0.4,1,1,1c0.5,0,1-0.4,1-1c0-0.5-0.4-1-1-1C17.1,50.7,16.6,51.2,16.6,51.7z"/>
	<path class="st0" d="M32.5,51.7c0-0.5-0.4-1-1-1c-0.5,0-1,0.4-1,1c0,0.5,0.4,1,1,1C32.1,52.7,32.5,52.2,32.5,51.7z"/>
	<path class="st0" d="M44.6,51.7c0,0.5,0.4,1,1,1c0.5,0,1-0.4,1-1c0-0.5-0.4-1-1-1C45.1,50.7,44.6,51.2,44.6,51.7z"/>
	<path class="st0" d="M20.2,22.1c0.5,0,1-0.4,1-1c0-0.5-0.4-1-1-1c-0.5,0-1,0.4-1,1C19.3,21.7,19.7,22.1,20.2,22.1z"/>
	<path class="st0" d="M34.7,22.1c0.5,0,1-0.4,1-1c0-0.5-0.4-1-1-1c-0.5,0-1,0.4-1,1C33.8,21.7,34.2,22.1,34.7,22.1z"/>
	<path class="st0" d="M48.8,21.1c0-0.5-0.4-1-1-1c-0.5,0-1,0.4-1,1c0,0.5,0.4,1,1,1C48.4,22.1,48.8,21.7,48.8,21.1z"/>
	<path class="st0" d="M54.1,0.8c-0.1,0-0.2-0.1-0.3-0.1c-0.5,0-1,0.4-1,1s0.4,1,1,1c0.1,0,0.2,0,0.3-0.1"/>
	<path class="st0" d="M54.1,16.8C54.1,16.8,54.1,16.8,54.1,16.8c-0.6,0-1,0.4-1,1c0,0.5,0.4,1,1,1c0,0,0,0,0,0"/>
	<path class="st0" d="M54.1,24.4C54,24.5,54,24.7,54,24.9s0.1,0.4,0.1,0.5"/>
	<path class="st0" d="M54.1,32.2c-0.2-0.3-0.5-0.4-0.8-0.4c-0.5,0-1,0.4-1,1c0,0.5,0.4,1,1,1c0.3,0,0.6-0.2,0.8-0.4"/>
</g>
</svg>
