<?xml version="1.0" encoding="utf-8"?>
<!-- Generator: Adobe Illustrator 23.0.1, SVG Export Plug-In . SVG Version: 6.00 Build 0)  -->
<svg version="1.1" id="Layer_1" xmlns="http://www.w3.org/2000/svg" xmlns:xlink="http://www.w3.org/1999/xlink" x="0px" y="0px"
	 viewBox="0 0 54.1 54.1" style="enable-background:new 0 0 54.1 54.1;" xml:space="preserve">
<style type="text/css">
	.st0{clip-path:url(#SVGID_2_);fill:none;stroke:#000000;stroke-width:0.3;}
</style>
<g>
	<defs>
		<rect id="SVGID_1_" x="0" y="0" width="54.1" height="54.1"/>
	</defs>
	<clipPath id="SVGID_2_">
		<use xlink:href="#SVGID_1_"  style="overflow:visible;"/>
	</clipPath>
	<line class="st0" x1="27.5" y1="3.7" x2="18.7" y2="3.7"/>
	<line class="st0" x1="27.5" y1="3.7" x2="32.2" y2="3.7"/>
	<line class="st0" x1="12.6" y1="3.7" x2="18.7" y2="3.7"/>
	<line class="st0" x1="41.1" y1="3.7" x2="46.5" y2="3.7"/>
	<line class="st0" x1="53.9" y1="3.7" x2="46.5" y2="3.7"/>
	<line class="st0" x1="41.1" y1="3.7" x2="32.2" y2="3.7"/>
	<line class="st0" x1="12.6" y1="3.7" x2="5.9" y2="3.7"/>
	<line class="st0" x1="0" y1="3.7" x2="5.9" y2="3.7"/>
	<line class="st0" x1="53.9" y1="3.7" x2="54.1" y2="3.7"/>
	<line class="st0" x1="0" y1="7.9" x2="54.1" y2="7.9"/>
	<line class="st0" x1="53.4" y1="12.1" x2="54.1" y2="12.1"/>
	<line class="st0" x1="40.2" y1="12.1" x2="53.4" y2="12.1"/>
	<line class="st0" x1="40.2" y1="12.1" x2="26.8" y2="12.1"/>
	<line class="st0" x1="26.8" y1="12.1" x2="11.9" y2="12.1"/>
	<line class="st0" x1="11.9" y1="12.1" x2="0" y2="12.1"/>
	<line class="st0" x1="33.8" y1="41.7" x2="48.6" y2="41.7"/>
	<line class="st0" x1="20.1" y1="41.7" x2="33.8" y2="41.7"/>
	<line class="st0" x1="20.1" y1="41.7" x2="6.9" y2="41.7"/>
	<line class="st0" x1="6.9" y1="41.7" x2="0" y2="41.7"/>
	<line class="st0" x1="48.6" y1="41.7" x2="54.1" y2="41.7"/>
	<line class="st0" x1="26.4" y1="45.5" x2="11.9" y2="45.5"/>
	<line class="st0" x1="40.3" y1="45.5" x2="53.7" y2="45.5"/>
	<line class="st0" x1="40.3" y1="45.5" x2="26.4" y2="45.5"/>
	<line class="st0" x1="53.7" y1="45.5" x2="54.1" y2="45.5"/>
	<line class="st0" x1="11.9" y1="45.5" x2="0" y2="45.5"/>
	<line class="st0" x1="46.5" y1="16.1" x2="54.1" y2="16.1"/>
	<line class="st0" x1="18.7" y1="16.1" x2="31.9" y2="16.1"/>
	<line class="st0" x1="31.9" y1="16.1" x2="46.5" y2="16.1"/>
	<line class="st0" x1="18.7" y1="16.1" x2="5.9" y2="16.1"/>
	<line class="st0" x1="5.9" y1="16.1" x2="0" y2="16.1"/>
	<line class="st0" x1="27.5" y1="19.4" x2="12.5" y2="19.4"/>
	<line class="st0" x1="54" y1="19.4" x2="54.1" y2="19.4"/>
	<line class="st0" x1="41.2" y1="19.4" x2="27.5" y2="19.4"/>
	<line class="st0" x1="41.2" y1="19.4" x2="54" y2="19.4"/>
	<line class="st0" x1="12.5" y1="19.4" x2="0" y2="19.4"/>
	<line class="st0" x1="20.2" y1="22.8" x2="6.7" y2="22.8"/>
	<line class="st0" x1="48.7" y1="22.8" x2="33.8" y2="22.8"/>
	<line class="st0" x1="48.7" y1="22.8" x2="54.1" y2="22.8"/>
	<line class="st0" x1="33.8" y1="22.8" x2="20.2" y2="22.8"/>
	<line class="st0" x1="6.7" y1="22.8" x2="0" y2="22.8"/>
	<line class="st0" x1="0" y1="26.9" x2="54.1" y2="26.9"/>
	<line class="st0" x1="0" y1="30.7" x2="54.1" y2="30.7"/>
	<line class="st0" x1="0" y1="34.9" x2="54.1" y2="34.9"/>
	<line class="st0" x1="0" y1="38.1" x2="54.1" y2="38.1"/>
	<line class="st0" x1="0" y1="53.3" x2="5.9" y2="53.3"/>
	<line class="st0" x1="10.3" y1="53.3" x2="5.9" y2="53.3"/>
	<line class="st0" x1="38.4" y1="53.3" x2="32.2" y2="53.3"/>
	<line class="st0" x1="51.7" y1="53.3" x2="54.1" y2="53.3"/>
	<line class="st0" x1="24.7" y1="53.3" x2="18.7" y2="53.3"/>
	<line class="st0" x1="51.7" y1="53.3" x2="46.5" y2="53.3"/>
	<line class="st0" x1="24.7" y1="53.3" x2="32.2" y2="53.3"/>
	<line class="st0" x1="10.3" y1="53.3" x2="18.7" y2="53.3"/>
	<line class="st0" x1="38.4" y1="53.3" x2="46.5" y2="53.3"/>
	<line class="st0" x1="5.9" y1="0" x2="5.9" y2="3.7"/>
	<line class="st0" x1="18.7" y1="0" x2="18.7" y2="3.7"/>
	<line class="st0" x1="32.2" y1="0" x2="32.2" y2="3.7"/>
	<line class="st0" x1="46.5" y1="0" x2="46.5" y2="3.7"/>
	<line class="st0" x1="5.9" y1="54.1" x2="5.9" y2="53.3"/>
	<line class="st0" x1="5.9" y1="53.3" x2="5.9" y2="53.3"/>
	<line class="st0" x1="18.7" y1="53.3" x2="18.7" y2="53.3"/>
	<line class="st0" x1="18.7" y1="54.1" x2="18.7" y2="53.3"/>
	<line class="st0" x1="32.2" y1="53.3" x2="32.2" y2="53.3"/>
	<line class="st0" x1="32.2" y1="54.1" x2="32.2" y2="53.3"/>
	<line class="st0" x1="46.5" y1="54.1" x2="46.5" y2="53.3"/>
	<line class="st0" x1="46.5" y1="53.3" x2="46.5" y2="53.3"/>
	<line class="st0" x1="12.6" y1="3.7" x2="12.6" y2="3.7"/>
	<line class="st0" x1="12.6" y1="3.7" x2="12.6" y2="7.9"/>
	<line class="st0" x1="27.5" y1="3.7" x2="27.5" y2="7.9"/>
	<line class="st0" x1="27.5" y1="3.7" x2="27.5" y2="3.7"/>
	<line class="st0" x1="41.1" y1="3.7" x2="41.1" y2="3.7"/>
	<line class="st0" x1="41.1" y1="3.7" x2="41.1" y2="7.9"/>
	<line class="st0" x1="53.9" y1="3.7" x2="53.9" y2="7.9"/>
	<line class="st0" x1="53.9" y1="3.7" x2="53.9" y2="3.7"/>
	<line class="st0" x1="7" y1="12.1" x2="7" y2="8"/>
	<line class="st0" x1="20.3" y1="12.1" x2="20.3" y2="8"/>
	<line class="st0" x1="33.8" y1="12.1" x2="33.8" y2="8"/>
	<line class="st0" x1="48.8" y1="12.1" x2="48.8" y2="8"/>
	<line class="st0" x1="40.2" y1="12.1" x2="40.2" y2="12.1"/>
	<line class="st0" x1="40.2" y1="12.1" x2="40.2" y2="16.1"/>
	<line class="st0" x1="26.8" y1="12.1" x2="26.8" y2="12.1"/>
	<line class="st0" x1="26.8" y1="12.1" x2="26.8" y2="16.1"/>
	<line class="st0" x1="11.9" y1="12.1" x2="11.9" y2="16.1"/>
	<line class="st0" x1="11.9" y1="12.1" x2="11.9" y2="12.1"/>
	<line class="st0" x1="53.4" y1="12.1" x2="53.4" y2="12.1"/>
	<line class="st0" x1="53.4" y1="12.1" x2="53.4" y2="16.1"/>
	<line class="st0" x1="46.5" y1="16.1" x2="46.5" y2="19.4"/>
	<line class="st0" x1="46.5" y1="16.1" x2="46.5" y2="16.1"/>
	<line class="st0" x1="31.9" y1="16.1" x2="31.9" y2="19.4"/>
	<line class="st0" x1="31.9" y1="16.1" x2="31.9" y2="16.1"/>
	<line class="st0" x1="18.7" y1="16.1" x2="18.7" y2="19.4"/>
	<line class="st0" x1="18.7" y1="16.1" x2="18.7" y2="16.1"/>
	<line class="st0" x1="5.9" y1="16.1" x2="5.9" y2="16.1"/>
	<line class="st0" x1="5.9" y1="16.1" x2="5.9" y2="19.4"/>
	<line class="st0" x1="12.5" y1="19.4" x2="12.5" y2="19.4"/>
	<line class="st0" x1="12.5" y1="19.4" x2="12.5" y2="22.8"/>
	<line class="st0" x1="27.5" y1="19.4" x2="27.5" y2="22.8"/>
	<line class="st0" x1="27.5" y1="19.4" x2="27.5" y2="19.4"/>
	<line class="st0" x1="41.2" y1="19.4" x2="41.2" y2="22.8"/>
	<line class="st0" x1="41.2" y1="19.4" x2="41.2" y2="19.4"/>
	<line class="st0" x1="54" y1="19.4" x2="54" y2="22.8"/>
	<line class="st0" x1="54" y1="19.4" x2="54" y2="19.4"/>
	<line class="st0" x1="6.7" y1="22.8" x2="6.7" y2="26.9"/>
	<line class="st0" x1="6.7" y1="22.8" x2="6.7" y2="22.8"/>
	<line class="st0" x1="20.2" y1="22.8" x2="20.2" y2="22.8"/>
	<line class="st0" x1="20.2" y1="22.8" x2="20.2" y2="26.9"/>
	<line class="st0" x1="33.8" y1="22.8" x2="33.8" y2="26.9"/>
	<line class="st0" x1="33.8" y1="22.8" x2="33.8" y2="22.8"/>
	<line class="st0" x1="48.7" y1="22.8" x2="48.7" y2="26.9"/>
	<line class="st0" x1="48.7" y1="22.8" x2="48.7" y2="22.8"/>
	<line class="st0" x1="40" y1="26.9" x2="40" y2="30.7"/>
	<line class="st0" x1="26.7" y1="26.9" x2="26.7" y2="30.7"/>
	<line class="st0" x1="11.7" y1="26.9" x2="11.7" y2="30.7"/>
	<line class="st0" x1="53.3" y1="30.7" x2="53.3" y2="26.9"/>
	<line class="st0" x1="5.5" y1="30.7" x2="5.5" y2="34.9"/>
	<line class="st0" x1="18.5" y1="30.7" x2="18.5" y2="34.9"/>
	<line class="st0" x1="32.1" y1="30.7" x2="32.1" y2="34.9"/>
	<line class="st0" x1="46.4" y1="30.7" x2="46.4" y2="34.9"/>
	<line class="st0" x1="42.2" y1="34.9" x2="42.2" y2="38.1"/>
	<line class="st0" x1="28" y1="34.9" x2="28" y2="38.1"/>
	<line class="st0" x1="12.9" y1="34.9" x2="12.9" y2="38.1"/>
	<line class="st0" x1="0.5" y1="34.9" x2="0.5" y2="38.1"/>
	<line class="st0" x1="6.9" y1="41.7" x2="6.9" y2="38.2"/>
	<line class="st0" x1="20.1" y1="41.7" x2="20.1" y2="38.2"/>
	<line class="st0" x1="33.8" y1="41.7" x2="33.8" y2="38.2"/>
	<line class="st0" x1="48.6" y1="41.7" x2="48.6" y2="38.2"/>
	<line class="st0" x1="40.3" y1="45.5" x2="40.3" y2="41.8"/>
	<line class="st0" x1="40.3" y1="45.5" x2="40.3" y2="45.5"/>
	<line class="st0" x1="26.4" y1="45.5" x2="26.4" y2="45.5"/>
	<line class="st0" x1="26.4" y1="41.8" x2="26.4" y2="45.5"/>
	<line class="st0" x1="11.9" y1="45.5" x2="11.9" y2="41.8"/>
	<line class="st0" x1="11.9" y1="45.5" x2="11.9" y2="45.5"/>
	<line class="st0" x1="53.7" y1="45.5" x2="53.7" y2="45.5"/>
	<line class="st0" x1="53.7" y1="41.8" x2="53.7" y2="45.5"/>
	<line class="st0" x1="51.7" y1="49.9" x2="38.4" y2="49.9"/>
	<line class="st0" x1="38.4" y1="49.9" x2="24.7" y2="49.9"/>
	<line class="st0" x1="24.7" y1="49.9" x2="10.3" y2="49.9"/>
	<line class="st0" x1="10.3" y1="49.9" x2="0" y2="49.9"/>
	<line class="st0" x1="51.7" y1="49.9" x2="54.1" y2="49.9"/>
	<line class="st0" x1="10.3" y1="49.9" x2="10.3" y2="49.9"/>
	<line class="st0" x1="10.3" y1="53.3" x2="10.3" y2="53.3"/>
	<line class="st0" x1="10.3" y1="53.3" x2="10.3" y2="49.9"/>
	<line class="st0" x1="24.7" y1="53.3" x2="24.7" y2="49.9"/>
	<line class="st0" x1="24.7" y1="49.9" x2="24.7" y2="49.9"/>
	<line class="st0" x1="24.7" y1="53.3" x2="24.7" y2="53.3"/>
	<line class="st0" x1="38.4" y1="49.9" x2="38.4" y2="49.9"/>
	<line class="st0" x1="38.4" y1="53.3" x2="38.4" y2="53.3"/>
	<line class="st0" x1="38.4" y1="53.3" x2="38.4" y2="49.9"/>
	<line class="st0" x1="51.7" y1="49.9" x2="51.7" y2="49.9"/>
	<line class="st0" x1="51.7" y1="53.3" x2="51.7" y2="53.3"/>
	<line class="st0" x1="51.7" y1="53.3" x2="51.7" y2="49.9"/>
	<line class="st0" x1="4.6" y1="49.9" x2="4.6" y2="45.5"/>
	<line class="st0" x1="17.6" y1="45.5" x2="17.6" y2="49.9"/>
	<line class="st0" x1="31.6" y1="45.5" x2="31.6" y2="49.9"/>
	<line class="st0" x1="46.1" y1="49.9" x2="46.1" y2="45.5"/>
	<path class="st0" d="M0,10.8c0.3,0,0.7,0.1,1,0.1c1.3,0,2.4-0.4,2.4-0.8c0-0.4-1.1-0.8-2.4-0.8c-0.4,0-0.7,0-1,0.1"/>
	<path class="st0" d="M16,10.1c0-0.4-1.1-0.8-2.4-0.8c-1.3,0-2.4,0.4-2.4,0.8c0,0.4,1.1,0.8,2.4,0.8C15,10.9,16,10.6,16,10.1z"/>
	<path class="st0" d="M29.7,10.1c0-0.4-1.1-0.8-2.4-0.8c-1.3,0-2.4,0.4-2.4,0.8c0,0.4,1.1,0.8,2.4,0.8
		C28.6,10.9,29.7,10.6,29.7,10.1z"/>
	<path class="st0" d="M43.9,10.1c0-0.4-1.1-0.8-2.4-0.8c-1.3,0-2.4,0.4-2.4,0.8c0,0.4,1.1,0.8,2.4,0.8
		C42.8,10.9,43.9,10.6,43.9,10.1z"/>
	<path class="st0" d="M0,2.5c1-0.1,1.6-0.4,1.6-0.8S0.9,1.1,0,1"/>
	<path class="st0" d="M14.5,1.7c0-0.4-1.1-0.8-2.4-0.8c-1.3,0-2.4,0.4-2.4,0.8s1.1,0.8,2.4,0.8C13.5,2.5,14.5,2.2,14.5,1.7z"/>
	<path class="st0" d="M27.9,1.7c0-0.4-1.1-0.8-2.4-0.8c-1.3,0-2.4,0.4-2.4,0.8s1.1,0.8,2.4,0.8C26.8,2.5,27.9,2.2,27.9,1.7z"/>
	<path class="st0" d="M41.7,1.7c0-0.4-1.1-0.8-2.4-0.8c-1.3,0-2.4,0.4-2.4,0.8s1.1,0.8,2.4,0.8C40.6,2.5,41.7,2.2,41.7,1.7z"/>
	<path class="st0" d="M3.6,6c0,0.4,1.1,0.8,2.4,0.8c1.3,0,2.4-0.4,2.4-0.8c0-0.4-1.1-0.8-2.4-0.8C4.7,5.2,3.6,5.6,3.6,6z"/>
	<path class="st0" d="M17.6,6c0,0.4,1.1,0.8,2.4,0.8c1.3,0,2.4-0.4,2.4-0.8c0-0.4-1.1-0.8-2.4-0.8C18.7,5.2,17.6,5.6,17.6,6z"/>
	<path class="st0" d="M31.8,6c0,0.4,1.1,0.8,2.4,0.8c1.3,0,2.4-0.4,2.4-0.8c0-0.4-1.1-0.8-2.4-0.8C32.8,5.2,31.8,5.6,31.8,6z"/>
	<path class="st0" d="M45.3,6c0,0.4,1.1,0.8,2.4,0.8C49,6.8,50,6.4,50,6c0-0.4-1.1-0.8-2.4-0.8C46.3,5.2,45.3,5.6,45.3,6z"/>
	<path class="st0" d="M3.1,14.2c0,0.4,1.1,0.8,2.4,0.8c1.3,0,2.4-0.4,2.4-0.8c0-0.4-1.1-0.8-2.4-0.8C4.2,13.4,3.1,13.8,3.1,14.2z"/>
	<path class="st0" d="M16.9,14.2c0,0.4,1.1,0.8,2.4,0.8c1.3,0,2.4-0.4,2.4-0.8c0-0.4-1.1-0.8-2.4-0.8C18,13.4,16.9,13.8,16.9,14.2z"
		/>
	<path class="st0" d="M33.7,15c1.3,0,2.4-0.4,2.4-0.8c0-0.4-1.1-0.8-2.4-0.8c-1.3,0-2.4,0.4-2.4,0.8C31.3,14.7,32.3,15,33.7,15z"/>
	<path class="st0" d="M47.3,15c1.3,0,2.4-0.4,2.4-0.8c0-0.4-1.1-0.8-2.4-0.8c-1.3,0-2.4,0.4-2.4,0.8C44.9,14.7,46,15,47.3,15z"/>
	<path class="st0" d="M0,18.7c1-0.1,1.8-0.4,1.8-0.8c0-0.4-0.8-0.7-1.8-0.8"/>
	<path class="st0" d="M9.9,17.9c0,0.4,1.1,0.8,2.4,0.8c1.3,0,2.4-0.4,2.4-0.8c0-0.4-1.1-0.8-2.4-0.8C11,17.1,9.9,17.5,9.9,17.9z"/>
	<path class="st0" d="M28,17.9c0-0.4-1.1-0.8-2.4-0.8c-1.3,0-2.4,0.4-2.4,0.8c0,0.4,1.1,0.8,2.4,0.8C27,18.7,28,18.3,28,17.9z"/>
	<path class="st0" d="M39.2,18.7c1.3,0,2.4-0.4,2.4-0.8c0-0.4-1.1-0.8-2.4-0.8c-1.3,0-2.4,0.4-2.4,0.8
		C36.8,18.3,37.8,18.7,39.2,18.7z"/>
	<path class="st0" d="M8,21.1c0-0.4-1.1-0.8-2.4-0.8c-1.3,0-2.4,0.4-2.4,0.8c0,0.4,1.1,0.8,2.4,0.8C7,21.9,8,21.6,8,21.1z"/>
	<path class="st0" d="M21.9,21.1c0-0.4-1.1-0.8-2.4-0.8c-1.3,0-2.4,0.4-2.4,0.8c0,0.4,1.1,0.8,2.4,0.8
		C20.8,21.9,21.9,21.6,21.9,21.1z"/>
	<path class="st0" d="M34.3,21.9c1.3,0,2.4-0.4,2.4-0.8c0-0.4-1.1-0.8-2.4-0.8c-1.3,0-2.4,0.4-2.4,0.8C31.9,21.6,33,21.9,34.3,21.9z
		"/>
	<path class="st0" d="M47.5,21.9c1.3,0,2.4-0.4,2.4-0.8c0-0.4-1.1-0.8-2.4-0.8c-1.3,0-2.4,0.4-2.4,0.8
		C45.1,21.6,46.2,21.9,47.5,21.9z"/>
	<path class="st0" d="M0,25.8c0.2,0,0.3,0,0.5,0c1.3,0,2.4-0.4,2.4-0.8c0-0.4-1.1-0.8-2.4-0.8c-0.2,0-0.4,0-0.5,0"/>
	<path class="st0" d="M10.8,25c0,0.4,1.1,0.8,2.4,0.8c1.3,0,2.4-0.4,2.4-0.8c0-0.4-1.1-0.8-2.4-0.8C11.8,24.2,10.8,24.6,10.8,25z"/>
	<path class="st0" d="M24.4,25c0,0.4,1.1,0.8,2.4,0.8c1.3,0,2.4-0.4,2.4-0.8c0-0.4-1.1-0.8-2.4-0.8C25.5,24.2,24.4,24.6,24.4,25z"/>
	<path class="st0" d="M38.9,25c0,0.4,1.1,0.8,2.4,0.8c1.3,0,2.4-0.4,2.4-0.8c0-0.4-1.1-0.8-2.4-0.8C40,24.2,38.9,24.6,38.9,25z"/>
	<path class="st0" d="M2.4,28.9c0,0.4,1.1,0.8,2.4,0.8c1.3,0,2.4-0.4,2.4-0.8c0-0.4-1.1-0.8-2.4-0.8C3.5,28.1,2.4,28.4,2.4,28.9z"/>
	<path class="st0" d="M16.3,28.9c0,0.4,1.1,0.8,2.4,0.8c1.3,0,2.4-0.4,2.4-0.8c0-0.4-1.1-0.8-2.4-0.8C17.3,28.1,16.3,28.4,16.3,28.9
		z"/>
	<path class="st0" d="M30.8,28.9c0,0.4,1.1,0.8,2.4,0.8c1.3,0,2.4-0.4,2.4-0.8c0-0.4-1.1-0.8-2.4-0.8C31.8,28.1,30.8,28.4,30.8,28.9
		z"/>
	<path class="st0" d="M43.9,28.9c0,0.4,1.1,0.8,2.4,0.8c1.3,0,2.4-0.4,2.4-0.8c0-0.4-1.1-0.8-2.4-0.8C45,28.1,43.9,28.4,43.9,28.9z"
		/>
	<path class="st0" d="M0,33.7c0.8-0.1,1.4-0.4,1.4-0.7c0-0.3-0.6-0.6-1.4-0.7"/>
	<path class="st0" d="M9.5,33c0,0.4,1.1,0.8,2.4,0.8c1.3,0,2.4-0.4,2.4-0.8c0-0.4-1.1-0.8-2.4-0.8C10.6,32.2,9.5,32.6,9.5,33z"/>
	<path class="st0" d="M22.8,33c0,0.4,1.1,0.8,2.4,0.8c1.3,0,2.4-0.4,2.4-0.8c0-0.4-1.1-0.8-2.4-0.8C23.8,32.2,22.8,32.6,22.8,33z"/>
	<path class="st0" d="M36.6,33c0,0.4,1.1,0.8,2.4,0.8c1.3,0,2.4-0.4,2.4-0.8c0-0.4-1.1-0.8-2.4-0.8C37.7,32.2,36.6,32.6,36.6,33z"/>
	<path class="st0" d="M4.1,36.5c0,0.4,1.1,0.8,2.4,0.8c1.3,0,2.4-0.4,2.4-0.8c0-0.4-1.1-0.8-2.4-0.8C5.2,35.7,4.1,36.1,4.1,36.5z"/>
	<path class="st0" d="M17.6,36.5c0,0.4,1.1,0.8,2.4,0.8c1.3,0,2.4-0.4,2.4-0.8c0-0.4-1.1-0.8-2.4-0.8C18.7,35.7,17.6,36.1,17.6,36.5
		z"/>
	<path class="st0" d="M32.3,36.5c0,0.4,1.1,0.8,2.4,0.8c1.3,0,2.4-0.4,2.4-0.8c0-0.4-1.1-0.8-2.4-0.8C33.3,35.7,32.3,36.1,32.3,36.5
		z"/>
	<path class="st0" d="M45.8,36.5c0,0.4,1.1,0.8,2.4,0.8c1.3,0,2.4-0.4,2.4-0.8c0-0.4-1.1-0.8-2.4-0.8C46.8,35.7,45.8,36.1,45.8,36.5
		z"/>
	<path class="st0" d="M0,40.8c0.2,0,0.4,0,0.7,0C2,40.8,3,40.4,3,40c0-0.4-1.1-0.8-2.4-0.8c-0.2,0-0.4,0-0.7,0"/>
	<path class="st0" d="M15.5,40c0-0.4-1.1-0.8-2.4-0.8c-1.3,0-2.4,0.4-2.4,0.8c0,0.4,1.1,0.8,2.4,0.8C14.5,40.8,15.5,40.4,15.5,40z"
		/>
	<path class="st0" d="M29,40c0-0.4-1.1-0.8-2.4-0.8c-1.3,0-2.4,0.4-2.4,0.8c0,0.4,1.1,0.8,2.4,0.8C28,40.8,29,40.4,29,40z"/>
	<path class="st0" d="M43.4,40c0-0.4-1.1-0.8-2.4-0.8c-1.3,0-2.4,0.4-2.4,0.8c0,0.4,1.1,0.8,2.4,0.8C42.3,40.8,43.4,40.4,43.4,40z"
		/>
	<path class="st0" d="M2.5,43.7c0,0.4,1.1,0.8,2.4,0.8c1.3,0,2.4-0.4,2.4-0.8c0-0.4-1.1-0.8-2.4-0.8C3.6,42.9,2.5,43.3,2.5,43.7z"/>
	<path class="st0" d="M18.8,42.9c-1.3,0-2.4,0.4-2.4,0.8c0,0.4,1.1,0.8,2.4,0.8c1.3,0,2.4-0.4,2.4-0.8
		C21.2,43.3,20.1,42.9,18.8,42.9z"/>
	<path class="st0" d="M30.9,43.7c0,0.4,1.1,0.8,2.4,0.8c1.3,0,2.4-0.4,2.4-0.8c0-0.4-1.1-0.8-2.4-0.8C32,42.9,30.9,43.3,30.9,43.7z"
		/>
	<path class="st0" d="M44.6,43.7c0,0.4,1.1,0.8,2.4,0.8c1.3,0,2.4-0.4,2.4-0.8c0-0.4-1.1-0.8-2.4-0.8C45.7,42.9,44.6,43.3,44.6,43.7
		z"/>
	<path class="st0" d="M0,48.4c0.4-0.1,0.7-0.3,0.7-0.5c0-0.2-0.3-0.4-0.7-0.6"/>
	<path class="st0" d="M10.9,48.7c1.3,0,2.4-0.4,2.4-0.8c0-0.4-1.1-0.8-2.4-0.8c-1.3,0-2.4,0.4-2.4,0.8C8.5,48.3,9.6,48.7,10.9,48.7z
		"/>
	<path class="st0" d="M27,47.9c0-0.4-1.1-0.8-2.4-0.8c-1.3,0-2.4,0.4-2.4,0.8c0,0.4,1.1,0.8,2.4,0.8C26,48.7,27,48.3,27,47.9z"/>
	<path class="st0" d="M38.8,48.7c1.3,0,2.4-0.4,2.4-0.8c0-0.4-1.1-0.8-2.4-0.8c-1.3,0-2.4,0.4-2.4,0.8
		C36.4,48.3,37.5,48.7,38.8,48.7z"/>
	<path class="st0" d="M6,51.7c0-0.4-1.1-0.8-2.4-0.8c-1.3,0-2.4,0.4-2.4,0.8c0,0.4,1.1,0.8,2.4,0.8C5,52.5,6,52.2,6,51.7z"/>
	<path class="st0" d="M19.5,51.7c0-0.4-1.1-0.8-2.4-0.8c-1.3,0-2.4,0.4-2.4,0.8c0,0.4,1.1,0.8,2.4,0.8
		C18.5,52.5,19.5,52.2,19.5,51.7z"/>
	<path class="st0" d="M33.8,51.7c0-0.4-1.1-0.8-2.4-0.8c-1.3,0-2.4,0.4-2.4,0.8c0,0.4,1.1,0.8,2.4,0.8
		C32.7,52.5,33.8,52.2,33.8,51.7z"/>
	<path class="st0" d="M47.3,51.7c0-0.4-1.1-0.8-2.4-0.8c-1.3,0-2.4,0.4-2.4,0.8c0,0.4,1.1,0.8,2.4,0.8
		C46.2,52.5,47.3,52.2,47.3,51.7z"/>
	<path class="st0" d="M54.1,9.4c-0.8,0.1-1.4,0.4-1.4,0.7c0,0.3,0.6,0.6,1.4,0.7"/>
	<path class="st0" d="M54.1,1c-0.2,0-0.5,0-0.7,0c-1.3,0-2.4,0.4-2.4,0.8s1.1,0.8,2.4,0.8c0.3,0,0.5,0,0.7,0"/>
	<path class="st0" d="M54.1,17.1c-0.2,0-0.4,0-0.6,0c-1.3,0-2.4,0.4-2.4,0.8c0,0.4,1.1,0.8,2.4,0.8c0.2,0,0.4,0,0.6,0"/>
	<path class="st0" d="M54.1,24.2c-1.1,0.1-1.9,0.4-1.9,0.8c0,0.4,0.8,0.7,1.9,0.8"/>
	<path class="st0" d="M54.1,32.3c-0.3,0-0.6-0.1-1-0.1c-1.3,0-2.4,0.4-2.4,0.8c0,0.4,1.1,0.8,2.4,0.8c0.3,0,0.7,0,1-0.1"/>
	<path class="st0" d="M54.1,39.2c-1,0.1-1.7,0.4-1.7,0.8c0,0.4,0.7,0.7,1.7,0.8"/>
	<path class="st0" d="M54.1,47.3c-0.4-0.2-1-0.2-1.7-0.2c-1.3,0-2.4,0.4-2.4,0.8c0,0.4,1.1,0.8,2.4,0.8c0.7,0,1.3-0.1,1.7-0.2"/>
</g>
</svg>
