<?xml version="1.0" encoding="utf-8"?>
<!-- Generator: Adobe Illustrator 23.0.1, SVG Export Plug-In . SVG Version: 6.00 Build 0)  -->
<svg version="1.1" id="Layer_1" xmlns="http://www.w3.org/2000/svg" xmlns:xlink="http://www.w3.org/1999/xlink" x="0px" y="0px"
	 viewBox="0 0 54 54" style="enable-background:new 0 0 54 54;" xml:space="preserve">
<style type="text/css">
	.st0{clip-path:url(#SVGID_2_);fill:none;stroke:#000000;stroke-width:0.3;}
</style>
<g>
	<defs>
		<rect id="SVGID_1_" width="54" height="54"/>
	</defs>
	<clipPath id="SVGID_2_">
		<use xlink:href="#SVGID_1_"  style="overflow:visible;"/>
	</clipPath>
	<path class="st0" d="M5.2,14.5C9.3,14,15.3,12.9,22,11.3"/>
	<path class="st0" d="M38.3,6.7c-3.2,1-6.4,2-9.6,2.8"/>
	<path class="st0" d="M54,0.8c-2.2,1-4.6,2-7.1,3"/>
	<path class="st0" d="M38.3,6.7c2.9-0.9,5.8-1.9,8.6-3"/>
	<path class="st0" d="M22,11.3c2.2-0.5,4.4-1.1,6.7-1.7"/>
	<line class="st0" x1="0" y1="0.8" x2="1.6" y2="0"/>
	<line class="st0" x1="3.7" y1="53.1" x2="3.8" y2="53.1"/>
	<line class="st0" x1="3.7" y1="53.1" x2="1.7" y2="54"/>
	<path class="st0" d="M41.4,53c1,0.2,2,0.4,3,0.6"/>
	<path class="st0" d="M44.4,53.6c0.7,0.1,1.4,0.3,2.2,0.4"/>
	<path class="st0" d="M19.7,46.4c-3.7-1.4-7.1-2.9-10.1-4.2"/>
	<path class="st0" d="M32.5,50.8c2.9,0.8,5.8,1.6,8.9,2.3"/>
	<path class="st0" d="M19.7,46.4c3.9,1.5,8.2,3,12.8,4.4"/>
	<path class="st0" d="M9.6,42.1c-1.8-0.8-3.5-1.6-5.1-2.2"/>
	<path class="st0" d="M4.5,39.9c-0.1,0-0.1,0-0.2-0.1"/>
	<path class="st0" d="M28.9,35.4C26.7,36,24.3,36.5,22,37"/>
	<path class="st0" d="M4.5,39.9c4.4-0.5,9.1-1.2,13.7-2.1"/>
	<path class="st0" d="M46.2,30.7c3-0.9,5.6-1.8,7.8-2.5"/>
	<path class="st0" d="M18.2,37.8c1.3-0.2,2.5-0.5,3.8-0.8"/>
	<path class="st0" d="M28.9,35.4c0.7-0.2,1.5-0.4,2.2-0.5"/>
	<path class="st0" d="M4.5,39.9c-1.5,0.2-3,0.3-4.5,0.4"/>
	<path class="st0" d="M31.2,34.9c5.5-1.4,10.6-2.8,15-4.1"/>
	<path class="st0" d="M54,12.8c-0.4-0.2-0.9-0.3-1.3-0.5"/>
	<path class="st0" d="M38.3,6.7c3,1.3,8,3.3,14.4,5.6"/>
	<path class="st0" d="M38.3,6.7c0,0-0.1,0-0.1-0.1"/>
	<path class="st0" d="M37.9,40.2c-4.1-0.3-11.5-1-15.9-3.2"/>
	<line class="st0" x1="22" y1="37" x2="22" y2="37"/>
	<path class="st0" d="M37.9,40.2c1,0.1,1.9,0.1,2.4,0.2c2.7,0.2,7.7,0.2,7.7,0.2c1.9,0,3.9-0.1,6-0.2"/>
	<path class="st0" d="M19.8,19c-7.3-2-14-4.2-19.8-6.2"/>
	<path class="st0" d="M19.8,19c8.9,2.5,18.7,4.7,28.6,6.1"/>
	<path class="st0" d="M48.4,25.1c1.9,0.3,3.8,0.5,5.6,0.7"/>
	<path class="st0" d="M0,12.2c7.5-0.7,22.2-2.6,34.7-5.3"/>
	<path class="st0" d="M34.7,6.9c4.2-0.9,8.2-2,11.5-3.1"/>
	<path class="st0" d="M37.8,3.6c-10.3,2.2-22,3.3-31.6,3.9"/>
	<path class="st0" d="M0,7.9c1.9-0.1,4-0.2,6.2-0.3"/>
	<path class="st0" d="M37.8,3.6c4.1-0.9,8-1.9,11.4-3.2"/>
	<path class="st0" d="M17.8,3.1c-1.5,0.1-3.1,0.2-4.6,0.3"/>
	<path class="st0" d="M17.8,3.1C26.5,2.5,35.5,1.6,42.7,0"/>
	<path class="st0" d="M0,3.8c4,0,8.5-0.2,13.2-0.4"/>
	<path class="st0" d="M48.5,52.5c-1.3,0.4-2.6,0.8-4.1,1.1"/>
	<path class="st0" d="M42.7,54c0.6-0.1,1.1-0.3,1.7-0.4"/>
	<path class="st0" d="M31.5,53c-9.6,0.6-19.6,0.5-27.8,0.1"/>
	<path class="st0" d="M31.5,53c2.3-0.2,4.6-0.4,6.9-0.6"/>
	<path class="st0" d="M0,52.9C1.2,53,2.4,53,3.7,53.1"/>
	<path class="st0" d="M20.4,15c6.9,2.6,14.2,4.5,21.4,5.8"/>
	<path class="st0" d="M20.4,15c-1.8-0.7-3.5-1.4-5.2-2.1"/>
	<path class="st0" d="M41.8,20.8c4.1,0.8,8.2,1.4,12.2,1.9"/>
	<path class="st0" d="M22,11.3c5.6,2.7,18.9,6.3,32,8.5"/>
	<path class="st0" d="M22,11.3c-0.1,0-0.1-0.1-0.2-0.1"/>
	<path class="st0" d="M28.8,9.5c0,0-0.1,0-0.1,0"/>
	<path class="st0" d="M41.5,14.4c-5.3-1.8-9.7-3.6-12.7-4.8"/>
	<path class="st0" d="M41.5,14.4c3.8,1.3,8,2.5,12.5,3.4"/>
	<path class="st0" d="M34.3,8c7.4,3,10.9,5.2,19.7,6.7"/>
	<path class="st0" d="M8,20.8c6.9,0.7,13.3,0.9,18-0.1"/>
	<path class="st0" d="M8,20.8c-2.6-0.3-5.3-0.6-8-1.1"/>
	<path class="st0" d="M9.5,19.2c3.4,0.3,6.9,0.2,10.3-0.1"/>
	<path class="st0" d="M9.5,19.2c-3.2-0.2-6.4-0.7-9.5-1.4"/>
	<path class="st0" d="M19.8,19c0.1,0,0.2,0,0.3,0"/>
	<path class="st0" d="M8.7,15.8c-2.2-0.2-4.2-0.4-6-0.7"/>
	<path class="st0" d="M0,14.7c0.9,0.1,1.8,0.3,2.7,0.4"/>
	<path class="st0" d="M54,12.2c-0.5,0-0.9,0.1-1.3,0.1"/>
	<line class="st0" x1="52.7" y1="12.3" x2="52.7" y2="12.3"/>
	<path class="st0" d="M54,7.9c-5.8,0.3-10.1,0.4-11.8,0.5"/>
	<path class="st0" d="M54,3.8c-2.6,0-5,0-7.1-0.1"/>
	<path class="st0" d="M46.8,3.7C46.8,3.7,46.9,3.7,46.8,3.7"/>
	<path class="st0" d="M0.6,25.9c-0.2,0-0.4,0-0.6,0"/>
	<path class="st0" d="M0.6,25.9c1.5,0.1,3.1,0.2,4.6,0.3"/>
	<path class="st0" d="M5.2,26.2c13.6,0.8,27.9,0.3,36.4-2.1"/>
	<path class="st0" d="M24.1,29.9C16.2,30.7,7.8,31,0,31"/>
	<path class="st0" d="M48.4,25.1C48.4,25.1,48.4,25.1,48.4,25.1"/>
	<path class="st0" d="M48.4,25.1c-6.3,2.3-15,3.9-24.2,4.8"/>
	<path class="st0" d="M12.9,34.8C8.6,35.5,4.2,36,0,36.3"/>
	<path class="st0" d="M52.6,26.6c0.5-0.1,1-0.3,1.4-0.4"/>
	<path class="st0" d="M12.9,34.8c16.5-2.4,32.8-6.4,39.6-8.3"/>
	<path class="st0" d="M51.8,30.9c-1.9,0-3.8-0.1-5.6-0.2"/>
	<path class="st0" d="M46.2,30.7C46.2,30.7,46.1,30.7,46.2,30.7"/>
	<path class="st0" d="M51.8,30.9c0.7,0,1.4,0,2.2,0"/>
	<path class="st0" d="M31.2,34.9C31.2,34.9,31.1,34.9,31.2,34.9"/>
	<path class="st0" d="M31.2,34.9c2.7,0.9,7.1,1.3,9.3,1.5c2.2,0.2,5.1,0.3,5.1,0.3c2.7,0,5.6-0.2,8.5-0.4"/>
	<path class="st0" d="M32.5,50.8c0,0,0.1,0,0.1,0"/>
	<path class="st0" d="M32.5,50.8C26.1,51,15.8,51,4.5,50"/>
	<path class="st0" d="M0,49.5c1.5,0.2,3,0.3,4.5,0.4"/>
	<path class="st0" d="M0,46.8c6.4,1,11.5,1.4,15.6,1.6"/>
	<path class="st0" d="M24.4,48.1c-2.4,0.2-5.3,0.3-8.8,0.2"/>
	<path class="st0" d="M19.7,46.4c-3.1,0.1-9.5-0.2-17.1-1.5"/>
	<line class="st0" x1="19.7" y1="46.4" x2="19.8" y2="46.4"/>
	<path class="st0" d="M0,44.4c0.9,0.2,1.8,0.3,2.6,0.5"/>
	<path class="st0" d="M8.1,43.8c2.8,0.7,5,0.8,7.3,0.8"/>
	<path class="st0" d="M8.1,43.8C5.9,43.3,3.3,42.4,0,41"/>
	<path class="st0" d="M12.9,38.8c11.8,5.9,25.9,8.4,25.9,8.4c5,1.1,10.2,1.8,15.3,2.4"/>
	<path class="st0" d="M54,46.8c-4.7-0.8-10.2-1.8-16.6-3.4c0,0-12.4-3.5-17.3-5.9"/>
	<line class="st0" x1="37.9" y1="40.2" x2="37.4" y2="40"/>
	<path class="st0" d="M54,44.4c-1.8-0.3-3.6-0.7-5.5-1.2"/>
	<path class="st0" d="M37.9,40.2l4.5,1.4c2,0.6,4.1,1.2,6.1,1.6"/>
	<path class="st0" d="M54,41c-0.4-0.2-0.7-0.3-1.1-0.5"/>
	<path class="st0" d="M23.1,47.6C36,50.6,42,51.8,42,51.8l0.3,0.1c0,0,0,0,0,0"/>
	<path class="st0" d="M53,52.8c-4.4-0.3-8.1-0.6-10.6-0.9"/>
	<path class="st0" d="M53,52.8c0.3,0,0.7,0,1,0.1"/>
	<path class="st0" d="M36.2,23c-5.8,1.1-20,1.6-36.2-0.4"/>
	<path class="st0" d="M0.6,25.9l-0.4,0.2c-0.1,0-0.1,0-0.2,0.1"/>
	<line class="st0" x1="0.6" y1="25.9" x2="0.6" y2="25.9"/>
	<line class="st0" x1="12.1" y1="26.4" x2="14.5" y2="23.9"/>
	<path class="st0" d="M5.2,26.2L5,26.3c-1.1,0.5-2.8,1.1-5,1.9"/>
	<line class="st0" x1="5.2" y1="26.2" x2="5.4" y2="26.1"/>
	<path class="st0" d="M46.6,0c2.3,0.4,4.6,0.7,7,0.9"/>
	<line class="st0" x1="17.8" y1="3.1" x2="14.4" y2="6.8"/>
	<line class="st0" x1="17.8" y1="3.1" x2="17.8" y2="3.1"/>
	<line class="st0" x1="28.5" y1="2.1" x2="30.6" y2="0"/>
	<line class="st0" x1="31.5" y1="53" x2="31.6" y2="52.9"/>
	<line class="st0" x1="31.5" y1="53" x2="30.6" y2="54"/>
	<line class="st0" x1="34.7" y1="6.9" x2="34.7" y2="6.9"/>
	<line class="st0" x1="37.8" y1="3.6" x2="37.9" y2="3.5"/>
	<line class="st0" x1="37.8" y1="3.6" x2="34.7" y2="6.9"/>
	<line class="st0" x1="6.2" y1="7.5" x2="6.3" y2="7.5"/>
	<line class="st0" x1="6.2" y1="7.5" x2="2.3" y2="11.9"/>
	<line class="st0" x1="17.5" y1="12.2" x2="19.9" y2="9.7"/>
	<line class="st0" x1="52" y1="3.8" x2="48.1" y2="8.1"/>
	<line class="st0" x1="34.5" y1="11.8" x2="31.9" y2="14.7"/>
	<line class="st0" x1="25.1" y1="16.5" x2="27.7" y2="13.6"/>
	<line class="st0" x1="36.9" y1="19.7" x2="39.4" y2="17"/>
	<line class="st0" x1="52.6" y1="26.6" x2="50" y2="29.5"/>
	<line class="st0" x1="52.6" y1="26.6" x2="52.6" y2="26.6"/>
	<line class="st0" x1="24.2" y1="29.9" x2="24.1" y2="29.9"/>
	<line class="st0" x1="24.1" y1="29.9" x2="21.1" y2="33.4"/>
	<line class="st0" x1="10.4" y1="30.9" x2="6.4" y2="35.6"/>
	<line class="st0" x1="12.9" y1="34.8" x2="9" y2="39.3"/>
	<line class="st0" x1="12.9" y1="34.8" x2="13" y2="34.8"/>
	<line class="st0" x1="36.4" y1="33.5" x2="39.6" y2="29.8"/>
	<line class="st0" x1="52.9" y1="22.6" x2="50.4" y2="25.3"/>
	<line class="st0" x1="41.5" y1="14.4" x2="43.7" y2="11.9"/>
	<line class="st0" x1="41.5" y1="14.4" x2="41.5" y2="14.4"/>
	<line class="st0" x1="0.3" y1="17.9" x2="2.7" y2="15.1"/>
	<line class="st0" x1="2.8" y1="15.1" x2="2.7" y2="15.1"/>
	<line class="st0" x1="41.8" y1="20.8" x2="39.3" y2="23.5"/>
	<line class="st0" x1="41.8" y1="20.8" x2="41.8" y2="20.8"/>
	<line class="st0" x1="20.4" y1="15" x2="17.4" y2="18.3"/>
	<line class="st0" x1="20.4" y1="15" x2="20.4" y2="14.9"/>
	<line class="st0" x1="9.5" y1="19.2" x2="8" y2="20.8"/>
	<line class="st0" x1="8" y1="20.8" x2="8" y2="20.8"/>
	<line class="st0" x1="9.5" y1="19.2" x2="9.5" y2="19.2"/>
	<line class="st0" x1="28.3" y1="21.3" x2="26" y2="23.8"/>
	<line class="st0" x1="17.1" y1="26.6" x2="13.4" y2="30.7"/>
	<line class="st0" x1="33.7" y1="25.6" x2="30.8" y2="29.1"/>
	<line class="st0" x1="51.8" y1="30.9" x2="46.8" y2="36.6"/>
	<line class="st0" x1="51.8" y1="30.9" x2="51.9" y2="30.9"/>
	<line class="st0" x1="28.9" y1="35.4" x2="29" y2="35.4"/>
	<line class="st0" x1="28.9" y1="35.4" x2="26.3" y2="38.5"/>
	<line class="st0" x1="50.9" y1="40.5" x2="48.5" y2="43.3"/>
	<line class="st0" x1="48.5" y1="43.3" x2="48.5" y2="43.3"/>
	<line class="st0" x1="34.4" y1="42.6" x2="31.8" y2="45.5"/>
	<line class="st0" x1="18.3" y1="37.8" x2="18.2" y2="37.8"/>
	<line class="st0" x1="18.2" y1="37.8" x2="16" y2="40.2"/>
	<line class="st0" x1="42.4" y1="51.9" x2="41.4" y2="53"/>
	<line class="st0" x1="41.4" y1="53" x2="41.4" y2="53"/>
	<line class="st0" x1="42.4" y1="51.9" x2="42.4" y2="51.9"/>
	<line class="st0" x1="24.5" y1="53.3" x2="26.8" y2="50.9"/>
	<line class="st0" x1="15.6" y1="48.3" x2="13.6" y2="50.6"/>
	<line class="st0" x1="15.6" y1="48.3" x2="15.6" y2="48.3"/>
	<line class="st0" x1="4.5" y1="49.9" x2="4.5" y2="50"/>
	<line class="st0" x1="1.8" y1="52.9" x2="4.5" y2="50"/>
	<line class="st0" x1="0.9" y1="46.8" x2="2.6" y2="44.9"/>
	<line class="st0" x1="2.7" y1="44.8" x2="2.6" y2="44.9"/>
	<line class="st0" x1="8.1" y1="43.8" x2="8.1" y2="43.8"/>
	<line class="st0" x1="8.1" y1="43.8" x2="9.6" y2="42.1"/>
	<line class="st0" x1="9.6" y1="42.1" x2="9.6" y2="42.1"/>
	<line class="st0" x1="18.6" y1="45.9" x2="21.8" y2="42.5"/>
	<line class="st0" x1="36.7" y1="50.6" x2="39.6" y2="47.4"/>
	<line class="st0" x1="16.4" y1="54" x2="16.8" y2="53.6"/>
	<line class="st0" x1="13.2" y1="3.4" x2="16.3" y2="0"/>
	<line class="st0" x1="13.2" y1="3.4" x2="13.2" y2="3.4"/>
</g>
</svg>
