<?xml version="1.0" encoding="utf-8"?>
<!-- Generator: Adobe Illustrator 23.0.1, SVG Export Plug-In . SVG Version: 6.00 Build 0)  -->
<svg version="1.1" id="Layer_1" xmlns="http://www.w3.org/2000/svg" xmlns:xlink="http://www.w3.org/1999/xlink" x="0px" y="0px"
	 viewBox="0 0 54 54" style="enable-background:new 0 0 54 54;" xml:space="preserve">
<style type="text/css">
	.st0{clip-path:url(#SVGID_2_);fill:none;stroke:#231F20;stroke-width:0.3;}
</style>
<g>
	<defs>
		<rect id="SVGID_1_" x="0" y="0" width="54" height="54"/>
	</defs>
	<clipPath id="SVGID_2_">
		<use xlink:href="#SVGID_1_"  style="overflow:visible;"/>
	</clipPath>
	<line class="st0" x1="0" y1="6.9" x2="54" y2="6.9"/>
	<line class="st0" x1="54" y1="2.7" x2="0" y2="2.7"/>
	<path class="st0" d="M0,5.1c0.6,0,1.3,0.3,2.3,0.8C1.8,4.6,0.9,3.9,0,3.9"/>
	<path class="st0" d="M4.3,4.4C5.4,6.8,8.1,6.6,9,4.1C7,5.2,6.3,5.2,4.3,4.4z"/>
	<path class="st0" d="M27.5,15.6c-2,1-2.7,1-4.7,0.2C23.9,18.3,26.6,18.1,27.5,15.6z"/>
	<path class="st0" d="M45.6,10.2c-2,1-2.7,1-4.7,0.2C42,12.9,44.7,12.7,45.6,10.2z"/>
	<path class="st0" d="M27.2,30.8c1.1,2.5,3.8,2.3,4.7-0.2C29.9,31.6,29.2,31.6,27.2,30.8z"/>
	<path class="st0" d="M0,29c0.5-0.3,0.9-0.9,1.1-1.6c-0.4,0.2-0.8,0.4-1.1,0.5"/>
	<path class="st0" d="M26.8,41.3c-2,1-2.7,1-4.7,0.2C23.2,44,25.9,43.8,26.8,41.3z"/>
	<path class="st0" d="M4.9,48.4c1.1,2.5,3.8,2.3,4.7-0.2C7.6,49.2,6.9,49.2,4.9,48.4z"/>
	<path class="st0" d="M39.7,50.8c1.1,2.5,3.8,2.3,4.7-0.2C42.4,51.6,41.7,51.6,39.7,50.8z"/>
	<path class="st0" d="M11,5.6c2-0.8,2.7-0.8,4.7,0.2C14.9,3.4,12.2,3.2,11,5.6z"/>
	<path class="st0" d="M10.6,11.9C9.7,9.4,7,9.2,5.9,11.6C7.9,10.8,8.6,10.8,10.6,11.9z"/>
	<path class="st0" d="M37.9,22.9c2-0.8,2.7-0.8,4.7,0.2C41.7,20.7,39,20.5,37.9,22.9z"/>
	<path class="st0" d="M16.8,24.1c-0.9-2.5-3.6-2.7-4.7-0.2C14.1,23.1,14.8,23.1,16.8,24.1z"/>
	<path class="st0" d="M13.2,36.6c-0.9-2.5-3.6-2.7-4.7-0.2C10.5,35.5,11.2,35.5,13.2,36.6z"/>
	<path class="st0" d="M21.9,53c2-0.8,2.7-0.8,4.7,0.2C25.7,50.8,23,50.5,21.9,53z"/>
	<path class="st0" d="M44.7,39.6c2-0.8,2.7-0.8,4.7,0.2C48.5,37.4,45.8,37.2,44.7,39.6z"/>
	<path class="st0" d="M17.8,4.4c1.1,2.5,3.8,2.3,4.7-0.2C20.5,5.2,19.8,5.2,17.8,4.4z"/>
	<path class="st0" d="M24.5,5.6c2-0.8,2.7-0.8,4.7,0.2C28.4,3.4,25.7,3.2,24.5,5.6z"/>
	<path class="st0" d="M31.3,4.4c1.1,2.5,3.8,2.3,4.7-0.2C34,5.2,33.3,5.2,31.3,4.4z"/>
	<path class="st0" d="M38,5.6c2-0.8,2.7-0.8,4.7,0.2C41.9,3.4,39.2,3.2,38,5.6z"/>
	<path class="st0" d="M44.8,4.4c1.1,2.5,3.8,2.3,4.7-0.2C47.5,5.2,46.8,5.2,44.8,4.4z"/>
	<path class="st0" d="M54,3.9c-0.9-0.1-1.9,0.5-2.5,1.7C52.6,5.2,53.3,5,54,5.1"/>
	<path class="st0" d="M54,27.9c-1.2,0.5-2,0.3-3.6-0.3c0.8,1.8,2.4,2.2,3.6,1.3"/>
</g>
</svg>
