<?xml version="1.0" encoding="utf-8"?>
<!-- Generator: Adobe Illustrator 23.0.1, SVG Export Plug-In . SVG Version: 6.00 Build 0)  -->
<svg version="1.1" id="Layer_1" xmlns="http://www.w3.org/2000/svg" xmlns:xlink="http://www.w3.org/1999/xlink" x="0px" y="0px"
	 viewBox="0 0 54.1 54.1" style="enable-background:new 0 0 54.1 54.1;" xml:space="preserve">
<style type="text/css">
	.st0{clip-path:url(#SVGID_2_);}
	.st1{clip-path:url(#SVGID_2_);fill:#FFFFFF;}
	.st2{clip-path:url(#SVGID_2_);fill:none;stroke:#000000;stroke-width:0.3;}
</style>
<g>
	<defs>
		<rect id="SVGID_1_" x="0" y="0" width="54.1" height="54.1"/>
	</defs>
	<clipPath id="SVGID_2_">
		<use xlink:href="#SVGID_1_"  style="overflow:visible;"/>
	</clipPath>
	<rect x="0" y="0" class="st0" width="54.1" height="54.1"/>
	<path class="st1" d="M3.3,16.2c-3.4,0.6-0.4,2.5,1.5,2.4s3.1,0,4.1,0.4s4.5,1.3,7,1.1s3.5-0.1,7.5-0.3c6.8-0.9,0.4-3-2.1-2.8
		c-2.5,0.3-4.9-0.1-7.1-1.3S6.6,15.6,3.3,16.2z"/>
	<path class="st1" d="M50.1,18.6c2.3-0.8,1.1-2-3.8-2c0,0-2.8-0.1-4.3-0.6s-4-0.1-7.4,0.6s-1.5,1.8,0,1.9s2,0,6.1,0.8
		S47.9,19.3,50.1,18.6z"/>
	<path class="st1" d="M20.5,27.7c2.1,0,4.5,0.4,9.5,1.5s12.5-1,15.1-2s1.8-1.3,0.8-1.9s-1.8-0.6-5.6-0.3c0,0-3.1,0-5.4-0.4
		s-6.5,0.1-10.1,0.4s-2.6,0-6.6,0.9S18.4,27.7,20.5,27.7z"/>
	<path class="st1" d="M50.7,39.2c4.3-0.9,0.5-2.3-4.3-2.3c0,0-1.6,0-3.3-0.4s-8-0.9-9.9-0.3S28,37,26.1,37.1s-0.9,1.5,0.6,1.5
		s4,0.6,6.5,0.3s3.8-0.1,6.1,0.9S46.5,40.1,50.7,39.2z"/>
	<path class="st1" d="M17.9,3.4c0,0-1.6,0-3.2-0.4c0,0-3.4,0.4-5.1,0.9C7.9,4.4,9.4,6,10.7,6.1c2.4,1,7.1,0.4,11.4-0.5
		S22.6,3.4,17.9,3.4z"/>
	<path class="st1" d="M1.4,34.8c1.3,0.4,4.1,0.5,6.1,0.1s1.1,0.6,0.6,1s0,1.1,2,1s2.5-0.1,4.1,0s1.8-0.4,1.3-1s1.1-0.8,2.5-0.4
		s2.1-0.1,3.6-1S20.1,33,16.2,33c0,0-2.1,0.1-4.4-0.3s-6.9,0-9.6,0.4S0.1,34.5,1.4,34.8z"/>
	<path class="st1" d="M24.2,46c5.1,0.3,3,0.1,3.7,0.5s3.6,0.4,5.4-0.8s1.3-1.5-1.5-1.6s-1.2-0.2-3.2-0.2s-3.5-0.3-3.5-0.3
		C19.5,44,19.1,45.7,24.2,46z"/>
	<path class="st1" d="M32,9.8c0,0-1.5,0.3-3.5,0.3s-5.3,0.4-8,0.5s-3.3,0.5-1.5,1.6s4.6,1.1,5.4,0.8s3.4-0.5,8.5-0.8
		S37.6,10.2,32,9.8z"/>
	<path class="st1" d="M0,45.3c1.7,0,3.2-0.1,3.2-0.1c4.4,0.3,4.5-0.5,5.3-0.6s1.6-1-1.6-1c-2.9,0-5.2,0-6.9,0V45.3z"/>
	<path class="st1" d="M5.2,50.5c1.9-0.1,5.5,0.5,8.8,0.9s2.4,0.1,4.2-0.4s-0.5-1.6-1.5-1.4s-0.5,0.3-1.9,0.3
		c-2.3-0.1-7.8-1.4-10.1-1.1S3.4,50.6,5.2,50.5z"/>
	<path class="st1" d="M41.2,52.5c4.4,0.4,6.1,0.3,8.3-0.8s-1.1-4.6-5.8-3.7c0,0-3.4,0.1-5.5-0.3s-2.8,2.8-4.2,3.5
		S36.9,52.1,41.2,52.5z"/>
	<path class="st1" d="M0,27c1.5-0.1,3.3-0.3,5.6-0.4c3.3-0.3,2-0.8,0.4-1.1s-3-0.9-5.8-0.9c0,0-0.1,0-0.2,0V27z"/>
	<path class="st1" d="M0,10.9C1.2,10.6,1.4,9,4,8.7c3.3-0.3,1.5-2.3-0.7-2.3C2.6,6.4,1.4,6.3,0,6.2V10.9z"/>
	<path class="st1" d="M54.1,43.6c-0.2,0-0.4,0-0.5,0c-1.6,0-5.3,0.9-2.8,1.4c1,0.2,2.2,0.3,3.3,0.3V43.6z"/>
	<path class="st1" d="M54.1,24.6c-0.3,0.1-1.1,0.2-2.4,0.3c-1.9,0.3-0.8,2.5,0.8,2.3c0.5-0.1,1-0.1,1.6-0.2V24.6z"/>
	<path class="st1" d="M54.1,6.2c-2.9-0.2-6.7-0.6-8.9-1c-3.2-0.5-6.5,0.2-7.8,0.8c0,0-1.5-1-1.2,0.3c0.3,1.3,3.7,3.3,6,3
		c2.3-0.3,7.8,0.5,10.5,1.3c0.6,0.2,1,0.2,1.4,0.1V6.2z"/>
	<line class="st2" x1="0.5" y1="6.3" x2="0" y2="6.8"/>
	<line class="st2" x1="2.7" y1="6.4" x2="0" y2="9.2"/>
	<line class="st2" x1="2.2" y1="9.3" x2="4.8" y2="6.7"/>
	<line class="st2" x1="39.3" y1="47.8" x2="35.3" y2="52"/>
	<line class="st2" x1="41.4" y1="48.1" x2="37.6" y2="52.1"/>
	<line class="st2" x1="43.8" y1="48" x2="39.6" y2="52.3"/>
	<line class="st2" x1="46.3" y1="47.9" x2="41.9" y2="52.4"/>
	<line class="st2" x1="48" y1="48.5" x2="44" y2="52.6"/>
	<line class="st2" x1="49.4" y1="49.4" x2="46.4" y2="52.6"/>
	<line class="st2" x1="0" y1="44.7" x2="1.1" y2="43.6"/>
	<line class="st2" x1="3.4" y1="43.6" x2="1.8" y2="45.3"/>
	<line class="st2" x1="5.8" y1="43.6" x2="4.1" y2="45.3"/>
	<line class="st2" x1="8.1" y1="43.6" x2="6.6" y2="45.2"/>
	<line class="st2" x1="2" y1="24.7" x2="0" y2="26.7"/>
	<line class="st2" x1="4.1" y1="25" x2="2.2" y2="26.9"/>
	<line class="st2" x1="5.9" y1="25.5" x2="4.8" y2="26.6"/>
	<line class="st2" x1="2.8" y1="33" x2="1.1" y2="34.8"/>
	<line class="st2" x1="3.1" y1="35.1" x2="5.4" y2="32.7"/>
	<line class="st2" x1="5.3" y1="35.3" x2="7.9" y2="32.6"/>
	<line class="st2" x1="10.3" y1="32.5" x2="8" y2="34.9"/>
	<line class="st2" x1="8.5" y1="36.8" x2="12.4" y2="32.8"/>
	<line class="st2" x1="10.6" y1="37" x2="14.5" y2="33"/>
	<line class="st2" x1="16.9" y1="33" x2="13" y2="37"/>
	<line class="st2" x1="16.8" y1="35.5" x2="19.1" y2="33.1"/>
	<line class="st2" x1="21.1" y1="33.4" x2="18.8" y2="35.8"/>
	<line class="st2" x1="6.5" y1="48.7" x2="4.7" y2="50.5"/>
	<line class="st2" x1="8.6" y1="48.9" x2="7.1" y2="50.5"/>
	<line class="st2" x1="10.7" y1="49.2" x2="9.2" y2="50.8"/>
	<line class="st2" x1="12.7" y1="49.5" x2="11.3" y2="51"/>
	<line class="st2" x1="14.7" y1="49.9" x2="13.3" y2="51.3"/>
	<line class="st2" x1="17.4" y1="49.6" x2="15.5" y2="51.5"/>
	<line class="st2" x1="23.7" y1="43.7" x2="21.8" y2="45.7"/>
	<line class="st2" x1="26" y1="43.7" x2="23.8" y2="46"/>
	<line class="st2" x1="28.2" y1="43.9" x2="26.1" y2="46"/>
	<line class="st2" x1="30.5" y1="43.9" x2="28.1" y2="46.4"/>
	<line class="st2" x1="32.7" y1="44.1" x2="30.3" y2="46.6"/>
	<line class="st2" x1="26.5" y1="38.6" x2="28" y2="37"/>
	<line class="st2" x1="28.7" y1="38.8" x2="30.7" y2="36.7"/>
	<line class="st2" x1="30.7" y1="39.1" x2="33.5" y2="36.2"/>
	<line class="st2" x1="36.1" y1="35.9" x2="33.3" y2="38.9"/>
	<line class="st2" x1="35.8" y1="38.7" x2="38.4" y2="36"/>
	<line class="st2" x1="40.5" y1="36.2" x2="37.7" y2="39.1"/>
	<line class="st2" x1="42.7" y1="36.4" x2="39.5" y2="39.7"/>
	<line class="st2" x1="44.7" y1="36.8" x2="41.3" y2="40.2"/>
	<line class="st2" x1="46.8" y1="36.9" x2="43.7" y2="40.2"/>
	<line class="st2" x1="49" y1="37.1" x2="46.3" y2="39.9"/>
	<line class="st2" x1="49" y1="39.5" x2="51" y2="37.4"/>
	<line class="st2" x1="19.6" y1="25.6" x2="17.9" y2="27.4"/>
	<line class="st2" x1="20" y1="27.6" x2="22.4" y2="25.2"/>
	<line class="st2" x1="22.3" y1="27.7" x2="24.9" y2="25"/>
	<line class="st2" x1="24.3" y1="28" x2="27.4" y2="24.8"/>
	<line class="st2" x1="26.2" y1="28.4" x2="29.9" y2="24.7"/>
	<line class="st2" x1="32.3" y1="24.6" x2="28.2" y2="28.8"/>
	<line class="st2" x1="34.6" y1="24.7" x2="30.2" y2="29.2"/>
	<line class="st2" x1="36.6" y1="25" x2="32.2" y2="29.5"/>
	<line class="st2" x1="38.9" y1="25.1" x2="34.5" y2="29.5"/>
	<line class="st2" x1="41.3" y1="25" x2="37.1" y2="29.2"/>
	<line class="st2" x1="40" y1="28.7" x2="43.8" y2="24.8"/>
	<line class="st2" x1="43.1" y1="27.9" x2="45.7" y2="25.2"/>
	<line class="st2" x1="34.3" y1="18.4" x2="36.4" y2="16.3"/>
	<line class="st2" x1="39.2" y1="15.8" x2="36.4" y2="18.6"/>
	<line class="st2" x1="38.5" y1="18.9" x2="41.4" y2="15.9"/>
	<line class="st2" x1="40.6" y1="19.2" x2="43.4" y2="16.3"/>
	<line class="st2" x1="42.6" y1="19.5" x2="45.5" y2="16.5"/>
	<line class="st2" x1="44.9" y1="19.5" x2="47.7" y2="16.6"/>
	<line class="st2" x1="47.5" y1="19.3" x2="49.8" y2="16.9"/>
	<line class="st2" x1="3.8" y1="16.1" x2="2.2" y2="17.8"/>
	<line class="st2" x1="3.8" y1="18.5" x2="6.6" y2="15.6"/>
	<line class="st2" x1="6" y1="18.6" x2="9.2" y2="15.4"/>
	<line class="st2" x1="11.6" y1="15.3" x2="8.2" y2="18.8"/>
	<line class="st2" x1="10" y1="19.4" x2="13.6" y2="15.7"/>
	<line class="st2" x1="21" y1="10.5" x2="19.2" y2="12.4"/>
	<line class="st2" x1="15.3" y1="16.3" x2="11.8" y2="19.9"/>
	<line class="st2" x1="20.9" y1="13" x2="23.4" y2="10.4"/>
	<line class="st2" x1="17.1" y1="16.9" x2="14.1" y2="20"/>
	<line class="st2" x1="23" y1="13.2" x2="25.9" y2="10.3"/>
	<line class="st2" x1="19.2" y1="17.2" x2="16.4" y2="20"/>
	<line class="st2" x1="25.8" y1="12.7" x2="28.4" y2="10.1"/>
	<line class="st2" x1="18.6" y1="20.1" x2="21.6" y2="17"/>
	<line class="st2" x1="28.3" y1="12.5" x2="30.8" y2="10"/>
	<line class="st2" x1="21.1" y1="19.9" x2="23.7" y2="17.3"/>
	<line class="st2" x1="30.8" y1="12.4" x2="33.1" y2="10"/>
	<line class="st2" x1="23.6" y1="19.8" x2="25.5" y2="17.9"/>
	<line class="st2" x1="33.3" y1="12.2" x2="35.2" y2="10.3"/>
	<line class="st2" x1="9.5" y1="5.7" x2="11.7" y2="3.4"/>
	<line class="st2" x1="11.3" y1="6.3" x2="14.6" y2="2.9"/>
	<line class="st2" x1="13.3" y1="6.6" x2="16.5" y2="3.3"/>
	<line class="st2" x1="15.8" y1="6.5" x2="18.8" y2="3.4"/>
	<line class="st2" x1="18.2" y1="6.4" x2="20.9" y2="3.6"/>
	<line class="st2" x1="21.1" y1="5.8" x2="22.9" y2="4"/>
	<line class="st2" x1="37.1" y1="7.5" x2="39" y2="5.5"/>
	<line class="st2" x1="38.4" y1="8.5" x2="41.6" y2="5.2"/>
	<line class="st2" x1="40.1" y1="9.2" x2="44.1" y2="5.1"/>
	<line class="st2" x1="42.2" y1="9.4" x2="46.2" y2="5.3"/>
	<line class="st2" x1="44.6" y1="9.4" x2="48.3" y2="5.6"/>
	<line class="st2" x1="46.7" y1="9.6" x2="50.4" y2="5.8"/>
	<line class="st2" x1="48.8" y1="9.8" x2="52.5" y2="6.1"/>
	<line class="st2" x1="50.8" y1="10.2" x2="54.1" y2="6.8"/>
	<line class="st2" x1="52.6" y1="10.7" x2="54.1" y2="9.2"/>
	<line class="st2" x1="52.8" y1="43.7" x2="51.4" y2="45.1"/>
	<line class="st2" x1="53.5" y1="45.3" x2="54.1" y2="44.7"/>
	<line class="st2" x1="51.6" y1="27" x2="53.8" y2="24.6"/>
	<line class="st2" x1="53.8" y1="27.1" x2="54.1" y2="26.7"/>
</g>
</svg>
