<?xml version="1.0" encoding="utf-8"?>
<!-- Generator: Adobe Illustrator 23.0.1, SVG Export Plug-In . SVG Version: 6.00 Build 0)  -->
<svg version="1.1" id="Layer_1" xmlns="http://www.w3.org/2000/svg" xmlns:xlink="http://www.w3.org/1999/xlink" x="0px" y="0px"
	 viewBox="0 0 54.1 54.1" style="enable-background:new 0 0 54.1 54.1;" xml:space="preserve">
<style type="text/css">
	.st0{fill:none;stroke:#000000;stroke-width:0.3;}
</style>
<g>
	<line class="st0" x1="0" y1="40.9" x2="54.1" y2="40.9"/>
	<line class="st0" x1="0" y1="26.8" x2="54.1" y2="26.8"/>
	<line class="st0" x1="0" y1="16.4" x2="54.1" y2="16.4"/>
	<path class="st0" d="M1.3,52.7c0,0-0.1-1.4,0.1-2.5s0.1-1.3-0.1-2s-0.3-1,0-1.6s0.1-0.9,0-1.6s0-1,0.8-2.5H0.2"/>
	<path class="st0" d="M5.5,52.7c0,0-0.1-1.4,0.1-2.5s0.1-1.3-0.1-2s-0.3-1,0-1.6s0.1-0.9,0-1.6s0-1,0.8-2.5H4.4"/>
	<path class="st0" d="M9.6,52.7c0,0-0.1-1.4,0.1-2.5s0.1-1.3-0.1-2s-0.3-1,0-1.6s0.1-0.9,0-1.6s0-1,0.8-2.5H8.5"/>
	<path class="st0" d="M13.8,52.7c0,0-0.1-1.4,0.1-2.5s0.1-1.3-0.1-2s-0.3-1,0-1.6s0.1-0.9,0-1.6s0-1,0.8-2.5h-1.9"/>
	<path class="st0" d="M18,52.7c0,0-0.1-1.4,0.1-2.5s0.1-1.3-0.1-2s-0.3-1,0-1.6s0.1-0.9,0-1.6s0-1,0.8-2.5h-1.9"/>
	<path class="st0" d="M22.1,52.7c0,0-0.1-1.4,0.1-2.5s0.1-1.3-0.1-2s-0.3-1,0-1.6s0.1-0.9,0-1.6s0-1,0.8-2.5H21"/>
	<path class="st0" d="M26.3,52.7c0,0-0.1-1.4,0.1-2.5s0.1-1.3-0.1-2s-0.3-1,0-1.6s0.1-0.9,0-1.6s0-1,0.8-2.5h-1.9"/>
	<path class="st0" d="M30.5,52.7c0,0-0.1-1.4,0.1-2.5s0.1-1.3-0.1-2s-0.3-1,0-1.6s0.1-0.9,0-1.6s0-1,0.8-2.5h-1.9"/>
	<path class="st0" d="M34.6,52.7c0,0-0.1-1.4,0.1-2.5s0.1-1.3-0.1-2s-0.3-1,0-1.6s0.1-0.9,0-1.6s0-1,0.8-2.5h-1.9"/>
	<path class="st0" d="M38.8,52.7c0,0-0.1-1.4,0.1-2.5s0.1-1.3-0.1-2s-0.3-1,0-1.6s0.1-0.9,0-1.6s0-1,0.8-2.5h-1.9"/>
	<path class="st0" d="M43,52.7c0,0-0.1-1.4,0.1-2.5s0.1-1.3-0.1-2s-0.3-1,0-1.6s0.1-0.9,0-1.6s0-1,0.8-2.5h-1.9"/>
	<path class="st0" d="M47,52.7c0,0-0.1-1.4,0.1-2.5s0.1-1.3-0.1-2s-0.3-1,0-1.6s0.1-0.9,0-1.6s0-1,0.8-2.5h-1.9"/>
	<path class="st0" d="M51.2,52.7c0,0-0.1-1.4,0.1-2.5s0.1-1.3-0.1-2s-0.3-1,0-1.6s0.1-0.9,0-1.6s0-1,0.8-2.5h-1.9"/>
	<path class="st0" d="M1.2,34.8c0.1-0.5,0.1-1.1-0.1-1.8S0.8,32,1.2,31.2s0.3-0.8,0.1-1.5s-0.1-0.5,0.4-1.5H0.1"/>
	<path class="st0" d="M4.6,34.8c0.1-0.5,0.1-1.1-0.1-1.8S4.2,32,4.6,31.2s0.3-0.8,0.1-1.5s-0.1-0.5,0.4-1.5H3.5"/>
	<path class="st0" d="M8,34.8c0.1-0.5,0.1-1.1-0.1-1.8S7.6,32,8,31.2s0.3-0.8,0.1-1.5S8,29.2,8.5,28.2H6.8"/>
	<path class="st0" d="M11.4,34.8c0.1-0.5,0.1-1.1-0.1-1.8S11,32,11.4,31.2s0.3-0.8,0.1-1.5s-0.1-0.5,0.4-1.5h-1.6"/>
	<path class="st0" d="M14.8,34.8c0.1-0.5,0.1-1.1-0.1-1.8s-0.3-1.1,0.1-1.9s0.3-0.8,0.1-1.5s-0.1-0.5,0.4-1.5h-1.6"/>
	<path class="st0" d="M18.1,34.8c0.1-0.5,0.1-1.1-0.1-1.8s-0.3-1.1,0.1-1.9s0.3-0.8,0.1-1.5s-0.1-0.5,0.4-1.5H17"/>
	<path class="st0" d="M21.6,34.8c0.1-0.5,0.1-1.1-0.1-1.8s-0.3-1.1,0.1-1.9s0.3-0.8,0.1-1.5s-0.1-0.5,0.4-1.5h-1.6"/>
	<path class="st0" d="M25,34.8c0.1-0.5,0.1-1.1-0.1-1.8S24.6,32,25,31.2s0.3-0.8,0.1-1.5s-0.1-0.5,0.4-1.5h-1.6"/>
	<path class="st0" d="M28.3,34.8c0.1-0.5,0.1-1.1-0.1-1.8s-0.3-1.1,0.1-1.9s0.3-0.8,0.1-1.5s-0.1-0.5,0.4-1.5h-1.6"/>
	<path class="st0" d="M31.7,34.8c0.1-0.5,0.1-1.1-0.1-1.8s-0.3-1.1,0.1-1.9s0.3-0.8,0.1-1.5s-0.1-0.5,0.4-1.5h-1.6"/>
	<path class="st0" d="M35.1,34.8c0.1-0.5,0.1-1.1-0.1-1.8s-0.3-1.1,0.1-1.9s0.3-0.8,0.1-1.5s-0.1-0.5,0.4-1.5H34"/>
	<path class="st0" d="M38.5,34.8c0.1-0.5,0.1-1.1-0.1-1.8s-0.3-1.1,0.1-1.9s0.3-0.8,0.1-1.5s-0.1-0.5,0.4-1.5h-1.6"/>
	<path class="st0" d="M41.8,34.8c0.1-0.5,0.1-1.1-0.1-1.8s-0.3-1.1,0.1-1.9s0.3-0.8,0.1-1.5s-0.1-0.5,0.4-1.5h-1.6"/>
	<path class="st0" d="M45.2,34.8c0.1-0.5,0.1-1.1-0.1-1.8s-0.3-1.1,0.1-1.9s0.3-0.8,0.1-1.5s-0.1-0.5,0.4-1.5h-1.6"/>
	<path class="st0" d="M48.6,34.8c0.1-0.5,0.1-1.1-0.1-1.8s-0.3-1.1,0.1-1.9s0.3-0.8,0.1-1.5s-0.1-0.5,0.4-1.5h-1.6"/>
	<path class="st0" d="M52,34.8c0.1-0.5,0.1-1.1-0.1-1.8S51.6,32,52,31.2s0.3-0.8,0.1-1.5s-0.1-0.5,0.4-1.5h-1.6"/>
	<line class="st0" x1="0" y1="3.4" x2="54.1" y2="3.4"/>
	<path class="st0" d="M1.2,11.5c0.1-0.5,0.6-1.1,0.3-1.8S0.8,8.6,1.2,7.8s0.1-0.8,0-1.5s0-0.5,0.5-1.5H0.1"/>
	<path class="st0" d="M4.6,11.5c0.1-0.5,0.6-1.1,0.3-1.8S4.2,8.6,4.6,7.8s0.1-0.8,0-1.5s0-0.5,0.5-1.5H3.5"/>
	<path class="st0" d="M8,11.5c0.1-0.5,0.6-1.1,0.3-1.8S7.6,8.6,8,7.8s0.1-0.8,0-1.5C7.8,5.6,8,5.8,8.5,4.9H6.8"/>
	<path class="st0" d="M11.4,11.5c0.1-0.5,0.6-1.1,0.3-1.8S11,8.6,11.4,7.8s0.1-0.8,0-1.5s0-0.5,0.5-1.5h-1.6"/>
	<path class="st0" d="M14.8,11.5c0.1-0.5,0.6-1.1,0.3-1.8s-0.7-1.1-0.3-1.9s0.1-0.8,0-1.5s0-0.5,0.5-1.5h-1.6"/>
	<path class="st0" d="M18.1,11.5c0.1-0.5,0.6-1.1,0.3-1.8s-0.7-1.1-0.3-1.9s0.1-0.8,0-1.5s0-0.5,0.5-1.5H17"/>
	<path class="st0" d="M21.6,11.5c0.1-0.5,0.6-1.1,0.3-1.8s-0.7-1.1-0.3-1.9s0.1-0.8,0-1.5s0-0.5,0.5-1.5h-1.6"/>
	<path class="st0" d="M25,11.5c0.1-0.5,0.6-1.1,0.3-1.8S24.6,8.6,25,7.8s0.1-0.8,0-1.5s0-0.5,0.5-1.5h-1.6"/>
	<path class="st0" d="M28.3,11.5c0.1-0.5,0.6-1.1,0.3-1.8s-0.7-1.1-0.3-1.9s0.1-0.8,0-1.5s0-0.5,0.5-1.5h-1.6"/>
	<path class="st0" d="M31.7,11.5c0.1-0.5,0.6-1.1,0.3-1.8c-0.3-0.6-0.7-1.1-0.3-1.9s0.1-0.8,0-1.5s0-0.5,0.5-1.5h-1.6"/>
	<path class="st0" d="M35.1,11.5c0.1-0.5,0.6-1.1,0.3-1.8s-0.7-1.1-0.3-1.9s0.1-0.8,0-1.5s0-0.5,0.5-1.5H34"/>
	<path class="st0" d="M38.5,11.5c0.1-0.5,0.6-1.1,0.3-1.8s-0.7-1.1-0.3-1.9s0.1-0.8,0-1.5s0-0.5,0.5-1.5h-1.6"/>
	<path class="st0" d="M41.8,11.5c0.1-0.5,0.6-1.1,0.3-1.8s-0.7-1.1-0.3-1.9s0.1-0.8,0-1.5s0-0.5,0.5-1.5h-1.6"/>
	<path class="st0" d="M45.2,11.5c0.1-0.5,0.6-1.1,0.3-1.8s-0.7-1.1-0.3-1.9s0.1-0.8,0-1.5s0-0.5,0.5-1.5h-1.6"/>
	<path class="st0" d="M48.6,11.5c0.1-0.5,0.6-1.1,0.3-1.8s-0.7-1.1-0.3-1.9s0.1-0.8,0-1.5s0-0.5,0.5-1.5h-1.6"/>
	<path class="st0" d="M52,11.5c0.1-0.5,0.6-1.1,0.3-1.8S51.6,8.6,52,7.8s0.1-0.8,0-1.5s0-0.5,0.5-1.5h-1.6"/>
	<path class="st0" d="M1,20.4c0-0.4,0-0.9,0.1-1.5s0-0.5,0.4-1.4H0.2"/>
	<path class="st0" d="M3.8,20.4c0-0.4,0-0.9,0.1-1.5s0-0.5,0.4-1.4H3"/>
	<path class="st0" d="M6.6,20.4c0-0.4,0-0.9,0.1-1.5s0-0.5,0.4-1.4H5.9"/>
	<path class="st0" d="M9.5,20.4c0-0.4,0-0.9,0.1-1.5s0-0.5,0.4-1.4H8.7"/>
	<path class="st0" d="M12.4,20.4c0-0.4,0-0.9,0.1-1.5s0-0.5,0.4-1.4h-1.3"/>
	<path class="st0" d="M15.2,20.4c0-0.4,0-0.9,0.1-1.5s0-0.5,0.4-1.4h-1.3"/>
	<path class="st0" d="M18.1,20.4c0-0.4,0-0.9,0.1-1.5s0-0.5,0.4-1.4h-1.3"/>
	<path class="st0" d="M20.9,20.4c0-0.4,0-0.9,0.1-1.5s0-0.5,0.4-1.4h-1.3"/>
	<path class="st0" d="M23.8,20.4c0-0.4,0-0.9,0.1-1.5s0-0.5,0.4-1.4H23"/>
	<path class="st0" d="M26.6,20.4c0-0.4,0-0.9,0.1-1.5s0-0.5,0.4-1.4h-1.3"/>
	<path class="st0" d="M29.5,20.4c0-0.4,0-0.9,0.1-1.5s0-0.5,0.4-1.4h-1.3"/>
	<path class="st0" d="M32.3,20.4c0-0.4,0-0.9,0.1-1.5s0-0.5,0.4-1.4h-1.3"/>
	<path class="st0" d="M35.1,20.4c0-0.4,0-0.9,0.1-1.5s0-0.5,0.4-1.4h-1.3"/>
	<path class="st0" d="M38,20.4c0-0.4,0-0.9,0.1-1.5s0-0.5,0.4-1.4h-1.3"/>
	<path class="st0" d="M40.8,20.4c0-0.4,0-0.9,0.1-1.5s0-0.5,0.4-1.4h-1.3"/>
	<path class="st0" d="M43.7,20.4c0-0.4,0-0.9,0.1-1.5s0-0.5,0.4-1.4H43"/>
	<path class="st0" d="M46.5,20.4c0-0.4,0-0.9,0.1-1.5s0-0.5,0.4-1.4h-1.3"/>
	<path class="st0" d="M49.4,20.4c0-0.4,0-0.9,0.1-1.5s0-0.5,0.4-1.4h-1.3"/>
	<path class="st0" d="M52.2,20.4c0-0.4,0-0.9,0.1-1.5s0-0.5,0.4-1.4h-1.3"/>
</g>
</svg>
