<?xml version="1.0" encoding="utf-8"?>
<!-- Generator: Adobe Illustrator 23.0.1, SVG Export Plug-In . SVG Version: 6.00 Build 0)  -->
<svg version="1.1" id="Layer_1" xmlns="http://www.w3.org/2000/svg" xmlns:xlink="http://www.w3.org/1999/xlink" x="0px" y="0px"
	 viewBox="0 0 54 54" style="enable-background:new 0 0 54 54;" xml:space="preserve">
<style type="text/css">
	.st0{clip-path:url(#SVGID_2_);fill:none;stroke:#231F20;stroke-width:0.3;}
</style>
<g>
	<defs>
		<rect id="SVGID_1_" x="0" y="0" width="54" height="54"/>
	</defs>
	<clipPath id="SVGID_2_">
		<use xlink:href="#SVGID_1_"  style="overflow:visible;"/>
	</clipPath>
	<path class="st0" d="M47.7,34.6c1.3,0,2.3-1,2.3-2.3"/>
	<path class="st0" d="M47.7,34.6c-1.3,0-2.3-1-2.3-2.3"/>
	<path class="st0" d="M50,32.3C50,32.3,50,32.3,50,32.3c0-1.3-1-2.3-2.3-2.3c-1.3,0-2.3,1-2.3,2.3c0,0,0,0,0,0"/>
	<line class="st0" x1="47.7" y1="32.3" x2="47.7" y2="34.6"/>
	<line class="st0" x1="47.7" y1="32.3" x2="47.7" y2="30"/>
	<line class="st0" x1="47.7" y1="32.3" x2="50" y2="32.3"/>
	<line class="st0" x1="50" y1="32.3" x2="50" y2="32.3"/>
	<line class="st0" x1="47.7" y1="32.3" x2="45.4" y2="32.3"/>
	<line class="st0" x1="45.4" y1="32.3" x2="45.4" y2="32.3"/>
	<path class="st0" d="M42.7,20.3C42.7,20.3,42.7,20.3,42.7,20.3c0-1.3-1-2.3-2.3-2.3s-2.3,1-2.3,2.3c0,0,0,0,0,0"/>
	<path class="st0" d="M42.7,20.3c0,1.3-1,2.3-2.3,2.3"/>
	<path class="st0" d="M40.4,22.6c-1.3,0-2.3-1-2.3-2.3"/>
	<line class="st0" x1="40.4" y1="20.3" x2="40.4" y2="22.6"/>
	<line class="st0" x1="40.4" y1="20.3" x2="40.4" y2="18"/>
	<line class="st0" x1="42.7" y1="20.3" x2="42.7" y2="20.3"/>
	<line class="st0" x1="40.4" y1="20.3" x2="38.1" y2="20.3"/>
	<line class="st0" x1="40.4" y1="20.3" x2="42.7" y2="20.3"/>
	<line class="st0" x1="38.1" y1="20.3" x2="38.1" y2="20.3"/>
	<path class="st0" d="M35.5,30.9C35.5,30.9,35.5,30.9,35.5,30.9c0-1.3-1-2.3-2.3-2.3c-1.3,0-2.3,1-2.3,2.3c0,0,0,0,0,0"/>
	<path class="st0" d="M33.2,33.2c1.3,0,2.3-1,2.3-2.3"/>
	<path class="st0" d="M33.2,33.2c-1.3,0-2.3-1-2.3-2.3"/>
	<line class="st0" x1="33.2" y1="33.2" x2="33.2" y2="30.9"/>
	<line class="st0" x1="33.2" y1="30.9" x2="33.2" y2="28.6"/>
	<line class="st0" x1="30.9" y1="30.9" x2="30.9" y2="30.9"/>
	<line class="st0" x1="33.2" y1="30.9" x2="35.5" y2="30.9"/>
	<line class="st0" x1="35.5" y1="30.9" x2="35.5" y2="30.9"/>
	<line class="st0" x1="30.9" y1="30.9" x2="33.2" y2="30.9"/>
	<path class="st0" d="M18.3,39.1c1.3,0,2.3-1,2.3-2.3"/>
	<path class="st0" d="M16,36.8c0,1.3,1,2.3,2.3,2.3"/>
	<path class="st0" d="M16,36.8C16,36.8,16,36.8,16,36.8c0-1.3,1-2.3,2.3-2.3c1.3,0,2.3,1,2.3,2.3c0,0,0,0,0,0"/>
	<line class="st0" x1="18.3" y1="39.1" x2="18.3" y2="36.8"/>
	<line class="st0" x1="18.3" y1="34.5" x2="18.3" y2="36.8"/>
	<line class="st0" x1="16" y1="36.8" x2="18.3" y2="36.8"/>
	<line class="st0" x1="20.7" y1="36.8" x2="20.7" y2="36.8"/>
	<line class="st0" x1="16" y1="36.8" x2="16" y2="36.8"/>
	<line class="st0" x1="18.3" y1="36.8" x2="20.7" y2="36.8"/>
	<path class="st0" d="M4.7,45.2C4.7,45.2,4.7,45.2,4.7,45.2c0-1.3-1-2.3-2.3-2.3c-1.3,0-2.3,1-2.3,2.3c0,0,0,0,0,0"/>
	<path class="st0" d="M2.3,47.5c-1.3,0-2.3-1-2.3-2.3"/>
	<path class="st0" d="M4.7,45.2c0,1.3-1,2.3-2.3,2.3"/>
	<line class="st0" x1="2.3" y1="45.2" x2="2.3" y2="42.9"/>
	<line class="st0" x1="2.3" y1="45.2" x2="2.3" y2="47.5"/>
	<line class="st0" x1="2.3" y1="45.2" x2="0" y2="45.2"/>
	<line class="st0" x1="4.7" y1="45.2" x2="4.7" y2="45.2"/>
	<line class="st0" x1="2.3" y1="45.2" x2="4.7" y2="45.2"/>
	<path class="st0" d="M18,49.2c0,1.3-1,2.3-2.3,2.3"/>
	<path class="st0" d="M15.7,51.6c-1.3,0-2.3-1-2.3-2.3"/>
	<path class="st0" d="M18,49.2C18,49.2,18,49.2,18,49.2c0-1.3-1-2.3-2.3-2.3s-2.3,1-2.3,2.3c0,0,0,0,0,0"/>
	<line class="st0" x1="15.7" y1="49.2" x2="15.7" y2="47"/>
	<line class="st0" x1="15.7" y1="49.2" x2="15.7" y2="51.6"/>
	<line class="st0" x1="15.7" y1="49.2" x2="18" y2="49.2"/>
	<line class="st0" x1="13.4" y1="49.2" x2="13.4" y2="49.2"/>
	<line class="st0" x1="18" y1="49.2" x2="18" y2="49.2"/>
	<line class="st0" x1="15.7" y1="49.2" x2="13.4" y2="49.2"/>
	<path class="st0" d="M33.7,44.9c0,1.3-1,2.3-2.3,2.3"/>
	<path class="st0" d="M33.7,44.9C33.7,44.9,33.7,44.9,33.7,44.9c0-1.3-1-2.3-2.3-2.3c-1.3,0-2.3,1-2.3,2.3c0,0,0,0,0,0"/>
	<path class="st0" d="M31.4,47.2c-1.3,0-2.3-1-2.3-2.3"/>
	<line class="st0" x1="31.4" y1="44.9" x2="31.4" y2="47.2"/>
	<line class="st0" x1="31.4" y1="44.9" x2="31.4" y2="42.6"/>
	<line class="st0" x1="31.4" y1="44.9" x2="29.1" y2="44.9"/>
	<line class="st0" x1="33.7" y1="44.9" x2="33.7" y2="44.9"/>
	<line class="st0" x1="31.4" y1="44.9" x2="33.7" y2="44.9"/>
	<line class="st0" x1="29.1" y1="44.9" x2="29.1" y2="44.9"/>
	<path class="st0" d="M45.8,50.3c-1.3,0-2.3-1-2.3-2.3"/>
	<path class="st0" d="M48.1,47.9c0,1.3-1,2.3-2.3,2.3"/>
	<path class="st0" d="M48.1,47.9C48.1,47.9,48.1,47.9,48.1,47.9c0-1.3-1-2.3-2.3-2.3s-2.3,1-2.3,2.3c0,0,0,0,0,0"/>
	<line class="st0" x1="45.8" y1="47.9" x2="45.8" y2="45.7"/>
	<line class="st0" x1="45.8" y1="47.9" x2="45.8" y2="50.3"/>
	<line class="st0" x1="45.8" y1="47.9" x2="48.1" y2="47.9"/>
	<line class="st0" x1="45.8" y1="47.9" x2="43.4" y2="47.9"/>
	<line class="st0" x1="43.4" y1="47.9" x2="43.4" y2="47.9"/>
	<line class="st0" x1="48.1" y1="47.9" x2="48.1" y2="47.9"/>
	<path class="st0" d="M16.3,22.9c0,1.3,1,2.3,2.3,2.3"/>
	<path class="st0" d="M21,22.9C21,22.9,21,22.9,21,22.9c0-1.3-1-2.3-2.3-2.3c-1.3,0-2.3,1-2.3,2.3c0,0,0,0,0,0"/>
	<path class="st0" d="M18.7,25.3c1.3,0,2.3-1,2.3-2.3"/>
	<line class="st0" x1="18.7" y1="25.3" x2="18.7" y2="22.9"/>
	<line class="st0" x1="18.7" y1="20.7" x2="18.7" y2="22.9"/>
	<line class="st0" x1="16.3" y1="22.9" x2="18.7" y2="22.9"/>
	<line class="st0" x1="16.3" y1="22.9" x2="16.3" y2="22.9"/>
	<line class="st0" x1="21" y1="22.9" x2="21" y2="22.9"/>
	<line class="st0" x1="21" y1="22.9" x2="18.7" y2="22.9"/>
	<path class="st0" d="M7.5,31.7C7.5,31.7,7.5,31.7,7.5,31.7c0-1.3-1-2.3-2.3-2.3s-2.3,1-2.3,2.3c0,0,0,0,0,0"/>
	<path class="st0" d="M5.2,34.1c-1.3,0-2.3-1-2.3-2.3"/>
	<path class="st0" d="M7.5,31.7c0,1.3-1,2.3-2.3,2.3"/>
	<line class="st0" x1="5.2" y1="31.7" x2="5.2" y2="29.5"/>
	<line class="st0" x1="5.2" y1="31.7" x2="5.2" y2="34.1"/>
	<line class="st0" x1="2.9" y1="31.7" x2="2.9" y2="31.7"/>
	<line class="st0" x1="5.2" y1="31.7" x2="7.5" y2="31.7"/>
	<line class="st0" x1="5.2" y1="31.7" x2="2.9" y2="31.7"/>
	<line class="st0" x1="7.5" y1="31.7" x2="7.5" y2="31.7"/>
	<path class="st0" d="M3.5,19.7C3.5,19.7,3.5,19.7,3.5,19.7c0-1.3-1-2.3-2.3-2.3c-0.4,0-0.8,0.1-1.2,0.3"/>
	<path class="st0" d="M3.5,19.7c0,1.3-1,2.3-2.3,2.3"/>
	<path class="st0" d="M0,21.7C0.3,21.9,0.7,22,1.2,22"/>
	<line class="st0" x1="1.2" y1="19.7" x2="1.2" y2="17.4"/>
	<line class="st0" x1="1.2" y1="19.7" x2="1.2" y2="22"/>
	<line class="st0" x1="1.2" y1="19.7" x2="0" y2="19.7"/>
	<line class="st0" x1="1.2" y1="19.7" x2="3.5" y2="19.7"/>
	<line class="st0" x1="3.5" y1="19.7" x2="3.5" y2="19.7"/>
	<path class="st0" d="M8.3,11.4C8.3,11.4,8.3,11.4,8.3,11.4c0-1.3-1-2.3-2.3-2.3s-2.3,1-2.3,2.3c0,0,0,0,0,0"/>
	<path class="st0" d="M6,13.7c1.3,0,2.3-1,2.3-2.3"/>
	<path class="st0" d="M6,13.7c-1.3,0-2.3-1-2.3-2.3"/>
	<line class="st0" x1="6" y1="11.4" x2="6" y2="9.1"/>
	<line class="st0" x1="6" y1="11.4" x2="6" y2="13.7"/>
	<line class="st0" x1="8.3" y1="11.4" x2="8.3" y2="11.4"/>
	<line class="st0" x1="3.7" y1="11.4" x2="3.7" y2="11.4"/>
	<line class="st0" x1="6" y1="11.4" x2="3.7" y2="11.4"/>
	<line class="st0" x1="6" y1="11.4" x2="8.3" y2="11.4"/>
	<path class="st0" d="M2.5,5c0,1.3-1,2.3-2.3,2.3"/>
	<path class="st0" d="M2.5,5C2.5,5,2.5,5,2.5,5c0-1.3-1-2.3-2.3-2.3c-0.1,0-0.1,0-0.2,0"/>
	<path class="st0" d="M0.2,7.3c-0.1,0-0.1,0-0.2,0"/>
	<line class="st0" x1="0.2" y1="7.3" x2="0.2" y2="5"/>
	<line class="st0" x1="0.2" y1="2.7" x2="0.2" y2="5"/>
	<line class="st0" x1="2.5" y1="5" x2="2.5" y2="5"/>
	<line class="st0" x1="0.2" y1="5" x2="0" y2="5"/>
	<line class="st0" x1="2.5" y1="5" x2="0.2" y2="5"/>
	<path class="st0" d="M13.5,4.7C13.5,4.7,13.5,4.7,13.5,4.7c0-1.3-1-2.3-2.3-2.3s-2.3,1-2.3,2.3c0,0,0,0,0,0"/>
	<path class="st0" d="M11.2,7C9.9,7,8.9,6,8.9,4.7"/>
	<path class="st0" d="M13.5,4.7c0,1.3-1,2.3-2.3,2.3"/>
	<line class="st0" x1="11.2" y1="4.7" x2="11.2" y2="7"/>
	<line class="st0" x1="11.2" y1="4.7" x2="11.2" y2="2.4"/>
	<line class="st0" x1="8.9" y1="4.7" x2="8.9" y2="4.7"/>
	<line class="st0" x1="11.2" y1="4.7" x2="8.9" y2="4.7"/>
	<line class="st0" x1="13.5" y1="4.7" x2="13.5" y2="4.7"/>
	<line class="st0" x1="11.2" y1="4.7" x2="13.5" y2="4.7"/>
	<path class="st0" d="M18.5,10.5C18.5,10.5,18.5,10.5,18.5,10.5c0-1.3-1-2.3-2.3-2.3c-1.3,0-2.3,1-2.3,2.3c0,0,0,0,0,0"/>
	<path class="st0" d="M16.2,12.8c-1.3,0-2.3-1-2.3-2.3"/>
	<path class="st0" d="M16.2,12.8c1.3,0,2.3-1,2.3-2.3"/>
	<line class="st0" x1="16.2" y1="10.5" x2="16.2" y2="12.8"/>
	<line class="st0" x1="16.2" y1="10.5" x2="16.2" y2="8.2"/>
	<line class="st0" x1="16.2" y1="10.5" x2="18.5" y2="10.5"/>
	<line class="st0" x1="13.9" y1="10.5" x2="13.9" y2="10.5"/>
	<line class="st0" x1="16.2" y1="10.5" x2="13.9" y2="10.5"/>
	<line class="st0" x1="18.5" y1="10.5" x2="18.5" y2="10.5"/>
	<path class="st0" d="M27.6,14c1.3,0,2.3-1,2.3-2.3"/>
	<path class="st0" d="M25.3,11.7c0,1.3,1,2.3,2.3,2.3"/>
	<path class="st0" d="M29.9,11.7C29.9,11.7,29.9,11.7,29.9,11.7c0-1.3-1-2.3-2.3-2.3c-1.3,0-2.3,1-2.3,2.3c0,0,0,0,0,0"/>
	<line class="st0" x1="27.6" y1="14" x2="27.6" y2="11.7"/>
	<line class="st0" x1="27.6" y1="9.4" x2="27.6" y2="11.7"/>
	<line class="st0" x1="25.3" y1="11.7" x2="25.3" y2="11.7"/>
	<line class="st0" x1="25.3" y1="11.7" x2="27.6" y2="11.7"/>
	<line class="st0" x1="29.9" y1="11.7" x2="27.6" y2="11.7"/>
	<line class="st0" x1="29.9" y1="11.7" x2="29.9" y2="11.7"/>
	<path class="st0" d="M22.3,5.7c-1.3,0-2.3-1-2.3-2.3"/>
	<path class="st0" d="M24.7,3.3c0,1.3-1,2.3-2.3,2.3"/>
	<path class="st0" d="M24.7,3.3C24.7,3.3,24.7,3.3,24.7,3.3c0-1.3-1-2.3-2.3-2.3C21.1,1,20,2,20,3.3c0,0,0,0,0,0"/>
	<line class="st0" x1="22.3" y1="3.3" x2="22.3" y2="1.1"/>
	<line class="st0" x1="22.3" y1="3.3" x2="22.3" y2="5.7"/>
	<line class="st0" x1="22.3" y1="3.3" x2="24.7" y2="3.3"/>
	<line class="st0" x1="24.7" y1="3.3" x2="24.7" y2="3.3"/>
	<line class="st0" x1="20" y1="3.3" x2="20" y2="3.3"/>
	<line class="st0" x1="22.3" y1="3.3" x2="20" y2="3.3"/>
	<path class="st0" d="M34.4,4.5c0,1.3-1,2.3-2.3,2.3"/>
	<path class="st0" d="M34.4,4.5C34.4,4.5,34.4,4.5,34.4,4.5c0-1.3-1-2.3-2.3-2.3c-1.3,0-2.3,1-2.3,2.3c0,0,0,0,0,0"/>
	<path class="st0" d="M32.1,6.8c-1.3,0-2.3-1-2.3-2.3"/>
	<line class="st0" x1="32.1" y1="4.5" x2="32.1" y2="6.8"/>
	<line class="st0" x1="32.1" y1="4.5" x2="32.1" y2="2.2"/>
	<line class="st0" x1="32.1" y1="4.5" x2="29.7" y2="4.5"/>
	<line class="st0" x1="29.7" y1="4.5" x2="29.7" y2="4.5"/>
	<line class="st0" x1="34.4" y1="4.5" x2="34.4" y2="4.5"/>
	<line class="st0" x1="32.1" y1="4.5" x2="34.4" y2="4.5"/>
	<path class="st0" d="M37.7,12.5c-1.3,0-2.3-1-2.3-2.3"/>
	<path class="st0" d="M40,10.2c0,1.3-1,2.3-2.3,2.3"/>
	<path class="st0" d="M40,10.2C40,10.2,40,10.2,40,10.2c0-1.3-1-2.3-2.3-2.3s-2.3,1-2.3,2.3c0,0,0,0,0,0"/>
	<line class="st0" x1="37.7" y1="10.2" x2="37.7" y2="12.5"/>
	<line class="st0" x1="37.7" y1="10.2" x2="37.7" y2="7.9"/>
	<line class="st0" x1="37.7" y1="10.2" x2="40" y2="10.2"/>
	<line class="st0" x1="35.4" y1="10.2" x2="35.4" y2="10.2"/>
	<line class="st0" x1="37.7" y1="10.2" x2="35.4" y2="10.2"/>
	<line class="st0" x1="40" y1="10.2" x2="40" y2="10.2"/>
	<path class="st0" d="M45,3.5C45,3.5,45,3.5,45,3.5c0-1.3-1-2.3-2.3-2.3c-1.3,0-2.3,1-2.3,2.3c0,0,0,0,0,0"/>
	<path class="st0" d="M42.7,5.8c-1.3,0-2.3-1-2.3-2.3"/>
	<path class="st0" d="M42.7,5.8c1.3,0,2.3-1,2.3-2.3"/>
	<line class="st0" x1="42.7" y1="3.5" x2="42.7" y2="1.2"/>
	<line class="st0" x1="42.7" y1="3.5" x2="42.7" y2="5.8"/>
	<line class="st0" x1="42.7" y1="3.5" x2="40.4" y2="3.5"/>
	<line class="st0" x1="42.7" y1="3.5" x2="45" y2="3.5"/>
	<line class="st0" x1="45" y1="3.5" x2="45" y2="3.5"/>
	<line class="st0" x1="40.4" y1="3.5" x2="40.4" y2="3.5"/>
	<path class="st0" d="M51.3,10.3C51.3,10.3,51.3,10.3,51.3,10.3C51.3,9,50.3,8,49,8c-1.3,0-2.3,1-2.3,2.3c0,0,0,0,0,0"/>
	<path class="st0" d="M49,12.6c1.3,0,2.3-1,2.3-2.3"/>
	<path class="st0" d="M49,12.6c-1.3,0-2.3-1-2.3-2.3"/>
	<line class="st0" x1="49" y1="10.3" x2="49" y2="8"/>
	<line class="st0" x1="49" y1="10.3" x2="49" y2="12.6"/>
	<line class="st0" x1="49" y1="10.3" x2="46.7" y2="10.3"/>
	<line class="st0" x1="51.3" y1="10.3" x2="51.3" y2="10.3"/>
	<line class="st0" x1="46.7" y1="10.3" x2="46.7" y2="10.3"/>
	<line class="st0" x1="49" y1="10.3" x2="51.3" y2="10.3"/>
	<path class="st0" d="M52.8,19.7c0,0.9,0.5,1.6,1.2,2"/>
	<path class="st0" d="M54,17.7c-0.7,0.4-1.2,1.2-1.2,2c0,0,0,0,0,0"/>
	<line class="st0" x1="52.8" y1="19.7" x2="54" y2="19.7"/>
	<line class="st0" x1="52.8" y1="19.7" x2="52.8" y2="19.7"/>
	<path class="st0" d="M51.8,5c0,1.2,0.9,2.2,2.1,2.3"/>
	<path class="st0" d="M51.8,5C51.8,5,51.8,5,51.8,5c0-1.2,0.9-2.2,2.1-2.3"/>
	<line class="st0" x1="51.8" y1="5" x2="51.8" y2="5"/>
	<line class="st0" x1="51.8" y1="5" x2="54" y2="5"/>
</g>
</svg>
