<?xml version="1.0" encoding="utf-8"?>
<!-- Generator: Adobe Illustrator 23.0.1, SVG Export Plug-In . SVG Version: 6.00 Build 0)  -->
<svg version="1.1" id="Layer_1" xmlns="http://www.w3.org/2000/svg" xmlns:xlink="http://www.w3.org/1999/xlink" x="0px" y="0px"
	 viewBox="0 0 46.8 46.8" style="enable-background:new 0 0 46.8 46.8;" xml:space="preserve">
<style type="text/css">
	.st0{fill:none;stroke:#000000;stroke-width:0.3;}
	.st1{fill:none;stroke:#000000;stroke-width:0.7;stroke-linecap:round;}
</style>
<g>
	<line class="st0" x1="7.7" y1="1.6" x2="1.1" y2="1.6"/>
	<line class="st0" x1="10.3" y1="1.6" x2="17" y2="1.6"/>
	<line class="st0" x1="19.8" y1="1.6" x2="26.5" y2="1.6"/>
	<line class="st0" x1="29.3" y1="1.6" x2="35.9" y2="1.6"/>
	<line class="st0" x1="38.6" y1="1.6" x2="45.2" y2="1.6"/>
	<line class="st0" x1="0" y1="7.4" x2="3.1" y2="7.4"/>
	<line class="st0" x1="12.4" y1="7.4" x2="5.8" y2="7.4"/>
	<line class="st0" x1="21.9" y1="7.4" x2="15.3" y2="7.4"/>
	<line class="st0" x1="31.3" y1="7.4" x2="24.7" y2="7.4"/>
	<line class="st0" x1="40.7" y1="7.4" x2="34" y2="7.4"/>
	<line class="st0" x1="46.8" y1="7.4" x2="43.1" y2="7.4"/>
	<line class="st0" x1="7.7" y1="13.2" x2="1.1" y2="13.2"/>
	<line class="st0" x1="17" y1="13.2" x2="10.3" y2="13.2"/>
	<line class="st0" x1="19.8" y1="13.2" x2="26.5" y2="13.2"/>
	<line class="st0" x1="29.3" y1="13.2" x2="35.9" y2="13.2"/>
	<line class="st0" x1="38.6" y1="13.2" x2="45.2" y2="13.2"/>
	<line class="st0" x1="3.1" y1="19" x2="0" y2="19"/>
	<line class="st0" x1="12.4" y1="19" x2="5.8" y2="19"/>
	<line class="st0" x1="21.9" y1="19" x2="15.3" y2="19"/>
	<line class="st0" x1="31.3" y1="19" x2="24.7" y2="19"/>
	<line class="st0" x1="40.7" y1="19" x2="34" y2="19"/>
	<line class="st0" x1="43.1" y1="19" x2="46.8" y2="19"/>
	<line class="st0" x1="1.1" y1="24.8" x2="7.7" y2="24.8"/>
	<line class="st0" x1="17" y1="24.8" x2="10.3" y2="24.8"/>
	<line class="st0" x1="26.5" y1="24.8" x2="19.8" y2="24.8"/>
	<line class="st0" x1="29.3" y1="24.8" x2="35.9" y2="24.8"/>
	<line class="st0" x1="38.6" y1="24.8" x2="45.2" y2="24.8"/>
	<line class="st0" x1="3.1" y1="30.6" x2="0" y2="30.6"/>
	<line class="st0" x1="12.4" y1="30.6" x2="5.8" y2="30.6"/>
	<line class="st0" x1="15.3" y1="30.6" x2="21.9" y2="30.6"/>
	<line class="st0" x1="31.3" y1="30.6" x2="24.7" y2="30.6"/>
	<line class="st0" x1="34" y1="30.6" x2="40.7" y2="30.6"/>
	<line class="st0" x1="43.1" y1="30.6" x2="46.8" y2="30.6"/>
	<line class="st0" x1="7.7" y1="36.4" x2="1.1" y2="36.4"/>
	<line class="st0" x1="17" y1="36.4" x2="10.3" y2="36.4"/>
	<line class="st0" x1="19.8" y1="36.4" x2="26.5" y2="36.4"/>
	<line class="st0" x1="29.3" y1="36.4" x2="35.9" y2="36.4"/>
	<line class="st0" x1="38.6" y1="36.4" x2="45.2" y2="36.4"/>
	<line class="st0" x1="3.1" y1="42.2" x2="0" y2="42.2"/>
	<line class="st0" x1="5.8" y1="42.2" x2="12.4" y2="42.2"/>
	<line class="st0" x1="21.9" y1="42.2" x2="15.3" y2="42.2"/>
	<line class="st0" x1="31.3" y1="42.2" x2="24.7" y2="42.2"/>
	<line class="st0" x1="40.7" y1="42.2" x2="34" y2="42.2"/>
	<line class="st0" x1="43.1" y1="42.2" x2="46.8" y2="42.2"/>
	<line class="st1" x1="1.1" y1="4.5" x2="1.1" y2="4.5"/>
	<line class="st1" x1="4.7" y1="4.5" x2="4.7" y2="4.5"/>
	<line class="st1" x1="2.9" y1="4.5" x2="2.9" y2="4.5"/>
	<line class="st1" x1="8.3" y1="4.5" x2="8.3" y2="4.5"/>
	<line class="st1" x1="6.5" y1="4.5" x2="6.5" y2="4.5"/>
	<line class="st1" x1="11.9" y1="4.5" x2="11.9" y2="4.5"/>
	<line class="st1" x1="10.1" y1="4.5" x2="10.1" y2="4.5"/>
	<line class="st1" x1="15.5" y1="4.5" x2="15.5" y2="4.5"/>
	<line class="st1" x1="13.7" y1="4.5" x2="13.7" y2="4.5"/>
	<line class="st1" x1="19.1" y1="4.5" x2="19.1" y2="4.5"/>
	<line class="st1" x1="17.3" y1="4.5" x2="17.3" y2="4.5"/>
	<line class="st1" x1="22.7" y1="4.5" x2="22.7" y2="4.5"/>
	<line class="st1" x1="20.9" y1="4.5" x2="20.9" y2="4.5"/>
	<line class="st1" x1="26.3" y1="4.5" x2="26.3" y2="4.5"/>
	<line class="st1" x1="24.5" y1="4.5" x2="24.5" y2="4.5"/>
	<line class="st1" x1="29.9" y1="4.5" x2="29.9" y2="4.5"/>
	<line class="st1" x1="28.1" y1="4.5" x2="28.1" y2="4.5"/>
	<line class="st1" x1="33.4" y1="4.5" x2="33.4" y2="4.5"/>
	<line class="st1" x1="31.7" y1="4.5" x2="31.7" y2="4.5"/>
	<line class="st1" x1="37" y1="4.5" x2="37" y2="4.5"/>
	<line class="st1" x1="35.2" y1="4.5" x2="35.2" y2="4.5"/>
	<line class="st1" x1="40.6" y1="4.5" x2="40.6" y2="4.5"/>
	<line class="st1" x1="38.8" y1="4.5" x2="38.8" y2="4.5"/>
	<line class="st1" x1="44.2" y1="4.5" x2="44.2" y2="4.5"/>
	<line class="st1" x1="42.4" y1="4.5" x2="42.4" y2="4.5"/>
	<line class="st1" x1="46" y1="4.5" x2="46" y2="4.5"/>
	<line class="st1" x1="1.1" y1="10.4" x2="1.1" y2="10.4"/>
	<line class="st1" x1="4.7" y1="10.4" x2="4.7" y2="10.4"/>
	<line class="st1" x1="2.9" y1="10.4" x2="2.9" y2="10.4"/>
	<line class="st1" x1="8.3" y1="10.4" x2="8.3" y2="10.4"/>
	<line class="st1" x1="6.5" y1="10.4" x2="6.5" y2="10.4"/>
	<line class="st1" x1="11.9" y1="10.4" x2="11.9" y2="10.4"/>
	<line class="st1" x1="10.1" y1="10.4" x2="10.1" y2="10.4"/>
	<line class="st1" x1="15.5" y1="10.4" x2="15.5" y2="10.4"/>
	<line class="st1" x1="13.7" y1="10.4" x2="13.7" y2="10.4"/>
	<line class="st1" x1="19.1" y1="10.4" x2="19.1" y2="10.4"/>
	<line class="st1" x1="17.3" y1="10.4" x2="17.3" y2="10.4"/>
	<line class="st1" x1="22.7" y1="10.4" x2="22.7" y2="10.4"/>
	<line class="st1" x1="20.9" y1="10.4" x2="20.9" y2="10.4"/>
	<line class="st1" x1="26.3" y1="10.4" x2="26.3" y2="10.4"/>
	<line class="st1" x1="24.5" y1="10.4" x2="24.5" y2="10.4"/>
	<line class="st1" x1="29.9" y1="10.4" x2="29.9" y2="10.4"/>
	<line class="st1" x1="28.1" y1="10.4" x2="28.1" y2="10.4"/>
	<line class="st1" x1="33.4" y1="10.4" x2="33.4" y2="10.4"/>
	<line class="st1" x1="31.7" y1="10.4" x2="31.7" y2="10.4"/>
	<line class="st1" x1="37" y1="10.4" x2="37" y2="10.4"/>
	<line class="st1" x1="35.2" y1="10.4" x2="35.2" y2="10.4"/>
	<line class="st1" x1="40.6" y1="10.4" x2="40.6" y2="10.4"/>
	<line class="st1" x1="38.8" y1="10.4" x2="38.8" y2="10.4"/>
	<line class="st1" x1="44.2" y1="10.4" x2="44.2" y2="10.4"/>
	<line class="st1" x1="42.4" y1="10.4" x2="42.4" y2="10.4"/>
	<line class="st1" x1="46" y1="10.4" x2="46" y2="10.4"/>
	<line class="st1" x1="1.1" y1="16.1" x2="1.1" y2="16.1"/>
	<line class="st1" x1="4.7" y1="16.1" x2="4.7" y2="16.1"/>
	<line class="st1" x1="2.9" y1="16.1" x2="2.9" y2="16.1"/>
	<line class="st1" x1="8.3" y1="16.1" x2="8.3" y2="16.1"/>
	<line class="st1" x1="6.5" y1="16.1" x2="6.5" y2="16.1"/>
	<line class="st1" x1="11.9" y1="16.1" x2="11.9" y2="16.1"/>
	<line class="st1" x1="10.1" y1="16.1" x2="10.1" y2="16.1"/>
	<line class="st1" x1="15.5" y1="16.1" x2="15.5" y2="16.1"/>
	<line class="st1" x1="13.7" y1="16.1" x2="13.7" y2="16.1"/>
	<line class="st1" x1="19.1" y1="16.1" x2="19.1" y2="16.1"/>
	<line class="st1" x1="17.3" y1="16.1" x2="17.3" y2="16.1"/>
	<line class="st1" x1="22.7" y1="16.1" x2="22.7" y2="16.1"/>
	<line class="st1" x1="20.9" y1="16.1" x2="20.9" y2="16.1"/>
	<line class="st1" x1="26.3" y1="16.1" x2="26.3" y2="16.1"/>
	<line class="st1" x1="24.5" y1="16.1" x2="24.5" y2="16.1"/>
	<line class="st1" x1="29.9" y1="16.1" x2="29.9" y2="16.1"/>
	<line class="st1" x1="28.1" y1="16.1" x2="28.1" y2="16.1"/>
	<line class="st1" x1="33.4" y1="16.1" x2="33.4" y2="16.1"/>
	<line class="st1" x1="31.7" y1="16.1" x2="31.7" y2="16.1"/>
	<line class="st1" x1="37" y1="16.1" x2="37" y2="16.1"/>
	<line class="st1" x1="35.2" y1="16.1" x2="35.2" y2="16.1"/>
	<line class="st1" x1="40.6" y1="16.1" x2="40.6" y2="16.1"/>
	<line class="st1" x1="38.8" y1="16.1" x2="38.8" y2="16.1"/>
	<line class="st1" x1="44.2" y1="16.1" x2="44.2" y2="16.1"/>
	<line class="st1" x1="42.4" y1="16.1" x2="42.4" y2="16.1"/>
	<line class="st1" x1="46" y1="16.1" x2="46" y2="16.1"/>
	<line class="st1" x1="1.1" y1="22" x2="1.1" y2="22"/>
	<line class="st1" x1="4.7" y1="22" x2="4.7" y2="22"/>
	<line class="st1" x1="2.9" y1="22" x2="2.9" y2="22"/>
	<line class="st1" x1="8.3" y1="22" x2="8.3" y2="22"/>
	<line class="st1" x1="6.5" y1="22" x2="6.5" y2="22"/>
	<line class="st1" x1="11.9" y1="22" x2="11.9" y2="22"/>
	<line class="st1" x1="10.1" y1="22" x2="10.1" y2="22"/>
	<line class="st1" x1="15.5" y1="22" x2="15.5" y2="22"/>
	<line class="st1" x1="13.7" y1="22" x2="13.7" y2="22"/>
	<line class="st1" x1="19.1" y1="22" x2="19.1" y2="22"/>
	<line class="st1" x1="17.3" y1="22" x2="17.3" y2="22"/>
	<line class="st1" x1="22.7" y1="22" x2="22.7" y2="22"/>
	<line class="st1" x1="20.9" y1="22" x2="20.9" y2="22"/>
	<line class="st1" x1="26.3" y1="22" x2="26.3" y2="22"/>
	<line class="st1" x1="24.5" y1="22" x2="24.5" y2="22"/>
	<line class="st1" x1="29.9" y1="22" x2="29.9" y2="22"/>
	<line class="st1" x1="28.1" y1="22" x2="28.1" y2="22"/>
	<line class="st1" x1="33.4" y1="22" x2="33.4" y2="22"/>
	<line class="st1" x1="31.7" y1="22" x2="31.7" y2="22"/>
	<line class="st1" x1="37" y1="22" x2="37" y2="22"/>
	<line class="st1" x1="35.2" y1="22" x2="35.2" y2="22"/>
	<line class="st1" x1="40.6" y1="22" x2="40.6" y2="22"/>
	<line class="st1" x1="38.8" y1="22" x2="38.8" y2="22"/>
	<line class="st1" x1="44.2" y1="22" x2="44.2" y2="22"/>
	<line class="st1" x1="42.4" y1="22" x2="42.4" y2="22"/>
	<line class="st1" x1="46" y1="22" x2="46" y2="22"/>
	<line class="st1" x1="1.1" y1="27.8" x2="1.1" y2="27.8"/>
	<line class="st1" x1="4.7" y1="27.8" x2="4.7" y2="27.8"/>
	<line class="st1" x1="2.9" y1="27.8" x2="2.9" y2="27.8"/>
	<line class="st1" x1="8.3" y1="27.8" x2="8.3" y2="27.8"/>
	<line class="st1" x1="6.5" y1="27.8" x2="6.5" y2="27.8"/>
	<line class="st1" x1="11.9" y1="27.8" x2="11.9" y2="27.8"/>
	<line class="st1" x1="10.1" y1="27.8" x2="10.1" y2="27.8"/>
	<line class="st1" x1="15.5" y1="27.8" x2="15.5" y2="27.8"/>
	<line class="st1" x1="13.7" y1="27.8" x2="13.7" y2="27.8"/>
	<line class="st1" x1="19.1" y1="27.8" x2="19.1" y2="27.8"/>
	<line class="st1" x1="17.3" y1="27.8" x2="17.3" y2="27.8"/>
	<line class="st1" x1="22.7" y1="27.8" x2="22.7" y2="27.8"/>
	<line class="st1" x1="20.9" y1="27.8" x2="20.9" y2="27.8"/>
	<line class="st1" x1="26.3" y1="27.8" x2="26.3" y2="27.8"/>
	<line class="st1" x1="24.5" y1="27.8" x2="24.5" y2="27.8"/>
	<line class="st1" x1="29.9" y1="27.8" x2="29.9" y2="27.8"/>
	<line class="st1" x1="28.1" y1="27.8" x2="28.1" y2="27.8"/>
	<line class="st1" x1="33.4" y1="27.8" x2="33.4" y2="27.8"/>
	<line class="st1" x1="31.7" y1="27.8" x2="31.7" y2="27.8"/>
	<line class="st1" x1="37" y1="27.8" x2="37" y2="27.8"/>
	<line class="st1" x1="35.2" y1="27.8" x2="35.2" y2="27.8"/>
	<line class="st1" x1="40.6" y1="27.8" x2="40.6" y2="27.8"/>
	<line class="st1" x1="38.8" y1="27.8" x2="38.8" y2="27.8"/>
	<line class="st1" x1="44.2" y1="27.8" x2="44.2" y2="27.8"/>
	<line class="st1" x1="42.4" y1="27.8" x2="42.4" y2="27.8"/>
	<line class="st1" x1="46" y1="27.8" x2="46" y2="27.8"/>
	<line class="st1" x1="1.1" y1="33.5" x2="1.1" y2="33.5"/>
	<line class="st1" x1="4.7" y1="33.5" x2="4.7" y2="33.5"/>
	<line class="st1" x1="2.9" y1="33.5" x2="2.9" y2="33.5"/>
	<line class="st1" x1="8.3" y1="33.5" x2="8.3" y2="33.5"/>
	<line class="st1" x1="6.5" y1="33.5" x2="6.5" y2="33.5"/>
	<line class="st1" x1="11.9" y1="33.5" x2="11.9" y2="33.5"/>
	<line class="st1" x1="10.1" y1="33.5" x2="10.1" y2="33.5"/>
	<line class="st1" x1="15.5" y1="33.5" x2="15.5" y2="33.5"/>
	<line class="st1" x1="13.7" y1="33.5" x2="13.7" y2="33.5"/>
	<line class="st1" x1="19.1" y1="33.5" x2="19.1" y2="33.5"/>
	<line class="st1" x1="17.3" y1="33.5" x2="17.3" y2="33.5"/>
	<line class="st1" x1="22.7" y1="33.5" x2="22.7" y2="33.5"/>
	<line class="st1" x1="20.9" y1="33.5" x2="20.9" y2="33.5"/>
	<line class="st1" x1="26.3" y1="33.5" x2="26.3" y2="33.5"/>
	<line class="st1" x1="24.5" y1="33.5" x2="24.5" y2="33.5"/>
	<line class="st1" x1="29.9" y1="33.5" x2="29.9" y2="33.5"/>
	<line class="st1" x1="28.1" y1="33.5" x2="28.1" y2="33.5"/>
	<line class="st1" x1="33.4" y1="33.5" x2="33.4" y2="33.5"/>
	<line class="st1" x1="31.7" y1="33.5" x2="31.7" y2="33.5"/>
	<line class="st1" x1="37" y1="33.5" x2="37" y2="33.5"/>
	<line class="st1" x1="35.2" y1="33.5" x2="35.2" y2="33.5"/>
	<line class="st1" x1="40.6" y1="33.5" x2="40.6" y2="33.5"/>
	<line class="st1" x1="38.8" y1="33.5" x2="38.8" y2="33.5"/>
	<line class="st1" x1="44.2" y1="33.5" x2="44.2" y2="33.5"/>
	<line class="st1" x1="42.4" y1="33.5" x2="42.4" y2="33.5"/>
	<line class="st1" x1="46" y1="33.5" x2="46" y2="33.5"/>
	<line class="st1" x1="1.1" y1="39.4" x2="1.1" y2="39.4"/>
	<line class="st1" x1="4.7" y1="39.4" x2="4.7" y2="39.4"/>
	<line class="st1" x1="2.9" y1="39.4" x2="2.9" y2="39.4"/>
	<line class="st1" x1="8.3" y1="39.4" x2="8.3" y2="39.4"/>
	<line class="st1" x1="6.5" y1="39.4" x2="6.5" y2="39.4"/>
	<line class="st1" x1="11.9" y1="39.4" x2="11.9" y2="39.4"/>
	<line class="st1" x1="10.1" y1="39.4" x2="10.1" y2="39.4"/>
	<line class="st1" x1="15.5" y1="39.4" x2="15.5" y2="39.4"/>
	<line class="st1" x1="13.7" y1="39.4" x2="13.7" y2="39.4"/>
	<line class="st1" x1="19.1" y1="39.4" x2="19.1" y2="39.4"/>
	<line class="st1" x1="17.3" y1="39.4" x2="17.3" y2="39.4"/>
	<line class="st1" x1="22.7" y1="39.4" x2="22.7" y2="39.4"/>
	<line class="st1" x1="20.9" y1="39.4" x2="20.9" y2="39.4"/>
	<line class="st1" x1="26.3" y1="39.4" x2="26.3" y2="39.4"/>
	<line class="st1" x1="24.5" y1="39.4" x2="24.5" y2="39.4"/>
	<line class="st1" x1="29.9" y1="39.4" x2="29.9" y2="39.4"/>
	<line class="st1" x1="28.1" y1="39.4" x2="28.1" y2="39.4"/>
	<line class="st1" x1="33.4" y1="39.4" x2="33.4" y2="39.4"/>
	<line class="st1" x1="31.7" y1="39.4" x2="31.7" y2="39.4"/>
	<line class="st1" x1="37" y1="39.4" x2="37" y2="39.4"/>
	<line class="st1" x1="35.2" y1="39.4" x2="35.2" y2="39.4"/>
	<line class="st1" x1="40.6" y1="39.4" x2="40.6" y2="39.4"/>
	<line class="st1" x1="38.8" y1="39.4" x2="38.8" y2="39.4"/>
	<line class="st1" x1="44.2" y1="39.4" x2="44.2" y2="39.4"/>
	<line class="st1" x1="42.4" y1="39.4" x2="42.4" y2="39.4"/>
	<line class="st1" x1="46" y1="39.4" x2="46" y2="39.4"/>
	<line class="st1" x1="1.1" y1="45.2" x2="1.1" y2="45.2"/>
	<line class="st1" x1="4.7" y1="45.2" x2="4.7" y2="45.2"/>
	<line class="st1" x1="2.9" y1="45.2" x2="2.9" y2="45.2"/>
	<line class="st1" x1="8.3" y1="45.2" x2="8.3" y2="45.2"/>
	<line class="st1" x1="6.5" y1="45.2" x2="6.5" y2="45.2"/>
	<line class="st1" x1="11.9" y1="45.2" x2="11.9" y2="45.2"/>
	<line class="st1" x1="10.1" y1="45.2" x2="10.1" y2="45.2"/>
	<line class="st1" x1="15.5" y1="45.2" x2="15.5" y2="45.2"/>
	<line class="st1" x1="13.7" y1="45.2" x2="13.7" y2="45.2"/>
	<line class="st1" x1="19.1" y1="45.2" x2="19.1" y2="45.2"/>
	<line class="st1" x1="17.3" y1="45.2" x2="17.3" y2="45.2"/>
	<line class="st1" x1="22.7" y1="45.2" x2="22.7" y2="45.2"/>
	<line class="st1" x1="20.9" y1="45.2" x2="20.9" y2="45.2"/>
	<line class="st1" x1="26.3" y1="45.2" x2="26.3" y2="45.2"/>
	<line class="st1" x1="24.5" y1="45.2" x2="24.5" y2="45.2"/>
	<line class="st1" x1="29.9" y1="45.2" x2="29.9" y2="45.2"/>
	<line class="st1" x1="28.1" y1="45.2" x2="28.1" y2="45.2"/>
	<line class="st1" x1="33.4" y1="45.2" x2="33.4" y2="45.2"/>
	<line class="st1" x1="31.7" y1="45.2" x2="31.7" y2="45.2"/>
	<line class="st1" x1="37" y1="45.2" x2="37" y2="45.2"/>
	<line class="st1" x1="35.2" y1="45.2" x2="35.2" y2="45.2"/>
	<line class="st1" x1="40.6" y1="45.2" x2="40.6" y2="45.2"/>
	<line class="st1" x1="38.8" y1="45.2" x2="38.8" y2="45.2"/>
	<line class="st1" x1="44.2" y1="45.2" x2="44.2" y2="45.2"/>
	<line class="st1" x1="42.4" y1="45.2" x2="42.4" y2="45.2"/>
	<line class="st1" x1="46" y1="45.2" x2="46" y2="45.2"/>
</g>
</svg>
