<?xml version="1.0" encoding="utf-8"?>
<!-- Generator: Adobe Illustrator 23.0.1, SVG Export Plug-In . SVG Version: 6.00 Build 0)  -->
<svg version="1.1" id="Layer_1" xmlns="http://www.w3.org/2000/svg" xmlns:xlink="http://www.w3.org/1999/xlink" x="0px" y="0px"
	 viewBox="0 0 44.7 44.7" style="enable-background:new 0 0 44.7 44.7;" xml:space="preserve">
<style type="text/css">
	.st0{fill:none;stroke:#000000;stroke-width:0.3;}
	.st1{fill:none;stroke:#000000;stroke-width:0.7;stroke-linecap:round;}
</style>
<g>
	<line class="st0" x1="0.7" y1="11.8" x2="8.2" y2="11.8"/>
	<line class="st0" x1="24.1" y1="11.8" x2="31.6" y2="11.8"/>
	<line class="st0" x1="11.5" y1="41.7" x2="4" y2="41.7"/>
	<line class="st0" x1="35" y1="41.7" x2="27.5" y2="41.7"/>
	<line class="st0" x1="16.9" y1="26.9" x2="9.4" y2="26.9"/>
	<line class="st0" x1="40.4" y1="26.9" x2="32.9" y2="26.9"/>
	<line class="st0" x1="0" y1="1.4" x2="3.8" y2="1.4"/>
	<line class="st0" x1="6.4" y1="1.4" x2="12.7" y2="1.4"/>
	<line class="st0" x1="15.3" y1="1.4" x2="21.6" y2="1.4"/>
	<line class="st0" x1="24.2" y1="1.4" x2="30.6" y2="1.4"/>
	<line class="st0" x1="33.1" y1="1.4" x2="39.5" y2="1.4"/>
	<line class="st0" x1="8.1" y1="4.5" x2="1.7" y2="4.5"/>
	<line class="st0" x1="17" y1="4.5" x2="10.7" y2="4.5"/>
	<line class="st0" x1="25.9" y1="4.5" x2="19.6" y2="4.5"/>
	<line class="st0" x1="34.9" y1="4.5" x2="28.5" y2="4.5"/>
	<line class="st0" x1="43.8" y1="4.5" x2="37.4" y2="4.5"/>
	<line class="st0" x1="2" y1="7.5" x2="0" y2="7.5"/>
	<line class="st0" x1="4.6" y1="7.5" x2="11" y2="7.5"/>
	<line class="st0" x1="13.5" y1="7.5" x2="19.9" y2="7.5"/>
	<line class="st0" x1="22.4" y1="7.5" x2="28.8" y2="7.5"/>
	<line class="st0" x1="31.4" y1="7.5" x2="37.7" y2="7.5"/>
	<line class="st0" x1="5.2" y1="16.2" x2="0" y2="16.2"/>
	<line class="st0" x1="7.8" y1="16.2" x2="14.2" y2="16.2"/>
	<line class="st0" x1="23.1" y1="16.2" x2="16.7" y2="16.2"/>
	<line class="st0" x1="32" y1="16.2" x2="25.6" y2="16.2"/>
	<line class="st0" x1="34.5" y1="16.2" x2="40.9" y2="16.2"/>
	<line class="st0" x1="0" y1="19.4" x2="2.2" y2="19.4"/>
	<line class="st0" x1="11.1" y1="19.4" x2="4.8" y2="19.4"/>
	<line class="st0" x1="20" y1="19.4" x2="13.7" y2="19.4"/>
	<line class="st0" x1="22.6" y1="19.4" x2="29" y2="19.4"/>
	<line class="st0" x1="31.5" y1="19.4" x2="37.9" y2="19.4"/>
	<line class="st0" x1="6.7" y1="22.3" x2="0.3" y2="22.3"/>
	<line class="st0" x1="15.6" y1="22.3" x2="9.2" y2="22.3"/>
	<line class="st0" x1="18.1" y1="22.3" x2="24.5" y2="22.3"/>
	<line class="st0" x1="33.4" y1="22.3" x2="27.1" y2="22.3"/>
	<line class="st0" x1="42.3" y1="22.3" x2="36" y2="22.3"/>
	<line class="st0" x1="3" y1="31.2" x2="0" y2="31.2"/>
	<line class="st0" x1="5.6" y1="31.2" x2="11.9" y2="31.2"/>
	<line class="st0" x1="14.5" y1="31.2" x2="20.8" y2="31.2"/>
	<line class="st0" x1="23.4" y1="31.2" x2="29.8" y2="31.2"/>
	<line class="st0" x1="32.3" y1="31.2" x2="38.7" y2="31.2"/>
	<line class="st0" x1="6.8" y1="34.4" x2="0.5" y2="34.4"/>
	<line class="st0" x1="9.4" y1="34.4" x2="15.8" y2="34.4"/>
	<line class="st0" x1="18.3" y1="34.4" x2="24.7" y2="34.4"/>
	<line class="st0" x1="27.2" y1="34.4" x2="33.6" y2="34.4"/>
	<line class="st0" x1="36.1" y1="34.4" x2="42.5" y2="34.4"/>
	<line class="st0" x1="0" y1="37.3" x2="2.2" y2="37.3"/>
	<line class="st0" x1="11.1" y1="37.3" x2="4.8" y2="37.3"/>
	<line class="st0" x1="20" y1="37.3" x2="13.7" y2="37.3"/>
	<line class="st0" x1="29" y1="37.3" x2="22.6" y2="37.3"/>
	<line class="st0" x1="37.9" y1="37.3" x2="31.5" y2="37.3"/>
	<line class="st0" x1="19.5" y1="25.1" x2="7" y2="25.1"/>
	<line class="st0" x1="31.4" y1="25.1" x2="44.7" y2="25.1"/>
	<line class="st0" x1="7" y1="25.1" x2="0" y2="25.1"/>
	<line class="st0" x1="31.4" y1="25.1" x2="19.5" y2="25.1"/>
	<line class="st0" x1="41.7" y1="28.4" x2="44.7" y2="28.4"/>
	<line class="st0" x1="0" y1="28.4" x2="41.7" y2="28.4"/>
	<line class="st0" x1="31.4" y1="25.1" x2="31.4" y2="28.4"/>
	<line class="st0" x1="31.4" y1="25.1" x2="31.4" y2="25.1"/>
	<line class="st0" x1="41.7" y1="28.4" x2="41.7" y2="25.2"/>
	<line class="st0" x1="41.7" y1="28.4" x2="41.7" y2="28.5"/>
	<line class="st0" x1="19.5" y1="25.1" x2="19.5" y2="28.4"/>
	<line class="st0" x1="19.5" y1="25.1" x2="19.5" y2="25.1"/>
	<line class="st0" x1="7" y1="25.1" x2="7" y2="25.1"/>
	<line class="st0" x1="7" y1="25.1" x2="7" y2="28.4"/>
	<line class="st0" x1="34" y1="13.4" x2="44.2" y2="13.4"/>
	<line class="st0" x1="9.5" y1="13.4" x2="0" y2="13.4"/>
	<line class="st0" x1="44.2" y1="13.4" x2="44.7" y2="13.4"/>
	<line class="st0" x1="9.5" y1="13.4" x2="22" y2="13.4"/>
	<line class="st0" x1="22" y1="13.4" x2="34" y2="13.4"/>
	<line class="st0" x1="9.5" y1="10.1" x2="22" y2="10.1"/>
	<line class="st0" x1="44.2" y1="10.1" x2="34" y2="10.1"/>
	<line class="st0" x1="9.5" y1="10.1" x2="0" y2="10.1"/>
	<line class="st0" x1="22" y1="10.1" x2="34" y2="10.1"/>
	<line class="st0" x1="44.2" y1="10.1" x2="44.7" y2="10.1"/>
	<line class="st0" x1="9.5" y1="13.4" x2="9.5" y2="13.5"/>
	<line class="st0" x1="9.5" y1="10.1" x2="9.5" y2="13.4"/>
	<line class="st0" x1="9.5" y1="10.1" x2="9.5" y2="10.1"/>
	<line class="st0" x1="22" y1="13.4" x2="22" y2="10.1"/>
	<line class="st0" x1="22" y1="13.5" x2="22" y2="13.4"/>
	<line class="st0" x1="22" y1="10.1" x2="22" y2="10.1"/>
	<line class="st0" x1="44.2" y1="13.4" x2="44.2" y2="13.5"/>
	<line class="st0" x1="44.2" y1="10.1" x2="44.2" y2="10.1"/>
	<line class="st0" x1="44.2" y1="13.4" x2="44.2" y2="10.1"/>
	<line class="st0" x1="34" y1="13.4" x2="34" y2="10.1"/>
	<line class="st0" x1="34" y1="13.4" x2="34" y2="13.5"/>
	<line class="st0" x1="34" y1="10.1" x2="34" y2="10.1"/>
	<line class="st0" x1="0" y1="40.1" x2="44.7" y2="40.1"/>
	<line class="st0" x1="0" y1="43.3" x2="44.7" y2="43.3"/>
	<line class="st0" x1="36.9" y1="43.3" x2="36.9" y2="40.1"/>
	<line class="st0" x1="25.3" y1="40.1" x2="25.3" y2="43.3"/>
	<line class="st0" x1="13.7" y1="40.1" x2="13.7" y2="43.3"/>
	<line class="st0" x1="1.7" y1="40.1" x2="1.7" y2="43.3"/>
	<line class="st0" x1="42.1" y1="1.4" x2="44.7" y2="1.4"/>
	<line class="st0" x1="40.3" y1="7.5" x2="44.7" y2="7.5"/>
	<line class="st0" x1="44.7" y1="16.2" x2="43.5" y2="16.2"/>
	<line class="st0" x1="40.5" y1="19.4" x2="44.7" y2="19.4"/>
	<line class="st0" x1="44.7" y1="31.2" x2="41.3" y2="31.2"/>
	<line class="st0" x1="40.5" y1="37.3" x2="44.7" y2="37.3"/>
	<line class="st1" x1="16" y1="11.9" x2="16" y2="11.9"/>
	<line class="st1" x1="18" y1="11.9" x2="18" y2="11.9"/>
	<line class="st1" x1="14" y1="11.9" x2="14" y2="11.9"/>
	<line class="st1" x1="39.7" y1="11.9" x2="39.7" y2="11.9"/>
	<line class="st1" x1="41.6" y1="11.9" x2="41.6" y2="11.9"/>
	<line class="st1" x1="37.6" y1="11.9" x2="37.6" y2="11.9"/>
	<line class="st1" x1="25.5" y1="26.9" x2="25.5" y2="26.9"/>
	<line class="st1" x1="27.5" y1="26.9" x2="27.5" y2="26.9"/>
	<line class="st1" x1="23.5" y1="26.9" x2="23.5" y2="26.9"/>
	<line class="st1" x1="19.7" y1="41.7" x2="19.7" y2="41.7"/>
	<line class="st1" x1="21.6" y1="41.7" x2="21.6" y2="41.7"/>
	<line class="st1" x1="17.6" y1="41.7" x2="17.6" y2="41.7"/>
	<line class="st1" x1="41.9" y1="41.7" x2="41.9" y2="41.7"/>
	<line class="st1" x1="43.9" y1="41.7" x2="43.9" y2="41.7"/>
	<line class="st1" x1="39.8" y1="41.7" x2="39.8" y2="41.7"/>
	<line class="st1" x1="1.5" y1="26.9" x2="1.5" y2="26.9"/>
	<line class="st1" x1="3.5" y1="26.9" x2="3.5" y2="26.9"/>
	<line class="st1" x1="44.3" y1="26.9" x2="44.3" y2="26.9"/>
</g>
</svg>
