<?xml version="1.0" encoding="utf-8"?>
<!-- Generator: Adobe Illustrator 23.0.1, SVG Export Plug-In . SVG Version: 6.00 Build 0)  -->
<svg version="1.1" id="Layer_1" xmlns="http://www.w3.org/2000/svg" xmlns:xlink="http://www.w3.org/1999/xlink" x="0px" y="0px"
	 viewBox="0 0 48.7 48.7" style="enable-background:new 0 0 48.7 48.7;" xml:space="preserve">
<style type="text/css">
	.st0{fill:none;stroke:#000000;stroke-width:0.3;}
	.st1{fill:none;}
</style>
<g>
	<line class="st0" x1="0.4" y1="10.3" x2="0" y2="10.3"/>
	<line class="st0" x1="2.7" y1="10.3" x2="3.8" y2="10.3"/>
	<line class="st0" x1="3.8" y1="10.3" x2="8.4" y2="10.3"/>
	<line class="st0" x1="10.7" y1="10.3" x2="16.5" y2="10.3"/>
	<line class="st0" x1="19.8" y1="10.3" x2="24.5" y2="10.3"/>
	<line class="st0" x1="18.7" y1="10.3" x2="19.8" y2="10.3"/>
	<line class="st0" x1="26.8" y1="10.3" x2="32.5" y2="10.3"/>
	<line class="st0" x1="36.6" y1="10.3" x2="41.2" y2="10.3"/>
	<line class="st0" x1="35.4" y1="10.3" x2="36.6" y2="10.3"/>
	<line class="st0" x1="43.3" y1="10.3" x2="48.7" y2="10.3"/>
	<line class="st0" x1="3.5" y1="14.1" x2="0" y2="14.1"/>
	<line class="st0" x1="5.8" y1="14.1" x2="11.5" y2="14.1"/>
	<line class="st0" x1="13.8" y1="14.1" x2="19.6" y2="14.1"/>
	<line class="st0" x1="27.6" y1="14.1" x2="21.9" y2="14.1"/>
	<line class="st0" x1="29.9" y1="14.1" x2="35.6" y2="14.1"/>
	<line class="st0" x1="43.6" y1="14.1" x2="37.9" y2="14.1"/>
	<line class="st0" x1="45.9" y1="14.1" x2="48.7" y2="14.1"/>
	<line class="st0" x1="0" y1="17.4" x2="0.8" y2="17.4"/>
	<line class="st0" x1="4.3" y1="17.4" x2="8.8" y2="17.4"/>
	<line class="st0" x1="4.3" y1="17.4" x2="3.1" y2="17.4"/>
	<line class="st0" x1="16.8" y1="17.4" x2="11.1" y2="17.4"/>
	<line class="st0" x1="20.5" y1="17.4" x2="19.1" y2="17.4"/>
	<line class="st0" x1="24.9" y1="17.4" x2="20.5" y2="17.4"/>
	<line class="st0" x1="27.2" y1="17.4" x2="32.9" y2="17.4"/>
	<line class="st0" x1="36.6" y1="17.4" x2="35.2" y2="17.4"/>
	<line class="st0" x1="36.6" y1="17.4" x2="40.9" y2="17.4"/>
	<line class="st0" x1="43.2" y1="17.4" x2="48.7" y2="17.4"/>
	<line class="st0" x1="11.3" y1="3.4" x2="16.8" y2="3.4"/>
	<line class="st0" x1="24.7" y1="3.4" x2="16.8" y2="3.4"/>
	<line class="st0" x1="24.7" y1="3.4" x2="29" y2="3.4"/>
	<line class="st0" x1="41.9" y1="3.4" x2="48.5" y2="3.4"/>
	<line class="st0" x1="37" y1="3.4" x2="29" y2="3.4"/>
	<line class="st0" x1="48.5" y1="3.4" x2="48.7" y2="3.4"/>
	<line class="st0" x1="41.9" y1="3.4" x2="37" y2="3.4"/>
	<line class="st0" x1="11.3" y1="3.4" x2="5.3" y2="3.4"/>
	<line class="st0" x1="0" y1="3.4" x2="5.3" y2="3.4"/>
	<line class="st0" x1="0" y1="7.1" x2="48.7" y2="7.1"/>
	<line class="st0" x1="6" y1="20.6" x2="18.1" y2="20.6"/>
	<line class="st0" x1="43.8" y1="20.6" x2="30.4" y2="20.6"/>
	<line class="st0" x1="30.4" y1="20.6" x2="18.1" y2="20.6"/>
	<line class="st0" x1="6" y1="20.6" x2="0" y2="20.6"/>
	<line class="st0" x1="43.8" y1="20.6" x2="48.7" y2="20.6"/>
	<line class="st0" x1="0" y1="24.2" x2="48.7" y2="24.2"/>
	<line class="st0" x1="0" y1="27.6" x2="48.7" y2="27.6"/>
	<line class="st0" x1="0" y1="31.4" x2="48.7" y2="31.4"/>
	<line class="st0" x1="46.6" y1="48" x2="41.9" y2="48"/>
	<line class="st0" x1="0" y1="48" x2="5.3" y2="48"/>
	<line class="st0" x1="5.3" y1="48" x2="9.3" y2="48"/>
	<line class="st0" x1="46.6" y1="48" x2="48.7" y2="48"/>
	<line class="st0" x1="16.8" y1="48" x2="9.3" y2="48"/>
	<line class="st0" x1="41.9" y1="48" x2="34.5" y2="48"/>
	<line class="st0" x1="29" y1="48" x2="34.5" y2="48"/>
	<line class="st0" x1="22.3" y1="48" x2="29" y2="48"/>
	<line class="st0" x1="22.3" y1="48" x2="16.8" y2="48"/>
	<line class="st0" x1="5.3" y1="0" x2="5.3" y2="3.4"/>
	<line class="st0" x1="16.8" y1="0" x2="16.8" y2="3.4"/>
	<line class="st0" x1="29" y1="0" x2="29" y2="3.4"/>
	<line class="st0" x1="41.9" y1="3.4" x2="41.9" y2="0"/>
	<line class="st0" x1="5.3" y1="47.9" x2="5.3" y2="48"/>
	<line class="st0" x1="5.3" y1="48.7" x2="5.3" y2="48"/>
	<line class="st0" x1="16.8" y1="47.9" x2="16.8" y2="48"/>
	<line class="st0" x1="16.8" y1="48.7" x2="16.8" y2="48"/>
	<line class="st0" x1="29" y1="48.7" x2="29" y2="48"/>
	<line class="st0" x1="29" y1="47.9" x2="29" y2="48"/>
	<line class="st0" x1="41.9" y1="48.7" x2="41.9" y2="48"/>
	<line class="st0" x1="41.9" y1="47.9" x2="41.9" y2="48"/>
	<line class="st0" x1="11.3" y1="3.4" x2="11.3" y2="7.1"/>
	<line class="st0" x1="11.3" y1="3.4" x2="11.3" y2="3.3"/>
	<line class="st0" x1="24.7" y1="3.4" x2="24.7" y2="7.1"/>
	<line class="st0" x1="24.7" y1="3.4" x2="24.7" y2="3.3"/>
	<line class="st0" x1="37" y1="3.4" x2="37" y2="7.1"/>
	<line class="st0" x1="37" y1="3.3" x2="37" y2="3.4"/>
	<line class="st0" x1="48.5" y1="7.1" x2="48.5" y2="3.4"/>
	<line class="st0" x1="6" y1="20.6" x2="6" y2="24.2"/>
	<line class="st0" x1="6" y1="20.5" x2="6" y2="20.6"/>
	<line class="st0" x1="18.1" y1="20.5" x2="18.1" y2="20.6"/>
	<line class="st0" x1="18.1" y1="24.2" x2="18.1" y2="20.6"/>
	<line class="st0" x1="30.4" y1="20.5" x2="30.4" y2="20.6"/>
	<line class="st0" x1="30.4" y1="20.6" x2="30.4" y2="24.2"/>
	<line class="st0" x1="43.8" y1="20.6" x2="43.8" y2="24.2"/>
	<line class="st0" x1="43.8" y1="20.6" x2="43.8" y2="20.5"/>
	<line class="st0" x1="36" y1="24.2" x2="36" y2="27.6"/>
	<line class="st0" x1="24" y1="24.2" x2="24" y2="27.6"/>
	<line class="st0" x1="10.5" y1="24.2" x2="10.5" y2="27.6"/>
	<line class="st0" x1="47.9" y1="24.2" x2="47.9" y2="27.6"/>
	<line class="st0" x1="5" y1="27.7" x2="5" y2="31.4"/>
	<line class="st0" x1="16.7" y1="27.7" x2="16.7" y2="31.4"/>
	<line class="st0" x1="28.9" y1="27.7" x2="28.9" y2="31.4"/>
	<line class="st0" x1="41.8" y1="31.4" x2="41.8" y2="27.7"/>
	<line class="st0" x1="46.6" y1="44.9" x2="34.5" y2="44.9"/>
	<line class="st0" x1="22.3" y1="44.9" x2="9.3" y2="44.9"/>
	<line class="st0" x1="0" y1="44.9" x2="9.3" y2="44.9"/>
	<line class="st0" x1="46.6" y1="44.9" x2="48.7" y2="44.9"/>
	<line class="st0" x1="22.3" y1="44.9" x2="34.5" y2="44.9"/>
	<line class="st0" x1="9.3" y1="48" x2="9.3" y2="48"/>
	<line class="st0" x1="9.3" y1="44.9" x2="9.3" y2="48"/>
	<line class="st0" x1="9.3" y1="44.9" x2="9.3" y2="44.9"/>
	<line class="st0" x1="22.3" y1="44.9" x2="22.3" y2="48"/>
	<line class="st0" x1="22.3" y1="44.9" x2="22.3" y2="44.9"/>
	<line class="st0" x1="22.3" y1="48" x2="22.3" y2="48"/>
	<line class="st0" x1="34.5" y1="48" x2="34.5" y2="48"/>
	<line class="st0" x1="34.5" y1="44.9" x2="34.5" y2="48"/>
	<line class="st0" x1="34.5" y1="44.9" x2="34.5" y2="44.9"/>
	<line class="st0" x1="46.6" y1="44.9" x2="46.6" y2="44.9"/>
	<line class="st0" x1="46.6" y1="44.9" x2="46.6" y2="48"/>
	<line class="st0" x1="46.6" y1="48" x2="46.6" y2="48"/>
	<line class="st0" x1="3.8" y1="10.4" x2="3.8" y2="10.3"/>
	<line class="st0" x1="3.8" y1="10.3" x2="3.8" y2="8.7"/>
	<line class="st0" x1="19.8" y1="10.4" x2="19.8" y2="10.3"/>
	<line class="st0" x1="19.8" y1="10.3" x2="19.8" y2="8.7"/>
	<line class="st0" x1="36.6" y1="10.4" x2="36.6" y2="10.3"/>
	<line class="st0" x1="36.6" y1="10.3" x2="36.6" y2="8.7"/>
	<line class="st0" x1="4.3" y1="17.4" x2="4.3" y2="17.4"/>
	<line class="st0" x1="4.3" y1="17.4" x2="4.3" y2="15.7"/>
	<line class="st0" x1="20.5" y1="15.7" x2="20.5" y2="17.4"/>
	<line class="st0" x1="20.5" y1="17.4" x2="20.5" y2="17.4"/>
	<line class="st0" x1="36.6" y1="17.4" x2="36.6" y2="17.4"/>
	<line class="st0" x1="36.6" y1="17.4" x2="36.6" y2="15.7"/>
	<line class="st0" x1="15.2" y1="12.5" x2="15.2" y2="14.1"/>
	<line class="st0" x1="31.1" y1="12.5" x2="31.1" y2="14.1"/>
	<line class="st0" x1="47.1" y1="14.1" x2="47.1" y2="12.5"/>
	<line class="st0" x1="1.2" y1="35.2" x2="0" y2="35.2"/>
	<line class="st0" x1="3.5" y1="35.2" x2="4.7" y2="35.2"/>
	<line class="st0" x1="9.3" y1="35.2" x2="4.7" y2="35.2"/>
	<line class="st0" x1="17.3" y1="35.2" x2="11.6" y2="35.2"/>
	<line class="st0" x1="20.6" y1="35.2" x2="19.6" y2="35.2"/>
	<line class="st0" x1="25.3" y1="35.2" x2="20.6" y2="35.2"/>
	<line class="st0" x1="27.6" y1="35.2" x2="33.4" y2="35.2"/>
	<line class="st0" x1="37.5" y1="35.2" x2="36.3" y2="35.2"/>
	<line class="st0" x1="37.5" y1="35.2" x2="42" y2="35.2"/>
	<line class="st0" x1="44.2" y1="35.2" x2="48.7" y2="35.2"/>
	<line class="st0" x1="4.4" y1="39" x2="0" y2="39"/>
	<line class="st0" x1="6.7" y1="39" x2="12.4" y2="39"/>
	<line class="st0" x1="14.7" y1="39" x2="20.4" y2="39"/>
	<line class="st0" x1="22.7" y1="39" x2="28.4" y2="39"/>
	<line class="st0" x1="30.7" y1="39" x2="36.5" y2="39"/>
	<line class="st0" x1="38.8" y1="39" x2="44.5" y2="39"/>
	<line class="st0" x1="46.8" y1="39" x2="48.7" y2="39"/>
	<line class="st0" x1="0" y1="42.2" x2="1.6" y2="42.2"/>
	<line class="st0" x1="5.1" y1="42.2" x2="3.9" y2="42.2"/>
	<line class="st0" x1="5.1" y1="42.2" x2="9.7" y2="42.2"/>
	<line class="st0" x1="17.7" y1="42.2" x2="12" y2="42.2"/>
	<line class="st0" x1="21.3" y1="42.2" x2="20" y2="42.2"/>
	<line class="st0" x1="25.7" y1="42.2" x2="21.3" y2="42.2"/>
	<line class="st0" x1="33.7" y1="42.2" x2="28" y2="42.2"/>
	<line class="st0" x1="37.4" y1="42.2" x2="36" y2="42.2"/>
	<line class="st0" x1="41.8" y1="42.2" x2="37.4" y2="42.2"/>
	<line class="st0" x1="44.1" y1="42.2" x2="48.7" y2="42.2"/>
	<line class="st0" x1="4.7" y1="35.3" x2="4.7" y2="35.2"/>
	<line class="st0" x1="4.7" y1="33.6" x2="4.7" y2="35.2"/>
	<line class="st0" x1="20.6" y1="35.2" x2="20.6" y2="35.3"/>
	<line class="st0" x1="20.6" y1="33.6" x2="20.6" y2="35.2"/>
	<line class="st0" x1="37.5" y1="35.2" x2="37.5" y2="33.6"/>
	<line class="st0" x1="37.5" y1="35.2" x2="37.5" y2="35.3"/>
	<line class="st0" x1="5.1" y1="42.2" x2="5.1" y2="40.6"/>
	<line class="st0" x1="5.1" y1="42.2" x2="5.1" y2="42.2"/>
	<line class="st0" x1="21.3" y1="42.2" x2="21.3" y2="42.2"/>
	<line class="st0" x1="21.3" y1="42.2" x2="21.3" y2="40.6"/>
	<line class="st0" x1="37.4" y1="42.2" x2="37.4" y2="40.6"/>
	<line class="st0" x1="37.4" y1="42.2" x2="37.4" y2="42.2"/>
	<line class="st0" x1="16" y1="37.4" x2="16" y2="39"/>
	<line class="st0" x1="32" y1="37.4" x2="32" y2="39"/>
	<line class="st0" x1="47.9" y1="39" x2="47.9" y2="37.4"/>
	<rect x="0" y="0" class="st1" width="48.7" height="48.7"/>
</g>
</svg>
