<?xml version="1.0" encoding="utf-8"?>
<!-- Generator: Adobe Illustrator 23.0.1, SVG Export Plug-In . SVG Version: 6.00 Build 0)  -->
<svg version="1.1" id="Layer_1" xmlns="http://www.w3.org/2000/svg" xmlns:xlink="http://www.w3.org/1999/xlink" x="0px" y="0px"
	 viewBox="0 0 54.1 54.1" style="enable-background:new 0 0 54.1 54.1;" xml:space="preserve">
<style type="text/css">
	.st0{fill:none;stroke:#000000;stroke-width:0.43;}
	.st1{stroke:#000000;stroke-width:0;}
	.st2{fill:none;}
	.st3{fill:none;stroke:#231F20;stroke-width:0.7;stroke-linecap:round;}
	.st4{fill:none;stroke:#231F20;stroke-width:0.3;}
</style>
<g>
	<path class="st0" d="M40.5,52c0,0.6,0.5,1,1,1c0.6,0,1-0.5,1-1c0-0.6-0.5-1-1-1C41,51,40.5,51.5,40.5,52z"/>
	<path class="st0" d="M7,40.4c0,0.6,0.5,1,1,1c0.6,0,1-0.5,1-1c0-0.6-0.5-1-1-1C7.5,39.4,7,39.8,7,40.4z"/>
	<path class="st0" d="M13.9,51.3c0,0.6,0.5,1,1,1c0.6,0,1-0.5,1-1c0-0.6-0.5-1-1-1C14.4,50.3,13.9,50.8,13.9,51.3z"/>
	<path class="st0" d="M22.4,41.4c0-0.6-0.5-1-1-1c-0.6,0-1,0.5-1,1c0,0.6,0.5,1,1,1C22,42.5,22.4,42,22.4,41.4z"/>
	<path class="st0" d="M36.1,46.3c0-0.6-0.5-1-1-1c-0.6,0-1,0.5-1,1c0,0.6,0.5,1,1,1C35.7,47.3,36.1,46.8,36.1,46.3z"/>
	<path class="st0" d="M39.8,40.7c0,0.6,0.5,1,1,1c0.6,0,1-0.5,1-1c0-0.6-0.5-1-1-1C40.3,39.7,39.8,40.2,39.8,40.7z"/>
	<path class="st0" d="M51.9,35.3c0,0.6,0.5,1,1,1c0.6,0,1-0.5,1-1c0-0.6-0.5-1-1-1C52.3,34.3,51.9,34.8,51.9,35.3z"/>
	<path class="st0" d="M28.4,38.8c0,0.6,0.5,1,1,1c0.6,0,1-0.5,1-1c0-0.6-0.5-1-1-1C28.8,37.8,28.4,38.2,28.4,38.8z"/>
	<path class="st0" d="M31.6,39.7c0,0,2.9-2.5,2.6-3.5"/>
	<line class="st0" x1="40.7" y1="37.9" x2="39.6" y2="34.6"/>
	<path class="st0" d="M44.8,4.4c0.6-0.3-1.4,1.9-1.3,3.2"/>
	<path class="st0" d="M46.1,45.1c-0.8-0.2,2.7-1.3,3.3-2.1"/>
	<path class="st0" d="M9.2,47.4c-0.8-0.2,2.7-1.3,3.3-2.1"/>
	<path class="st0" d="M21.4,47.4c-3.1,0-3-0.6-4.6-1.1"/>
	<line class="st0" x1="0.7" y1="16.7" x2="5.5" y2="17"/>
	<path class="st0" d="M33.2,14.2c-1,0-3.5-1.3-3.7-2.1"/>
	<path class="st0" d="M5.2,53.1c-1,0-3.5-1.3-3.7-2.1"/>
	<path class="st0" d="M17.6,40.1c0.2-0.7-3,1.2-2.8,1.9"/>
	<path class="st0" d="M9.9,16.6c0,0.6,0.5,1,1,1c0.6,0,1-0.5,1-1c0-0.6-0.5-1-1-1C10.4,15.5,9.9,16,9.9,16.6z"/>
	<path class="st0" d="M15.1,23.9c0-0.6-0.5-1-1-1c-0.6,0-1,0.5-1,1c0,0.6,0.5,1,1,1C14.6,24.9,15.1,24.5,15.1,23.9z"/>
	<path class="st0" d="M32.9,22.6c-0.6,0-1,0.5-1,1c0,0.6,0.5,1,1,1c0.6,0,1-0.5,1-1C34,23,33.5,22.6,32.9,22.6z"/>
	<path class="st0" d="M53.4,16.6c0-0.6-0.5-1-1-1c-0.6,0-1,0.5-1,1c0,0.6,0.5,1,1,1C52.9,17.6,53.4,17.1,53.4,16.6z"/>
	<path class="st0" d="M34.8,20.6c0,0,3.5-1.4,3.7-2.4"/>
	<path class="st0" d="M48.8,35.4c-0.2-1.3,1.9-3.5,1.3-3.2"/>
	<path class="st0" d="M44.1,27.1c-0.8-0.2,2.7-1.3,3.3-2.1"/>
	<path class="st0" d="M22.9,28.3c0,0-4,2.5-4.9,2.5"/>
	<path class="st0" d="M13.5,38.3c-1.7,0-3-1.3-3.4-1.9"/>
	<path class="st0" d="M5.9,24.4c0,0,2.9-1.5,3-2.5"/>
	<path class="st0" d="M21.7,18.5c-0.2-0.3,4.5-1.3,4.5-1.8"/>
	<path class="st0" d="M31,31.8c0.2,0.8,3-1.4,4-1.4"/>
	<line class="st0" x1="2.2" y1="5.8" x2="4.1" y2="3"/>
	<path class="st0" d="M45.9,11.7c-0.6,0-1,0.5-1,1c0,0.6,0.5,1,1,1c0.6,0,1-0.5,1-1C46.9,12.1,46.5,11.7,45.9,11.7z"/>
	<path class="st0" d="M14.3,10.5c0-0.6-0.5-1-1-1c-0.6,0-1,0.5-1,1c0,0.6,0.5,1,1,1C13.9,11.5,14.3,11.1,14.3,10.5z"/>
	<path class="st0" d="M28.5,8.4c0-0.6-0.5-1-1-1c-0.6,0-1,0.5-1,1c0,0.6,0.5,1,1,1C28.1,9.4,28.5,8.9,28.5,8.4z"/>
	<path class="st0" d="M42.6,2.8c0-0.6-0.5-1-1-1c-0.6,0-1,0.5-1,1c0,0.6,0.5,1,1,1C42.1,3.8,42.6,3.4,42.6,2.8z"/>
	<path class="st0" d="M53.5,1.6c0-0.6-0.5-1-1-1c-0.6,0-1,0.5-1,1c0,0.6,0.5,1,1,1C53,2.7,53.5,2.2,53.5,1.6z"/>
	<path class="st0" d="M21.5,5.3c-0.8-0.2,2.7-1.3,3.3-2.1"/>
	<path class="st0" d="M24,11.6c-0.9,0-0.6,0.1-4.6-1.1"/>
	<path class="st0" d="M9.3,11.1c-1-0.2-2.9-0.5-3.3-1.1"/>
	<path class="st0" d="M22.1,35.6c0.5,0.6,2.9-1.3,3.8-1.1"/>
	<path class="st0" d="M35.1,3.7c0.2,0.8,2.7,2.1,3.7,2.1"/>
	<line class="st0" x1="13.5" y1="3.2" x2="15.4" y2="0.4"/>
	<path class="st1" d="M36,11.7c0-0.2-0.2-0.4-0.4-0.4c-0.2,0-0.4,0.2-0.4,0.4c0,0.2,0.2,0.4,0.4,0.4C35.8,12.1,36,11.9,36,11.7z"/>
	<path class="st1" d="M26.4,5c0-0.2-0.2-0.4-0.4-0.4S25.5,4.8,25.5,5c0,0.2,0.2,0.4,0.4,0.4S26.4,5.3,26.4,5z"/>
	<path class="st1" d="M11,2.9c0-0.2-0.2-0.4-0.4-0.4c-0.2,0-0.4,0.2-0.4,0.4s0.2,0.4,0.4,0.4C10.8,3.3,11,3.1,11,2.9z"/>
	<path class="st1" d="M14.6,6.3c0-0.2-0.2-0.4-0.4-0.4c-0.2,0-0.4,0.2-0.4,0.4c0,0.2,0.2,0.4,0.4,0.4C14.4,6.8,14.6,6.6,14.6,6.3z"
		/>
	<path class="st1" d="M18,12.3c0-0.2-0.2-0.4-0.4-0.4c-0.2,0-0.4,0.2-0.4,0.4c0,0.2,0.2,0.4,0.4,0.4C17.8,12.7,18,12.5,18,12.3z"/>
	<path class="st1" d="M40.5,12.7c0-0.2-0.2-0.4-0.4-0.4c-0.2,0-0.4,0.2-0.4,0.4c0,0.2,0.2,0.4,0.4,0.4
		C40.3,13.1,40.5,12.9,40.5,12.7z"/>
	<path class="st1" d="M41.6,7.2c0-0.2-0.2-0.4-0.4-0.4c-0.2,0-0.4,0.2-0.4,0.4c0,0.2,0.2,0.4,0.4,0.4C41.4,7.7,41.6,7.5,41.6,7.2z"
		/>
	<path class="st1" d="M33.8,9.7c0-0.2-0.2-0.4-0.4-0.4c-0.2,0-0.4,0.2-0.4,0.4c0,0.2,0.2,0.4,0.4,0.4C33.6,10.1,33.8,9.9,33.8,9.7z"
		/>
	<path class="st1" d="M49.3,6.7c0-0.2-0.2-0.4-0.4-0.4c-0.2,0-0.4,0.2-0.4,0.4c0,0.2,0.2,0.4,0.4,0.4C49.1,7.2,49.3,7,49.3,6.7z"/>
	<path class="st1" d="M53.9,9.7c0-0.2-0.2-0.4-0.4-0.4c-0.2,0-0.4,0.2-0.4,0.4c0,0.2,0.2,0.4,0.4,0.4C53.7,10.2,53.9,10,53.9,9.7z"
		/>
	<path class="st1" d="M51.8,6.2c0-0.2-0.2-0.4-0.4-0.4c-0.2,0-0.4,0.2-0.4,0.4c0,0.2,0.2,0.4,0.4,0.4C51.6,6.6,51.8,6.4,51.8,6.2z"
		/>
	<path class="st1" d="M19.4,3.1c0-0.2-0.2-0.4-0.4-0.4c-0.2,0-0.4,0.2-0.4,0.4c0,0.2,0.2,0.4,0.4,0.4C19.2,3.5,19.4,3.3,19.4,3.1z"
		/>
	<path class="st1" d="M37.7,23.6c0-0.2-0.2-0.4-0.4-0.4c-0.2,0-0.4,0.2-0.4,0.4c0,0.2,0.2,0.4,0.4,0.4C37.5,24,37.7,23.8,37.7,23.6z
		"/>
	<path class="st1" d="M29.5,26.2c0-0.2-0.2-0.4-0.4-0.4c-0.2,0-0.4,0.2-0.4,0.4c0,0.2,0.2,0.4,0.4,0.4
		C29.3,26.6,29.5,26.4,29.5,26.2z"/>
	<path class="st1" d="M23.8,19.8c0-0.2-0.2-0.4-0.4-0.4c-0.2,0-0.4,0.2-0.4,0.4c0,0.2,0.2,0.4,0.4,0.4
		C23.6,20.3,23.8,20.1,23.8,19.8z"/>
	<path class="st1" d="M16.5,17c0-0.2-0.2-0.4-0.4-0.4c-0.2,0-0.4,0.2-0.4,0.4c0,0.2,0.2,0.4,0.4,0.4C16.3,17.4,16.5,17.2,16.5,17z"
		/>
	<path class="st1" d="M16.9,26c0-0.2-0.2-0.4-0.4-0.4c-0.2,0-0.4,0.2-0.4,0.4c0,0.2,0.2,0.4,0.4,0.4C16.7,26.5,16.9,26.3,16.9,26z"
		/>
	<path class="st1" d="M3.1,35.7c0,0.2,0.2,0.4,0.4,0.4c0.2,0,0.4-0.2,0.4-0.4c0-0.2-0.2-0.4-0.4-0.4C3.3,35.2,3.1,35.4,3.1,35.7z"/>
	<path class="st1" d="M10.9,33.2c0-0.2-0.2-0.4-0.4-0.4c-0.2,0-0.4,0.2-0.4,0.4c0,0.2,0.2,0.4,0.4,0.4
		C10.7,33.6,10.9,33.4,10.9,33.2z"/>
	<path class="st1" d="M10.7,26.2c0-0.2-0.2-0.4-0.4-0.4c-0.2,0-0.4,0.2-0.4,0.4c0,0.2,0.2,0.4,0.4,0.4
		C10.5,26.7,10.7,26.5,10.7,26.2z"/>
	<path class="st1" d="M4,28.2c0,0.2,0.2,0.4,0.4,0.4c0.2,0,0.4-0.2,0.4-0.4c0-0.2-0.2-0.4-0.4-0.4C4.2,27.7,4,27.9,4,28.2z"/>
	<path class="st1" d="M17.7,28.7c0-0.2-0.2-0.4-0.4-0.4c-0.2,0-0.4,0.2-0.4,0.4c0,0.2,0.2,0.4,0.4,0.4
		C17.5,29.1,17.7,28.9,17.7,28.7z"/>
	<path class="st1" d="M40.2,31.3c0-0.2-0.2-0.4-0.4-0.4c-0.2,0-0.4,0.2-0.4,0.4c0,0.2,0.2,0.4,0.4,0.4C40,31.7,40.2,31.5,40.2,31.3z
		"/>
	<path class="st1" d="M37.9,29.4c0-0.2-0.2-0.4-0.4-0.4c-0.2,0-0.4,0.2-0.4,0.4c0,0.2,0.2,0.4,0.4,0.4
		C37.7,29.8,37.9,29.6,37.9,29.4z"/>
	<path class="st1" d="M28.7,20.9c0,0.2,0.2,0.4,0.4,0.4c0.2,0,0.4-0.2,0.4-0.4c0-0.2-0.2-0.4-0.4-0.4C28.9,20.5,28.7,20.7,28.7,20.9
		z"/>
	<path class="st1" d="M36.3,15.7c0,0.2,0.2,0.4,0.4,0.4c0.2,0,0.4-0.2,0.4-0.4c0-0.2-0.2-0.4-0.4-0.4C36.5,15.2,36.3,15.4,36.3,15.7
		z"/>
	<path class="st1" d="M47.2,27.5c0,0.2,0.2,0.4,0.4,0.4c0.2,0,0.4-0.2,0.4-0.4c0-0.2-0.2-0.4-0.4-0.4C47.4,27.1,47.2,27.3,47.2,27.5
		z"/>
	<path class="st1" d="M42,25.5c0-0.2-0.2-0.4-0.4-0.4c-0.2,0-0.4,0.2-0.4,0.4c0,0.2,0.2,0.4,0.4,0.4C41.8,25.9,42,25.7,42,25.5z"/>
	<path class="st1" d="M45.1,20.7c0,0.2,0.2,0.4,0.4,0.4c0.2,0,0.4-0.2,0.4-0.4c0-0.2-0.2-0.4-0.4-0.4C45.3,20.2,45.1,20.4,45.1,20.7
		z"/>
	<path class="st1" d="M50.1,19.4c0-0.2-0.2-0.4-0.4-0.4s-0.4,0.2-0.4,0.4c0,0.2,0.2,0.4,0.4,0.4S50.1,19.6,50.1,19.4z"/>
	<path class="st1" d="M51.4,24.8c0,0.2,0.2,0.4,0.4,0.4c0.2,0,0.4-0.2,0.4-0.4c0-0.2-0.2-0.4-0.4-0.4C51.6,24.3,51.4,24.5,51.4,24.8
		z"/>
	<path class="st1" d="M18.4,20.6c0-0.2-0.2-0.4-0.4-0.4s-0.4,0.2-0.4,0.4c0,0.2,0.2,0.4,0.4,0.4S18.4,20.8,18.4,20.6z"/>
	<path class="st1" d="M8,20.4C8,20.2,7.8,20,7.5,20c-0.2,0-0.4,0.2-0.4,0.4c0,0.2,0.2,0.4,0.4,0.4C7.8,20.9,8,20.7,8,20.4z"/>
	<path class="st1" d="M3.6,23c0-0.2-0.2-0.4-0.4-0.4c-0.2,0-0.4,0.2-0.4,0.4c0,0.2,0.2,0.4,0.4,0.4C3.4,23.4,3.6,23.2,3.6,23z"/>
	<path class="st1" d="M1.5,31.3c0-0.2-0.2-0.4-0.4-0.4c-0.2,0-0.4,0.2-0.4,0.4c0,0.2,0.2,0.4,0.4,0.4C1.3,31.7,1.5,31.5,1.5,31.3z"
		/>
	<path class="st1" d="M4.1,13.8c0-0.2-0.2-0.4-0.4-0.4c-0.2,0-0.4,0.2-0.4,0.4c0,0.2,0.2,0.4,0.4,0.4C3.9,14.3,4.1,14.1,4.1,13.8z"
		/>
	<path class="st1" d="M34.2,50.4c-0.2,0-0.4,0.2-0.4,0.4c0,0.2,0.2,0.4,0.4,0.4c0.2,0,0.4-0.2,0.4-0.4
		C34.6,50.6,34.4,50.4,34.2,50.4z"/>
	<path class="st1" d="M29.2,47.1c0,0.2,0.2,0.4,0.4,0.4c0.2,0,0.4-0.2,0.4-0.4c0-0.2-0.2-0.4-0.4-0.4C29.4,46.7,29.2,46.8,29.2,47.1
		z"/>
	<path class="st1" d="M24.9,38.6c0,0.2,0.2,0.4,0.4,0.4c0.2,0,0.4-0.2,0.4-0.4c0-0.2-0.2-0.4-0.4-0.4C25.1,38.1,24.9,38.3,24.9,38.6
		z"/>
	<path class="st1" d="M19.5,50.6c-0.2,0-0.4,0.2-0.4,0.4c0,0.2,0.2,0.4,0.4,0.4c0.2,0,0.4-0.2,0.4-0.4
		C19.9,50.8,19.7,50.6,19.5,50.6z"/>
	<path class="st1" d="M11,43.5c0,0.2,0.2,0.4,0.4,0.4c0.2,0,0.4-0.2,0.4-0.4c0-0.2-0.2-0.4-0.4-0.4C11.2,43,11,43.2,11,43.5z"/>
	<path class="st1" d="M14.3,44.4c0,0.2,0.2,0.4,0.4,0.4c0.2,0,0.4-0.2,0.4-0.4c0-0.2-0.2-0.4-0.4-0.4C14.5,44,14.3,44.2,14.3,44.4z"
		/>
	<path class="st1" d="M2.1,46.4c0,0.2,0.2,0.4,0.4,0.4c0.2,0,0.4-0.2,0.4-0.4C3,46.2,2.8,46,2.6,46C2.3,46,2.1,46.2,2.1,46.4z"/>
	<path class="st1" d="M7.6,45.4c-0.2,0-0.4,0.2-0.4,0.4c0,0.2,0.2,0.4,0.4,0.4c0.2,0,0.4-0.2,0.4-0.4C8,45.6,7.8,45.4,7.6,45.4z"/>
	<path class="st1" d="M23.7,52.9c-0.2,0-0.4,0.2-0.4,0.4c0,0.2,0.2,0.4,0.4,0.4c0.2,0,0.4-0.2,0.4-0.4
		C24.1,53.1,23.9,52.9,23.7,52.9z"/>
	<path class="st1" d="M40.6,47.6c0,0.2,0.2,0.4,0.4,0.4c0.2,0,0.4-0.2,0.4-0.4c0-0.2-0.2-0.4-0.4-0.4C40.8,47.1,40.6,47.3,40.6,47.6
		z"/>
	<path class="st1" d="M38.3,44.6c0,0.2,0.2,0.4,0.4,0.4c0.2,0,0.4-0.2,0.4-0.4c0-0.2-0.2-0.4-0.4-0.4C38.5,44.2,38.3,44.4,38.3,44.6
		z"/>
	<path class="st1" d="M34.6,39.8c0,0.2,0.2,0.4,0.4,0.4c0.2,0,0.4-0.2,0.4-0.4c0-0.2-0.2-0.4-0.4-0.4C34.8,39.3,34.6,39.5,34.6,39.8
		z"/>
	<path class="st1" d="M34.6,33.8c0,0.2,0.2,0.4,0.4,0.4c0.2,0,0.4-0.2,0.4-0.4c0-0.2-0.2-0.4-0.4-0.4C34.8,33.3,34.6,33.5,34.6,33.8
		z"/>
	<path class="st1" d="M26.4,31.3c0,0.2,0.2,0.4,0.4,0.4c0.2,0,0.4-0.2,0.4-0.4c0-0.2-0.2-0.4-0.4-0.4C26.5,30.9,26.4,31.1,26.4,31.3
		z"/>
	<path class="st1" d="M21.9,31.5c0-0.2-0.2-0.4-0.4-0.4c-0.2,0-0.4,0.2-0.4,0.4c0,0.2,0.2,0.4,0.4,0.4C21.7,32,21.9,31.8,21.9,31.5z
		"/>
	<path class="st1" d="M2.2,1.2C2.2,1,2,0.8,1.8,0.8C1.5,0.8,1.3,1,1.3,1.2c0,0.2,0.2,0.4,0.4,0.4C2,1.6,2.2,1.4,2.2,1.2z"/>
	<path class="st1" d="M17.7,34.1c0-0.2-0.2-0.4-0.4-0.4c-0.2,0-0.4,0.2-0.4,0.4c0,0.2,0.2,0.4,0.4,0.4
		C17.5,34.6,17.7,34.4,17.7,34.1z"/>
	<path class="st1" d="M48.1,46.3c0,0.2,0.2,0.4,0.4,0.4c0.2,0,0.4-0.2,0.4-0.4c0-0.2-0.2-0.4-0.4-0.4C48.3,45.8,48.1,46,48.1,46.3z"
		/>
	<path class="st1" d="M50.3,47.7c0,0.2,0.2,0.4,0.4,0.4c0.2,0,0.4-0.2,0.4-0.4c0-0.2-0.2-0.4-0.4-0.4C50.5,47.3,50.3,47.5,50.3,47.7
		z"/>
	<path class="st1" d="M44.4,38.7c0,0.2,0.2,0.4,0.4,0.4c0.2,0,0.4-0.2,0.4-0.4c0-0.2-0.2-0.4-0.4-0.4C44.6,38.3,44.4,38.5,44.4,38.7
		z"/>
	<path class="st1" d="M47.5,31c0,0.2,0.2,0.4,0.4,0.4c0.2,0,0.4-0.2,0.4-0.4c0-0.2-0.2-0.4-0.4-0.4C47.7,30.6,47.5,30.8,47.5,31z"/>
	<path class="st1" d="M52.4,42.1c0,0.2,0.2,0.4,0.4,0.4c0.2,0,0.4-0.2,0.4-0.4c0-0.2-0.2-0.4-0.4-0.4C52.6,41.6,52.4,41.8,52.4,42.1
		z"/>
	<path class="st1" d="M19,38.3c0,0.2,0.2,0.4,0.4,0.4c0.2,0,0.4-0.2,0.4-0.4s-0.2-0.4-0.4-0.4C19.2,37.9,19,38.1,19,38.3z"/>
	<path class="st1" d="M4.2,39.1c0.2,0,0.4-0.2,0.4-0.4c0-0.2-0.2-0.4-0.4-0.4c-0.2,0-0.4,0.2-0.4,0.4C3.8,38.9,4,39.1,4.2,39.1z"/>
	<rect x="0" y="0" class="st2" width="54.1" height="54.1"/>
	<line class="st3" x1="1.4" y1="14.4" x2="1.4" y2="14.4"/>
	<line class="st3" x1="6.5" y1="13.5" x2="6.5" y2="13.5"/>
	<line class="st3" x1="13.6" y1="15.8" x2="13.6" y2="15.8"/>
	<line class="st3" x1="18.5" y1="15.3" x2="18.5" y2="15.3"/>
	<line class="st3" x1="18.8" y1="18" x2="18.8" y2="18"/>
	<line class="st3" x1="15" y1="19.4" x2="15" y2="19.4"/>
	<line class="st3" x1="11.8" y1="19.2" x2="11.8" y2="19.2"/>
	<line class="st3" x1="7" y1="18" x2="7" y2="18"/>
	<line class="st3" x1="5.1" y1="22.9" x2="5.1" y2="22.9"/>
	<line class="st3" x1="1.3" y1="22.5" x2="1.3" y2="22.5"/>
	<line class="st3" x1="17.6" y1="5" x2="17.6" y2="5"/>
	<line class="st3" x1="9.7" y1="13" x2="9.7" y2="13"/>
	<line class="st3" x1="3" y1="11.3" x2="3" y2="11.3"/>
	<line class="st3" x1="1.4" y1="3.9" x2="1.4" y2="3.9"/>
	<line class="st3" x1="7.9" y1="2.4" x2="7.9" y2="2.4"/>
	<line class="st3" x1="13.5" y1="4.3" x2="13.5" y2="4.3"/>
	<line class="st3" x1="25.3" y1="10.2" x2="25.3" y2="10.2"/>
	<line class="st3" x1="24.6" y1="6.6" x2="24.6" y2="6.6"/>
	<line class="st3" x1="21.9" y1="3.4" x2="21.9" y2="3.4"/>
	<line class="st3" x1="26" y1="2.3" x2="26" y2="2.3"/>
	<line class="st3" x1="34.3" y1="0.6" x2="34.3" y2="0.6"/>
	<line class="st3" x1="46.4" y1="5.9" x2="46.4" y2="5.9"/>
	<line class="st3" x1="53.5" y1="5.5" x2="53.5" y2="5.5"/>
	<line class="st3" x1="50.1" y1="3.8" x2="50.1" y2="3.8"/>
	<line class="st3" x1="47" y1="9.9" x2="47" y2="9.9"/>
	<line class="st3" x1="45" y1="2.5" x2="45" y2="2.5"/>
	<line class="st3" x1="30.1" y1="9.2" x2="30.1" y2="9.2"/>
	<line class="st3" x1="49.3" y1="23.9" x2="49.3" y2="23.9"/>
	<line class="st3" x1="40.1" y1="23.6" x2="40.1" y2="23.6"/>
	<line class="st3" x1="25.5" y1="20.6" x2="25.5" y2="20.6"/>
	<line class="st3" x1="50.4" y1="8.6" x2="50.4" y2="8.6"/>
	<line class="st3" x1="33.8" y1="4.9" x2="33.8" y2="4.9"/>
	<line class="st3" x1="39.4" y1="4.3" x2="39.4" y2="4.3"/>
	<line class="st3" x1="37.9" y1="2.4" x2="37.9" y2="2.4"/>
	<line class="st3" x1="36.9" y1="9" x2="36.9" y2="9"/>
	<line class="st3" x1="1.7" y1="28.8" x2="1.7" y2="28.8"/>
	<line class="st3" x1="7" y1="26.9" x2="7" y2="26.9"/>
	<line class="st3" x1="11.5" y1="24.3" x2="11.5" y2="24.3"/>
	<line class="st3" x1="14.5" y1="26.9" x2="14.5" y2="26.9"/>
	<line class="st3" x1="18.3" y1="24.3" x2="18.3" y2="24.3"/>
	<line class="st3" x1="21.3" y1="20.7" x2="21.3" y2="20.7"/>
	<line class="st3" x1="21.9" y1="16.3" x2="21.9" y2="16.3"/>
	<line class="st3" x1="28.1" y1="18" x2="28.1" y2="18"/>
	<line class="st3" x1="27.9" y1="13.6" x2="27.9" y2="13.6"/>
	<line class="st3" x1="33" y1="12.1" x2="33" y2="12.1"/>
	<line class="st3" x1="33" y1="17" x2="33" y2="17"/>
	<line class="st3" x1="37" y1="18.1" x2="37" y2="18.1"/>
	<line class="st3" x1="37.6" y1="13.1" x2="37.6" y2="13.1"/>
	<line class="st3" x1="43" y1="11.8" x2="43" y2="11.8"/>
	<line class="st3" x1="48.6" y1="13.3" x2="48.6" y2="13.3"/>
	<line class="st3" x1="53.6" y1="12.5" x2="53.6" y2="12.5"/>
	<line class="st3" x1="49.6" y1="17.4" x2="49.6" y2="17.4"/>
	<line class="st3" x1="46.1" y1="18.5" x2="46.1" y2="18.5"/>
	<line class="st3" x1="48.2" y1="21.5" x2="48.2" y2="21.5"/>
	<line class="st3" x1="52.9" y1="19.2" x2="52.9" y2="19.2"/>
	<line class="st3" x1="41.7" y1="20.5" x2="41.7" y2="20.5"/>
	<line class="st3" x1="50.7" y1="26.9" x2="50.7" y2="26.9"/>
	<line class="st3" x1="44.7" y1="24.8" x2="44.7" y2="24.8"/>
	<line class="st3" x1="38.7" y1="27.4" x2="38.7" y2="27.4"/>
	<line class="st3" x1="35.3" y1="25.4" x2="35.3" y2="25.4"/>
	<line class="st3" x1="30.7" y1="23.8" x2="30.7" y2="23.8"/>
	<line class="st3" x1="32.7" y1="27.5" x2="32.7" y2="27.5"/>
	<line class="st3" x1="42.3" y1="31.3" x2="42.3" y2="31.3"/>
	<line class="st3" x1="45.5" y1="30.6" x2="45.5" y2="30.6"/>
	<line class="st3" x1="46.7" y1="32.8" x2="46.7" y2="32.8"/>
	<line class="st3" x1="51.5" y1="31.3" x2="51.5" y2="31.3"/>
	<line class="st3" x1="51.1" y1="36.8" x2="51.1" y2="36.8"/>
	<line class="st3" x1="47.8" y1="40.3" x2="47.8" y2="40.3"/>
	<line class="st3" x1="44.6" y1="41.1" x2="44.6" y2="41.1"/>
	<line class="st3" x1="38.1" y1="38.8" x2="38.1" y2="38.8"/>
	<line class="st3" x1="36.2" y1="37.2" x2="36.2" y2="37.2"/>
	<line class="st3" x1="30" y1="36.2" x2="30" y2="36.2"/>
	<line class="st3" x1="35.9" y1="31.6" x2="35.9" y2="31.6"/>
	<line class="st3" x1="38.1" y1="34" x2="38.1" y2="34"/>
	<line class="st3" x1="52" y1="44.7" x2="52" y2="44.7"/>
	<line class="st3" x1="49.1" y1="37.8" x2="49.1" y2="37.8"/>
	<line class="st3" x1="43.8" y1="44.9" x2="43.8" y2="44.9"/>
	<line class="st3" x1="41.1" y1="45.2" x2="41.1" y2="45.2"/>
	<line class="st3" x1="37.2" y1="47.5" x2="37.2" y2="47.5"/>
	<line class="st3" x1="44.3" y1="52.9" x2="44.3" y2="52.9"/>
	<line class="st3" x1="52.6" y1="52.3" x2="52.6" y2="52.3"/>
	<line class="st3" x1="53" y1="47.9" x2="53" y2="47.9"/>
	<line class="st3" x1="37.8" y1="51.2" x2="37.8" y2="51.2"/>
	<line class="st3" x1="31.6" y1="51.6" x2="31.6" y2="51.6"/>
	<line class="st3" x1="32.6" y1="46" x2="32.6" y2="46"/>
	<line class="st3" x1="31.1" y1="41.9" x2="31.1" y2="41.9"/>
	<line class="st3" x1="26.1" y1="36.2" x2="26.1" y2="36.2"/>
	<line class="st3" x1="30.4" y1="30.3" x2="30.4" y2="30.3"/>
	<line class="st3" x1="27.4" y1="27.7" x2="27.4" y2="27.7"/>
	<line class="st3" x1="24.2" y1="30.4" x2="24.2" y2="30.4"/>
	<line class="st3" x1="23.2" y1="33.2" x2="23.2" y2="33.2"/>
	<line class="st3" x1="22.4" y1="27.4" x2="22.4" y2="27.4"/>
	<line class="st3" x1="19.6" y1="27.6" x2="19.6" y2="27.6"/>
	<line class="st3" x1="20" y1="33.4" x2="20" y2="33.4"/>
	<line class="st3" x1="16.6" y1="31.4" x2="16.6" y2="31.4"/>
	<line class="st3" x1="13.2" y1="31.8" x2="13.2" y2="31.8"/>
	<line class="st3" x1="9.6" y1="30.7" x2="9.6" y2="30.7"/>
	<line class="st3" x1="7.2" y1="35.9" x2="7.2" y2="35.9"/>
	<line class="st3" x1="16.7" y1="37.2" x2="16.7" y2="37.2"/>
	<line class="st3" x1="14.5" y1="39.7" x2="14.5" y2="39.7"/>
	<line class="st3" x1="10.2" y1="39.5" x2="10.2" y2="39.5"/>
	<line class="st3" x1="7.2" y1="38.1" x2="7.2" y2="38.1"/>
	<line class="st3" x1="5.2" y1="40.9" x2="5.2" y2="40.9"/>
	<line class="st3" x1="1.4" y1="37.5" x2="1.4" y2="37.5"/>
	<line class="st3" x1="53" y1="27.9" x2="53" y2="27.9"/>
	<line class="st3" x1="1.8" y1="40.8" x2="1.8" y2="40.8"/>
	<line class="st3" x1="5.1" y1="46.1" x2="5.1" y2="46.1"/>
	<line class="st3" x1="16.7" y1="9.7" x2="16.7" y2="9.7"/>
	<line class="st3" x1="8.9" y1="44.2" x2="8.9" y2="44.2"/>
	<line class="st3" x1="13.4" y1="47.2" x2="13.4" y2="47.2"/>
	<line class="st3" x1="15" y1="48" x2="15" y2="48"/>
	<line class="st3" x1="17.3" y1="43.3" x2="17.3" y2="43.3"/>
	<line class="st3" x1="22.4" y1="43.8" x2="22.4" y2="43.8"/>
	<line class="st3" x1="20.6" y1="9.1" x2="20.6" y2="9.1"/>
	<line class="st3" x1="23.5" y1="47" x2="23.5" y2="47"/>
	<line class="st3" x1="27.5" y1="48.6" x2="27.5" y2="48.6"/>
	<line class="st3" x1="25.3" y1="51.6" x2="25.3" y2="51.6"/>
	<line class="st3" x1="21" y1="53.7" x2="21" y2="53.7"/>
	<line class="st3" x1="22.4" y1="51.3" x2="22.4" y2="51.3"/>
	<line class="st3" x1="16.8" y1="52.9" x2="16.8" y2="52.9"/>
	<line class="st3" x1="13.3" y1="49.9" x2="13.3" y2="49.9"/>
	<line class="st3" x1="13.1" y1="53.2" x2="13.1" y2="53.2"/>
	<line class="st3" x1="7.6" y1="53.7" x2="7.6" y2="53.7"/>
	<line class="st3" x1="4.3" y1="50.9" x2="4.3" y2="50.9"/>
	<line class="st3" x1="0.6" y1="53.5" x2="0.6" y2="53.5"/>
	<line class="st3" x1="1.8" y1="48.6" x2="1.8" y2="48.6"/>
	<path class="st4" d="M20.9,23.6"/>
	<path class="st4" d="M20.9,23.6c0.8-1.3,2.6-1.5,3.5-1.2c0.8,0.2,1.2,0.7,1.6,0.6c0.5-0.1,1.7,1.2,0.6,2c-1.2,0.8-2.9,1.6-3.5,1.2
		c-0.6-0.3-1.2-0.7-1.6-0.8C21.1,25.2,20.7,24,20.9,23.6z"/>
	<path class="st4" d="M41.4,15.3c1,0,1.8,0.6,2.1,1.2c0.2,0.7-0.7,2.6-2.6,1.4C39,16.7,39.7,15.2,41.4,15.3z"/>
	<path class="st4" d="M45.8,34.2c2.2,1.4,2.1,3.6-0.4,2.9c-2.5-0.7-2.4-1-3.5-2.6C40.9,32.8,44.3,33.2,45.8,34.2z"/>
	<path class="st4" d="M28.9,42.9c1.7,0.9,1.4,2.6-0.6,2.2c-2-0.4-2.7-1.2-3.1-2.1c-0.4-0.9,1-2,2.6-1C28.2,42.4,28.9,42.9,28.9,42.9
		z"/>
	<path class="st4" d="M6.2,30.9c1.2,0.2,1.9,0.7,2,1.7c0.1,1-0.6,2-2.9,1.8c-2.3-0.2-3.8-0.6-2.5-2.1c0.8-0.1,1.2-0.2,1.5-0.9
		C4.6,30.8,5.6,30.8,6.2,30.9z"/>
	<path class="st4" d="M2.8,18.1c1.7-0.7,3.3,1.4,1.2,2C2,20.6,1,18.5,2.8,18.1z"/>
	<path class="st4" d="M49.6,49.7c1.5-1.2,2.7,0.3,1.7,1.2c-1,0.8-2.4,2-3.3,1.3c-0.9-0.7-0.6-1.8,0.3-2
		C49.3,50.1,49.6,49.7,49.6,49.7z"/>
	<path class="st4" d="M9.3,48.4c2.1,0.4,3,1.4,1.6,2.2c-1.4,0.8-1.4,0.7-3,0.2c-1.6-0.5-3-1.1-2-1.8C6.9,48.3,8.2,48,9.3,48.4z"/>
	<line class="st4" x1="6.4" y1="15.8" x2="13.6" y2="13.1"/>
	<line class="st4" x1="3.8" y1="0.3" x2="12" y2="1.5"/>
	<line class="st4" x1="24.7" y1="14.7" x2="33" y2="15.6"/>
	<line class="st4" x1="46" y1="15.3" x2="52.1" y2="14.5"/>
	<line class="st4" x1="42.9" y1="0.5" x2="49.9" y2="1.6"/>
	<line class="st4" x1="45.3" y1="22.7" x2="36.9" y2="22.1"/>
	<line class="st4" x1="17.4" y1="22.1" x2="10.4" y2="21.6"/>
	<line class="st4" x1="20.3" y1="7.1" x2="14" y2="8.4"/>
	<line class="st4" x1="39.4" y1="7" x2="32.9" y2="7.6"/>
	<line class="st4" x1="7" y1="28.7" x2="14.4" y2="29.1"/>
	<line class="st4" x1="27.3" y1="29.2" x2="35.1" y2="28.2"/>
	<line class="st4" x1="22.6" y1="1.2" x2="31" y2="0.4"/>
	<line class="st4" x1="46.9" y1="28.9" x2="53.6" y2="30.6"/>
	<line class="st4" x1="38.7" y1="35.7" x2="32.5" y2="35.2"/>
	<line class="st4" x1="24" y1="37.3" x2="17.4" y2="35.9"/>
	<line class="st4" x1="3.9" y1="43.2" x2="12.1" y2="41.9"/>
	<line class="st4" x1="38.7" y1="42.5" x2="46.7" y2="43.3"/>
	<line class="st4" x1="38.9" y1="49.5" x2="30.6" y2="48.8"/>
	<line class="st4" x1="25" y1="48.5" x2="17.8" y2="49.5"/>
	<path class="st4" d="M21.2,12.6c1.5,0.1,1.3,1.6,0.1,1.7C20,14.4,19.9,12.8,21.2,12.6z"/>
	<path class="st4" d="M32.3,18.3c1.6,0,1.4,1.6,0.2,1.6C31.2,20,30.9,18.3,32.3,18.3z"/>
	<path class="st4" d="M17,1.4c1.6,0,1.4,1.6,0.2,1.6S15.6,1.4,17,1.4z"/>
	<path class="st4" d="M52.7,22.3c0,1.3-1.4,1.2-1.5,0S52.7,21.3,52.7,22.3z"/>
	<path class="st4" d="M42.5,27.9c1.4,0,1.3,1.4,0.2,1.4C41.5,29.3,40.8,28,42.5,27.9z"/>
	<path class="st4" d="M51.9,38.9c1.2,0,1.4,1.4,0.3,1.5C51.1,40.4,50.5,39,51.9,38.9z"/>
	<path class="st4" d="M36.7,42.4c0,1.3-1.4,1-1.4,0.1C35.3,41.5,36.7,41.2,36.7,42.4z"/>
	<path class="st4" d="M29,34c-0.1,1.3-1.5,1-1.6,0.1C27.3,33.1,28.8,32.6,29,34z"/>
	<path class="st4" d="M3,8.2C3,9.5,1.5,9.2,1.4,8.2C1.4,7.3,2.8,6.8,3,8.2z"/>
	<path class="st4" d="M45.7,47.9c0.8,0.6,0.3,1.7-0.8,1C43.7,48.3,44.4,47.1,45.7,47.9z"/>
	<path class="st4" d="M28.3,52.2c1.1,0.4,0.8,1.9-0.4,1.4C26.7,53.2,27.3,51.8,28.3,52.2z"/>
	<path class="st4" d="M19.6,44.3c1.4,0.1,1.2,1.5,0.2,1.5C18.8,45.9,18.1,44.3,19.6,44.3z"/>
	<path class="st4" d="M14.2,34.1c1.4,0.9,0.1,1.9-0.9,1.3C12.3,34.8,13.1,33.6,14.2,34.1z"/>
	<path class="st4" d="M2.1,43.3c0.8,0.8-0.2,1.6-0.9,1C0.6,43.6,1,42.5,2.1,43.3z"/>
	<path class="st4" d="M4,26.4c0.1,1.3-1.4,1.2-1.5,0.2C2.4,25.7,3.9,25.3,4,26.4z"/>
	<path class="st4" d="M41.4,9.3c0.1,1.3-1.4,1.2-1.5,0.2C39.8,8.6,41.3,8.1,41.4,9.3z"/>
	<path class="st4" d="M30.9,3.4c1,0.6,1.3,2,0.5,2.5S28.5,6.3,28,5.8s-1-1.5,0.3-2.1S30.3,3.1,30.9,3.4z"/>
	<path class="st4" d="M5.5,5.1c0.6-0.8,1.6-0.8,3.1-0.3s1.6,1,2.1,1s1.4,2,0.1,2.3S6.5,8.6,6.1,7.8S5.5,5.1,5.5,5.1z"/>
	<line class="st0" x1="34.6" y1="53.9" x2="36.6" y2="51"/>
	<path class="st1" d="M20.5,0.1c-0.2,0-0.4,0.2-0.4,0.4c0,0.2,0.2,0.4,0.4,0.4C20.8,1,21,0.8,21,0.6C21,0.3,20.8,0.1,20.5,0.1z"/>
	<path class="st1" d="M31.6,33.2c-0.2,0-0.4,0.2-0.4,0.4c0,0.2,0.2,0.4,0.4,0.4c0.2,0,0.4-0.2,0.4-0.4C32,33.4,31.8,33.2,31.6,33.2z
		"/>
	<path class="st1" d="M36.9,0.3c-0.2,0-0.4,0.2-0.4,0.4c0,0.2,0.2,0.4,0.4,0.4c0.2,0,0.4-0.2,0.4-0.4C37.4,0.5,37.2,0.3,36.9,0.3z"
		/>
	<path class="st1" d="M32.3,1.4c-0.2,0-0.4,0.2-0.4,0.4c0,0.2,0.2,0.4,0.4,0.4c0.2,0,0.4-0.2,0.4-0.4C32.8,1.6,32.6,1.4,32.3,1.4z"
		/>
</g>
</svg>
