<?xml version="1.0" encoding="utf-8"?>
<!-- Generator: Adobe Illustrator 23.0.1, SVG Export Plug-In . SVG Version: 6.00 Build 0)  -->
<svg version="1.1" id="Layer_1" xmlns="http://www.w3.org/2000/svg" xmlns:xlink="http://www.w3.org/1999/xlink" x="0px" y="0px"
	 viewBox="0 0 54.1 54.1" style="enable-background:new 0 0 54.1 54.1;" xml:space="preserve">
<style type="text/css">
	.st0{clip-path:url(#SVGID_2_);fill:none;stroke:#000000;stroke-width:0.7;stroke-linecap:round;}
	.st1{clip-path:url(#SVGID_2_);fill:none;stroke:#000000;stroke-width:0.3;}
</style>
<g>
	<defs>
		<rect id="SVGID_1_" x="0" y="0" width="54.1" height="54.1"/>
	</defs>
	<clipPath id="SVGID_2_">
		<use xlink:href="#SVGID_1_"  style="overflow:visible;"/>
	</clipPath>
	<line class="st0" x1="1.8" y1="15.3" x2="1.8" y2="15.3"/>
	<line class="st0" x1="6.5" y1="13.5" x2="6.5" y2="13.5"/>
	<line class="st0" x1="13.6" y1="15.8" x2="13.6" y2="15.8"/>
	<line class="st0" x1="16.8" y1="14.2" x2="16.8" y2="14.2"/>
	<line class="st0" x1="18.8" y1="18" x2="18.8" y2="18"/>
	<line class="st0" x1="15" y1="19.4" x2="15" y2="19.4"/>
	<line class="st0" x1="10.9" y1="19" x2="10.9" y2="19"/>
	<line class="st0" x1="6.4" y1="18.3" x2="6.4" y2="18.3"/>
	<line class="st0" x1="5.1" y1="22.9" x2="5.1" y2="22.9"/>
	<line class="st0" x1="1.3" y1="22.5" x2="1.3" y2="22.5"/>
	<line class="st0" x1="17.6" y1="5" x2="17.6" y2="5"/>
	<line class="st0" x1="9.6" y1="10.4" x2="9.6" y2="10.4"/>
	<line class="st0" x1="3.7" y1="11.1" x2="3.7" y2="11.1"/>
	<line class="st0" x1="1.4" y1="3.9" x2="1.4" y2="3.9"/>
	<line class="st0" x1="7.9" y1="2.4" x2="7.9" y2="2.4"/>
	<line class="st0" x1="13.5" y1="4.3" x2="13.5" y2="4.3"/>
	<line class="st0" x1="25.3" y1="10.2" x2="25.3" y2="10.2"/>
	<line class="st0" x1="24.6" y1="6.6" x2="24.6" y2="6.6"/>
	<line class="st0" x1="21.9" y1="3.4" x2="21.9" y2="3.4"/>
	<line class="st0" x1="26" y1="2.3" x2="26" y2="2.3"/>
	<line class="st0" x1="34.3" y1="0.6" x2="34.3" y2="0.6"/>
	<line class="st0" x1="46.4" y1="5.9" x2="46.4" y2="5.9"/>
	<line class="st0" x1="53.5" y1="5.5" x2="53.5" y2="5.5"/>
	<line class="st0" x1="50.1" y1="3.8" x2="50.1" y2="3.8"/>
	<line class="st0" x1="47" y1="9.9" x2="47" y2="9.9"/>
	<line class="st0" x1="45" y1="2.5" x2="45" y2="2.5"/>
	<line class="st0" x1="30.1" y1="9.2" x2="30.1" y2="9.2"/>
	<line class="st0" x1="48.4" y1="25.3" x2="48.4" y2="25.3"/>
	<line class="st0" x1="40.1" y1="23.6" x2="40.1" y2="23.6"/>
	<line class="st0" x1="25.5" y1="20.6" x2="25.5" y2="20.6"/>
	<line class="st0" x1="50.4" y1="8.6" x2="50.4" y2="8.6"/>
	<line class="st0" x1="33.8" y1="4.9" x2="33.8" y2="4.9"/>
	<line class="st0" x1="41.4" y1="4.9" x2="41.4" y2="4.9"/>
	<line class="st0" x1="37.9" y1="2.4" x2="37.9" y2="2.4"/>
	<line class="st0" x1="36" y1="10.6" x2="36" y2="10.6"/>
	<line class="st0" x1="1.4" y1="29.4" x2="1.4" y2="29.4"/>
	<line class="st0" x1="7" y1="26.9" x2="7" y2="26.9"/>
	<line class="st0" x1="11.5" y1="24.3" x2="11.5" y2="24.3"/>
	<line class="st0" x1="14.5" y1="26.9" x2="14.5" y2="26.9"/>
	<line class="st0" x1="18.3" y1="24.3" x2="18.3" y2="24.3"/>
	<line class="st0" x1="21.3" y1="20.7" x2="21.3" y2="20.7"/>
	<line class="st0" x1="23" y1="17" x2="23" y2="17"/>
	<line class="st0" x1="28.1" y1="18" x2="28.1" y2="18"/>
	<line class="st0" x1="27.9" y1="13.6" x2="27.9" y2="13.6"/>
	<line class="st0" x1="31.7" y1="11.9" x2="31.7" y2="11.9"/>
	<line class="st0" x1="33" y1="17" x2="33" y2="17"/>
	<line class="st0" x1="37" y1="18.1" x2="37" y2="18.1"/>
	<line class="st0" x1="38.2" y1="13.2" x2="38.2" y2="13.2"/>
	<line class="st0" x1="43" y1="11.8" x2="43" y2="11.8"/>
	<line class="st0" x1="48.6" y1="13.3" x2="48.6" y2="13.3"/>
	<line class="st0" x1="53.6" y1="12.5" x2="53.6" y2="12.5"/>
	<line class="st0" x1="49.6" y1="17.4" x2="49.6" y2="17.4"/>
	<line class="st0" x1="46.1" y1="18.5" x2="46.1" y2="18.5"/>
	<line class="st0" x1="48.2" y1="21.5" x2="48.2" y2="21.5"/>
	<line class="st0" x1="52.9" y1="19.2" x2="52.9" y2="19.2"/>
	<line class="st0" x1="41.7" y1="20.5" x2="41.7" y2="20.5"/>
	<line class="st0" x1="50.7" y1="26.9" x2="50.7" y2="26.9"/>
	<line class="st0" x1="44.7" y1="24.8" x2="44.7" y2="24.8"/>
	<line class="st0" x1="38.7" y1="27.4" x2="38.7" y2="27.4"/>
	<line class="st0" x1="35.6" y1="24.6" x2="35.6" y2="24.6"/>
	<line class="st0" x1="30.7" y1="23.8" x2="30.7" y2="23.8"/>
	<line class="st0" x1="32.7" y1="27.5" x2="32.7" y2="27.5"/>
	<line class="st0" x1="41.8" y1="32" x2="41.8" y2="32"/>
	<line class="st0" x1="45.5" y1="30.6" x2="45.5" y2="30.6"/>
	<line class="st0" x1="48.3" y1="33.4" x2="48.3" y2="33.4"/>
	<line class="st0" x1="51.5" y1="31.3" x2="51.5" y2="31.3"/>
	<line class="st0" x1="51.1" y1="36.8" x2="51.1" y2="36.8"/>
	<line class="st0" x1="47.4" y1="40.5" x2="47.4" y2="40.5"/>
	<line class="st0" x1="42.8" y1="39.4" x2="42.8" y2="39.4"/>
	<line class="st0" x1="38.7" y1="40.1" x2="38.7" y2="40.1"/>
	<line class="st0" x1="34.5" y1="39.1" x2="34.5" y2="39.1"/>
	<line class="st0" x1="30.4" y1="36.8" x2="30.4" y2="36.8"/>
	<line class="st0" x1="34" y1="31.7" x2="34" y2="31.7"/>
	<line class="st0" x1="38.1" y1="34" x2="38.1" y2="34"/>
	<line class="st0" x1="52.4" y1="43.2" x2="52.4" y2="43.2"/>
	<line class="st0" x1="49.9" y1="45.7" x2="49.9" y2="45.7"/>
	<line class="st0" x1="45.5" y1="45.7" x2="45.5" y2="45.7"/>
	<line class="st0" x1="41.1" y1="45.2" x2="41.1" y2="45.2"/>
	<line class="st0" x1="37.2" y1="47.5" x2="37.2" y2="47.5"/>
	<line class="st0" x1="41.8" y1="49.6" x2="41.8" y2="49.6"/>
	<line class="st0" x1="44.3" y1="52.9" x2="44.3" y2="52.9"/>
	<line class="st0" x1="52.6" y1="52.3" x2="52.6" y2="52.3"/>
	<line class="st0" x1="53" y1="47.9" x2="53" y2="47.9"/>
	<line class="st0" x1="40.6" y1="53.8" x2="40.6" y2="53.8"/>
	<line class="st0" x1="37.8" y1="51.2" x2="37.8" y2="51.2"/>
	<line class="st0" x1="31.6" y1="51.6" x2="31.6" y2="51.6"/>
	<line class="st0" x1="32.6" y1="46" x2="32.6" y2="46"/>
	<line class="st0" x1="31.1" y1="41.9" x2="31.1" y2="41.9"/>
	<line class="st0" x1="27.4" y1="39.6" x2="27.4" y2="39.6"/>
	<line class="st0" x1="26.1" y1="36.2" x2="26.1" y2="36.2"/>
	<line class="st0" x1="23.1" y1="39.8" x2="23.1" y2="39.8"/>
	<line class="st0" x1="29.1" y1="32.2" x2="29.1" y2="32.2"/>
	<line class="st0" x1="27.4" y1="27.7" x2="27.4" y2="27.7"/>
	<line class="st0" x1="24.2" y1="30.4" x2="24.2" y2="30.4"/>
	<line class="st0" x1="23.3" y1="34.1" x2="23.3" y2="34.1"/>
	<line class="st0" x1="22.4" y1="27.4" x2="22.4" y2="27.4"/>
	<line class="st0" x1="19.5" y1="29.2" x2="19.5" y2="29.2"/>
	<line class="st0" x1="20" y1="33.4" x2="20" y2="33.4"/>
	<line class="st0" x1="16.6" y1="31.4" x2="16.6" y2="31.4"/>
	<line class="st0" x1="13.2" y1="31.8" x2="13.2" y2="31.8"/>
	<line class="st0" x1="9.6" y1="30.7" x2="9.6" y2="30.7"/>
	<line class="st0" x1="9.8" y1="35.5" x2="9.8" y2="35.5"/>
	<line class="st0" x1="16.7" y1="37.2" x2="16.7" y2="37.2"/>
	<line class="st0" x1="19.4" y1="40.3" x2="19.4" y2="40.3"/>
	<line class="st0" x1="14.5" y1="39.7" x2="14.5" y2="39.7"/>
	<line class="st0" x1="10.2" y1="39.5" x2="10.2" y2="39.5"/>
	<line class="st0" x1="6.8" y1="38.3" x2="6.8" y2="38.3"/>
	<line class="st0" x1="5.2" y1="40.9" x2="5.2" y2="40.9"/>
	<line class="st0" x1="2.4" y1="37.3" x2="2.4" y2="37.3"/>
	<line class="st0" x1="0.4" y1="34.5" x2="0.4" y2="34.5"/>
	<line class="st0" x1="1.8" y1="40.8" x2="1.8" y2="40.8"/>
	<line class="st0" x1="5.1" y1="46.1" x2="5.1" y2="46.1"/>
	<line class="st0" x1="15.7" y1="10.9" x2="15.7" y2="10.9"/>
	<line class="st0" x1="9.5" y1="45" x2="9.5" y2="45"/>
	<line class="st0" x1="13.5" y1="45.9" x2="13.5" y2="45.9"/>
	<line class="st0" x1="16.5" y1="47.4" x2="16.5" y2="47.4"/>
	<line class="st0" x1="17.3" y1="43.3" x2="17.3" y2="43.3"/>
	<line class="st0" x1="22.4" y1="43.8" x2="22.4" y2="43.8"/>
	<line class="st0" x1="20.6" y1="9.1" x2="20.6" y2="9.1"/>
	<line class="st0" x1="23.5" y1="47" x2="23.5" y2="47"/>
	<line class="st0" x1="27.5" y1="48.6" x2="27.5" y2="48.6"/>
	<line class="st0" x1="25.3" y1="51.6" x2="25.3" y2="51.6"/>
	<line class="st0" x1="21" y1="53.7" x2="21" y2="53.7"/>
	<line class="st0" x1="21.9" y1="50.6" x2="21.9" y2="50.6"/>
	<line class="st0" x1="16.8" y1="52.9" x2="16.8" y2="52.9"/>
	<line class="st0" x1="13.3" y1="49.9" x2="13.3" y2="49.9"/>
	<line class="st0" x1="13.1" y1="53.2" x2="13.1" y2="53.2"/>
	<line class="st0" x1="7.6" y1="53.9" x2="7.6" y2="53.9"/>
	<line class="st0" x1="4.9" y1="51.8" x2="4.9" y2="51.8"/>
	<line class="st0" x1="0.6" y1="53.5" x2="0.6" y2="53.5"/>
	<line class="st0" x1="1.8" y1="48.6" x2="1.8" y2="48.6"/>
	<path class="st1" d="M20.9,23.6"/>
	<path class="st1" d="M20.9,23.6c0.8-1.3,2.6-1.5,3.5-1.2c0.8,0.2,1.2,0.7,1.6,0.6c0.5-0.1,1.7,1.2,0.6,2c-1.2,0.8-2.9,1.6-3.5,1.2
		c-0.6-0.3-1.2-0.7-1.6-0.8C21.1,25.2,20.7,24,20.9,23.6z"/>
	<path class="st1" d="M41.4,15.3c1,0,1.8,0.6,2.1,1.2c0.2,0.7-0.7,2.6-2.6,1.4C39,16.7,39.7,15.2,41.4,15.3z"/>
	<path class="st1" d="M45.8,34.2c2.2,1.4,2.1,3.6-0.4,2.9c-2.5-0.7-2.4-1-3.5-2.6C40.9,32.8,44.3,33.2,45.8,34.2z"/>
	<path class="st1" d="M28.9,42.9c1.7,0.9,1.4,2.6-0.6,2.2c-2-0.4-2.7-1.2-3.1-2.1c-0.4-0.9,1-2,2.6-1C28.2,42.4,28.9,42.9,28.9,42.9
		z"/>
	<path class="st1" d="M6.2,30.9c1.2,0.2,1.9,0.7,2,1.7c0.1,1-0.6,2-2.9,1.8c-2.3-0.2-3.8-0.6-2.5-2.1c0.8-0.1,1.2-0.2,1.5-0.9
		C4.6,30.8,5.6,30.8,6.2,30.9z"/>
	<path class="st1" d="M2.8,18.1c1.7-0.7,3.3,1.4,1.2,2C2,20.6,1,18.5,2.8,18.1z"/>
	<path class="st1" d="M49.6,49.7c1.5-1.2,2.7,0.3,1.7,1.2c-1,0.8-2.4,2-3.3,1.3c-0.9-0.7-0.6-1.8,0.3-2
		C49.3,50.1,49.6,49.7,49.6,49.7z"/>
	<path class="st1" d="M9.3,48.4c2.1,0.4,3,1.4,1.6,2.2c-1.4,0.8-1.4,0.7-3,0.2c-1.6-0.5-3-1.1-2-1.8C6.9,48.3,8.2,48,9.3,48.4z"/>
	<line class="st1" x1="6.4" y1="15.8" x2="13.6" y2="13.1"/>
	<line class="st1" x1="3.8" y1="0.9" x2="12" y2="1.5"/>
	<line class="st1" x1="26.3" y1="14.8" x2="34.6" y2="15.7"/>
	<line class="st1" x1="46" y1="15.3" x2="52.1" y2="14.5"/>
	<line class="st1" x1="42.9" y1="0.8" x2="49.9" y2="1.6"/>
	<line class="st1" x1="43.9" y1="22.2" x2="35.6" y2="21.5"/>
	<line class="st1" x1="17.4" y1="22.1" x2="10.4" y2="21.6"/>
	<line class="st1" x1="20.3" y1="7.1" x2="14" y2="8.4"/>
	<line class="st1" x1="39.4" y1="7" x2="32.9" y2="7.6"/>
	<line class="st1" x1="7" y1="28.7" x2="14.4" y2="29.1"/>
	<line class="st1" x1="28.4" y1="29.6" x2="36.1" y2="28.6"/>
	<line class="st1" x1="22.6" y1="1.2" x2="31" y2="0.8"/>
	<line class="st1" x1="46.9" y1="28.9" x2="53.6" y2="30.6"/>
	<line class="st1" x1="38.7" y1="35.7" x2="32.5" y2="35.2"/>
	<line class="st1" x1="24" y1="37.3" x2="17.4" y2="35.9"/>
	<line class="st1" x1="5.7" y1="43.2" x2="13.9" y2="42"/>
	<line class="st1" x1="38.7" y1="42.5" x2="46.7" y2="43.3"/>
	<line class="st1" x1="38.9" y1="49.5" x2="30.6" y2="48.8"/>
	<line class="st1" x1="23.6" y1="48.4" x2="16.4" y2="49.5"/>
	<path class="st1" d="M21.2,12.6c1.5,0.1,1.3,1.6,0.1,1.7C20,14.4,19.9,12.8,21.2,12.6z"/>
	<path class="st1" d="M32.3,18.3c1.6,0,1.4,1.6,0.2,1.6C31.2,20,30.9,18.3,32.3,18.3z"/>
	<path class="st1" d="M17,1.4c1.6,0,1.4,1.6,0.2,1.6S15.6,1.4,17,1.4z"/>
	<path class="st1" d="M52.7,22.3c0,1.3-1.4,1.2-1.5,0C51.2,21.1,52.7,21.3,52.7,22.3z"/>
	<path class="st1" d="M42.5,27.9c1.4,0,1.3,1.4,0.2,1.4C41.5,29.3,40.8,28,42.5,27.9z"/>
	<path class="st1" d="M51.9,38.9c1.2,0,1.4,1.4,0.3,1.5C51.1,40.4,50.5,39,51.9,38.9z"/>
	<path class="st1" d="M36.7,42.4c0,1.3-1.4,1-1.4,0.1C35.3,41.5,36.7,41.2,36.7,42.4z"/>
	<path class="st1" d="M28.3,34.1c-0.1,1.3-1.5,1-1.6,0.1C26.6,33.2,28,32.8,28.3,34.1z"/>
	<path class="st1" d="M3,8.2C3,9.5,1.5,9.2,1.4,8.2C1.4,7.3,2.8,6.8,3,8.2z"/>
	<path class="st1" d="M45.7,47.9c0.8,0.6,0.3,1.7-0.8,1C43.7,48.3,44.4,47.1,45.7,47.9z"/>
	<path class="st1" d="M28.3,52.2c1.1,0.4,0.8,1.9-0.4,1.4C26.7,53.2,27.3,51.8,28.3,52.2z"/>
	<path class="st1" d="M19.6,44.3c1.4,0.1,1.2,1.5,0.2,1.5C18.8,45.9,18.1,44.3,19.6,44.3z"/>
	<path class="st1" d="M14.2,34.1c1.4,0.9,0.1,1.9-0.9,1.3C12.3,34.8,13.1,33.6,14.2,34.1z"/>
	<path class="st1" d="M2.1,43.3c0.8,0.8-0.2,1.6-0.9,1C0.6,43.6,1,42.5,2.1,43.3z"/>
	<path class="st1" d="M4,26.4c0.1,1.3-1.4,1.2-1.5,0.2C2.4,25.7,3.9,25.3,4,26.4z"/>
	<path class="st1" d="M41.4,9.3c0.1,1.3-1.4,1.2-1.5,0.2C39.8,8.6,41.3,8.1,41.4,9.3z"/>
	<path class="st1" d="M30.9,3.4c1,0.6,1.3,2,0.5,2.5S28.5,6.3,28,5.8s-1-1.5,0.3-2.1S30.3,3.1,30.9,3.4z"/>
	<path class="st1" d="M5.5,5.1c0.6-0.8,1.6-0.8,3.1-0.3s1.6,1,2.1,1s1.4,2,0.1,2.3S6.5,8.6,6.1,7.8S5.5,5.1,5.5,5.1z"/>
</g>
</svg>
