<?xml version="1.0" encoding="utf-8"?>
<!-- Generator: Adobe Illustrator 23.0.1, SVG Export Plug-In . SVG Version: 6.00 Build 0)  -->
<svg version="1.1" id="Layer_1" xmlns="http://www.w3.org/2000/svg" xmlns:xlink="http://www.w3.org/1999/xlink" x="0px" y="0px"
	 viewBox="0 0 85.9 85.9" style="enable-background:new 0 0 85.9 85.9;" xml:space="preserve">
<style type="text/css">
	.st0{fill:none;stroke:#000000;stroke-width:0.3;}
</style>
<g>
	<line class="st0" x1="9.3" y1="7.6" x2="11.5" y2="10.3"/>
	<line class="st0" x1="9.4" y1="3.9" x2="12.8" y2="4"/>
	<line class="st0" x1="20.3" y1="7.1" x2="23" y2="9.1"/>
	<line class="st0" x1="16.8" y1="6" x2="14.7" y2="8.8"/>
	<line class="st0" x1="18.4" y1="3.3" x2="15.7" y2="1.5"/>
	<line class="st0" x1="23.7" y1="0.5" x2="21.4" y2="2"/>
	<line class="st0" x1="25.3" y1="3.9" x2="25.4" y2="7"/>
	<line class="st0" x1="28.7" y1="1.3" x2="31.2" y2="2.6"/>
	<line class="st0" x1="35" y1="2.9" x2="37" y2="0.6"/>
	<line class="st0" x1="39.8" y1="3.9" x2="42.5" y2="6.1"/>
	<line class="st0" x1="35.7" y1="7.5" x2="36.3" y2="10.5"/>
	<line class="st0" x1="31.4" y1="7.5" x2="28.9" y2="10.1"/>
	<line class="st0" x1="42.4" y1="10.5" x2="40.3" y2="13.1"/>
	<line class="st0" x1="38.9" y1="16.9" x2="42.3" y2="18"/>
	<line class="st0" x1="34.6" y1="15.2" x2="31.3" y2="12.8"/>
	<line class="st0" x1="31.2" y1="17.6" x2="28.3" y2="19"/>
	<line class="st0" x1="35.2" y1="18.8" x2="34.2" y2="22.1"/>
	<line class="st0" x1="39.9" y1="21.9" x2="41.7" y2="24.6"/>
	<line class="st0" x1="41.9" y1="29.3" x2="39.2" y2="30.9"/>
	<line class="st0" x1="37.4" y1="26.5" x2="33.9" y2="26"/>
	<line class="st0" x1="38.8" y1="35.5" x2="42.4" y2="35.8"/>
	<line class="st0" x1="37.3" y1="37.5" x2="38.6" y2="40.5"/>
	<line class="st0" x1="6.2" y1="4.3" x2="3.8" y2="6.8"/>
	<line class="st0" x1="3.7" y1="9.5" x2="7.7" y2="10.6"/>
	<line class="st0" x1="2.7" y1="13.3" x2="3.8" y2="16.9"/>
	<path class="st0" d="M4.4,19.9"/>
	<line class="st0" x1="4.4" y1="19.9" x2="1.4" y2="22.3"/>
	<line class="st0" x1="4.4" y1="25.5" x2="4" y2="29.2"/>
	<line class="st0" x1="1.7" y1="32.4" x2="4.5" y2="34.4"/>
	<line class="st0" x1="2" y1="38.1" x2="0.4" y2="41.1"/>
	<line class="st0" x1="0.3" y1="0.8" x2="3.5" y2="1.5"/>
	<line class="st0" x1="8.4" y1="41.8" x2="7.3" y2="38.3"/>
	<line class="st0" x1="12" y1="42.2" x2="15.1" y2="40"/>
	<line class="st0" x1="8.5" y1="34.5" x2="11.9" y2="33.9"/>
	<line class="st0" x1="6.7" y1="23.4" x2="10.3" y2="23.5"/>
	<line class="st0" x1="10.8" y1="14" x2="6.7" y2="14.3"/>
	<line class="st0" x1="11.3" y1="17.1" x2="9.3" y2="20.1"/>
	<line class="st0" x1="14.3" y1="20.8" x2="16.8" y2="22.8"/>
	<line class="st0" x1="14.3" y1="13.1" x2="15.4" y2="16.9"/>
	<line class="st0" x1="26" y1="34.6" x2="29.8" y2="35.7"/>
	<line class="st0" x1="18.4" y1="11.4" x2="21.7" y2="12.8"/>
	<line class="st0" x1="25.5" y1="12.8" x2="27.1" y2="16"/>
	<line class="st0" x1="21.4" y1="16.8" x2="18.8" y2="19.5"/>
	<line class="st0" x1="21.9" y1="21.8" x2="25.3" y2="21.3"/>
	<line class="st0" x1="28" y1="22.6" x2="31.3" y2="24.6"/>
	<line class="st0" x1="29.9" y1="28.1" x2="27.8" y2="31"/>
	<line class="st0" x1="34.9" y1="34.4" x2="33.4" y2="31.1"/>
	<line class="st0" x1="31.5" y1="41.4" x2="34.2" y2="38.3"/>
	<line class="st0" x1="26.3" y1="40.6" x2="24.5" y2="37.6"/>
	<line class="st0" x1="20.1" y1="40.5" x2="21.2" y2="37.4"/>
	<line class="st0" x1="19.9" y1="31.3" x2="23.2" y2="32.7"/>
	<line class="st0" x1="23.8" y1="29.5" x2="25.1" y2="26"/>
	<line class="st0" x1="19.8" y1="24.8" x2="16.7" y2="26.9"/>
	<line class="st0" x1="15.1" y1="31.9" x2="17.4" y2="35"/>
	<line class="st0" x1="52.3" y1="7.6" x2="54.6" y2="10.3"/>
	<line class="st0" x1="52.4" y1="3.9" x2="55.8" y2="4"/>
	<line class="st0" x1="63.3" y1="7.1" x2="66" y2="9.1"/>
	<line class="st0" x1="59.8" y1="6" x2="57.7" y2="8.8"/>
	<line class="st0" x1="61.4" y1="3.3" x2="58.7" y2="1.5"/>
	<line class="st0" x1="66.7" y1="0.5" x2="64.4" y2="2"/>
	<line class="st0" x1="68.3" y1="3.9" x2="68.4" y2="7"/>
	<line class="st0" x1="71.7" y1="1.3" x2="74.2" y2="2.6"/>
	<line class="st0" x1="78.1" y1="2.9" x2="80.1" y2="0.6"/>
	<line class="st0" x1="82.8" y1="3.9" x2="85.6" y2="6.1"/>
	<line class="st0" x1="78.7" y1="7.5" x2="79.3" y2="10.5"/>
	<line class="st0" x1="74.4" y1="7.5" x2="71.9" y2="10.1"/>
	<line class="st0" x1="85.4" y1="10.5" x2="83.3" y2="13.1"/>
	<line class="st0" x1="81.9" y1="16.9" x2="85.3" y2="18"/>
	<line class="st0" x1="78.1" y1="14.1" x2="73.9" y2="14"/>
	<line class="st0" x1="74.2" y1="17.6" x2="71.3" y2="19"/>
	<line class="st0" x1="78.2" y1="18.8" x2="77.2" y2="22.1"/>
	<line class="st0" x1="82.9" y1="21.9" x2="84.7" y2="24.6"/>
	<line class="st0" x1="84.9" y1="29.3" x2="82.2" y2="30.9"/>
	<line class="st0" x1="80.4" y1="26.5" x2="76.9" y2="26"/>
	<line class="st0" x1="81.8" y1="35.5" x2="85.4" y2="35.8"/>
	<line class="st0" x1="80.3" y1="37.5" x2="81.6" y2="40.5"/>
	<line class="st0" x1="49.2" y1="3.1" x2="46.8" y2="5.6"/>
	<line class="st0" x1="46.7" y1="9.5" x2="50.7" y2="10.6"/>
	<line class="st0" x1="45.7" y1="13.3" x2="46.8" y2="16.9"/>
	<path class="st0" d="M47.4,19.9"/>
	<line class="st0" x1="47.4" y1="19.9" x2="44.4" y2="22.3"/>
	<line class="st0" x1="46.9" y1="27" x2="48.6" y2="30.2"/>
	<line class="st0" x1="44.7" y1="32.4" x2="47.6" y2="34.4"/>
	<line class="st0" x1="46.8" y1="38.1" x2="45.1" y2="41.1"/>
	<line class="st0" x1="43.3" y1="0.8" x2="46.6" y2="1.5"/>
	<line class="st0" x1="52.3" y1="43.2" x2="51.2" y2="39.7"/>
	<line class="st0" x1="56.2" y1="39.9" x2="59.3" y2="37.8"/>
	<line class="st0" x1="51.6" y1="34.5" x2="54.9" y2="33.9"/>
	<line class="st0" x1="54.4" y1="27.3" x2="53.4" y2="30.9"/>
	<line class="st0" x1="49.9" y1="24.3" x2="53.2" y2="22.8"/>
	<line class="st0" x1="53.8" y1="14" x2="49.7" y2="14.3"/>
	<line class="st0" x1="54.3" y1="17.1" x2="52.3" y2="20.1"/>
	<line class="st0" x1="57.3" y1="20.8" x2="59.8" y2="22.8"/>
	<line class="st0" x1="57.3" y1="13.1" x2="58.4" y2="16.9"/>
	<line class="st0" x1="61.2" y1="12.9" x2="64.7" y2="12"/>
	<line class="st0" x1="69.3" y1="13" x2="67.4" y2="16.1"/>
	<line class="st0" x1="64.4" y1="16.8" x2="61.8" y2="19.5"/>
	<line class="st0" x1="64.9" y1="21.8" x2="68.3" y2="21.3"/>
	<line class="st0" x1="71.1" y1="22.6" x2="74.3" y2="24.6"/>
	<line class="st0" x1="74.1" y1="28.4" x2="72" y2="31.3"/>
	<line class="st0" x1="77.9" y1="34.4" x2="76.4" y2="31.1"/>
	<line class="st0" x1="74.8" y1="41.1" x2="77.5" y2="38"/>
	<line class="st0" x1="73.3" y1="35" x2="69.3" y2="35"/>
	<line class="st0" x1="69.3" y1="40.6" x2="67.6" y2="37.6"/>
	<line class="st0" x1="63.3" y1="40.9" x2="64.4" y2="37.8"/>
	<line class="st0" x1="64.3" y1="31.9" x2="67.5" y2="33.3"/>
	<line class="st0" x1="8.8" y1="27.5" x2="12.1" y2="28.9"/>
	<line class="st0" x1="68.4" y1="29.3" x2="66.7" y2="26"/>
	<line class="st0" x1="62.8" y1="24.8" x2="59.7" y2="26.9"/>
	<line class="st0" x1="57.9" y1="30.8" x2="60.3" y2="33.9"/>
	<line class="st0" x1="9.3" y1="50.6" x2="11.6" y2="53.3"/>
	<line class="st0" x1="9.4" y1="46.9" x2="12.8" y2="47"/>
	<line class="st0" x1="20.3" y1="50.1" x2="23" y2="52.1"/>
	<line class="st0" x1="16.8" y1="49" x2="14.7" y2="51.8"/>
	<line class="st0" x1="18.4" y1="45.4" x2="15.7" y2="43.7"/>
	<line class="st0" x1="23.7" y1="43.5" x2="21.4" y2="45"/>
	<line class="st0" x1="26.4" y1="46.9" x2="24.8" y2="49.6"/>
	<line class="st0" x1="28.7" y1="44.3" x2="31.2" y2="45.6"/>
	<line class="st0" x1="35.1" y1="46" x2="37.1" y2="43.6"/>
	<line class="st0" x1="39.8" y1="46.9" x2="42.6" y2="49.1"/>
	<line class="st0" x1="35.7" y1="50.5" x2="36.3" y2="53.5"/>
	<line class="st0" x1="31.4" y1="50.5" x2="28.9" y2="53.1"/>
	<line class="st0" x1="42.4" y1="53.5" x2="40.3" y2="56.1"/>
	<line class="st0" x1="38.9" y1="59.9" x2="42.3" y2="61"/>
	<line class="st0" x1="35" y1="56.5" x2="31" y2="57.7"/>
	<line class="st0" x1="31.2" y1="60.6" x2="28.3" y2="62"/>
	<line class="st0" x1="35.2" y1="61.8" x2="34.2" y2="65.1"/>
	<line class="st0" x1="39.9" y1="64.9" x2="41.7" y2="67.6"/>
	<line class="st0" x1="41.9" y1="72.3" x2="39.2" y2="73.9"/>
	<line class="st0" x1="37.4" y1="69.5" x2="33.9" y2="69"/>
	<line class="st0" x1="38.8" y1="78.5" x2="42.4" y2="78.8"/>
	<line class="st0" x1="38.2" y1="82" x2="39.4" y2="85"/>
	<line class="st0" x1="6.2" y1="46.1" x2="3.8" y2="48.6"/>
	<line class="st0" x1="3.7" y1="52.5" x2="7.7" y2="53.6"/>
	<line class="st0" x1="2.7" y1="56.3" x2="3.8" y2="59.9"/>
	<path class="st0" d="M4.4,62.9"/>
	<line class="st0" x1="4.4" y1="62.9" x2="1.4" y2="65.3"/>
	<line class="st0" x1="4.4" y1="68.5" x2="4.1" y2="72.2"/>
	<line class="st0" x1="1.7" y1="75.4" x2="4.6" y2="77.4"/>
	<line class="st0" x1="2.1" y1="81.1" x2="0.4" y2="84.1"/>
	<line class="st0" x1="0.3" y1="43.8" x2="3.6" y2="44.5"/>
	<line class="st0" x1="8.5" y1="85.4" x2="7.4" y2="81.9"/>
	<line class="st0" x1="13.5" y1="83.6" x2="16.7" y2="81.4"/>
	<line class="st0" x1="8.6" y1="77.5" x2="11.9" y2="76.9"/>
	<line class="st0" x1="12.6" y1="70.3" x2="9.9" y2="72.9"/>
	<line class="st0" x1="6.7" y1="67.5" x2="10.3" y2="67.6"/>
	<line class="st0" x1="10.8" y1="57" x2="6.7" y2="57.3"/>
	<line class="st0" x1="11.3" y1="60.1" x2="9.3" y2="63.1"/>
	<line class="st0" x1="14.3" y1="63.8" x2="16.8" y2="65.8"/>
	<line class="st0" x1="14.3" y1="56.1" x2="15.4" y2="59.9"/>
	<line class="st0" x1="18.2" y1="55.1" x2="21.3" y2="56.8"/>
	<line class="st0" x1="26.3" y1="56" x2="24.4" y2="59.1"/>
	<line class="st0" x1="19.7" y1="58.8" x2="18.8" y2="62.5"/>
	<line class="st0" x1="21.9" y1="64.8" x2="25.3" y2="64.3"/>
	<line class="st0" x1="28.1" y1="65.6" x2="31.3" y2="67.6"/>
	<line class="st0" x1="29.9" y1="72" x2="27.8" y2="74.9"/>
	<line class="st0" x1="34.9" y1="77.4" x2="33.4" y2="74.1"/>
	<line class="st0" x1="31.5" y1="84.2" x2="34.2" y2="81.1"/>
	<line class="st0" x1="30.3" y1="78.9" x2="26.3" y2="78.9"/>
	<line class="st0" x1="26.4" y1="84.6" x2="24.7" y2="81.6"/>
	<line class="st0" x1="19.7" y1="83.2" x2="20.8" y2="80.1"/>
	<line class="st0" x1="20.3" y1="74.1" x2="23.5" y2="75.5"/>
	<line class="st0" x1="23.9" y1="71.9" x2="25.2" y2="68.4"/>
	<line class="st0" x1="19.8" y1="67.8" x2="16.7" y2="69.9"/>
	<line class="st0" x1="14.9" y1="73.8" x2="17.3" y2="76.9"/>
	<line class="st0" x1="52.4" y1="50.6" x2="54.6" y2="53.2"/>
	<line class="st0" x1="52.5" y1="46.9" x2="55.9" y2="47"/>
	<line class="st0" x1="63.4" y1="50" x2="66.1" y2="52.1"/>
	<line class="st0" x1="59.9" y1="49" x2="57.7" y2="51.7"/>
	<line class="st0" x1="61.5" y1="45.1" x2="58.7" y2="43.3"/>
	<line class="st0" x1="66.7" y1="43.5" x2="64.5" y2="45"/>
	<line class="st0" x1="70" y1="47.2" x2="68.5" y2="50"/>
	<line class="st0" x1="71.7" y1="44.3" x2="74.2" y2="45.5"/>
	<line class="st0" x1="78.1" y1="45.9" x2="80.1" y2="43.5"/>
	<line class="st0" x1="82.9" y1="46.9" x2="85.6" y2="49.1"/>
	<line class="st0" x1="78.7" y1="50.5" x2="79.4" y2="53.5"/>
	<line class="st0" x1="74.5" y1="50.5" x2="72" y2="53.1"/>
	<line class="st0" x1="85.5" y1="53.5" x2="83.4" y2="56.1"/>
	<line class="st0" x1="82" y1="59.9" x2="85.4" y2="61"/>
	<line class="st0" x1="78.1" y1="57.1" x2="74" y2="57"/>
	<line class="st0" x1="74.2" y1="60.6" x2="71.4" y2="62"/>
	<line class="st0" x1="78.2" y1="61.7" x2="77.2" y2="65.1"/>
	<line class="st0" x1="83" y1="64.9" x2="84.7" y2="67.6"/>
	<line class="st0" x1="85" y1="72.2" x2="82.2" y2="73.9"/>
	<line class="st0" x1="80.5" y1="69.5" x2="77" y2="69"/>
	<line class="st0" x1="81.9" y1="78.5" x2="85.5" y2="78.7"/>
	<line class="st0" x1="81.5" y1="81.8" x2="82.7" y2="84.8"/>
	<line class="st0" x1="49.2" y1="46.1" x2="46.9" y2="48.6"/>
	<line class="st0" x1="46.7" y1="52.5" x2="50.7" y2="53.6"/>
	<line class="st0" x1="45.7" y1="56.2" x2="46.9" y2="59.9"/>
	<path class="st0" d="M47.5,62.9"/>
	<line class="st0" x1="47.5" y1="62.9" x2="44.5" y2="65.2"/>
	<line class="st0" x1="47.5" y1="68.5" x2="47.1" y2="72.1"/>
	<line class="st0" x1="44.7" y1="75.4" x2="47.6" y2="77.4"/>
	<line class="st0" x1="45.1" y1="81.1" x2="43.5" y2="84.1"/>
	<line class="st0" x1="43.4" y1="43.7" x2="46.6" y2="44.5"/>
	<line class="st0" x1="51.6" y1="85.2" x2="50.5" y2="81.7"/>
	<line class="st0" x1="56.4" y1="84.4" x2="59.6" y2="82.3"/>
	<line class="st0" x1="51.6" y1="77.5" x2="55" y2="76.9"/>
	<line class="st0" x1="54.8" y1="70.2" x2="52" y2="72.8"/>
	<line class="st0" x1="49.7" y1="66.4" x2="53.4" y2="66.5"/>
	<line class="st0" x1="53.9" y1="57" x2="49.7" y2="57.2"/>
	<line class="st0" x1="54.4" y1="60.1" x2="52.4" y2="63.1"/>
	<line class="st0" x1="57.4" y1="63.7" x2="59.9" y2="65.7"/>
	<line class="st0" x1="57.4" y1="56.1" x2="58.5" y2="59.9"/>
	<line class="st0" x1="61.2" y1="55.1" x2="64.7" y2="55.7"/>
	<line class="st0" x1="68.3" y1="55.1" x2="69.3" y2="58.6"/>
	<line class="st0" x1="64.5" y1="59.7" x2="61.9" y2="62.5"/>
	<line class="st0" x1="65" y1="64.7" x2="68.4" y2="64.2"/>
	<line class="st0" x1="71.1" y1="65.6" x2="74.4" y2="67.6"/>
	<line class="st0" x1="73" y1="71.1" x2="70.9" y2="74"/>
	<line class="st0" x1="78" y1="77.4" x2="76.5" y2="74.1"/>
	<line class="st0" x1="74.5" y1="83.7" x2="77.2" y2="80.6"/>
	<line class="st0" x1="73.1" y1="78.9" x2="69.6" y2="77"/>
	<line class="st0" x1="69.5" y1="85.2" x2="67.7" y2="82.2"/>
	<line class="st0" x1="63.2" y1="81.6" x2="64.4" y2="78.5"/>
	<line class="st0" x1="63" y1="72.9" x2="66.2" y2="74.2"/>
	<line class="st0" x1="65.8" y1="70.9" x2="69.1" y2="69.2"/>
	<line class="st0" x1="62.9" y1="67.7" x2="59.7" y2="69.9"/>
	<line class="st0" x1="58.1" y1="74.9" x2="60.5" y2="78.1"/>
</g>
</svg>
