<?xml version="1.0" encoding="utf-8"?>
<!-- Generator: Adobe Illustrator 23.0.1, SVG Export Plug-In . SVG Version: 6.00 Build 0)  -->
<svg version="1.1" id="Layer_1" xmlns="http://www.w3.org/2000/svg" xmlns:xlink="http://www.w3.org/1999/xlink" x="0px" y="0px"
	 viewBox="0 0 72 72" style="enable-background:new 0 0 72 72;" xml:space="preserve">
<style type="text/css">
	.st0{clip-path:url(#SVGID_1_);fill:none;stroke:#000000;stroke-width:0.5;stroke-linecap:square;}
	.st1{clip-path:url(#SVGID_1_);fill:none;stroke:#000000;stroke-width:0.3;stroke-linecap:square;}
</style>
<g>
	<defs>
		<rect id="SVGID_3_" y="0" width="72" height="72"/>
	</defs>
	<clipPath id="SVGID_1_">
		<use xlink:href="#SVGID_3_"  style="overflow:visible;"/>
	</clipPath>
	<path class="st0" d="M0,20.7c3.2-4.3,6.8-9.8,8-12.5"/>
	<path class="st0" d="M10.6,5.4C11.7,4.3,13.3,2.3,15,0"/>
	<path class="st0" d="M17.7,22.1c2.8-2.8,9-11.5,11-15.8"/>
	<path class="st0" d="M23.3,40.7C26,38,34.3,27.9,36.3,23.7"/>
	<path class="st0" d="M39,18.1c2.5-2.5,10-12.9,13-18.1"/>
	<path class="st0" d="M15.9,25.9c-2.5,4-9.6,12-12.7,14.4"/>
	<path class="st0" d="M0,46.1c0.8-1.1,1.6-2.1,2.1-2.9"/>
	<path class="st0" d="M31.9,2.6C32.5,2,33.3,1.1,34.2,0"/>
	<path class="st0" d="M22.1,44.9C19.9,48.4,10.5,60,6.6,63.1"/>
	<path class="st0" d="M41.4,42.7c-1.6,3.3-6.7,7.8-9.7,11.6c-0.8,1-1.6,1.9-2.2,2.5"/>
	<path class="st0" d="M55.4,23.6c-1.6,3.3-6.7,7.8-9.7,11.6c-0.8,1-1.6,1.9-2.2,2.5"/>
	<path class="st0" d="M49.9,51.5c0.6-0.6,1.3-1.5,2.2-2.5c3.1-3.8,8.2-8.3,9.7-11.6"/>
	<path class="st0" d="M58.4,17.3c0.6-0.6,1.3-1.5,2.2-2.5c3.1-3.8,8.2-8.3,9.7-11.6"/>
	<path class="st0" d="M67.3,26.3c1-1,2.8-3.3,4.7-5.9"/>
	<path class="st0" d="M72,45.8C72,45.8,72,45.8,72,45.8c-3.2,4.2-8,12.5-10.5,14.5"/>
	<path class="st0" d="M26.3,59.4c-1.2,2.6-8.6,9-11.2,12.6"/>
	<path class="st0" d="M57.1,64c-0.4,0.8-4.9,6.8-5.6,8c0,0,0,0,0,0"/>
	<path class="st0" d="M45.7,55.8C44,59.2,38,67.4,34.3,72"/>
	<path class="st0" d="M71.2,61c-1.6,2.3-6,7.5-9.1,11"/>
	<path class="st1" d="M23.9,0c-0.5,0.6-1,1.2-1.5,1.7"/>
	<path class="st1" d="M19.9,4.4c0.3-0.3,0.5-0.6,0.8-0.9"/>
	<path class="st1" d="M20.7,3.5c0.5-0.6,1.1-1.2,1.6-1.8"/>
	<path class="st0" d="M60.3,1.9C60.2,2,60,2.1,59.9,2.2"/>
	<path class="st0" d="M61.9,0.1c-0.6,0.7-1.1,1.3-1.6,1.8"/>
	<path class="st1" d="M1.9,29.3c0.4-0.5,0.8-1,1.1-1.4"/>
	<path class="st1" d="M0,31.7c0.1-0.2,0.3-0.3,0.4-0.5"/>
	<path class="st1" d="M0.4,31.2c0.5-0.6,1-1.3,1.5-1.9"/>
	<path class="st1" d="M19.4,33.1c0.5-0.6,1-1.2,1.5-1.8"/>
	<path class="st1" d="M17.8,35c0.5-0.6,1-1.2,1.6-1.9"/>
	<path class="st1" d="M25.5,25.6c-0.5,0.6-0.9,1.2-1.5,1.9"/>
	<path class="st1" d="M21,31.3c0.5-0.6,1-1.3,1.5-1.9"/>
	<path class="st1" d="M22.5,29.4c0.5-0.6,1-1.3,1.5-1.9"/>
	<path class="st1" d="M27.1,23.6c0.2-0.3,0.4-0.5,0.5-0.7"/>
	<path class="st1" d="M27.1,23.6c-0.4,0.6-1,1.3-1.5,2"/>
	<path class="st1" d="M16.6,36.3c0.3-0.4,0.7-0.8,1.2-1.3"/>
	<path class="st1" d="M42.1,4.4c-0.5,0.6-1,1.3-1.5,1.9"/>
	<path class="st1" d="M37.4,9.9C38,9.4,38.5,8.8,39,8.1"/>
	<path class="st1" d="M40.6,6.3c-0.5,0.6-1,1.3-1.6,1.9"/>
	<path class="st1" d="M37.4,9.9c-0.2,0.2-0.4,0.5-0.6,0.7"/>
	<path class="st1" d="M43.6,2.4c0.2-0.3,0.4-0.6,0.7-0.9"/>
	<path class="st1" d="M42.1,4.4c0.5-0.7,1-1.3,1.5-2"/>
	<path class="st1" d="M70.8,33c0.4-0.5,0.8-1,1.2-1.5"/>
	<path class="st1" d="M67.5,36.6c-0.2,0.2-0.5,0.5-0.7,0.7"/>
	<path class="st1" d="M69.1,34.8c0.5-0.6,1.1-1.2,1.6-1.8"/>
	<path class="st1" d="M67.5,36.6c0.5-0.6,1.1-1.2,1.7-1.8"/>
	<path class="st1" d="M15.4,11.9c-0.5,0.6-1,1.3-1.6,2"/>
	<path class="st1" d="M12.2,15.7c0.5-0.6,1-1.2,1.5-1.8"/>
	<path class="st1" d="M16.3,10.6c-0.3,0.4-0.6,0.8-1,1.3"/>
	<path class="st1" d="M10.6,17.5c-0.6,0.6-1.1,1.2-1.7,1.8"/>
	<path class="st1" d="M12.2,15.7c-0.5,0.6-1.1,1.2-1.6,1.8"/>
	<path class="st1" d="M9,19.3c-0.2,0.2-0.4,0.5-0.7,0.7"/>
	<path class="st1" d="M50.5,16.2c0.5-0.7,1-1.3,1.5-2"/>
	<path class="st1" d="M46.1,22.1c0.5-0.6,1-1.3,1.5-1.9"/>
	<path class="st1" d="M53.4,12.2c0.5-0.8,1-1.4,1.4-2"/>
	<path class="st1" d="M50.5,16.2c-0.5,0.7-1,1.3-1.5,2"/>
	<path class="st1" d="M52,14.2c0.5-0.7,1-1.4,1.4-2"/>
	<path class="st1" d="M54.8,10.2c0.2-0.2,0.3-0.4,0.4-0.6"/>
	<path class="st1" d="M49.1,18.2c-0.5,0.7-1,1.3-1.5,2"/>
	<path class="st1" d="M46.1,22.1c-0.6,0.7-1.1,1.3-1.5,1.9"/>
	<path class="st1" d="M44.6,24c-0.4,0.5-0.8,1-1.2,1.3"/>
	<path class="st1" d="M49.8,40.7c0.2-0.2,0.4-0.4,0.6-0.7"/>
	<path class="st1" d="M50.4,40.1c0.5-0.6,1.1-1.1,1.6-1.8"/>
	<path class="st1" d="M55.2,34.6c-0.5,0.6-1,1.2-1.5,1.8"/>
	<path class="st1" d="M55.2,34.6c0.5-0.7,1.1-1.3,1.5-1.9"/>
	<path class="st1" d="M53.7,36.4c-0.5,0.6-1.1,1.3-1.6,1.9"/>
	<path class="st1" d="M57.8,31.3c-0.3,0.4-0.7,0.9-1,1.4"/>
	<path class="st1" d="M52,62.3c-0.4,0.4-0.8,0.8-1.1,1.2"/>
	<path class="st1" d="M58.3,54.8c-0.5,0.6-1,1.3-1.6,2"/>
	<path class="st1" d="M58.3,54.8c0.2-0.3,0.4-0.5,0.6-0.8"/>
	<path class="st1" d="M53.6,60.5c-0.5,0.6-1.1,1.2-1.6,1.8"/>
	<path class="st1" d="M55.2,58.7c-0.5,0.6-1.1,1.2-1.6,1.8"/>
	<path class="st1" d="M56.8,56.8c-0.5,0.6-1,1.2-1.5,1.8"/>
	<path class="st1" d="M5.6,51.8c0.3-0.3,0.6-0.6,0.8-0.9"/>
	<path class="st1" d="M8,49.2c0.5-0.6,1.1-1.2,1.6-1.9"/>
	<path class="st1" d="M6.4,51c0.5-0.6,1.1-1.1,1.6-1.7"/>
	<path class="st1" d="M9.6,47.4c0.5-0.6,1.1-1.3,1.6-1.9"/>
	<path class="st1" d="M13.6,42.5c-0.3,0.3-0.5,0.7-0.8,1.1"/>
	<path class="st1" d="M11.2,45.5c0.5-0.7,1.1-1.3,1.6-1.9"/>
	<path class="st1" d="M27,68.2c0.3-0.4,0.7-0.9,0.9-1.3"/>
	<path class="st1" d="M24,71.9c0.5-0.6,1.1-1.3,1.6-1.9"/>
	<path class="st1" d="M25.5,70.1c0.5-0.6,1-1.2,1.5-1.8"/>
	<path class="st1" d="M24.2,51.6c-0.3,0.3-0.6,0.7-0.9,0.9"/>
	<path class="st1" d="M25.8,49.8c0.5-0.6,1-1.2,1.6-1.9"/>
	<path class="st1" d="M27.4,48c0.5-0.6,1-1.2,1.5-1.9"/>
	<path class="st1" d="M33.5,40.3c0.4-0.6,0.8-1,1.1-1.4"/>
	<path class="st1" d="M25.8,49.8c-0.6,0.7-1.1,1.3-1.6,1.8"/>
	<path class="st1" d="M28.9,46.1c0.5-0.7,1.1-1.3,1.6-1.9"/>
	<path class="st1" d="M30.5,44.1c0.5-0.7,1-1.3,1.5-1.9"/>
	<path class="st1" d="M32,42.2c0.6-0.7,1.1-1.4,1.5-1.9"/>
	<line class="st1" x1="0" y1="0.1" x2="13.8" y2="13.9"/>
	<line class="st1" x1="25.5" y1="25.6" x2="13.8" y2="13.9"/>
	<line class="st1" x1="56.8" y1="56.8" x2="25.5" y2="25.6"/>
	<line class="st1" x1="56.8" y1="56.8" x2="71.9" y2="72"/>
	<line class="st1" x1="68.6" y1="72" x2="55.2" y2="58.7"/>
	<line class="st1" x1="12.2" y1="15.7" x2="24.1" y2="27.5"/>
	<line class="st1" x1="24.1" y1="27.5" x2="55.2" y2="58.7"/>
	<line class="st1" x1="0" y1="3.4" x2="12.2" y2="15.7"/>
	<line class="st1" x1="65.2" y1="72" x2="53.6" y2="60.5"/>
	<line class="st1" x1="0" y1="6.8" x2="10.6" y2="17.5"/>
	<line class="st1" x1="22.5" y1="29.4" x2="10.6" y2="17.5"/>
	<line class="st1" x1="22.5" y1="29.4" x2="33.5" y2="40.3"/>
	<line class="st1" x1="53.6" y1="60.5" x2="33.5" y2="40.3"/>
	<line class="st1" x1="21" y1="31.3" x2="9" y2="19.3"/>
	<line class="st1" x1="21" y1="31.3" x2="32" y2="42.2"/>
	<line class="st1" x1="61.7" y1="72" x2="52" y2="62.3"/>
	<line class="st1" x1="32" y1="42.2" x2="52" y2="62.3"/>
	<line class="st1" x1="0" y1="10.3" x2="9" y2="19.3"/>
	<line class="st1" x1="19.4" y1="33.1" x2="30.5" y2="44.1"/>
	<line class="st1" x1="19.4" y1="33.1" x2="0" y2="13.7"/>
	<line class="st1" x1="58.3" y1="72" x2="30.5" y2="44.1"/>
	<line class="st1" x1="17.8" y1="35" x2="28.9" y2="46.1"/>
	<line class="st1" x1="54.8" y1="72" x2="28.9" y2="46.1"/>
	<line class="st1" x1="0" y1="17.2" x2="17.8" y2="35"/>
	<line class="st1" x1="0" y1="20.6" x2="27.4" y2="48"/>
	<line class="st1" x1="51.4" y1="72" x2="27.4" y2="48"/>
	<line class="st1" x1="48" y1="72" x2="25.8" y2="49.8"/>
	<line class="st1" x1="0" y1="24" x2="25.8" y2="49.8"/>
	<line class="st1" x1="0" y1="27.4" x2="1.9" y2="29.3"/>
	<line class="st1" x1="24.2" y1="51.6" x2="1.9" y2="29.3"/>
	<line class="st1" x1="44.6" y1="72" x2="24.2" y2="51.6"/>
	<line class="st1" x1="0.4" y1="31.2" x2="12.8" y2="43.5"/>
	<line class="st1" x1="0" y1="30.8" x2="0.4" y2="31.2"/>
	<line class="st1" x1="41.2" y1="72" x2="12.8" y2="43.5"/>
	<line class="st1" x1="37.7" y1="72" x2="11.2" y2="45.5"/>
	<line class="st1" x1="0" y1="34.3" x2="11.2" y2="45.5"/>
	<line class="st1" x1="9.6" y1="47.4" x2="34.3" y2="72"/>
	<line class="st1" x1="0" y1="37.7" x2="9.6" y2="47.4"/>
	<line class="st1" x1="8" y1="49.2" x2="27" y2="68.2"/>
	<line class="st1" x1="30.8" y1="72" x2="27" y2="68.2"/>
	<line class="st1" x1="0" y1="41.2" x2="8" y2="49.2"/>
	<line class="st1" x1="6.4" y1="51" x2="25.5" y2="70.1"/>
	<line class="st1" x1="0" y1="44.5" x2="6.4" y2="51"/>
	<line class="st1" x1="27.5" y1="72" x2="25.5" y2="70.1"/>
	<line class="st1" x1="0" y1="48" x2="24" y2="71.9"/>
	<line class="st1" x1="0" y1="51.5" x2="20.5" y2="72"/>
	<line class="st1" x1="0" y1="54.8" x2="17.2" y2="72"/>
	<line class="st1" x1="0" y1="58.3" x2="13.7" y2="72"/>
	<line class="st1" x1="0" y1="61.7" x2="10.3" y2="72"/>
	<line class="st1" x1="0" y1="65.2" x2="6.8" y2="72"/>
	<line class="st1" x1="0" y1="68.6" x2="3.4" y2="72"/>
	<line class="st1" x1="72" y1="3.5" x2="68.5" y2="0"/>
	<line class="st1" x1="72" y1="6.7" x2="65.3" y2="0"/>
	<line class="st1" x1="72" y1="10.2" x2="61.9" y2="0.1"/>
	<line class="st1" x1="58.4" y1="0" x2="60.3" y2="1.9"/>
	<line class="st1" x1="72" y1="13.6" x2="60.3" y2="1.9"/>
	<line class="st1" x1="72" y1="17.1" x2="54.9" y2="0"/>
	<line class="st1" x1="72" y1="20.5" x2="51.5" y2="0"/>
	<line class="st1" x1="48" y1="0" x2="72" y2="24"/>
	<line class="st1" x1="44.6" y1="0" x2="54.8" y2="10.2"/>
	<line class="st1" x1="54.8" y1="10.2" x2="72" y2="27.4"/>
	<line class="st1" x1="53.4" y1="12.2" x2="72" y2="30.8"/>
	<line class="st1" x1="43.6" y1="2.4" x2="53.4" y2="12.2"/>
	<line class="st1" x1="41.2" y1="0" x2="43.6" y2="2.4"/>
	<line class="st1" x1="42.1" y1="4.4" x2="37.8" y2="0"/>
	<line class="st1" x1="52" y1="14.2" x2="42.1" y2="4.4"/>
	<line class="st1" x1="52" y1="14.2" x2="70.8" y2="33"/>
	<line class="st1" x1="72" y1="34.2" x2="70.8" y2="33"/>
	<line class="st1" x1="50.5" y1="16.2" x2="40.6" y2="6.3"/>
	<line class="st1" x1="72" y1="37.7" x2="69.1" y2="34.8"/>
	<line class="st1" x1="34.3" y1="0" x2="40.6" y2="6.3"/>
	<line class="st1" x1="50.5" y1="16.2" x2="69.1" y2="34.8"/>
	<line class="st1" x1="30.9" y1="0" x2="39" y2="8.1"/>
	<line class="st1" x1="49.1" y1="18.2" x2="39" y2="8.1"/>
	<line class="st1" x1="72" y1="41.1" x2="67.5" y2="36.6"/>
	<line class="st1" x1="67.5" y1="36.6" x2="49.1" y2="18.2"/>
	<line class="st1" x1="37.4" y1="9.9" x2="27.5" y2="0"/>
	<line class="st1" x1="72" y1="44.5" x2="47.6" y2="20.1"/>
	<line class="st1" x1="37.4" y1="9.9" x2="47.6" y2="20.1"/>
	<line class="st1" x1="46.1" y1="22.1" x2="24" y2="0"/>
	<line class="st1" x1="56.7" y1="32.7" x2="46.1" y2="22.1"/>
	<line class="st1" x1="72" y1="48" x2="56.7" y2="32.7"/>
	<line class="st1" x1="22.3" y1="1.7" x2="44.6" y2="24"/>
	<line class="st1" x1="20.6" y1="0" x2="22.3" y2="1.7"/>
	<line class="st1" x1="72" y1="51.4" x2="55.2" y2="34.6"/>
	<line class="st1" x1="55.2" y1="34.6" x2="44.6" y2="24"/>
	<line class="st1" x1="20.7" y1="3.5" x2="53.7" y2="36.4"/>
	<line class="st1" x1="17.2" y1="0" x2="20.7" y2="3.5"/>
	<line class="st1" x1="72" y1="54.8" x2="53.7" y2="36.4"/>
	<line class="st1" x1="72" y1="58.3" x2="52" y2="38.3"/>
	<line class="st1" x1="13.7" y1="0" x2="52" y2="38.3"/>
	<line class="st1" x1="72" y1="61.7" x2="50.4" y2="40.1"/>
	<line class="st1" x1="10.3" y1="0" x2="50.4" y2="40.1"/>
	<line class="st1" x1="6.9" y1="0" x2="72" y2="65.1"/>
	<line class="st1" x1="3.5" y1="0" x2="15.4" y2="11.9"/>
	<line class="st1" x1="58.3" y1="54.8" x2="72" y2="68.5"/>
	<line class="st1" x1="27.1" y1="23.6" x2="58.3" y2="54.8"/>
	<line class="st1" x1="27.1" y1="23.6" x2="15.4" y2="11.9"/>
</g>
</svg>
