<?xml version="1.0" encoding="utf-8"?>
<!-- Generator: Adobe Illustrator 23.0.1, SVG Export Plug-In . SVG Version: 6.00 Build 0)  -->
<svg version="1.1" id="Layer_1" xmlns="http://www.w3.org/2000/svg" xmlns:xlink="http://www.w3.org/1999/xlink" x="0px" y="0px"
	 viewBox="0 0 53.5 53.5" style="enable-background:new 0 0 53.5 53.5;" xml:space="preserve">
<style type="text/css">
	.st0{clip-path:url(#SVGID_1_);fill:none;stroke:#000000;stroke-width:0.3;}
</style>
<g>
	<defs>
		<rect id="SVGID_3_" x="0" y="0" width="53.5" height="53.5"/>
	</defs>
	<clipPath id="SVGID_1_">
		<use xlink:href="#SVGID_3_"  style="overflow:visible;"/>
	</clipPath>
	<path class="st0" d="M0,7.4c1.9-1.8,4.5-4.7,5.6-5.9l0.8-1"/>
	<path class="st0" d="M4.1,5.2c-1,1.2-2.4,3.2-3.2,3.9c-0.2,0.2-0.6,0.6-0.9,1"/>
	<path class="st0" d="M8.7,1.8c-1.8,2-4.2,4.3-4.8,6C3.3,9.2,1.6,11.6,0,13.4"/>
	<path class="st0" d="M9,10.5c-2.2,2-3.7,4.3-4.7,5.6C3.5,17.2,2,18.6,0,20"/>
	<path class="st0" d="M12.8,14.3c-1,1.1-6.8,8.2-8.4,10c-1.2,1.3-2.9,2.8-4.4,4.1"/>
	<path class="st0" d="M8.3,22.3c-1.4,1.3-4,4.2-5,5.6c-0.7,1-2.1,2.8-3.3,4.2"/>
	<path class="st0" d="M6.8,26c-1.6,1.9-4.1,5-4.8,6.5C1.4,33.5,1,34.2,0,35.4"/>
	<path class="st0" d="M15.1,19.2c-2.1,2.9-5.5,5.9-7.3,8.6s-3.3,4.9-5,7.4c-1.3,1.8-2,3-2.8,3.9"/>
	<path class="st0" d="M12.8,28.3c-1.8,2.4-6.8,7.2-8.5,8.8c-1.3,1.2-2.9,3.2-4.3,4.7"/>
	<path class="st0" d="M8.3,35c-0.9,0.7-3.3,3.3-5.8,6.1c-0.9,1-1.8,1.8-2.5,2.6"/>
	<path class="st0" d="M15.8,27c-1.7,1.8-4.8,5.7-6.2,8.1c-1.4,2.4-4.8,7.3-6.5,8.8c-1,0.9-2,1.4-3.2,2.3"/>
	<path class="st0" d="M25.2,21.1c-2.1,2.3-8.6,11.2-11.3,13.3c-2.7,2.1-6.8,7.1-8.4,9.3c-1.5,2-3.3,4.3-5.5,6.7"/>
	<path class="st0" d="M3.3,1.7C2.6,2.6,1.4,3.1,0.9,4C0.7,4.5,0.3,4.8,0,5.1"/>
	<path class="st0" d="M45.9,15c0.8-0.8,2.4-2.8,3.7-3.9s2.9-2.7,2.9-2.7c0.3-0.2,0.6-0.5,1-0.9"/>
	<path class="st0" d="M34.1,31.3c1.8-1.6,4.6-5.1,6.9-8s5.4-6.3,7.3-7.8s2.6-2.3,2.6-2.3c0.7-1,1.8-2.2,2.6-3.1"/>
	<path class="st0" d="M36.8,36.2c0.8-0.6,3.5-3.5,4.4-5.1c0.8-1.4,4.8-9.3,6.2-11.2s5-5.4,5-5.4c0.3-0.3,0.7-0.7,1.1-1.2"/>
	<path class="st0" d="M52.5,20.7c0.3-0.2,0.7-0.5,1-0.7"/>
	<path class="st0" d="M45.6,32.1c1.3-1.4,3.6-3.6,4.4-4.9s1.9-2.7,1.9-2.7c0.4-0.6,0.9-1.2,1.5-1.8"/>
	<path class="st0" d="M44.8,35.3c0.8-1.2,2.8-3,4.3-4.5s2-1.8,2-1.8c0.9-0.9,1.7-1.7,2.5-2.5"/>
	<path class="st0" d="M35.2,53l1.2-1.5c0.6-0.8,1.9-2.8,3.5-5.3s2.9-5.5,4.4-7.4s4.1-4.3,5.3-6.3s2.3-2.9,2.3-2.9
		c0.5-0.4,1-0.8,1.6-1.3"/>
	<path class="st0" d="M48.9,36c1.6-1.6,3.5-2.6,3.5-2.6c0.3-0.3,0.7-0.8,1.2-1.3"/>
	<path class="st0" d="M51.9,37.1c0.7-0.7,1.2-1.2,1.6-1.7"/>
	<path class="st0" d="M42.2,51.4c2-2.5,5.8-6.4,6.7-7.3s3.7-4,3.7-4c0.3-0.3,0.6-0.6,0.9-0.9"/>
	<path class="st0" d="M45.2,53.5c0.2-0.2,0.3-0.4,0.5-0.6c0,0,1.2-1.6,2.3-3.5s2.2-2.8,2.2-2.8c0.9-0.6,2-1.6,3.3-3"/>
	<path class="st0" d="M47.8,53.5c0.2-0.2,0.4-0.5,0.7-0.7c0,0,0.6-0.9,1.1-2.1s1-1.9,1-1.9c1.1-1.2,2.1-2,3-2.6"/>
	<path class="st0" d="M50.5,53.5c0.3-0.3,0.5-0.5,0.8-0.7l1.6-1.7c0.2-0.2,0.4-0.4,0.6-0.6"/>
	<path class="st0" d="M36.9,25.9c0.6-1.1,3.4-5.3,4.6-7.2s7.2-9.3,8.3-10.4s2.9-2.5,2.9-2.5c0.2-0.2,0.5-0.5,0.7-0.7"/>
	<path class="st0" d="M9.9,23.1c0.7-0.8,2.7-3.1,4.4-5c1.8-1.9,4.4-6.4,5.7-8.4s5.6-7.3,7-8.8"/>
	<path class="st0" d="M10.2,27.6c1.5-1.9,4.3-5.5,5.7-6.9c1.3-1.4,4.6-5.2,6.8-8c2.3-2.8,8.5-8.5,10.7-11"/>
	<path class="st0" d="M23.7,18.3C25.3,16.1,35.1,6,37.8,2.8"/>
	<path class="st0" d="M22.8,15c-2.5,3.2-8.4,9.8-10.3,12c-1.8,2.2-5,5.2-6.3,6.3"/>
	<path class="st0" d="M36.5,6.7c-0.6,0.7-1.8,2.1-3.2,3.3c-1.3,1.2-3.9,3.9-5.6,5.8c-1.7,1.8-5,5.5-6.8,7.8s-6.6,7.8-9.1,10.4"/>
	<path class="st0" d="M33.7,12.3c-1.3,1.6-3.9,4.4-5.4,6.6c-1.5,2.2-5.3,7.2-6.7,9.2c-1.4,2-2.6,3.3-3.3,3.9"/>
	<path class="st0" d="M25.8,24.5c2.3-2.3,7.7-7.8,9.9-9.6c2.3-1.8,4.8-4.8,6.1-6.5"/>
	<path class="st0" d="M52.8,53.5c0.2-0.1,0.5-0.3,0.7-0.5"/>
	<path class="st0" d="M49.5,2.8c-0.4,0.4-0.8,0.8-1.1,1.2c-0.6,0.8-2.1,3.1-3.3,4.4"/>
	<path class="st0" d="M16.6,37c-1.1,0.9-4.6,4.6-5.4,5.6s-2.1,3.8-3.3,5.1s-3.1,2.9-3.6,3.4l-1,1.2c-0.4,0.5-0.7,0.9-0.9,1.2"/>
	<path class="st0" d="M29.8,31.4c-2.5,2.6-8.9,9.4-11.3,11.9s-5.6,5.9-6.9,7.7c0,0,0,0.4-1.3,1.6c-0.3,0.3-0.5,0.6-0.7,0.9"/>
	<path class="st0" d="M18.5,53.5c0.3-0.4,0.6-0.8,0.9-1.2c0,0,1-1.7,2.6-4.2s7-8.6,8.7-10"/>
	<path class="st0" d="M23,53.5c0.5-1.1,1.3-2.5,2-3.2"/>
	<path class="st0" d="M12.3,53.5c0.2-0.2,0.3-0.5,0.5-0.7c0,0,1.2-2.2,2.9-3.9s4.7-4.8,6.1-6.6s8.7-9.5,10.4-12.1
		c1.7-2.6,4.4-6.3,5.4-8.1"/>
	<path class="st0" d="M39.2,30.4c-0.9,1.4-4,4.9-6.9,8.1s-7.2,8.4-8.1,9.9s-3,4.5-3,4.5c-0.2,0.2-0.4,0.4-0.6,0.6"/>
	<path class="st0" d="M51.8,21.4c-0.9,0.9-2.8,3.4-4.8,5.8s-2.9,4.8-3.7,6.5c-0.8,1.8-3.8,6.3-5.1,7.9s-3.4,4.2-5.1,6.8
		c-1.6,2.6-3.3,4.4-3.3,4.4c-0.2,0.2-0.4,0.4-0.5,0.6"/>
	<path class="st0" d="M38.2,53.5c0.5-0.5,0.9-1,1.3-1.5c0,0,3.5-3.9,5.2-6.3s5.9-9.1,7.8-11.1"/>
	<path class="st0" d="M42.2,53.5c0.3-0.3,0.5-0.6,0.8-0.8c0,0,1.4-1.6,3.4-4.3s5.7-5.4,5.7-5.4c0.4-0.3,0.9-0.7,1.3-1.2"/>
	<path class="st0" d="M27.3,24.5c-0.9,1-3.6,4-5.2,5.8s-3.9,3.8-5.7,5.1s-7,6.6-8.2,8"/>
	<path class="st0" d="M33.9,21.3c-1.4,1.1-8.8,11.8-10.6,13.9s-3.8,4.3-5.9,5.8s-5.3,4.4-6.6,5.8S7.7,51.9,6.7,53"/>
	<path class="st0" d="M37.9,15.3c-1.1,1.3-5,5-6.3,6.1c-1.3,1.1-4.4,4.6-6,6.9s-5.3,6.5-6.6,7.4"/>
	<path class="st0" d="M27.3,32.4c1.1-1.2,10.2-13.4,11.6-15.2"/>
	<path class="st0" d="M40.1,17.9C42.1,15,47,9,48.7,7.3S51.3,4.6,53,3"/>
	<path class="st0" d="M48.7,16.5c-1.4,1.5-4.3,4.6-5.4,7.1s-2.3,4.1-3,5.1"/>
	<path class="st0" d="M15.4,53.5c0.6-0.6,1.2-1.2,1.7-1.8c0,0,0.8-1.1,1.8-2.6s2.1-2.9,3.6-4.6s6.8-7.2,9.6-9.4s7.2-7.3,8.5-8.9"/>
	<path class="st0" d="M27,47.5c2.8-3.4,5.1-5.3,8.6-8.4c0.1-0.1,0.3-0.2,0.4-0.4"/>
	<path class="st0" d="M41.9,33.5c-1.6,2.9-5.3,6.8-7.3,9s-2.5,2.4-3.6,4.4c-1.1,2-1.3,2.7-1.9,3.6s-1.9,2.2-1.9,2.2
		c-0.4,0.3-0.7,0.6-1,0.9"/>
	<path class="st0" d="M43.4,30.6c1.3-2.8,4.7-7.4,6.3-8.9s2-2.2,3.1-4.1"/>
	<path class="st0" d="M44,36.3c-1.9,2.8-5.6,8.2-6.7,10.1s-2.4,3.3-3.3,4.3s-1.2,1.7-1.2,1.7c-0.3,0.3-0.6,0.7-0.9,1.1"/>
	<path class="st0" d="M46.6,38.4c-1.4,1.6-3.1,6.3-4.7,8.1s-1.4,1.8-2.6,3"/>
	<path class="st0" d="M29.8,46.1c-1.9,3.1-3.4,4.8-4.8,6.5"/>
	<path class="st0" d="M11,49c1.6-1.9,2.9-3.3,5.4-5.5"/>
	<path class="st0" d="M21.2,35.3c-1.3,1.4-5.4,4.6-7.1,6.3"/>
	<path class="st0" d="M7.7,44.5c-1.7,2.4-3.8,5.3-6,7.3C1.1,52.3,0.5,52.7,0,53"/>
	<path class="st0" d="M40.8,5.2c1.6-1.7,3.1-3.7,4.4-5.2"/>
	<path class="st0" d="M32.4,16.4c2.7-3.4,6.3-7.9,8.8-10.1c2.3-2,4-3.5,6.6-6.4"/>
	<path class="st0" d="M50.5,0c-2.3,2.2-5.1,5.3-6.5,7.4c-1.6,2.3-2.9,5.8-3.8,6.8"/>
	<path class="st0" d="M50,2.1c0.7-0.9,1.7-1.5,2.7-2.1"/>
	<path class="st0" d="M2.4,0C1.7,1,1.5,1.2,0.8,1.9"/>
	<path class="st0" d="M9.4,0C9.2,0.4,9,0.8,8.9,1.1"/>
	<path class="st0" d="M18.5,0c-2.5,3.4-4.8,6-6.3,7.5c-1.8,1.8-3.5,4.8-3.5,4.8c-1.8,2.8-3.9,5.6-5.4,7.2c-1,1.1-2.2,2.1-3.3,3.2"/>
	<path class="st0" d="M23,0c-0.5,0.9-0.8,1.7-0.8,1.7c-0.8,0.8-2.4,2.8-3.7,4.7C17.3,8.3,16,10,14,11.9c-2,1.8-6.3,5.5-7.3,6.4
		c-1.9,1.8-3.3,3.3-4.6,5.3c-0.6,1-1.4,1.9-2.2,2.8"/>
	<path class="st0" d="M5.7,8c1.8-2.3,3.4-4.2,4.5-5.3c0.9-1,1.2-1.4,2.1-2.7"/>
	<path class="st0" d="M7.9,15.7c1.8-1.6,6.6-7.3,8.8-10.2c1.8-2.5,2.8-4.3,3.8-5.5"/>
	<path class="st0" d="M17.3,16.9c1.8-2,6.9-9.2,8.5-11.5c1.4-2.1,2-3.5,3.5-5.4"/>
	<path class="st0" d="M17.6,24.6c1.2-1.3,3.2-4.5,5-7.3C24.4,14.6,31.1,7,32.7,5.4C34,4.1,36.1,2.3,38.2,0"/>
	<path class="st0" d="M35.6,9.6c1.8-2.2,4.6-7.2,6.7-9.6"/>
	<path class="st0" d="M15.4,0c-1.5,1.6-2.9,3-3.9,4c-1.3,1.3-4.8,5-6.3,7s-2.8,3.9-3.7,4.9"/>
	<path class="st0" d="M11.2,18.9c1.9-2.1,3.8-4.9,5.4-7.1c1.6-2.2,5.2-7.4,6.6-8.8c1.1-1.1,1.8-2,3-3"/>
	<path class="st0" d="M31.9,0c-2,2.5-5,6.5-6.2,7.8"/>
</g>
</svg>
