<?xml version="1.0" encoding="utf-8"?>
<!-- Generator: Adobe Illustrator 23.0.1, SVG Export Plug-In . SVG Version: 6.00 Build 0)  -->
<svg version="1.1" id="Layer_1" xmlns="http://www.w3.org/2000/svg" xmlns:xlink="http://www.w3.org/1999/xlink" x="0px" y="0px"
	 viewBox="0 0 53.7 53.7" style="enable-background:new 0 0 53.7 53.7;" xml:space="preserve">
<style type="text/css">
	.st0{clip-path:url(#SVGID_1_);fill:none;stroke:#000000;stroke-width:0.3;}
</style>
<g>
	<defs>
		<rect id="SVGID_3_" x="0" y="0" width="53.8" height="53.8"/>
	</defs>
	<clipPath id="SVGID_1_">
		<use xlink:href="#SVGID_3_"  style="overflow:visible;"/>
	</clipPath>
	<path class="st0" d="M53.7,4.2c-0.7,0.4-1.3,1-1.4,2c-0.1,1.8,0,3.6-1.1,4.5S49.1,11,49,12.4s-0.4,5.1-2.9,5.5s-3,0.3-3.9,1
		s-1.1,1.1-2,1.1s-1.3,1.4-0.1,2.4s1.6,1.1,1.6,2.3s1,1.3,2.1,1.6s5,0.6,1.6,2s-4.3,1.9-5.1,3.4s-0.6,2.8-1.9,3.3s-1.6-0.1-2.1,0.9
		s-0.5,1.4-1.4,1.4s-1.8,1.1,0.3,1.4s2.3,0.3,2.9,1.3s0.4,1.1,1.8,0.8s1.8-1.6,2.9-0.1s2.4,2.5,3.1,4.3s1.1,2.3-0.3,3.6
		s-2.6,2.3-3.4,2.6c-0.7,0.4-0.7,1.5-2.2,2.9"/>
	<path class="st0" d="M53.7,15.1c0,0-0.1,0-0.1,0.1c-1.8,0.9-1.5,1.9-1.9,2.8s-0.5,3-2.5,3.5s-3.5,0.5-1.6,1.5s3.9,4.3,3.1,5.6
		s-1.5,1.4-1.8,2.1s0.1,2.1-1.5,1.6s-2.1-0.5-2.6,1s-1.4,2.9,0,3.6s4,1.8,4,3s0.1,1.6,1.3,2.3s1.5,2.1,1.6,2.9s0.3,3.4-1.1,4.4
		s-2.9,1.2-3.8,2.2s-0.7,0.5-1.8,2.2"/>
	<path class="st0" d="M53.7,7.4c-0.2,0.5-0.4,1.1-0.5,1.7c-0.4,1.9-0.5,4.1-1.4,4c-0.8-0.1-1.3-0.5-1.6,0.9s-1.3,4.5-3,4.9
		s-3.1-0.4-4,0.4s-2.3,1.9-1.3,3s1.3,1,1.3,1.9s0,1,1.4,1s3.1,0.3,3.4,1.4s0.1,2.4-1.3,2.8s-3,0.1-3.9,1.1s-1.3,1.8-1.5,3.1
		s-0.8,2.3-1.8,2.1s-0.9,0.3-1.6,0.9s-0.9,1,0,1.3s1.4,0.1,1.4,0.9s-0.4,0.5,1.1,0.6s2.5-0.9,4.3,1.3s2.4,1.4,3,3.8s1.3,2.9,0,4
		s-3.9,2.5-4.6,3s-0.5-0.1-0.5,1.3c0,0.6-0.3,1-0.7,1.3"/>
	<path class="st0" d="M53.7,13.5c-0.2,0.3-0.4,0.5-0.8,0.6c-1.1,0.3-1.9,1.3-2.3,2.3s-1.5,3.5-2.6,3.8s-3.5,0.5-4,1
		s-0.3,0.9,0.1,1.5s0,1.3,1.3,1.4s4.3,0.8,4,2.8s-1.8,4.5-3.5,4.1s-2.5,0.4-2.6,1.6s-0.3,2.4-1.1,3.3s-3,1.6-0.8,1.9
		s2.5,0.3,3.8,1.3s1.6,0.4,2,1.6s-0.1,0.6,1.1,1.8s2.4,1.5,2.1,3.4s0,2.9-1.4,3.5s-2.5,1.1-3.3,1.8s-1.8,0.5-1.4,1.8
		c0.2,0.6-0.2,0.8-0.7,1.1"/>
	<path class="st0" d="M45,0c-1.2,1.7-1,2.3-2,4.8c0,0-1.1,0.9-0.7,3.1s1.1,3.2-0.4,4s-2.1,1.4-3.1,1.6s-1.7,0.3-1.7,0.3
		c-0.1,0-0.1,0-0.2,0c-1,0.1-0.9,0.6-0.9,1.6c0,0.9-0.5,1.1-1.8,1.6s-2.2,0.5-3,0.3s-0.9,0.4-1.1,1s-0.6,1.1-2.1,1.5
		s0.9,1.9,1.9,2.3s1.9,1.1,2.3,2.1s0.6,0.7,1.5,0.7s1.2,0.4,1.3,0.8s0.4,0.8,1.3,1.1s1.1,0.7,0.9,1.3s-0.3,0.6-0.8,0.8
		s-1.1,0.6-1.4,1.3s-0.4,0.6-1.3,1s-1.4,1.2-1.9,2.6s-2.3,1.8-3.8,1.9s-1.3,0.3-1.6,1s-0.4,0.6-1.3,1s-0.8,0.3-0.4,1.1
		s1.2,0.8,3.1,1s1.4,0.6,2.1,1.4s0.8,0.7,1.9,1.1s1.9,2.5,3,4.2s-0.1,2.6-1.6,4.4s-1.6,2.4-1.6,2.4c-0.2,0.2-0.3,0.5-0.4,0.7"/>
	<path class="st0" d="M41.9,0c-0.5,0.3-1,0.5-1.1,0.9c0,0,0.3,0.6,0.1,1.8s-0.3,1.4-0.8,2.4s-0.7,1.4-0.3,2.8s0.3,2.4-1.4,2.9
		s-4.4,0.8-4.8,1.8s-0.8,2.3-2,2.3s-2.9-0.4-3.7,0.8s-1.1,1.6-1.7,1.6s-1.9,0.2-2.1,0.9c0,0,0,1,0.9,2s0.9,0.9,0.9,1.5s-0.3,1,1,1.5
		s2.5,0.4,2.9,1.8s0.4,1.2,1.6,1.5s1.8,1.3,1.1,2.1s-2.9,1.4-2.9,2.4s-0.6,2.1-2.2,2.3s-3.4,0.3-3.3,0.9s-0.4,1.4-1.3,1.9
		c0,0-0.2,0.1-0.9,0.3s-1.2,0.5-1.2,0.5c-0.9,0.3-0.8,0.9-0.2,1.5s0.6,0.7,1,1.3s0.4,0.8,2.7,1.3s2.9,2.9,3.2,4.3s1.4,1.6,2.9,2.1
		s0.5,2.6-0.4,3.6s-1.4,1.9-1.4,1.9c-0.3,0.3-0.5,0.6-0.6,0.9"/>
	<path class="st0" d="M43.8,0c-0.6,0.4-1.4,0.8-1.5,1.8c0,0,0.3,1-0.3,1.8s-1.4,2-0.9,3.8s0.4,3.2-0.8,3.8s-2.6,1.2-3.5,1.3
		s-1.7,0.1-1.9,0.8S33.9,15,33,15.4s-0.8,0.4-2,0.6c0,0-1.3-0.1-1.8,0.9s-0.4,0.9-1.6,1.3s-2.1,0.4-1.4,1.5s0.8,1.3,0.9,1.8
		s0.3,0.8,1.4,1.1s1.9,0.2,2.5,1.4s0.6,1.3,1.4,1.6s2.2,0.6,2.1,1.6s0.4,1.8-1.1,2.6s-2.4,1.4-2.6,2.3s-0.5,2.1-2,2.3s-3,0-3.4,0.8
		s-0.2,1-1.1,1.4s-1.4,0.6-1.4,0.6c-1.3,0.2-0.9,0.6-0.5,1.6s1.3,1,2.8,1.2s3.4,2,4,2.8s1.1,2.2,3.1,3.6s0.2,3.5-0.7,4.4
		s-1.6,2.3-1.6,2.3c-0.1,0.2-0.3,0.5-0.4,0.7"/>
	<path class="st0" d="M0,4.2c0.6-0.3,1.2-0.5,1.9-0.7C3.4,3,3.6,3,4.7,1.6s1.6,0,5.5-1.5c0,0,0.1,0,0.4-0.1"/>
	<path class="st0" d="M0,15.1c1.6-0.8,1.8-1.1,2.3-2.2c0,0,0.1-0.5,0.4-2.6s0.6-3.5,2-3.6S7.9,6,7.7,5S7,3.9,9.1,4s3.1-0.8,4.8-1.9
		c0.9-0.6,1.7-1.3,2.4-2.1"/>
	<path class="st0" d="M0,7.4c0.4-0.9,1-1.6,2-2c1.5-0.6,2-1,2.6-1.8s1-1,2.5-1.5s3.2-0.6,4.6-1.3c0.4-0.2,0.8-0.5,1.2-0.9"/>
	<path class="st0" d="M0,13.5c0.5-0.7,0.6-2.1,0.8-3.3C1,8.5,1.2,8.4,1.9,7.5s2.5-1.8,3.8-2.4S6.4,4,6.9,3.4s2.5-0.6,4-0.8
		c1.2-0.1,2.8-1.4,3.9-2.6"/>
	<path class="st0" d="M10.6,53.7c0.3-0.2,0.8-0.6,1.5-1.6c1.3-1.9,2.1-2.9,2.6-3.5c0,0,1.9-3.5-1.3-3.3s-5.6-1.3-6.4-2.1
		S5.2,42.4,5,41s-0.3-1.4-1.1-1.9S-1.3,36,4,33.9s4.1-2.5,4.4-3.4S9,28.9,11,28.7s3.4-0.4,2.4-1.8s-0.9-2.1-0.9-2.1s-0.4-1-2.4-1.5
		S6.5,22,6.7,20.7s0.1-1.4-1-2.3s-1.9-2.8-1.4-4s3.7-3.3,5.6-3.9s2.4-0.5,2.5-1.4s2.9-1.5,4.6-1.9S21,7,21,5.9s1.3-2,3-2.6
		s2.5-0.6,2.5-1.8c0-0.5,0-1,0.1-1.5"/>
	<path class="st0" d="M31.3,0c-0.4,0.8-0.7,1.6-0.8,2.9c-0.2,1.6-2.2,2.6-3.5,3.2S25.2,6.8,25.3,8s-2.7,2.1-5.4,2.4s-2.8,1-3.1,1.9
		s-2.9,1.4-5.4,2.2s-1.2,2-0.3,2.4s0.6,1.1,0.6,2.2s2.3,1.4,5.3,1.9s1.4,2.8,0.8,3.9s0.3,1.8,1,2.9s-1.3,3.4-3.2,3.9
		s-2.7,0.6-3.2,1.8s-1.3,1.4-2.6,1.9s-1.7,0.6-1,1.3s0.4,0.6,0.4,1.4s-0.3,1.2,1,1.5s2.3,0.5,2.8,1.4s1.1,1.3,3.8,1.4
		s2.1,1.9,2.3,3.6s0.7,1.9,0.1,2.9s-1.4,2.5-1.4,2.5c-0.4,0.8-1,1.5-1.6,2.3"/>
	<path class="st0" d="M12.9,53.7c1.1-1,2.2-2.7,3.1-3.8c0,0,1-0.9,1-2.5s0.1-2.8-2.1-3.1s-3.9-1.3-4.9-1.8s-1.9-1.3-2.6-1.6
		s-1.1-0.3-1.1-1.5S5.6,38.2,4.9,38s-3-1.8-0.7-2.9s4.6-2.4,4.8-2.8s-0.5-1.6,2.2-2.1s5.6-1.4,4.3-3s-1.3-1.8-0.9-2.6
		s-1.6-1.8-3.9-2.6s-2.6-1.3-2.3-2.3S8.4,18.1,7,17.4s-2.7-3,0.7-4.4s5.2-2,5.6-2.8s1.9-1.5,3.7-1.8s5.4-1.1,5.4-2.1
		s0.3-1.6,1.7-1.8s3.1-0.8,3.3-2.1c0.2-1,0.2-1.7,0.5-2.4"/>
	<path class="st0" d="M14.8,53.7c0.3-0.3,0.5-0.6,0.7-0.9c0,0,1-1.6,1.8-2.8s1.5-1.8,1-3.6s-0.1-2.8-1.9-3.1s-3.2,0.4-3.9-0.8
		s-2.1-1.8-3.2-2.1s-1.8-0.1-1.7-1.3s0.8-1.6-0.7-2s-2-1.4-0.5-2.1s2.7-1.7,3.4-1.8s0.9-0.3,1.3-1s0.8-1.3,2.1-1.4s2.9-1,3.6-1.7
		s0.9-1.4,0.1-2.4c-0.8-1-1.4-1.3-0.9-1.9c0.5-0.6,1.6-2.7-1.1-3.1s-5.1-1.2-4.8-2.4s0.2-1.3-0.9-2s-2.9-2.3-0.7-3.1
		s3.8-1.6,4.4-1.7s1.7-0.8,2.1-1.5s-0.1-1.5,2.6-1.8s6.2-0.9,6.4-2.1s0.1-1.8,1.9-2.3s2.3-0.8,2.8-1.9C29,2.3,28.9,1.1,29.3,0"/>
	<path class="st0" d="M40,0c-0.1,0.1-0.2,0.2-0.3,0.3c-0.9,0.8-0.1,0.5-0.3,2.3s-0.3,2-0.9,2.9c0,0-2.1,1.4-1.1,2.4s1.4,1.5-0.1,2.1
		s-5.4,1.4-5.7,1.8s-0.4,0.3-0.2,0.9s-0.3,1.2-1.4,1.3s-2.8,0.3-3.4,1.1s-1.3,1.4-2.5,1.4s-2.8,0.3-2.3,1.2s2.1,1.6,1.9,2.4
		s0.3,1.1,0.9,2.1s0.9,2.7,2.3,2.9s1.6-0.4,1.9,0.9s0.6,1.4,1.4,1.5s1.1,0.5,0,0.9s-1.9,0.3-2,1.5s-0.4,2.1-1.7,2.3
		s-3.8,0.1-3.8,0.9s-0.3,1.8-1.7,2.2L18,36.6c-1.4,0.4-0.4,1.4,0.7,1.6s0.8,0.9,1.6,2.5s2.6,1.6,3.9,1.6s2.1,2.7,2.3,3.9
		s1.8,1.2,2.8,2.4s-1.7,3.4-1.7,3.4c-0.6,0.5-0.9,1-0.9,1.6"/>
	<line class="st0" x1="3" y1="1.9" x2="1" y2="0.7"/>
	<line class="st0" x1="7" y1="10.5" x2="6.9" y2="8.2"/>
	<line class="st0" x1="10.6" y1="8.1" x2="9.6" y2="5.9"/>
	<line class="st0" x1="5.2" y1="12.4" x2="3" y2="12.5"/>
	<line class="st0" x1="14.7" y1="5.3" x2="12.7" y2="4.6"/>
	<line class="st0" x1="18" y1="1.6" x2="15.8" y2="2.4"/>
	<line class="st0" x1="18.2" y1="6" x2="17.2" y2="4"/>
	<line class="st0" x1="23.3" y1="2.4" x2="21.3" y2="1.5"/>
	<line class="st0" x1="1.5" y1="18.9" x2="2.3" y2="16.9"/>
	<line class="st0" x1="3.7" y1="20.5" x2="5.5" y2="22"/>
	<line class="st0" x1="4.1" y1="23.9" x2="1.9" y2="24.3"/>
	<line class="st0" x1="6.9" y1="26" x2="7.7" y2="24"/>
	<line class="st0" x1="1.5" y1="41.2" x2="2.3" y2="39.2"/>
	<line class="st0" x1="11.7" y1="27.6" x2="9.5" y2="26.5"/>
	<line class="st0" x1="7.2" y1="30.6" x2="6.2" y2="28.5"/>
	<line class="st0" x1="5.2" y1="31.3" x2="2.4" y2="31.6"/>
	<line class="st0" x1="3.3" y1="29.2" x2="1.4" y2="27.2"/>
	<line class="st0" x1="11.2" y1="38.1" x2="13.3" y2="37.5"/>
	<line class="st0" x1="15.4" y1="41" x2="15.7" y2="38.9"/>
	<line class="st0" x1="20.1" y1="42.1" x2="17.8" y2="41.1"/>
	<line class="st0" x1="14.7" y1="33.7" x2="15.6" y2="36.2"/>
	<line class="st0" x1="20.4" y1="33.6" x2="17.8" y2="32.8"/>
	<line class="st0" x1="20.7" y1="28" x2="20.7" y2="30.5"/>
	<line class="st0" x1="25.9" y1="30.6" x2="23.4" y2="29.7"/>
	<line class="st0" x1="27.2" y1="26.2" x2="27.1" y2="28.7"/>
	<line class="st0" x1="24.7" y1="25.5" x2="22.7" y2="27"/>
	<line class="st0" x1="23.1" y1="24.8" x2="21.2" y2="23.4"/>
	<line class="st0" x1="19.7" y1="20.6" x2="20.8" y2="18.6"/>
	<line class="st0" x1="13.9" y1="18.4" x2="15.4" y2="19.5"/>
	<line class="st0" x1="14" y1="16.4" x2="14.9" y2="14.4"/>
	<line class="st0" x1="19" y1="17" x2="17" y2="17.6"/>
	<line class="st0" x1="18.5" y1="12" x2="19.7" y2="13.9"/>
	<line class="st0" x1="52.4" y1="53" x2="51.2" y2="51.1"/>
	<line class="st0" x1="23.8" y1="14.7" x2="25.7" y2="13.9"/>
	<line class="st0" x1="22.7" y1="12.5" x2="23.3" y2="10.5"/>
	<line class="st0" x1="28.2" y1="11.6" x2="26.7" y2="10.1"/>
	<line class="st0" x1="28.1" y1="7.9" x2="30.8" y2="7.1"/>
	<line class="st0" x1="33.3" y1="7.5" x2="33.1" y2="10"/>
	<line class="st0" x1="37.2" y1="4.6" x2="34.8" y2="5.9"/>
	<line class="st0" x1="32.7" y1="4.3" x2="32.3" y2="1.9"/>
	<line class="st0" x1="35.3" y1="1.7" x2="37.7" y2="0.9"/>
	<line class="st0" x1="48.7" y1="1.9" x2="51.4" y2="1.4"/>
	<line class="st0" x1="47" y1="4.5" x2="45.2" y2="3.1"/>
	<line class="st0" x1="47.8" y1="7" x2="48.8" y2="9"/>
	<line class="st0" x1="51.2" y1="4.3" x2="51" y2="6.6"/>
	<line class="st0" x1="44.2" y1="11.6" x2="44.7" y2="9.2"/>
	<line class="st0" x1="46.2" y1="12.9" x2="48.1" y2="11.9"/>
	<line class="st0" x1="46.2" y1="16.5" x2="45.2" y2="14.3"/>
	<line class="st0" x1="41.2" y1="13.9" x2="43.4" y2="14.2"/>
	<line class="st0" x1="41.9" y1="18" x2="40.7" y2="16"/>
	<line class="st0" x1="37.3" y1="17.8" x2="38.3" y2="15.1"/>
	<line class="st0" x1="30.7" y1="20.1" x2="32.7" y2="18.8"/>
	<line class="st0" x1="38.1" y1="20.6" x2="35.7" y2="20.4"/>
	<line class="st0" x1="33.6" y1="23.7" x2="33.7" y2="21.6"/>
	<line class="st0" x1="37" y1="25.2" x2="38.7" y2="23.5"/>
	<line class="st0" x1="40.7" y1="27.3" x2="39.5" y2="25.5"/>
	<line class="st0" x1="44.8" y1="27.5" x2="42.5" y2="27.6"/>
	<line class="st0" x1="37.4" y1="31" x2="39.1" y2="29"/>
	<line class="st0" x1="34.6" y1="32" x2="35.8" y2="34"/>
	<line class="st0" x1="31.4" y1="35.9" x2="34.2" y2="35.5"/>
	<line class="st0" x1="30.5" y1="37.7" x2="31.2" y2="40"/>
	<line class="st0" x1="26.9" y1="38.2" x2="28.6" y2="36.7"/>
	<line class="st0" x1="35.7" y1="40.9" x2="32.9" y2="41.2"/>
	<line class="st0" x1="39" y1="44" x2="39.5" y2="46.1"/>
	<line class="st0" x1="40.2" y1="42.3" x2="42.7" y2="42.5"/>
	<line class="st0" x1="46.3" y1="33.3" x2="46.5" y2="36"/>
	<line class="st0" x1="48.7" y1="36.9" x2="51" y2="35.8"/>
	<line class="st0" x1="51.1" y1="33" x2="53.3" y2="33.9"/>
	<line class="st0" x1="52.4" y1="41.5" x2="51.1" y2="39.5"/>
	<path class="st0" d="M52.3,28c0,0-0.1,2.2-0.1,2.5"/>
	<line class="st0" x1="52.8" y1="25.1" x2="51" y2="24.1"/>
	<line class="st0" x1="51.2" y1="21.9" x2="52.9" y2="19.9"/>
	<line class="st0" x1="35.7" y1="46.5" x2="36.5" y2="43.4"/>
	<line class="st0" x1="42" y1="45.4" x2="44.1" y2="46.1"/>
	<line class="st0" x1="42.5" y1="48.8" x2="39.7" y2="49"/>
	<line class="st0" x1="39.2" y1="52.8" x2="38" y2="50.6"/>
	<line class="st0" x1="36" y1="50.9" x2="33.7" y2="52.3"/>
	<line class="st0" x1="21.1" y1="44.7" x2="23.7" y2="43.9"/>
	<line class="st0" x1="20.8" y1="46.7" x2="22.7" y2="48.5"/>
	<line class="st0" x1="28.3" y1="49" x2="25.6" y2="49"/>
	<line class="st0" x1="25.1" y1="53" x2="24.5" y2="50.5"/>
	<line class="st0" x1="21.4" y1="51.3" x2="18.4" y2="52.5"/>
	<line class="st0" x1="2.9" y1="44.2" x2="5.7" y2="43"/>
	<line class="st0" x1="2.4" y1="49" x2="0.6" y2="46.7"/>
	<line class="st0" x1="7.2" y1="47.5" x2="4.2" y2="46.8"/>
	<line class="st0" x1="13.7" y1="46.6" x2="11.7" y2="48"/>
	<line class="st0" x1="8.4" y1="52.2" x2="8.2" y2="49.5"/>
	<line class="st0" x1="3.9" y1="51.3" x2="1.1" y2="52.7"/>
</g>
</svg>
