<?xml version="1.0" encoding="utf-8"?>
<!-- Generator: Adobe Illustrator 23.0.1, SVG Export Plug-In . SVG Version: 6.00 Build 0)  -->
<svg version="1.1" id="Layer_1" xmlns="http://www.w3.org/2000/svg" xmlns:xlink="http://www.w3.org/1999/xlink" x="0px" y="0px"
	 viewBox="0 0 49.7 49.7" style="enable-background:new 0 0 49.7 49.7;" xml:space="preserve">
<style type="text/css">
	.st0{clip-path:url(#SVGID_1_);fill:none;stroke:#000000;stroke-width:0.3;}
</style>
<g>
	<defs>
		<rect id="SVGID_3_" x="0" y="0" width="49.7" height="49.7"/>
	</defs>
	<clipPath id="SVGID_1_">
		<use xlink:href="#SVGID_3_"  style="overflow:visible;"/>
	</clipPath>
	<path class="st0" d="M2,4.7C2.4,4.2,2.5,3.9,2,3.1S2,1.9,2.5,1.7"/>
	<path class="st0" d="M1.1,3.7C0.5,2,1.2,1.2,2,0.6"/>
	<path class="st0" d="M2.4,6.3c0.9-0.9,0.8-2.9,0.4-3.5"/>
	<path class="st0" d="M7.5,6.8C6.9,7,6.5,7.3,7,8.1s0.4,1.1-0.1,1.6"/>
	<path class="st0" d="M6,8.8C5.5,7.1,6.1,6.3,6.9,5.6"/>
	<path class="st0" d="M7.4,11.3c0.9-0.9,0.8-2.9,0.4-3.5"/>
	<path class="st0" d="M2,14.6C2.4,14.1,2.5,13.8,2,13S2,11.9,2.5,11.6"/>
	<path class="st0" d="M2,10.5c-0.8,0.6-1.4,1.4-0.9,3.1"/>
	<path class="st0" d="M2.4,16.2c0.9-0.9,0.8-2.9,0.4-3.5"/>
	<path class="st0" d="M7,19.6c0.4-0.5,0.5-0.8,0.1-1.6S7,16.8,7.5,16.6"/>
	<path class="st0" d="M7,15.4c-0.8,0.6-1.4,1.4-0.9,3.1"/>
	<path class="st0" d="M7.4,21.1c0.9-0.9,0.8-2.9,0.4-3.5"/>
	<path class="st0" d="M2.5,21.6C2,21.8,1.6,22.1,2,22.9s0.4,1.1-0.1,1.6"/>
	<path class="st0" d="M2,20.4c-0.8,0.6-1.4,1.4-0.9,3.1"/>
	<path class="st0" d="M2.4,26.1c0.9-0.9,0.8-2.9,0.4-3.5"/>
	<path class="st0" d="M6.9,29.6c0.4-0.5,0.5-0.8,0.1-1.6s-0.1-1.1,0.5-1.4"/>
	<path class="st0" d="M6.9,25.4c-0.8,0.6-1.4,1.4-0.9,3.1"/>
	<path class="st0" d="M7.4,31.1c0.9-0.9,0.8-2.9,0.4-3.5"/>
	<path class="st0" d="M2.5,31.5C2,31.8,1.6,32.1,2,32.9S2.4,34,2,34.5"/>
	<path class="st0" d="M2,30.4c-0.8,0.6-1.4,1.4-0.9,3.1"/>
	<path class="st0" d="M2.4,36.1c0.9-0.9,0.8-2.9,0.4-3.5"/>
	<path class="st0" d="M6.9,39.4c0.4-0.5,0.5-0.8,0.1-1.6s-0.1-1.1,0.5-1.4"/>
	<path class="st0" d="M6.9,35.3c-0.8,0.6-1.4,1.4-0.9,3.1"/>
	<path class="st0" d="M7.4,41c0.9-0.9,0.8-2.9,0.4-3.5"/>
	<path class="st0" d="M2.5,41.5C2,41.8,1.6,42.1,2,42.9S2.4,44,2,44.5"/>
	<path class="st0" d="M2,40.4c-0.8,0.6-1.4,1.4-0.9,3.1"/>
	<path class="st0" d="M2.9,42.6c0.4,0.6,0.5,2.6-0.4,3.5"/>
	<path class="st0" d="M7.5,46.4c-0.6,0.3-0.9,0.6-0.5,1.4s0.4,1.1-0.1,1.6"/>
	<path class="st0" d="M6.9,45.3c-0.8,0.6-1.4,1.4-0.9,3.1"/>
	<path class="st0" d="M7.8,47.4C8,47.8,8.2,48.8,8,49.7"/>
	<path class="st0" d="M11.9,4.7c0.4-0.5,0.5-0.8,0.1-1.6s-0.1-1.1,0.5-1.4"/>
	<path class="st0" d="M11,3.7c-0.6-1.7,0.1-2.5,0.9-3.1"/>
	<path class="st0" d="M12.4,6.3c0.9-0.9,0.8-2.9,0.4-3.5"/>
	<path class="st0" d="M17.4,6.8c-0.6,0.3-0.9,0.6-0.5,1.4s0.4,1.1-0.1,1.6"/>
	<path class="st0" d="M16,8.8c-0.6-1.7,0.1-2.5,0.9-3.1"/>
	<path class="st0" d="M17.3,11.3c0.9-0.9,0.8-2.9,0.4-3.5"/>
	<path class="st0" d="M11.9,14.6c0.4-0.5,0.5-0.8,0.1-1.6s-0.1-1.1,0.5-1.4"/>
	<path class="st0" d="M11.9,10.5c-0.8,0.6-1.4,1.4-0.9,3.1"/>
	<path class="st0" d="M12.4,16.2c0.9-0.9,0.8-2.9,0.4-3.5"/>
	<path class="st0" d="M16.9,19.6c0.4-0.5,0.5-0.8,0.1-1.6s-0.1-1.1,0.5-1.4"/>
	<path class="st0" d="M16.9,15.4c-0.8,0.6-1.4,1.4-0.9,3.1"/>
	<path class="st0" d="M17.4,21.1c0.9-0.9,0.8-2.9,0.4-3.5"/>
	<path class="st0" d="M12.5,21.6c-0.6,0.3-0.9,0.6-0.5,1.4s0.4,1.1-0.1,1.6"/>
	<path class="st0" d="M11.9,20.4c-0.8,0.6-1.4,1.4-0.9,3.1"/>
	<path class="st0" d="M12.4,26.1c0.9-0.9,0.8-2.9,0.4-3.5"/>
	<path class="st0" d="M16.9,29.6c0.4-0.5,0.5-0.8,0.1-1.6s-0.1-1.1,0.5-1.4"/>
	<path class="st0" d="M16.9,25.4c-0.8,0.6-1.4,1.4-0.9,3.1"/>
	<path class="st0" d="M17.3,31.1c0.9-0.9,0.8-2.9,0.4-3.5"/>
	<path class="st0" d="M12.5,31.5c-0.6,0.3-0.9,0.6-0.5,1.4s0.4,1.1-0.1,1.6"/>
	<path class="st0" d="M11.9,30.4c-0.8,0.6-1.4,1.4-0.9,3.1"/>
	<path class="st0" d="M12.4,36.1c0.9-0.9,0.8-2.9,0.4-3.5"/>
	<path class="st0" d="M16.9,39.4c0.4-0.5,0.5-0.8,0.1-1.6s-0.1-1.1,0.5-1.4"/>
	<path class="st0" d="M16.9,35.3c-0.8,0.6-1.4,1.4-0.9,3.1"/>
	<path class="st0" d="M17.3,41c0.9-0.9,0.8-2.9,0.4-3.5"/>
	<path class="st0" d="M12.5,41.5c-0.6,0.3-0.9,0.6-0.5,1.4s0.4,1.1-0.1,1.6"/>
	<path class="st0" d="M11.9,40.4c-0.8,0.6-1.4,1.4-0.9,3.1"/>
	<path class="st0" d="M12.8,42.6c0.4,0.6,0.5,2.6-0.4,3.5"/>
	<path class="st0" d="M17.4,46.4c-0.6,0.3-0.9,0.6-0.5,1.4s0.4,1.1-0.1,1.6"/>
	<path class="st0" d="M16.9,45.3c-0.8,0.6-1.4,1.4-0.9,3.1"/>
	<path class="st0" d="M17.7,47.4c0.2,0.4,0.4,1.4,0.2,2.3"/>
	<path class="st0" d="M21.8,4.7c0.4-0.5,0.5-0.8,0.1-1.6s-0.1-1.1,0.5-1.4"/>
	<path class="st0" d="M20.9,3.7C20.4,2,21,1.2,21.8,0.6"/>
	<path class="st0" d="M22.2,6.3c0.9-0.9,0.8-2.9,0.4-3.5"/>
	<path class="st0" d="M27.3,6.8c-0.6,0.3-0.9,0.6-0.5,1.4s0.4,1.1-0.1,1.6"/>
	<path class="st0" d="M25.9,8.8c-0.6-1.7,0.1-2.5,0.9-3.1"/>
	<path class="st0" d="M27.2,11.3c0.9-0.9,0.8-2.9,0.4-3.5"/>
	<path class="st0" d="M21.8,14.6c0.4-0.5,0.5-0.8,0.1-1.6s-0.1-1.1,0.5-1.4"/>
	<path class="st0" d="M21.8,10.5c-0.8,0.6-1.4,1.4-0.9,3.1"/>
	<path class="st0" d="M22.2,16.2c0.9-0.9,0.8-2.9,0.4-3.5"/>
	<path class="st0" d="M26.8,19.6c0.4-0.5,0.5-0.8,0.1-1.6s-0.1-1.1,0.5-1.4"/>
	<path class="st0" d="M26.8,15.4c-0.8,0.6-1.4,1.4-0.9,3.1"/>
	<path class="st0" d="M27.2,21.1c0.9-0.9,0.8-2.9,0.4-3.5"/>
	<path class="st0" d="M22.4,21.6c-0.6,0.3-0.9,0.6-0.5,1.4s0.4,1.1-0.1,1.6"/>
	<path class="st0" d="M21.8,20.4c-0.8,0.6-1.4,1.4-0.9,3.1"/>
	<path class="st0" d="M22.2,26.1c0.9-0.9,0.8-2.9,0.4-3.5"/>
	<path class="st0" d="M26.7,29.6c0.4-0.5,0.5-0.8,0.1-1.6s-0.1-1.1,0.5-1.4"/>
	<path class="st0" d="M26.7,25.4c-0.8,0.6-1.4,1.4-0.9,3.1"/>
	<path class="st0" d="M27.2,31.1c0.9-0.9,0.8-2.9,0.4-3.5"/>
	<path class="st0" d="M22.4,31.5c-0.6,0.3-0.9,0.6-0.5,1.4s0.4,1.1-0.1,1.6"/>
	<path class="st0" d="M21.8,30.4c-0.8,0.6-1.4,1.4-0.9,3.1"/>
	<path class="st0" d="M22.2,36.1c0.9-0.9,0.8-2.9,0.4-3.5"/>
	<path class="st0" d="M26.7,39.4c0.4-0.5,0.5-0.8,0.1-1.6s-0.1-1.1,0.5-1.4"/>
	<path class="st0" d="M26.7,35.3c-0.8,0.6-1.4,1.4-0.9,3.1"/>
	<path class="st0" d="M27.2,41c0.9-0.9,0.8-2.9,0.4-3.5"/>
	<path class="st0" d="M22.4,41.5c-0.6,0.3-0.9,0.6-0.5,1.4s0.4,1.1-0.1,1.6"/>
	<path class="st0" d="M21.8,40.4c-0.8,0.6-1.4,1.4-0.9,3.1"/>
	<path class="st0" d="M22.7,42.6c0.4,0.6,0.5,2.6-0.4,3.5"/>
	<path class="st0" d="M27.3,46.4c-0.6,0.3-0.9,0.6-0.5,1.4s0.4,1.1-0.1,1.6"/>
	<path class="st0" d="M26.7,45.3c-0.8,0.6-1.4,1.4-0.9,3.1"/>
	<path class="st0" d="M27.6,47.4c0.2,0.4,0.4,1.4,0.2,2.3"/>
	<path class="st0" d="M31.8,4.7c0.4-0.5,0.5-0.8,0.1-1.6s-0.1-1.1,0.5-1.4"/>
	<path class="st0" d="M30.9,3.7C30.3,2,31,1.2,31.8,0.6"/>
	<path class="st0" d="M32.2,6.3c0.9-0.9,0.8-2.9,0.4-3.5"/>
	<path class="st0" d="M37.3,6.8c-0.6,0.3-0.9,0.6-0.5,1.4s0.4,1.1-0.1,1.6"/>
	<path class="st0" d="M35.8,8.8c-0.6-1.7,0.1-2.5,0.9-3.1"/>
	<path class="st0" d="M37.2,11.3c0.9-0.9,0.8-2.9,0.4-3.5"/>
	<path class="st0" d="M31.8,14.6c0.4-0.5,0.5-0.8,0.1-1.6s-0.1-1.1,0.5-1.4"/>
	<path class="st0" d="M31.8,10.5c-0.8,0.6-1.4,1.4-0.9,3.1"/>
	<path class="st0" d="M32.2,16.2c0.9-0.9,0.8-2.9,0.4-3.5"/>
	<path class="st0" d="M36.8,19.6c0.4-0.5,0.5-0.8,0.1-1.6s-0.1-1.1,0.5-1.4"/>
	<path class="st0" d="M36.8,15.4c-0.8,0.6-1.4,1.4-0.9,3.1"/>
	<path class="st0" d="M37.2,21.1c0.9-0.9,0.8-2.9,0.4-3.5"/>
	<path class="st0" d="M32.3,21.6c-0.6,0.3-0.9,0.6-0.5,1.4s0.4,1.1-0.1,1.6"/>
	<path class="st0" d="M31.8,20.4c-0.8,0.6-1.4,1.4-0.9,3.1"/>
	<path class="st0" d="M32.2,26.1c0.9-0.9,0.8-2.9,0.4-3.5"/>
	<path class="st0" d="M36.7,29.6c0.4-0.5,0.5-0.8,0.1-1.6s-0.1-1.1,0.5-1.4"/>
	<path class="st0" d="M36.7,25.4c-0.8,0.6-1.4,1.4-0.9,3.1"/>
	<path class="st0" d="M37.2,31.1c0.9-0.9,0.8-2.9,0.4-3.5"/>
	<path class="st0" d="M32.3,31.5c-0.6,0.3-0.9,0.6-0.5,1.4s0.4,1.1-0.1,1.6"/>
	<path class="st0" d="M31.8,30.4c-0.8,0.6-1.4,1.4-0.9,3.1"/>
	<path class="st0" d="M32.2,36.1c0.9-0.9,0.8-2.9,0.4-3.5"/>
	<path class="st0" d="M36.7,39.4c0.4-0.5,0.5-0.8,0.1-1.6s-0.1-1.1,0.5-1.4"/>
	<path class="st0" d="M36.7,35.3c-0.8,0.6-1.4,1.4-0.9,3.1"/>
	<path class="st0" d="M37.2,41c0.9-0.9,0.8-2.9,0.4-3.5"/>
	<path class="st0" d="M32.3,41.5c-0.6,0.3-0.9,0.6-0.5,1.4s0.4,1.1-0.1,1.6"/>
	<path class="st0" d="M31.8,40.4c-0.8,0.6-1.4,1.4-0.9,3.1"/>
	<path class="st0" d="M32.7,42.6c0.4,0.6,0.5,2.6-0.4,3.5"/>
	<path class="st0" d="M37.3,46.4c-0.6,0.3-0.9,0.6-0.5,1.4s0.4,1.1-0.1,1.6"/>
	<path class="st0" d="M36.7,45.3c-0.8,0.6-1.4,1.4-0.9,3.1"/>
	<path class="st0" d="M37.6,47.4c0.2,0.4,0.4,1.4,0.2,2.3"/>
	<path class="st0" d="M41.7,4.7c0.4-0.5,0.5-0.8,0.1-1.6s-0.1-1.1,0.5-1.4"/>
	<path class="st0" d="M40.8,3.7c-0.6-1.7,0.1-2.5,0.9-3.1"/>
	<path class="st0" d="M42.2,6.3c0.9-0.9,0.8-2.9,0.4-3.5"/>
	<path class="st0" d="M47.2,6.8c-0.6,0.3-0.9,0.6-0.5,1.4s0.4,1.1-0.1,1.6"/>
	<path class="st0" d="M45.8,8.8c-0.6-1.7,0.1-2.5,0.9-3.1"/>
	<path class="st0" d="M47.1,11.3c0.9-0.9,0.8-2.9,0.4-3.5"/>
	<path class="st0" d="M41.7,14.6c0.4-0.5,0.5-0.8,0.1-1.6s-0.1-1.1,0.5-1.4"/>
	<path class="st0" d="M41.7,10.5c-0.8,0.6-1.4,1.4-0.9,3.1"/>
	<path class="st0" d="M42.2,16.2c0.9-0.9,0.8-2.9,0.4-3.5"/>
	<path class="st0" d="M46.7,19.6c0.4-0.5,0.5-0.8,0.1-1.6s-0.1-1.1,0.5-1.4"/>
	<path class="st0" d="M46.7,15.4c-0.8,0.6-1.4,1.4-0.9,3.1"/>
	<path class="st0" d="M47.2,21.1c0.9-0.9,0.8-2.9,0.4-3.5"/>
	<path class="st0" d="M42.3,21.6c-0.6,0.3-0.9,0.6-0.5,1.4s0.4,1.1-0.1,1.6"/>
	<path class="st0" d="M41.7,20.4c-0.8,0.6-1.4,1.4-0.9,3.1"/>
	<path class="st0" d="M42.2,26.1c0.9-0.9,0.8-2.9,0.4-3.5"/>
	<path class="st0" d="M46.7,29.6c0.4-0.5,0.5-0.8,0.1-1.6s-0.1-1.1,0.5-1.4"/>
	<path class="st0" d="M46.7,25.4c-0.8,0.6-1.4,1.4-0.9,3.1"/>
	<path class="st0" d="M47.1,31.1c0.9-0.9,0.8-2.9,0.4-3.5"/>
	<path class="st0" d="M42.3,31.5c-0.6,0.3-0.9,0.6-0.5,1.4s0.4,1.1-0.1,1.6"/>
	<path class="st0" d="M41.7,30.4c-0.8,0.6-1.4,1.4-0.9,3.1"/>
	<path class="st0" d="M42.2,36.1c0.9-0.9,0.8-2.9,0.4-3.5"/>
	<path class="st0" d="M46.7,39.4c0.4-0.5,0.5-0.8,0.1-1.6s-0.1-1.1,0.5-1.4"/>
	<path class="st0" d="M46.7,35.3c-0.8,0.6-1.4,1.4-0.9,3.1"/>
	<path class="st0" d="M47.1,41c0.9-0.9,0.8-2.9,0.4-3.5"/>
	<path class="st0" d="M42.3,41.5c-0.6,0.3-0.9,0.6-0.5,1.4s0.4,1.1-0.1,1.6"/>
	<path class="st0" d="M41.7,40.4c-0.8,0.6-1.4,1.4-0.9,3.1"/>
	<path class="st0" d="M42.6,42.6c0.4,0.6,0.5,2.6-0.4,3.5"/>
	<path class="st0" d="M47.2,46.4c-0.6,0.3-0.9,0.6-0.5,1.4s0.4,1.1-0.1,1.6"/>
	<path class="st0" d="M46.7,45.3c-0.8,0.6-1.4,1.4-0.9,3.1"/>
	<path class="st0" d="M47.5,47.4c0.2,0.4,0.4,1.4,0.2,2.3"/>
	<path class="st0" d="M7.4,1.3C7.7,0.9,7.9,0.5,8,0"/>
	<path class="st0" d="M17.3,1.3c0.3-0.3,0.5-0.8,0.6-1.3"/>
	<path class="st0" d="M27.2,1.3c0.3-0.3,0.5-0.8,0.6-1.3"/>
	<path class="st0" d="M37.2,1.3c0.3-0.3,0.5-0.8,0.6-1.3"/>
	<path class="st0" d="M47.1,1.3c0.3-0.3,0.5-0.8,0.6-1.3"/>
</g>
</svg>
