<?xml version="1.0" encoding="utf-8"?>
<!-- Generator: Adobe Illustrator 23.0.1, SVG Export Plug-In . SVG Version: 6.00 Build 0)  -->
<svg version="1.1" id="Layer_1" xmlns="http://www.w3.org/2000/svg" xmlns:xlink="http://www.w3.org/1999/xlink" x="0px" y="0px"
	 viewBox="0 0 46 46" style="enable-background:new 0 0 46 46;" xml:space="preserve">
<style type="text/css">
	.st0{fill:none;stroke:#000000;stroke-width:0.3;}
</style>
<g>
	<polyline class="st0" points="7,2.4 5.8,4.3 5.8,5.7 	"/>
	<line class="st0" x1="5.8" y1="4.3" x2="4.6" y2="2.4"/>
	<polyline class="st0" points="14.7,2.4 13.5,4.3 13.5,5.7 	"/>
	<line class="st0" x1="13.5" y1="4.3" x2="12.3" y2="2.4"/>
	<polyline class="st0" points="22.3,2.4 21.1,4.3 21.1,5.7 	"/>
	<line class="st0" x1="21.1" y1="4.3" x2="19.9" y2="2.4"/>
	<polyline class="st0" points="29.9,2.4 28.7,4.3 28.7,5.7 	"/>
	<line class="st0" x1="28.7" y1="4.3" x2="27.5" y2="2.4"/>
	<polyline class="st0" points="37.6,2.4 36.4,4.3 36.4,5.7 	"/>
	<line class="st0" x1="36.4" y1="4.3" x2="35.2" y2="2.4"/>
	<polyline class="st0" points="45.3,2.4 44.1,4.3 44.1,5.7 	"/>
	<line class="st0" x1="44.1" y1="4.3" x2="42.9" y2="2.4"/>
	<polyline class="st0" points="41.4,12.8 40.2,10.9 40.2,9.6 	"/>
	<line class="st0" x1="40.2" y1="10.9" x2="39" y2="12.8"/>
	<polyline class="st0" points="33.6,12.8 32.4,10.9 32.4,9.6 	"/>
	<line class="st0" x1="32.4" y1="10.9" x2="31.3" y2="12.8"/>
	<polyline class="st0" points="25.9,12.8 24.8,10.9 24.8,9.6 	"/>
	<line class="st0" x1="24.8" y1="10.9" x2="23.6" y2="12.8"/>
	<polyline class="st0" points="18.3,12.8 17.1,10.9 17.1,9.6 	"/>
	<line class="st0" x1="17.1" y1="10.9" x2="15.9" y2="12.8"/>
	<polyline class="st0" points="10.8,12.8 9.6,10.9 9.6,9.6 	"/>
	<line class="st0" x1="9.6" y1="10.9" x2="8.4" y2="12.8"/>
	<polyline class="st0" points="3.1,12.8 1.9,10.9 1.9,9.6 	"/>
	<line class="st0" x1="1.9" y1="10.9" x2="0.7" y2="12.8"/>
	<polyline class="st0" points="7,17.9 5.8,19.8 5.8,21.1 	"/>
	<line class="st0" x1="5.8" y1="19.8" x2="4.6" y2="17.9"/>
	<polyline class="st0" points="14.7,17.9 13.5,19.8 13.5,21.1 	"/>
	<line class="st0" x1="13.5" y1="19.8" x2="12.3" y2="17.9"/>
	<polyline class="st0" points="22.3,17.9 21.1,19.8 21.1,21.1 	"/>
	<line class="st0" x1="21.1" y1="19.8" x2="19.9" y2="17.9"/>
	<polyline class="st0" points="29.9,17.9 28.7,19.8 28.7,21.1 	"/>
	<line class="st0" x1="28.7" y1="19.8" x2="27.5" y2="17.9"/>
	<polyline class="st0" points="37.6,17.9 36.4,19.8 36.4,21.1 	"/>
	<line class="st0" x1="36.4" y1="19.8" x2="35.2" y2="17.9"/>
	<polyline class="st0" points="45.3,17.9 44.1,19.8 44.1,21.1 	"/>
	<line class="st0" x1="44.1" y1="19.8" x2="42.9" y2="17.9"/>
	<polyline class="st0" points="41.4,28.3 40.2,26.4 40.2,25 	"/>
	<line class="st0" x1="40.2" y1="26.4" x2="39" y2="28.3"/>
	<polyline class="st0" points="33.6,28.3 32.4,26.4 32.4,25 	"/>
	<line class="st0" x1="32.4" y1="26.4" x2="31.3" y2="28.3"/>
	<polyline class="st0" points="25.9,28.3 24.8,26.4 24.8,25 	"/>
	<line class="st0" x1="24.8" y1="26.4" x2="23.6" y2="28.3"/>
	<polyline class="st0" points="18.3,28.3 17.1,26.4 17.1,25 	"/>
	<line class="st0" x1="17.1" y1="26.4" x2="15.9" y2="28.3"/>
	<polyline class="st0" points="10.8,28.3 9.6,26.4 9.6,25 	"/>
	<line class="st0" x1="9.6" y1="26.4" x2="8.4" y2="28.3"/>
	<polyline class="st0" points="3.1,28.3 1.9,26.4 1.9,25 	"/>
	<line class="st0" x1="1.9" y1="26.4" x2="0.7" y2="28.3"/>
	<polyline class="st0" points="7,33.2 5.8,35.1 5.8,36.5 	"/>
	<line class="st0" x1="5.8" y1="35.1" x2="4.6" y2="33.2"/>
	<polyline class="st0" points="14.7,33.2 13.5,35.1 13.5,36.5 	"/>
	<line class="st0" x1="13.5" y1="35.1" x2="12.3" y2="33.2"/>
	<polyline class="st0" points="22.3,33.2 21.1,35.1 21.1,36.5 	"/>
	<line class="st0" x1="21.1" y1="35.1" x2="19.9" y2="33.2"/>
	<polyline class="st0" points="29.9,33.2 28.7,35.1 28.7,36.5 	"/>
	<line class="st0" x1="28.7" y1="35.1" x2="27.5" y2="33.2"/>
	<polyline class="st0" points="37.6,33.2 36.4,35.1 36.4,36.5 	"/>
	<line class="st0" x1="36.4" y1="35.1" x2="35.2" y2="33.2"/>
	<polyline class="st0" points="45.3,33.2 44.1,35.1 44.1,36.5 	"/>
	<line class="st0" x1="44.1" y1="35.1" x2="42.9" y2="33.2"/>
	<polyline class="st0" points="41.4,43.6 40.2,41.7 40.2,40.3 	"/>
	<line class="st0" x1="40.2" y1="41.7" x2="39" y2="43.6"/>
	<polyline class="st0" points="33.6,43.6 32.4,41.7 32.4,40.3 	"/>
	<line class="st0" x1="32.4" y1="41.7" x2="31.3" y2="43.6"/>
	<polyline class="st0" points="25.9,43.6 24.8,41.7 24.8,40.3 	"/>
	<line class="st0" x1="24.8" y1="41.7" x2="23.6" y2="43.6"/>
	<polyline class="st0" points="18.3,43.6 17.1,41.7 17.1,40.3 	"/>
	<line class="st0" x1="17.1" y1="41.7" x2="15.9" y2="43.6"/>
	<polyline class="st0" points="10.8,43.6 9.6,41.7 9.6,40.3 	"/>
	<line class="st0" x1="9.6" y1="41.7" x2="8.4" y2="43.6"/>
	<polyline class="st0" points="3.1,43.6 1.9,41.7 1.9,40.3 	"/>
	<line class="st0" x1="1.9" y1="41.7" x2="0.7" y2="43.6"/>
</g>
</svg>
