<?xml version="1.0" encoding="utf-8"?>
<!-- Generator: Adobe Illustrator 23.0.1, SVG Export Plug-In . SVG Version: 6.00 Build 0)  -->
<svg version="1.1" id="Layer_1" xmlns="http://www.w3.org/2000/svg" xmlns:xlink="http://www.w3.org/1999/xlink" x="0px" y="0px"
	 viewBox="0 0 69 69" style="enable-background:new 0 0 69 69;" xml:space="preserve">
<style type="text/css">
	.st0{fill:none;stroke:#000000;stroke-width:0.3;}
</style>
<g>
	<line class="st0" x1="15.1" y1="25.7" x2="10.4" y2="25.7"/>
	<line class="st0" x1="5.8" y1="25.7" x2="10.4" y2="25.7"/>
	<line class="st0" x1="10.4" y1="27.4" x2="10.4" y2="25.7"/>
	<line class="st0" x1="10.4" y1="25.7" x2="10.4" y2="24.2"/>
	<line class="st0" x1="23" y1="25.7" x2="27.6" y2="25.7"/>
	<line class="st0" x1="32.3" y1="25.7" x2="27.6" y2="25.7"/>
	<line class="st0" x1="27.6" y1="25.7" x2="27.6" y2="24.2"/>
	<line class="st0" x1="27.6" y1="27.4" x2="27.6" y2="25.7"/>
	<line class="st0" x1="0" y1="20" x2="1.7" y2="20"/>
	<line class="st0" x1="6.4" y1="20" x2="1.7" y2="20"/>
	<line class="st0" x1="1.7" y1="20" x2="1.7" y2="18.5"/>
	<line class="st0" x1="1.7" y1="21.6" x2="1.7" y2="20"/>
	<line class="st0" x1="23.7" y1="20" x2="19" y2="20"/>
	<line class="st0" x1="14.4" y1="20" x2="19" y2="20"/>
	<line class="st0" x1="19" y1="20" x2="19" y2="18.5"/>
	<line class="st0" x1="19" y1="20" x2="19" y2="21.6"/>
	<line class="st0" x1="15.1" y1="14.2" x2="10.4" y2="14.2"/>
	<line class="st0" x1="5.8" y1="14.2" x2="10.4" y2="14.2"/>
	<line class="st0" x1="10.4" y1="14.2" x2="10.4" y2="12.7"/>
	<line class="st0" x1="10.4" y1="15.9" x2="10.4" y2="14.2"/>
	<line class="st0" x1="23" y1="14.2" x2="27.6" y2="14.2"/>
	<line class="st0" x1="32.3" y1="14.2" x2="27.6" y2="14.2"/>
	<line class="st0" x1="27.6" y1="14.2" x2="27.6" y2="12.7"/>
	<line class="st0" x1="27.6" y1="14.2" x2="27.6" y2="15.9"/>
	<line class="st0" x1="0" y1="8.5" x2="1.7" y2="8.5"/>
	<line class="st0" x1="6.4" y1="8.5" x2="1.7" y2="8.5"/>
	<line class="st0" x1="1.7" y1="7" x2="1.7" y2="8.5"/>
	<line class="st0" x1="1.7" y1="10.2" x2="1.7" y2="8.5"/>
	<line class="st0" x1="23.7" y1="8.5" x2="19" y2="8.5"/>
	<line class="st0" x1="14.4" y1="8.5" x2="19" y2="8.5"/>
	<line class="st0" x1="19" y1="8.5" x2="19" y2="7"/>
	<line class="st0" x1="19" y1="10.2" x2="19" y2="8.5"/>
	<line class="st0" x1="6.4" y1="31.5" x2="1.7" y2="31.5"/>
	<line class="st0" x1="1.7" y1="31.5" x2="0" y2="31.5"/>
	<line class="st0" x1="1.7" y1="31.5" x2="1.7" y2="30"/>
	<line class="st0" x1="1.7" y1="31.5" x2="1.7" y2="33.2"/>
	<line class="st0" x1="14.4" y1="31.5" x2="19" y2="31.5"/>
	<line class="st0" x1="23.7" y1="31.5" x2="19" y2="31.5"/>
	<line class="st0" x1="19" y1="33.2" x2="19" y2="31.5"/>
	<line class="st0" x1="19" y1="31.5" x2="19" y2="30"/>
	<line class="st0" x1="10.4" y1="2.8" x2="15.1" y2="2.8"/>
	<line class="st0" x1="5.8" y1="2.8" x2="10.4" y2="2.8"/>
	<line class="st0" x1="10.4" y1="4.4" x2="10.4" y2="2.8"/>
	<line class="st0" x1="10.4" y1="2.8" x2="10.4" y2="1.3"/>
	<line class="st0" x1="27.6" y1="2.8" x2="32.3" y2="2.8"/>
	<line class="st0" x1="23" y1="2.8" x2="27.6" y2="2.8"/>
	<line class="st0" x1="27.6" y1="4.4" x2="27.6" y2="2.8"/>
	<line class="st0" x1="27.6" y1="2.8" x2="27.6" y2="1.3"/>
	<line class="st0" x1="5.8" y1="60.3" x2="10.4" y2="60.3"/>
	<line class="st0" x1="15.1" y1="60.3" x2="10.4" y2="60.3"/>
	<line class="st0" x1="10.4" y1="60.3" x2="10.4" y2="58.8"/>
	<line class="st0" x1="10.4" y1="61.9" x2="10.4" y2="60.3"/>
	<line class="st0" x1="32.3" y1="60.3" x2="27.6" y2="60.3"/>
	<line class="st0" x1="23" y1="60.3" x2="27.6" y2="60.3"/>
	<line class="st0" x1="27.6" y1="60.3" x2="27.6" y2="61.9"/>
	<line class="st0" x1="27.6" y1="58.8" x2="27.6" y2="60.3"/>
	<line class="st0" x1="1.7" y1="54.5" x2="0" y2="54.5"/>
	<line class="st0" x1="6.4" y1="54.5" x2="1.7" y2="54.5"/>
	<line class="st0" x1="1.7" y1="54.5" x2="1.7" y2="56.2"/>
	<line class="st0" x1="1.7" y1="54.5" x2="1.7" y2="53"/>
	<line class="st0" x1="14.4" y1="54.5" x2="19" y2="54.5"/>
	<line class="st0" x1="23.7" y1="54.5" x2="19" y2="54.5"/>
	<line class="st0" x1="19" y1="54.5" x2="19" y2="56.2"/>
	<line class="st0" x1="19" y1="54.5" x2="19" y2="53"/>
	<line class="st0" x1="15.1" y1="48.8" x2="10.4" y2="48.8"/>
	<line class="st0" x1="5.8" y1="48.8" x2="10.4" y2="48.8"/>
	<line class="st0" x1="10.4" y1="50.5" x2="10.4" y2="48.8"/>
	<line class="st0" x1="10.4" y1="48.8" x2="10.4" y2="47.3"/>
	<line class="st0" x1="32.3" y1="48.8" x2="27.6" y2="48.8"/>
	<line class="st0" x1="23" y1="48.8" x2="27.6" y2="48.8"/>
	<line class="st0" x1="27.6" y1="48.8" x2="27.6" y2="50.5"/>
	<line class="st0" x1="27.6" y1="48.8" x2="27.6" y2="47.3"/>
	<line class="st0" x1="0" y1="43" x2="1.7" y2="43"/>
	<line class="st0" x1="6.4" y1="43" x2="1.7" y2="43"/>
	<line class="st0" x1="1.7" y1="44.7" x2="1.7" y2="43"/>
	<line class="st0" x1="1.7" y1="41.5" x2="1.7" y2="43"/>
	<line class="st0" x1="14.4" y1="43" x2="19" y2="43"/>
	<line class="st0" x1="23.7" y1="43" x2="19" y2="43"/>
	<line class="st0" x1="19" y1="44.7" x2="19" y2="43"/>
	<line class="st0" x1="19" y1="43" x2="19" y2="41.5"/>
	<line class="st0" x1="1.7" y1="66" x2="0" y2="66"/>
	<line class="st0" x1="6.4" y1="66" x2="1.7" y2="66"/>
	<line class="st0" x1="1.7" y1="67.7" x2="1.7" y2="66"/>
	<line class="st0" x1="1.7" y1="64.5" x2="1.7" y2="66"/>
	<line class="st0" x1="23.7" y1="66" x2="19" y2="66"/>
	<line class="st0" x1="19" y1="66" x2="14.4" y2="66"/>
	<line class="st0" x1="19" y1="64.5" x2="19" y2="66"/>
	<line class="st0" x1="19" y1="66" x2="19" y2="67.7"/>
	<line class="st0" x1="5.8" y1="37.3" x2="10.4" y2="37.3"/>
	<line class="st0" x1="15.1" y1="37.3" x2="10.4" y2="37.3"/>
	<line class="st0" x1="10.4" y1="37.3" x2="10.4" y2="35.8"/>
	<line class="st0" x1="10.4" y1="39" x2="10.4" y2="37.3"/>
	<line class="st0" x1="23" y1="37.3" x2="27.6" y2="37.3"/>
	<line class="st0" x1="32.3" y1="37.3" x2="27.6" y2="37.3"/>
	<line class="st0" x1="27.6" y1="37.3" x2="27.6" y2="35.8"/>
	<line class="st0" x1="27.6" y1="37.3" x2="27.6" y2="39"/>
	<line class="st0" x1="40.2" y1="25.7" x2="44.9" y2="25.7"/>
	<line class="st0" x1="49.6" y1="25.7" x2="44.9" y2="25.7"/>
	<line class="st0" x1="44.9" y1="25.7" x2="44.9" y2="24.2"/>
	<line class="st0" x1="44.9" y1="27.4" x2="44.9" y2="25.7"/>
	<line class="st0" x1="62.1" y1="25.7" x2="66.8" y2="25.7"/>
	<line class="st0" x1="57.5" y1="25.7" x2="62.1" y2="25.7"/>
	<line class="st0" x1="62.1" y1="25.7" x2="62.1" y2="24.2"/>
	<line class="st0" x1="62.1" y1="25.7" x2="62.1" y2="27.4"/>
	<line class="st0" x1="40.9" y1="20" x2="36.2" y2="20"/>
	<line class="st0" x1="31.6" y1="20" x2="36.2" y2="20"/>
	<line class="st0" x1="36.2" y1="20" x2="36.2" y2="21.6"/>
	<line class="st0" x1="36.2" y1="20" x2="36.2" y2="18.5"/>
	<line class="st0" x1="58.2" y1="20" x2="53.5" y2="20"/>
	<line class="st0" x1="48.9" y1="20" x2="53.5" y2="20"/>
	<line class="st0" x1="53.5" y1="20" x2="53.5" y2="21.6"/>
	<line class="st0" x1="53.5" y1="20" x2="53.5" y2="18.5"/>
	<line class="st0" x1="69" y1="20" x2="66.1" y2="20"/>
	<line class="st0" x1="40.2" y1="14.2" x2="44.9" y2="14.2"/>
	<line class="st0" x1="49.6" y1="14.2" x2="44.9" y2="14.2"/>
	<line class="st0" x1="44.9" y1="14.2" x2="44.9" y2="12.7"/>
	<line class="st0" x1="44.9" y1="14.2" x2="44.9" y2="15.9"/>
	<line class="st0" x1="57.5" y1="14.2" x2="62.1" y2="14.2"/>
	<line class="st0" x1="62.1" y1="14.2" x2="66.8" y2="14.2"/>
	<line class="st0" x1="62.1" y1="14.2" x2="62.1" y2="15.9"/>
	<line class="st0" x1="62.1" y1="14.2" x2="62.1" y2="12.7"/>
	<line class="st0" x1="40.9" y1="8.5" x2="36.2" y2="8.5"/>
	<line class="st0" x1="31.6" y1="8.5" x2="36.2" y2="8.5"/>
	<line class="st0" x1="36.2" y1="10.2" x2="36.2" y2="8.5"/>
	<line class="st0" x1="36.2" y1="8.5" x2="36.2" y2="7"/>
	<line class="st0" x1="48.9" y1="8.5" x2="53.5" y2="8.5"/>
	<line class="st0" x1="58.2" y1="8.5" x2="53.5" y2="8.5"/>
	<line class="st0" x1="53.5" y1="10.2" x2="53.5" y2="8.5"/>
	<line class="st0" x1="53.5" y1="8.5" x2="53.5" y2="7"/>
	<line class="st0" x1="66.1" y1="8.5" x2="69" y2="8.5"/>
	<line class="st0" x1="40.9" y1="31.5" x2="36.2" y2="31.5"/>
	<line class="st0" x1="31.6" y1="31.5" x2="36.2" y2="31.5"/>
	<line class="st0" x1="36.2" y1="31.5" x2="36.2" y2="33.2"/>
	<line class="st0" x1="36.2" y1="31.5" x2="36.2" y2="30"/>
	<line class="st0" x1="48.9" y1="31.5" x2="53.5" y2="31.5"/>
	<line class="st0" x1="58.2" y1="31.5" x2="53.5" y2="31.5"/>
	<line class="st0" x1="53.5" y1="31.5" x2="53.5" y2="33.2"/>
	<line class="st0" x1="53.5" y1="31.5" x2="53.5" y2="30"/>
	<line class="st0" x1="66.1" y1="31.5" x2="69" y2="31.5"/>
	<line class="st0" x1="44.9" y1="2.8" x2="49.6" y2="2.8"/>
	<line class="st0" x1="40.2" y1="2.8" x2="44.9" y2="2.8"/>
	<line class="st0" x1="44.9" y1="2.8" x2="44.9" y2="1.3"/>
	<line class="st0" x1="44.9" y1="4.4" x2="44.9" y2="2.8"/>
	<line class="st0" x1="57.5" y1="2.8" x2="62.1" y2="2.8"/>
	<line class="st0" x1="62.1" y1="2.8" x2="66.8" y2="2.8"/>
	<line class="st0" x1="62.1" y1="2.8" x2="62.1" y2="1.3"/>
	<line class="st0" x1="62.1" y1="4.4" x2="62.1" y2="2.8"/>
	<line class="st0" x1="49.6" y1="60.3" x2="44.9" y2="60.3"/>
	<line class="st0" x1="40.2" y1="60.3" x2="44.9" y2="60.3"/>
	<line class="st0" x1="44.9" y1="58.8" x2="44.9" y2="60.3"/>
	<line class="st0" x1="44.9" y1="60.3" x2="44.9" y2="61.9"/>
	<line class="st0" x1="62.1" y1="60.3" x2="66.8" y2="60.3"/>
	<line class="st0" x1="57.5" y1="60.3" x2="62.1" y2="60.3"/>
	<line class="st0" x1="62.1" y1="60.3" x2="62.1" y2="61.9"/>
	<line class="st0" x1="62.1" y1="60.3" x2="62.1" y2="58.8"/>
	<line class="st0" x1="31.6" y1="54.5" x2="36.2" y2="54.5"/>
	<line class="st0" x1="40.9" y1="54.5" x2="36.2" y2="54.5"/>
	<line class="st0" x1="36.2" y1="54.5" x2="36.2" y2="56.2"/>
	<line class="st0" x1="36.2" y1="54.5" x2="36.2" y2="53"/>
	<line class="st0" x1="53.5" y1="54.5" x2="58.2" y2="54.5"/>
	<line class="st0" x1="48.9" y1="54.5" x2="53.5" y2="54.5"/>
	<line class="st0" x1="53.5" y1="54.5" x2="53.5" y2="56.2"/>
	<line class="st0" x1="53.5" y1="54.5" x2="53.5" y2="53"/>
	<line class="st0" x1="66.1" y1="54.5" x2="69" y2="54.5"/>
	<line class="st0" x1="49.6" y1="48.8" x2="44.9" y2="48.8"/>
	<line class="st0" x1="40.2" y1="48.8" x2="44.9" y2="48.8"/>
	<line class="st0" x1="44.9" y1="48.8" x2="44.9" y2="50.5"/>
	<line class="st0" x1="44.9" y1="48.8" x2="44.9" y2="47.3"/>
	<line class="st0" x1="62.1" y1="48.8" x2="66.8" y2="48.8"/>
	<line class="st0" x1="62.1" y1="48.8" x2="57.5" y2="48.8"/>
	<line class="st0" x1="62.1" y1="48.8" x2="62.1" y2="47.3"/>
	<line class="st0" x1="62.1" y1="48.8" x2="62.1" y2="50.5"/>
	<line class="st0" x1="40.9" y1="43" x2="36.2" y2="43"/>
	<line class="st0" x1="31.6" y1="43" x2="36.2" y2="43"/>
	<line class="st0" x1="36.2" y1="41.5" x2="36.2" y2="43"/>
	<line class="st0" x1="36.2" y1="43" x2="36.2" y2="44.7"/>
	<line class="st0" x1="53.5" y1="43" x2="58.2" y2="43"/>
	<line class="st0" x1="48.9" y1="43" x2="53.5" y2="43"/>
	<line class="st0" x1="53.5" y1="43" x2="53.5" y2="41.5"/>
	<line class="st0" x1="53.5" y1="43" x2="53.5" y2="44.7"/>
	<line class="st0" x1="66.1" y1="43" x2="69" y2="43"/>
	<line class="st0" x1="40.9" y1="66" x2="36.2" y2="66"/>
	<line class="st0" x1="36.2" y1="66" x2="31.6" y2="66"/>
	<line class="st0" x1="36.2" y1="64.5" x2="36.2" y2="66"/>
	<line class="st0" x1="36.2" y1="66" x2="36.2" y2="67.7"/>
	<line class="st0" x1="58.2" y1="66" x2="53.5" y2="66"/>
	<line class="st0" x1="53.5" y1="66" x2="48.9" y2="66"/>
	<line class="st0" x1="53.5" y1="64.5" x2="53.5" y2="66"/>
	<line class="st0" x1="53.5" y1="66" x2="53.5" y2="67.7"/>
	<line class="st0" x1="66.1" y1="66" x2="69" y2="66"/>
	<line class="st0" x1="40.2" y1="37.3" x2="44.9" y2="37.3"/>
	<line class="st0" x1="49.6" y1="37.3" x2="44.9" y2="37.3"/>
	<line class="st0" x1="44.9" y1="37.3" x2="44.9" y2="35.8"/>
	<line class="st0" x1="44.9" y1="37.3" x2="44.9" y2="39"/>
	<line class="st0" x1="57.5" y1="37.3" x2="62.1" y2="37.3"/>
	<line class="st0" x1="66.8" y1="37.3" x2="62.1" y2="37.3"/>
	<line class="st0" x1="62.1" y1="37.3" x2="62.1" y2="39"/>
	<line class="st0" x1="62.1" y1="35.8" x2="62.1" y2="37.3"/>
</g>
</svg>
