<?xml version="1.0" encoding="utf-8"?>
<!-- Generator: Adobe Illustrator 23.0.1, SVG Export Plug-In . SVG Version: 6.00 Build 0)  -->
<svg version="1.1" id="Layer_1" xmlns="http://www.w3.org/2000/svg" xmlns:xlink="http://www.w3.org/1999/xlink" x="0px" y="0px"
	 viewBox="0 0 53.7 53.7" style="enable-background:new 0 0 53.7 53.7;" xml:space="preserve">
<style type="text/css">
	.st0{fill:none;stroke:#000000;stroke-width:0.3;}
	.st1{fill:none;stroke:#000000;stroke-width:0.3;stroke-linejoin:round;}
	.st2{fill:none;stroke:#000000;stroke-width:0.8;stroke-linecap:round;stroke-linejoin:round;}
</style>
<g>
	<path class="st0" d="M0.1,0.8c0,0,2.3,0.2,2.8,0.6S0.4,2.3,0.4,2.3L0.1,0.8z"/>
	<path class="st1" d="M14.7,0.6c-0.5,2.3,2.4,3.3,3.1,3.5c0.2,0-2.4,2.3-2.4,2.3c-0.8-0.8-5.4-1-6.4-0.8c0,0,1.6-1.1,1.3-2.2
		c0,0,2.8-0.7,2.8-1.8L14.7,0.6z"/>
	<path class="st1" d="M17.3,0.8c0.8,0.7,1.8,1.1,2.7,1.4c0,0,0.8-0.9,0.9-1.8L17.3,0.8z"/>
	<path class="st1" d="M24.1,1.1c0.1,0.9,0.5,1.7,0.8,2.3c0,0,1.4-1.7,2.3-2L24.1,1.1z"/>
	<polygon class="st1" points="0.2,6.1 2.7,3.2 6.4,3.5 5.9,5.8 6.4,7 5,7.7 4.7,8.8 2.3,9.2 1.2,7.5 	"/>
	<polygon class="st1" points="18.7,6.9 19.3,8.9 18.4,10.6 21.2,12.6 23.4,11.7 25.2,9.2 26.6,8.1 24.8,6.2 24.5,5 21.3,4.6 20,5.9 
			"/>
	<polygon class="st1" points="0.6,11.6 0.3,14.2 1.7,13.4 2.5,13.2 2.6,10.9 	"/>
	<polygon class="st1" points="6.6,11.9 7.6,10.5 7.6,9.2 8.9,8.1 11.5,8.7 13.9,8.4 16.2,9.9 15.3,10.9 13.1,10.2 12.4,11.2 
		11.4,11.6 10.1,13.4 9.1,12.4 	"/>
	<polygon class="st1" points="14.2,13.5 16.9,13.6 17,14.2 18.6,15.6 18.1,16.3 17.4,16.6 16.8,17.6 14,18.5 14.7,15.7 	"/>
	<polygon class="st1" points="19.6,13.7 20.9,13.5 22,14.4 23.7,15 22.1,15.4 20.8,16.1 20.2,14.6 	"/>
	<polygon class="st1" points="4.2,15.6 7.4,14.9 8.6,16.2 10.9,17.2 8.9,19 10.1,21.1 8.5,21.1 5.6,22.1 4.9,22.1 4.4,19.4 
		5.2,16.9 	"/>
	<polygon class="st1" points="0.8,17.1 1.9,17 1.8,19.7 0.1,19.9 	"/>
	<polygon class="st1" points="24.7,13.8 26.1,12 27,11.9 28.9,9.8 29.9,11.3 31.3,12.3 29.8,13.7 29.2,15.4 26.2,14 	"/>
	<polygon class="st1" points="19.9,18.4 23.2,17.6 24.7,16.3 26.9,17.6 28.7,17.9 31.7,20.8 29.2,23.1 26.8,21.2 23.2,21.2 
		21.2,19.4 	"/>
	<polygon class="st1" points="14,22.2 15.6,21 17.6,22.7 15.9,24.1 	"/>
	<path class="st1" d="M1.4,25.6c0,0,1.4-2.1,1.8-2.1l0.1,2.9L1.4,25.6z"/>
	<polygon class="st1" points="5.6,25.8 7.9,24.7 9.3,25.1 12.1,24 12.5,25.9 15.1,27.9 13.7,28.1 12.7,29.8 10.7,27.7 7.9,27.7 
		6.8,28 	"/>
	<polygon class="st1" points="17.7,26.9 19.2,25.1 21.7,26 20.4,26.6 	"/>
	<polygon class="st1" points="23.7,25.1 24.8,23.8 26.8,24.7 28.7,25.2 28.8,27.3 26.9,27.5 25.7,26.3 	"/>
	<polygon class="st1" points="32.7,23.7 33.1,21.8 35.4,21.8 34.8,23.2 	"/>
	<path class="st1" d="M32.2,17.7c0,0,1.8-0.1,2.6,0.1s0.8,0.4,0.8,0.4l1.8-1.1l1.4-0.4c0,0,0-0.6,0.3-1c0.3-0.4,1.3-0.8,1.3-0.8
		s-1.5-1.1-1.8-1.6s-2.3,0.3-2.3,0.3l-2.1-0.1l-1.2,1c0,0,0.4,0.5,0,1.4C32.6,16.9,32.2,17.7,32.2,17.7z"/>
	<polygon class="st1" points="36.4,10.6 38.9,8.4 39.1,10.9 	"/>
	<path class="st1" d="M43.2,5.5c1.1,0.5,2.6,0.7,2.6,0.7l0.3,5c-1.1-0.6-2.9-0.9-3.3-0.6s-1-2.1-1.4-2.2s0.8-0.9,1-1.4
		S43.2,5.5,43.2,5.5z"/>
	<path class="st1" d="M49,7c0.4-0.6,1-1,1-1l3.1,2.7l-1.4,1.8c0,0-2.1-0.1-2.4-0.4s0.1-2.4,0.1-2.4L49,7z"/>
	<path class="st1" d="M48.6,13.4c0,0,0.9,0.7,1.6,0.8s2.3-0.1,2.3-0.1l0.3,2.9c0,0-0.6,0.2-1.8,0.4s-1.6,0.1-2.3,1.1
		s-0.9,1.3-0.9,1.3l-1.5-0.1c0,0-1.3-1-1.8-1.1s0.1-1.4,0-2.3c-0.1-0.9-0.3-1.4-0.3-1.4s1.6-0.1,2.3-0.3S48.6,13.4,48.6,13.4z"/>
	<path class="st1" d="M41.9,17.7l-1.6,1.3l-1-0.8c0,0,0.7-0.9,1.2-1.1S41.9,17.7,41.9,17.7z"/>
	<path class="st1" d="M41.6,21.1c0.6,0,2.4-0.1,2.4-0.1s0.2,0.9,0.1,1.4s-1.4,0-1.4,0L41.6,21.1z"/>
	<polygon class="st1" points="49.9,18.9 50.4,20.1 52.4,20.6 52.2,19.1 	"/>
	<polygon class="st1" points="49.2,22.2 52.8,22.2 52,23.9 47.6,23.1 	"/>
	<path class="st1" d="M46.1,25.3c1.6-0.4,1.3-0.6,2.3-0.3s2,0.9,2.7,1.1s1.9,0.4,1.9,0.4s-0.3,0.9-0.4,1.4s1.1,3.1,1.1,3.1l-3.8-0.4
		c0,0-0.3-0.8-1.2-1.1s-1.3-0.4-1.7-1.3s-2.4-1.6-2.4-1.6L46.1,25.3z"/>
	<path class="st1" d="M36.6,24.9c1.9-0.2,3.3-0.1,3.3-0.1s0.4,0.6,0.4,0.8s-1.3,0.9-1.7,1.4s-0.4,1.6-0.3,2s0.8,1.7,0.8,1.7
		l-1.3,1.1c0,0-1.3-1.1-1.7-1.6s-1.3-1.1-2.5-1.3s-1.2-0.6-0.8-1.1s0.3-1.2,1.1-1.3S36.6,24.9,36.6,24.9z"/>
	<path class="st1" d="M41,29.7c0,0,1.8-0.5,2.3-0.2s3.9,2.4,3.9,2.4l-0.8,0.7c0,0-0.6-0.6-1.2-0.8s-1.8,0.1-1.8,0.1l-1.4,0.8
		c0,0-0.3-1.9-0.4-2.1S41,29.7,41,29.7z"/>
	<path class="st1" d="M48.4,35.2c0,0,1.3-0.8,1.9-0.8s0.5,0,1,0.3s1.6,0.4,1.6,0.4l-0.6,2.2c0,0-1.1-0.9-1.4-1.1s-2.5,0.3-2.5,0.3
		V35.2z"/>
	<path class="st1" d="M37.8,33.6l1.2,0.3c0,0-0.9,1.1-0.8,1.7s-0.2-0.3-0.6-0.6S37.8,33.6,37.8,33.6z"/>
	<path class="st1" d="M29.8,30.4l1.1-0.1c0,0,0.1,0.6,0.6,0.9s2.2,1.2,2.2,1.2l-1.7,2c0,0-2.3-0.6-2.6-0.4s-1-0.6-1-0.6
		s0.9-1.6,1-1.8S29.8,30.4,29.8,30.4z"/>
	<path class="st1" d="M35.1,35.7c0,0,2.6,1.9,2.8,2.3s-0.4,0.9-0.7,1.5s-0.8,1.4-0.8,1.4s-2.9,0-3.6,0s-1.3,0.4-1.3,0.4l-1-0.3
		l0.4-2.1l0.7-1c0,0,0.2,0.1,0.9-0.3s1.3-1.1,1.5-1.4L35.1,35.7z"/>
	<path class="st1" d="M41.8,34.4c0,0,1.9,0.6,2.5,1c0.5,0.5,1.1,0.7,1,1.2c-0.1,0.5-0.1,0.8-0.2,1.1s0.7,2,0.7,2s-1.3,0.3-1.7,0.6
		c-0.4,0.3-1,0.8-1,0.8l-3.8-2l1.4-1.3l1.2-2.1L41.8,34.4z"/>
	<path class="st1" d="M48.6,38.9l1.5,0.5L50,40.7c0,0-1-0.1-1.3-0.3s-1.1-0.3-1.3-0.2S48.6,38.9,48.6,38.9z"/>
	<path class="st1" d="M7.9,1.2l1.5,0.5L9.3,3.1c0,0-1-0.1-1.3-0.3C7.7,2.7,6.9,2.5,6.7,2.6S7.9,1.2,7.9,1.2z"/>
	<path class="st1" d="M28.4,35.9l1.9-0.3c0,0-0.8,1.4-0.6,2.1s-0.7-0.4-0.7-0.4L28.4,35.9z"/>
	<path class="st1" d="M17.9,30.2c0,0,1.9-0.3,3.2-1s2.4-1.4,2.4-1.4s1.1,0.9,1.2,1.4s1.2,1,1.8,1.2s0,1.6,0,1.6s-0.6,0.1-1,0.3
		s-0.9,2.1-1,2.3s-1.7,0-2.1,0s-1.8-0.4-1.8-0.4s-0.7-0.3-0.3-1.1s-0.7-1.5-1.3-1.7s-1.2-0.6-1.2-0.6L17.9,30.2z"/>
	<polygon class="st1" points="22.1,37.1 26.5,37.2 25.6,39.9 22.9,40.1 22.7,38.6 	"/>
	<polygon class="st1" points="27.6,39.8 29.1,40.5 28.8,41.7 27.1,41.9 27.4,40.7 	"/>
	<polygon class="st1" points="18.2,36.1 20.4,36.1 19.9,36.8 19.9,38.1 19.1,38 	"/>
	<polygon class="st1" points="19.2,39.2 20.8,39.2 21.1,40.9 21.6,41.6 20.9,42.1 19.9,41.7 18.7,42 	"/>
	<polygon class="st1" points="13.6,37.2 15.7,37.4 15.5,38.6 15.6,40.4 13.6,40.2 11.6,40.9 12.7,38.7 	"/>
	<polygon class="st1" points="9.9,31.9 12.9,31.1 13.9,32.4 16.2,33.1 15.6,34.5 12.8,34.9 9.6,32.9 	"/>
	<polygon class="st1" points="0.2,29.6 4.7,29.5 5.1,30.3 5.7,31.2 4.2,31.9 2.1,33.2 1.2,33.8 1.1,31.6 0.2,30.1 	"/>
	<polygon class="st1" points="4.1,34.6 5.8,35.1 9.3,36.3 8.2,39.4 3.4,41.4 0.8,40.7 2.7,37.1 	"/>
	<polygon class="st1" points="32.1,2.9 34.6,4.2 38.7,2.9 39.3,6.1 35.7,7.2 32.6,9.7 30.4,6.2 28.9,5.3 29.1,3.8 	"/>
	<polygon class="st1" points="34.4,0.7 34.7,1.9 36.6,1.1 	"/>
	<polygon class="st1" points="40.9,1.6 42.4,3.4 44,2.9 45.1,3.3 46.2,2.1 45.7,1.1 43.8,0.4 41.5,1.1 	"/>
	<path class="st1" d="M47.4,1.4c0,0,1.9,1.1,2.3,1.5s0.8,1.2,0.8,1.2l1.8-0.3c0,0-0.6-0.9-0.8-1.1s-0.3-1.3-0.3-1.3l-2.4-0.3
		L47.4,1.4z"/>
	<path class="st1" d="M35.9,52c0.8,0.7,1.8,1.1,2.7,1.4c0,0,0.8-0.9,0.9-1.8L35.9,52z"/>
	<polygon class="st1" points="39.3,42.7 40.6,42.5 41.7,43.4 43.4,44 41.8,44.4 40.5,45.1 39.9,43.6 	"/>
	<path class="st1" d="M1,52.5c0,0,1.4-2.1,1.8-2.1L3,53.3L1,52.5z"/>
	<polygon class="st1" points="27.1,51.3 28.2,50 30.2,50.9 32.1,51.3 32.2,53.5 30.3,53.6 29.1,52.5 	"/>
	<path class="st1" d="M39.9,47.4l-1.6,1.3l-1-0.8c0,0,0.7-0.9,1.2-1.1S39.9,47.4,39.9,47.4z"/>
	<path class="st1" d="M0.6,43c0.6,0,2.4-0.1,2.4-0.1s0.2,0.9,0.1,1.4s-1.4,0-1.4,0L0.6,43z"/>
	<path class="st1" d="M47.1,50.4c0,0,1.8-0.5,2.3-0.2s3.9,2.4,3.9,2.4l-0.8,0.7c0,0-0.6-0.6-1.2-0.8s-1.8,0.1-1.8,0.1l-1.4,0.8
		c0,0-0.3-1.9-0.4-2.1S47.1,50.4,47.1,50.4z"/>
	<path class="st1" d="M41.7,47.8l1.1-0.1c0,0,0.1,0.6,0.6,0.9s2.2,1.2,2.2,1.2l-1.7,2c0,0-2.3-0.6-2.6-0.4s-1-0.6-1-0.6
		s0.9-1.6,1-1.8S41.7,47.8,41.7,47.8z"/>
	<polygon class="st1" points="4.7,44.4 7,43.3 8.4,43.7 11.2,42.6 11.6,44.5 14.2,46.5 12.8,46.6 11.8,48.4 9.9,46.3 7.1,46.3 
		5.9,46.6 	"/>
	<polygon class="st1" points="16.8,45.5 18.3,43.6 20.9,44.6 19.6,45.1 	"/>
	<polygon class="st1" points="22.8,43.7 23.9,42.4 25.9,43.3 27.9,43.8 27.9,45.9 26.1,46.1 24.9,44.9 	"/>
	<polygon class="st1" points="1.7,47.6 5.3,47.7 4.5,49.4 0.1,48.6 	"/>
	<path class="st1" d="M45.9,42.7c1.6-0.4,1.3-0.6,2.3-0.3s2,0.9,2.7,1.1s1.9,0.4,1.9,0.4s-0.3,0.9-0.4,1.4s1.1,3.1,1.1,3.1l-3.8-0.4
		c0,0-0.3-0.8-1.2-1.1s-1.3-0.4-1.7-1.3s-2.4-1.6-2.4-1.6L45.9,42.7z"/>
	<path class="st1" d="M33.1,43.9c1.9-0.2,3.3-0.1,3.3-0.1s0.4,0.6,0.4,0.8s-1.3,0.9-1.7,1.4s-0.4,1.6-0.3,2s0.8,1.7,0.8,1.7
		l-1.3,1.1c0,0-1.3-1.1-1.7-1.6s-1.3-1.1-2.5-1.3s-1.2-0.6-0.8-1.1s0.3-1.2,1.1-1.3S33.1,43.9,33.1,43.9z"/>
	<path class="st1" d="M17,48.8c0,0,1.9-0.3,3.2-1s2.4-1.4,2.4-1.4s1.1,0.9,1.2,1.4s1.2,1,1.8,1.2s0,1.6,0,1.6s-0.6,0.1-1,0.3
		s-0.9,2.1-1,2.3s-1.7,0-2.1,0s-1.8-0.4-1.8-0.4s-0.7-0.3-0.3-1.1s-0.7-1.5-1.3-1.7s-1.2-0.6-1.2-0.6L17,48.8z"/>
	<polygon class="st1" points="6.6,50.6 9.5,49.9 10.5,51.1 12.8,51.9 12.2,53.3 9.4,53.6 6.2,51.6 	"/>
	<line class="st1" x1="1.5" y1="39.6" x2="1.6" y2="40.9"/>
	<line class="st1" x1="2" y1="38.5" x2="2.4" y2="41.1"/>
	<line class="st1" x1="2.7" y1="37.1" x2="3.4" y2="41.4"/>
	<line class="st1" x1="3.2" y1="36.3" x2="4.4" y2="41"/>
	<line class="st1" x1="3.8" y1="35.3" x2="5.4" y2="40.7"/>
	<line class="st1" x1="4.5" y1="34.7" x2="6.3" y2="40.2"/>
	<line class="st1" x1="5.5" y1="35" x2="7.1" y2="40"/>
	<line class="st1" x1="6.6" y1="35.4" x2="7.8" y2="39.6"/>
	<line class="st1" x1="7.4" y1="35.7" x2="8.4" y2="38.8"/>
	<line class="st1" x1="8.3" y1="36" x2="8.9" y2="37.7"/>
	<line class="st1" x1="17.8" y1="30.9" x2="24" y2="28.3"/>
	<line class="st1" x1="19" y1="31.4" x2="24.4" y2="28.8"/>
	<line class="st1" x1="20.1" y1="32.1" x2="24.7" y2="29.4"/>
	<line class="st1" x1="20.2" y1="33.1" x2="25.2" y2="29.9"/>
	<path class="st1" d="M20.5,34.2c0-0.3,5.3-4.1,5.3-4.1"/>
	<line class="st1" x1="21.6" y1="34.4" x2="26.4" y2="30.4"/>
	<line class="st1" x1="22.8" y1="34.6" x2="26.6" y2="31.1"/>
	<line class="st1" x1="42.6" y1="34.5" x2="40.3" y2="39.5"/>
	<line class="st1" x1="46" y1="27.2" x2="52.6" y2="27.7"/>
	<line class="st1" x1="24.3" y1="21.3" x2="27.6" y2="17.9"/>
	<line class="st1" x1="45.4" y1="14.8" x2="48.9" y2="18.1"/>
	<line class="st1" x1="33.8" y1="3.9" x2="35.2" y2="7.4"/>
	<line class="st1" x1="14" y1="1.1" x2="14.1" y2="5.7"/>
	<line class="st1" x1="49.6" y1="2.9" x2="51.4" y2="2.3"/>
	<line class="st1" x1="46.4" y1="14.6" x2="49.5" y2="17.7"/>
	<line class="st1" x1="47.3" y1="14.2" x2="50.3" y2="17.6"/>
	<line class="st1" x1="48.2" y1="13.7" x2="50.9" y2="17.4"/>
	<line class="st1" x1="49.7" y1="14.1" x2="51.4" y2="17.2"/>
	<line class="st1" x1="51.6" y1="14.1" x2="52" y2="17.1"/>
	<line class="st1" x1="44.3" y1="15.6" x2="48.4" y2="18.8"/>
	<line class="st1" x1="44.4" y1="17.1" x2="47.9" y2="19.4"/>
	<line class="st1" x1="35.1" y1="4.1" x2="36.2" y2="7"/>
	<line class="st1" x1="36.2" y1="3.7" x2="37.2" y2="6.7"/>
	<line class="st1" x1="37.2" y1="3.4" x2="38.1" y2="6.4"/>
	<line class="st1" x1="38.1" y1="3.2" x2="38.7" y2="6.2"/>
	<line class="st1" x1="32.1" y1="2.9" x2="34.5" y2="8.1"/>
	<line class="st1" x1="30.9" y1="3.4" x2="33.8" y2="8.7"/>
	<line class="st1" x1="29.6" y1="3.7" x2="33.2" y2="9.1"/>
	<line class="st1" x1="47.1" y1="28.3" x2="52.6" y2="28.6"/>
	<line class="st1" x1="45.2" y1="26.2" x2="52.7" y2="27.1"/>
	<line class="st1" x1="46.1" y1="25.3" x2="50.2" y2="25.9"/>
	<line class="st1" x1="48.7" y1="29.6" x2="52.9" y2="29.4"/>
	<line class="st1" x1="51.6" y1="30.9" x2="53.4" y2="30.4"/>
	<line class="st1" x1="28.8" y1="18.1" x2="26.1" y2="21.2"/>
	<line class="st1" x1="29.6" y1="18.8" x2="27.4" y2="21.6"/>
	<line class="st1" x1="30.3" y1="19.5" x2="28" y2="22.1"/>
	<line class="st1" x1="30.9" y1="20.2" x2="28.7" y2="22.7"/>
	<line class="st1" x1="26.4" y1="17.4" x2="23" y2="21"/>
	<line class="st1" x1="25.6" y1="16.9" x2="22.1" y2="20.2"/>
	<line class="st1" x1="23" y1="17.7" x2="21.2" y2="19.4"/>
	<line class="st1" x1="21.1" y1="18.2" x2="20.5" y2="18.9"/>
	<line class="st1" x1="43.4" y1="34.9" x2="41.2" y2="40"/>
	<line class="st1" x1="44.3" y1="35.4" x2="41.9" y2="40.4"/>
	<line class="st1" x1="45.2" y1="36.2" x2="42.7" y2="40.8"/>
	<line class="st1" x1="45.2" y1="38.1" x2="43.8" y2="40.5"/>
	<line class="st1" x1="45.6" y1="39.1" x2="45.2" y2="39.8"/>
	<line class="st1" x1="15.2" y1="2.5" x2="15.1" y2="6.1"/>
	<line class="st1" x1="16.3" y1="3.4" x2="16.4" y2="5.5"/>
	<line class="st1" x1="12.7" y1="2.4" x2="12.9" y2="5.6"/>
	<line class="st1" x1="11.6" y1="3" x2="11.7" y2="5.4"/>
	<line class="st1" x1="10.3" y1="4.1" x2="10.6" y2="5.4"/>
	<line class="st1" x1="6.4" y1="15.2" x2="10" y2="17.9"/>
	<line class="st1" x1="5.2" y1="15.5" x2="9.2" y2="18.7"/>
	<line class="st1" x1="5.1" y1="17.4" x2="9.2" y2="19.8"/>
	<line class="st1" x1="4.7" y1="18.3" x2="9.2" y2="21.1"/>
	<line class="st1" x1="4.4" y1="19.4" x2="7.4" y2="21.4"/>
	<line class="st1" x1="4.7" y1="21" x2="6.2" y2="21.9"/>
	<line class="st1" x1="48.9" y1="2.3" x2="51.1" y2="1.7"/>
	<line class="st1" x1="50.1" y1="3.7" x2="51.7" y2="3.1"/>
	<line class="st1" x1="48.1" y1="1.8" x2="49.7" y2="1.2"/>
	<line class="st1" x1="35.6" y1="43.7" x2="36.2" y2="45.1"/>
	<line class="st1" x1="34.2" y1="43.9" x2="35.5" y2="45.7"/>
	<line class="st1" x1="32.7" y1="44.2" x2="35" y2="46.2"/>
	<line class="st1" x1="31.7" y1="44.8" x2="34.7" y2="47.1"/>
	<line class="st1" x1="29.7" y1="45.9" x2="35.1" y2="50.1"/>
	<line class="st1" x1="30.8" y1="45.2" x2="35.2" y2="48.8"/>
	<line class="st1" x1="29.2" y1="46.9" x2="30.6" y2="48"/>
	<line class="st1" x1="4.4" y1="47.7" x2="3.7" y2="49.2"/>
	<line class="st1" x1="3.4" y1="47.7" x2="2.9" y2="49.1"/>
	<line class="st1" x1="2.4" y1="47.6" x2="1.9" y2="48.8"/>
	<line class="st1" x1="1.2" y1="48" x2="0.9" y2="48.7"/>
	<line class="st2" x1="5" y1="42.1" x2="5" y2="42.1"/>
	<line class="st2" x1="11.5" y1="36.3" x2="11.5" y2="36.3"/>
	<line class="st2" x1="9.8" y1="40.8" x2="9.8" y2="40.8"/>
	<line class="st2" x1="15" y1="43.8" x2="15" y2="43.8"/>
	<line class="st2" x1="8.2" y1="48.6" x2="8.2" y2="48.6"/>
	<line class="st2" x1="15" y1="50.6" x2="15" y2="50.6"/>
	<line class="st2" x1="4.2" y1="51.8" x2="4.2" y2="51.8"/>
	<line class="st2" x1="24.2" y1="41.1" x2="24.2" y2="41.1"/>
	<line class="st2" x1="26.8" y1="47.9" x2="26.8" y2="47.9"/>
	<line class="st2" x1="34.5" y1="52.6" x2="34.5" y2="52.6"/>
	<line class="st2" x1="44" y1="46.1" x2="44" y2="46.1"/>
	<line class="st2" x1="30.8" y1="43.1" x2="30.8" y2="43.1"/>
	<line class="st2" x1="37.5" y1="41.6" x2="37.5" y2="41.6"/>
	<line class="st2" x1="32.1" y1="35.8" x2="32.1" y2="35.8"/>
	<line class="st2" x1="50.6" y1="42.4" x2="50.6" y2="42.4"/>
	<line class="st2" x1="45.8" y1="34.4" x2="45.8" y2="34.4"/>
	<line class="st2" x1="40.9" y1="27.2" x2="40.9" y2="27.2"/>
	<line class="st2" x1="29.6" y1="28.6" x2="29.6" y2="28.6"/>
	<line class="st2" x1="46.2" y1="51.4" x2="46.2" y2="51.4"/>
	<line class="st2" x1="49.6" y1="24.5" x2="49.6" y2="24.5"/>
	<line class="st2" x1="47.6" y1="20.9" x2="47.6" y2="20.9"/>
	<line class="st2" x1="38.9" y1="22.2" x2="38.9" y2="22.2"/>
	<line class="st2" x1="33" y1="19.4" x2="33" y2="19.4"/>
	<line class="st2" x1="27.7" y1="16.3" x2="27.7" y2="16.3"/>
	<line class="st2" x1="42.7" y1="14.7" x2="42.7" y2="14.7"/>
	<line class="st2" x1="26.9" y1="22.9" x2="26.9" y2="22.9"/>
	<line class="st2" x1="19.7" y1="23.7" x2="19.7" y2="23.7"/>
	<line class="st2" x1="18.1" y1="33.4" x2="18.1" y2="33.4"/>
	<line class="st2" x1="17.4" y1="39.7" x2="17.4" y2="39.7"/>
	<line class="st2" x1="50.6" y1="12.2" x2="50.6" y2="12.2"/>
	<line class="st2" x1="47.4" y1="8.3" x2="47.4" y2="8.3"/>
	<line class="st2" x1="47.6" y1="3.4" x2="47.6" y2="3.4"/>
	<line class="st2" x1="51.7" y1="5.7" x2="51.7" y2="5.7"/>
	<line class="st2" x1="41.3" y1="5.4" x2="41.3" y2="5.4"/>
	<line class="st2" x1="36.4" y1="2.3" x2="36.4" y2="2.3"/>
	<line class="st2" x1="26.8" y1="6.2" x2="26.8" y2="6.2"/>
	<line class="st2" x1="32.9" y1="11.6" x2="32.9" y2="11.6"/>
	<line class="st2" x1="18" y1="12.7" x2="18" y2="12.7"/>
	<line class="st2" x1="17.6" y1="6.4" x2="17.6" y2="6.4"/>
	<line class="st2" x1="7.6" y1="5.9" x2="7.6" y2="5.9"/>
	<line class="st2" x1="10.7" y1="15.2" x2="10.7" y2="15.2"/>
	<line class="st2" x1="2" y1="21.8" x2="2" y2="21.8"/>
	<line class="st2" x1="4.3" y1="13.2" x2="4.3" y2="13.2"/>
	<line class="st2" x1="19.4" y1="20.8" x2="19.4" y2="20.8"/>
	<line class="st2" x1="11.3" y1="22" x2="11.3" y2="22"/>
	<line class="st2" x1="8.9" y1="29.8" x2="8.9" y2="29.8"/>
	<line class="st2" x1="17.2" y1="28.1" x2="17.2" y2="28.1"/>
	<line class="st2" x1="2.7" y1="34.9" x2="2.7" y2="34.9"/>
	<line class="st2" x1="4.6" y1="26.9" x2="4.6" y2="26.9"/>
	<line class="st2" x1="13.7" y1="11.6" x2="13.7" y2="11.6"/>
	<line class="st2" x1="31.5" y1="25.1" x2="31.5" y2="25.1"/>
	<line class="st2" x1="11.8" y1="6.8" x2="11.8" y2="6.8"/>
	<line class="st2" x1="30.3" y1="1.9" x2="30.3" y2="1.9"/>
	<line class="st2" x1="21.2" y1="2.9" x2="21.2" y2="2.9"/>
	<line class="st2" x1="43.5" y1="24.9" x2="43.5" y2="24.9"/>
	<line class="st2" x1="46.3" y1="29.4" x2="46.3" y2="29.4"/>
	<line class="st2" x1="40.3" y1="32.1" x2="40.3" y2="32.1"/>
	<line class="st2" x1="49.7" y1="32.6" x2="49.7" y2="32.6"/>
	<line class="st2" x1="35.2" y1="31.6" x2="35.2" y2="31.6"/>
	<line class="st2" x1="6.8" y1="22.9" x2="6.8" y2="22.9"/>
	<line class="st2" x1="12.3" y1="18.4" x2="12.3" y2="18.4"/>
	<line class="st2" x1="6.5" y1="33.1" x2="6.5" y2="33.1"/>
	<line class="st2" x1="26.3" y1="34.1" x2="26.3" y2="34.1"/>
	<line class="st2" x1="25.2" y1="27.3" x2="25.2" y2="27.3"/>
	<line class="st2" x1="44.3" y1="42.1" x2="44.3" y2="42.1"/>
	<line class="st2" x1="16.3" y1="36.4" x2="16.3" y2="36.4"/>
	<line class="st2" x1="47.2" y1="48.3" x2="47.2" y2="48.3"/>
	<line class="st2" x1="39" y1="50.1" x2="39" y2="50.1"/>
	<line class="st2" x1="15.2" y1="47.4" x2="15.2" y2="47.4"/>
	<line class="st2" x1="31.5" y1="49.9" x2="31.5" y2="49.9"/>
	<line class="st2" x1="26" y1="52.6" x2="26" y2="52.6"/>
	<line class="st2" x1="37.5" y1="18.9" x2="37.5" y2="18.9"/>
	<line class="st2" x1="40.7" y1="11.4" x2="40.7" y2="11.4"/>
	<line class="st2" x1="0.3" y1="27.4" x2="0.3" y2="27.4"/>
	<line class="st2" x1="4.8" y1="0.1" x2="4.8" y2="0.1"/>
	<line class="st2" x1="52.7" y1="38.9" x2="52.7" y2="38.9"/>
	<line class="st2" x1="53.2" y1="50.3" x2="53.2" y2="50.3"/>
	<line class="st2" x1="17.7" y1="53.3" x2="17.7" y2="53.3"/>
	<line class="st2" x1="53" y1="0.6" x2="53" y2="0.6"/>
	<line class="st2" x1="0.3" y1="45.6" x2="0.3" y2="45.6"/>
</g>
</svg>
