<?xml version="1.0" encoding="utf-8"?>
<!-- Generator: Adobe Illustrator 23.0.1, SVG Export Plug-In . SVG Version: 6.00 Build 0)  -->
<svg version="1.1" id="Layer_1" xmlns="http://www.w3.org/2000/svg" xmlns:xlink="http://www.w3.org/1999/xlink" x="0px" y="0px"
	 viewBox="0 0 46 46" style="enable-background:new 0 0 46 46;" xml:space="preserve">
<style type="text/css">
	.st0{fill:none;stroke:#000000;stroke-width:0.3;}
</style>
<g>
	<polyline class="st0" points="4.9,2.2 7,2.2 4.7,5.4 7,5.4 	"/>
	<polyline class="st0" points="20.2,2.2 22.2,2.2 19.9,5.4 22.2,5.4 	"/>
	<polyline class="st0" points="35.5,2.2 37.6,2.2 35.2,5.4 37.6,5.4 	"/>
	<polyline class="st0" points="43.2,2.2 45.3,2.2 43,5.4 45.3,5.4 	"/>
	<polyline class="st0" points="27.8,2.2 29.9,2.2 27.5,5.4 29.9,5.4 	"/>
	<polyline class="st0" points="12.6,2.2 14.7,2.2 12.3,5.4 14.7,5.4 	"/>
	<polyline class="st0" points="0.9,9.9 3,9.9 0.7,13.1 3,13.1 	"/>
	<polyline class="st0" points="16.2,9.9 18.3,9.9 15.9,13.1 18.3,13.1 	"/>
	<polyline class="st0" points="31.5,9.9 33.6,9.9 31.3,13.1 33.6,13.1 	"/>
	<polyline class="st0" points="39.3,9.9 41.3,9.9 39,13.1 41.3,13.1 	"/>
	<polyline class="st0" points="23.8,9.9 25.9,9.9 23.6,13.1 25.9,13.1 	"/>
	<polyline class="st0" points="8.6,9.9 10.7,9.9 8.4,13.1 10.7,13.1 	"/>
	<polyline class="st0" points="4.9,17.6 7,17.6 4.7,20.8 7,20.8 	"/>
	<polyline class="st0" points="20.2,17.6 22.2,17.6 19.9,20.8 22.2,20.8 	"/>
	<polyline class="st0" points="35.5,17.6 37.6,17.6 35.2,20.8 37.6,20.8 	"/>
	<polyline class="st0" points="43.2,17.6 45.3,17.6 43,20.8 45.3,20.8 	"/>
	<polyline class="st0" points="27.8,17.6 29.9,17.6 27.5,20.8 29.9,20.8 	"/>
	<polyline class="st0" points="12.6,17.6 14.7,17.6 12.3,20.8 14.7,20.8 	"/>
	<polyline class="st0" points="0.9,25.3 3,25.3 0.7,28.5 3,28.5 	"/>
	<polyline class="st0" points="16.2,25.3 18.3,25.3 15.9,28.5 18.3,28.5 	"/>
	<polyline class="st0" points="31.5,25.3 33.6,25.3 31.3,28.5 33.6,28.5 	"/>
	<polyline class="st0" points="39.3,25.3 41.3,25.3 39,28.5 41.3,28.5 	"/>
	<polyline class="st0" points="23.8,25.3 25.9,25.3 23.6,28.5 25.9,28.5 	"/>
	<polyline class="st0" points="8.6,25.3 10.7,25.3 8.4,28.5 10.7,28.5 	"/>
	<polyline class="st0" points="4.9,32.9 7,32.9 4.7,36.1 7,36.1 	"/>
	<polyline class="st0" points="20.2,32.9 22.2,32.9 19.9,36.1 22.2,36.1 	"/>
	<polyline class="st0" points="35.5,32.9 37.6,32.9 35.2,36.1 37.6,36.1 	"/>
	<polyline class="st0" points="43.2,32.9 45.3,32.9 43,36.1 45.3,36.1 	"/>
	<polyline class="st0" points="27.8,32.9 29.9,32.9 27.5,36.1 29.9,36.1 	"/>
	<polyline class="st0" points="12.6,32.9 14.7,32.9 12.3,36.1 14.7,36.1 	"/>
	<polyline class="st0" points="0.9,40.6 3,40.6 0.7,43.8 3,43.8 	"/>
	<polyline class="st0" points="16.2,40.6 18.3,40.6 15.9,43.8 18.3,43.8 	"/>
	<polyline class="st0" points="31.5,40.6 33.6,40.6 31.3,43.8 33.6,43.8 	"/>
	<polyline class="st0" points="39.3,40.6 41.3,40.6 39,43.8 41.3,43.8 	"/>
	<polyline class="st0" points="23.8,40.6 25.9,40.6 23.6,43.8 25.9,43.8 	"/>
	<polyline class="st0" points="8.6,40.6 10.7,40.6 8.4,43.8 10.7,43.8 	"/>
</g>
</svg>
