<?xml version="1.0" encoding="utf-8"?>
<!-- Generator: Adobe Illustrator 23.0.1, SVG Export Plug-In . SVG Version: 6.00 Build 0)  -->
<svg version="1.1" id="Layer_1" xmlns="http://www.w3.org/2000/svg" xmlns:xlink="http://www.w3.org/1999/xlink" x="0px" y="0px"
	 viewBox="0 0 54.3 54.3" style="enable-background:new 0 0 54.3 54.3;" xml:space="preserve">
<style type="text/css">
	.st0{clip-path:url(#SVGID_1_);fill:none;stroke:#000000;stroke-width:0.3;stroke-linecap:square;}
	.st1{clip-path:url(#SVGID_1_);fill:none;stroke:#000000;stroke-width:0.3;stroke-linejoin:round;}
</style>
<g>
	<defs>
		<rect id="SVGID_3_" x="0" y="0" width="54.3" height="54.3"/>
	</defs>
	<clipPath id="SVGID_1_">
		<use xlink:href="#SVGID_3_"  style="overflow:visible;"/>
	</clipPath>
	<path class="st0" d="M40.9,0.2c0.2,0.1,0.4,0.1,0.6,0.2c5.9,1.5,8.6,5.6,10.1,10.3"/>
	<path class="st0" d="M40,0c0.2,0.1,0.6,0.1,0.8,0.2"/>
	<path class="st0" d="M52.2,12c-0.2-0.4-0.4-0.9-0.5-1.4"/>
	<path class="st0" d="M53.1,13.8c-0.3-0.5-0.7-1.1-1-1.8"/>
	<path class="st0" d="M53.1,13.8c0.2,0.3,0.4,0.6,0.6,0.8c0.2,0.2,0.4,0.4,0.5,0.6"/>
	<path class="st0" d="M51.1,18c0.5,0.6,1.1,1.2,1.8,1.7c0.4,0.3,0.9,0.5,1.4,0.8"/>
	<path class="st0" d="M32.2,0c0.2,0.1,0.4,0.3,0.6,0.4c2.4,1.7,5,3.3,7.6,4.2"/>
	<path class="st0" d="M46.7,9.3c-0.5-1-1-1.8-1.8-2.4"/>
	<path class="st0" d="M44.9,6.9c-1-0.9-2.3-1.5-4.4-2.2c-0.1,0-0.1,0-0.2-0.1"/>
	<path class="st0" d="M49.4,15.5c0.5,0.9,1,1.7,1.7,2.5"/>
	<path class="st0" d="M47.3,10.6c-0.2-0.5-0.4-0.9-0.6-1.3"/>
	<path class="st0" d="M49.4,15.5c-0.4-0.8-0.8-1.6-1.1-2.5c-0.3-0.9-0.6-1.7-0.9-2.4"/>
	<path class="st0" d="M4.1,21.8c-1.9-0.8-3.6-1.2-4.1-1.3"/>
	<path class="st0" d="M24.8,47.8c2.6,2.7,5.1,5,6.8,6.1c0.2,0.1,0.3,0.2,0.4,0.2c0.1,0.1,0.2,0.1,0.3,0.2"/>
	<path class="st0" d="M16.1,36.9c0.4,0.7,0.9,1.4,1.4,2.1"/>
	<path class="st0" d="M16.1,36.9c-1.5-2.3-2.7-4.6-3.3-6.6c0-0.1,0-0.1-0.1-0.2"/>
	<path class="st0" d="M24.8,47.8c-2-2.2-4.2-4.7-6.1-7.2"/>
	<path class="st0" d="M17.5,39c0.4,0.6,0.8,1.1,1.2,1.7"/>
	<path class="st0" d="M9.9,25.5c-0.9-0.9-2-1.7-3.1-2.4"/>
	<path class="st0" d="M12.8,30.1c-0.6-1.8-1.6-3.3-2.9-4.6"/>
	<path class="st0" d="M6.8,23.1c-0.9-0.6-1.9-1-2.8-1.4"/>
	<path class="st0" d="M18.1,29.7c-0.1-0.2-0.1-0.3-0.2-0.5C16,23.8,12.7,19.1,7.2,18c-0.4-0.1-0.7-0.2-1.1-0.2"/>
	<path class="st0" d="M40.1,54.3c-0.2-0.1-0.3-0.1-0.4-0.2"/>
	<path class="st0" d="M18.1,29.7c0.7,1.8,2.2,4.4,4.2,7.2"/>
	<path class="st0" d="M39.7,54.1c-0.2-0.1-0.5-0.3-0.7-0.4c-0.5-0.2-0.9-0.5-1.4-0.8"/>
	<path class="st0" d="M28.3,44.7c2.3,2.6,4.8,5.1,7.2,6.9"/>
	<path class="st0" d="M26.6,42.6c-0.7-0.8-1.4-1.7-2-2.5"/>
	<path class="st0" d="M26.6,42.6c0.6,0.7,1.1,1.4,1.7,2"/>
	<path class="st0" d="M22.3,36.9c0.7,1,1.5,2.1,2.3,3.2"/>
	<path class="st0" d="M35.5,51.6c0.7,0.5,1.4,1,2,1.4"/>
	<path class="st1" d="M6.1,17.8c-3.9-0.9-5.6-2.1-6-2.4C0,15.3,0,15.2,0,15.2c0,0,0,0,0,0"/>
	<line class="st0" x1="3.5" y1="5.6" x2="3.5" y2="5.6"/>
	<line class="st0" x1="10.1" y1="0.3" x2="10.6" y2="0"/>
	<line class="st0" x1="10.1" y1="0.3" x2="3.5" y2="5.6"/>
	<line class="st0" x1="10.1" y1="0.3" x2="10.1" y2="0.3"/>
	<line class="st0" x1="14.7" y1="8.8" x2="14.6" y2="8.9"/>
	<line class="st0" x1="14.7" y1="8.8" x2="19.1" y2="4.7"/>
	<line class="st0" x1="19.1" y1="4.7" x2="10.1" y2="0.3"/>
	<line class="st0" x1="33.3" y1="16.7" x2="33.4" y2="12.4"/>
	<line class="st0" x1="25.9" y1="13.7" x2="23.5" y2="9.9"/>
	<line class="st0" x1="15.3" y1="9.3" x2="15.3" y2="9.3"/>
	<line class="st0" x1="28.7" y1="18.2" x2="25.9" y2="13.7"/>
	<line class="st0" x1="28.7" y1="18.2" x2="33" y2="16.8"/>
	<line class="st0" x1="33.3" y1="16.7" x2="33" y2="16.8"/>
	<line class="st0" x1="15.3" y1="9.3" x2="23.5" y2="9.9"/>
	<line class="st0" x1="25.9" y1="13.7" x2="21.3" y2="16.8"/>
	<line class="st0" x1="21.3" y1="16.8" x2="21.3" y2="16.8"/>
	<line class="st0" x1="25.9" y1="13.7" x2="25.9" y2="13.7"/>
	<line class="st0" x1="24.8" y1="7.1" x2="25.9" y2="4.8"/>
	<line class="st0" x1="24.8" y1="7.1" x2="23.5" y2="9.9"/>
	<line class="st0" x1="25.9" y1="4.8" x2="25.9" y2="4.7"/>
	<line class="st0" x1="24.8" y1="7.1" x2="21.1" y2="5.6"/>
	<line class="st0" x1="24.8" y1="7.1" x2="24.8" y2="7.1"/>
	<line class="st0" x1="19.1" y1="4.7" x2="19.5" y2="0"/>
	<line class="st0" x1="19.1" y1="4.7" x2="21.1" y2="5.6"/>
	<line class="st0" x1="36.4" y1="21.5" x2="33.3" y2="16.7"/>
	<polyline class="st0" points="36.4,21.5 36.6,21.7 39.9,24.2 	"/>
	<line class="st0" x1="28.6" y1="24.5" x2="28.6" y2="22.9"/>
	<line class="st0" x1="28.7" y1="18.2" x2="28.6" y2="22.9"/>
	<line class="st0" x1="40.1" y1="44.2" x2="40.1" y2="44.2"/>
	<line class="st0" x1="40.1" y1="44.2" x2="40.2" y2="41.8"/>
	<line class="st0" x1="28.6" y1="24.5" x2="28.6" y2="26"/>
	<line class="st0" x1="29.5" y1="28.2" x2="28.6" y2="26"/>
	<line class="st0" x1="37.7" y1="34.7" x2="35.3" y2="30.6"/>
	<line class="st0" x1="37.7" y1="34.7" x2="40.3" y2="39.1"/>
	<line class="st0" x1="40.3" y1="39.1" x2="40.2" y2="41.8"/>
	<line class="st0" x1="30.2" y1="30" x2="29.5" y2="28.2"/>
	<line class="st0" x1="35.3" y1="30.6" x2="30.2" y2="30"/>
	<line class="st0" x1="28.6" y1="22.9" x2="28.6" y2="22.9"/>
	<polyline class="st0" points="36.4,21.5 36.2,21.7 28.6,22.9 	"/>
	<line class="st0" x1="36.4" y1="21.5" x2="39.6" y2="18.2"/>
	<line class="st0" x1="36.7" y1="26.5" x2="39.4" y2="25.4"/>
	<line class="st0" x1="36.7" y1="26.5" x2="30.7" y2="26.1"/>
	<line class="st0" x1="30.7" y1="26.1" x2="28.6" y2="26"/>
	<line class="st0" x1="36.7" y1="26.5" x2="35.3" y2="30.6"/>
	<line class="st0" x1="32.6" y1="37.7" x2="26.6" y2="36.6"/>
	<line class="st0" x1="37.7" y1="34.7" x2="32.6" y2="37.7"/>
	<polyline class="st0" points="37.7,34.7 37.7,34.7 39.7,33.2 	"/>
	<line class="st0" x1="28.5" y1="24.5" x2="22.7" y2="21.1"/>
	<line class="st0" x1="26.5" y1="30.3" x2="24.5" y2="30.5"/>
	<line class="st0" x1="30.2" y1="30" x2="29.8" y2="37.1"/>
	<line class="st0" x1="30.2" y1="30" x2="26.5" y2="30.3"/>
	<line class="st0" x1="47.2" y1="40.5" x2="49.4" y2="43.4"/>
	<line class="st0" x1="45.1" y1="37.7" x2="47.2" y2="40.5"/>
	<line class="st0" x1="45.1" y1="37.7" x2="40.3" y2="39.1"/>
	<line class="st0" x1="54.3" y1="42.4" x2="53" y2="43.1"/>
	<line class="st0" x1="49.4" y1="43.4" x2="53" y2="43.1"/>
	<line class="st0" x1="35.1" y1="40.5" x2="32.6" y2="37.7"/>
	<line class="st0" x1="35.1" y1="40.5" x2="38.6" y2="44.3"/>
	<line class="st0" x1="38.6" y1="44.3" x2="35" y2="45.2"/>
	<line class="st0" x1="49.5" y1="34.5" x2="45.1" y2="37.7"/>
	<line class="st0" x1="45.2" y1="34.7" x2="45.1" y2="37.7"/>
	<line class="st0" x1="54.3" y1="40.1" x2="49.3" y2="43.2"/>
	<line class="st0" x1="11.7" y1="1.2" x2="7.1" y2="6"/>
	<line class="st0" x1="7" y1="6.1" x2="7.1" y2="6"/>
	<line class="st0" x1="13.5" y1="2.1" x2="9.3" y2="6.5"/>
	<line class="st0" x1="9.3" y1="6.5" x2="9.3" y2="6.6"/>
	<line class="st0" x1="11.6" y1="7.3" x2="11.5" y2="7.3"/>
	<line class="st0" x1="11.6" y1="7.3" x2="15.2" y2="2.9"/>
	<line class="st0" x1="13.4" y1="8.1" x2="16.8" y2="3.7"/>
	<line class="st0" x1="13.4" y1="8.1" x2="13.4" y2="8.1"/>
	<line class="st0" x1="19.2" y1="2.5" x2="15" y2="0"/>
	<line class="st0" x1="18.4" y1="0" x2="19.4" y2="0.7"/>
	<line class="st0" x1="3.4" y1="0" x2="6.4" y2="3.3"/>
	<line class="st0" x1="6.1" y1="0" x2="7.7" y2="2.1"/>
	<line class="st0" x1="21.1" y1="5.6" x2="21.8" y2="0"/>
	<line class="st0" x1="21.1" y1="5.6" x2="21.1" y2="5.6"/>
	<polyline class="st0" points="14.7,51.5 11.7,53.5 10.5,54.3 	"/>
	<line class="st0" x1="14.7" y1="51.5" x2="18.4" y2="54.3"/>
	<polyline class="st0" points="21.8,54.3 22.1,51.6 19.7,51.6 	"/>
	<line class="st0" x1="19.7" y1="51.6" x2="19.5" y2="54.3"/>
	<line class="st0" x1="15.1" y1="54.3" x2="12.7" y2="52.9"/>
	<polyline class="st0" points="8.4,54.3 7.2,52.7 6.3,51.3 	"/>
	<line class="st0" x1="5.4" y1="50" x2="9.5" y2="46.6"/>
	<line class="st0" x1="12.8" y1="48.1" x2="11.1" y2="47.3"/>
	<line class="st0" x1="9.5" y1="46.6" x2="11.1" y2="47.3"/>
	<line class="st0" x1="6.3" y1="51.3" x2="5.4" y2="50"/>
	<line class="st0" x1="15.6" y1="49.5" x2="12.8" y2="48.1"/>
	<line class="st0" x1="8.4" y1="0" x2="9.2" y2="1.1"/>
	<line class="st0" x1="23.8" y1="1.2" x2="23.2" y2="6.3"/>
	<line class="st0" x1="17.2" y1="6.7" x2="24.1" y2="8.5"/>
	<line class="st0" x1="18.4" y1="11.8" x2="24.5" y2="11.6"/>
	<line class="st0" x1="25.2" y1="14.1" x2="20.1" y2="14.3"/>
	<line class="st0" x1="20.1" y1="14.3" x2="20.1" y2="14.3"/>
	<line class="st0" x1="23.9" y1="15.2" x2="28.7" y2="21"/>
	<line class="st0" x1="27.7" y1="24" x2="21.9" y2="16.5"/>
	<line class="st0" x1="24.9" y1="12.1" x2="27.3" y2="6.8"/>
	<line class="st0" x1="26.6" y1="14.6" x2="28.2" y2="11"/>
	<line class="st0" x1="28.2" y1="11" x2="29.2" y2="8.7"/>
	<line class="st0" x1="27.5" y1="16.2" x2="33.3" y2="14.3"/>
	<line class="st0" x1="27.3" y1="13.1" x2="33" y2="12.1"/>
	<line class="st0" x1="28.2" y1="11" x2="31.2" y2="10.7"/>
	<line class="st0" x1="28.2" y1="11" x2="28.1" y2="11"/>
	<line class="st0" x1="31" y1="22.4" x2="30.7" y2="17.6"/>
	<line class="st0" x1="33" y1="16.8" x2="33" y2="16.7"/>
	<line class="st0" x1="33" y1="16.8" x2="33.4" y2="22"/>
	<line class="st0" x1="35.4" y1="19.7" x2="38.1" y2="16.3"/>
	<line class="st0" x1="34.3" y1="18.1" x2="36.3" y2="14.9"/>
	<line class="st0" x1="38.4" y1="23" x2="40.5" y2="20.7"/>
	<line class="st0" x1="38.8" y1="23.4" x2="28.7" y2="23.4"/>
	<line class="st0" x1="30.7" y1="26.1" x2="31.7" y2="30.1"/>
	<line class="st0" x1="30.7" y1="26.1" x2="30.7" y2="26.1"/>
	<line class="st0" x1="32.8" y1="26.3" x2="33.7" y2="30.3"/>
	<line class="st0" x1="35.7" y1="29.6" x2="34.9" y2="26.4"/>
	<line class="st0" x1="37.1" y1="33.4" x2="38.7" y2="31.9"/>
	<line class="st0" x1="36" y1="31.5" x2="38.6" y2="29.5"/>
	<line class="st0" x1="35.9" y1="29.1" x2="39.1" y2="27.1"/>
	<line class="st0" x1="29.5" y1="28.2" x2="29.5" y2="28.2"/>
	<line class="st0" x1="29.5" y1="28.2" x2="24.1" y2="28.8"/>
	<line class="st0" x1="28.8" y1="26.6" x2="23.7" y2="27.1"/>
	<line class="st0" x1="28.5" y1="24.5" x2="23.2" y2="24.8"/>
	<line class="st0" x1="28.6" y1="24.5" x2="39.6" y2="25.1"/>
	<line class="st0" x1="28.6" y1="24.5" x2="28.5" y2="24.5"/>
	<line class="st0" x1="25.5" y1="22.8" x2="22.9" y2="23.1"/>
	<line class="st0" x1="26.5" y1="30.3" x2="26.5" y2="30.3"/>
	<line class="st0" x1="26.5" y1="30.3" x2="26.1" y2="35.5"/>
	<line class="st0" x1="27.8" y1="36.8" x2="28.3" y2="30.2"/>
	<line class="st0" x1="32" y1="30.2" x2="31.5" y2="37.5"/>
	<line class="st0" x1="33.7" y1="30.5" x2="33.3" y2="37.1"/>
	<line class="st0" x1="35.3" y1="35.8" x2="35.6" y2="31.1"/>
	<line class="st0" x1="38.3" y1="35.8" x2="33.8" y2="38.9"/>
	<line class="st0" x1="39.1" y1="37.1" x2="35.1" y2="40.5"/>
	<line class="st0" x1="35.1" y1="40.5" x2="35.1" y2="40.5"/>
	<line class="st0" x1="36.5" y1="41.9" x2="40.1" y2="38.9"/>
	<line class="st0" x1="37.8" y1="43.4" x2="40.2" y2="41.8"/>
	<line class="st0" x1="40.2" y1="41.8" x2="40.2" y2="41.8"/>
	<line class="st0" x1="42.1" y1="44" x2="41.9" y2="38.8"/>
	<line class="st0" x1="43.6" y1="38.1" x2="44.2" y2="43.8"/>
	<line class="st0" x1="46.2" y1="43.7" x2="46.2" y2="43.7"/>
	<line class="st0" x1="46.2" y1="43.7" x2="45.7" y2="38.5"/>
	<line class="st0" x1="48.3" y1="41.8" x2="54.3" y2="37.7"/>
	<line class="st0" x1="47.2" y1="40.5" x2="54.3" y2="35.9"/>
	<line class="st0" x1="47.2" y1="40.5" x2="47.2" y2="40.5"/>
	<line class="st0" x1="1.4" y1="39.2" x2="1.2" y2="39.3"/>
	<line class="st0" x1="1.2" y1="39.3" x2="0" y2="40.1"/>
	<line class="st0" x1="1.2" y1="36.9" x2="0" y2="37.7"/>
	<line class="st0" x1="1.1" y1="41.8" x2="0" y2="42.4"/>
	<line class="st0" x1="0" y1="35.9" x2="0.4" y2="35.6"/>
	<line class="st0" x1="46.2" y1="39.1" x2="52.6" y2="34.6"/>
	<line class="st0" x1="47.9" y1="41.5" x2="48" y2="43.5"/>
	<line class="st0" x1="39.2" y1="33.6" x2="42.2" y2="38.4"/>
	<line class="st0" x1="41.9" y1="34.1" x2="44.1" y2="37.9"/>
	<line class="st0" x1="34.4" y1="39.8" x2="27.6" y2="38.5"/>
	<line class="st0" x1="35.8" y1="41.3" x2="29.2" y2="40.8"/>
	<line class="st0" x1="37.3" y1="43.1" x2="31.5" y2="43.1"/>
	<line class="st0" x1="35" y1="1.8" x2="34.5" y2="0"/>
	<line class="st0" x1="37.1" y1="3.1" x2="36.2" y2="0"/>
	<line class="st0" x1="38.7" y1="3.9" x2="37.8" y2="0"/>
	<line class="st0" x1="40.3" y1="4.6" x2="39.9" y2="1.3"/>
	<line class="st0" x1="39.7" y1="0" x2="39.9" y2="1.3"/>
	<line class="st0" x1="40.3" y1="4.6" x2="40.3" y2="4.6"/>
	<line class="st0" x1="43.3" y1="1" x2="39.9" y2="1.3"/>
	<line class="st0" x1="39.9" y1="1.3" x2="39.9" y2="1.3"/>
	<line class="st0" x1="40.1" y1="3" x2="45.7" y2="2.3"/>
	<line class="st0" x1="40.3" y1="4.3" x2="47.7" y2="3.9"/>
	<line class="st0" x1="44.1" y1="4.1" x2="43.2" y2="5.7"/>
	<line class="st0" x1="46.4" y1="4" x2="44.9" y2="6.9"/>
	<line class="st0" x1="44.9" y1="6.9" x2="44.9" y2="6.9"/>
	<line class="st0" x1="46.1" y1="8.1" x2="48.2" y2="4.3"/>
	<line class="st0" x1="46.7" y1="9.3" x2="49.3" y2="5.7"/>
	<line class="st0" x1="46.7" y1="9.3" x2="46.7" y2="9.3"/>
	<line class="st0" x1="48.2" y1="7.3" x2="50.2" y2="7.5"/>
	<line class="st0" x1="47.1" y1="8.8" x2="51" y2="9"/>
	<line class="st0" x1="47.3" y1="10.6" x2="51.6" y2="10.6"/>
	<line class="st0" x1="47.3" y1="10.6" x2="47.3" y2="10.6"/>
	<line class="st0" x1="52.2" y1="12" x2="52.2" y2="12"/>
	<line class="st0" x1="52.2" y1="12" x2="51.2" y2="12.1"/>
	<line class="st0" x1="48.1" y1="12.3" x2="51.2" y2="12.1"/>
	<line class="st0" x1="49.4" y1="15.5" x2="49.5" y2="12.2"/>
	<line class="st0" x1="49.4" y1="15.5" x2="49.4" y2="15.6"/>
	<line class="st0" x1="51.2" y1="12" x2="51.2" y2="12.1"/>
	<line class="st0" x1="51.1" y1="18" x2="51.1" y2="18"/>
	<line class="st0" x1="51.1" y1="18" x2="51.2" y2="12.1"/>
	<line class="st0" x1="52.8" y1="18.2" x2="52.6" y2="19.5"/>
	<line class="st0" x1="53.1" y1="13.8" x2="52.9" y2="16.6"/>
	<line class="st0" x1="53.1" y1="13.8" x2="53.1" y2="13.8"/>
	<line class="st0" x1="52.9" y1="16.6" x2="52.8" y2="18.2"/>
	<line class="st0" x1="52.9" y1="16.6" x2="52.9" y2="16.6"/>
	<line class="st0" x1="54.3" y1="16.7" x2="52.9" y2="16.6"/>
	<line class="st0" x1="52.8" y1="18.2" x2="54.3" y2="18.3"/>
	<line class="st0" x1="52.7" y1="18.2" x2="52.8" y2="18.2"/>
	<polyline class="st0" points="33.5,50 33.8,51.8 34.5,54.3 	"/>
	<line class="st0" x1="35.5" y1="51.6" x2="35.5" y2="51.5"/>
	<polyline class="st0" points="35.5,51.6 35.6,51.8 36.3,54.3 	"/>
	<line class="st0" x1="37.6" y1="53" x2="37.9" y2="54.3"/>
	<line class="st0" x1="37.6" y1="53" x2="37.6" y2="53"/>
	<line class="st0" x1="39.7" y1="54.1" x2="39.7" y2="54.3"/>
	<line class="st0" x1="39.7" y1="54.1" x2="39.7" y2="54.1"/>
	<line class="st0" x1="2.5" y1="16.7" x2="0" y2="16.7"/>
	<line class="st0" x1="2.4" y1="18.5" x2="0" y2="18.3"/>
	<line class="st0" x1="31.8" y1="54" x2="34.1" y2="53.2"/>
	<line class="st0" x1="30.1" y1="52.8" x2="33.7" y2="51.5"/>
	<line class="st0" x1="33.3" y1="49.8" x2="28.8" y2="51.7"/>
	<line class="st0" x1="29.4" y1="45.9" x2="32.3" y2="50.1"/>
	<line class="st0" x1="28.3" y1="44.7" x2="25.3" y2="48.3"/>
	<line class="st0" x1="28.3" y1="44.7" x2="28.3" y2="44.6"/>
	<line class="st0" x1="30.8" y1="50.8" x2="27.3" y2="46"/>
	<line class="st0" x1="29.1" y1="51.6" x2="26.1" y2="47.3"/>
	<line class="st0" x1="4.1" y1="21.8" x2="4.1" y2="21.8"/>
	<line class="st0" x1="4.3" y1="17.3" x2="4.1" y2="21.8"/>
	<line class="st0" x1="5.4" y1="22.3" x2="6.1" y2="17.8"/>
	<line class="st0" x1="6.1" y1="17.8" x2="6.1" y2="17.8"/>
	<line class="st0" x1="6" y1="19.3" x2="10.1" y2="19.1"/>
	<line class="st0" x1="5.6" y1="21" x2="12.8" y2="21"/>
	<line class="st0" x1="14.4" y1="23.1" x2="6.8" y2="23.1"/>
	<line class="st0" x1="14.4" y1="23.1" x2="14.7" y2="23.1"/>
	<line class="st0" x1="6.8" y1="23.1" x2="6.8" y2="23.1"/>
	<line class="st0" x1="9.9" y1="25.5" x2="9.6" y2="23.1"/>
	<line class="st0" x1="9.9" y1="25.5" x2="9.9" y2="25.5"/>
	<line class="st0" x1="12.8" y1="30.1" x2="12.8" y2="30.1"/>
	<line class="st0" x1="12" y1="23.1" x2="12.8" y2="30.1"/>
	<line class="st0" x1="14.5" y1="26" x2="15" y2="34.2"/>
	<line class="st0" x1="15" y1="34.9" x2="15" y2="34.2"/>
	<line class="st0" x1="14.4" y1="23.1" x2="14.5" y2="26"/>
	<line class="st0" x1="14.4" y1="23.1" x2="14.4" y2="23.1"/>
	<line class="st0" x1="14.5" y1="26" x2="17.1" y2="27.1"/>
	<line class="st0" x1="14.5" y1="26" x2="14.5" y2="26"/>
	<line class="st0" x1="14.7" y1="28.4" x2="18.1" y2="29.7"/>
	<line class="st0" x1="18.1" y1="29.7" x2="18.2" y2="29.8"/>
	<line class="st0" x1="20.2" y1="33.7" x2="14.8" y2="31"/>
	<line class="st0" x1="15" y1="34.1" x2="15" y2="34.2"/>
	<line class="st0" x1="22.3" y1="36.9" x2="18.3" y2="35.4"/>
	<line class="st0" x1="15" y1="34.2" x2="18.3" y2="35.4"/>
	<line class="st0" x1="22.3" y1="36.9" x2="22.3" y2="37"/>
	<line class="st0" x1="18.3" y1="35.4" x2="16.1" y2="36.9"/>
	<line class="st0" x1="18.3" y1="35.4" x2="18.3" y2="35.4"/>
	<line class="st0" x1="16.1" y1="36.9" x2="16.1" y2="36.9"/>
	<line class="st0" x1="17.5" y1="39" x2="17.5" y2="39"/>
	<line class="st0" x1="21" y1="36.5" x2="17.5" y2="39"/>
	<line class="st0" x1="18.7" y1="40.6" x2="18.7" y2="40.6"/>
	<line class="st0" x1="22.8" y1="37.8" x2="18.7" y2="40.6"/>
	<line class="st0" x1="20.1" y1="39.7" x2="20.5" y2="42.8"/>
	<line class="st0" x1="22.2" y1="38.2" x2="22.7" y2="45.5"/>
	<line class="st0" x1="24.6" y1="40.1" x2="24.6" y2="40.1"/>
	<line class="st0" x1="24.8" y1="47.9" x2="24.8" y2="47.8"/>
	<line class="st0" x1="24.8" y1="47.8" x2="24.6" y2="40.1"/>
	<line class="st0" x1="26.6" y1="42.6" x2="26.9" y2="46.3"/>
	<line class="st0" x1="26.6" y1="42.6" x2="26.6" y2="42.6"/>
	<path class="st0" d="M25.9,4.8c-0.9-1.4-1.8-2.9-2.4-4.6c0,0,0-0.1-0.1-0.1"/>
	<path class="st0" d="M25.9,4.8c6.2,9.1,16.7,11,14.3,18.6c-2.8,8.8-2.3,10,3.3,11c4.6,0.8,6.8-1,10.3,0.7c0.2,0.1,0.4,0.2,0.6,0.3"
		/>
	<path class="st0" d="M48.4,0.5c-0.2-0.2-0.5-0.3-0.7-0.5"/>
	<path class="st0" d="M54.3,4.3c-2.1-1-4.1-2.4-6-3.8"/>
	<path class="st0" d="M7.1,6c0.7,0.1,1.4,0.3,2.3,0.5"/>
	<path class="st0" d="M11.6,7.3C10.8,7,10,6.7,9.3,6.5"/>
	<path class="st0" d="M21.3,16.8c0.5,1.2,0.9,2.5,1.1,3.9l0.3,1.4c1,6.2,3,20.7,13.6,23.7c1.3,0.4,2.6,1.1,3.9,2.2"/>
	<path class="st0" d="M15.3,9.3c-0.2-0.2-0.4-0.3-0.7-0.4"/>
	<path class="st0" d="M14.7,8.8c-0.4-0.3-0.9-0.5-1.3-0.7"/>
	<path class="st0" d="M40.2,48c0.5,0.4,1,0.8,1.5,1.2"/>
	<path class="st0" d="M15.3,9.3c1.8,1.2,3.4,2.8,4.7,5"/>
	<path class="st0" d="M11.6,7.3c0.6,0.2,1.2,0.5,1.8,0.8"/>
	<path class="st0" d="M20.1,14.3c0.5,0.8,0.9,1.6,1.3,2.5"/>
	<path class="st0" d="M3.5,5.6c0.4,0.1,0.8,0.2,1.2,0.2c0,0,0.9,0,2.4,0.3"/>
	<path class="st0" d="M41.7,49.1c1.7,1.4,3.6,3.2,5.5,4.8c0.1,0.1,0.4,0.2,0.6,0.4"/>
	<path class="st0" d="M0,4.3c1.1,0.5,2.3,0.9,3.5,1.2"/>
	<path class="st0" d="M0,35.4c0.5,0.3,1,0.6,1.6,1c0,0,2.3,3.2,7.4,5.9s6.4,3.3,6.4,3.3c3,1.2,5.7,3.2,7.9,8.8"/>
	<line class="st0" x1="14.7" y1="51.5" x2="17.1" y2="46.5"/>
	<line class="st0" x1="1.2" y1="39.3" x2="1.2" y2="42.8"/>
	<line class="st0" x1="1.2" y1="39.3" x2="1.3" y2="36.2"/>
	<line class="st0" x1="1.2" y1="43.6" x2="1.2" y2="42.8"/>
	<line class="st0" x1="1.2" y1="43.6" x2="5.4" y2="50"/>
	<line class="st0" x1="2.5" y1="53.3" x2="5.4" y2="50"/>
	<line class="st0" x1="7.3" y1="41.3" x2="2.4" y2="45.2"/>
	<line class="st0" x1="1.3" y1="38.1" x2="2.8" y2="37.8"/>
	<line class="st0" x1="1.3" y1="39.9" x2="4.3" y2="39.2"/>
	<line class="st0" x1="1.3" y1="41.5" x2="6.4" y2="40.7"/>
	<line class="st0" x1="5.6" y1="42.6" x2="1.2" y2="42.8"/>
	<line class="st0" x1="1.2" y1="42.8" x2="1.2" y2="42.8"/>
	<line class="st0" x1="4.8" y1="43.3" x2="6.8" y2="44.7"/>
	<line class="st0" x1="9.5" y1="46.6" x2="11.4" y2="43.5"/>
	<line class="st0" x1="6.8" y1="44.7" x2="9.5" y2="46.6"/>
	<line class="st0" x1="6.5" y1="42.1" x2="10.4" y2="45"/>
	<line class="st0" x1="12.8" y1="44.3" x2="11.1" y2="47.3"/>
	<line class="st0" x1="11.1" y1="47.3" x2="11.1" y2="47.3"/>
	<line class="st0" x1="12.8" y1="48.1" x2="14.2" y2="45"/>
	<line class="st0" x1="12.8" y1="48.1" x2="12.8" y2="48.1"/>
	<line class="st0" x1="14.5" y1="48.9" x2="15.7" y2="45.6"/>
	<line class="st0" x1="4.8" y1="49" x2="8.1" y2="45.7"/>
	<line class="st0" x1="6.8" y1="44.7" x2="3.9" y2="47.6"/>
	<line class="st0" x1="6.8" y1="44.7" x2="6.8" y2="44.6"/>
	<line class="st0" x1="5.5" y1="43.9" x2="3.1" y2="46.3"/>
	<line class="st0" x1="11.8" y1="47.7" x2="7.9" y2="48"/>
	<path class="st0" d="M13.8,48.8c0,0-7.4,0.6-7.6,0.6"/>
	<line class="st0" x1="6.3" y1="51.3" x2="6.2" y2="51.3"/>
	<line class="st0" x1="6.3" y1="51.3" x2="15.1" y2="50.6"/>
	<line class="st0" x1="12.1" y1="53.1" x2="7.6" y2="53.1"/>
	<line class="st0" x1="16" y1="52.4" x2="18.8" y2="47.6"/>
	<line class="st0" x1="18" y1="49" x2="20.5" y2="49.3"/>
	<line class="st0" x1="16.5" y1="51.7" x2="19.7" y2="51.6"/>
	<line class="st0" x1="17.6" y1="53.6" x2="18.3" y2="51.7"/>
	<line class="st0" x1="0.7" y1="0" x2="4.7" y2="4.6"/>
	<line class="st0" x1="0" y1="2.5" x2="2.3" y2="5.1"/>
	<line class="st0" x1="54.3" y1="2.5" x2="52" y2="0"/>
	<polyline class="st0" points="54.3,53.6 53.8,53 51,50 	"/>
	<line class="st0" x1="48.3" y1="49.6" x2="48.3" y2="49.7"/>
	<polyline class="st0" points="52.1,54.3 51.4,53.6 48.3,49.7 	"/>
	<line class="st0" x1="2.5" y1="53.3" x2="3.4" y2="54.3"/>
	<polyline class="st0" points="4,51.7 4.8,52.7 6.1,54.3 	"/>
	<line class="st0" x1="0" y1="53.6" x2="0.6" y2="54.3"/>
	<line class="st0" x1="46.2" y1="43.7" x2="49.4" y2="43.4"/>
	<line class="st0" x1="38.6" y1="44.3" x2="40.1" y2="44.2"/>
	<line class="st0" x1="38.6" y1="44.3" x2="38.1" y2="46.5"/>
	<line class="st0" x1="46.2" y1="43.7" x2="40.1" y2="44.2"/>
	<line class="st0" x1="41.7" y1="49.1" x2="48.3" y2="49.7"/>
	<line class="st0" x1="41.6" y1="49.1" x2="41.7" y2="49.1"/>
	<line class="st0" x1="48.3" y1="49.7" x2="53" y2="50.1"/>
	<line class="st0" x1="46.7" y1="49.6" x2="47" y2="53.7"/>
	<line class="st0" x1="44.8" y1="51.8" x2="44.6" y2="49.5"/>
	<line class="st0" x1="38.3" y1="45.6" x2="53" y2="45.4"/>
	<line class="st0" x1="40.2" y1="48" x2="53" y2="48"/>
	<line class="st0" x1="40.2" y1="48" x2="40.1" y2="48"/>
	<line class="st0" x1="1.1" y1="43.6" x2="0" y2="44.2"/>
	<line class="st0" x1="2.1" y1="45.1" x2="0" y2="46.3"/>
	<line class="st0" x1="4.3" y1="48.3" x2="2.8" y2="52.9"/>
	<line class="st0" x1="0.9" y1="51.9" x2="3" y2="46.5"/>
	<line class="st0" x1="0" y1="48.4" x2="1" y2="45.8"/>
	<line class="st0" x1="2.4" y1="53.3" x2="0" y2="51.2"/>
	<line class="st0" x1="53" y1="44.8" x2="54.3" y2="44.2"/>
	<line class="st0" x1="53.1" y1="46.9" x2="54.3" y2="46.2"/>
	<line class="st0" x1="53.6" y1="50.5" x2="54.3" y2="48.4"/>
	<line class="st0" x1="53" y1="45.4" x2="53" y2="44.8"/>
	<line class="st0" x1="54.3" y1="51.3" x2="53" y2="50.1"/>
	<line class="st0" x1="53" y1="44.8" x2="53" y2="43.1"/>
	<line class="st0" x1="53" y1="45.4" x2="53" y2="50.1"/>
	<line class="st0" x1="2.5" y1="16.7" x2="2.3" y2="21.1"/>
</g>
</svg>
