<?xml version="1.0" encoding="utf-8"?>
<!-- Generator: Adobe Illustrator 23.0.1, SVG Export Plug-In . SVG Version: 6.00 Build 0)  -->
<svg version="1.1" id="Layer_1" xmlns="http://www.w3.org/2000/svg" xmlns:xlink="http://www.w3.org/1999/xlink" x="0px" y="0px"
	 viewBox="0 0 80.6 80.5" style="enable-background:new 0 0 80.6 80.5;" xml:space="preserve">
<style type="text/css">
	.st0{fill:none;stroke:#000000;stroke-width:0.3;}
</style>
<g>
	<line class="st0" x1="16.9" y1="2.6" x2="15.6" y2="4.3"/>
	<line class="st0" x1="11.4" y1="7.1" x2="11.7" y2="5.1"/>
	<line class="st0" x1="7.7" y1="11.3" x2="6.3" y2="12.7"/>
	<line class="st0" x1="2.5" y1="13.6" x2="1.2" y2="15"/>
	<line class="st0" x1="19.8" y1="6.2" x2="21.8" y2="5.8"/>
	<line class="st0" x1="11.5" y1="9.4" x2="9.7" y2="9.4"/>
	<line class="st0" x1="7.7" y1="1.4" x2="6.8" y2="3.2"/>
	<line class="st0" x1="7.7" y1="7.2" x2="6.3" y2="5.9"/>
	<line class="st0" x1="17" y1="13" x2="15.5" y2="11.8"/>
	<line class="st0" x1="12.4" y1="12.7" x2="11.6" y2="14.4"/>
	<line class="st0" x1="6.3" y1="70.9" x2="7.6" y2="72.4"/>
	<line class="st0" x1="21" y1="15.2" x2="19.3" y2="16.1"/>
	<line class="st0" x1="14.5" y1="44.6" x2="12.9" y2="45.4"/>
	<line class="st0" x1="27.8" y1="14.8" x2="25.9" y2="14.4"/>
	<line class="st0" x1="25.1" y1="10.6" x2="23.4" y2="11.4"/>
	<line class="st0" x1="29.5" y1="16.5" x2="29.6" y2="18.4"/>
	<line class="st0" x1="39.5" y1="20.2" x2="39.6" y2="22.2"/>
	<line class="st0" x1="21.1" y1="10" x2="20.2" y2="11.7"/>
	<line class="st0" x1="7.6" y1="15.7" x2="5.8" y2="15.1"/>
	<line class="st0" x1="27" y1="8.1" x2="26" y2="6.5"/>
	<line class="st0" x1="10.5" y1="21.6" x2="9.5" y2="19.9"/>
	<line class="st0" x1="17.1" y1="19.4" x2="15.8" y2="21"/>
	<line class="st0" x1="33.8" y1="17.7" x2="32.6" y2="19.2"/>
	<line class="st0" x1="15.1" y1="23.6" x2="13.2" y2="23.7"/>
	<line class="st0" x1="18.3" y1="27.7" x2="16.8" y2="26.6"/>
	<line class="st0" x1="11" y1="25.6" x2="10.8" y2="27.6"/>
	<line class="st0" x1="8.9" y1="32.3" x2="7.7" y2="33.8"/>
	<line class="st0" x1="7.2" y1="29.6" x2="5.3" y2="29.7"/>
	<line class="st0" x1="13.8" y1="34.7" x2="12.3" y2="33.6"/>
	<line class="st0" x1="15.8" y1="17.9" x2="14" y2="17.3"/>
	<line class="st0" x1="5.8" y1="19.3" x2="3.9" y2="19.7"/>
	<line class="st0" x1="48.8" y1="13.6" x2="50.7" y2="14.4"/>
	<line class="st0" x1="2" y1="3.7" x2="4.1" y2="4.1"/>
	<line class="st0" x1="34.8" y1="22" x2="36.1" y2="23.7"/>
	<line class="st0" x1="15.4" y1="29.4" x2="14.1" y2="30.9"/>
	<line class="st0" x1="26.4" y1="31.4" x2="25.1" y2="32.9"/>
	<line class="st0" x1="2.3" y1="27.1" x2="1" y2="28.5"/>
	<line class="st0" x1="30.3" y1="26.6" x2="32.3" y2="26.2"/>
	<line class="st0" x1="30.3" y1="29.6" x2="28.4" y2="29.6"/>
	<line class="st0" x1="26.6" y1="20.7" x2="25.6" y2="22.5"/>
	<line class="st0" x1="26.5" y1="27.3" x2="25.1" y2="26.1"/>
	<line class="st0" x1="23.1" y1="20.2" x2="21.7" y2="18.9"/>
	<line class="st0" x1="35.7" y1="33.1" x2="34.2" y2="31.9"/>
	<line class="st0" x1="32" y1="31" x2="31.1" y2="32.8"/>
	<line class="st0" x1="41.7" y1="26.7" x2="40.8" y2="28.4"/>
	<line class="st0" x1="26.3" y1="35.8" x2="24.6" y2="35.2"/>
	<line class="st0" x1="28.5" y1="42.3" x2="27.5" y2="40.7"/>
	<line class="st0" x1="37.8" y1="39.4" x2="36.6" y2="41"/>
	<line class="st0" x1="33.8" y1="43.7" x2="31.9" y2="43.8"/>
	<line class="st0" x1="37.1" y1="47.2" x2="35.5" y2="46.1"/>
	<line class="st0" x1="27.1" y1="51.2" x2="25.8" y2="52.7"/>
	<line class="st0" x1="14.3" y1="54.2" x2="13.1" y2="55.7"/>
	<line class="st0" x1="34.6" y1="37" x2="32.7" y2="37.4"/>
	<line class="st0" x1="20.8" y1="23.8" x2="22.8" y2="24.2"/>
	<line class="st0" x1="47.8" y1="48.4" x2="47.8" y2="50.5"/>
	<line class="st0" x1="30.3" y1="51.2" x2="30.1" y2="53.2"/>
	<line class="st0" x1="51.2" y1="52.3" x2="53.2" y2="51.9"/>
	<line class="st0" x1="42" y1="53.9" x2="40.1" y2="53.9"/>
	<line class="st0" x1="57.7" y1="57.8" x2="55.8" y2="57.8"/>
	<line class="st0" x1="39.5" y1="48.6" x2="38.6" y2="50.4"/>
	<line class="st0" x1="52.3" y1="58.4" x2="50.8" y2="57.2"/>
	<line class="st0" x1="37.8" y1="76.2" x2="37.3" y2="74.3"/>
	<line class="st0" x1="44.1" y1="56.9" x2="43.2" y2="58.7"/>
	<line class="st0" x1="77.4" y1="46.3" x2="78.8" y2="47.7"/>
	<line class="st0" x1="39.6" y1="64.6" x2="40.1" y2="66.5"/>
	<line class="st0" x1="19.9" y1="64.5" x2="20.3" y2="66.4"/>
	<line class="st0" x1="60.7" y1="53.4" x2="59.8" y2="55.2"/>
	<line class="st0" x1="39.1" y1="62.4" x2="37.4" y2="61.8"/>
	<line class="st0" x1="8.9" y1="53.1" x2="9.3" y2="51.3"/>
	<line class="st0" x1="36" y1="65.1" x2="34.2" y2="65.6"/>
	<line class="st0" x1="45.3" y1="66.4" x2="46.3" y2="64.8"/>
	<line class="st0" x1="44.1" y1="69.8" x2="42.2" y2="69.9"/>
	<line class="st0" x1="51.8" y1="73.8" x2="50.2" y2="72.7"/>
	<line class="st0" x1="7.8" y1="37.6" x2="6.2" y2="36.4"/>
	<line class="st0" x1="46.1" y1="71.7" x2="44.8" y2="73.2"/>
	<line class="st0" x1="53.8" y1="76.5" x2="52.5" y2="78.1"/>
	<line class="st0" x1="40" y1="78.3" x2="38.8" y2="79.9"/>
	<line class="st0" x1="29.8" y1="70.3" x2="28.2" y2="71.3"/>
	<line class="st0" x1="47" y1="79.3" x2="45.5" y2="78.2"/>
	<line class="st0" x1="40.9" y1="72.5" x2="39.3" y2="71.4"/>
	<line class="st0" x1="65.7" y1="60.4" x2="64.4" y2="61.9"/>
	<line class="st0" x1="50.3" y1="65.9" x2="48.5" y2="66.3"/>
	<line class="st0" x1="42.4" y1="45.1" x2="44.3" y2="45.9"/>
	<line class="st0" x1="32.5" y1="49.5" x2="34.6" y2="49.9"/>
	<line class="st0" x1="54.2" y1="70.8" x2="55.4" y2="72.4"/>
	<line class="st0" x1="40.6" y1="31.9" x2="41.8" y2="33.6"/>
	<line class="st0" x1="66.8" y1="72" x2="65.5" y2="73.5"/>
	<line class="st0" x1="59.6" y1="78.4" x2="58.3" y2="79.9"/>
	<line class="st0" x1="70.1" y1="72.4" x2="72" y2="71.6"/>
	<line class="st0" x1="63.1" y1="75.6" x2="61.2" y2="75.6"/>
	<line class="st0" x1="59.6" y1="68.2" x2="58.6" y2="70"/>
	<line class="st0" x1="61" y1="73.3" x2="59.7" y2="72.1"/>
	<line class="st0" x1="68.5" y1="80.1" x2="67" y2="78.9"/>
	<line class="st0" x1="64.8" y1="77.1" x2="64" y2="78.8"/>
	<line class="st0" x1="73.6" y1="72.7" x2="74.1" y2="74.6"/>
	<line class="st0" x1="77.7" y1="73.4" x2="76.5" y2="74.8"/>
	<line class="st0" x1="50.2" y1="75.4" x2="49.7" y2="77.2"/>
	<line class="st0" x1="35.2" y1="79.4" x2="33.7" y2="78.2"/>
	<line class="st0" x1="79.3" y1="71.2" x2="77.7" y2="70.1"/>
	<line class="st0" x1="73.2" y1="76.7" x2="71.4" y2="77.4"/>
	<line class="st0" x1="46.3" y1="60.2" x2="48.3" y2="60.7"/>
	<line class="st0" x1="60.5" y1="62.1" x2="61.3" y2="60.3"/>
	<line class="st0" x1="63.8" y1="6.8" x2="62.8" y2="5.2"/>
	<line class="st0" x1="52" y1="63.9" x2="52.2" y2="62"/>
	<line class="st0" x1="46.5" y1="28.3" x2="46.7" y2="26.4"/>
	<line class="st0" x1="54" y1="16.1" x2="54.2" y2="14.2"/>
	<line class="st0" x1="60.7" y1="21.2" x2="61.9" y2="22.9"/>
	<line class="st0" x1="60.6" y1="25.4" x2="59.3" y2="26.9"/>
	<line class="st0" x1="53" y1="30.9" x2="51.7" y2="32.3"/>
	<line class="st0" x1="47.1" y1="33.2" x2="45.8" y2="34.6"/>
	<line class="st0" x1="64.2" y1="24.6" x2="66.3" y2="24.3"/>
	<line class="st0" x1="56.9" y1="29" x2="55" y2="29"/>
	<line class="st0" x1="53.1" y1="21" x2="52.2" y2="22.8"/>
	<line class="st0" x1="53.1" y1="26.8" x2="51.7" y2="25.5"/>
	<line class="st0" x1="62.3" y1="32.6" x2="60.8" y2="31.4"/>
	<line class="st0" x1="57.8" y1="32.2" x2="56.9" y2="34"/>
	<line class="st0" x1="69.5" y1="26.4" x2="68.7" y2="28.1"/>
	<line class="st0" x1="52.9" y1="35.3" x2="51.2" y2="34.7"/>
	<line class="st0" x1="57.4" y1="2.7" x2="56" y2="1.4"/>
	<line class="st0" x1="56.9" y1="40.5" x2="55.9" y2="38.8"/>
	<line class="st0" x1="64.8" y1="35.9" x2="63.6" y2="37.4"/>
	<line class="st0" x1="60.4" y1="43.2" x2="58.5" y2="43.3"/>
	<line class="st0" x1="64.1" y1="46.9" x2="63.1" y2="45.3"/>
	<line class="st0" x1="57" y1="44.3" x2="55.8" y2="45.8"/>
	<line class="st0" x1="55.8" y1="53.9" x2="54.6" y2="55.5"/>
	<line class="st0" x1="52.3" y1="47.5" x2="51.9" y2="45.7"/>
	<line class="st0" x1="61.5" y1="50.1" x2="60" y2="48.9"/>
	<line class="st0" x1="22.3" y1="48.9" x2="20.8" y2="47.8"/>
	<line class="st0" x1="61.2" y1="36.4" x2="59.4" y2="36.8"/>
	<line class="st0" x1="69.2" y1="39.2" x2="67.3" y2="39.6"/>
	<line class="st0" x1="55" y1="18.6" x2="56.9" y2="19.4"/>
	<line class="st0" x1="47.4" y1="23.3" x2="49.5" y2="23.7"/>
	<line class="st0" x1="61.8" y1="10.3" x2="63.8" y2="10.7"/>
	<line class="st0" x1="80.2" y1="40.1" x2="78.4" y2="41.3"/>
	<line class="st0" x1="54.3" y1="4.8" x2="53" y2="6.3"/>
	<line class="st0" x1="73.1" y1="51.2" x2="71.8" y2="52.7"/>
	<line class="st0" x1="76.8" y1="49.5" x2="75" y2="49.5"/>
	<line class="st0" x1="71.8" y1="41.1" x2="70.9" y2="42.9"/>
	<line class="st0" x1="71.8" y1="46.9" x2="70.5" y2="45.6"/>
	<line class="st0" x1="69" y1="58.9" x2="67.6" y2="57.7"/>
	<line class="st0" x1="78.1" y1="52.8" x2="79.5" y2="51.4"/>
	<line class="st0" x1="73.7" y1="56" x2="72.9" y2="57.8"/>
	<line class="st0" x1="70.3" y1="56.2" x2="68.5" y2="55.6"/>
	<line class="st0" x1="76.5" y1="62.9" x2="75.5" y2="61.2"/>
	<line class="st0" x1="40.3" y1="58.9" x2="39.3" y2="57.3"/>
	<line class="st0" x1="72.6" y1="60.4" x2="70.7" y2="60.8"/>
	<line class="st0" x1="65.4" y1="51.3" x2="64.1" y2="52.8"/>
	<line class="st0" x1="79.4" y1="64.3" x2="78.4" y2="65.9"/>
	<line class="st0" x1="67.2" y1="67.1" x2="65.3" y2="67.2"/>
	<line class="st0" x1="72.8" y1="64.7" x2="71.2" y2="63.6"/>
	<line class="st0" x1="56.6" y1="67.2" x2="55" y2="66.1"/>
	<line class="st0" x1="71.1" y1="67.4" x2="69.8" y2="69"/>
	<line class="st0" x1="79.2" y1="59.6" x2="77.6" y2="58.6"/>
	<line class="st0" x1="73.7" y1="38.8" x2="75.7" y2="39.6"/>
	<line class="st0" x1="66.2" y1="43.4" x2="68.2" y2="43.8"/>
	<line class="st0" x1="77.9" y1="27" x2="79.3" y2="28.4"/>
	<line class="st0" x1="65.5" y1="20" x2="66.8" y2="18.6"/>
	<line class="st0" x1="2.7" y1="40.7" x2="3.9" y2="42.4"/>
	<line class="st0" x1="2.6" y1="44.9" x2="1.3" y2="46.4"/>
	<line class="st0" x1="6.2" y1="44.1" x2="8.3" y2="43.8"/>
	<line class="st0" x1="4.8" y1="53.5" x2="3.3" y2="52.3"/>
	<line class="st0" x1="8.6" y1="46.3" x2="7.8" y2="48.1"/>
	<line class="st0" x1="38.1" y1="36.2" x2="37.6" y2="34.4"/>
	<line class="st0" x1="44.6" y1="41.4" x2="43.6" y2="39.8"/>
	<line class="st0" x1="3" y1="33.8" x2="2" y2="32.2"/>
	<line class="st0" x1="48.7" y1="36.8" x2="49.6" y2="38.5"/>
	<line class="st0" x1="48.9" y1="44.4" x2="47.3" y2="45.4"/>
	<line class="st0" x1="67.9" y1="32.1" x2="66.3" y2="33.1"/>
	<line class="st0" x1="54.6" y1="42.6" x2="52.7" y2="42.4"/>
	<line class="st0" x1="28.2" y1="59.2" x2="26.5" y2="60.1"/>
	<line class="st0" x1="1.4" y1="18.8" x2="2.3" y2="20.6"/>
	<line class="st0" x1="7.3" y1="24.6" x2="5.4" y2="24.4"/>
	<line class="st0" x1="4.8" y1="58.4" x2="3.6" y2="60"/>
	<line class="st0" x1="2.4" y1="62.7" x2="0.5" y2="62.8"/>
	<line class="st0" x1="3.9" y1="67.9" x2="2.3" y2="66.8"/>
	<line class="st0" x1="3.3" y1="70.6" x2="2.1" y2="72.1"/>
	<line class="st0" x1="3.8" y1="78.4" x2="2.5" y2="80"/>
	<line class="st0" x1="2.1" y1="75.8" x2="0.2" y2="75.9"/>
	<line class="st0" x1="10.1" y1="79.4" x2="8.5" y2="78.3"/>
	<line class="st0" x1="3.2" y1="55.9" x2="1.4" y2="56.3"/>
	<line class="st0" x1="18.3" y1="46.1" x2="17.5" y2="47.8"/>
	<line class="st0" x1="13.3" y1="49.1" x2="11.5" y2="48.4"/>
	<line class="st0" x1="62.6" y1="65.3" x2="60.8" y2="64.7"/>
	<line class="st0" x1="32.6" y1="40.4" x2="30.8" y2="39.8"/>
	<line class="st0" x1="19.2" y1="55.5" x2="18.2" y2="53.9"/>
	<line class="st0" x1="23.5" y1="52.5" x2="21.7" y2="52.9"/>
	<line class="st0" x1="19" y1="31.2" x2="18.8" y2="33.2"/>
	<line class="st0" x1="12.6" y1="38.4" x2="10.7" y2="38.5"/>
	<line class="st0" x1="18.3" y1="42.2" x2="16.8" y2="41.1"/>
	<line class="st0" x1="21.5" y1="35.6" x2="19.9" y2="36.7"/>
	<line class="st0" x1="25.3" y1="46.7" x2="23.7" y2="47.7"/>
	<line class="st0" x1="35.5" y1="52.3" x2="34.5" y2="54"/>
	<line class="st0" x1="24.6" y1="38.4" x2="23.6" y2="40.1"/>
	<line class="st0" x1="29.8" y1="56.9" x2="28.1" y2="56.2"/>
	<line class="st0" x1="33.7" y1="60.7" x2="32.9" y2="59"/>
	<line class="st0" x1="58.9" y1="6.2" x2="58" y2="8"/>
	<line class="st0" x1="58.8" y1="14.6" x2="57.4" y2="13.3"/>
	<line class="st0" x1="49.7" y1="10.1" x2="51.8" y2="10.6"/>
	<line class="st0" x1="21.4" y1="60.8" x2="22.7" y2="62.5"/>
	<line class="st0" x1="38.4" y1="68" x2="37.1" y2="69.5"/>
	<line class="st0" x1="33.6" y1="73.9" x2="32.3" y2="75.4"/>
	<line class="st0" x1="25" y1="64.3" x2="27" y2="63.9"/>
	<line class="st0" x1="7.6" y1="68.1" x2="8.9" y2="66.6"/>
	<line class="st0" x1="17.7" y1="68.6" x2="15.8" y2="68.6"/>
	<line class="st0" x1="12.6" y1="59.4" x2="11.6" y2="61.3"/>
	<line class="st0" x1="13.8" y1="66.4" x2="12.5" y2="65.1"/>
	<line class="st0" x1="26" y1="74.3" x2="24.5" y2="73.1"/>
	<line class="st0" x1="19.3" y1="70.1" x2="18.5" y2="71.9"/>
	<line class="st0" x1="31.1" y1="66.3" x2="30.3" y2="68.1"/>
	<line class="st0" x1="12.2" y1="73.3" x2="10.8" y2="74.5"/>
	<line class="st0" x1="17.6" y1="80.1" x2="16.6" y2="78.5"/>
	<line class="st0" x1="25.3" y1="78.5" x2="24.1" y2="80"/>
	<line class="st0" x1="22" y1="75.4" x2="20.1" y2="75.8"/>
	<line class="st0" x1="15.7" y1="58.3" x2="17.7" y2="59.1"/>
	<line class="st0" x1="8.1" y1="62.1" x2="10.2" y2="62.6"/>
	<line class="st0" x1="79.1" y1="1.2" x2="80.3" y2="2.9"/>
	<line class="st0" x1="80.4" y1="6.6" x2="79.1" y2="8.1"/>
	<line class="st0" x1="72" y1="11.3" x2="70.7" y2="12.7"/>
	<line class="st0" x1="75.9" y1="9.4" x2="74" y2="9.4"/>
	<line class="st0" x1="71.5" y1="0.8" x2="70.6" y2="2.7"/>
	<line class="st0" x1="72.1" y1="7.2" x2="70.7" y2="5.9"/>
	<line class="st0" x1="80.2" y1="11.9" x2="78.7" y2="10.7"/>
	<line class="st0" x1="76.8" y1="12.7" x2="75.9" y2="14.4"/>
	<line class="st0" x1="72" y1="15.7" x2="70.2" y2="15.1"/>
	<line class="st0" x1="75.9" y1="20.9" x2="74.9" y2="19.3"/>
	<line class="st0" x1="79.4" y1="23.6" x2="77.6" y2="23.7"/>
	<line class="st0" x1="75" y1="25.9" x2="73.8" y2="27.4"/>
	<line class="st0" x1="74.1" y1="33.4" x2="72.8" y2="34.9"/>
	<line class="st0" x1="71.6" y1="29.6" x2="69.7" y2="29.7"/>
	<line class="st0" x1="75.6" y1="31.8" x2="74" y2="30.7"/>
	<line class="st0" x1="79.5" y1="17.2" x2="77.6" y2="17.6"/>
	<line class="st0" x1="74.7" y1="1.6" x2="76.6" y2="2.4"/>
	<line class="st0" x1="66.4" y1="3.7" x2="68.5" y2="4.1"/>
	<line class="st0" x1="78.9" y1="36.3" x2="77" y2="36.7"/>
	<line class="st0" x1="42" y1="1.4" x2="43.3" y2="3.1"/>
	<line class="st0" x1="42.3" y1="6.2" x2="41" y2="7.6"/>
	<line class="st0" x1="34.4" y1="11" x2="33.1" y2="12.5"/>
	<line class="st0" x1="45.6" y1="4.8" x2="47.7" y2="4.4"/>
	<line class="st0" x1="38.3" y1="9.2" x2="36.4" y2="9.2"/>
	<line class="st0" x1="30.9" y1="0.8" x2="31.5" y2="2.7"/>
	<line class="st0" x1="34.5" y1="6.9" x2="33.1" y2="5.7"/>
	<line class="st0" x1="46.6" y1="15.4" x2="45.1" y2="14.2"/>
	<line class="st0" x1="40" y1="10.6" x2="39.1" y2="12.4"/>
	<line class="st0" x1="47.6" y1="7.7" x2="46.7" y2="9.5"/>
	<line class="st0" x1="34.3" y1="15.5" x2="32.6" y2="14.8"/>
	<line class="st0" x1="45.3" y1="19.6" x2="44.1" y2="21.1"/>
	<line class="st0" x1="38.2" y1="26.8" x2="36.5" y2="26"/>
	<line class="st0" x1="44.7" y1="30.7" x2="42.8" y2="30.8"/>
	<line class="st0" x1="42.6" y1="16.6" x2="40.7" y2="17"/>
	<line class="st0" x1="26.6" y1="3.1" x2="28.6" y2="4"/>
	<line class="st0" x1="71.9" y1="18.9" x2="70.1" y2="19"/>
	<line class="st0" x1="66.9" y1="14.5" x2="65.4" y2="13.4"/>
	<polyline class="st0" points="37.8,15.8 38.1,17.8 36.2,17.1 	"/>
	<polyline class="st0" points="23.7,14.9 24.7,16.6 22.7,16.7 	"/>
	<polyline class="st0" points="57.7,22.5 58.7,24.2 56.7,24.4 	"/>
	<polyline class="st0" points="15.7,74.5 16.7,76.2 14.7,76.4 	"/>
	<polyline class="st0" points="69.1,35 70.2,36.8 68.1,36.9 	"/>
	<polyline class="st0" points="44.6,61.5 45.7,63.3 43.6,63.4 	"/>
	<polyline class="st0" points="21.4,3.4 20.8,1.5 22.8,1.8 	"/>
	<polyline class="st0" points="29.6,8.8 31.3,9.8 29.7,10.9 	"/>
	<polyline class="st0" points="55,9.1 56.8,10.1 55.1,11.2 	"/>
	<polyline class="st0" points="17.2,36.3 17.4,38.3 15.5,37.7 	"/>
	<polyline class="st0" points="71,22.3 71.3,24.4 69.4,23.7 	"/>
	<polyline class="st0" points="42.7,73.8 42.9,75.8 41,75.2 	"/>
	<polyline class="st0" points="62.8,39.4 63.1,41.4 61.2,40.8 	"/>
	<polyline class="st0" points="63.7,28.3 63.9,30.3 62,29.6 	"/>
	<polyline class="st0" points="48.8,28.7 49.1,30.7 47.2,30 	"/>
	<polyline class="st0" points="3.8,39.2 2,38.3 3.6,37.1 	"/>
	<polyline class="st0" points="17.1,8.2 15.9,9.8 15,8.1 	"/>
	<polyline class="st0" points="31.5,23.5 29.5,23.1 30.8,21.5 	"/>
	<polyline class="st0" points="36.3,30.7 37.4,29 38.4,30.8 	"/>
	<polyline class="st0" points="30,45.2 30.1,47.2 28.3,46.4 	"/>
	<polyline class="st0" points="50.6,1 50.7,3 48.8,2.2 	"/>
	<polyline class="st0" points="69.4,75.3 69.4,77.3 67.6,76.4 	"/>
	<polyline class="st0" points="16.6,24 18.2,22.8 18.5,24.8 	"/>
	<polyline class="st0" points="9.2,28.9 10.9,30 9.2,31.1 	"/>
	<polyline class="st0" points="29.7,62 31.3,63.1 29.6,64.1 	"/>
	<polyline class="st0" points="24.6,29.6 23,30.8 22.6,28.9 	"/>
	<polyline class="st0" points="76.9,15.8 75.3,17 74.9,15 	"/>
	<polyline class="st0" points="51.1,41.1 49.5,42.3 49.1,40.3 	"/>
	<polyline class="st0" points="44.6,9.9 43,11.2 42.6,9.2 	"/>
	<polyline class="st0" points="2.7,47.6 2.6,49.7 0.8,48.7 	"/>
	<polyline class="st0" points="49.4,54.2 49.3,56.2 47.6,55.2 	"/>
	<polyline class="st0" points="9.1,57.8 7.1,57.3 8.5,55.7 	"/>
	<polyline class="st0" points="57.8,76.9 55.9,76.4 57.2,74.9 	"/>
	<polyline class="st0" points="17.5,64.2 15.8,63.2 17.5,62.1 	"/>
	<polyline class="st0" points="76.1,68.7 74.3,67.7 76,66.6 	"/>
	<polyline class="st0" points="57.4,50.8 55.7,49.8 57.4,48.7 	"/>
	<polyline class="st0" points="21.9,56.4 23.9,56 23.3,57.9 	"/>
	<polyline class="st0" points="79.3,32.8 78.2,31.2 80.2,30.8 	"/>
	<polyline class="st0" points="4.4,61.9 5.3,63.7 3.3,63.8 	"/>
	<polyline class="st0" points="78.6,56.2 76.6,56.5 77.3,54.6 	"/>
	<polyline class="st0" points="38.1,43.3 39.7,42 40.2,43.9 	"/>
	<polyline class="st0" points="66.1,63.9 67.6,62.6 68.1,64.5 	"/>
	<polyline class="st0" points="55.2,37.1 56.7,35.8 57.2,37.7 	"/>
	<polyline class="st0" points="42.7,24 44.2,22.7 44.7,24.7 	"/>
	<polyline class="st0" points="35.4,3.9 36.9,2.6 37.4,4.5 	"/>
	<polyline class="st0" points="21.3,44 21.8,42.1 23.3,43.4 	"/>
	<polyline class="st0" points="61.4,17.8 61.9,15.8 63.4,17.2 	"/>
	<polyline class="st0" points="33.3,72 33.8,70.1 35.3,71.4 	"/>
	<polyline class="st0" points="41.8,37.5 43.2,36 43.9,37.9 	"/>
	<polyline class="st0" points="9.5,41 11.5,41.6 10.1,43.1 	"/>
	<polyline class="st0" points="61.5,1.4 63.4,2 62,3.5 	"/>
	<polyline class="st0" points="76.8,6.3 74.9,7.1 75.1,5 	"/>
	<polyline class="st0" points="48.5,68.9 50.4,69.5 49,71 	"/>
	<polyline class="st0" points="23.4,68.8 25.3,69.3 24,70.8 	"/>
	<polyline class="st0" points="75.9,77.5 77.8,78.1 76.4,79.6 	"/>
	<polyline class="st0" points="3.4,8.7 4.2,10.5 2.1,10.4 	"/>
	<polyline class="st0" points="8.6,16.3 10.7,16.3 9.8,18.1 	"/>
	<polyline class="st0" points="1.6,22.3 3.7,22.3 2.8,24.1 	"/>
	<polyline class="st0" points="17.2,49.5 17.8,51.3 15.8,51.1 	"/>
	<polyline class="st0" points="68.5,48.4 69.2,50.3 67.2,50.1 	"/>
	<polyline class="st0" points="63.7,55.2 64.4,57.1 62.4,56.8 	"/>
	<polyline class="st0" points="36.7,57.7 34.7,57.6 35.7,55.9 	"/>
	<polyline class="st0" points="30,77.5 28,77.4 29,75.7 	"/>
	<polyline class="st0" points="57.4,63.2 55.4,63 56.4,61.3 	"/>
	<polyline class="st0" points="6.6,76.2 4.6,76 5.6,74.3 	"/>
	<polyline class="st0" points="31,36.9 29,37.1 29.8,35.2 	"/>
	<polyline class="st0" points="69,10.5 67,10.7 67.8,8.8 	"/>
	<polyline class="st0" points="50.1,19.2 48.1,19.3 48.8,17.5 	"/>
	<polyline class="st0" points="12.9,70.8 10.8,70.9 11.6,69 	"/>
	<polyline class="st0" points="77.2,43.8 75.1,43.9 75.9,42.1 	"/>
	<polyline class="st0" points="65.3,70.3 63.3,70.5 64.1,68.6 	"/>
	<polyline class="st0" points="42.9,49.2 44.8,49.7 43.5,51.2 	"/>
	<polyline class="st0" points="11.3,2.2 12.1,0.4 13.4,1.9 	"/>
</g>
</svg>
