<?xml version="1.0" encoding="utf-8"?>
<!-- Generator: Adobe Illustrator 23.0.1, SVG Export Plug-In . SVG Version: 6.00 Build 0)  -->
<svg version="1.1" id="Layer_1" xmlns="http://www.w3.org/2000/svg" xmlns:xlink="http://www.w3.org/1999/xlink" x="0px" y="0px"
	 viewBox="0 0 54 54" style="enable-background:new 0 0 54 54;" xml:space="preserve">
<style type="text/css">
	.st0{fill:none;stroke:#000000;stroke-width:0.3;}
</style>
<g>
	<polygon class="st0" points="28.8,2.1 27.8,1.5 24.9,6 25.9,6.7 	"/>
	<polygon class="st0" points="31.6,17.3 32.2,16.2 27.4,13.7 26.9,14.8 	"/>
	<polygon class="st0" points="43.7,26.1 44.9,26.3 45.7,21 44.5,20.8 	"/>
	<polygon class="st0" points="30.3,50.7 31.5,50.9 32.4,45.6 31.1,45.4 	"/>
	<polygon class="st0" points="13.8,32.1 15.1,32.1 15.1,26.8 13.8,26.8 	"/>
	<polygon class="st0" points="29.8,32.2 30.9,32.8 33.6,28.2 32.6,27.6 	"/>
	<polygon class="st0" points="36.4,36.6 36.7,37.8 41.9,36.7 41.6,35.5 	"/>
	<polygon class="st0" points="43.7,45.8 44.9,46.1 46.2,40.9 45,40.6 	"/>
	<polygon class="st0" points="42.1,32.8 42.9,31.9 38.9,28.3 38.1,29.2 	"/>
	<polygon class="st0" points="21.9,43.4 23.1,43.7 24.4,38.5 23.2,38.2 	"/>
	<polygon class="st0" points="22.3,10.1 21.4,9.3 17.8,13.3 18.7,14.1 	"/>
	<polygon class="st0" points="52.5,49.1 51.9,48 47.2,50.5 47.8,51.6 	"/>
	<polygon class="st0" points="10.9,40.6 10.3,39.6 5.6,42.1 6.2,43.2 	"/>
	<polygon class="st0" points="19.8,6.5 20.6,5.6 16.6,1.5 15.7,2.4 	"/>
	<polygon class="st0" points="48.3,3.9 47.3,3.2 44.4,7.7 45.4,8.4 	"/>
	<polygon class="st0" points="50.6,19.1 51.4,18.2 47.5,14.5 46.7,15.4 	"/>
	<polygon class="st0" points="42.4,13.9 41.6,12.9 37.5,16.4 38.3,17.4 	"/>
	<polygon class="st0" points="38.8,7.1 39.8,6.3 36.3,1.7 35.4,2.5 	"/>
	<polygon class="st0" points="12.4,22.4 11.5,21.5 7.5,25.1 8.4,26 	"/>
	<polygon class="st0" points="12.9,10.2 14.2,10.2 14.1,4.8 12.9,4.8 	"/>
	<polygon class="st0" points="27.9,25.6 29.1,25.3 27.9,20.1 26.6,20.3 	"/>
	<polygon class="st0" points="10.1,52 11.3,51.7 10.1,46.5 8.9,46.8 	"/>
	<polygon class="st0" points="52,11.8 53.2,11.5 51.9,6.3 50.6,6.6 	"/>
	<polygon class="st0" points="35.4,10.4 35.6,9.2 30.2,8.7 30.1,10 	"/>
	<polygon class="st0" points="39.8,22.7 39.6,21.5 34.3,22.2 34.5,23.5 	"/>
	<polygon class="st0" points="20.6,22.6 21.4,21.7 17.2,18.3 16.4,19.3 	"/>
	<polygon class="st0" points="52.3,44.4 53.3,43.6 50.2,39.3 49.1,40 	"/>
	<polygon class="st0" points="2,23.5 3.3,23.5 3.1,18.1 1.9,18.1 	"/>
	<polygon class="st0" points="1.5,39.2 2.8,39.2 2.6,33.8 1.4,33.9 	"/>
	<polygon class="st0" points="9.4,34.3 10,33.2 5.5,30.3 4.8,31.4 	"/>
	<polygon class="st0" points="5.2,50 5.9,48.9 1.4,46.1 0.7,47.1 	"/>
	<polygon class="st0" points="26.3,52.5 27,51.5 22.5,48.6 21.8,49.6 	"/>
	<polygon class="st0" points="17.5,43 18.4,42.2 14.9,38.1 14,38.9 	"/>
	<polygon class="st0" points="31.3,41.5 32.2,40.7 28.7,36.6 27.8,37.4 	"/>
	<polygon class="st0" points="25.2,32.4 25,31.2 19.7,31.7 19.8,32.9 	"/>
	<polygon class="st0" points="10.3,17.1 11.2,16.2 7.5,12.3 6.6,13.1 	"/>
	<polygon class="st0" points="41.2,52.8 41.7,51.6 36.9,49.4 36.3,50.5 	"/>
	<polygon class="st0" points="53.1,31.3 52.1,30.5 48.5,34.5 49.5,35.3 	"/>
	<polygon class="st0" points="20.1,48.9 19.2,48.1 15.6,52.1 16.5,52.9 	"/>
	<polygon class="st0" points="40.6,42.3 39.7,41.5 36.1,45.5 37,46.3 	"/>
	<polygon class="st0" points="52.3,27.3 53.2,26.5 49.6,22.5 48.7,23.4 	"/>
	<polygon class="st0" points="6.8,8.8 6.1,7.7 1.7,10.8 2.4,11.8 	"/>
	<polygon class="st0" points="9.2,4.2 9.5,3 4.1,1.1 3.7,2.3 	"/>
</g>
</svg>
