<?xml version="1.0" encoding="utf-8"?>
<!-- Generator: Adobe Illustrator 23.0.1, SVG Export Plug-In . SVG Version: 6.00 Build 0)  -->
<svg version="1.1" id="Layer_1" xmlns="http://www.w3.org/2000/svg" xmlns:xlink="http://www.w3.org/1999/xlink" x="0px" y="0px"
	 viewBox="0 0 43.3 43.3" style="enable-background:new 0 0 43.3 43.3;" xml:space="preserve">
<style type="text/css">
	.st0{clip-path:url(#SVGID_1_);fill:none;stroke:#000000;stroke-width:0.3;stroke-linecap:round;stroke-linejoin:round;}
</style>
<g>
	<defs>
		<rect id="SVGID_3_" x="0" y="0" width="43.3" height="43.3"/>
	</defs>
	<clipPath id="SVGID_1_">
		<use xlink:href="#SVGID_3_"  style="overflow:visible;"/>
	</clipPath>
	<polyline class="st0" points="39.2,2.6 40.3,5.6 41.3,2.6 	"/>
	<polyline class="st0" points="33,2.6 34.1,5.6 35.1,2.6 	"/>
	<polyline class="st0" points="26.8,2.6 27.9,5.6 28.9,2.6 	"/>
	<polyline class="st0" points="20.6,2.6 21.7,5.6 22.7,2.6 	"/>
	<polyline class="st0" points="14.4,2.6 15.5,5.6 16.5,2.6 	"/>
	<polyline class="st0" points="8.2,2.6 9.3,5.6 10.4,2.6 	"/>
	<polyline class="st0" points="2,2.6 3.1,5.6 4.2,2.6 	"/>
	<line class="st0" x1="0" y1="12.8" x2="1.1" y2="9.9"/>
	<polyline class="st0" points="2,17.1 3.1,20.1 4.2,17.1 	"/>
	<line class="st0" x1="0" y1="27.3" x2="1.1" y2="24.3"/>
	<polyline class="st0" points="2,31.6 3.1,34.5 4.2,31.6 	"/>
	<line class="st0" x1="0" y1="41.8" x2="1.1" y2="38.8"/>
	<line class="st0" x1="42.3" y1="9.9" x2="43.3" y2="12.8"/>
	<polyline class="st0" points="36.1,9.8 37.2,12.8 38.3,9.8 	"/>
	<polyline class="st0" points="29.9,9.8 31,12.8 32.1,9.8 	"/>
	<polyline class="st0" points="23.7,9.8 24.8,12.8 25.9,9.8 	"/>
	<polyline class="st0" points="17.5,9.8 18.6,12.8 19.7,9.8 	"/>
	<polyline class="st0" points="11.3,9.8 12.4,12.8 13.5,9.8 	"/>
	<polyline class="st0" points="5.1,9.8 6.2,12.8 7.3,9.8 	"/>
	<polyline class="st0" points="39.2,17 40.3,20 41.3,17 	"/>
	<polyline class="st0" points="33,17 34.1,20 35.1,17 	"/>
	<polyline class="st0" points="26.8,17 27.9,20 28.9,17 	"/>
	<polyline class="st0" points="20.6,17 21.7,20 22.7,17 	"/>
	<polyline class="st0" points="14.4,17 15.5,20 16.5,17 	"/>
	<polyline class="st0" points="8.2,17 9.3,20 10.4,17 	"/>
	<line class="st0" x1="42.3" y1="24.3" x2="43.3" y2="27.3"/>
	<polyline class="st0" points="36.1,24.3 37.2,27.2 38.3,24.3 	"/>
	<polyline class="st0" points="29.9,24.3 31,27.2 32.1,24.3 	"/>
	<polyline class="st0" points="23.7,24.3 24.8,27.2 25.9,24.3 	"/>
	<polyline class="st0" points="17.5,24.3 18.6,27.2 19.7,24.3 	"/>
	<polyline class="st0" points="11.3,24.3 12.4,27.2 13.5,24.3 	"/>
	<polyline class="st0" points="5.1,24.3 6.2,27.2 7.3,24.3 	"/>
	<polyline class="st0" points="39.2,31.5 40.3,34.5 41.3,31.5 	"/>
	<polyline class="st0" points="33,31.5 34.1,34.5 35.1,31.5 	"/>
	<polyline class="st0" points="26.8,31.5 27.9,34.5 28.9,31.5 	"/>
	<polyline class="st0" points="20.6,31.5 21.7,34.5 22.7,31.5 	"/>
	<polyline class="st0" points="14.4,31.5 15.5,34.5 16.5,31.5 	"/>
	<polyline class="st0" points="8.2,31.5 9.3,34.5 10.4,31.5 	"/>
	<line class="st0" x1="42.3" y1="38.8" x2="43.3" y2="41.8"/>
	<polyline class="st0" points="36.1,38.7 37.2,41.7 38.3,38.7 	"/>
	<polyline class="st0" points="29.9,38.7 31,41.7 32.1,38.7 	"/>
	<polyline class="st0" points="23.7,38.7 24.8,41.7 25.9,38.7 	"/>
	<polyline class="st0" points="17.5,38.7 18.6,41.7 19.7,38.7 	"/>
	<polyline class="st0" points="11.3,38.7 12.4,41.7 13.5,38.7 	"/>
	<polyline class="st0" points="5.1,38.7 6.2,41.7 7.3,38.7 	"/>
</g>
</svg>
