<?xml version="1.0" encoding="utf-8"?>
<!-- Generator: Adobe Illustrator 23.0.1, SVG Export Plug-In . SVG Version: 6.00 Build 0)  -->
<svg version="1.1" id="Layer_1" xmlns="http://www.w3.org/2000/svg" xmlns:xlink="http://www.w3.org/1999/xlink" x="0px" y="0px"
	 viewBox="0 0 53.7 53.7" style="enable-background:new 0 0 53.7 53.7;" xml:space="preserve">
<style type="text/css">
	.st0{fill:none;stroke:#000000;stroke-width:0.3;}
</style>
<g>
	<path class="st0" d="M2.2,3.5C3.1,4,3.9,3.9,4.7,3.1S5.9,2.4,7,2.6S8.2,2.7,9.4,2s1.3-1.3,1.8-1"/>
	<path class="st0" d="M17.7,1.5c-1.3,0.9-1.5,0.5-1.1,1.6S17,4,16.2,4.7c-0.7,0.6-1.2,0.8-1,1.8S15.1,7.5,14.6,8"/>
	<path class="st0" d="M1.6,8.5C2.2,8.1,3.2,7.8,4,8.4S6.2,10.2,6.5,9s1.7-0.5,2.6,0"/>
	<path class="st0" d="M20.9,2.2c-0.1,1.3,0.1,2,1,2.1s0.9-0.3,1,0.6S23,6,24,6s1.5,0,1.6,0.9s0.6,1.4,1.6,1.4"/>
	<path class="st0" d="M12.3,16.1c0.1,1.2,0.5,1.9,1.4,1.9c0.9-0.1,0.8-0.4,1.1,0.4c0.3,0.8,0.4,1.1,1.3,0.9c1-0.2,1.5-0.3,1.8,0.5"
		/>
	<path class="st0" d="M18.1,7.9c0,1.4,0.3,1.7,0.8,2.2s0.9,0.6,0.3,1.4s-0.5,0.8,0.4,1.6s0.5,1.5-0.4,2.6s-1,1.3-0.8,1.8"/>
	<path class="st0" d="M11.5,11.3c-0.8,0.3-1.4,0.4-1.3,1.1s0.1,1.2-0.9,1.4S8.5,14,8.5,15s-0.1,1.3-0.6,1.6s-0.4,0.5-0.5,0.8"/>
	<path class="st0" d="M1.5,13.4c0.3,0.8,0.3,0.9,0.6,1.3s0.2,0.8-0.1,1.1s-0.8,0.6-0.3,1.4s0.6,1.4,0.2,1.9s-0.6,0.8-0.2,1.4"/>
	<path class="st0" d="M9.9,22.5c0.5-0.2,0.7-0.6,1.4,0.1s0.6,0.3,1.6,0.2s0.9-0.1,1.4,0.3s1.5,0.7,2.9-0.6"/>
	<path class="st0" d="M11.1,26c1.3,0.2,1.9,0.1,2.1,0.9s0,0.8,0.7,1s1.1,0.4,0.6,1.5s-0.5,1.1-0.4,1.4"/>
	<path class="st0" d="M4.5,27.8c0.7,0.4,0.7-0.1,1.2,0.8s0.6,0.6,1.2,0.9s0.4,0.6,0.5,1.4s0.1,1.2,1.1,1.2s1.4,0.6,1.6,1.1"/>
	<path class="st0" d="M17.2,27.3c0.4-0.4,0.7-0.6,1.1-1.2s0.9-0.8,1.9-0.5s0.9,0.1,1.4-0.5s1.1-0.8,1.4-0.8"/>
	<path class="st0" d="M7.2,22c-0.8,0-1.5,0.1-1.6,0.6s-0.6,1.1-1.4,0.9S3,23.2,2.7,23.6S1.8,24.1,1.5,24"/>
	<path class="st0" d="M23,9.3c0.5,0.8,0.4,0.8,0.8,1s0.4,0.8,0.3,1.1s-0.3,0.6,0.4,1s1.1,1.1,0.4,1.6s-0.8,0.8-0.8,1.2"/>
	<path class="st0" d="M27.6,16c0.3-0.6,0.6-1,0.9-1.1s0.7-0.3,0.9-0.9s-0.2-1.1,0.5-1.1s0.6,0.2,0.9-0.6s0.8-1.3,1.5-0.9"/>
	<path class="st0" d="M30.2,19.2c-0.4,0-0.6-0.1-1.1,0.3s-1.1,0.3-1.6-0.1s-0.6-0.6-1-0.2s-0.8,0.9-1.6,0.1s-1.4-0.7-1.7-0.5"/>
	<path class="st0" d="M24,22c1,0.5,1.2,0.5,1.3,1.1s0.2,0.8,1.2,1s1.8,0.9,1.6,1.7S27.9,27,29,27.1s1.4-0.1,1.6,0.5"/>
	<path class="st0" d="M22.3,28.9c-1.1-0.3-1.9-0.4-2.1,0.5s-0.6,1.5-1.3,1.8S18.2,31.3,18,32s-0.9,1.6-1.7,1.7"/>
	<path class="st0" d="M1.4,30.4c0.1,0.7-0.1,0.9,0.6,1.4s0.8,1.1,0.5,1.9S2,34.5,2.6,35.1s0.4,1.2,0,1.9"/>
	<path class="st0" d="M1,43.3c0.2-0.6,0.2-0.9,0.8-0.9S3,42,3.2,41.3s0.6-1.5,1.6-1.2s1.9,0.4,2.6-0.7"/>
	<path class="st0" d="M9.4,36.5c0.8,0.2,1.3,0.8,2.1,0.4s1-0.6,1.5,0s1.9,1.1,2.5,0.6c0.6-0.5,1.2-0.6,1.6-0.4"/>
	<path class="st0" d="M14.3,40.2c0.8,0,0.8-0.3,1.1,0.3s0.4,0.7,1.1,0.7c0.8,0,0.8-0.3,1.3,0.4s0.7,1,1.6,1s1,0.1,1.3,0.5
		s0.6,0.5,1.1,0.4"/>
	<path class="st0" d="M26.5,34.2c-0.6-0.3-0.9-0.5-1.3-0.4s-1.1,0.2-1.6-0.3s-0.8-0.5-1.4,0.1s-0.8,0.7-1.6,0.6s-0.9,0.1-0.9,0.5"/>
	<path class="st0" d="M23.8,40.4c0.4-0.4,0.8-0.9,0.6-1.6s0.3-1.9,1-1.9s1.3-0.3,1.9-1s1.1-0.9,1.7-0.8"/>
	<path class="st0" d="M10.3,47.2c-0.3-1-0.4-1.6-1-1.6c-0.6,0-1.4-0.4-1.6-1.2S7,43.4,6.5,43.1"/>
	<path class="st0" d="M27.2,44.2c0.6,0.3,1,0.4,1.7-0.1s1-0.6,1.6-0.4s1.4-0.1,1.6-0.9s0.8-1.2,1.1-1.3"/>
	<path class="st0" d="M32.1,30.8c0.6,0.9,0.7,0.9,1.4,1s0.9,0.1,1.2,0.7s0.7,0.8,1.8,0.6s1.4,0.1,1.5,0.6"/>
	<path class="st0" d="M34.6,35.8c0.7,0.4,0.9,0.6,0.6,1.2s-0.1,1.4,0.3,1.9s0.6,0.8,0.3,1.4s0.3,1.7,0.8,2"/>
	<path class="st0" d="M43.7,31.2c-0.5,0.4-0.6,0.6-0.4,1.4s0.4,1.4-0.4,1.6s-1.9,0.5-2.2,1.1S39.8,36,39.3,36"/>
	<path class="st0" d="M31.5,21.1c0.4,0.2,0.3-0.1,0.7,0.8s0.3,0.4,0.9,0.7s1,1.4,0.5,2.1s-0.6,1.3-0.1,1.8s0.5,0.8,0.4,1.3"/>
	<path class="st0" d="M38.2,29.7c0.4-0.4,0.2-0.8,0.8-0.8s1-0.1,1.4-0.5s0.4-0.6,1.1-0.4s0.5,0.3,1.2-0.1s0.7-0.3,1.3-0.1
		s0.6,0.2,1.4,0s1.1-0.2,1.4-0.1"/>
	<path class="st0" d="M46,36.6c-0.6,0.4-0.4,0.3-0.8,0.9s-0.3,0.7-0.9,0.9s-0.9,0.3-0.9,1s0.3,1.4-0.9,1.8s-1.4,0.5-1.6,1
		s-0.6,0.9-0.7,1.3"/>
	<path class="st0" d="M49.1,33.9c0.8,0.5,1,0.4,0.8,1.2c-0.2,0.8,0.1,1.5,0.9,1.4c0.8-0.1,2,0.2,2.2,0.7"/>
	<path class="st0" d="M46.1,40.2c0.7-0.1,0.5-0.1,1.1,0.2c0.7,0.3,0.4,0.4,1.1,0.1c0.7-0.3,1.6-0.4,2.1,0.5c0.5,0.9,1.4,1.3,1.8,1.2
		"/>
	<path class="st0" d="M52.9,27.9c-0.3,0.3-0.4,0.3-1.1,0.3c-0.7,0-1.8,0.5-1.9,1.4c0,0.9,0.2,1.6-0.9,1.8c-1.1,0.2-1.5,0.3-1.7,0.8"
		/>
	<path class="st0" d="M42.6,23.8c-1.1-0.4-1.3-0.7-1.6-0.2s-1.3,1.4-1.7,0.9s-0.4-0.8-0.9-0.7s-0.9-0.4-1.2-0.9"/>
	<path class="st0" d="M52.7,23.8c-0.8-0.5-0.7-0.4-1.5,0c-0.8,0.4-2.3,0.2-2.3-0.7c0-1,0.2-1.7-0.5-1.6c-0.7,0.1-0.6,0.2-1.3-0.2"/>
	<path class="st0" d="M36.2,10c-0.4,0.5-0.6,0.8-0.3,1.3s0.5,1.4-0.3,2.2s-1.2,0.8-1,1.4s0.3,1.6-0.3,2"/>
	<path class="st0" d="M38.2,15.1c0.3,1,0.3,1.2,0.6,1.5s0.4,0.8,0.4,1.3s0.4,1.2,1.3,1.1s0.8-0.5,1.2-0.1s0.3,0.4,1,0.4
		s0.8,0.2,0.9,0.6"/>
	<path class="st0" d="M47.4,13c-1,0.2-1.3-0.1-1.5,0.3s-0.6,0.3-0.9,0.5s-0.3-0.1-0.6,0.7s-1.4,1.3-1.9,0.9s-0.9-0.9-1.3-0.7"/>
	<path class="st0" d="M52.6,14.8c-0.8,0.3-0.8,0.3-1.1,0.8c-0.2,0.5-0.3,0.6-1.4,0.5c-1.1-0.1-1.5,0.3-1.7,1.2
		c-0.2,0.9-0.5,1.3-1.1,1.5"/>
	<path class="st0" d="M48.8,7c1,0.6,0.9,0.4,1.2,1.2s0.3,1.4,1,1.9s0.8,0.6,0.9,1.4"/>
	<path class="st0" d="M46.4,8.3c-0.4,0.8-1.6,1.4-2.2,1s-1-1-1.8-0.4S41,9.6,40.3,9.4s-0.9-0.3-1.2-0.1"/>
	<path class="st0" d="M43.3,1.6C44,2.3,45,3.7,44.3,4s-1.1,0.2-1.1,0.8S42.7,6,42.1,6.5s-0.8,0.6-0.8,0.9"/>
	<path class="st0" d="M47,0.9c1.1,1.2,0.7,0.8,1.5,0.9s1-0.4,1.3,0.6S49.6,3.8,50.6,4s1.5,0.4,1.7,1"/>
	<path class="st0" d="M39.3,3.7c-0.9-0.3-2.3-1-2.8-0.1s-1.1,1.9-1.8,1.9s-1.2-0.1-1.6,0.4s-1.1,0.8-1.8,1"/>
	<path class="st0" d="M25.7,2.2c0.8-0.8,0.6-1.4,1.8-0.8s1.1,0.5,2,0.2s0.9-0.7,1.8-0.1S32,2,32.4,2s0.8,0.3,0.9,0.8"/>
	<path class="st0" d="M45.8,44.9c0.9,0.8,1.6,1.2,1.3,1.9c-0.3,0.7-0.4,0.7,0,1.2c0.5,0.5,0.7,1-0.3,1.6c-1,0.6-1,0.6-1.1,0.9"/>
	<path class="st0" d="M0.7,46.3c1,0.5,1.2,0.5,1.3,1.1s0.2,0.8,1.2,1s1.8,0.9,1.6,1.7s-0.2,1.2,0.9,1.3s1.4-0.1,1.6,0.5"/>
	<path class="st0" d="M42.8,46.2c-0.6-0.3-0.9-0.5-1.3-0.4s-1.1,0.2-1.6-0.3s-0.8-0.5-1.4,0.1s-0.8,0.7-1.6,0.6S36,46.3,36,46.8"/>
	<path class="st0" d="M15.1,51.9c0.1-0.6,0.2-1.2-0.4-1.6c-0.5-0.5-0.8-1.7-0.2-2.1c0.6-0.4,0.9-0.9,1-1.9c0.1-1,0.4-1.4,0.9-1.6"/>
	<path class="st0" d="M33.5,52.3c0.6,0.3,1,0.4,1.7-0.1s1-0.6,1.6-0.4s1.4-0.1,1.6-0.9s0.8-1.2,1.1-1.3"/>
	<path class="st0" d="M52.6,47.6C52.1,48,52,48.2,52.2,49s0.4,1.4-0.4,1.6s-1.9,0.5-2.2,1.1s-0.9,0.7-1.4,0.6"/>
	<path class="st0" d="M25.9,46.3c0.4,0.2,0.3-0.1,0.7,0.8s0.3,0.4,0.9,0.7s1,1.4,0.5,2.1s-0.6,1.3-0.1,1.8s0.5,0.8,0.4,1.3"/>
	<path class="st0" d="M24,50.3c-1.1-0.4-1.3-0.7-1.6-0.2s-1.3,1.4-1.7,0.9s-0.4-0.8-0.9-0.7s-0.9-0.4-1.2-0.9"/>
</g>
</svg>
