<?xml version="1.0" encoding="utf-8"?>
<!-- Generator: Adobe Illustrator 23.0.1, SVG Export Plug-In . SVG Version: 6.00 Build 0)  -->
<svg version="1.1" id="Layer_1" xmlns="http://www.w3.org/2000/svg" xmlns:xlink="http://www.w3.org/1999/xlink" x="0px" y="0px"
	 viewBox="0 0 54.1 54.1" style="enable-background:new 0 0 54.1 54.1;" xml:space="preserve">
<style type="text/css">
	.st0{clip-path:url(#SVGID_2_);fill:none;stroke:#000000;stroke-width:0.7;stroke-linecap:round;}
</style>
<g>
	<defs>
		<rect id="SVGID_1_" x="0" y="0" width="54.1" height="54.1"/>
	</defs>
	<clipPath id="SVGID_2_">
		<use xlink:href="#SVGID_1_"  style="overflow:visible;"/>
	</clipPath>
	<line class="st0" x1="0.5" y1="2.9" x2="0.5" y2="2.9"/>
	<line class="st0" x1="2.5" y1="2.6" x2="2.5" y2="2.6"/>
	<line class="st0" x1="4.3" y1="1.9" x2="4.3" y2="1.9"/>
	<line class="st0" x1="6.2" y1="1.8" x2="6.2" y2="1.8"/>
	<line class="st0" x1="8.2" y1="1.9" x2="8.2" y2="1.9"/>
	<line class="st0" x1="10.1" y1="2.4" x2="10.1" y2="2.4"/>
	<line class="st0" x1="11.9" y1="2.8" x2="11.9" y2="2.8"/>
	<line class="st0" x1="14" y1="2.9" x2="14" y2="2.9"/>
	<line class="st0" x1="16" y1="2.6" x2="16" y2="2.6"/>
	<line class="st0" x1="17.8" y1="1.9" x2="17.8" y2="1.9"/>
	<line class="st0" x1="19.8" y1="1.8" x2="19.8" y2="1.8"/>
	<line class="st0" x1="21.7" y1="1.9" x2="21.7" y2="1.9"/>
	<line class="st0" x1="23.7" y1="2.4" x2="23.7" y2="2.4"/>
	<line class="st0" x1="25.4" y1="2.8" x2="25.4" y2="2.8"/>
	<line class="st0" x1="27.4" y1="2.8" x2="27.4" y2="2.8"/>
	<line class="st0" x1="29.4" y1="2.5" x2="29.4" y2="2.5"/>
	<line class="st0" x1="31.3" y1="1.9" x2="31.3" y2="1.9"/>
	<line class="st0" x1="33.2" y1="1.8" x2="33.2" y2="1.8"/>
	<line class="st0" x1="35.1" y1="1.9" x2="35.1" y2="1.9"/>
	<line class="st0" x1="37.1" y1="2.3" x2="37.1" y2="2.3"/>
	<line class="st0" x1="39" y1="2.7" x2="39" y2="2.7"/>
	<line class="st0" x1="41" y1="2.8" x2="41" y2="2.8"/>
	<line class="st0" x1="43" y1="2.5" x2="43" y2="2.5"/>
	<line class="st0" x1="44.8" y1="1.9" x2="44.8" y2="1.9"/>
	<line class="st0" x1="46.8" y1="1.8" x2="46.8" y2="1.8"/>
	<line class="st0" x1="48.7" y1="1.9" x2="48.7" y2="1.9"/>
	<line class="st0" x1="50.6" y1="2.3" x2="50.6" y2="2.3"/>
	<line class="st0" x1="52.4" y1="2.7" x2="52.4" y2="2.7"/>
	<line class="st0" x1="0.8" y1="7.4" x2="0.8" y2="7.4"/>
	<line class="st0" x1="2.6" y1="6.8" x2="2.6" y2="6.8"/>
	<line class="st0" x1="4.6" y1="6.7" x2="4.6" y2="6.7"/>
	<line class="st0" x1="6.5" y1="6.8" x2="6.5" y2="6.8"/>
	<line class="st0" x1="8.5" y1="7.3" x2="8.5" y2="7.3"/>
	<line class="st0" x1="10.3" y1="7.6" x2="10.3" y2="7.6"/>
	<line class="st0" x1="12.3" y1="7.8" x2="12.3" y2="7.8"/>
	<line class="st0" x1="14.4" y1="7.4" x2="14.4" y2="7.4"/>
	<line class="st0" x1="16.2" y1="6.8" x2="16.2" y2="6.8"/>
	<line class="st0" x1="18.1" y1="6.7" x2="18.1" y2="6.7"/>
	<line class="st0" x1="20.1" y1="6.8" x2="20.1" y2="6.8"/>
	<line class="st0" x1="22" y1="7.3" x2="22" y2="7.3"/>
	<line class="st0" x1="23.8" y1="7.6" x2="23.8" y2="7.6"/>
	<line class="st0" x1="25.8" y1="7.7" x2="25.8" y2="7.7"/>
	<line class="st0" x1="27.8" y1="7.4" x2="27.8" y2="7.4"/>
	<line class="st0" x1="29.6" y1="6.8" x2="29.6" y2="6.8"/>
	<line class="st0" x1="31.6" y1="6.6" x2="31.6" y2="6.6"/>
	<line class="st0" x1="33.5" y1="6.8" x2="33.5" y2="6.8"/>
	<line class="st0" x1="35.4" y1="7.2" x2="35.4" y2="7.2"/>
	<line class="st0" x1="37.3" y1="7.6" x2="37.3" y2="7.6"/>
	<line class="st0" x1="39.3" y1="7.7" x2="39.3" y2="7.7"/>
	<line class="st0" x1="41.4" y1="7.4" x2="41.4" y2="7.4"/>
	<line class="st0" x1="43.2" y1="6.8" x2="43.2" y2="6.8"/>
	<line class="st0" x1="45.1" y1="6.6" x2="45.1" y2="6.6"/>
	<line class="st0" x1="47.1" y1="6.8" x2="47.1" y2="6.8"/>
	<line class="st0" x1="49" y1="7.2" x2="49" y2="7.2"/>
	<line class="st0" x1="50.7" y1="7.6" x2="50.7" y2="7.6"/>
	<line class="st0" x1="52.7" y1="7.7" x2="52.7" y2="7.7"/>
	<line class="st0" x1="0.5" y1="11.8" x2="0.5" y2="11.8"/>
	<line class="st0" x1="2.4" y1="11.7" x2="2.4" y2="11.7"/>
	<line class="st0" x1="4.4" y1="11.8" x2="4.4" y2="11.8"/>
	<line class="st0" x1="6.3" y1="12.3" x2="6.3" y2="12.3"/>
	<line class="st0" x1="8.1" y1="12.6" x2="8.1" y2="12.6"/>
	<line class="st0" x1="10.2" y1="12.8" x2="10.2" y2="12.8"/>
	<line class="st0" x1="12.2" y1="12.4" x2="12.2" y2="12.4"/>
	<line class="st0" x1="14" y1="11.8" x2="14" y2="11.8"/>
	<line class="st0" x1="16" y1="11.7" x2="16" y2="11.7"/>
	<line class="st0" x1="17.9" y1="11.8" x2="17.9" y2="11.8"/>
	<line class="st0" x1="19.9" y1="12.3" x2="19.9" y2="12.3"/>
	<line class="st0" x1="21.6" y1="12.6" x2="21.6" y2="12.6"/>
	<line class="st0" x1="23.6" y1="12.7" x2="23.6" y2="12.7"/>
	<line class="st0" x1="25.6" y1="12.4" x2="25.6" y2="12.4"/>
	<line class="st0" x1="27.5" y1="11.8" x2="27.5" y2="11.8"/>
	<line class="st0" x1="29.4" y1="11.6" x2="29.4" y2="11.6"/>
	<line class="st0" x1="31.3" y1="11.8" x2="31.3" y2="11.8"/>
	<line class="st0" x1="33.3" y1="12.2" x2="33.3" y2="12.2"/>
	<line class="st0" x1="35.2" y1="12.6" x2="35.2" y2="12.6"/>
	<line class="st0" x1="37.2" y1="12.7" x2="37.2" y2="12.7"/>
	<line class="st0" x1="39.2" y1="12.4" x2="39.2" y2="12.4"/>
	<line class="st0" x1="41" y1="11.8" x2="41" y2="11.8"/>
	<line class="st0" x1="43" y1="11.6" x2="43" y2="11.6"/>
	<line class="st0" x1="44.9" y1="11.8" x2="44.9" y2="11.8"/>
	<line class="st0" x1="46.8" y1="12.2" x2="46.8" y2="12.2"/>
	<line class="st0" x1="48.6" y1="12.6" x2="48.6" y2="12.6"/>
	<line class="st0" x1="50.6" y1="12.7" x2="50.6" y2="12.7"/>
	<line class="st0" x1="52.6" y1="12.3" x2="52.6" y2="12.3"/>
	<line class="st0" x1="0.6" y1="16.7" x2="0.6" y2="16.7"/>
	<line class="st0" x1="2.6" y1="16.5" x2="2.6" y2="16.5"/>
	<line class="st0" x1="4.5" y1="16.7" x2="4.5" y2="16.7"/>
	<line class="st0" x1="6.5" y1="17.1" x2="6.5" y2="17.1"/>
	<line class="st0" x1="8.3" y1="17.5" x2="8.3" y2="17.5"/>
	<line class="st0" x1="10.3" y1="17.6" x2="10.3" y2="17.6"/>
	<line class="st0" x1="12.4" y1="17.3" x2="12.4" y2="17.3"/>
	<line class="st0" x1="14.2" y1="16.7" x2="14.2" y2="16.7"/>
	<line class="st0" x1="16.1" y1="16.5" x2="16.1" y2="16.5"/>
	<line class="st0" x1="18.1" y1="16.7" x2="18.1" y2="16.7"/>
	<line class="st0" x1="20" y1="17.1" x2="20" y2="17.1"/>
	<line class="st0" x1="21.8" y1="17.5" x2="21.8" y2="17.5"/>
	<line class="st0" x1="23.8" y1="17.5" x2="23.8" y2="17.5"/>
	<line class="st0" x1="25.8" y1="17.2" x2="25.8" y2="17.2"/>
	<line class="st0" x1="27.6" y1="16.6" x2="27.6" y2="16.6"/>
	<line class="st0" x1="29.6" y1="16.5" x2="29.6" y2="16.5"/>
	<line class="st0" x1="31.5" y1="16.6" x2="31.5" y2="16.6"/>
	<line class="st0" x1="33.4" y1="17" x2="33.4" y2="17"/>
	<line class="st0" x1="35.3" y1="17.4" x2="35.3" y2="17.4"/>
	<line class="st0" x1="37.3" y1="17.5" x2="37.3" y2="17.5"/>
	<line class="st0" x1="39.4" y1="17.2" x2="39.4" y2="17.2"/>
	<line class="st0" x1="41.2" y1="16.6" x2="41.2" y2="16.6"/>
	<line class="st0" x1="43.1" y1="16.5" x2="43.1" y2="16.5"/>
	<line class="st0" x1="45.1" y1="16.6" x2="45.1" y2="16.6"/>
	<line class="st0" x1="47" y1="17" x2="47" y2="17"/>
	<line class="st0" x1="48.7" y1="17.4" x2="48.7" y2="17.4"/>
	<line class="st0" x1="50.7" y1="17.5" x2="50.7" y2="17.5"/>
	<line class="st0" x1="52.8" y1="17.2" x2="52.8" y2="17.2"/>
	<line class="st0" x1="1.2" y1="22.4" x2="1.2" y2="22.4"/>
	<line class="st0" x1="3" y1="21.8" x2="3" y2="21.8"/>
	<line class="st0" x1="4.9" y1="21.7" x2="4.9" y2="21.7"/>
	<line class="st0" x1="6.9" y1="21.8" x2="6.9" y2="21.8"/>
	<line class="st0" x1="8.8" y1="22.3" x2="8.8" y2="22.3"/>
	<line class="st0" x1="10.6" y1="22.6" x2="10.6" y2="22.6"/>
	<line class="st0" x1="12.7" y1="22.8" x2="12.7" y2="22.8"/>
	<line class="st0" x1="14.7" y1="22.4" x2="14.7" y2="22.4"/>
	<line class="st0" x1="16.5" y1="21.8" x2="16.5" y2="21.8"/>
	<line class="st0" x1="18.5" y1="21.7" x2="18.5" y2="21.7"/>
	<line class="st0" x1="20.4" y1="21.8" x2="20.4" y2="21.8"/>
	<line class="st0" x1="22.4" y1="22.3" x2="22.4" y2="22.3"/>
	<line class="st0" x1="24.1" y1="22.6" x2="24.1" y2="22.6"/>
	<line class="st0" x1="26.1" y1="22.7" x2="26.1" y2="22.7"/>
	<line class="st0" x1="28.1" y1="22.4" x2="28.1" y2="22.4"/>
	<line class="st0" x1="30" y1="21.8" x2="30" y2="21.8"/>
	<line class="st0" x1="31.9" y1="21.6" x2="31.9" y2="21.6"/>
	<line class="st0" x1="33.8" y1="21.8" x2="33.8" y2="21.8"/>
	<line class="st0" x1="35.8" y1="22.2" x2="35.8" y2="22.2"/>
	<line class="st0" x1="37.7" y1="22.6" x2="37.7" y2="22.6"/>
	<line class="st0" x1="39.7" y1="22.7" x2="39.7" y2="22.7"/>
	<line class="st0" x1="41.7" y1="22.4" x2="41.7" y2="22.4"/>
	<line class="st0" x1="43.5" y1="21.8" x2="43.5" y2="21.8"/>
	<line class="st0" x1="45.5" y1="21.6" x2="45.5" y2="21.6"/>
	<line class="st0" x1="47.4" y1="21.8" x2="47.4" y2="21.8"/>
	<line class="st0" x1="49.3" y1="22.2" x2="49.3" y2="22.2"/>
	<line class="st0" x1="51.1" y1="22.6" x2="51.1" y2="22.6"/>
	<line class="st0" x1="53.1" y1="22.7" x2="53.1" y2="22.7"/>
	<line class="st0" x1="1" y1="27.1" x2="1" y2="27.1"/>
	<line class="st0" x1="2.8" y1="26.5" x2="2.8" y2="26.5"/>
	<line class="st0" x1="4.7" y1="26.4" x2="4.7" y2="26.4"/>
	<line class="st0" x1="6.7" y1="26.5" x2="6.7" y2="26.5"/>
	<line class="st0" x1="8.6" y1="26.9" x2="8.6" y2="26.9"/>
	<line class="st0" x1="10.5" y1="27.3" x2="10.5" y2="27.3"/>
	<line class="st0" x1="12.5" y1="27.4" x2="12.5" y2="27.4"/>
	<line class="st0" x1="14.6" y1="27.1" x2="14.6" y2="27.1"/>
	<line class="st0" x1="16.4" y1="26.5" x2="16.4" y2="26.5"/>
	<line class="st0" x1="18.3" y1="26.4" x2="18.3" y2="26.4"/>
	<line class="st0" x1="20.2" y1="26.5" x2="20.2" y2="26.5"/>
	<line class="st0" x1="22.2" y1="26.9" x2="22.2" y2="26.9"/>
	<line class="st0" x1="23.9" y1="27.3" x2="23.9" y2="27.3"/>
	<line class="st0" x1="25.9" y1="27.4" x2="25.9" y2="27.4"/>
	<line class="st0" x1="28" y1="27.1" x2="28" y2="27.1"/>
	<line class="st0" x1="29.8" y1="26.4" x2="29.8" y2="26.4"/>
	<line class="st0" x1="31.7" y1="26.3" x2="31.7" y2="26.3"/>
	<line class="st0" x1="33.7" y1="26.4" x2="33.7" y2="26.4"/>
	<line class="st0" x1="35.6" y1="26.9" x2="35.6" y2="26.9"/>
	<line class="st0" x1="37.5" y1="27.3" x2="37.5" y2="27.3"/>
	<line class="st0" x1="39.5" y1="27.4" x2="39.5" y2="27.4"/>
	<line class="st0" x1="41.5" y1="27.1" x2="41.5" y2="27.1"/>
	<line class="st0" x1="43.4" y1="26.4" x2="43.4" y2="26.4"/>
	<line class="st0" x1="45.3" y1="26.3" x2="45.3" y2="26.3"/>
	<line class="st0" x1="47.2" y1="26.4" x2="47.2" y2="26.4"/>
	<line class="st0" x1="49.2" y1="26.9" x2="49.2" y2="26.9"/>
	<line class="st0" x1="50.9" y1="27.3" x2="50.9" y2="27.3"/>
	<line class="st0" x1="52.9" y1="27.3" x2="52.9" y2="27.3"/>
	<line class="st0" x1="0.5" y1="32.4" x2="0.5" y2="32.4"/>
	<line class="st0" x1="2.3" y1="32.1" x2="2.3" y2="32.1"/>
	<line class="st0" x1="4.1" y1="31.5" x2="4.1" y2="31.5"/>
	<line class="st0" x1="6.1" y1="31.4" x2="6.1" y2="31.4"/>
	<line class="st0" x1="8" y1="31.5" x2="8" y2="31.5"/>
	<line class="st0" x1="10" y1="31.9" x2="10" y2="31.9"/>
	<line class="st0" x1="11.8" y1="32.3" x2="11.8" y2="32.3"/>
	<line class="st0" x1="13.8" y1="32.4" x2="13.8" y2="32.4"/>
	<line class="st0" x1="15.9" y1="32.1" x2="15.9" y2="32.1"/>
	<line class="st0" x1="17.7" y1="31.5" x2="17.7" y2="31.5"/>
	<line class="st0" x1="19.6" y1="31.4" x2="19.6" y2="31.4"/>
	<line class="st0" x1="21.6" y1="31.5" x2="21.6" y2="31.5"/>
	<line class="st0" x1="23.5" y1="31.9" x2="23.5" y2="31.9"/>
	<line class="st0" x1="25.3" y1="32.3" x2="25.3" y2="32.3"/>
	<line class="st0" x1="27.3" y1="32.4" x2="27.3" y2="32.4"/>
	<line class="st0" x1="29.3" y1="32.1" x2="29.3" y2="32.1"/>
	<line class="st0" x1="31.1" y1="31.4" x2="31.1" y2="31.4"/>
	<line class="st0" x1="33.1" y1="31.3" x2="33.1" y2="31.3"/>
	<line class="st0" x1="35" y1="31.4" x2="35" y2="31.4"/>
	<line class="st0" x1="36.9" y1="31.9" x2="36.9" y2="31.9"/>
	<line class="st0" x1="38.8" y1="32.3" x2="38.8" y2="32.3"/>
	<line class="st0" x1="40.8" y1="32.4" x2="40.8" y2="32.4"/>
	<line class="st0" x1="42.9" y1="32.1" x2="42.9" y2="32.1"/>
	<line class="st0" x1="44.7" y1="31.4" x2="44.7" y2="31.4"/>
	<line class="st0" x1="46.6" y1="31.3" x2="46.6" y2="31.3"/>
	<line class="st0" x1="48.6" y1="31.4" x2="48.6" y2="31.4"/>
	<line class="st0" x1="50.5" y1="31.9" x2="50.5" y2="31.9"/>
	<line class="st0" x1="52.2" y1="32.3" x2="52.2" y2="32.3"/>
	<line class="st0" x1="1.3" y1="37.4" x2="1.3" y2="37.4"/>
	<line class="st0" x1="3.3" y1="37.1" x2="3.3" y2="37.1"/>
	<line class="st0" x1="5.1" y1="36.5" x2="5.1" y2="36.5"/>
	<line class="st0" x1="7.1" y1="36.4" x2="7.1" y2="36.4"/>
	<line class="st0" x1="9" y1="36.5" x2="9" y2="36.5"/>
	<line class="st0" x1="11" y1="36.9" x2="11" y2="36.9"/>
	<line class="st0" x1="12.8" y1="37.3" x2="12.8" y2="37.3"/>
	<line class="st0" x1="14.8" y1="37.4" x2="14.8" y2="37.4"/>
	<line class="st0" x1="16.9" y1="37.1" x2="16.9" y2="37.1"/>
	<line class="st0" x1="18.7" y1="36.5" x2="18.7" y2="36.5"/>
	<line class="st0" x1="20.6" y1="36.4" x2="20.6" y2="36.4"/>
	<line class="st0" x1="22.6" y1="36.5" x2="22.6" y2="36.5"/>
	<line class="st0" x1="24.5" y1="36.9" x2="24.5" y2="36.9"/>
	<line class="st0" x1="26.3" y1="37.3" x2="26.3" y2="37.3"/>
	<line class="st0" x1="28.3" y1="37.4" x2="28.3" y2="37.4"/>
	<line class="st0" x1="30.3" y1="37.1" x2="30.3" y2="37.1"/>
	<line class="st0" x1="32.1" y1="36.4" x2="32.1" y2="36.4"/>
	<line class="st0" x1="34.1" y1="36.3" x2="34.1" y2="36.3"/>
	<line class="st0" x1="36" y1="36.4" x2="36" y2="36.4"/>
	<line class="st0" x1="37.9" y1="36.9" x2="37.9" y2="36.9"/>
	<line class="st0" x1="39.8" y1="37.3" x2="39.8" y2="37.3"/>
	<line class="st0" x1="41.8" y1="37.4" x2="41.8" y2="37.4"/>
	<line class="st0" x1="43.9" y1="37.1" x2="43.9" y2="37.1"/>
	<line class="st0" x1="45.7" y1="36.4" x2="45.7" y2="36.4"/>
	<line class="st0" x1="47.6" y1="36.3" x2="47.6" y2="36.3"/>
	<line class="st0" x1="49.6" y1="36.4" x2="49.6" y2="36.4"/>
	<line class="st0" x1="51.5" y1="36.9" x2="51.5" y2="36.9"/>
	<line class="st0" x1="53.2" y1="37.3" x2="53.2" y2="37.3"/>
	<line class="st0" x1="1.2" y1="42.3" x2="1.2" y2="42.3"/>
	<line class="st0" x1="3.2" y1="41.9" x2="3.2" y2="41.9"/>
	<line class="st0" x1="5" y1="41.3" x2="5" y2="41.3"/>
	<line class="st0" x1="6.9" y1="41.2" x2="6.9" y2="41.2"/>
	<line class="st0" x1="8.9" y1="41.3" x2="8.9" y2="41.3"/>
	<line class="st0" x1="10.8" y1="41.8" x2="10.8" y2="41.8"/>
	<line class="st0" x1="12.6" y1="42.1" x2="12.6" y2="42.1"/>
	<line class="st0" x1="14.7" y1="42.3" x2="14.7" y2="42.3"/>
	<line class="st0" x1="16.7" y1="41.9" x2="16.7" y2="41.9"/>
	<line class="st0" x1="18.5" y1="41.3" x2="18.5" y2="41.3"/>
	<line class="st0" x1="20.5" y1="41.2" x2="20.5" y2="41.2"/>
	<line class="st0" x1="22.4" y1="41.3" x2="22.4" y2="41.3"/>
	<line class="st0" x1="24.4" y1="41.8" x2="24.4" y2="41.8"/>
	<line class="st0" x1="26.1" y1="42.1" x2="26.1" y2="42.1"/>
	<line class="st0" x1="28.1" y1="42.2" x2="28.1" y2="42.2"/>
	<line class="st0" x1="30.1" y1="41.9" x2="30.1" y2="41.9"/>
	<line class="st0" x1="32" y1="41.3" x2="32" y2="41.3"/>
	<line class="st0" x1="33.9" y1="41.1" x2="33.9" y2="41.1"/>
	<line class="st0" x1="35.8" y1="41.3" x2="35.8" y2="41.3"/>
	<line class="st0" x1="37.8" y1="41.7" x2="37.8" y2="41.7"/>
	<line class="st0" x1="39.7" y1="42.1" x2="39.7" y2="42.1"/>
	<line class="st0" x1="41.7" y1="42.2" x2="41.7" y2="42.2"/>
	<line class="st0" x1="43.7" y1="41.9" x2="43.7" y2="41.9"/>
	<line class="st0" x1="45.5" y1="41.3" x2="45.5" y2="41.3"/>
	<line class="st0" x1="47.5" y1="41.1" x2="47.5" y2="41.1"/>
	<line class="st0" x1="49.4" y1="41.3" x2="49.4" y2="41.3"/>
	<line class="st0" x1="51.3" y1="41.7" x2="51.3" y2="41.7"/>
	<line class="st0" x1="53.1" y1="42.1" x2="53.1" y2="42.1"/>
	<line class="st0" x1="1.9" y1="47" x2="1.9" y2="47"/>
	<line class="st0" x1="3.7" y1="46.4" x2="3.7" y2="46.4"/>
	<line class="st0" x1="5.6" y1="46.2" x2="5.6" y2="46.2"/>
	<line class="st0" x1="7.6" y1="46.4" x2="7.6" y2="46.4"/>
	<line class="st0" x1="9.5" y1="46.8" x2="9.5" y2="46.8"/>
	<line class="st0" x1="11.4" y1="47.2" x2="11.4" y2="47.2"/>
	<line class="st0" x1="13.4" y1="47.3" x2="13.4" y2="47.3"/>
	<line class="st0" x1="15.4" y1="47" x2="15.4" y2="47"/>
	<line class="st0" x1="17.3" y1="46.4" x2="17.3" y2="46.4"/>
	<line class="st0" x1="19.2" y1="46.2" x2="19.2" y2="46.2"/>
	<line class="st0" x1="21.1" y1="46.4" x2="21.1" y2="46.4"/>
	<line class="st0" x1="23.1" y1="46.8" x2="23.1" y2="46.8"/>
	<line class="st0" x1="24.8" y1="47.2" x2="24.8" y2="47.2"/>
	<line class="st0" x1="26.8" y1="47.3" x2="26.8" y2="47.3"/>
	<line class="st0" x1="28.9" y1="46.9" x2="28.9" y2="46.9"/>
	<line class="st0" x1="30.7" y1="46.3" x2="30.7" y2="46.3"/>
	<line class="st0" x1="32.6" y1="46.2" x2="32.6" y2="46.2"/>
	<line class="st0" x1="34.6" y1="46.3" x2="34.6" y2="46.3"/>
	<line class="st0" x1="36.5" y1="46.8" x2="36.5" y2="46.8"/>
	<line class="st0" x1="38.4" y1="47.1" x2="38.4" y2="47.1"/>
	<line class="st0" x1="40.4" y1="47.3" x2="40.4" y2="47.3"/>
	<line class="st0" x1="42.4" y1="46.9" x2="42.4" y2="46.9"/>
	<line class="st0" x1="44.3" y1="46.3" x2="44.3" y2="46.3"/>
	<line class="st0" x1="46.2" y1="46.2" x2="46.2" y2="46.2"/>
	<line class="st0" x1="48.1" y1="46.3" x2="48.1" y2="46.3"/>
	<line class="st0" x1="50.1" y1="46.8" x2="50.1" y2="46.8"/>
	<line class="st0" x1="51.8" y1="47.1" x2="51.8" y2="47.1"/>
	<line class="st0" x1="53.8" y1="47.2" x2="53.8" y2="47.2"/>
	<line class="st0" x1="0.6" y1="51.9" x2="0.6" y2="51.9"/>
	<line class="st0" x1="2.4" y1="51.3" x2="2.4" y2="51.3"/>
	<line class="st0" x1="4.3" y1="51.1" x2="4.3" y2="51.1"/>
	<line class="st0" x1="6.3" y1="51.3" x2="6.3" y2="51.3"/>
	<line class="st0" x1="8.2" y1="51.7" x2="8.2" y2="51.7"/>
	<line class="st0" x1="10.1" y1="52.1" x2="10.1" y2="52.1"/>
	<line class="st0" x1="12.1" y1="52.2" x2="12.1" y2="52.2"/>
	<line class="st0" x1="14.2" y1="51.9" x2="14.2" y2="51.9"/>
	<line class="st0" x1="16" y1="51.3" x2="16" y2="51.3"/>
	<line class="st0" x1="17.9" y1="51.1" x2="17.9" y2="51.1"/>
	<line class="st0" x1="19.9" y1="51.3" x2="19.9" y2="51.3"/>
	<line class="st0" x1="21.8" y1="51.7" x2="21.8" y2="51.7"/>
	<line class="st0" x1="23.5" y1="52.1" x2="23.5" y2="52.1"/>
	<line class="st0" x1="25.5" y1="52.1" x2="25.5" y2="52.1"/>
	<line class="st0" x1="27.6" y1="51.8" x2="27.6" y2="51.8"/>
	<line class="st0" x1="29.4" y1="51.2" x2="29.4" y2="51.2"/>
	<line class="st0" x1="31.3" y1="51.1" x2="31.3" y2="51.1"/>
	<line class="st0" x1="33.3" y1="51.2" x2="33.3" y2="51.2"/>
	<line class="st0" x1="35.2" y1="51.6" x2="35.2" y2="51.6"/>
	<line class="st0" x1="37.1" y1="52" x2="37.1" y2="52"/>
	<line class="st0" x1="39.1" y1="52.1" x2="39.1" y2="52.1"/>
	<line class="st0" x1="41.2" y1="51.8" x2="41.2" y2="51.8"/>
	<line class="st0" x1="43" y1="51.2" x2="43" y2="51.2"/>
	<line class="st0" x1="44.9" y1="51.1" x2="44.9" y2="51.1"/>
	<line class="st0" x1="46.9" y1="51.2" x2="46.9" y2="51.2"/>
	<line class="st0" x1="48.8" y1="51.6" x2="48.8" y2="51.6"/>
	<line class="st0" x1="50.5" y1="52" x2="50.5" y2="52"/>
	<line class="st0" x1="52.5" y1="52.1" x2="52.5" y2="52.1"/>
	<line class="st0" x1="2.8" y1="4.7" x2="2.8" y2="4.7"/>
	<line class="st0" x1="8.5" y1="4.4" x2="8.5" y2="4.4"/>
	<line class="st0" x1="13.6" y1="5.3" x2="13.6" y2="5.3"/>
	<line class="st0" x1="18.8" y1="4.2" x2="18.8" y2="4.2"/>
	<line class="st0" x1="24.2" y1="5.1" x2="24.2" y2="5.1"/>
	<line class="st0" x1="29.2" y1="4.9" x2="29.2" y2="4.9"/>
	<line class="st0" x1="34.7" y1="4.4" x2="34.7" y2="4.4"/>
	<line class="st0" x1="40.3" y1="5.4" x2="40.3" y2="5.4"/>
	<line class="st0" x1="45.5" y1="4.2" x2="45.5" y2="4.2"/>
	<line class="st0" x1="51" y1="5.2" x2="51" y2="5.2"/>
	<line class="st0" x1="1.5" y1="24.7" x2="1.5" y2="24.7"/>
	<line class="st0" x1="7.1" y1="24.4" x2="7.1" y2="24.4"/>
	<line class="st0" x1="12.3" y1="25.3" x2="12.3" y2="25.3"/>
	<line class="st0" x1="17.5" y1="24.2" x2="17.5" y2="24.2"/>
	<line class="st0" x1="22.9" y1="25.1" x2="22.9" y2="25.1"/>
	<line class="st0" x1="27.9" y1="24.9" x2="27.9" y2="24.9"/>
	<line class="st0" x1="33.4" y1="24.4" x2="33.4" y2="24.4"/>
	<line class="st0" x1="39" y1="25.4" x2="39" y2="25.4"/>
	<line class="st0" x1="44.1" y1="24.2" x2="44.1" y2="24.2"/>
	<line class="st0" x1="49.6" y1="25.2" x2="49.6" y2="25.2"/>
	<line class="st0" x1="3.1" y1="29.4" x2="3.1" y2="29.4"/>
	<line class="st0" x1="8.8" y1="29.2" x2="8.8" y2="29.2"/>
	<line class="st0" x1="13.9" y1="30.1" x2="13.9" y2="30.1"/>
	<line class="st0" x1="19.1" y1="28.9" x2="19.1" y2="28.9"/>
	<line class="st0" x1="24.5" y1="29.9" x2="24.5" y2="29.9"/>
	<line class="st0" x1="29.5" y1="29.6" x2="29.5" y2="29.6"/>
	<line class="st0" x1="35" y1="29.1" x2="35" y2="29.1"/>
	<line class="st0" x1="40.6" y1="30.2" x2="40.6" y2="30.2"/>
	<line class="st0" x1="45.8" y1="28.9" x2="45.8" y2="28.9"/>
	<line class="st0" x1="51.3" y1="29.9" x2="51.3" y2="29.9"/>
	<line class="st0" x1="1.3" y1="34.9" x2="1.3" y2="34.9"/>
	<line class="st0" x1="6.5" y1="33.8" x2="6.5" y2="33.8"/>
	<line class="st0" x1="11.9" y1="34.8" x2="11.9" y2="34.8"/>
	<line class="st0" x1="16.9" y1="34.5" x2="16.9" y2="34.5"/>
	<line class="st0" x1="22.4" y1="34" x2="22.4" y2="34"/>
	<line class="st0" x1="28" y1="35.1" x2="28" y2="35.1"/>
	<line class="st0" x1="33.1" y1="33.8" x2="33.1" y2="33.8"/>
	<line class="st0" x1="38.6" y1="34.8" x2="38.6" y2="34.8"/>
	<line class="st0" x1="44" y1="34.3" x2="44" y2="34.3"/>
	<line class="st0" x1="4.9" y1="39.1" x2="4.9" y2="39.1"/>
	<line class="st0" x1="10.5" y1="38.8" x2="10.5" y2="38.8"/>
	<line class="st0" x1="15.6" y1="39.7" x2="15.6" y2="39.7"/>
	<line class="st0" x1="20.9" y1="38.6" x2="20.9" y2="38.6"/>
	<line class="st0" x1="26.3" y1="39.5" x2="26.3" y2="39.5"/>
	<line class="st0" x1="31.3" y1="39.3" x2="31.3" y2="39.3"/>
	<line class="st0" x1="36.8" y1="38.8" x2="36.8" y2="38.8"/>
	<line class="st0" x1="42.3" y1="39.8" x2="42.3" y2="39.8"/>
	<line class="st0" x1="47.5" y1="38.6" x2="47.5" y2="38.6"/>
	<line class="st0" x1="53" y1="39.6" x2="53" y2="39.6"/>
	<line class="st0" x1="1.8" y1="44.7" x2="1.8" y2="44.7"/>
	<line class="st0" x1="7" y1="43.6" x2="7" y2="43.6"/>
	<line class="st0" x1="12.4" y1="44.5" x2="12.4" y2="44.5"/>
	<line class="st0" x1="17.4" y1="44.3" x2="17.4" y2="44.3"/>
	<line class="st0" x1="22.9" y1="43.8" x2="22.9" y2="43.8"/>
	<line class="st0" x1="28.5" y1="44.8" x2="28.5" y2="44.8"/>
	<line class="st0" x1="33.6" y1="43.6" x2="33.6" y2="43.6"/>
	<line class="st0" x1="39.1" y1="44.6" x2="39.1" y2="44.6"/>
	<line class="st0" x1="44.5" y1="44.1" x2="44.5" y2="44.1"/>
	<line class="st0" x1="6.2" y1="53.6" x2="6.2" y2="53.6"/>
	<line class="st0" x1="19.6" y1="53.3" x2="19.6" y2="53.3"/>
	<line class="st0" x1="33.2" y1="53.4" x2="33.2" y2="53.4"/>
	<line class="st0" x1="5" y1="48.6" x2="5" y2="48.6"/>
	<line class="st0" x1="10.4" y1="49.5" x2="10.4" y2="49.5"/>
	<line class="st0" x1="15.4" y1="49.3" x2="15.4" y2="49.3"/>
	<line class="st0" x1="20.9" y1="48.8" x2="20.9" y2="48.8"/>
	<line class="st0" x1="26.5" y1="49.8" x2="26.5" y2="49.8"/>
	<line class="st0" x1="31.6" y1="48.6" x2="31.6" y2="48.6"/>
	<line class="st0" x1="37.1" y1="49.6" x2="37.1" y2="49.6"/>
	<line class="st0" x1="42.5" y1="49.1" x2="42.5" y2="49.1"/>
	<line class="st0" x1="41" y1="9.7" x2="41" y2="9.7"/>
	<line class="st0" x1="47.5" y1="9.6" x2="47.5" y2="9.6"/>
	<line class="st0" x1="40.6" y1="14.3" x2="40.6" y2="14.3"/>
	<line class="st0" x1="3.5" y1="14.2" x2="3.5" y2="14.2"/>
	<line class="st0" x1="51" y1="15.1" x2="51" y2="15.1"/>
	<line class="st0" x1="46" y1="14.3" x2="46" y2="14.3"/>
	<line class="st0" x1="38" y1="20.4" x2="38" y2="20.4"/>
	<line class="st0" x1="42.8" y1="18.9" x2="42.8" y2="18.9"/>
	<line class="st0" x1="48.5" y1="19.7" x2="48.5" y2="19.7"/>
	<line class="st0" x1="50" y1="34.2" x2="50" y2="34.2"/>
	<line class="st0" x1="50.1" y1="44.1" x2="50.1" y2="44.1"/>
	<line class="st0" x1="53.1" y1="0.7" x2="53.1" y2="0.7"/>
	<line class="st0" x1="40.5" y1="0.6" x2="40.5" y2="0.6"/>
	<line class="st0" x1="26.6" y1="0.6" x2="26.6" y2="0.6"/>
	<line class="st0" x1="13.2" y1="0.6" x2="13.2" y2="0.6"/>
	<line class="st0" x1="48.1" y1="48.4" x2="48.1" y2="48.4"/>
	<line class="st0" x1="47" y1="53.4" x2="47" y2="53.4"/>
	<line class="st0" x1="53.3" y1="49.6" x2="53.3" y2="49.6"/>
	<line class="st0" x1="53.5" y1="19.7" x2="53.5" y2="19.7"/>
	<line class="st0" x1="53.2" y1="10.2" x2="53.2" y2="10.2"/>
	<line class="st0" x1="36.3" y1="10.8" x2="36.3" y2="10.8"/>
	<line class="st0" x1="31.8" y1="9.2" x2="31.8" y2="9.2"/>
	<line class="st0" x1="26.1" y1="10.1" x2="26.1" y2="10.1"/>
	<line class="st0" x1="21.3" y1="10.3" x2="21.3" y2="10.3"/>
	<line class="st0" x1="16.9" y1="9.2" x2="16.9" y2="9.2"/>
	<line class="st0" x1="11" y1="10.5" x2="11" y2="10.5"/>
	<line class="st0" x1="5.8" y1="9.4" x2="5.8" y2="9.4"/>
	<line class="st0" x1="8.1" y1="15.2" x2="8.1" y2="15.2"/>
	<line class="st0" x1="14.1" y1="14.4" x2="14.1" y2="14.4"/>
	<line class="st0" x1="19.2" y1="14.6" x2="19.2" y2="14.6"/>
	<line class="st0" x1="24.7" y1="15.2" x2="24.7" y2="15.2"/>
	<line class="st0" x1="29.9" y1="13.8" x2="29.9" y2="13.8"/>
	<line class="st0" x1="35.3" y1="15" x2="35.3" y2="15"/>
	<line class="st0" x1="32.5" y1="19.5" x2="32.5" y2="19.5"/>
	<line class="st0" x1="26.6" y1="20.2" x2="26.6" y2="20.2"/>
	<line class="st0" x1="21.4" y1="19.9" x2="21.4" y2="19.9"/>
	<line class="st0" x1="16.1" y1="19.1" x2="16.1" y2="19.1"/>
	<line class="st0" x1="10.9" y1="20.4" x2="10.9" y2="20.4"/>
	<line class="st0" x1="5.8" y1="19.3" x2="5.8" y2="19.3"/>
</g>
</svg>
