<?xml version="1.0" encoding="utf-8"?>
<!-- Generator: Adobe Illustrator 23.0.1, SVG Export Plug-In . SVG Version: 6.00 Build 0)  -->
<svg version="1.1" id="Layer_1" xmlns="http://www.w3.org/2000/svg" xmlns:xlink="http://www.w3.org/1999/xlink" x="0px" y="0px"
	 viewBox="0 0 53.6 53.6" style="enable-background:new 0 0 53.6 53.6;" xml:space="preserve">
<style type="text/css">
	.st0{fill:none;stroke:#000000;stroke-width:0.3;}
</style>
<g>
	<line class="st0" x1="3.8" y1="1.3" x2="0" y2="1.3"/>
	<line class="st0" x1="15.3" y1="1.3" x2="21.6" y2="1.3"/>
	<line class="st0" x1="24.2" y1="1.3" x2="30.6" y2="1.3"/>
	<line class="st0" x1="48.4" y1="1.3" x2="42" y2="1.3"/>
	<line class="st0" x1="50.9" y1="1.3" x2="53.6" y2="1.3"/>
	<line class="st0" x1="8.1" y1="4.4" x2="1.7" y2="4.4"/>
	<line class="st0" x1="17" y1="4.4" x2="10.7" y2="4.4"/>
	<line class="st0" x1="34.9" y1="4.4" x2="28.5" y2="4.4"/>
	<line class="st0" x1="37.4" y1="4.4" x2="43.8" y2="4.4"/>
	<line class="st0" x1="4.3" y1="7.4" x2="0" y2="7.4"/>
	<line class="st0" x1="15.8" y1="7.4" x2="22.2" y2="7.4"/>
	<line class="st0" x1="24.8" y1="7.4" x2="31.1" y2="7.4"/>
	<line class="st0" x1="42.6" y1="7.4" x2="49" y2="7.4"/>
	<line class="st0" x1="51.5" y1="7.4" x2="53.6" y2="7.4"/>
	<line class="st0" x1="7.3" y1="10.2" x2="0.9" y2="10.2"/>
	<line class="st0" x1="16.2" y1="10.2" x2="9.9" y2="10.2"/>
	<line class="st0" x1="34.1" y1="10.2" x2="27.7" y2="10.2"/>
	<line class="st0" x1="36.6" y1="10.2" x2="43" y2="10.2"/>
	<line class="st0" x1="1.7" y1="13.1" x2="0" y2="13.1"/>
	<line class="st0" x1="13.2" y1="13.1" x2="19.6" y2="13.1"/>
	<line class="st0" x1="22.1" y1="13.1" x2="28.5" y2="13.1"/>
	<line class="st0" x1="40" y1="13.1" x2="46.3" y2="13.1"/>
	<line class="st0" x1="48.9" y1="13.1" x2="53.6" y2="13.1"/>
	<line class="st0" x1="3" y1="16.1" x2="0" y2="16.1"/>
	<line class="st0" x1="5.5" y1="16.1" x2="11.9" y2="16.1"/>
	<line class="st0" x1="23.4" y1="16.1" x2="29.7" y2="16.1"/>
	<line class="st0" x1="32.3" y1="16.1" x2="38.6" y2="16.1"/>
	<line class="st0" x1="50.1" y1="16.1" x2="53.6" y2="16.1"/>
	<line class="st0" x1="2.2" y1="19" x2="0" y2="19"/>
	<line class="st0" x1="20" y1="19" x2="13.7" y2="19"/>
	<line class="st0" x1="22.6" y1="19" x2="29" y2="19"/>
	<line class="st0" x1="40.4" y1="19" x2="46.8" y2="19"/>
	<line class="st0" x1="49.3" y1="19" x2="53.6" y2="19"/>
	<line class="st0" x1="6.7" y1="22.2" x2="0.3" y2="22.2"/>
	<line class="st0" x1="15.6" y1="22.2" x2="9.2" y2="22.2"/>
	<line class="st0" x1="27.1" y1="22.2" x2="33.4" y2="22.2"/>
	<line class="st0" x1="36" y1="22.2" x2="42.3" y2="22.2"/>
	<line class="st0" x1="3.5" y1="25.2" x2="0" y2="25.2"/>
	<line class="st0" x1="21.3" y1="25.2" x2="15" y2="25.2"/>
	<line class="st0" x1="23.9" y1="25.2" x2="30.2" y2="25.2"/>
	<line class="st0" x1="41.7" y1="25.2" x2="48.1" y2="25.2"/>
	<line class="st0" x1="50.6" y1="25.2" x2="53.6" y2="25.2"/>
	<line class="st0" x1="7.9" y1="28.3" x2="1.6" y2="28.3"/>
	<line class="st0" x1="10.5" y1="28.3" x2="16.9" y2="28.3"/>
	<line class="st0" x1="34.7" y1="28.3" x2="28.3" y2="28.3"/>
	<line class="st0" x1="37.2" y1="28.3" x2="43.6" y2="28.3"/>
	<line class="st0" x1="16.7" y1="31.1" x2="10.3" y2="31.1"/>
	<line class="st0" x1="25.6" y1="31.1" x2="19.3" y2="31.1"/>
	<line class="st0" x1="43.5" y1="31.1" x2="37.1" y2="31.1"/>
	<line class="st0" x1="46" y1="31.1" x2="52.4" y2="31.1"/>
	<line class="st0" x1="6.8" y1="34.3" x2="0.5" y2="34.3"/>
	<line class="st0" x1="9.4" y1="34.3" x2="15.8" y2="34.3"/>
	<line class="st0" x1="27.2" y1="34.3" x2="33.6" y2="34.3"/>
	<line class="st0" x1="36.1" y1="34.3" x2="42.5" y2="34.3"/>
	<line class="st0" x1="2.2" y1="37.2" x2="0" y2="37.2"/>
	<line class="st0" x1="13.7" y1="37.2" x2="20" y2="37.2"/>
	<line class="st0" x1="22.6" y1="37.2" x2="29" y2="37.2"/>
	<line class="st0" x1="46.8" y1="37.2" x2="40.4" y2="37.2"/>
	<line class="st0" x1="49.3" y1="37.2" x2="53.6" y2="37.2"/>
	<line class="st0" x1="0" y1="40.2" x2="2" y2="40.2"/>
	<line class="st0" x1="10.9" y1="40.2" x2="4.6" y2="40.2"/>
	<line class="st0" x1="22.4" y1="40.2" x2="28.8" y2="40.2"/>
	<line class="st0" x1="37.7" y1="40.2" x2="31.3" y2="40.2"/>
	<line class="st0" x1="49.1" y1="40.2" x2="53.6" y2="40.2"/>
	<line class="st0" x1="3.1" y1="43" x2="0" y2="43"/>
	<line class="st0" x1="14.6" y1="43" x2="21" y2="43"/>
	<line class="st0" x1="23.6" y1="43" x2="29.9" y2="43"/>
	<line class="st0" x1="41.4" y1="43" x2="47.8" y2="43"/>
	<line class="st0" x1="50.3" y1="43" x2="53.6" y2="43"/>
	<line class="st0" x1="8.3" y1="46.1" x2="1.9" y2="46.1"/>
	<line class="st0" x1="17.2" y1="46.1" x2="10.8" y2="46.1"/>
	<line class="st0" x1="35" y1="46.1" x2="28.6" y2="46.1"/>
	<line class="st0" x1="43.9" y1="46.1" x2="37.6" y2="46.1"/>
	<line class="st0" x1="6.8" y1="49.1" x2="0.5" y2="49.1"/>
	<line class="st0" x1="24.7" y1="49.1" x2="18.3" y2="49.1"/>
	<line class="st0" x1="33.6" y1="49.1" x2="27.2" y2="49.1"/>
	<line class="st0" x1="51.4" y1="49.1" x2="45.1" y2="49.1"/>
	<line class="st0" x1="8.6" y1="52.1" x2="2.2" y2="52.1"/>
	<line class="st0" x1="17.5" y1="52.1" x2="11.1" y2="52.1"/>
	<line class="st0" x1="35.3" y1="52.1" x2="29" y2="52.1"/>
	<line class="st0" x1="44.3" y1="52.1" x2="37.9" y2="52.1"/>
	<path class="st0" d="M9.5,0.6C6.3,0.7,4.7,2.2,9.6,2.1C14.4,2,13.1,0.5,9.5,0.6z"/>
	<path class="st0" d="M36.3,0.6c-3.1,0.1-4.7,1.5,0.1,1.4C41.2,2,39.9,0.5,36.3,0.6z"/>
	<path class="st0" d="M22.8,3.8c-3.1,0.1-4.7,1.5,0.1,1.4C27.7,5.1,26.4,3.6,22.8,3.8z"/>
	<path class="st0" d="M49.6,3.8c-3.1,0.1-4.7,1.5,0.1,1.4C54.6,5.1,53.2,3.6,49.6,3.8z"/>
	<path class="st0" d="M10.3,8.1c4.8-0.1,3.5-1.5-0.1-1.4C7,6.8,5.4,8.2,10.3,8.1z"/>
	<path class="st0" d="M37,6.7c-3.1,0.1-4.7,1.5,0.1,1.4C41.9,8,40.6,6.5,37,6.7z"/>
	<path class="st0" d="M21.9,9.3c-3.1,0.1-4.7,1.5,0.1,1.4C26.9,10.6,25.6,9.1,21.9,9.3z"/>
	<path class="st0" d="M48.9,10.7c4.8-0.1,3.5-1.5-0.1-1.4C45.6,9.4,44,10.8,48.9,10.7z"/>
	<path class="st0" d="M7.4,12.3c-3.1,0.1-4.7,1.5,0.1,1.4C12.4,13.6,11.1,12.1,7.4,12.3z"/>
	<path class="st0" d="M34.3,12.3c-3.1,0.1-4.7,1.5,0.1,1.4C39.2,13.6,37.9,12.1,34.3,12.3z"/>
	<path class="st0" d="M17.5,15.4c-3.1,0.1-4.7,1.5,0.1,1.4C22.5,16.7,21.1,15.3,17.5,15.4z"/>
	<path class="st0" d="M44.3,15.4c-3.1,0.1-4.7,1.5,0.1,1.4C49.3,16.7,48,15.3,44.3,15.4z"/>
	<path class="st0" d="M7.9,19.7c4.8-0.1,3.5-1.5-0.1-1.4C4.6,18.4,3.1,19.8,7.9,19.7z"/>
	<path class="st0" d="M34.7,19.7c4.8-0.1,3.5-1.5-0.1-1.4C31.5,18.4,29.9,19.8,34.7,19.7z"/>
	<path class="st0" d="M21.1,21.4c-3.1,0.1-4.7,1.5,0.1,1.4C26.1,22.7,24.7,21.3,21.1,21.4z"/>
	<path class="st0" d="M47.9,21.4c-3.1,0.1-4.7,1.5,0.1,1.4C52.9,22.7,51.6,21.3,47.9,21.4z"/>
	<path class="st0" d="M9.4,25.9c4.8-0.1,3.5-1.5-0.1-1.4C6.1,24.5,4.6,26,9.4,25.9z"/>
	<path class="st0" d="M36.1,24.4c-3.1,0.1-4.7,1.5,0.1,1.4C41.1,25.7,39.7,24.3,36.1,24.4z"/>
	<path class="st0" d="M22.3,27.4c-3.1,0.1-4.7,1.5,0.1,1.4C27.2,28.7,25.9,27.3,22.3,27.4z"/>
	<path class="st0" d="M49.1,27.4c-3.1,0.1-4.7,1.5,0.1,1.4C54.1,28.7,52.7,27.3,49.1,27.4z"/>
	<path class="st0" d="M4.8,30.4c-3.1,0.1-4.7,1.5,0.1,1.4C9.8,31.7,8.4,30.3,4.8,30.4z"/>
	<path class="st0" d="M31.7,31.9c4.8-0.1,3.5-1.5-0.1-1.4C28.5,30.5,26.9,32,31.7,31.9z"/>
	<path class="st0" d="M21.7,35c4.8-0.1,3.5-1.5-0.1-1.4C18.5,33.7,16.9,35.1,21.7,35z"/>
	<path class="st0" d="M48.6,35c4.8-0.1,3.5-1.5-0.1-1.4C45.3,33.7,43.7,35.1,48.6,35z"/>
	<path class="st0" d="M7.9,36.6c-3.1,0.1-4.7,1.5,0.1,1.4C12.9,37.9,11.6,36.5,7.9,36.6z"/>
	<path class="st0" d="M34.8,36.6c-3.1,0.1-4.7,1.5,0.1,1.4C39.7,37.9,38.4,36.5,34.8,36.6z"/>
	<path class="st0" d="M16.7,40.9c4.8-0.1,3.5-1.5-0.1-1.4C13.4,39.5,11.9,41,16.7,40.9z"/>
	<path class="st0" d="M43.5,40.9c4.8-0.1,3.5-1.5-0.1-1.4C40.3,39.5,38.7,41,43.5,40.9z"/>
	<path class="st0" d="M9.1,43.7c4.8-0.1,3.5-1.5-0.1-1.4C5.8,42.4,4.3,43.8,9.1,43.7z"/>
	<path class="st0" d="M35.9,43.7c4.8-0.1,3.5-1.5-0.1-1.4C32.7,42.4,31.1,43.8,35.9,43.7z"/>
	<path class="st0" d="M22.7,46.9c4.8-0.1,3.5-1.5-0.1-1.4C19.5,45.5,17.9,47,22.7,46.9z"/>
	<path class="st0" d="M49.4,45.4c-3.1,0.1-4.7,1.5,0.1,1.4C54.4,46.7,53.1,45.3,49.4,45.4z"/>
	<path class="st0" d="M12.7,49.9c4.8-0.1,3.5-1.5-0.1-1.4C9.4,48.5,7.8,50,12.7,49.9z"/>
	<path class="st0" d="M39.5,49.9c4.8-0.1,3.5-1.5-0.1-1.4C36.2,48.5,34.6,50,39.5,49.9z"/>
	<path class="st0" d="M50.1,52.9c4.8-0.1,3.5-1.5-0.1-1.4C46.8,51.6,45.2,53.1,50.1,52.9z"/>
	<path class="st0" d="M23.2,52.9c4.8-0.1,3.5-1.5-0.1-1.4C20,51.6,18.4,53,23.2,52.9z"/>
</g>
</svg>
