<?xml version="1.0" encoding="utf-8"?>
<!-- Generator: Adobe Illustrator 23.0.1, SVG Export Plug-In . SVG Version: 6.00 Build 0)  -->
<svg version="1.1" id="Layer_1" xmlns="http://www.w3.org/2000/svg" xmlns:xlink="http://www.w3.org/1999/xlink" x="0px" y="0px"
	 viewBox="0 0 54.1 54.1" style="enable-background:new 0 0 54.1 54.1;" xml:space="preserve">
<style type="text/css">
	.st0{clip-path:url(#SVGID_2_);fill:none;stroke:#231F20;stroke-width:0.3;}
</style>
<g>
	<defs>
		<rect id="SVGID_1_" x="0" y="0" width="54.1" height="54.1"/>
	</defs>
	<clipPath id="SVGID_2_">
		<use xlink:href="#SVGID_1_"  style="overflow:visible;"/>
	</clipPath>
	<line class="st0" x1="12.6" y1="3.8" x2="18.7" y2="3.8"/>
	<line class="st0" x1="41.1" y1="3.8" x2="32.2" y2="3.8"/>
	<line class="st0" x1="53.9" y1="3.8" x2="46.5" y2="3.8"/>
	<line class="st0" x1="41.1" y1="3.8" x2="46.5" y2="3.8"/>
	<line class="st0" x1="12.6" y1="3.8" x2="5.9" y2="3.8"/>
	<line class="st0" x1="53.9" y1="3.8" x2="54.1" y2="3.8"/>
	<line class="st0" x1="27.5" y1="3.8" x2="32.2" y2="3.8"/>
	<line class="st0" x1="27.5" y1="3.8" x2="18.7" y2="3.8"/>
	<line class="st0" x1="0" y1="3.8" x2="5.9" y2="3.8"/>
	<line class="st0" x1="54.1" y1="7.9" x2="0" y2="7.9"/>
	<line class="st0" x1="40.2" y1="12.1" x2="53.4" y2="12.1"/>
	<line class="st0" x1="11.9" y1="12.1" x2="0" y2="12.1"/>
	<line class="st0" x1="40.2" y1="12.1" x2="26.8" y2="12.1"/>
	<line class="st0" x1="26.8" y1="12.1" x2="11.9" y2="12.1"/>
	<line class="st0" x1="54.1" y1="12.1" x2="53.4" y2="12.1"/>
	<line class="st0" x1="33.8" y1="41.7" x2="48.6" y2="41.7"/>
	<line class="st0" x1="6.9" y1="41.7" x2="20.1" y2="41.7"/>
	<line class="st0" x1="20.1" y1="41.7" x2="33.8" y2="41.7"/>
	<line class="st0" x1="48.6" y1="41.7" x2="54.1" y2="41.7"/>
	<line class="st0" x1="54.1" y1="41.7" x2="54.2" y2="41.7"/>
	<line class="st0" x1="6.9" y1="41.7" x2="0" y2="41.7"/>
	<line class="st0" x1="53.7" y1="45.5" x2="54.1" y2="45.5"/>
	<line class="st0" x1="26.4" y1="45.5" x2="40.3" y2="45.5"/>
	<line class="st0" x1="11.9" y1="45.5" x2="26.4" y2="45.5"/>
	<line class="st0" x1="40.3" y1="45.5" x2="53.7" y2="45.5"/>
	<line class="st0" x1="11.9" y1="45.5" x2="0" y2="45.5"/>
	<line class="st0" x1="46.5" y1="16.1" x2="54.1" y2="16.1"/>
	<line class="st0" x1="18.7" y1="16.1" x2="5.9" y2="16.1"/>
	<line class="st0" x1="31.9" y1="16.1" x2="18.7" y2="16.1"/>
	<line class="st0" x1="31.9" y1="16.1" x2="46.5" y2="16.1"/>
	<line class="st0" x1="5.9" y1="16.1" x2="0" y2="16.1"/>
	<line class="st0" x1="12.5" y1="19.4" x2="27.5" y2="19.4"/>
	<line class="st0" x1="41.2" y1="19.4" x2="27.5" y2="19.4"/>
	<line class="st0" x1="54" y1="19.4" x2="54.1" y2="19.4"/>
	<line class="st0" x1="12.5" y1="19.4" x2="0" y2="19.4"/>
	<line class="st0" x1="41.2" y1="19.4" x2="54" y2="19.4"/>
	<line class="st0" x1="48.7" y1="22.8" x2="54.1" y2="22.8"/>
	<line class="st0" x1="20.2" y1="22.8" x2="6.7" y2="22.8"/>
	<line class="st0" x1="33.8" y1="22.8" x2="20.2" y2="22.8"/>
	<line class="st0" x1="48.7" y1="22.8" x2="33.8" y2="22.8"/>
	<line class="st0" x1="6.7" y1="22.8" x2="0" y2="22.8"/>
	<line class="st0" x1="0" y1="26.9" x2="54.1" y2="26.9"/>
	<line class="st0" x1="0" y1="30.7" x2="54.1" y2="30.7"/>
	<line class="st0" x1="54.1" y1="34.9" x2="54.2" y2="34.9"/>
	<line class="st0" x1="54.1" y1="34.9" x2="0" y2="34.9"/>
	<line class="st0" x1="0" y1="38.1" x2="54.1" y2="38.1"/>
	<line class="st0" x1="0" y1="53.3" x2="5.9" y2="53.3"/>
	<line class="st0" x1="38.4" y1="53.3" x2="32.2" y2="53.3"/>
	<line class="st0" x1="38.4" y1="53.3" x2="46.5" y2="53.3"/>
	<line class="st0" x1="24.7" y1="53.3" x2="32.2" y2="53.3"/>
	<line class="st0" x1="51.7" y1="53.3" x2="46.5" y2="53.3"/>
	<line class="st0" x1="10.3" y1="53.3" x2="18.7" y2="53.3"/>
	<line class="st0" x1="10.3" y1="53.3" x2="5.9" y2="53.3"/>
	<line class="st0" x1="24.7" y1="53.3" x2="18.7" y2="53.3"/>
	<line class="st0" x1="51.7" y1="53.3" x2="54.1" y2="53.3"/>
	<line class="st0" x1="5.9" y1="0" x2="5.9" y2="3.8"/>
	<line class="st0" x1="18.7" y1="0" x2="18.7" y2="3.8"/>
	<line class="st0" x1="32.2" y1="0" x2="32.2" y2="3.8"/>
	<line class="st0" x1="46.5" y1="0" x2="46.5" y2="3.8"/>
	<line class="st0" x1="5.9" y1="54.1" x2="5.9" y2="53.3"/>
	<line class="st0" x1="5.9" y1="53.3" x2="5.9" y2="53.3"/>
	<line class="st0" x1="18.7" y1="53.3" x2="18.7" y2="53.3"/>
	<line class="st0" x1="18.7" y1="54.1" x2="18.7" y2="53.3"/>
	<line class="st0" x1="32.2" y1="53.3" x2="32.2" y2="53.3"/>
	<line class="st0" x1="32.2" y1="54.1" x2="32.2" y2="53.3"/>
	<line class="st0" x1="46.5" y1="53.3" x2="46.5" y2="53.3"/>
	<line class="st0" x1="46.5" y1="54.1" x2="46.5" y2="53.3"/>
	<line class="st0" x1="12.6" y1="3.8" x2="12.6" y2="3.7"/>
	<line class="st0" x1="12.6" y1="3.8" x2="12.6" y2="7.9"/>
	<line class="st0" x1="27.5" y1="3.8" x2="27.5" y2="7.9"/>
	<line class="st0" x1="27.5" y1="3.8" x2="27.5" y2="3.7"/>
	<line class="st0" x1="41.1" y1="3.8" x2="41.1" y2="7.9"/>
	<line class="st0" x1="41.1" y1="3.8" x2="41.1" y2="3.7"/>
	<line class="st0" x1="53.9" y1="3.8" x2="53.9" y2="3.7"/>
	<line class="st0" x1="53.9" y1="3.8" x2="53.9" y2="7.9"/>
	<line class="st0" x1="7" y1="12.1" x2="7" y2="8"/>
	<line class="st0" x1="20.3" y1="12.1" x2="20.3" y2="8"/>
	<line class="st0" x1="33.9" y1="12.1" x2="33.9" y2="8"/>
	<line class="st0" x1="48.8" y1="12.1" x2="48.8" y2="8"/>
	<line class="st0" x1="40.2" y1="12.1" x2="40.2" y2="16.1"/>
	<line class="st0" x1="40.2" y1="12.1" x2="40.2" y2="12.1"/>
	<line class="st0" x1="26.8" y1="12.1" x2="26.8" y2="12.1"/>
	<line class="st0" x1="26.8" y1="12.1" x2="26.8" y2="16.1"/>
	<line class="st0" x1="11.9" y1="12.1" x2="11.9" y2="12.1"/>
	<line class="st0" x1="11.9" y1="12.1" x2="11.9" y2="16.1"/>
	<line class="st0" x1="53.4" y1="12.1" x2="53.4" y2="12.1"/>
	<line class="st0" x1="53.4" y1="16.1" x2="53.4" y2="12.1"/>
	<line class="st0" x1="46.5" y1="16.1" x2="46.5" y2="16.1"/>
	<line class="st0" x1="46.5" y1="16.1" x2="46.5" y2="19.4"/>
	<line class="st0" x1="31.9" y1="16.1" x2="31.9" y2="16.1"/>
	<line class="st0" x1="31.9" y1="16.1" x2="31.9" y2="19.4"/>
	<line class="st0" x1="18.7" y1="16.1" x2="18.7" y2="16.1"/>
	<line class="st0" x1="18.7" y1="16.1" x2="18.7" y2="19.4"/>
	<line class="st0" x1="5.9" y1="16.1" x2="5.9" y2="16.1"/>
	<line class="st0" x1="5.9" y1="16.1" x2="5.9" y2="19.4"/>
	<line class="st0" x1="12.5" y1="19.4" x2="12.5" y2="19.4"/>
	<line class="st0" x1="12.5" y1="19.4" x2="12.5" y2="22.8"/>
	<line class="st0" x1="27.5" y1="19.4" x2="27.5" y2="22.8"/>
	<line class="st0" x1="27.5" y1="19.4" x2="27.5" y2="19.4"/>
	<line class="st0" x1="41.2" y1="19.4" x2="41.2" y2="19.4"/>
	<line class="st0" x1="41.2" y1="19.4" x2="41.2" y2="22.8"/>
	<line class="st0" x1="54" y1="19.4" x2="54" y2="19.4"/>
	<line class="st0" x1="54" y1="19.4" x2="54" y2="22.8"/>
	<line class="st0" x1="6.7" y1="22.8" x2="6.7" y2="22.8"/>
	<line class="st0" x1="6.7" y1="22.8" x2="6.7" y2="26.9"/>
	<line class="st0" x1="20.2" y1="22.8" x2="20.2" y2="22.8"/>
	<line class="st0" x1="20.2" y1="22.8" x2="20.2" y2="26.9"/>
	<line class="st0" x1="33.8" y1="22.8" x2="33.8" y2="26.9"/>
	<line class="st0" x1="33.8" y1="22.8" x2="33.8" y2="22.8"/>
	<line class="st0" x1="48.7" y1="22.8" x2="48.7" y2="26.9"/>
	<line class="st0" x1="48.7" y1="22.8" x2="48.7" y2="22.8"/>
	<line class="st0" x1="40" y1="26.9" x2="40" y2="30.7"/>
	<line class="st0" x1="26.7" y1="26.9" x2="26.7" y2="30.7"/>
	<line class="st0" x1="11.7" y1="26.9" x2="11.7" y2="30.7"/>
	<line class="st0" x1="53.3" y1="30.7" x2="53.3" y2="26.9"/>
	<line class="st0" x1="5.5" y1="30.7" x2="5.5" y2="34.9"/>
	<line class="st0" x1="18.5" y1="30.7" x2="18.5" y2="34.9"/>
	<line class="st0" x1="32.2" y1="30.7" x2="32.2" y2="34.9"/>
	<line class="st0" x1="46.4" y1="30.7" x2="46.4" y2="34.9"/>
	<line class="st0" x1="42.2" y1="34.9" x2="42.2" y2="38.1"/>
	<line class="st0" x1="28" y1="34.9" x2="28" y2="38.1"/>
	<line class="st0" x1="12.9" y1="34.9" x2="12.9" y2="38.1"/>
	<line class="st0" x1="0.5" y1="34.9" x2="0.5" y2="38.1"/>
	<line class="st0" x1="6.9" y1="41.7" x2="6.9" y2="38.2"/>
	<line class="st0" x1="20.1" y1="41.7" x2="20.1" y2="38.2"/>
	<line class="st0" x1="33.8" y1="41.7" x2="33.8" y2="38.2"/>
	<line class="st0" x1="48.6" y1="41.7" x2="48.6" y2="38.2"/>
	<line class="st0" x1="40.3" y1="45.5" x2="40.3" y2="45.5"/>
	<line class="st0" x1="40.3" y1="45.5" x2="40.3" y2="41.8"/>
	<line class="st0" x1="26.4" y1="45.5" x2="26.4" y2="41.8"/>
	<line class="st0" x1="26.4" y1="45.5" x2="26.4" y2="45.5"/>
	<line class="st0" x1="11.9" y1="45.5" x2="11.9" y2="41.8"/>
	<line class="st0" x1="11.9" y1="45.5" x2="11.9" y2="45.5"/>
	<line class="st0" x1="53.7" y1="45.5" x2="53.7" y2="45.5"/>
	<line class="st0" x1="53.7" y1="45.5" x2="53.7" y2="41.8"/>
	<line class="st0" x1="0" y1="49.9" x2="10.3" y2="49.9"/>
	<line class="st0" x1="51.7" y1="49.9" x2="54.1" y2="49.9"/>
	<line class="st0" x1="38.4" y1="49.9" x2="51.7" y2="49.9"/>
	<line class="st0" x1="38.4" y1="49.9" x2="24.7" y2="49.9"/>
	<line class="st0" x1="10.3" y1="49.9" x2="24.7" y2="49.9"/>
	<line class="st0" x1="10.3" y1="49.9" x2="10.3" y2="49.9"/>
	<line class="st0" x1="10.3" y1="49.9" x2="10.3" y2="53.3"/>
	<line class="st0" x1="10.3" y1="53.3" x2="10.3" y2="53.3"/>
	<line class="st0" x1="24.7" y1="49.9" x2="24.7" y2="53.3"/>
	<line class="st0" x1="24.7" y1="49.9" x2="24.7" y2="49.9"/>
	<line class="st0" x1="24.7" y1="53.3" x2="24.7" y2="53.3"/>
	<line class="st0" x1="38.4" y1="53.3" x2="38.4" y2="49.9"/>
	<line class="st0" x1="38.4" y1="53.3" x2="38.4" y2="53.3"/>
	<line class="st0" x1="38.4" y1="49.9" x2="38.4" y2="49.9"/>
	<line class="st0" x1="51.7" y1="53.3" x2="51.7" y2="53.3"/>
	<line class="st0" x1="51.7" y1="49.9" x2="51.7" y2="49.9"/>
	<line class="st0" x1="51.7" y1="49.9" x2="51.7" y2="53.3"/>
	<line class="st0" x1="4.6" y1="45.5" x2="4.6" y2="49.9"/>
	<line class="st0" x1="17.6" y1="45.5" x2="17.6" y2="49.9"/>
	<line class="st0" x1="31.6" y1="45.5" x2="31.6" y2="49.9"/>
	<line class="st0" x1="46.1" y1="45.5" x2="46.1" y2="49.9"/>
	<path class="st0" d="M21.9,47.2c1.1,2.5,3.8,2.3,4.7-0.2C24.6,47.9,24,47.9,21.9,47.2z"/>
	<path class="st0" d="M49.4,42.8c-2,1-2.7,1-4.7,0.2C45.8,45.5,48.5,45.3,49.4,42.8z"/>
	<path class="st0" d="M43.4,39c-2,1-2.7,1-4.7,0.2C39.8,41.7,42.5,41.5,43.4,39z"/>
	<path class="st0" d="M33.5,35.7c1.1,2.5,3.8,2.3,4.7-0.2C36.2,36.5,35.5,36.5,33.5,35.7z"/>
	<path class="st0" d="M22.9,32.1c1.1,2.5,3.8,2.3,4.7-0.2C25.6,32.9,24.9,32.9,22.9,32.1z"/>
	<path class="st0" d="M16.9,28.1c1.1,2.5,3.8,2.3,4.7-0.2C19.6,28.9,19,28.9,16.9,28.1z"/>
	<path class="st0" d="M10.7,24.1c1.1,2.5,3.8,2.3,4.7-0.2C13.4,24.9,12.7,24.9,10.7,24.1z"/>
	<path class="st0" d="M8.4,20.1c-2,1-2.7,1-4.7,0.2C4.8,22.8,7.5,22.6,8.4,20.1z"/>
	<path class="st0" d="M0,18.7c0.8-0.2,1.4-0.9,1.8-1.9c-0.7,0.4-1.3,0.6-1.8,0.7"/>
	<path class="st0" d="M44.1,28c1.1,2.5,3.8,2.3,4.7-0.2C46.8,28.8,46.2,28.8,44.1,28z"/>
	<path class="st0" d="M38.7,24.3c1.1,2.5,3.8,2.3,4.7-0.2C41.4,25,40.7,25,38.7,24.3z"/>
	<path class="st0" d="M36.8,20.3c-2,1-2.7,1-4.7,0.2C33.2,23,35.9,22.8,36.8,20.3z"/>
	<path class="st0" d="M23.2,17c1.1,2.5,3.8,2.3,4.7-0.2C25.9,17.8,25.3,17.8,23.2,17z"/>
	<path class="st0" d="M22.3,13.1c-2,1-2.7,1-4.7,0.2C18.7,15.8,21.4,15.6,22.3,13.1z"/>
	<path class="st0" d="M15.4,9.3c-2,1-2.7,1-4.7,0.2C11.8,12,14.5,11.8,15.4,9.3z"/>
	<path class="st0" d="M3.9,5.1C5,7.6,7.7,7.4,8.6,4.9C6.6,5.9,5.9,5.9,3.9,5.1z"/>
	<path class="st0" d="M49.5,13.2c-2,1-2.7,1-4.7,0.2C45.9,15.9,48.6,15.7,49.5,13.2z"/>
	<path class="st0" d="M43.8,9.2c-2,1-2.7,1-4.7,0.2C40.2,11.9,42.9,11.7,43.8,9.2z"/>
	<path class="st0" d="M31.6,5.3c1.1,2.5,3.8,2.3,4.7-0.2C34.3,6.1,33.7,6.1,31.6,5.3z"/>
	<path class="st0" d="M0,2.5c0.7-0.3,1.3-0.9,1.7-1.8C1,1,0.5,1.2,0,1.4"/>
	<path class="st0" d="M27.9,0.8c-2,1-2.7,1-4.7,0.2C24.3,3.5,27,3.2,27.9,0.8z"/>
	<path class="st0" d="M0,48.1c0.2-0.3,0.5-0.7,0.6-1.1c-0.2,0.1-0.4,0.2-0.6,0.3"/>
	<path class="st0" d="M16.6,42.9c1.1,2.5,3.8,2.3,4.7-0.2C19.3,43.7,18.7,43.7,16.6,42.9z"/>
	<path class="st0" d="M15.7,39c-2,1-2.7,1-4.7,0.2C12.1,41.7,14.8,41.4,15.7,39z"/>
	<path class="st0" d="M4.6,35.7c1.1,2.5,3.8,2.3,4.7-0.2C7.3,36.5,6.6,36.5,4.6,35.7z"/>
	<path class="st0" d="M0,33.5c0.6-0.3,1.2-0.9,1.5-1.8C0.9,32,0.4,32.2,0,32.4"/>
	<path class="st0" d="M34.1,50.7c-2,1-2.7,1-4.7,0.2C30.5,53.4,33.2,53.2,34.1,50.7z"/>
	<path class="st0" d="M6.6,50.7c-2,1-2.7,1-4.7,0.2C3,53.4,5.7,53.2,6.6,50.7z"/>
	<path class="st0" d="M47.4,52.6c-0.9-2.5-3.6-2.7-4.7-0.2C44.7,51.6,45.4,51.6,47.4,52.6z"/>
	<path class="st0" d="M0,10.4c0.9-0.2,1.7,0.1,3,0.7C2.5,9.6,1.2,8.9,0,9.3"/>
	<path class="st0" d="M7.8,15c-0.9-2.5-3.6-2.7-4.7-0.2C5.1,14,5.8,14,7.8,15z"/>
	<path class="st0" d="M9.5,18.5c2-0.8,2.7-0.8,4.7,0.2C13.3,16.2,10.6,16,9.5,18.5z"/>
	<path class="st0" d="M22.4,22.3c-0.9-2.5-3.6-2.7-4.7-0.2C19.7,21.2,20.3,21.2,22.4,22.3z"/>
	<path class="st0" d="M24.6,25.6c2-0.8,2.7-0.8,4.7,0.2C28.4,23.4,25.7,23.1,24.6,25.6z"/>
	<path class="st0" d="M30.8,29.6c2-0.8,2.7-0.8,4.7,0.2C34.6,27.4,31.9,27.2,30.8,29.6z"/>
	<path class="st0" d="M36.7,33.6c2-0.8,2.7-0.8,4.7,0.2C40.5,31.4,37.8,31.1,36.7,33.6z"/>
	<path class="st0" d="M46.1,37.3c2-0.8,2.7-0.8,4.7,0.2C49.9,35,47.2,34.8,46.1,37.3z"/>
	<path class="st0" d="M17.6,6.6c2-0.8,2.7-0.8,4.7,0.2C21.5,4.4,18.8,4.2,17.6,6.6z"/>
	<path class="st0" d="M14.9,2.8c-0.9-2.5-3.6-2.7-4.7-0.2C12.2,1.8,12.9,1.8,14.9,2.8z"/>
	<path class="st0" d="M41.5,2.7C40.7,0.3,38,0,36.8,2.5C38.9,1.7,39.5,1.7,41.5,2.7z"/>
	<path class="st0" d="M29.6,11c-0.9-2.5-3.6-2.7-4.7-0.2C26.9,10,27.6,10,29.6,11z"/>
	<path class="st0" d="M35.5,15.2c-0.9-2.5-3.6-2.7-4.7-0.2C32.8,14.1,33.5,14.1,35.5,15.2z"/>
	<path class="st0" d="M41.2,18.9c-0.9-2.5-3.6-2.7-4.7-0.2C38.5,17.8,39.2,17.8,41.2,18.9z"/>
	<path class="st0" d="M49.5,22.2c-0.9-2.5-3.6-2.7-4.7-0.2C46.8,21.2,47.4,21.2,49.5,22.2z"/>
	<path class="st0" d="M44.9,6.4c2-0.8,2.7-0.8,4.7,0.2C48.7,4.2,46,4,44.9,6.4z"/>
	<path class="st0" d="M19.8,52.6c-0.9-2.5-3.6-2.7-4.7-0.2C17.1,51.6,17.8,51.6,19.8,52.6z"/>
	<path class="st0" d="M8.6,48.4c2-0.8,2.7-0.8,4.7,0.2C12.4,46.2,9.7,46,8.6,48.4z"/>
	<path class="st0" d="M36.8,48.3c2-0.8,2.7-0.8,4.7,0.2C40.6,46.1,37.9,45.8,36.8,48.3z"/>
	<path class="st0" d="M30.4,44.3c2-0.8,2.7-0.8,4.7,0.2C34.2,42.1,31.5,41.8,30.4,44.3z"/>
	<path class="st0" d="M29.2,40.9c-0.9-2.5-3.6-2.7-4.7-0.2C26.5,39.9,27.2,39.9,29.2,40.9z"/>
	<path class="st0" d="M17.8,37.3c2-0.8,2.7-0.8,4.7,0.2C21.6,35,18.9,34.8,17.8,37.3z"/>
	<path class="st0" d="M9.6,33.6c2-0.8,2.7-0.8,4.7,0.2C13.4,31.4,10.7,31.2,9.6,33.6z"/>
	<path class="st0" d="M3.4,29.5c2-0.8,2.7-0.8,4.7,0.2C7.3,27.2,4.6,27,3.4,29.5z"/>
	<path class="st0" d="M0,24.1c1.2-0.5,2.6,0.1,3.3,1.8C1.8,25.1,1,24.9,0,25.2"/>
	<path class="st0" d="M3.3,44.3c2-0.8,2.7-0.8,4.7,0.2C7.1,42.1,4.4,41.8,3.3,44.3z"/>
	<path class="st0" d="M0,40.2c1.1-0.3,1.9-0.1,3.4,0.7c-0.6-1.7-2.1-2.4-3.4-1.7"/>
	<path class="st0" d="M54.1,17.5c-0.9,0.2-1.6,0-2.9-0.5c0.6,1.4,1.8,2,2.9,1.7"/>
	<path class="st0" d="M54.1,1.4c-0.9,0.2-1.7,0-3-0.5c0.7,1.5,1.9,2,3,1.6"/>
	<path class="st0" d="M54.1,47.4c-1.5,0.7-2.3,0.6-4.1-0.1c0.9,2,2.9,2.2,4.1,0.9"/>
	<path class="st0" d="M54.1,32.4c-1,0.3-1.8,0.1-3.1-0.4c0.7,1.6,2,2,3.1,1.6"/>
	<path class="st0" d="M54.1,9.3c-0.6,0.2-1.3,0.8-1.7,1.6c0.7-0.3,1.2-0.4,1.7-0.5"/>
	<path class="st0" d="M54.1,24.1c-0.6,0.3-1.1,0.8-1.4,1.6c0.6-0.2,1-0.4,1.4-0.5"/>
	<path class="st0" d="M54.1,39.2c-0.5,0.3-1,0.8-1.3,1.5c0.5-0.2,0.9-0.3,1.3-0.4"/>
	<line class="st0" x1="49.9" y1="50.9" x2="48.7" y2="52.6"/>
	<line class="st0" x1="9.1" y1="50.8" x2="7.2" y2="52.4"/>
	<line class="st0" x1="40.8" y1="52.6" x2="39.6" y2="50.8"/>
	<line class="st0" x1="44.8" y1="47.3" x2="42.6" y2="48.6"/>
	<line class="st0" x1="50.3" y1="44.6" x2="52.1" y2="43"/>
	<line class="st0" x1="38.3" y1="42.9" x2="36.9" y2="44.7"/>
	<line class="st0" x1="34.9" y1="48.9" x2="33.8" y2="47.1"/>
	<line class="st0" x1="27.9" y1="52.6" x2="26.8" y2="50.9"/>
	<line class="st0" x1="29.1" y1="46.7" x2="28.1" y2="48.6"/>
	<line class="st0" x1="20.6" y1="48.6" x2="19.4" y2="46.9"/>
	<line class="st0" x1="22.6" y1="50.8" x2="21.4" y2="52.6"/>
	<line class="st0" x1="36.9" y1="50.8" x2="35" y2="52.4"/>
	<line class="st0" x1="13.4" y1="52.5" x2="12.3" y2="50.8"/>
	<line class="st0" x1="24.3" y1="43" x2="22.4" y2="44.6"/>
	<line class="st0" x1="16.3" y1="47.1" x2="14.4" y2="48.7"/>
	<line class="st0" x1="3.8" y1="47.3" x2="1.9" y2="48.9"/>
	<line class="st0" x1="14.7" y1="44.6" x2="14" y2="42.7"/>
	<line class="st0" x1="7.1" y1="48.7" x2="6" y2="46.9"/>
	<line class="st0" x1="49" y1="49.1" x2="47.9" y2="47.3"/>
	<line class="st0" x1="52.8" y1="50.7" x2="53.9" y2="52.4"/>
	<line class="st0" x1="43.3" y1="44.7" x2="41.5" y2="43.1"/>
	<line class="st0" x1="30.6" y1="40.9" x2="32.5" y2="39.3"/>
	<line class="st0" x1="22" y1="39.1" x2="23.1" y2="40.9"/>
	<line class="st0" x1="40.7" y1="35.8" x2="38.8" y2="37.4"/>
	<line class="st0" x1="35.4" y1="40.8" x2="37.3" y2="39.2"/>
	<line class="st0" x1="32" y1="37.2" x2="30.3" y2="35.6"/>
	<line class="st0" x1="30.4" y1="32.1" x2="28.6" y2="33.7"/>
	<line class="st0" x1="20.9" y1="33.9" x2="19.9" y2="31.8"/>
	<line class="st0" x1="25.1" y1="37.4" x2="24" y2="35.7"/>
	<line class="st0" x1="17.2" y1="32.2" x2="15.3" y2="33.8"/>
	<line class="st0" x1="16.5" y1="35.9" x2="14.6" y2="37.3"/>
	<line class="st0" x1="8.2" y1="40.9" x2="10.1" y2="39.3"/>
	<line class="st0" x1="2.5" y1="42.9" x2="1" y2="44.5"/>
	<line class="st0" x1="8" y1="33.8" x2="6.9" y2="32.1"/>
	<line class="st0" x1="11.8" y1="37.1" x2="10.3" y2="35.6"/>
	<line class="st0" x1="4.3" y1="39.1" x2="5.4" y2="40.8"/>
	<line class="st0" x1="10.4" y1="44.4" x2="8.8" y2="42.8"/>
	<line class="st0" x1="28.8" y1="44.8" x2="27.6" y2="43"/>
	<line class="st0" x1="17.1" y1="39.1" x2="18.2" y2="40.9"/>
	<line class="st0" x1="18.6" y1="24.1" x2="16.7" y2="25.7"/>
	<line class="st0" x1="15.3" y1="28.1" x2="13.4" y2="29.7"/>
	<line class="st0" x1="4.3" y1="32.3" x2="2.4" y2="33.9"/>
	<line class="st0" x1="3.4" y1="35.9" x2="1.9" y2="37.2"/>
	<line class="st0" x1="2.9" y1="27.9" x2="1" y2="29.5"/>
	<line class="st0" x1="9.1" y1="25.7" x2="8" y2="23.9"/>
	<line class="st0" x1="10.6" y1="29.6" x2="9.5" y2="27.8"/>
	<line class="st0" x1="32.5" y1="24.2" x2="30.7" y2="25.8"/>
	<line class="st0" x1="29.9" y1="28.1" x2="28" y2="29.8"/>
	<line class="st0" x1="23.3" y1="25.9" x2="21.5" y2="24.1"/>
	<line class="st0" x1="37.8" y1="29.7" x2="36.6" y2="27.9"/>
	<line class="st0" x1="35" y1="34.1" x2="33.9" y2="32.4"/>
	<line class="st0" x1="24.3" y1="29.6" x2="23.1" y2="27.8"/>
	<line class="st0" x1="9.4" y1="20.3" x2="11" y2="21.9"/>
	<line class="st0" x1="5.6" y1="26.1" x2="4.5" y2="24.3"/>
	<line class="st0" x1="25.8" y1="20.4" x2="23.9" y2="22.1"/>
	<line class="st0" x1="15.9" y1="22.3" x2="14.7" y2="20.5"/>
	<line class="st0" x1="39.6" y1="20.5" x2="37.8" y2="22.1"/>
	<line class="st0" x1="37.2" y1="24.2" x2="35.3" y2="25.8"/>
	<line class="st0" x1="42.9" y1="28.1" x2="41.1" y2="29.7"/>
	<line class="st0" x1="44.8" y1="32.2" x2="42.9" y2="33.8"/>
	<line class="st0" x1="45" y1="35.6" x2="43.8" y2="37.3"/>
	<line class="st0" x1="51.8" y1="39.3" x2="49.9" y2="40.9"/>
	<line class="st0" x1="30.7" y1="22.1" x2="29.6" y2="20.4"/>
	<line class="st0" x1="52.8" y1="20.4" x2="50.9" y2="22.1"/>
	<line class="st0" x1="51.9" y1="24" x2="50" y2="25.6"/>
	<line class="st0" x1="47.9" y1="18.7" x2="49.8" y2="17.1"/>
	<line class="st0" x1="43.6" y1="22.1" x2="42.4" y2="20.3"/>
	<line class="st0" x1="46.1" y1="25.7" x2="45" y2="23.9"/>
	<line class="st0" x1="51" y1="29.7" x2="49.9" y2="27.9"/>
	<line class="st0" x1="49.6" y1="33.8" x2="48.4" y2="32.1"/>
	<line class="st0" x1="53" y1="37.4" x2="51.9" y2="35.6"/>
	<line class="st0" x1="45" y1="39.1" x2="46.1" y2="40.9"/>
	<line class="st0" x1="44" y1="18.6" x2="42.9" y2="16.9"/>
	<line class="st0" x1="50.7" y1="6.8" x2="52.6" y2="5.2"/>
	<line class="st0" x1="50" y1="11.1" x2="51.4" y2="9.4"/>
	<line class="st0" x1="42.4" y1="5" x2="43.8" y2="6.4"/>
	<line class="st0" x1="45.6" y1="9.3" x2="46.8" y2="11.1"/>
	<line class="st0" x1="52" y1="15" x2="50.9" y2="13.3"/>
	<line class="st0" x1="48.3" y1="0.6" x2="49.4" y2="2.4"/>
	<line class="st0" x1="29.2" y1="2.3" x2="31.1" y2="0.7"/>
	<line class="st0" x1="43.3" y1="2.2" x2="45.1" y2="0.6"/>
	<line class="st0" x1="37.9" y1="6.7" x2="39.8" y2="5.1"/>
	<line class="st0" x1="35.7" y1="11.1" x2="37.9" y2="9.2"/>
	<line class="st0" x1="41.1" y1="14.6" x2="43.5" y2="13.2"/>
	<line class="st0" x1="20.5" y1="0.7" x2="22" y2="2.7"/>
	<line class="st0" x1="33.5" y1="0.7" x2="34.3" y2="2.5"/>
	<line class="st0" x1="29.2" y1="5.3" x2="30.3" y2="7.1"/>
	<line class="st0" x1="30.6" y1="11.1" x2="32.5" y2="9.5"/>
	<line class="st0" x1="21.6" y1="9.2" x2="23.6" y2="10.7"/>
	<line class="st0" x1="23.4" y1="15.3" x2="24.9" y2="13.4"/>
	<line class="st0" x1="14.4" y1="13.3" x2="15.6" y2="15.1"/>
	<line class="st0" x1="36.6" y1="14.8" x2="39" y2="13.3"/>
	<line class="st0" x1="33.6" y1="18.6" x2="35.5" y2="16.9"/>
	<line class="st0" x1="28.6" y1="13.2" x2="29.3" y2="15.3"/>
	<line class="st0" x1="29.1" y1="17" x2="30.2" y2="18.8"/>
	<line class="st0" x1="16.3" y1="11.1" x2="18.1" y2="9.4"/>
	<line class="st0" x1="9.1" y1="15.1" x2="10.9" y2="13.4"/>
	<line class="st0" x1="17.5" y1="17.1" x2="15.6" y2="18.8"/>
	<line class="st0" x1="2.6" y1="20.3" x2="1.1" y2="21.9"/>
	<line class="st0" x1="22.3" y1="17" x2="20.4" y2="18.6"/>
	<line class="st0" x1="4.5" y1="17.1" x2="2.6" y2="18.7"/>
	<line class="st0" x1="8.8" y1="9.1" x2="9.6" y2="11.3"/>
	<line class="st0" x1="0.8" y1="13.4" x2="1.9" y2="15.1"/>
	<line class="st0" x1="8.4" y1="18.7" x2="7.3" y2="16.9"/>
	<line class="st0" x1="4.1" y1="9.4" x2="5.3" y2="11.1"/>
	<line class="st0" x1="2.7" y1="7" x2="1.6" y2="5.3"/>
	<line class="st0" x1="26" y1="5.4" x2="23.9" y2="6.7"/>
	<line class="st0" x1="7.6" y1="2.2" x2="9.5" y2="0.6"/>
	<line class="st0" x1="2.7" y1="2.3" x2="4.6" y2="0.6"/>
	<line class="st0" x1="11.4" y1="5.3" x2="9.5" y2="6.9"/>
	<line class="st0" x1="15.7" y1="7" x2="14.6" y2="5.3"/>
	<line class="st0" x1="16.3" y1="0.6" x2="17" y2="2.7"/>
</g>
</svg>
