<?xml version="1.0" encoding="utf-8"?>
<!-- Generator: Adobe Illustrator 23.0.1, SVG Export Plug-In . SVG Version: 6.00 Build 0)  -->
<svg version="1.1" id="Layer_1" xmlns="http://www.w3.org/2000/svg" xmlns:xlink="http://www.w3.org/1999/xlink" x="0px" y="0px"
	 viewBox="0 0 54.1 54.1" style="enable-background:new 0 0 54.1 54.1;" xml:space="preserve">
<style type="text/css">
	.st0{clip-path:url(#SVGID_2_);fill:none;stroke:#000000;stroke-width:0.3;}
	.st1{clip-path:url(#SVGID_2_);fill:none;stroke:#000000;stroke-width:0.6;stroke-linecap:round;}
</style>
<g>
	<defs>
		<rect id="SVGID_1_" x="0" y="0" width="54.1" height="54.1"/>
	</defs>
	<clipPath id="SVGID_2_">
		<use xlink:href="#SVGID_1_"  style="overflow:visible;"/>
	</clipPath>
	<line class="st0" x1="54.1" y1="3.8" x2="45.1" y2="3.8"/>
	<line class="st0" x1="4.6" y1="3.8" x2="0" y2="3.8"/>
	<line class="st0" x1="42" y1="3.8" x2="30.8" y2="3.8"/>
	<line class="st0" x1="17.3" y1="3.8" x2="28.3" y2="3.8"/>
	<line class="st0" x1="17.3" y1="3.8" x2="4.6" y2="3.8"/>
	<line class="st0" x1="30.8" y1="3.8" x2="28.3" y2="3.8"/>
	<line class="st0" x1="42" y1="3.8" x2="45.1" y2="3.8"/>
	<line class="st0" x1="54.1" y1="7.9" x2="34.8" y2="7.9"/>
	<line class="st0" x1="34.8" y1="7.9" x2="8" y2="7.9"/>
	<line class="st0" x1="8" y1="7.9" x2="0" y2="7.9"/>
	<line class="st0" x1="12.7" y1="12.1" x2="0" y2="12.1"/>
	<line class="st0" x1="41" y1="12.1" x2="53.8" y2="12.1"/>
	<line class="st0" x1="27.5" y1="12.1" x2="41" y2="12.1"/>
	<line class="st0" x1="27.5" y1="12.1" x2="12.7" y2="12.1"/>
	<line class="st0" x1="53.8" y1="12.1" x2="54.1" y2="12.1"/>
	<line class="st0" x1="53.7" y1="41.7" x2="54.1" y2="41.7"/>
	<line class="st0" x1="12.6" y1="41.7" x2="27.1" y2="41.7"/>
	<line class="st0" x1="41.1" y1="41.7" x2="27.1" y2="41.7"/>
	<line class="st0" x1="41.1" y1="41.7" x2="53.7" y2="41.7"/>
	<line class="st0" x1="54.1" y1="41.7" x2="54.2" y2="41.7"/>
	<line class="st0" x1="12.6" y1="41.7" x2="0" y2="41.7"/>
	<line class="st0" x1="51.2" y1="45.5" x2="54.1" y2="45.5"/>
	<line class="st0" x1="18.5" y1="45.5" x2="24.8" y2="45.5"/>
	<line class="st0" x1="5.5" y1="45.5" x2="0" y2="45.5"/>
	<line class="st0" x1="38.8" y1="45.5" x2="47.1" y2="45.5"/>
	<line class="st0" x1="51.2" y1="45.5" x2="47.1" y2="45.5"/>
	<line class="st0" x1="24.8" y1="45.5" x2="32.5" y2="45.5"/>
	<line class="st0" x1="10.3" y1="45.5" x2="5.5" y2="45.5"/>
	<line class="st0" x1="38.8" y1="45.5" x2="32.5" y2="45.5"/>
	<line class="st0" x1="10.3" y1="45.5" x2="18.5" y2="45.5"/>
	<line class="st0" x1="6.6" y1="16.1" x2="19.3" y2="16.1"/>
	<line class="st0" x1="32.6" y1="16.1" x2="47.2" y2="16.1"/>
	<line class="st0" x1="6.6" y1="16.1" x2="0" y2="16.1"/>
	<line class="st0" x1="54.1" y1="16.1" x2="47.2" y2="16.1"/>
	<line class="st0" x1="32.6" y1="16.1" x2="19.3" y2="16.1"/>
	<line class="st0" x1="28" y1="19.4" x2="13" y2="19.4"/>
	<line class="st0" x1="13" y1="19.4" x2="0" y2="19.4"/>
	<line class="st0" x1="41.9" y1="19.4" x2="53.9" y2="19.4"/>
	<line class="st0" x1="28" y1="19.4" x2="41.9" y2="19.4"/>
	<line class="st0" x1="54.1" y1="19.4" x2="53.9" y2="19.4"/>
	<line class="st0" x1="34.6" y1="22.8" x2="20.9" y2="22.8"/>
	<line class="st0" x1="49.5" y1="22.8" x2="51.7" y2="22.8"/>
	<line class="st0" x1="51.7" y1="22.8" x2="54.1" y2="22.8"/>
	<line class="st0" x1="7.5" y1="22.8" x2="20.9" y2="22.8"/>
	<line class="st0" x1="7.5" y1="22.8" x2="0" y2="22.8"/>
	<line class="st0" x1="34.6" y1="22.8" x2="49.5" y2="22.8"/>
	<line class="st0" x1="54.1" y1="26.9" x2="40.9" y2="26.9"/>
	<line class="st0" x1="40.9" y1="26.9" x2="27.5" y2="26.9"/>
	<line class="st0" x1="12.5" y1="26.9" x2="0" y2="26.9"/>
	<line class="st0" x1="54.1" y1="26.9" x2="54.1" y2="26.9"/>
	<line class="st0" x1="27.5" y1="26.9" x2="12.5" y2="26.9"/>
	<line class="st0" x1="54.1" y1="30.7" x2="0" y2="30.7"/>
	<line class="st0" x1="54.2" y1="34.9" x2="54.1" y2="34.9"/>
	<line class="st0" x1="0" y1="34.9" x2="54.1" y2="34.9"/>
	<line class="st0" x1="51.8" y1="38.1" x2="54.1" y2="38.1"/>
	<line class="st0" x1="0" y1="38.1" x2="51.8" y2="38.1"/>
	<line class="st0" x1="0" y1="53.3" x2="9" y2="53.3"/>
	<line class="st0" x1="37" y1="53.3" x2="50.4" y2="53.3"/>
	<line class="st0" x1="50.4" y1="53.3" x2="54.1" y2="53.3"/>
	<line class="st0" x1="23.3" y1="53.3" x2="37" y2="53.3"/>
	<line class="st0" x1="9" y1="53.3" x2="23.3" y2="53.3"/>
	<line class="st0" x1="0" y1="49.9" x2="54.1" y2="49.9"/>
	<line class="st0" x1="5.5" y1="45.5" x2="2.9" y2="49.9"/>
	<line class="st0" x1="5.5" y1="45.4" x2="5.5" y2="45.5"/>
	<line class="st0" x1="18.5" y1="45.4" x2="18.5" y2="45.5"/>
	<line class="st0" x1="18.5" y1="45.5" x2="15.9" y2="49.9"/>
	<line class="st0" x1="32.5" y1="45.4" x2="32.5" y2="45.5"/>
	<line class="st0" x1="29.9" y1="49.9" x2="32.5" y2="45.5"/>
	<line class="st0" x1="47.1" y1="45.5" x2="44.4" y2="49.9"/>
	<line class="st0" x1="50.4" y1="53.3" x2="50.4" y2="53.3"/>
	<line class="st0" x1="50.4" y1="53.3" x2="52.4" y2="49.9"/>
	<line class="st0" x1="37" y1="53.3" x2="37" y2="53.3"/>
	<line class="st0" x1="37" y1="53.3" x2="39.1" y2="49.9"/>
	<line class="st0" x1="23.3" y1="53.3" x2="23.3" y2="53.3"/>
	<line class="st0" x1="23.3" y1="53.3" x2="25.4" y2="49.9"/>
	<line class="st0" x1="9" y1="53.3" x2="11.1" y2="49.9"/>
	<line class="st0" x1="9" y1="53.3" x2="9" y2="53.3"/>
	<line class="st0" x1="53.7" y1="41.7" x2="53.7" y2="41.7"/>
	<line class="st0" x1="51.2" y1="45.5" x2="53.7" y2="41.7"/>
	<line class="st0" x1="51.2" y1="45.5" x2="51.2" y2="45.6"/>
	<line class="st0" x1="47.3" y1="41.7" x2="49.4" y2="38.1"/>
	<line class="st0" x1="47.4" y1="30.8" x2="44.8" y2="34.8"/>
	<line class="st0" x1="53.9" y1="34.9" x2="51.8" y2="38.1"/>
	<line class="st0" x1="51.8" y1="38.1" x2="51.8" y2="38.1"/>
	<line class="st0" x1="54.1" y1="26.9" x2="54.1" y2="26.9"/>
	<line class="st0" x1="54.1" y1="26.9" x2="51.8" y2="30.6"/>
	<line class="st0" x1="49.5" y1="22.8" x2="49.6" y2="22.8"/>
	<line class="st0" x1="49.5" y1="22.8" x2="47.1" y2="26.9"/>
	<line class="st0" x1="51.7" y1="22.9" x2="51.7" y2="22.8"/>
	<line class="st0" x1="53.9" y1="19.4" x2="51.7" y2="22.8"/>
	<line class="st0" x1="53.9" y1="19.4" x2="53.9" y2="19.4"/>
	<line class="st0" x1="47.3" y1="16.1" x2="47.2" y2="16.1"/>
	<line class="st0" x1="45.3" y1="19.4" x2="47.2" y2="16.1"/>
	<line class="st0" x1="53.8" y1="12.1" x2="51.4" y2="16.1"/>
	<line class="st0" x1="53.8" y1="12.1" x2="53.8" y2="12.1"/>
	<line class="st0" x1="46.2" y1="12.1" x2="48.8" y2="8"/>
	<line class="st0" x1="51.3" y1="7.9" x2="53.9" y2="3.8"/>
	<line class="st0" x1="45.1" y1="3.8" x2="47.4" y2="0"/>
	<line class="st0" x1="45.1" y1="3.8" x2="45.1" y2="3.8"/>
	<line class="st0" x1="38.8" y1="45.5" x2="38.8" y2="45.6"/>
	<line class="st0" x1="41.1" y1="41.7" x2="38.8" y2="45.5"/>
	<line class="st0" x1="41.1" y1="41.7" x2="41.1" y2="41.7"/>
	<line class="st0" x1="24.8" y1="45.6" x2="24.8" y2="45.5"/>
	<line class="st0" x1="27.1" y1="41.7" x2="24.8" y2="45.5"/>
	<line class="st0" x1="27.1" y1="41.7" x2="27.1" y2="41.7"/>
	<line class="st0" x1="10.3" y1="45.5" x2="10.3" y2="45.6"/>
	<line class="st0" x1="12.6" y1="41.7" x2="12.6" y2="41.7"/>
	<line class="st0" x1="12.6" y1="41.7" x2="10.3" y2="45.5"/>
	<line class="st0" x1="32.4" y1="41.7" x2="34.6" y2="38.1"/>
	<line class="st0" x1="18.8" y1="41.7" x2="20.9" y2="38.1"/>
	<line class="st0" x1="5.5" y1="41.7" x2="7.6" y2="38.1"/>
	<line class="st0" x1="41.9" y1="34.9" x2="40" y2="38.1"/>
	<line class="st0" x1="27.7" y1="34.9" x2="25.8" y2="38.1"/>
	<line class="st0" x1="12.6" y1="34.9" x2="10.7" y2="38.1"/>
	<line class="st0" x1="33.1" y1="30.8" x2="30.5" y2="34.8"/>
	<line class="st0" x1="19.4" y1="30.8" x2="16.9" y2="34.8"/>
	<line class="st0" x1="6.4" y1="30.8" x2="3.9" y2="34.8"/>
	<line class="st0" x1="40.9" y1="26.9" x2="40.9" y2="26.9"/>
	<line class="st0" x1="40.9" y1="26.9" x2="38.6" y2="30.6"/>
	<line class="st0" x1="27.5" y1="26.9" x2="25.3" y2="30.6"/>
	<line class="st0" x1="27.5" y1="26.9" x2="27.5" y2="26.9"/>
	<line class="st0" x1="12.5" y1="26.9" x2="10.3" y2="30.6"/>
	<line class="st0" x1="12.5" y1="26.9" x2="12.5" y2="26.9"/>
	<line class="st0" x1="34.6" y1="22.8" x2="32.2" y2="26.9"/>
	<line class="st0" x1="34.6" y1="22.8" x2="34.6" y2="22.8"/>
	<line class="st0" x1="18.5" y1="26.9" x2="20.9" y2="22.8"/>
	<line class="st0" x1="20.9" y1="22.8" x2="20.9" y2="22.8"/>
	<line class="st0" x1="7.5" y1="22.8" x2="5.1" y2="26.9"/>
	<line class="st0" x1="7.5" y1="22.8" x2="7.5" y2="22.8"/>
	<line class="st0" x1="41.9" y1="19.4" x2="41.9" y2="19.4"/>
	<line class="st0" x1="41.9" y1="19.4" x2="39.9" y2="22.8"/>
	<line class="st0" x1="28" y1="19.4" x2="28.1" y2="19.4"/>
	<line class="st0" x1="28" y1="19.4" x2="26.1" y2="22.8"/>
	<line class="st0" x1="13" y1="19.4" x2="11.1" y2="22.8"/>
	<line class="st0" x1="13" y1="19.4" x2="13.1" y2="19.4"/>
	<line class="st0" x1="32.6" y1="16.1" x2="30.6" y2="19.4"/>
	<line class="st0" x1="32.6" y1="16.1" x2="32.6" y2="16.1"/>
	<line class="st0" x1="19.3" y1="16.1" x2="19.3" y2="16.1"/>
	<line class="st0" x1="17.3" y1="19.4" x2="19.3" y2="16.1"/>
	<line class="st0" x1="6.6" y1="16.1" x2="4.6" y2="19.4"/>
	<line class="st0" x1="6.6" y1="16.1" x2="6.6" y2="16.1"/>
	<line class="st0" x1="41" y1="12.1" x2="41" y2="12.1"/>
	<line class="st0" x1="38.6" y1="16.1" x2="41" y2="12.1"/>
	<line class="st0" x1="27.5" y1="12.1" x2="25.1" y2="16.1"/>
	<line class="st0" x1="27.5" y1="12.1" x2="27.6" y2="12.1"/>
	<line class="st0" x1="12.7" y1="12.1" x2="12.8" y2="12.1"/>
	<line class="st0" x1="12.7" y1="12.1" x2="10.3" y2="16.1"/>
	<line class="st0" x1="34.8" y1="7.9" x2="34.8" y2="7.9"/>
	<line class="st0" x1="34.8" y1="7.9" x2="32.3" y2="12.1"/>
	<line class="st0" x1="18.6" y1="12.1" x2="21.1" y2="7.9"/>
	<line class="st0" x1="8" y1="7.9" x2="8" y2="7.9"/>
	<line class="st0" x1="8" y1="7.9" x2="5.4" y2="12.1"/>
	<line class="st0" x1="42" y1="3.8" x2="39.5" y2="7.9"/>
	<line class="st0" x1="42" y1="3.8" x2="42" y2="3.7"/>
	<line class="st0" x1="25.8" y1="7.9" x2="28.3" y2="3.8"/>
	<line class="st0" x1="28.4" y1="3.7" x2="28.3" y2="3.8"/>
	<line class="st0" x1="13.5" y1="3.8" x2="10.9" y2="7.9"/>
	<line class="st0" x1="30.8" y1="3.8" x2="33.1" y2="0"/>
	<line class="st0" x1="30.8" y1="3.8" x2="30.8" y2="3.8"/>
	<line class="st0" x1="17.3" y1="3.8" x2="19.6" y2="0"/>
	<line class="st0" x1="17.3" y1="3.8" x2="17.3" y2="3.8"/>
	<line class="st0" x1="4.6" y1="3.8" x2="6.9" y2="0"/>
	<line class="st0" x1="4.6" y1="3.8" x2="4.6" y2="3.8"/>
	<line class="st0" x1="47.9" y1="53.4" x2="47.4" y2="54.1"/>
	<line class="st0" x1="33.5" y1="53.4" x2="33" y2="54.1"/>
	<line class="st0" x1="20.1" y1="53.4" x2="19.6" y2="54.1"/>
	<line class="st0" x1="7.3" y1="53.4" x2="6.9" y2="54.1"/>
	<line class="st0" x1="8.1" y1="1.9" x2="15.4" y2="1.9"/>
	<line class="st0" x1="35.2" y1="1.9" x2="42.5" y2="1.9"/>
	<line class="st0" x1="22.7" y1="5.9" x2="15.4" y2="5.9"/>
	<line class="st0" x1="50.4" y1="5.9" x2="43.2" y2="5.9"/>
	<line class="st0" x1="22.8" y1="10" x2="30.1" y2="10"/>
	<line class="st0" x1="3.4" y1="10" x2="0" y2="10"/>
	<line class="st0" x1="36.5" y1="14.3" x2="29.2" y2="14.3"/>
	<line class="st0" x1="0.9" y1="14.3" x2="8.1" y2="14.3"/>
	<line class="st0" x1="42.2" y1="17.8" x2="34.9" y2="17.8"/>
	<line class="st0" x1="51.2" y1="21.1" x2="44" y2="21.1"/>
	<line class="st0" x1="51.2" y1="25" x2="54.1" y2="25"/>
	<line class="st0" x1="49.6" y1="28.8" x2="42.4" y2="28.8"/>
	<line class="st0" x1="42.4" y1="32.8" x2="35.2" y2="32.8"/>
	<line class="st0" x1="37.3" y1="36.5" x2="30.1" y2="36.5"/>
	<line class="st0" x1="22.8" y1="40" x2="30.1" y2="40"/>
	<line class="st0" x1="14.9" y1="43.6" x2="22.2" y2="43.6"/>
	<line class="st0" x1="14" y1="48" x2="6.7" y2="48"/>
	<line class="st0" x1="7.3" y1="51.7" x2="0" y2="51.7"/>
	<line class="st0" x1="8.1" y1="17.9" x2="15.3" y2="17.9"/>
	<line class="st0" x1="23.2" y1="21.1" x2="16" y2="21.1"/>
	<line class="st0" x1="22.9" y1="24.9" x2="30.2" y2="24.9"/>
	<line class="st0" x1="22.3" y1="28.9" x2="15" y2="28.9"/>
	<line class="st0" x1="15.1" y1="32.9" x2="7.9" y2="32.9"/>
	<line class="st0" x1="8.5" y1="36.6" x2="1.3" y2="36.6"/>
	<line class="st0" x1="3.1" y1="40.1" x2="0" y2="40.1"/>
	<line class="st0" x1="43" y1="43.7" x2="50.2" y2="43.7"/>
	<line class="st0" x1="42" y1="47.9" x2="34.7" y2="47.9"/>
	<line class="st0" x1="34.4" y1="51.6" x2="27.2" y2="51.6"/>
	<line class="st0" x1="50.2" y1="10" x2="54.1" y2="10"/>
	<line class="st0" x1="50.5" y1="40.1" x2="54.1" y2="40.1"/>
	<line class="st0" x1="2.5" y1="25" x2="0" y2="25"/>
	<line class="st0" x1="53.7" y1="51.7" x2="54.1" y2="51.7"/>
	<line class="st1" x1="17.5" y1="51.6" x2="17.5" y2="51.6"/>
	<line class="st1" x1="20.5" y1="51.6" x2="20.5" y2="51.6"/>
	<line class="st1" x1="14.3" y1="51.6" x2="14.3" y2="51.6"/>
	<line class="st1" x1="24.1" y1="47.8" x2="24.1" y2="47.8"/>
	<line class="st1" x1="27.1" y1="47.8" x2="27.1" y2="47.8"/>
	<line class="st1" x1="21" y1="47.8" x2="21" y2="47.8"/>
	<line class="st1" x1="33.1" y1="43.8" x2="33.1" y2="43.8"/>
	<line class="st1" x1="36.1" y1="43.8" x2="36.1" y2="43.8"/>
	<line class="st1" x1="29.9" y1="43.8" x2="29.9" y2="43.8"/>
	<line class="st1" x1="5" y1="43.8" x2="5" y2="43.8"/>
	<line class="st1" x1="8" y1="43.8" x2="8" y2="43.8"/>
	<line class="st1" x1="1.8" y1="43.8" x2="1.8" y2="43.8"/>
	<line class="st1" x1="13.2" y1="40" x2="13.2" y2="40"/>
	<line class="st1" x1="16.2" y1="40" x2="16.2" y2="40"/>
	<line class="st1" x1="10" y1="40" x2="10" y2="40"/>
	<line class="st1" x1="41.1" y1="40" x2="41.1" y2="40"/>
	<line class="st1" x1="44.1" y1="40" x2="44.1" y2="40"/>
	<line class="st1" x1="37.9" y1="40" x2="37.9" y2="40"/>
	<line class="st1" x1="47" y1="36.5" x2="47" y2="36.5"/>
	<line class="st1" x1="50" y1="36.5" x2="50" y2="36.5"/>
	<line class="st1" x1="43.8" y1="36.5" x2="43.8" y2="36.5"/>
	<line class="st1" x1="19.2" y1="36.5" x2="19.2" y2="36.5"/>
	<line class="st1" x1="22.2" y1="36.5" x2="22.2" y2="36.5"/>
	<line class="st1" x1="16" y1="36.5" x2="16" y2="36.5"/>
	<line class="st1" x1="25.2" y1="32.7" x2="25.2" y2="32.7"/>
	<line class="st1" x1="28.2" y1="32.7" x2="28.2" y2="32.7"/>
	<line class="st1" x1="22" y1="32.7" x2="22" y2="32.7"/>
	<line class="st1" x1="53.2" y1="32.7" x2="53.2" y2="32.7"/>
	<line class="st1" x1="50" y1="32.7" x2="50" y2="32.7"/>
	<line class="st1" x1="2.2" y1="32.7" x2="2.2" y2="32.7"/>
	<line class="st1" x1="32.8" y1="28.8" x2="32.8" y2="28.8"/>
	<line class="st1" x1="35.8" y1="28.8" x2="35.8" y2="28.8"/>
	<line class="st1" x1="29.7" y1="28.8" x2="29.7" y2="28.8"/>
	<line class="st1" x1="4.8" y1="28.8" x2="4.8" y2="28.8"/>
	<line class="st1" x1="7.8" y1="28.8" x2="7.8" y2="28.8"/>
	<line class="st1" x1="1.7" y1="28.8" x2="1.7" y2="28.8"/>
	<line class="st1" x1="13" y1="24.8" x2="13" y2="24.8"/>
	<line class="st1" x1="16" y1="24.8" x2="16" y2="24.8"/>
	<line class="st1" x1="9.8" y1="24.8" x2="9.8" y2="24.8"/>
	<line class="st1" x1="40.8" y1="24.8" x2="40.8" y2="24.8"/>
	<line class="st1" x1="43.8" y1="24.8" x2="43.8" y2="24.8"/>
	<line class="st1" x1="37.7" y1="24.8" x2="37.7" y2="24.8"/>
	<line class="st1" x1="34" y1="21.1" x2="34" y2="21.1"/>
	<line class="st1" x1="37" y1="21.1" x2="37" y2="21.1"/>
	<line class="st1" x1="30.8" y1="21.1" x2="30.8" y2="21.1"/>
	<line class="st1" x1="5.6" y1="21.1" x2="5.6" y2="21.1"/>
	<line class="st1" x1="8.6" y1="21.1" x2="8.6" y2="21.1"/>
	<line class="st1" x1="2.4" y1="21.1" x2="2.4" y2="21.1"/>
	<line class="st1" x1="53.1" y1="17.8" x2="53.1" y2="17.8"/>
	<line class="st1" x1="49.9" y1="17.8" x2="49.9" y2="17.8"/>
	<line class="st1" x1="2.2" y1="17.8" x2="2.2" y2="17.8"/>
	<line class="st1" x1="18.8" y1="14.2" x2="18.8" y2="14.2"/>
	<line class="st1" x1="21.8" y1="14.2" x2="21.8" y2="14.2"/>
	<line class="st1" x1="15.7" y1="14.2" x2="15.7" y2="14.2"/>
	<line class="st1" x1="46.5" y1="14.2" x2="46.5" y2="14.2"/>
	<line class="st1" x1="49.5" y1="14.2" x2="49.5" y2="14.2"/>
	<line class="st1" x1="43.3" y1="14.2" x2="43.3" y2="14.2"/>
	<line class="st1" x1="40.5" y1="10" x2="40.5" y2="10"/>
	<line class="st1" x1="43.5" y1="10" x2="43.5" y2="10"/>
	<line class="st1" x1="37.3" y1="10" x2="37.3" y2="10"/>
	<line class="st1" x1="13.1" y1="10" x2="13.1" y2="10"/>
	<line class="st1" x1="16.1" y1="10" x2="16.1" y2="10"/>
	<line class="st1" x1="9.9" y1="10" x2="9.9" y2="10"/>
	<line class="st1" x1="34" y1="5.8" x2="34" y2="5.8"/>
	<line class="st1" x1="37" y1="5.8" x2="37" y2="5.8"/>
	<line class="st1" x1="30.8" y1="5.8" x2="30.8" y2="5.8"/>
	<line class="st1" x1="5.3" y1="5.8" x2="5.3" y2="5.8"/>
	<line class="st1" x1="8.3" y1="5.8" x2="8.3" y2="5.8"/>
	<line class="st1" x1="2.2" y1="5.8" x2="2.2" y2="5.8"/>
	<line class="st1" x1="25.3" y1="2" x2="25.3" y2="2"/>
	<line class="st1" x1="28.3" y1="2" x2="28.3" y2="2"/>
	<line class="st1" x1="22.2" y1="2" x2="22.2" y2="2"/>
	<line class="st1" x1="53.3" y1="2" x2="53.3" y2="2"/>
	<line class="st1" x1="50.2" y1="2" x2="50.2" y2="2"/>
	<line class="st1" x1="2.2" y1="2" x2="2.2" y2="2"/>
	<line class="st1" x1="25.1" y1="17.8" x2="25.1" y2="17.8"/>
	<line class="st1" x1="28.1" y1="17.8" x2="28.1" y2="17.8"/>
	<line class="st1" x1="21.9" y1="17.8" x2="21.9" y2="17.8"/>
	<line class="st1" x1="52.5" y1="47.8" x2="52.5" y2="47.8"/>
	<line class="st1" x1="49.3" y1="47.8" x2="49.3" y2="47.8"/>
	<line class="st1" x1="1.3" y1="47.8" x2="1.3" y2="47.8"/>
	<line class="st1" x1="44.7" y1="51.6" x2="44.7" y2="51.6"/>
	<line class="st1" x1="47.7" y1="51.6" x2="47.7" y2="51.6"/>
	<line class="st1" x1="41.5" y1="51.6" x2="41.5" y2="51.6"/>
</g>
</svg>
