<?xml version="1.0" encoding="utf-8"?>
<!-- Generator: Adobe Illustrator 23.0.1, SVG Export Plug-In . SVG Version: 6.00 Build 0)  -->
<svg version="1.1" id="Layer_1" xmlns="http://www.w3.org/2000/svg" xmlns:xlink="http://www.w3.org/1999/xlink" x="0px" y="0px"
	 viewBox="0 0 54.1 54.1" style="enable-background:new 0 0 54.1 54.1;" xml:space="preserve">
<style type="text/css">
	.st0{fill:none;stroke:#000000;stroke-width:0.3;}
</style>
<g>
	<path class="st0" d="M21.2,27.9h3c0.4-1,2.1-1,2.4,0h2.9"/>
	<path class="st0" d="M21.2,29.2h3c0.4,1,2.1,1,2.4,0h2.9"/>
	<path class="st0" d="M28.4,36.3h3c0.4-1,2.1-1,2.4,0h2.9"/>
	<path class="st0" d="M28.4,37.6h3c0.4,1,2.1,1,2.4,0h2.9"/>
	<path class="st0" d="M1.8,49.4h3c0.4-1,2.1-1,2.4,0h2.9"/>
	<path class="st0" d="M1.8,50.7h3c0.4,1,2.1,1,2.4,0h2.9"/>
	<path class="st0" d="M17.4,8.1h3c0.4-1,2.1-1,2.4,0h2.9"/>
	<path class="st0" d="M17.4,9.4h3c0.4,1,2.1,1,2.4,0h2.9"/>
	<path class="st0" d="M43.1,5.4h3c0.4-1,2.1-1,2.4,0h2.9"/>
	<path class="st0" d="M43.1,6.7h3c0.4,1,2.1,1,2.4,0h2.9"/>
	<path class="st0" d="M35.3,15.4h3c0.4-1,2.1-1,2.4,0h2.9"/>
	<path class="st0" d="M35.3,16.7h3c0.4,1,2.1,1,2.4,0h2.9"/>
	<path class="st0" d="M44.9,30.4h3c0.4-1,2.1-1,2.4,0h2.9"/>
	<path class="st0" d="M44.9,31.7h3c0.4,1,2.1,1,2.4,0h2.9"/>
	<path class="st0" d="M44.8,40.5h3c0.4-1,2.1-1,2.4,0h2.9"/>
	<path class="st0" d="M44.8,41.9h3c0.4,1,2.1,1,2.4,0h2.9"/>
	<path class="st0" d="M35,49.1h3c0.4-1,2.1-1,2.4,0h2.9"/>
	<path class="st0" d="M35,50.4h3c0.4,1,2.1,1,2.4,0h2.9"/>
	<path class="st0" d="M16.6,45.8h3c0.4-1,2.1-1,2.4,0h2.9"/>
	<path class="st0" d="M16.6,47.1h3c0.4,1,2.1,1,2.4,0h2.9"/>
	<path class="st0" d="M5.2,36.2h3c0.4-1,2.1-1,2.4,0h2.9"/>
	<path class="st0" d="M5.2,37.5h3c0.4,1,2.1,1,2.4,0h2.9"/>
	<path class="st0" d="M0.9,21.1h3c0.4-1,2.1-1,2.4,0h2.9"/>
	<path class="st0" d="M0.9,22.4h3c0.4,1,2.1,1,2.4,0h2.9"/>
</g>
</svg>
