<?xml version="1.0" encoding="utf-8"?>
<!-- Generator: Adobe Illustrator 23.0.1, SVG Export Plug-In . SVG Version: 6.00 Build 0)  -->
<svg version="1.1" id="Layer_1" xmlns="http://www.w3.org/2000/svg" xmlns:xlink="http://www.w3.org/1999/xlink" x="0px" y="0px"
	 viewBox="0 0 41.9 41.9" style="enable-background:new 0 0 41.9 41.9;" xml:space="preserve">
<style type="text/css">
	.st0{fill:none;stroke:#000000;stroke-width:0.3;}
	.st1{fill:none;}
</style>
<g>
	<path class="st0" d="M41,11.3c0.2,0.8,0.3,2.2,0.1,3.6"/>
	<path class="st0" d="M41.2,17c-0.3,1.3-0.2,3.7,0.1,4.3"/>
	<path class="st0" d="M39.4,13.1c0.2,1.4,0.2,2-0.2,3.5c-0.3,1.5-0.3,2.2,0,3.3"/>
	<path class="st0" d="M37.2,11c0.3,1.2,0.2,2.6-0.2,4.2"/>
	<path class="st0" d="M37,16.9c0,0.9-0.2,0.6-0.3,1.5c-0.1,1,0.7,3.2,1.3,4.2"/>
	<path class="st0" d="M34.5,12.4c0.3,1.4,0.3,2.4-0.2,4c-0.4,1.7-0.3,2.4,0.4,3.5"/>
	<path class="st0" d="M31.6,11.1c0.5,1.2,0.7,2.6,0.6,3.5"/>
	<path class="st0" d="M32.2,16.1c-0.3,1.7-0.9,5.1,0.3,6.5"/>
	<path class="st0" d="M31,7.6c0.2,0.9,0.3,1.7,0.3,2"/>
	<path class="st0" d="M29.9,14.3c0.1,1.2,0,2.6-0.3,3.8c-0.3,1.1,0.5,4.1,1,5"/>
	<path class="st0" d="M27.7,11.5c0.3,1.7,0.3,3.4,0,5.2"/>
	<path class="st0" d="M27.4,18.2c-0.3,1-0.3,3,0.1,3.6"/>
	<path class="st0" d="M25.8,13.9c0.2,1.5,0,2.6-0.4,4c-0.5,1.4-0.6,3.2-0.1,4.2"/>
	<path class="st0" d="M23.4,11.3c0.2,1.2,0.4,3.5,0,5"/>
	<path class="st0" d="M23.1,18.2c-0.6,2.7-0.7,5.1-0.3,5.8"/>
	<path class="st0" d="M21.4,13.2c0.1,1.9,0.2,2.6-0.2,4.1c-0.4,1.5-0.4,2.7-0.3,3.4"/>
	<path class="st0" d="M19.7,10.7c0.3,1.3-0.1,3.5-0.2,4.5"/>
	<path class="st0" d="M19.3,16.9c-0.1,0.8,0,0.5-0.2,1.4c-0.2,1-0.3,2.8,0.2,3.7"/>
	<path class="st0" d="M17.2,12.7c0.2,2,0.2,3.8,0,5.3c-0.2,1.4-0.2,3.1,0.1,3.8"/>
	<path class="st0" d="M15,11.6c0.5,1.4,0.7,2.4,0.6,3.5"/>
	<path class="st0" d="M15.2,17.3c-0.3,1.2-0.4,3.5,0.3,4.7"/>
	<path class="st0" d="M12.8,11.3c0.5,2.1,0.9,3.8,0.6,5.2c-0.3,1.5-0.3,1.4-0.3,1.8"/>
	<path class="st0" d="M13.4,19.7c0.2,0.9,0.3,2.6,0.4,3.4"/>
	<path class="st0" d="M11.3,12.8c0.3,1.7,0.4,2.8,0.1,4.3c-0.3,1.5-0.3,3.4,0.3,4.7"/>
	<path class="st0" d="M8.8,11c0.4,1.3,0.8,2.8,0.8,3.7"/>
	<path class="st0" d="M9.3,17.3c-0.4,1.5-0.5,3.8,0.5,5.3"/>
	<path class="st0" d="M7.3,12.2c0.3,1.7,0.4,2.6,0.1,3.9c-0.3,1.3-0.3,1.2-0.3,1.7"/>
	<path class="st0" d="M26.8,1.9c0.7,0.9,0.9,7.5,0.9,7.5"/>
	<path class="st0" d="M5.7,13.3c-0.2,1.4-0.5,3.9-0.7,4.8c-0.3,0.9-0.6,2.8,0,3.8"/>
	<path class="st0" d="M3.6,11.4C3.8,12.8,4,13.7,3.8,15c-0.3,1.2-0.2,1.6-0.2,1.8"/>
	<path class="st0" d="M3.1,19.1c-0.2,0.8-0.3,1.7-0.1,2.3C3.2,22,3.8,23,3.8,23"/>
	<path class="st0" d="M1.4,13.3c0.3,1.2,0.6,3.3,0.2,4.6c-0.4,1.4-0.6,3.1-0.1,4.3"/>
	<path class="st0" d="M6.8,19.7c0,0.9,1.2,3.7,1.6,4.3"/>
	<path class="st0" d="M1.1,24.8c0.3,1.7,0.5,2.2,0,3.7c-0.4,1.5-0.6,2.6-0.2,3.7"/>
	<path class="st0" d="M2.7,23.6c0.3,0.9,0.7,2,0.6,2.9C3.2,27.3,3,27.8,3,27.9"/>
	<path class="st0" d="M2.8,29.1c-0.3,1,0.1,3.4,0.6,4.4"/>
	<path class="st0" d="M4.8,24.6c0.2,1.1,0.4,1.6-0.1,3.2c-0.5,1.6-0.4,2.8-0.1,3.7"/>
	<path class="st0" d="M6.4,23.2c0.3,1.1,0.5,2.3,0.3,3.3"/>
	<path class="st0" d="M6.8,28.3c-0.4,1.1-0.3,3.6,0,4.4"/>
	<path class="st0" d="M8.9,26.1c0,0.9,0.1,1-0.3,2.4c-0.3,1.4-0.8,3.8-0.3,4.7"/>
	<path class="st0" d="M10.9,24.3c0.3,1.2,0.5,2.2,0,3.5c-0.4,1.4-0.8,2.6,0,4.1"/>
	<path class="st0" d="M12.6,23.2c0.3,1.2,0.9,2.1,0.6,3c-0.3,0.9-0.5,1.4-0.6,1.8"/>
	<path class="st0" d="M12.7,29.2c0,0.9,0,2,0.3,2.6"/>
	<path class="st0" d="M14.6,24.2c0.4,1.6,0.8,2.3,0.3,3.7c-0.6,1.4-0.5,4.1-0.3,5.1"/>
	<path class="st0" d="M16.2,23.4c0.5,1,0.7,2.6,0.6,3.3"/>
	<path class="st0" d="M16.6,28.5c-0.3,1-0.2,3.7,0,4.3"/>
	<path class="st0" d="M17.8,24.2c0.5,1.6,0.7,2.2,0.4,3.6c-0.3,1.4-0.7,2.9-0.5,3.7"/>
	<path class="st0" d="M20.1,23.1c0.2,0.9-0.2,2.4-0.2,2.9"/>
	<path class="st0" d="M19.7,27.8c-0.1,0.9,0,0.8-0.3,1.6c-0.2,0.8,0.5,4.8,0.7,5.4"/>
	<path class="st0" d="M21.4,24.6c0.5,2,0.8,2.9,0.5,4c-0.3,1.1-0.4,2.4-0.3,3"/>
	<path class="st0" d="M23.3,24.8c0,0.9,0.1,1.3,0.3,2c0.2,0.7,0.3,1.3,0,2.6c-0.3,1.2,0.1,2.2,0.2,2.7"/>
	<path class="st0" d="M25.4,23.6c0,0.8,0.2,2.3,0.3,2.8"/>
	<path class="st0" d="M25.8,27.6c0,1,0,1.1-0.2,2.1c-0.2,1.1-0.1,3,0,3.4"/>
	<path class="st0" d="M28.8,22.7c0.4,1.3,0.8,2.5,0.7,3.8"/>
	<path class="st0" d="M29.2,28c-0.2,1.3-0.4,2.5-0.3,3.3c0.2,0.8,0.1,2.2,0.1,2.2"/>
	<path class="st0" d="M31.2,24.4c0.1,1.7,0.2,1.8-0.2,3.1c-0.3,1.3-0.2,3.7,0.2,4.7"/>
	<path class="st0" d="M34.2,21.3c0.8,1.3,1.1,4.8,0.7,6.4c-0.3,1.7-0.2,3,0.3,4.1"/>
	<path class="st0" d="M36.1,22.2c0.3,1.1,0.9,3.9,0.8,4.9"/>
	<path class="st0" d="M36.7,28.8c-0.2,1.1,0.2,3.5,0.4,4.2"/>
	<path class="st0" d="M38.6,24.3C39,26,39.2,26.5,39,28c-0.2,1.4-0.3,2.7-0.2,3.3"/>
	<path class="st0" d="M40.3,22.7c0.7,1,0.6,2.3,0.6,3"/>
	<path class="st0" d="M40.9,27.7c-0.2,1-0.8,3.6,0.1,5.3"/>
	<path class="st0" d="M1.4,0.9c0.3,0.9,0,1.9,0,2.7C1.3,4.5,1.1,5,1.1,5.1"/>
	<path class="st0" d="M0.9,6.8c-0.3,1,0.2,3.6,0.7,4.5"/>
	<path class="st0" d="M2.9,1.7C3.1,2.7,3.3,4,2.8,5.5C2.3,7.1,2.4,8.3,2.7,9.2"/>
	<path class="st0" d="M4.5,0.9C4.7,2,4.9,2.7,4.7,3.8"/>
	<path class="st0" d="M4.9,5.7C4.5,6.8,4.7,10.6,5,11.5"/>
	<path class="st0" d="M7,3.8c0,0.9,0.1,1-0.3,2.4c-0.3,1.4-0.1,3.6,0.3,4.5"/>
	<path class="st0" d="M9,1.2c0.3,1.2,0.5,3,0,4.3c-0.4,1.4-0.8,2.6,0,4.1"/>
	<path class="st0" d="M10.6,0.5c0.3,1.2,0.5,1.6,0.2,2.6c-0.3,0.9-0.5,1.4-0.6,1.8"/>
	<path class="st0" d="M10.6,6.1c0,0.9,0.7,4.4,1,5"/>
	<path class="st0" d="M12.7,1.1C13.1,2.7,13.5,3.6,13,5c-0.6,1.4-0.9,2.4-0.7,3.4"/>
	<path class="st0" d="M14.9,2.4c0.5,1,0.3,2.8,0.2,3.5"/>
	<path class="st0" d="M14.1,7.1c-0.3,1-0.5,3.1-0.3,3.7"/>
	<path class="st0" d="M15.9,0.5C16.4,2,16.6,3.6,16.3,5C16,6.4,15.8,9.6,16,10.4"/>
	<path class="st0" d="M18,1.4c0.4,2.1,0,4.2,0,3.7"/>
	<path class="st0" d="M18.4,6.4C18.3,7.3,18,8,17.8,8.8c-0.2,0.8-0.1,2.1,0.1,2.7"/>
	<path class="st0" d="M19.5,0.5c0.5,2,0.8,4.1,0.5,5.2c-0.3,1.1-0.4,2.4-0.3,3"/>
	<path class="st0" d="M21.4,2.8c0,0.9,0.1,1,0.3,1.7c0.2,0.7,0.3,1.3,0,2.6c-0.3,1.2-0.2,3.3-0.1,3.8"/>
	<path class="st0" d="M23.3,0.8c0,0.8-0.4,2.3-0.3,2.8"/>
	<path class="st0" d="M23.4,5.4c0,1,0,1.1-0.2,2.1c-0.2,1.1,0,2,0.1,2.5"/>
	<path class="st0" d="M25,0.3c0.5,1.6,0.1,5.7-0.1,7.1"/>
	<path class="st0" d="M26.3,7.3c-0.2,1.3-0.9,3-0.7,3.8c0.2,0.8,0.3,1.1,0.3,1.1"/>
	<path class="st0" d="M29,0.4c0.1,1.7,0.2,2.8-0.2,4.1c-0.3,1.3-0.6,2.3-0.1,3.3"/>
	<path class="st0" d="M31.2,2.9c0.1,0.9,0.3,1,0.1,1.9c-0.2,0.9-0.4,1.4-0.4,1.7"/>
	<path class="st0" d="M33.2,1c0.3,1.3,0.4,2.2,0.1,3.8c-0.3,1.7-0.5,4.3-0.1,5.4"/>
	<path class="st0" d="M35.3,0.3c0.3,1.1,0.2,3.3,0.1,4.3"/>
	<path class="st0" d="M34.8,6.5c-0.2,1.1,0.2,4.2,0.4,5"/>
	<path class="st0" d="M36.8,2.5c0.4,1.7,0.6,1.7,0.4,3.2C37,7.1,36.9,8.4,37.1,9"/>
	<path class="st0" d="M39,0.4c0.2,1.1,0.2,2.2,0.2,3"/>
	<path class="st0" d="M39.2,5.4c-0.2,1-0.9,3.4-0.1,5.1"/>
	<path class="st0" d="M40.7,0.7c0.3,1.4,0.2,3.6,0,4.7c-0.2,1.2-0.3,2.6,0.1,3.7"/>
	<path class="st0" d="M1.8,33.8c0.3,1.3,0.4,2.2,0.3,3"/>
	<path class="st0" d="M1.5,38c-0.3,1.1-0.9,2.9-0.6,3.6"/>
	<path class="st0" d="M3.6,34.8c0.2,1.2-0.1,2-0.3,3.1c-0.2,1.1-0.3,2.7,0,3.6"/>
	<path class="st0" d="M5.6,32.4c0.2,0.9-0.4,6.5-0.8,7.8"/>
	<path class="st0" d="M7.2,35.5c0,1.2-0.1,0.9-0.3,2c-0.3,1.3-0.5,3-0.5,4.4"/>
	<path class="st0" d="M11.2,34.8c0.1,1.5,0.3,1.8-0.3,3.1c-0.5,1.3-0.6,1.5-0.4,2.4"/>
	<path class="st0" d="M12.7,33.1c0.3,0.8,0.9,2.4,0.8,3.1"/>
	<path class="st0" d="M12.7,37.4c-0.3,0.8-0.8,2.6-0.7,3.9"/>
	<path class="st0" d="M14.6,34.7c0.4,1.6,0.5,2.2,0,3.4c-0.4,0.9-0.3,2.7-0.3,3.8"/>
	<path class="st0" d="M18.2,33.4c0.4,1.6,0.5,3.3,0.2,4.3c-0.4,1-0.6,2.9-0.4,3.9"/>
	<path class="st0" d="M20.2,36.2c-0.1,0.7-0.9,3.5-0.7,4.1"/>
	<path class="st0" d="M21.6,32.9c0.4,1.4,0.3,3-0.1,4.1c-0.3,1-0.4,3.4-0.4,4.9"/>
	<path class="st0" d="M24.8,34.5c0.4,1.2,0.4,2,0,3.2c-0.3,1.3-0.6,1.6-0.3,2.5"/>
	<path class="st0" d="M27.1,33.4c0.2,0.8-0.2,2-0.2,2.6"/>
	<path class="st0" d="M27,37c-0.3,0.9-1,3.3-0.8,3.9"/>
	<path class="st0" d="M28.3,34.6c0.3,1.8,0.4,2.6-0.1,3.7c-0.5,1.1-0.7,2.5-0.4,3.4"/>
	<path class="st0" d="M32.3,34.3c0.6,1.6,0.4,2.3-0.4,3.7c-0.5,0.9-0.6,2.7-0.6,3.9"/>
	<path class="st0" d="M33.4,32.4c0.6,0.6,0.9,3.1,0.8,3.6"/>
	<path class="st0" d="M33.6,37.6c0,1.1-0.6,3.1-0.8,3.9"/>
	<path class="st0" d="M35.6,34.1c0.1,0.8-0.3,0.6,0.1,1.9c0.3,1.3,0.1,1.8-0.3,2.7c-0.3,0.9-0.1,1.7-0.1,2.2"/>
	<path class="st0" d="M6.4,0c0,1,0.1,1.5,0.4,1.8"/>
	<path class="st0" d="M14.3,0c0,0.4,0,0.7-0.1,0.9"/>
	<path class="st0" d="M21.1,0c0,0.7,0,1.5,0.1,1.5"/>
	<path class="st0" d="M31.3,0c0,0.7,0.1,1.6,0.1,1.7"/>
	<path class="st0" d="M37.4,0c0,0.4,0,1.1,0,1.3"/>
	<path class="st0" d="M37.6,34.6c0.2,0.9,0.5,2,0.2,3c-0.2,0.8-0.4,3-0.4,4.3"/>
	<path class="st0" d="M41.4,34.3c0.1,1,0.1,1.2-0.1,2.3c-0.3,1-0.5,3.6-0.2,4.6"/>
	<path class="st0" d="M27.2,24.3c0.1,1.5,0.5,1.8,0.3,3.7c-0.3,1.9-0.5,2.8-0.3,3.6"/>
	<path class="st0" d="M29.5,9c0,1.1,0.2,2.9,0.4,3.5"/>
	<path class="st0" d="M30.3,33.5c0.2,1.1,0.4,1.6-0.1,3.2c-0.4,1.2-0.9,2.7-0.5,3.9"/>
	<path class="st0" d="M33.1,24c0.2,1.1,0.4,1.6-0.1,3.2c-0.5,1.6-0.4,2.8-0.1,3.7"/>
	<path class="st0" d="M23.5,33.6c0.2,1.1,0.2,2.1-0.3,3.7c-0.5,1.6-0.7,3.1-0.4,3.9"/>
	<path class="st0" d="M16.2,34.2c0.2,1.1,0.5,1.7,0,3.3c-0.5,1.6-0.5,2.3-0.3,3.2"/>
	<path class="st0" d="M9.8,32.6c0.2,1.1-0.3,3.1-0.8,4.7c-0.5,1.6-0.5,3.5-0.2,4.3"/>
	<path class="st0" d="M39.4,33.2c0.2,1.1,0.8,2.5,0.3,4.1c-0.5,1.6-0.4,2.4-0.1,3.3"/>
	<rect x="0" y="0" class="st1" width="41.9" height="41.9"/>
</g>
</svg>
