<?xml version="1.0" encoding="utf-8"?>
<!-- Generator: Adobe Illustrator 23.0.1, SVG Export Plug-In . SVG Version: 6.00 Build 0)  -->
<svg version="1.1" id="Layer_1" xmlns="http://www.w3.org/2000/svg" xmlns:xlink="http://www.w3.org/1999/xlink" x="0px" y="0px"
	 viewBox="0 0 52.7 52.7" style="enable-background:new 0 0 52.7 52.7;" xml:space="preserve">
<style type="text/css">
	.st0{clip-path:url(#SVGID_1_);fill:none;stroke:#000000;stroke-width:0.3;}
</style>
<g>
	<defs>
		<rect id="SVGID_3_" x="0" y="0" width="52.8" height="52.8"/>
	</defs>
	<clipPath id="SVGID_1_">
		<use xlink:href="#SVGID_3_"  style="overflow:visible;"/>
	</clipPath>
	<path class="st0" d="M0,11.3c1.9-2.7,3.4-3.3,5.4-3.6c2.2-0.4,2.1-2.3,3-3.9s2-1.9,3.4-2.5C12.5,1,12.9,0.5,13.2,0"/>
	<path class="st0" d="M0,14.1c0.3-0.5,0.6-0.9,0.7-1.3C1.5,11.5,4.2,10,6,9.5s2.5-1.1,3.7-3.1s2-2.8,3.5-3.3C14.5,2.7,15,1.7,15.8,0
		"/>
	<path class="st0" d="M0,16.7c1-1,1.8-2,2.2-2.9c0.9-1.6,1.4-1.5,3.5-2.4s3.7-1.9,4.4-3.1s2.1-2.5,3.8-3.6c1.4-1,2.8-2.6,3.9-4.7"/>
	<path class="st0" d="M0,27.8c1-1.6,3.2-4,5-4.9c2-1,3.1-2.6,4-4.6s3.6-4.3,6.1-5.5s3.8-4.4,4.6-5.9s5.1-3.5,6.8-4.4
		C27.7,2,28.1,0.9,28.3,0"/>
	<path class="st0" d="M0,30.6c0.9-1.1,1.7-2.2,2.1-3.1c0.9-1.6,3-2.9,5-4.4s2.7-3.8,3.4-4.8s3.4-3.3,5.6-4.4s4.1-4.8,4.9-6
		s3.1-2.6,5.6-3.6c1.9-0.8,2.8-2.7,3.3-4.3"/>
	<path class="st0" d="M0,43.2c1.6-0.9,3.3-1.7,4.4-2.5c1.4-0.9,3.6-3.3,4.1-4.9s3.4-3.1,4.8-3.6c1.9-0.7,3.4-3.5,3.9-4.9
		s2.4-3.3,5-4.3s5.3-5.6,6-7.1s3.9-3.8,5.6-4.4c1.8-0.6,3.4-3.5,3.9-4.9s2.3-3.5,4-4.3c1.2-0.5,1.9-1.6,2.2-2.5"/>
	<path class="st0" d="M0,45.1c1.4-1.1,3.5-2.6,4.9-2.7c2.7-0.3,3.7-2.5,4.4-4.4s2.5-2.8,3.8-3.5c1.7-1,3.9-2.6,5.2-6.3
		c1.1-3.2,4.6-3.4,7.3-5.8c1.9-1.6,2.7-3.6,4.2-5.9c1.5-2.3,3.7-3.2,5.7-4.2s3.4-4.6,4.1-6.1s1.8-1.5,3.3-2.5
		C44.1,2.9,45.5,1.6,46,0"/>
	<path class="st0" d="M0,47.6c1.6-1.2,4.3-3.6,7-4.2c3.1-0.7,3.9-3.3,4.5-4.9s2-1.8,4.1-2.6s3.4-4.9,3.9-5.9
		c0.9-1.8,1.3-1.6,2.9-2.6s2.3-1.4,3.1-2.7s2.1-2.5,3.3-3.4s1.3-1.6,2.1-3.1s4.8-3.4,6.2-4.6s2.2-2,2.7-4.3s3.4-3.4,5.3-4.6
		c1.5-1,2.8-2.7,3.2-4.6"/>
	<path class="st0" d="M0,49.4c1.7-1.2,6.3-3.5,9-4.9c2.1-1.1,3.6-3.2,4-4.6s0.6-1,1.3-1.5s0.8-0.6,1.8-1.6s2.6-1.6,3.9-3
		c0.8-0.9,0.8-2.3,1.3-3.3s1.1-1.1,2.8-2.2s2.5-2.6,3.4-3.9s2.1-2.1,3.5-3c1.4-0.9,1.5-2.1,2.3-3.3s3.9-2.3,5.3-3.1s2.5-2.7,2.9-4.9
		s2.3-2.8,3.6-3.3s1.6-1,3.3-2.4c1.4-1.2,2.2-2.9,2.4-4.4"/>
	<path class="st0" d="M0,33.6c1.1-1,1.8-2.3,2.4-4c0.8-2.1,2.6-3,5.1-4.4s3.5-3.6,4.5-5.6s2.3-2.8,4.8-3.6s3.8-3.6,4.8-5.8
		s2.6-2.6,5.6-3.9c2.5-1,3.9-4.2,4.7-6.3"/>
	<path class="st0" d="M52.7,11.3c-0.2,0.2-0.3,0.5-0.5,0.7c-1,1.6-1.9,3.5-4.5,4.3c-0.8,0.3,0,0-1,0.4c-1,0.4-2.8,2.3-3.6,4
		s-2,2.8-5.1,4.1s-3.1,2.8-3.9,4.5s-2.8,3-4.3,3.8S27,35,26.5,36.6s-2.1,3.1-4.6,5s-4.3,3.4-5.8,4.9l-2.4,5
		c-0.2,0.5-0.4,0.9-0.6,1.3"/>
	<path class="st0" d="M52.7,33.6c-0.3,0.3-0.6,0.5-1,0.7c0,0-0.7,0.5-1.7,1.2s-2.3,0.4-3.2,1.8s-2.1,2.8-3.1,3.1s-2.3,0.9-3.6,2.3
		s-1.8,1.9-3.6,3.5s-3.4,3.1-3.7,3.8s-0.6,1.8-0.6,1.8c-0.1,0.3-0.3,0.7-0.4,1.2"/>
	<path class="st0" d="M52.7,14.1c-0.9,1.4-2.3,3-4.7,3.6l-2.1,1.1c-1,1-1.4,3.5-3.3,4.9S37.1,27,35.7,29s-1.8,4.9-4.1,5.6
		s-3,1.5-4.1,3.5s-2.3,3.5-4.8,5.3s-5.4,6-6.5,8.4c-0.2,0.4-0.3,0.7-0.5,1"/>
	<path class="st0" d="M52.7,16.7c-0.9,0.9-1.8,1.6-2.7,2l-2.6,1.9c-0.9,1.1-3.3,4.8-5.1,5.6s-4.3,1.8-5,3.1s-3.5,6.1-5.6,7.1
		s-3.3,2.9-4.3,4.4s-0.9,3.3-3.1,4.3s-4.8,3.9-5.9,6.5c-0.2,0.4-0.4,0.8-0.6,1.2"/>
	<path class="st0" d="M28.3,52.7c0.1-0.4,0.1-0.7,0.2-1c0.3-1.1,0.6-4.2,1.5-5.4s3.6-2.4,5.1-3.1s3.4-3.5,4.2-4.8s3.2-2.1,4.4-3.3
		s1.2-1.4,1.8-2.3l1.8-0.9c1.9-0.5,4.4-2.1,5.1-3.8c0.1-0.1,0.1-0.3,0.2-0.4"/>
	<path class="st0" d="M29.9,52.7c0.1-0.5,0.2-0.9,0.3-1.3c0.4-1.6,1.3-3.1,2.2-4.1c0.9-1,3-2.5,4.3-3.6s2.9-2.6,3.8-3.9
		s1.4-1.1,2.8-1.7s1.6-1.3,2.3-2.2s1.8-1.4,3.1-2.1l1.7-0.9c0.8-0.5,1.7-1.4,2.5-2.4"/>
	<path class="st0" d="M43.8,52.7c0.2-0.4,0.2-0.8,0.3-1c0,0,0.4-3.3,1.1-4.1s1.2-1.2,3.3-2.2s2.9-1.4,2.9-1.4l0.6-0.4
		c0.3-0.2,0.6-0.3,0.9-0.5"/>
	<path class="st0" d="M46,52.7c0.1-0.4,0.2-0.7,0.3-1.1c0,0,0.8-2.3,1.6-3s2.7-1.9,3.8-2.8c0.3-0.2,0.6-0.5,1.1-0.8"/>
	<path class="st0" d="M48.4,52.7c0.1-0.4,0.1-0.7,0.1-1.1c0,0,0.4-1.3,1.5-2.2s0.3-0.3,2.2-1.5c0.2-0.1,0.4-0.2,0.6-0.4"/>
	<path class="st0" d="M52.7,49.4c-0.2,0.1-0.3,0.2-0.4,0.3c-1.3,1.1-0.7,0.5-1.1,1s-0.6,1.4-0.6,1.4c0,0.2,0,0.4-0.1,0.7"/>
	<line class="st0" x1="3.4" y1="2.3" x2="1.1" y2="1.6"/>
	<line class="st0" x1="1.9" y1="5.5" x2="1.1" y2="7.6"/>
	<line class="st0" x1="16.7" y1="4.1" x2="14.7" y2="4.8"/>
	<line class="st0" x1="18.9" y1="7.2" x2="18.5" y2="5.3"/>
	<line class="st0" x1="46.8" y1="23.6" x2="47.2" y2="25.5"/>
	<line class="st0" x1="20.9" y1="1" x2="19.7" y2="3.7"/>
	<line class="st0" x1="51.4" y1="23.7" x2="49.6" y2="24.9"/>
	<line class="st0" x1="11.8" y1="8.2" x2="14.1" y2="9.3"/>
	<line class="st0" x1="16.1" y1="8.1" x2="16" y2="10.3"/>
	<line class="st0" x1="45.6" y1="41.5" x2="47.5" y2="40.2"/>
	<line class="st0" x1="49.4" y1="41.3" x2="49.8" y2="43.2"/>
	<line class="st0" x1="12.3" y1="12.5" x2="10.4" y2="13.3"/>
	<line class="st0" x1="6.7" y1="1.9" x2="8.6" y2="1.1"/>
	<line class="st0" x1="9.2" y1="10.8" x2="8.4" y2="12.8"/>
	<line class="st0" x1="3.9" y1="13.8" x2="6.3" y2="13.8"/>
	<line class="st0" x1="4.5" y1="17.8" x2="6" y2="16.3"/>
	<line class="st0" x1="4.5" y1="32.2" x2="3" y2="33.7"/>
	<line class="st0" x1="8.4" y1="15.1" x2="8.4" y2="17.2"/>
	<line class="st0" x1="24.6" y1="36.6" x2="22.6" y2="37.5"/>
	<line class="st0" x1="21.4" y1="34.9" x2="20.7" y2="36.9"/>
	<line class="st0" x1="18.6" y1="37.9" x2="16.1" y2="38"/>
	<line class="st0" x1="18.2" y1="40.5" x2="16.7" y2="42"/>
	<line class="st0" x1="20.6" y1="39.2" x2="20.6" y2="41.3"/>
	<line class="st0" x1="5.2" y1="3.8" x2="5.2" y2="6"/>
	<line class="st0" x1="2" y1="18.6" x2="1.9" y2="16.4"/>
	<line class="st0" x1="5.4" y1="21" x2="3.5" y2="20.2"/>
	<line class="st0" x1="1.4" y1="24.3" x2="0.7" y2="21.8"/>
	<line class="st0" x1="40.2" y1="2.2" x2="38.2" y2="1.1"/>
	<line class="st0" x1="35.4" y1="1.1" x2="33.2" y2="1.7"/>
	<line class="st0" x1="35.2" y1="5.3" x2="35.7" y2="3.6"/>
	<line class="st0" x1="36.1" y1="7.2" x2="33.8" y2="7.5"/>
	<line class="st0" x1="31.5" y1="4.4" x2="31.6" y2="6.6"/>
	<line class="st0" x1="31.9" y1="11" x2="31.5" y2="8.6"/>
	<line class="st0" x1="29.1" y1="8.7" x2="26.7" y2="7.8"/>
	<line class="st0" x1="24.7" y1="9.6" x2="23.1" y2="10.8"/>
	<line class="st0" x1="26.5" y1="13.6" x2="24.2" y2="13.4"/>
	<line class="st0" x1="25.8" y1="18" x2="25.3" y2="15.8"/>
	<line class="st0" x1="20.3" y1="14.6" x2="21.8" y2="16.3"/>
	<line class="st0" x1="21.6" y1="18.4" x2="19.5" y2="19.7"/>
	<line class="st0" x1="22.9" y1="21.6" x2="21.2" y2="21"/>
	<line class="st0" x1="17.6" y1="25.1" x2="17.4" y2="22.4"/>
	<line class="st0" x1="12.6" y1="21.8" x2="15" y2="21.1"/>
	<line class="st0" x1="46.4" y1="43.3" x2="46" y2="45.5"/>
	<line class="st0" x1="41.9" y1="46.7" x2="44.4" y2="46.7"/>
	<line class="st0" x1="37.9" y1="47.4" x2="39.4" y2="45.1"/>
	<line class="st0" x1="42.8" y1="49.2" x2="41.4" y2="51"/>
	<line class="st0" x1="38.9" y1="51.7" x2="38.7" y2="49.4"/>
	<line class="st0" x1="36.2" y1="51.7" x2="35.1" y2="49.6"/>
	<line class="st0" x1="12.7" y1="25.6" x2="14.7" y2="26.7"/>
	<line class="st0" x1="10.9" y1="27.4" x2="9.5" y2="25.6"/>
	<line class="st0" x1="3.9" y1="52.3" x2="2.6" y2="50.5"/>
	<line class="st0" x1="13.2" y1="29.7" x2="10.9" y2="30.5"/>
	<line class="st0" x1="7.6" y1="32.1" x2="7.6" y2="29.9"/>
	<line class="st0" x1="4.9" y1="34.4" x2="7.6" y2="34.6"/>
	<line class="st0" x1="3.7" y1="29.7" x2="5.6" y2="28.7"/>
	<line class="st0" x1="5.1" y1="38.8" x2="3.7" y2="36.6"/>
	<line class="st0" x1="11.9" y1="50.2" x2="9.7" y2="48.5"/>
	<line class="st0" x1="11.3" y1="45.9" x2="9.3" y2="45.6"/>
	<line class="st0" x1="7.5" y1="49.7" x2="6.4" y2="52.2"/>
	<line class="st0" x1="0.9" y1="37.1" x2="1.1" y2="35.2"/>
	<line class="st0" x1="2.3" y1="39.7" x2="0.6" y2="40.8"/>
	<line class="st0" x1="49.8" y1="4" x2="52.3" y2="4.9"/>
	<line class="st0" x1="48.5" y1="6.5" x2="47.6" y2="8.8"/>
	<line class="st0" x1="51" y1="10.1" x2="48.7" y2="9.9"/>
	<line class="st0" x1="48.4" y1="14.2" x2="47.9" y2="12"/>
	<line class="st0" x1="43.7" y1="9.2" x2="45.6" y2="10.1"/>
	<line class="st0" x1="46.7" y1="15.5" x2="44.2" y2="15.5"/>
	<line class="st0" x1="44.9" y1="12.5" x2="42.2" y2="13.3"/>
	<line class="st0" x1="40.7" y1="20.5" x2="39.3" y2="22.2"/>
	<line class="st0" x1="41.4" y1="18.3" x2="41.2" y2="15.6"/>
	<line class="st0" x1="36.2" y1="18.2" x2="38.7" y2="17.6"/>
	<line class="st0" x1="37.1" y1="21.6" x2="35.1" y2="20.4"/>
	<line class="st0" x1="35" y1="24.7" x2="33.6" y2="22.9"/>
	<line class="st0" x1="42.4" y1="42.1" x2="43.8" y2="44"/>
	<line class="st0" x1="14" y1="44" x2="12.6" y2="42.1"/>
	<line class="st0" x1="33.4" y1="27.9" x2="31.2" y2="28.7"/>
	<line class="st0" x1="30.4" y1="25.2" x2="30.5" y2="23.1"/>
	<line class="st0" x1="30.6" y1="30.9" x2="27.8" y2="30.6"/>
	<line class="st0" x1="26.5" y1="28.6" x2="28.4" y2="27.7"/>
	<line class="st0" x1="26.8" y1="33.8" x2="25.4" y2="31.7"/>
	<line class="st0" x1="22.7" y1="30.7" x2="22.6" y2="32.6"/>
	<line class="st0" x1="42.9" y1="27" x2="45.4" y2="27.4"/>
	<line class="st0" x1="46.9" y1="28.2" x2="46.4" y2="30.7"/>
	<line class="st0" x1="50.6" y1="27.6" x2="48.7" y2="27.8"/>
	<line class="st0" x1="37.5" y1="35.6" x2="36.9" y2="38.5"/>
	<line class="st0" x1="50" y1="20.1" x2="51.7" y2="21.2"/>
	<line class="st0" x1="43.6" y1="29.8" x2="42" y2="31.8"/>
	<line class="st0" x1="14.9" y1="46.3" x2="13.2" y2="48.2"/>
	<line class="st0" x1="39.8" y1="31.6" x2="40" y2="29.3"/>
	<line class="st0" x1="39.1" y1="34.4" x2="41.5" y2="35"/>
	<line class="st0" x1="23.5" y1="47.1" x2="26.2" y2="46.6"/>
	<line class="st0" x1="26" y1="51.3" x2="26.6" y2="48.8"/>
	<line class="st0" x1="36" y1="33.3" x2="37.9" y2="33.1"/>
	<line class="st0" x1="28.1" y1="45" x2="28.7" y2="42.1"/>
	<line class="st0" x1="33.1" y1="42.9" x2="31.1" y2="41.2"/>
	<line class="st0" x1="6.2" y1="47.3" x2="4.6" y2="49.3"/>
	<line class="st0" x1="22.6" y1="51.5" x2="21.5" y2="49.3"/>
	<line class="st0" x1="31.4" y1="38.8" x2="33.7" y2="39.4"/>
	<line class="st0" x1="50.5" y1="37.3" x2="50.9" y2="39.2"/>
	<line class="st0" x1="16.9" y1="17.4" x2="16.9" y2="19.5"/>
	<line class="st0" x1="28.9" y1="10.8" x2="28.4" y2="12.5"/>
	<line class="st0" x1="23.9" y1="0.7" x2="25.3" y2="2.5"/>
</g>
</svg>
