<?xml version="1.0" encoding="utf-8"?>
<!-- Generator: Adobe Illustrator 23.0.1, SVG Export Plug-In . SVG Version: 6.00 Build 0)  -->
<svg version="1.1" id="Layer_1" xmlns="http://www.w3.org/2000/svg" xmlns:xlink="http://www.w3.org/1999/xlink" x="0px" y="0px"
	 viewBox="0 0 80.6 80.5" style="enable-background:new 0 0 80.6 80.5;" xml:space="preserve">
<style type="text/css">
	.st0{fill:none;stroke:#000000;stroke-width:0.6;stroke-linecap:round;}
	.st1{fill:none;stroke:#000000;stroke-width:0.3;}
</style>
<g>
	<line class="st0" x1="7.4" y1="10" x2="7.4" y2="10"/>
	<line class="st0" x1="7.4" y1="13.3" x2="7.4" y2="13.3"/>
	<line class="st0" x1="2.7" y1="13.4" x2="2.7" y2="13.4"/>
	<line class="st0" x1="11.4" y1="13" x2="11.4" y2="13"/>
	<line class="st0" x1="14.1" y1="14.8" x2="14.1" y2="14.8"/>
	<line class="st0" x1="17.5" y1="15.5" x2="17.5" y2="15.5"/>
	<line class="st0" x1="24" y1="7" x2="24" y2="7"/>
	<line class="st0" x1="21" y1="12.7" x2="21" y2="12.7"/>
	<line class="st0" x1="14.5" y1="18.1" x2="14.5" y2="18.1"/>
	<line class="st0" x1="16.6" y1="12.1" x2="16.6" y2="12.1"/>
	<line class="st0" x1="17.1" y1="6.3" x2="17.1" y2="6.3"/>
	<line class="st0" x1="20.6" y1="8.7" x2="20.6" y2="8.7"/>
	<line class="st0" x1="24.2" y1="10.1" x2="24.2" y2="10.1"/>
	<line class="st0" x1="20.2" y1="3.7" x2="20.2" y2="3.7"/>
	<line class="st0" x1="12" y1="8.9" x2="12" y2="8.9"/>
	<line class="st0" x1="5.2" y1="7.1" x2="5.2" y2="7.1"/>
	<line class="st0" x1="6.6" y1="2.5" x2="6.6" y2="2.5"/>
	<line class="st0" x1="13.2" y1="0.8" x2="13.2" y2="0.8"/>
	<line class="st0" x1="16.5" y1="2.6" x2="16.5" y2="2.6"/>
	<line class="st0" x1="2.7" y1="3.3" x2="2.7" y2="3.3"/>
	<line class="st0" x1="1.2" y1="7.5" x2="1.2" y2="7.5"/>
	<line class="st0" x1="14" y1="5" x2="14" y2="5"/>
	<line class="st0" x1="8.7" y1="6.5" x2="8.7" y2="6.5"/>
	<line class="st0" x1="7.4" y1="27.7" x2="7.4" y2="27.7"/>
	<line class="st0" x1="3.6" y1="28" x2="3.6" y2="28"/>
	<line class="st0" x1="7.4" y1="31" x2="7.4" y2="31"/>
	<line class="st0" x1="2.7" y1="31.1" x2="2.7" y2="31.1"/>
	<line class="st0" x1="12.7" y1="30.1" x2="12.7" y2="30.1"/>
	<line class="st0" x1="14.7" y1="32.7" x2="14.7" y2="32.7"/>
	<line class="st0" x1="10" y1="33.8" x2="10" y2="33.8"/>
	<line class="st0" x1="5" y1="34.1" x2="5" y2="34.1"/>
	<line class="st0" x1="7.2" y1="36.8" x2="7.2" y2="36.8"/>
	<line class="st0" x1="11.1" y1="38.2" x2="11.1" y2="38.2"/>
	<line class="st0" x1="17.7" y1="33.1" x2="17.7" y2="33.1"/>
	<line class="st0" x1="12.8" y1="36" x2="12.8" y2="36"/>
	<line class="st0" x1="16.6" y1="29" x2="16.6" y2="29"/>
	<line class="st0" x1="16.4" y1="26.5" x2="16.4" y2="26.5"/>
	<line class="st0" x1="20.6" y1="26.4" x2="20.6" y2="26.4"/>
	<line class="st0" x1="20.2" y1="21.4" x2="20.2" y2="21.4"/>
	<line class="st0" x1="19.9" y1="17" x2="19.9" y2="17"/>
	<line class="st0" x1="12" y1="26.6" x2="12" y2="26.6"/>
	<line class="st0" x1="5.2" y1="24.8" x2="5.2" y2="24.8"/>
	<line class="st0" x1="4.6" y1="16.5" x2="4.6" y2="16.5"/>
	<line class="st0" x1="6.6" y1="20.2" x2="6.6" y2="20.2"/>
	<line class="st0" x1="10.6" y1="20.5" x2="10.6" y2="20.5"/>
	<line class="st0" x1="16.5" y1="20.4" x2="16.5" y2="20.4"/>
	<line class="st0" x1="3" y1="20" x2="3" y2="20"/>
	<line class="st0" x1="1.2" y1="25.2" x2="1.2" y2="25.2"/>
	<line class="st0" x1="14" y1="22.7" x2="14" y2="22.7"/>
	<line class="st0" x1="8.7" y1="24.2" x2="8.7" y2="24.2"/>
	<line class="st0" x1="34.2" y1="10" x2="34.2" y2="10"/>
	<line class="st0" x1="34.1" y1="13.3" x2="34.1" y2="13.3"/>
	<line class="st0" x1="29.5" y1="13.4" x2="29.5" y2="13.4"/>
	<line class="st0" x1="26" y1="13.2" x2="26" y2="13.2"/>
	<line class="st0" x1="27.6" y1="16.6" x2="27.6" y2="16.6"/>
	<line class="st0" x1="23.3" y1="19.8" x2="23.3" y2="19.8"/>
	<line class="st0" x1="23.1" y1="23.2" x2="23.1" y2="23.2"/>
	<line class="st0" x1="24.5" y1="26.6" x2="24.5" y2="26.6"/>
	<line class="st0" x1="26.2" y1="21.6" x2="26.2" y2="21.6"/>
	<line class="st0" x1="38.2" y1="13" x2="38.2" y2="13"/>
	<line class="st0" x1="40.9" y1="14.8" x2="40.9" y2="14.8"/>
	<line class="st0" x1="44.7" y1="15.3" x2="44.7" y2="15.3"/>
	<line class="st0" x1="41.2" y1="18.1" x2="41.2" y2="18.1"/>
	<line class="st0" x1="43.4" y1="12.1" x2="43.4" y2="12.1"/>
	<line class="st0" x1="43" y1="6.3" x2="43" y2="6.3"/>
	<line class="st0" x1="47.3" y1="10.3" x2="47.3" y2="10.3"/>
	<line class="st0" x1="46.7" y1="7" x2="46.7" y2="7"/>
	<line class="st0" x1="47" y1="3.7" x2="47" y2="3.7"/>
	<line class="st0" x1="38.7" y1="8.9" x2="38.7" y2="8.9"/>
	<line class="st0" x1="32" y1="7.1" x2="32" y2="7.1"/>
	<line class="st0" x1="33.4" y1="2.5" x2="33.4" y2="2.5"/>
	<line class="st0" x1="39.9" y1="0.8" x2="39.9" y2="0.8"/>
	<line class="st0" x1="43.2" y1="2.6" x2="43.2" y2="2.6"/>
	<line class="st0" x1="50.5" y1="79.3" x2="50.5" y2="79.3"/>
	<line class="st0" x1="29.4" y1="3.3" x2="29.4" y2="3.3"/>
	<line class="st0" x1="26.1" y1="4.3" x2="26.1" y2="4.3"/>
	<line class="st0" x1="25.2" y1="0.7" x2="25.2" y2="0.7"/>
	<line class="st0" x1="27.9" y1="7.5" x2="27.9" y2="7.5"/>
	<line class="st0" x1="39.3" y1="4" x2="39.3" y2="4"/>
	<line class="st0" x1="35.5" y1="6.5" x2="35.5" y2="6.5"/>
	<line class="st0" x1="34.2" y1="27.7" x2="34.2" y2="27.7"/>
	<line class="st0" x1="30.2" y1="27.1" x2="30.2" y2="27.1"/>
	<line class="st0" x1="26.6" y1="28.2" x2="26.6" y2="28.2"/>
	<line class="st0" x1="19.7" y1="30.9" x2="19.7" y2="30.9"/>
	<line class="st0" x1="34.1" y1="31" x2="34.1" y2="31"/>
	<line class="st0" x1="26.1" y1="32.1" x2="26.1" y2="32.1"/>
	<line class="st0" x1="25.3" y1="35.5" x2="25.3" y2="35.5"/>
	<line class="st0" x1="20.3" y1="36.3" x2="20.3" y2="36.3"/>
	<line class="st0" x1="22" y1="39" x2="22" y2="39"/>
	<line class="st0" x1="56" y1="33.6" x2="56" y2="33.6"/>
	<line class="st0" x1="52.5" y1="36" x2="52.5" y2="36"/>
	<line class="st0" x1="60.8" y1="35.8" x2="60.8" y2="35.8"/>
	<line class="st0" x1="78.4" y1="37.5" x2="78.4" y2="37.5"/>
	<line class="st0" x1="21.9" y1="33.2" x2="21.9" y2="33.2"/>
	<line class="st0" x1="30.1" y1="30.5" x2="30.1" y2="30.5"/>
	<line class="st0" x1="40.7" y1="29.2" x2="40.7" y2="29.2"/>
	<line class="st0" x1="40.9" y1="32.5" x2="40.9" y2="32.5"/>
	<line class="st0" x1="36.7" y1="33.8" x2="36.7" y2="33.8"/>
	<line class="st0" x1="31.2" y1="34" x2="31.2" y2="34"/>
	<line class="st0" x1="34" y1="36.8" x2="34" y2="36.8"/>
	<line class="st0" x1="37.9" y1="38.2" x2="37.9" y2="38.2"/>
	<line class="st0" x1="44.7" y1="34.6" x2="44.7" y2="34.6"/>
	<line class="st0" x1="39.8" y1="36" x2="39.8" y2="36"/>
	<line class="st0" x1="44" y1="30.7" x2="44" y2="30.7"/>
	<line class="st0" x1="43.1" y1="26.5" x2="43.1" y2="26.5"/>
	<line class="st0" x1="46.1" y1="29.1" x2="46.1" y2="29.1"/>
	<line class="st0" x1="49.1" y1="26.6" x2="49.1" y2="26.6"/>
	<line class="st0" x1="51.9" y1="24.1" x2="51.9" y2="24.1"/>
	<line class="st0" x1="52.4" y1="27.6" x2="52.4" y2="27.6"/>
	<line class="st0" x1="55.1" y1="26" x2="55.1" y2="26"/>
	<line class="st0" x1="55.7" y1="29.7" x2="55.7" y2="29.7"/>
	<line class="st0" x1="58.6" y1="30.5" x2="58.6" y2="30.5"/>
	<line class="st0" x1="53" y1="31.2" x2="53" y2="31.2"/>
	<line class="st0" x1="49.6" y1="33.8" x2="49.6" y2="33.8"/>
	<line class="st0" x1="54.2" y1="21.2" x2="54.2" y2="21.2"/>
	<line class="st0" x1="46.7" y1="20.5" x2="46.7" y2="20.5"/>
	<line class="st0" x1="46.6" y1="17" x2="46.6" y2="17"/>
	<line class="st0" x1="38.7" y1="26.6" x2="38.7" y2="26.6"/>
	<line class="st0" x1="32.8" y1="25" x2="32.8" y2="25"/>
	<line class="st0" x1="47" y1="36.6" x2="47" y2="36.6"/>
	<line class="st0" x1="31.9" y1="16.6" x2="31.9" y2="16.6"/>
	<line class="st0" x1="33.4" y1="20.2" x2="33.4" y2="20.2"/>
	<line class="st0" x1="37.4" y1="20.5" x2="37.4" y2="20.5"/>
	<line class="st0" x1="43.2" y1="20.4" x2="43.2" y2="20.4"/>
	<line class="st0" x1="29.2" y1="20.1" x2="29.2" y2="20.1"/>
	<line class="st0" x1="26.8" y1="25.1" x2="26.8" y2="25.1"/>
	<line class="st0" x1="40.7" y1="22.7" x2="40.7" y2="22.7"/>
	<line class="st0" x1="36.3" y1="24" x2="36.3" y2="24"/>
	<line class="st0" x1="79.9" y1="11.4" x2="79.9" y2="11.4"/>
	<line class="st0" x1="79.9" y1="29.1" x2="79.9" y2="29.1"/>
	<line class="st0" x1="79.6" y1="18" x2="79.6" y2="18"/>
	<line class="st0" x1="72.1" y1="9.5" x2="72.1" y2="9.5"/>
	<line class="st0" x1="72.1" y1="12.8" x2="72.1" y2="12.8"/>
	<line class="st0" x1="75.6" y1="10.1" x2="75.6" y2="10.1"/>
	<line class="st0" x1="76.7" y1="12.8" x2="76.7" y2="12.8"/>
	<line class="st0" x1="68.1" y1="12.4" x2="68.1" y2="12.4"/>
	<line class="st0" x1="65.4" y1="14.3" x2="65.4" y2="14.3"/>
	<line class="st0" x1="60" y1="13" x2="60" y2="13"/>
	<line class="st0" x1="64" y1="8.3" x2="64" y2="8.3"/>
	<line class="st0" x1="62.9" y1="11.5" x2="62.9" y2="11.5"/>
	<line class="st0" x1="62.4" y1="5.8" x2="62.4" y2="5.8"/>
	<line class="st0" x1="58.7" y1="7" x2="58.7" y2="7"/>
	<line class="st0" x1="59.2" y1="3.1" x2="59.2" y2="3.1"/>
	<line class="st0" x1="55.5" y1="1.3" x2="55.5" y2="1.3"/>
	<line class="st0" x1="52.9" y1="3.3" x2="52.9" y2="3.3"/>
	<line class="st0" x1="56" y1="4.2" x2="56" y2="4.2"/>
	<line class="st0" x1="53.8" y1="6.5" x2="53.8" y2="6.5"/>
	<line class="st0" x1="50.7" y1="7.8" x2="50.7" y2="7.8"/>
	<line class="st0" x1="52.3" y1="11" x2="52.3" y2="11"/>
	<line class="st0" x1="65.7" y1="18.7" x2="65.7" y2="18.7"/>
	<line class="st0" x1="48.3" y1="13.5" x2="48.3" y2="13.5"/>
	<line class="st0" x1="52.8" y1="14.5" x2="52.8" y2="14.5"/>
	<line class="st0" x1="59.3" y1="9.3" x2="59.3" y2="9.3"/>
	<line class="st0" x1="56.9" y1="14" x2="56.9" y2="14"/>
	<line class="st0" x1="55.9" y1="17.3" x2="55.9" y2="17.3"/>
	<line class="st0" x1="52.1" y1="18.5" x2="52.1" y2="18.5"/>
	<line class="st0" x1="50.2" y1="21.3" x2="50.2" y2="21.3"/>
	<line class="st0" x1="47" y1="24.6" x2="47" y2="24.6"/>
	<line class="st0" x1="67.5" y1="8.3" x2="67.5" y2="8.3"/>
	<line class="st0" x1="78.1" y1="1.5" x2="78.1" y2="1.5"/>
	<line class="st0" x1="72.9" y1="1.9" x2="72.9" y2="1.9"/>
	<line class="st0" x1="66.2" y1="0.7" x2="66.2" y2="0.7"/>
	<line class="st0" x1="68.6" y1="3" x2="68.6" y2="3"/>
	<line class="st0" x1="77.6" y1="7" x2="77.6" y2="7"/>
	<line class="st0" x1="75.7" y1="3.9" x2="75.7" y2="3.9"/>
	<line class="st0" x1="65.5" y1="4.5" x2="65.5" y2="4.5"/>
	<line class="st0" x1="22" y1="78.5" x2="22" y2="78.5"/>
	<line class="st0" x1="9.5" y1="79.8" x2="9.5" y2="79.8"/>
	<line class="st0" x1="1.2" y1="79.5" x2="1.2" y2="79.5"/>
	<line class="st0" x1="17.3" y1="79.1" x2="17.3" y2="79.1"/>
	<line class="st0" x1="29.8" y1="57" x2="29.8" y2="57"/>
	<line class="st0" x1="43.5" y1="78.6" x2="43.5" y2="78.6"/>
	<line class="st0" x1="29.2" y1="79.3" x2="29.2" y2="79.3"/>
	<line class="st0" x1="43.3" y1="70.6" x2="43.3" y2="70.6"/>
	<line class="st0" x1="57.2" y1="79.1" x2="57.2" y2="79.1"/>
	<line class="st0" x1="46.5" y1="79.8" x2="46.5" y2="79.8"/>
	<line class="st0" x1="70.2" y1="79.6" x2="70.2" y2="79.6"/>
	<line class="st0" x1="62.2" y1="79.5" x2="62.2" y2="79.5"/>
	<line class="st0" x1="70.7" y1="6" x2="70.7" y2="6"/>
	<line class="st0" x1="72.1" y1="27.2" x2="72.1" y2="27.2"/>
	<line class="st0" x1="75.9" y1="27.4" x2="75.9" y2="27.4"/>
	<line class="st0" x1="72.5" y1="32.1" x2="72.5" y2="32.1"/>
	<line class="st0" x1="78" y1="33.2" x2="78" y2="33.2"/>
	<line class="st0" x1="66.4" y1="29.3" x2="66.4" y2="29.3"/>
	<line class="st0" x1="65.4" y1="32" x2="65.4" y2="32"/>
	<line class="st0" x1="69.5" y1="33.3" x2="69.5" y2="33.3"/>
	<line class="st0" x1="75.6" y1="34.5" x2="75.6" y2="34.5"/>
	<line class="st0" x1="73.5" y1="36.5" x2="73.5" y2="36.5"/>
	<line class="st0" x1="67.1" y1="38.7" x2="67.1" y2="38.7"/>
	<line class="st0" x1="60.6" y1="32.5" x2="60.6" y2="32.5"/>
	<line class="st0" x1="65" y1="35.2" x2="65" y2="35.2"/>
	<line class="st0" x1="68" y1="16.2" x2="68" y2="16.2"/>
	<line class="st0" x1="63.1" y1="25.9" x2="63.1" y2="25.9"/>
	<line class="st0" x1="61.7" y1="22.8" x2="61.7" y2="22.8"/>
	<line class="st0" x1="58.9" y1="25.9" x2="58.9" y2="25.9"/>
	<line class="st0" x1="59.2" y1="20.9" x2="59.2" y2="20.9"/>
	<line class="st0" x1="59.6" y1="16.5" x2="59.6" y2="16.5"/>
	<line class="st0" x1="67.5" y1="26" x2="67.5" y2="26"/>
	<line class="st0" x1="74.2" y1="24.2" x2="74.2" y2="24.2"/>
	<line class="st0" x1="69.5" y1="29.3" x2="69.5" y2="29.3"/>
	<line class="st0" x1="72.9" y1="19.6" x2="72.9" y2="19.6"/>
	<line class="st0" x1="68.9" y1="19.9" x2="68.9" y2="19.9"/>
	<line class="st0" x1="63" y1="19.8" x2="63" y2="19.8"/>
	<line class="st0" x1="76.8" y1="20.5" x2="76.8" y2="20.5"/>
	<line class="st0" x1="78.3" y1="24.7" x2="78.3" y2="24.7"/>
	<line class="st0" x1="65.5" y1="22.2" x2="65.5" y2="22.2"/>
	<line class="st0" x1="71.4" y1="16.1" x2="71.4" y2="16.1"/>
	<line class="st0" x1="7.4" y1="70.5" x2="7.4" y2="70.5"/>
	<line class="st0" x1="7.4" y1="67.2" x2="7.4" y2="67.2"/>
	<line class="st0" x1="2.7" y1="67.1" x2="2.7" y2="67.1"/>
	<line class="st0" x1="11.4" y1="67.5" x2="11.4" y2="67.5"/>
	<line class="st0" x1="14.1" y1="65.7" x2="14.1" y2="65.7"/>
	<line class="st0" x1="18" y1="56.7" x2="18" y2="56.7"/>
	<line class="st0" x1="23.3" y1="64.5" x2="23.3" y2="64.5"/>
	<line class="st0" x1="22.9" y1="73.3" x2="22.9" y2="73.3"/>
	<line class="st0" x1="25.1" y1="75.5" x2="25.1" y2="75.5"/>
	<line class="st0" x1="21" y1="67.8" x2="21" y2="67.8"/>
	<line class="st0" x1="13.2" y1="62.6" x2="13.2" y2="62.6"/>
	<line class="st0" x1="17.5" y1="66.8" x2="17.5" y2="66.8"/>
	<line class="st0" x1="17" y1="71.8" x2="17" y2="71.8"/>
	<line class="st0" x1="20.6" y1="71.8" x2="20.6" y2="71.8"/>
	<line class="st0" x1="29" y1="43.1" x2="29" y2="43.1"/>
	<line class="st0" x1="20.2" y1="75.6" x2="20.2" y2="75.6"/>
	<line class="st0" x1="9.8" y1="72.3" x2="9.8" y2="72.3"/>
	<line class="st0" x1="5.2" y1="73.4" x2="5.2" y2="73.4"/>
	<line class="st0" x1="6.2" y1="78.8" x2="6.2" y2="78.8"/>
	<line class="st0" x1="14.5" y1="69.8" x2="14.5" y2="69.8"/>
	<line class="st0" x1="3.3" y1="70.1" x2="3.3" y2="70.1"/>
	<line class="st0" x1="1.2" y1="73" x2="1.2" y2="73"/>
	<line class="st0" x1="13.7" y1="74" x2="13.7" y2="74"/>
	<line class="st0" x1="12.5" y1="77.1" x2="12.5" y2="77.1"/>
	<line class="st0" x1="7.4" y1="52.8" x2="7.4" y2="52.8"/>
	<line class="st0" x1="3.6" y1="52.5" x2="3.6" y2="52.5"/>
	<line class="st0" x1="7.4" y1="49.5" x2="7.4" y2="49.5"/>
	<line class="st0" x1="18.2" y1="40.1" x2="18.2" y2="40.1"/>
	<line class="st0" x1="13.1" y1="50.7" x2="13.1" y2="50.7"/>
	<line class="st0" x1="14.1" y1="48" x2="14.1" y2="48"/>
	<line class="st0" x1="10" y1="46.7" x2="10" y2="46.7"/>
	<line class="st0" x1="5" y1="46.4" x2="5" y2="46.4"/>
	<line class="st0" x1="7.2" y1="43.7" x2="7.2" y2="43.7"/>
	<line class="st0" x1="13.2" y1="41.3" x2="13.2" y2="41.3"/>
	<line class="st0" x1="17.7" y1="47.4" x2="17.7" y2="47.4"/>
	<line class="st0" x1="12.8" y1="44.5" x2="12.8" y2="44.5"/>
	<line class="st0" x1="16.3" y1="44" x2="16.3" y2="44"/>
	<line class="st0" x1="16.4" y1="54" x2="16.4" y2="54"/>
	<line class="st0" x1="20.6" y1="54.1" x2="20.6" y2="54.1"/>
	<line class="st0" x1="20.2" y1="59.1" x2="20.2" y2="59.1"/>
	<line class="st0" x1="19.9" y1="63.5" x2="19.9" y2="63.5"/>
	<line class="st0" x1="12" y1="53.9" x2="12" y2="53.9"/>
	<line class="st0" x1="5.2" y1="55.7" x2="5.2" y2="55.7"/>
	<line class="st0" x1="1.5" y1="44.5" x2="1.5" y2="44.5"/>
	<line class="st0" x1="6.6" y1="60.3" x2="6.6" y2="60.3"/>
	<line class="st0" x1="10.6" y1="60" x2="10.6" y2="60"/>
	<line class="st0" x1="16.5" y1="60.2" x2="16.5" y2="60.2"/>
	<line class="st0" x1="2.7" y1="59.5" x2="2.7" y2="59.5"/>
	<line class="st0" x1="1.2" y1="55.3" x2="1.2" y2="55.3"/>
	<line class="st0" x1="14" y1="57.8" x2="14" y2="57.8"/>
	<line class="st0" x1="9.2" y1="64" x2="9.2" y2="64"/>
	<line class="st0" x1="33.3" y1="68.6" x2="33.3" y2="68.6"/>
	<line class="st0" x1="33" y1="65" x2="33" y2="65"/>
	<line class="st0" x1="29.5" y1="67.1" x2="29.5" y2="67.1"/>
	<line class="st0" x1="26" y1="67.3" x2="26" y2="67.3"/>
	<line class="st0" x1="27" y1="63.9" x2="27" y2="63.9"/>
	<line class="st0" x1="23.3" y1="60.7" x2="23.3" y2="60.7"/>
	<line class="st0" x1="23.2" y1="50.3" x2="23.2" y2="50.3"/>
	<line class="st0" x1="26.2" y1="58.9" x2="26.2" y2="58.9"/>
	<line class="st0" x1="38.2" y1="67.5" x2="38.2" y2="67.5"/>
	<line class="st0" x1="40.9" y1="65.7" x2="40.9" y2="65.7"/>
	<line class="st0" x1="45.5" y1="65.7" x2="45.5" y2="65.7"/>
	<line class="st0" x1="41.2" y1="62.4" x2="41.2" y2="62.4"/>
	<line class="st0" x1="41.7" y1="68" x2="41.7" y2="68"/>
	<line class="st0" x1="43.9" y1="74.2" x2="43.9" y2="74.2"/>
	<line class="st0" x1="46.7" y1="69" x2="46.7" y2="69"/>
	<line class="st0" x1="46.7" y1="73.5" x2="46.7" y2="73.5"/>
	<line class="st0" x1="48.7" y1="76.3" x2="48.7" y2="76.3"/>
	<line class="st0" x1="38.7" y1="71.6" x2="38.7" y2="71.6"/>
	<line class="st0" x1="32" y1="73.4" x2="32" y2="73.4"/>
	<line class="st0" x1="33.4" y1="78" x2="33.4" y2="78"/>
	<line class="st0" x1="38" y1="78.5" x2="38" y2="78.5"/>
	<line class="st0" x1="29.7" y1="70" x2="29.7" y2="70"/>
	<line class="st0" x1="25.8" y1="78.3" x2="25.8" y2="78.3"/>
	<line class="st0" x1="27.9" y1="73" x2="27.9" y2="73"/>
	<line class="st0" x1="39" y1="75.3" x2="39" y2="75.3"/>
	<line class="st0" x1="35" y1="75" x2="35" y2="75"/>
	<line class="st0" x1="34.2" y1="52.8" x2="34.2" y2="52.8"/>
	<line class="st0" x1="30.4" y1="52.5" x2="30.4" y2="52.5"/>
	<line class="st0" x1="27" y1="51.8" x2="27" y2="51.8"/>
	<line class="st0" x1="19.9" y1="50.7" x2="19.9" y2="50.7"/>
	<line class="st0" x1="34.1" y1="49.5" x2="34.1" y2="49.5"/>
	<line class="st0" x1="26.1" y1="48.4" x2="26.1" y2="48.4"/>
	<line class="st0" x1="25.3" y1="45" x2="25.3" y2="45"/>
	<line class="st0" x1="20.3" y1="44.2" x2="20.3" y2="44.2"/>
	<line class="st0" x1="25.7" y1="39.8" x2="25.7" y2="39.8"/>
	<line class="st0" x1="56" y1="46.9" x2="56" y2="46.9"/>
	<line class="st0" x1="51.9" y1="44.5" x2="51.9" y2="44.5"/>
	<line class="st0" x1="60.8" y1="44.7" x2="60.8" y2="44.7"/>
	<line class="st0" x1="75.2" y1="39.5" x2="75.2" y2="39.5"/>
	<line class="st0" x1="71.3" y1="40.6" x2="71.3" y2="40.6"/>
	<line class="st0" x1="55.3" y1="39.1" x2="55.3" y2="39.1"/>
	<line class="st0" x1="50.3" y1="39.1" x2="50.3" y2="39.1"/>
	<line class="st0" x1="33.5" y1="40.1" x2="33.5" y2="40.1"/>
	<line class="st0" x1="29.7" y1="39.6" x2="29.7" y2="39.6"/>
	<line class="st0" x1="7.5" y1="40" x2="7.5" y2="40"/>
	<line class="st0" x1="4.3" y1="42" x2="4.3" y2="42"/>
	<line class="st0" x1="1.1" y1="35" x2="1.1" y2="35"/>
	<line class="st0" x1="79.3" y1="41.7" x2="79.3" y2="41.7"/>
	<line class="st0" x1="21.9" y1="47.3" x2="21.9" y2="47.3"/>
	<line class="st0" x1="29.5" y1="49.4" x2="29.5" y2="49.4"/>
	<line class="st0" x1="39.9" y1="50.7" x2="39.9" y2="50.7"/>
	<line class="st0" x1="40.9" y1="48" x2="40.9" y2="48"/>
	<line class="st0" x1="36.7" y1="46.7" x2="36.7" y2="46.7"/>
	<line class="st0" x1="31.7" y1="46.4" x2="31.7" y2="46.4"/>
	<line class="st0" x1="34" y1="43.7" x2="34" y2="43.7"/>
	<line class="st0" x1="39.7" y1="41.3" x2="39.7" y2="41.3"/>
	<line class="st0" x1="45.6" y1="47.4" x2="45.6" y2="47.4"/>
	<line class="st0" x1="39.8" y1="44.5" x2="39.8" y2="44.5"/>
	<line class="st0" x1="43.3" y1="43.6" x2="43.3" y2="43.6"/>
	<line class="st0" x1="43.1" y1="54" x2="43.1" y2="54"/>
	<line class="st0" x1="48" y1="50.3" x2="48" y2="50.3"/>
	<line class="st0" x1="47.3" y1="53" x2="47.3" y2="53"/>
	<line class="st0" x1="51.9" y1="56.4" x2="51.9" y2="56.4"/>
	<line class="st0" x1="52.4" y1="52.9" x2="52.4" y2="52.9"/>
	<line class="st0" x1="55.7" y1="53.8" x2="55.7" y2="53.8"/>
	<line class="st0" x1="55" y1="42.6" x2="55" y2="42.6"/>
	<line class="st0" x1="58.5" y1="42.3" x2="58.5" y2="42.3"/>
	<line class="st0" x1="59.3" y1="51.4" x2="59.3" y2="51.4"/>
	<line class="st0" x1="53" y1="49.3" x2="53" y2="49.3"/>
	<line class="st0" x1="49.3" y1="47.2" x2="49.3" y2="47.2"/>
	<line class="st0" x1="54.2" y1="59.3" x2="54.2" y2="59.3"/>
	<line class="st0" x1="46.7" y1="60" x2="46.7" y2="60"/>
	<line class="st0" x1="48.3" y1="63.3" x2="48.3" y2="63.3"/>
	<line class="st0" x1="38.7" y1="53.9" x2="38.7" y2="53.9"/>
	<line class="st0" x1="32.8" y1="55.5" x2="32.8" y2="55.5"/>
	<line class="st0" x1="47" y1="43.9" x2="47" y2="43.9"/>
	<line class="st0" x1="36.7" y1="64" x2="36.7" y2="64"/>
	<line class="st0" x1="33.4" y1="60.3" x2="33.4" y2="60.3"/>
	<line class="st0" x1="37.4" y1="60" x2="37.4" y2="60"/>
	<line class="st0" x1="43.2" y1="60.2" x2="43.2" y2="60.2"/>
	<line class="st0" x1="29.2" y1="60.4" x2="29.2" y2="60.4"/>
	<line class="st0" x1="26.8" y1="55.4" x2="26.8" y2="55.4"/>
	<line class="st0" x1="40.7" y1="57.8" x2="40.7" y2="57.8"/>
	<line class="st0" x1="36.7" y1="51.1" x2="36.7" y2="51.1"/>
	<line class="st0" x1="79.9" y1="69.1" x2="79.9" y2="69.1"/>
	<line class="st0" x1="79.9" y1="51.4" x2="79.9" y2="51.4"/>
	<line class="st0" x1="79.6" y1="62.5" x2="79.6" y2="62.5"/>
	<line class="st0" x1="72.1" y1="71" x2="72.1" y2="71"/>
	<line class="st0" x1="72.1" y1="67.7" x2="72.1" y2="67.7"/>
	<line class="st0" x1="77.2" y1="66.7" x2="77.2" y2="66.7"/>
	<line class="st0" x1="68.1" y1="68.1" x2="68.1" y2="68.1"/>
	<line class="st0" x1="65.4" y1="66.2" x2="65.4" y2="66.2"/>
	<line class="st0" x1="60" y1="67.5" x2="60" y2="67.5"/>
	<line class="st0" x1="64" y1="72.2" x2="64" y2="72.2"/>
	<line class="st0" x1="8.8" y1="76.3" x2="8.8" y2="76.3"/>
	<line class="st0" x1="63.2" y1="75" x2="63.2" y2="75"/>
	<line class="st0" x1="58.9" y1="72.4" x2="58.9" y2="72.4"/>
	<line class="st0" x1="59.8" y1="76.5" x2="59.8" y2="76.5"/>
	<line class="st0" x1="52.9" y1="77.2" x2="52.9" y2="77.2"/>
	<line class="st0" x1="57" y1="70.3" x2="57" y2="70.3"/>
	<line class="st0" x1="53.8" y1="74" x2="53.8" y2="74"/>
	<line class="st0" x1="50.7" y1="72.7" x2="50.7" y2="72.7"/>
	<line class="st0" x1="44.7" y1="39.8" x2="44.7" y2="39.8"/>
	<line class="st0" x1="65.7" y1="61.8" x2="65.7" y2="61.8"/>
	<line class="st0" x1="52.7" y1="67.6" x2="52.7" y2="67.6"/>
	<line class="st0" x1="49.3" y1="66" x2="49.3" y2="66"/>
	<line class="st0" x1="53.5" y1="70.5" x2="53.5" y2="70.5"/>
	<line class="st0" x1="56.9" y1="66.5" x2="56.9" y2="66.5"/>
	<line class="st0" x1="61.8" y1="39.3" x2="61.8" y2="39.3"/>
	<line class="st0" x1="52.3" y1="63.3" x2="52.3" y2="63.3"/>
	<line class="st0" x1="50.2" y1="59.2" x2="50.2" y2="59.2"/>
	<line class="st0" x1="45" y1="56.6" x2="45" y2="56.6"/>
	<line class="st0" x1="67.5" y1="72.2" x2="67.5" y2="72.2"/>
	<line class="st0" x1="74.2" y1="74" x2="74.2" y2="74"/>
	<line class="st0" x1="78.8" y1="76.3" x2="78.8" y2="76.3"/>
	<line class="st0" x1="73.2" y1="77.3" x2="73.2" y2="77.3"/>
	<line class="st0" x1="75.8" y1="64.3" x2="75.8" y2="64.3"/>
	<line class="st0" x1="68.3" y1="44" x2="68.3" y2="44"/>
	<line class="st0" x1="78.3" y1="73.5" x2="78.3" y2="73.5"/>
	<line class="st0" x1="65.8" y1="77.5" x2="65.8" y2="77.5"/>
	<line class="st0" x1="70" y1="73.6" x2="70" y2="73.6"/>
	<line class="st0" x1="72.1" y1="53.3" x2="72.1" y2="53.3"/>
	<line class="st0" x1="75.9" y1="53.1" x2="75.9" y2="53.1"/>
	<line class="st0" x1="72.1" y1="50" x2="72.1" y2="50"/>
	<line class="st0" x1="78" y1="47.3" x2="78" y2="47.3"/>
	<line class="st0" x1="66.4" y1="51.2" x2="66.4" y2="51.2"/>
	<line class="st0" x1="64.3" y1="48.3" x2="64.3" y2="48.3"/>
	<line class="st0" x1="69.5" y1="47.2" x2="69.5" y2="47.2"/>
	<line class="st0" x1="74.5" y1="47" x2="74.5" y2="47"/>
	<line class="st0" x1="72.2" y1="44.2" x2="72.2" y2="44.2"/>
	<line class="st0" x1="67.1" y1="41.8" x2="67.1" y2="41.8"/>
	<line class="st0" x1="60.6" y1="48" x2="60.6" y2="48"/>
	<line class="st0" x1="65" y1="45.3" x2="65" y2="45.3"/>
	<line class="st0" x1="63.3" y1="64" x2="63.3" y2="64"/>
	<line class="st0" x1="63" y1="52.3" x2="63" y2="52.3"/>
	<line class="st0" x1="57.2" y1="57" x2="57.2" y2="57"/>
	<line class="st0" x1="60.1" y1="55" x2="60.1" y2="55"/>
	<line class="st0" x1="59.2" y1="59.7" x2="59.2" y2="59.7"/>
	<line class="st0" x1="59.6" y1="64" x2="59.6" y2="64"/>
	<line class="st0" x1="67.5" y1="54.5" x2="67.5" y2="54.5"/>
	<line class="st0" x1="75.7" y1="49.6" x2="75.7" y2="49.6"/>
	<line class="st0" x1="71.2" y1="57" x2="71.2" y2="57"/>
	<line class="st0" x1="72.9" y1="60.9" x2="72.9" y2="60.9"/>
	<line class="st0" x1="71.6" y1="64.4" x2="71.6" y2="64.4"/>
	<line class="st0" x1="69.9" y1="60.1" x2="69.9" y2="60.1"/>
	<line class="st0" x1="63" y1="60.7" x2="63" y2="60.7"/>
	<line class="st0" x1="76.8" y1="60" x2="76.8" y2="60"/>
	<line class="st0" x1="78.3" y1="55.8" x2="78.3" y2="55.8"/>
	<line class="st0" x1="66.9" y1="58.9" x2="66.9" y2="58.9"/>
	<line class="st0" x1="10.3" y1="49.8" x2="10.3" y2="49.8"/>
	<polyline class="st1" points="37.6,16 37.9,18 36,17.3 	"/>
	<polyline class="st1" points="23.5,15 24.6,16.8 22.5,16.9 	"/>
	<polyline class="st1" points="56.7,22.7 57.7,24.4 55.7,24.5 	"/>
	<polyline class="st1" points="16.6,75.2 17.7,77 15.6,77.1 	"/>
	<polyline class="st1" points="69,35.2 70,37 68,37.1 	"/>
	<polyline class="st1" points="44.5,61.7 45.5,63.5 43.5,63.6 	"/>
	<polyline class="st1" points="24.2,3.7 22.3,3.1 23.6,1.6 	"/>
	<polyline class="st1" points="29.4,9 31.2,10 29.5,11.1 	"/>
	<polyline class="st1" points="54.8,9.3 56.6,10.3 54.9,11.4 	"/>
	<polyline class="st1" points="17,36.5 17.2,38.5 15.3,37.8 	"/>
	<polyline class="st1" points="70,22 70.2,24 68.3,23.3 	"/>
	<polyline class="st1" points="42.5,75.7 42.7,77.7 40.8,77 	"/>
	<polyline class="st1" points="62.7,41 63,43 61.1,42.3 	"/>
	<polyline class="st1" points="63.5,28.5 63.7,30.5 61.8,29.8 	"/>
	<polyline class="st1" points="50,30 50.2,32 48.3,31.3 	"/>
	<polyline class="st1" points="5.1,39.3 3.2,38.5 4.8,37.2 	"/>
	<polyline class="st1" points="16.9,8.4 15.7,10 14.8,8.2 	"/>
	<polyline class="st1" points="31.3,23.7 29.4,23.3 30.6,21.7 	"/>
	<polyline class="st1" points="36.1,30.9 37.2,29.2 38.3,31 	"/>
	<polyline class="st1" points="29.9,45.4 29.9,47.4 28.1,46.5 	"/>
	<polyline class="st1" points="50.4,1.2 50.5,3.2 48.7,2.4 	"/>
	<polyline class="st1" points="69.2,75.4 69.2,77.5 67.4,76.6 	"/>
	<polyline class="st1" points="16.4,24.2 18.1,23 18.3,25 	"/>
	<polyline class="st1" points="9,29.1 10.7,30.2 9,31.2 	"/>
	<polyline class="st1" points="29.5,62.2 31.2,63.3 29.4,64.3 	"/>
	<polyline class="st1" points="24.5,29.8 22.9,31 22.5,29 	"/>
	<polyline class="st1" points="76.7,16 75.1,17.2 74.7,15.2 	"/>
	<polyline class="st1" points="51,41.2 49.4,42.5 49,40.5 	"/>
	<polyline class="st1" points="43.1,9.2 41.5,10.5 41.1,8.5 	"/>
	<polyline class="st1" points="2.5,47.8 2.4,49.8 0.7,48.8 	"/>
	<polyline class="st1" points="49.3,54.7 49.2,56.7 47.5,55.7 	"/>
	<polyline class="st1" points="10.2,57.3 8.2,56.8 9.5,55.3 	"/>
	<polyline class="st1" points="58.2,75.9 56.2,75.5 57.5,73.9 	"/>
	<polyline class="st1" points="17.3,64.4 15.6,63.3 17.3,62.3 	"/>
	<polyline class="st1" points="76,70.7 74.3,69.7 76,68.6 	"/>
	<polyline class="st1" points="57.2,51 55.5,50 57.2,48.9 	"/>
	<polyline class="st1" points="22.4,55.2 24.4,54.8 23.8,56.8 	"/>
	<polyline class="st1" points="74.6,29.9 76.6,29.5 76,31.5 	"/>
	<polyline class="st1" points="4.2,62.1 5.2,63.8 3.2,63.9 	"/>
	<polyline class="st1" points="77.7,57.9 75.7,58.2 76.4,56.3 	"/>
	<polyline class="st1" points="36.2,43.8 37.7,42.5 38.2,44.4 	"/>
	<polyline class="st1" points="66.7,64.6 68.2,63.3 68.7,65.2 	"/>
	<polyline class="st1" points="55,37.3 56.6,36 57.1,37.9 	"/>
	<polyline class="st1" points="42.5,24.2 44,22.9 44.5,24.8 	"/>
	<polyline class="st1" points="35.2,4.1 36.7,2.7 37.2,4.7 	"/>
	<polyline class="st1" points="21.9,43.1 22.5,41.2 24,42.5 	"/>
	<polyline class="st1" points="61.2,18 61.7,16 63.2,17.4 	"/>
	<polyline class="st1" points="34.7,72.7 35.2,70.7 36.7,72.1 	"/>
	<polyline class="st1" points="41.7,37.7 43.1,36.2 43.7,38.1 	"/>
	<polyline class="st1" points="9.4,41.2 11.3,41.8 9.9,43.2 	"/>
	<polyline class="st1" points="61.3,1.6 63.2,2.2 61.8,3.7 	"/>
	<polyline class="st1" points="75.5,6.5 73.6,7.2 73.8,5.2 	"/>
	<polyline class="st1" points="48.3,69.1 50.2,69.7 48.8,71.2 	"/>
	<polyline class="st1" points="23.2,68.9 25.2,69.5 23.8,71 	"/>
	<polyline class="st1" points="75.7,77.7 77.6,78.3 76.2,79.8 	"/>
	<polyline class="st1" points="3.2,8.8 4,10.7 2,10.6 	"/>
	<polyline class="st1" points="8.5,16.5 10.5,16.5 9.6,18.3 	"/>
	<polyline class="st1" points="1.5,22.5 3.5,22.5 2.6,24.3 	"/>
	<polyline class="st1" points="17,49.6 17.7,51.5 15.7,51.3 	"/>
	<polyline class="st1" points="68.3,48.6 69,50.5 67,50.2 	"/>
	<polyline class="st1" points="63.6,55.3 64.2,57.2 62.2,57 	"/>
	<polyline class="st1" points="36.6,57.9 34.6,57.8 35.6,56 	"/>
	<polyline class="st1" points="30.5,77.5 28.5,77.3 29.5,75.6 	"/>
	<polyline class="st1" points="57.3,63.3 55.2,63.2 56.3,61.5 	"/>
	<polyline class="st1" points="4.7,77 2.6,76.8 3.7,75.1 	"/>
	<polyline class="st1" points="30.9,37.1 28.9,37.3 29.6,35.4 	"/>
	<polyline class="st1" points="67.7,10.7 65.7,10.9 66.5,9 	"/>
	<polyline class="st1" points="50.3,18.3 48.2,18.5 49,16.6 	"/>
	<polyline class="st1" points="12.7,70.9 10.7,71.1 11.4,69.2 	"/>
	<polyline class="st1" points="77,44 75,44.1 75.7,42.2 	"/>
	<polyline class="st1" points="63.7,70.2 61.7,70.4 62.5,68.5 	"/>
	<polyline class="st1" points="43,49.5 45,50 43.7,51.5 	"/>
	<polyline class="st1" points="9.7,4.2 10.5,2.4 11.8,3.9 	"/>
</g>
</svg>
