<?xml version="1.0" encoding="utf-8"?>
<!-- Generator: Adobe Illustrator 23.0.1, SVG Export Plug-In . SVG Version: 6.00 Build 0)  -->
<svg version="1.1" id="Layer_1" xmlns="http://www.w3.org/2000/svg" xmlns:xlink="http://www.w3.org/1999/xlink" x="0px" y="0px"
	 viewBox="0 0 80.6 80.5" style="enable-background:new 0 0 80.6 80.5;" xml:space="preserve">
<style type="text/css">
	.st0{fill:none;stroke:#000000;stroke-width:0.3;}
	.st1{fill:none;stroke:#000000;stroke-width:0.6;stroke-linecap:round;}
</style>
<g>
	<line class="st0" x1="8.7" y1="2.3" x2="10.7" y2="4.3"/>
	<line class="st0" x1="10.7" y1="2.3" x2="8.7" y2="4.3"/>
	<line class="st0" x1="15.4" y1="9" x2="17.5" y2="11"/>
	<line class="st0" x1="17.5" y1="9" x2="15.4" y2="11"/>
	<line class="st0" x1="2.1" y1="9" x2="4.2" y2="11"/>
	<line class="st0" x1="4.2" y1="9" x2="2.1" y2="11"/>
	<line class="st0" x1="22" y1="2.3" x2="24" y2="4.3"/>
	<line class="st0" x1="24" y1="2.3" x2="22" y2="4.3"/>
	<line class="st0" x1="28.8" y1="9" x2="30.8" y2="11"/>
	<line class="st0" x1="30.8" y1="9" x2="28.8" y2="11"/>
	<line class="st0" x1="35.3" y1="2.3" x2="37.3" y2="4.3"/>
	<line class="st0" x1="37.3" y1="2.3" x2="35.3" y2="4.3"/>
	<line class="st0" x1="42.1" y1="9" x2="44.1" y2="11"/>
	<line class="st0" x1="44.1" y1="9" x2="42.1" y2="11"/>
	<line class="st0" x1="48.6" y1="2.3" x2="50.7" y2="4.3"/>
	<line class="st0" x1="50.7" y1="2.3" x2="48.6" y2="4.3"/>
	<line class="st0" x1="55.4" y1="9" x2="57.4" y2="11"/>
	<line class="st0" x1="57.4" y1="9" x2="55.4" y2="11"/>
	<line class="st0" x1="62" y1="2.3" x2="64" y2="4.3"/>
	<line class="st0" x1="64" y1="2.3" x2="62" y2="4.3"/>
	<line class="st0" x1="68.7" y1="9" x2="70.7" y2="11"/>
	<line class="st0" x1="70.7" y1="9" x2="68.7" y2="11"/>
	<line class="st0" x1="75.3" y1="2.3" x2="77.3" y2="4.3"/>
	<line class="st0" x1="77.3" y1="2.3" x2="75.3" y2="4.3"/>
	<line class="st0" x1="8.7" y1="28.9" x2="10.7" y2="31"/>
	<line class="st0" x1="10.7" y1="28.9" x2="8.7" y2="31"/>
	<line class="st0" x1="15.4" y1="35.6" x2="17.5" y2="37.7"/>
	<line class="st0" x1="17.5" y1="35.6" x2="15.4" y2="37.7"/>
	<line class="st0" x1="2.1" y1="35.6" x2="4.2" y2="37.7"/>
	<line class="st0" x1="4.2" y1="35.6" x2="2.1" y2="37.7"/>
	<line class="st0" x1="8.7" y1="15.6" x2="10.7" y2="17.7"/>
	<line class="st0" x1="10.7" y1="15.6" x2="8.7" y2="17.7"/>
	<line class="st0" x1="15.4" y1="22.3" x2="17.5" y2="24.3"/>
	<line class="st0" x1="17.5" y1="22.3" x2="15.4" y2="24.3"/>
	<line class="st0" x1="2.1" y1="22.3" x2="4.2" y2="24.3"/>
	<line class="st0" x1="4.2" y1="22.3" x2="2.1" y2="24.3"/>
	<line class="st0" x1="22" y1="28.9" x2="24" y2="31"/>
	<line class="st0" x1="24" y1="28.9" x2="22" y2="31"/>
	<line class="st0" x1="28.8" y1="35.6" x2="30.8" y2="37.7"/>
	<line class="st0" x1="30.8" y1="35.6" x2="28.8" y2="37.7"/>
	<line class="st0" x1="22" y1="15.6" x2="24" y2="17.7"/>
	<line class="st0" x1="24" y1="15.6" x2="22" y2="17.7"/>
	<line class="st0" x1="28.8" y1="22.3" x2="30.8" y2="24.3"/>
	<line class="st0" x1="30.8" y1="22.3" x2="28.8" y2="24.3"/>
	<line class="st0" x1="35.3" y1="28.9" x2="37.3" y2="31"/>
	<line class="st0" x1="37.3" y1="28.9" x2="35.3" y2="31"/>
	<line class="st0" x1="42.1" y1="35.6" x2="44.1" y2="37.7"/>
	<line class="st0" x1="44.1" y1="35.6" x2="42.1" y2="37.7"/>
	<line class="st0" x1="35.3" y1="15.6" x2="37.3" y2="17.7"/>
	<line class="st0" x1="37.3" y1="15.6" x2="35.3" y2="17.7"/>
	<line class="st0" x1="42.1" y1="22.3" x2="44.1" y2="24.3"/>
	<line class="st0" x1="44.1" y1="22.3" x2="42.1" y2="24.3"/>
	<line class="st0" x1="48.6" y1="28.9" x2="50.7" y2="31"/>
	<line class="st0" x1="50.7" y1="28.9" x2="48.6" y2="31"/>
	<line class="st0" x1="48.6" y1="15.6" x2="50.7" y2="17.7"/>
	<line class="st0" x1="50.7" y1="15.6" x2="48.6" y2="17.7"/>
	<line class="st0" x1="55.4" y1="35.6" x2="57.4" y2="37.7"/>
	<line class="st0" x1="57.4" y1="35.6" x2="55.4" y2="37.7"/>
	<line class="st0" x1="55.4" y1="22.3" x2="57.4" y2="24.3"/>
	<line class="st0" x1="57.4" y1="22.3" x2="55.4" y2="24.3"/>
	<line class="st0" x1="62" y1="28.9" x2="64" y2="31"/>
	<line class="st0" x1="64" y1="28.9" x2="62" y2="31"/>
	<line class="st0" x1="68.7" y1="35.6" x2="70.7" y2="37.7"/>
	<line class="st0" x1="70.7" y1="35.6" x2="68.7" y2="37.7"/>
	<line class="st0" x1="62" y1="15.6" x2="64" y2="17.7"/>
	<line class="st0" x1="64" y1="15.6" x2="62" y2="17.7"/>
	<line class="st0" x1="68.7" y1="22.3" x2="70.7" y2="24.3"/>
	<line class="st0" x1="70.7" y1="22.3" x2="68.7" y2="24.3"/>
	<line class="st0" x1="75.3" y1="28.9" x2="77.3" y2="31"/>
	<line class="st0" x1="77.3" y1="28.9" x2="75.3" y2="31"/>
	<line class="st0" x1="75.3" y1="15.6" x2="77.3" y2="17.7"/>
	<line class="st0" x1="77.3" y1="15.6" x2="75.3" y2="17.7"/>
	<line class="st0" x1="8.7" y1="55.5" x2="10.7" y2="57.5"/>
	<line class="st0" x1="10.7" y1="55.5" x2="8.7" y2="57.5"/>
	<line class="st0" x1="15.4" y1="62.2" x2="17.5" y2="64.2"/>
	<line class="st0" x1="17.5" y1="62.2" x2="15.4" y2="64.2"/>
	<line class="st0" x1="2.1" y1="62.2" x2="4.2" y2="64.2"/>
	<line class="st0" x1="4.2" y1="62.2" x2="2.1" y2="64.2"/>
	<line class="st0" x1="8.7" y1="42.2" x2="10.7" y2="44.2"/>
	<line class="st0" x1="10.7" y1="42.2" x2="8.7" y2="44.2"/>
	<line class="st0" x1="15.4" y1="48.9" x2="17.5" y2="50.9"/>
	<line class="st0" x1="17.5" y1="48.9" x2="15.4" y2="50.9"/>
	<line class="st0" x1="2.1" y1="48.9" x2="4.2" y2="50.9"/>
	<line class="st0" x1="4.2" y1="48.9" x2="2.1" y2="50.9"/>
	<line class="st0" x1="22" y1="55.5" x2="24" y2="57.5"/>
	<line class="st0" x1="24" y1="55.5" x2="22" y2="57.5"/>
	<line class="st0" x1="28.8" y1="62.2" x2="30.8" y2="64.2"/>
	<line class="st0" x1="30.8" y1="62.2" x2="28.8" y2="64.2"/>
	<line class="st0" x1="22" y1="42.2" x2="24" y2="44.2"/>
	<line class="st0" x1="24" y1="42.2" x2="22" y2="44.2"/>
	<line class="st0" x1="28.8" y1="48.9" x2="30.8" y2="50.9"/>
	<line class="st0" x1="30.8" y1="48.9" x2="28.8" y2="50.9"/>
	<line class="st0" x1="35.3" y1="55.5" x2="37.3" y2="57.5"/>
	<line class="st0" x1="37.3" y1="55.5" x2="35.3" y2="57.5"/>
	<line class="st0" x1="42.1" y1="62.2" x2="44.1" y2="64.2"/>
	<line class="st0" x1="44.1" y1="62.2" x2="42.1" y2="64.2"/>
	<line class="st0" x1="35.3" y1="42.2" x2="37.3" y2="44.2"/>
	<line class="st0" x1="37.3" y1="42.2" x2="35.3" y2="44.2"/>
	<line class="st0" x1="42.1" y1="48.9" x2="44.1" y2="50.9"/>
	<line class="st0" x1="44.1" y1="48.9" x2="42.1" y2="50.9"/>
	<line class="st0" x1="48.6" y1="55.5" x2="50.7" y2="57.5"/>
	<line class="st0" x1="50.7" y1="55.5" x2="48.6" y2="57.5"/>
	<line class="st0" x1="48.6" y1="42.2" x2="50.7" y2="44.2"/>
	<line class="st0" x1="50.7" y1="42.2" x2="48.6" y2="44.2"/>
	<line class="st0" x1="55.4" y1="62.2" x2="57.4" y2="64.2"/>
	<line class="st0" x1="57.4" y1="62.2" x2="55.4" y2="64.2"/>
	<line class="st0" x1="55.4" y1="48.9" x2="57.4" y2="50.9"/>
	<line class="st0" x1="57.4" y1="48.9" x2="55.4" y2="50.9"/>
	<line class="st0" x1="62" y1="55.5" x2="64" y2="57.5"/>
	<line class="st0" x1="64" y1="55.5" x2="62" y2="57.5"/>
	<line class="st0" x1="68.7" y1="62.2" x2="70.7" y2="64.2"/>
	<line class="st0" x1="70.7" y1="62.2" x2="68.7" y2="64.2"/>
	<line class="st0" x1="62" y1="42.2" x2="64" y2="44.2"/>
	<line class="st0" x1="64" y1="42.2" x2="62" y2="44.2"/>
	<line class="st0" x1="68.7" y1="48.9" x2="70.7" y2="50.9"/>
	<line class="st0" x1="70.7" y1="48.9" x2="68.7" y2="50.9"/>
	<line class="st0" x1="75.3" y1="55.5" x2="77.3" y2="57.5"/>
	<line class="st0" x1="77.3" y1="55.5" x2="75.3" y2="57.5"/>
	<line class="st0" x1="75.3" y1="42.2" x2="77.3" y2="44.2"/>
	<line class="st0" x1="77.3" y1="42.2" x2="75.3" y2="44.2"/>
	<line class="st0" x1="8.7" y1="68.8" x2="10.7" y2="70.8"/>
	<line class="st0" x1="10.7" y1="68.8" x2="8.7" y2="70.8"/>
	<line class="st0" x1="15.4" y1="75.5" x2="17.5" y2="77.5"/>
	<line class="st0" x1="17.5" y1="75.5" x2="15.4" y2="77.5"/>
	<line class="st0" x1="2.1" y1="75.5" x2="4.2" y2="77.5"/>
	<line class="st0" x1="4.2" y1="75.5" x2="2.1" y2="77.5"/>
	<line class="st0" x1="22" y1="68.8" x2="24" y2="70.8"/>
	<line class="st0" x1="24" y1="68.8" x2="22" y2="70.8"/>
	<line class="st0" x1="28.8" y1="75.5" x2="30.8" y2="77.5"/>
	<line class="st0" x1="30.8" y1="75.5" x2="28.8" y2="77.5"/>
	<line class="st0" x1="35.3" y1="68.8" x2="37.3" y2="70.8"/>
	<line class="st0" x1="37.3" y1="68.8" x2="35.3" y2="70.8"/>
	<line class="st0" x1="42.1" y1="75.5" x2="44.1" y2="77.5"/>
	<line class="st0" x1="44.1" y1="75.5" x2="42.1" y2="77.5"/>
	<line class="st0" x1="48.6" y1="68.8" x2="50.7" y2="70.8"/>
	<line class="st0" x1="50.7" y1="68.8" x2="48.6" y2="70.8"/>
	<line class="st0" x1="55.4" y1="75.5" x2="57.4" y2="77.5"/>
	<line class="st0" x1="57.4" y1="75.5" x2="55.4" y2="77.5"/>
	<line class="st0" x1="62" y1="68.8" x2="64" y2="70.8"/>
	<line class="st0" x1="64" y1="68.8" x2="62" y2="70.8"/>
	<line class="st0" x1="68.7" y1="75.5" x2="70.7" y2="77.5"/>
	<line class="st0" x1="70.7" y1="75.5" x2="68.7" y2="77.5"/>
	<line class="st0" x1="75.3" y1="68.8" x2="77.3" y2="70.8"/>
	<line class="st0" x1="77.3" y1="68.8" x2="75.3" y2="70.8"/>
	<line class="st1" x1="7.3" y1="10" x2="7.3" y2="10"/>
	<line class="st1" x1="7.2" y1="13.3" x2="7.2" y2="13.3"/>
	<line class="st1" x1="2.6" y1="13.4" x2="2.6" y2="13.4"/>
	<line class="st1" x1="11.3" y1="13" x2="11.3" y2="13"/>
	<line class="st1" x1="14" y1="14.8" x2="14" y2="14.8"/>
	<line class="st1" x1="17.3" y1="15.5" x2="17.3" y2="15.5"/>
	<line class="st1" x1="23.8" y1="7" x2="23.8" y2="7"/>
	<line class="st1" x1="20.8" y1="12.7" x2="20.8" y2="12.7"/>
	<line class="st1" x1="14.3" y1="18.1" x2="14.3" y2="18.1"/>
	<line class="st1" x1="16.5" y1="12.1" x2="16.5" y2="12.1"/>
	<line class="st1" x1="17" y1="6.3" x2="17" y2="6.3"/>
	<line class="st1" x1="20.5" y1="8.7" x2="20.5" y2="8.7"/>
	<line class="st1" x1="24.1" y1="10.1" x2="24.1" y2="10.1"/>
	<line class="st1" x1="20.1" y1="3.7" x2="20.1" y2="3.7"/>
	<line class="st1" x1="11.8" y1="8.9" x2="11.8" y2="8.9"/>
	<line class="st1" x1="5.1" y1="7.1" x2="5.1" y2="7.1"/>
	<line class="st1" x1="6.5" y1="2.5" x2="6.5" y2="2.5"/>
	<line class="st1" x1="13" y1="0.8" x2="13" y2="0.8"/>
	<line class="st1" x1="16.3" y1="2.6" x2="16.3" y2="2.6"/>
	<line class="st1" x1="2.5" y1="3.3" x2="2.5" y2="3.3"/>
	<line class="st1" x1="1" y1="7.5" x2="1" y2="7.5"/>
	<line class="st1" x1="13.8" y1="5" x2="13.8" y2="5"/>
	<line class="st1" x1="8.6" y1="6.5" x2="8.6" y2="6.5"/>
	<line class="st1" x1="7.3" y1="27.7" x2="7.3" y2="27.7"/>
	<line class="st1" x1="3.5" y1="28" x2="3.5" y2="28"/>
	<line class="st1" x1="7.2" y1="31" x2="7.2" y2="31"/>
	<line class="st1" x1="2.6" y1="31.1" x2="2.6" y2="31.1"/>
	<line class="st1" x1="13" y1="29.8" x2="13" y2="29.8"/>
	<line class="st1" x1="14" y1="32.5" x2="14" y2="32.5"/>
	<line class="st1" x1="9.8" y1="33.8" x2="9.8" y2="33.8"/>
	<line class="st1" x1="4.8" y1="34.1" x2="4.8" y2="34.1"/>
	<line class="st1" x1="7.1" y1="36.8" x2="7.1" y2="36.8"/>
	<line class="st1" x1="11" y1="38.2" x2="11" y2="38.2"/>
	<line class="st1" x1="17.6" y1="33.1" x2="17.6" y2="33.1"/>
	<line class="st1" x1="12.7" y1="36" x2="12.7" y2="36"/>
	<line class="st1" x1="16.5" y1="29.8" x2="16.5" y2="29.8"/>
	<line class="st1" x1="16.2" y1="26.5" x2="16.2" y2="26.5"/>
	<line class="st1" x1="20.5" y1="26.4" x2="20.5" y2="26.4"/>
	<line class="st1" x1="20.1" y1="21.4" x2="20.1" y2="21.4"/>
	<line class="st1" x1="19.7" y1="17" x2="19.7" y2="17"/>
	<line class="st1" x1="11.8" y1="26.6" x2="11.8" y2="26.6"/>
	<line class="st1" x1="5.1" y1="24.8" x2="5.1" y2="24.8"/>
	<line class="st1" x1="3.8" y1="17.2" x2="3.8" y2="17.2"/>
	<line class="st1" x1="6.5" y1="20.2" x2="6.5" y2="20.2"/>
	<line class="st1" x1="10.5" y1="20.5" x2="10.5" y2="20.5"/>
	<line class="st1" x1="16.3" y1="20.4" x2="16.3" y2="20.4"/>
	<line class="st1" x1="2.5" y1="21" x2="2.5" y2="21"/>
	<line class="st1" x1="1" y1="25.2" x2="1" y2="25.2"/>
	<line class="st1" x1="13.8" y1="22.7" x2="13.8" y2="22.7"/>
	<line class="st1" x1="8.6" y1="24.2" x2="8.6" y2="24.2"/>
	<line class="st1" x1="34" y1="10" x2="34" y2="10"/>
	<line class="st1" x1="33.9" y1="13.3" x2="33.9" y2="13.3"/>
	<line class="st1" x1="29.3" y1="13.4" x2="29.3" y2="13.4"/>
	<line class="st1" x1="25.8" y1="13.2" x2="25.8" y2="13.2"/>
	<line class="st1" x1="26.8" y1="16.6" x2="26.8" y2="16.6"/>
	<line class="st1" x1="23.2" y1="19.8" x2="23.2" y2="19.8"/>
	<line class="st1" x1="23" y1="23.2" x2="23" y2="23.2"/>
	<line class="st1" x1="24.3" y1="26.6" x2="24.3" y2="26.6"/>
	<line class="st1" x1="26.1" y1="21.6" x2="26.1" y2="21.6"/>
	<line class="st1" x1="38" y1="13" x2="38" y2="13"/>
	<line class="st1" x1="40.7" y1="14.8" x2="40.7" y2="14.8"/>
	<line class="st1" x1="45.3" y1="14.8" x2="45.3" y2="14.8"/>
	<line class="st1" x1="41.1" y1="18.1" x2="41.1" y2="18.1"/>
	<line class="st1" x1="43.2" y1="12.1" x2="43.2" y2="12.1"/>
	<line class="st1" x1="43.7" y1="6.3" x2="43.7" y2="6.3"/>
	<line class="st1" x1="46.2" y1="10.1" x2="46.2" y2="10.1"/>
	<line class="st1" x1="46.5" y1="7" x2="46.5" y2="7"/>
	<line class="st1" x1="46.8" y1="3.7" x2="46.8" y2="3.7"/>
	<line class="st1" x1="38.6" y1="8.9" x2="38.6" y2="8.9"/>
	<line class="st1" x1="31.8" y1="7.1" x2="31.8" y2="7.1"/>
	<line class="st1" x1="33.2" y1="2.5" x2="33.2" y2="2.5"/>
	<line class="st1" x1="39.8" y1="0.8" x2="39.8" y2="0.8"/>
	<line class="st1" x1="43.1" y1="2.6" x2="43.1" y2="2.6"/>
	<line class="st1" x1="50.3" y1="79.3" x2="50.3" y2="79.3"/>
	<line class="st1" x1="29.3" y1="3.3" x2="29.3" y2="3.3"/>
	<line class="st1" x1="26" y1="4.3" x2="26" y2="4.3"/>
	<line class="st1" x1="25.1" y1="0.7" x2="25.1" y2="0.7"/>
	<line class="st1" x1="27.8" y1="7.5" x2="27.8" y2="7.5"/>
	<line class="st1" x1="40.6" y1="5" x2="40.6" y2="5"/>
	<line class="st1" x1="35.3" y1="6.5" x2="35.3" y2="6.5"/>
	<line class="st1" x1="34" y1="27.7" x2="34" y2="27.7"/>
	<line class="st1" x1="30.2" y1="28" x2="30.2" y2="28"/>
	<line class="st1" x1="26.8" y1="28.7" x2="26.8" y2="28.7"/>
	<line class="st1" x1="19.7" y1="29.8" x2="19.7" y2="29.8"/>
	<line class="st1" x1="33.9" y1="31" x2="33.9" y2="31"/>
	<line class="st1" x1="26" y1="32.1" x2="26" y2="32.1"/>
	<line class="st1" x1="25.2" y1="35.5" x2="25.2" y2="35.5"/>
	<line class="st1" x1="20.2" y1="36.3" x2="20.2" y2="36.3"/>
	<line class="st1" x1="22.7" y1="37.8" x2="22.7" y2="37.8"/>
	<line class="st1" x1="55.8" y1="33.6" x2="55.8" y2="33.6"/>
	<line class="st1" x1="52.3" y1="36" x2="52.3" y2="36"/>
	<line class="st1" x1="60.7" y1="35.8" x2="60.7" y2="35.8"/>
	<line class="st1" x1="76" y1="36.1" x2="76" y2="36.1"/>
	<line class="st1" x1="79.2" y1="38.8" x2="79.2" y2="38.8"/>
	<line class="st1" x1="21.7" y1="33.2" x2="21.7" y2="33.2"/>
	<line class="st1" x1="29.3" y1="31.1" x2="29.3" y2="31.1"/>
	<line class="st1" x1="39.7" y1="29.8" x2="39.7" y2="29.8"/>
	<line class="st1" x1="40.7" y1="32.5" x2="40.7" y2="32.5"/>
	<line class="st1" x1="36.6" y1="33.8" x2="36.6" y2="33.8"/>
	<line class="st1" x1="31.6" y1="34.1" x2="31.6" y2="34.1"/>
	<line class="st1" x1="33.8" y1="36.8" x2="33.8" y2="36.8"/>
	<line class="st1" x1="37.7" y1="38.2" x2="37.7" y2="38.2"/>
	<line class="st1" x1="45.4" y1="33.1" x2="45.4" y2="33.1"/>
	<line class="st1" x1="39.7" y1="36" x2="39.7" y2="36"/>
	<line class="st1" x1="43.2" y1="29.8" x2="43.2" y2="29.8"/>
	<line class="st1" x1="42.9" y1="26.5" x2="42.9" y2="26.5"/>
	<line class="st1" x1="46.6" y1="29.5" x2="46.6" y2="29.5"/>
	<line class="st1" x1="49" y1="26.6" x2="49" y2="26.6"/>
	<line class="st1" x1="51.7" y1="24.1" x2="51.7" y2="24.1"/>
	<line class="st1" x1="52.2" y1="27.6" x2="52.2" y2="27.6"/>
	<line class="st1" x1="55.6" y1="26.7" x2="55.6" y2="26.7"/>
	<line class="st1" x1="55.5" y1="30.1" x2="55.5" y2="30.1"/>
	<line class="st1" x1="59.2" y1="29.1" x2="59.2" y2="29.1"/>
	<line class="st1" x1="52.8" y1="31.2" x2="52.8" y2="31.2"/>
	<line class="st1" x1="49.5" y1="33.8" x2="49.5" y2="33.8"/>
	<line class="st1" x1="54.1" y1="21.2" x2="54.1" y2="21.2"/>
	<line class="st1" x1="46.6" y1="20.5" x2="46.6" y2="20.5"/>
	<line class="st1" x1="46.4" y1="17" x2="46.4" y2="17"/>
	<line class="st1" x1="38.6" y1="26.6" x2="38.6" y2="26.6"/>
	<line class="st1" x1="32.7" y1="25" x2="32.7" y2="25"/>
	<line class="st1" x1="46.8" y1="36.6" x2="46.8" y2="36.6"/>
	<line class="st1" x1="30.6" y1="17.2" x2="30.6" y2="17.2"/>
	<line class="st1" x1="33.2" y1="20.2" x2="33.2" y2="20.2"/>
	<line class="st1" x1="37.2" y1="20.5" x2="37.2" y2="20.5"/>
	<line class="st1" x1="43.1" y1="20.4" x2="43.1" y2="20.4"/>
	<line class="st1" x1="29" y1="20.1" x2="29" y2="20.1"/>
	<line class="st1" x1="26.7" y1="25.1" x2="26.7" y2="25.1"/>
	<line class="st1" x1="40.6" y1="22.7" x2="40.6" y2="22.7"/>
	<line class="st1" x1="36.2" y1="24" x2="36.2" y2="24"/>
	<line class="st1" x1="79.7" y1="11.4" x2="79.7" y2="11.4"/>
	<line class="st1" x1="79.7" y1="29.1" x2="79.7" y2="29.1"/>
	<line class="st1" x1="79.5" y1="18" x2="79.5" y2="18"/>
	<line class="st1" x1="71.9" y1="9.5" x2="71.9" y2="9.5"/>
	<line class="st1" x1="72" y1="12.8" x2="72" y2="12.8"/>
	<line class="st1" x1="76.6" y1="12.8" x2="76.6" y2="12.8"/>
	<line class="st1" x1="67.9" y1="12.4" x2="67.9" y2="12.4"/>
	<line class="st1" x1="65.2" y1="14.3" x2="65.2" y2="14.3"/>
	<line class="st1" x1="59.8" y1="13" x2="59.8" y2="13"/>
	<line class="st1" x1="63.8" y1="8.3" x2="63.8" y2="8.3"/>
	<line class="st1" x1="62.7" y1="11.5" x2="62.7" y2="11.5"/>
	<line class="st1" x1="62.2" y1="5.8" x2="62.2" y2="5.8"/>
	<line class="st1" x1="58.7" y1="8.1" x2="58.7" y2="8.1"/>
	<line class="st1" x1="59.1" y1="3.1" x2="59.1" y2="3.1"/>
	<line class="st1" x1="55.3" y1="1.3" x2="55.3" y2="1.3"/>
	<line class="st1" x1="52.7" y1="3.3" x2="52.7" y2="3.3"/>
	<line class="st1" x1="55.8" y1="4.2" x2="55.8" y2="4.2"/>
	<line class="st1" x1="53.7" y1="6.5" x2="53.7" y2="6.5"/>
	<line class="st1" x1="50.6" y1="7.8" x2="50.6" y2="7.8"/>
	<line class="st1" x1="49.7" y1="11.1" x2="49.7" y2="11.1"/>
	<line class="st1" x1="65.6" y1="18.7" x2="65.6" y2="18.7"/>
	<line class="st1" x1="48.2" y1="13.5" x2="48.2" y2="13.5"/>
	<line class="st1" x1="52.7" y1="14.5" x2="52.7" y2="14.5"/>
	<line class="st1" x1="53.3" y1="10" x2="53.3" y2="10"/>
	<line class="st1" x1="56.7" y1="14" x2="56.7" y2="14"/>
	<line class="st1" x1="55.7" y1="17.3" x2="55.7" y2="17.3"/>
	<line class="st1" x1="52" y1="18.5" x2="52" y2="18.5"/>
	<line class="st1" x1="50.1" y1="21.3" x2="50.1" y2="21.3"/>
	<line class="st1" x1="46.8" y1="24.6" x2="46.8" y2="24.6"/>
	<line class="st1" x1="67.3" y1="8.3" x2="67.3" y2="8.3"/>
	<line class="st1" x1="74.1" y1="6.5" x2="74.1" y2="6.5"/>
	<line class="st1" x1="72.7" y1="1.9" x2="72.7" y2="1.9"/>
	<line class="st1" x1="66.1" y1="0.7" x2="66.1" y2="0.7"/>
	<line class="st1" x1="68.5" y1="3" x2="68.5" y2="3"/>
	<line class="st1" x1="76.1" y1="9.5" x2="76.1" y2="9.5"/>
	<line class="st1" x1="78.1" y1="7" x2="78.1" y2="7"/>
	<line class="st1" x1="65.3" y1="4.5" x2="65.3" y2="4.5"/>
	<line class="st1" x1="21.8" y1="78.5" x2="21.8" y2="78.5"/>
	<line class="st1" x1="9.3" y1="79.8" x2="9.3" y2="79.8"/>
	<line class="st1" x1="1" y1="79.5" x2="1" y2="79.5"/>
	<line class="st1" x1="17.2" y1="79.1" x2="17.2" y2="79.1"/>
	<line class="st1" x1="29.7" y1="57" x2="29.7" y2="57"/>
	<line class="st1" x1="43.3" y1="78.6" x2="43.3" y2="78.6"/>
	<line class="st1" x1="29" y1="79.3" x2="29" y2="79.3"/>
	<line class="st1" x1="42.2" y1="71.5" x2="42.2" y2="71.5"/>
	<line class="st1" x1="57" y1="79.1" x2="57" y2="79.1"/>
	<line class="st1" x1="46.3" y1="79.8" x2="46.3" y2="79.8"/>
	<line class="st1" x1="76.2" y1="79.5" x2="76.2" y2="79.5"/>
	<line class="st1" x1="70" y1="79.6" x2="70" y2="79.6"/>
	<line class="st1" x1="62" y1="79.5" x2="62" y2="79.5"/>
	<line class="st1" x1="70.6" y1="6" x2="70.6" y2="6"/>
	<line class="st1" x1="71.9" y1="27.2" x2="71.9" y2="27.2"/>
	<line class="st1" x1="75.7" y1="27.4" x2="75.7" y2="27.4"/>
	<line class="st1" x1="72" y1="30.5" x2="72" y2="30.5"/>
	<line class="st1" x1="77.8" y1="33.2" x2="77.8" y2="33.2"/>
	<line class="st1" x1="66.2" y1="29.3" x2="66.2" y2="29.3"/>
	<line class="st1" x1="65.2" y1="32" x2="65.2" y2="32"/>
	<line class="st1" x1="69.3" y1="33.3" x2="69.3" y2="33.3"/>
	<line class="st1" x1="74.3" y1="33.5" x2="74.3" y2="33.5"/>
	<line class="st1" x1="72.1" y1="36.3" x2="72.1" y2="36.3"/>
	<line class="st1" x1="67" y1="38.7" x2="67" y2="38.7"/>
	<line class="st1" x1="60.5" y1="32.5" x2="60.5" y2="32.5"/>
	<line class="st1" x1="64.8" y1="35.2" x2="64.8" y2="35.2"/>
	<line class="st1" x1="67.8" y1="16.2" x2="67.8" y2="16.2"/>
	<line class="st1" x1="63" y1="25.9" x2="63" y2="25.9"/>
	<line class="st1" x1="61.5" y1="22.8" x2="61.5" y2="22.8"/>
	<line class="st1" x1="58.7" y1="25.9" x2="58.7" y2="25.9"/>
	<line class="st1" x1="59.1" y1="20.9" x2="59.1" y2="20.9"/>
	<line class="st1" x1="59.5" y1="16.5" x2="59.5" y2="16.5"/>
	<line class="st1" x1="67.3" y1="26" x2="67.3" y2="26"/>
	<line class="st1" x1="74.1" y1="24.2" x2="74.1" y2="24.2"/>
	<line class="st1" x1="69.3" y1="29.3" x2="69.3" y2="29.3"/>
	<line class="st1" x1="72.7" y1="19.6" x2="72.7" y2="19.6"/>
	<line class="st1" x1="68.7" y1="19.9" x2="68.7" y2="19.9"/>
	<line class="st1" x1="62.8" y1="19.8" x2="62.8" y2="19.8"/>
	<line class="st1" x1="76.6" y1="20.5" x2="76.6" y2="20.5"/>
	<line class="st1" x1="78.1" y1="24.7" x2="78.1" y2="24.7"/>
	<line class="st1" x1="65.3" y1="22.2" x2="65.3" y2="22.2"/>
	<line class="st1" x1="71.2" y1="16.1" x2="71.2" y2="16.1"/>
	<line class="st1" x1="7.3" y1="70.5" x2="7.3" y2="70.5"/>
	<line class="st1" x1="7.2" y1="67.2" x2="7.2" y2="67.2"/>
	<line class="st1" x1="2.6" y1="67.1" x2="2.6" y2="67.1"/>
	<line class="st1" x1="11.3" y1="67.5" x2="11.3" y2="67.5"/>
	<line class="st1" x1="14" y1="65.7" x2="14" y2="65.7"/>
	<line class="st1" x1="17.8" y1="56.7" x2="17.8" y2="56.7"/>
	<line class="st1" x1="23.2" y1="64.5" x2="23.2" y2="64.5"/>
	<line class="st1" x1="23.8" y1="73.5" x2="23.8" y2="73.5"/>
	<line class="st1" x1="20.8" y1="67.8" x2="20.8" y2="67.8"/>
	<line class="st1" x1="13" y1="62.6" x2="13" y2="62.6"/>
	<line class="st1" x1="17.3" y1="66.8" x2="17.3" y2="66.8"/>
	<line class="st1" x1="16.8" y1="71.8" x2="16.8" y2="71.8"/>
	<line class="st1" x1="20.5" y1="71.8" x2="20.5" y2="71.8"/>
	<line class="st1" x1="28.8" y1="43.1" x2="28.8" y2="43.1"/>
	<line class="st1" x1="20" y1="75.6" x2="20" y2="75.6"/>
	<line class="st1" x1="9.7" y1="72.3" x2="9.7" y2="72.3"/>
	<line class="st1" x1="5.1" y1="73.4" x2="5.1" y2="73.4"/>
	<line class="st1" x1="6" y1="78.8" x2="6" y2="78.8"/>
	<line class="st1" x1="14.3" y1="69.8" x2="14.3" y2="69.8"/>
	<line class="st1" x1="3.2" y1="70.1" x2="3.2" y2="70.1"/>
	<line class="st1" x1="1" y1="73" x2="1" y2="73"/>
	<line class="st1" x1="13.5" y1="74" x2="13.5" y2="74"/>
	<line class="st1" x1="12.3" y1="77.1" x2="12.3" y2="77.1"/>
	<line class="st1" x1="7.3" y1="52.8" x2="7.3" y2="52.8"/>
	<line class="st1" x1="3.5" y1="52.5" x2="3.5" y2="52.5"/>
	<line class="st1" x1="7.2" y1="49.5" x2="7.2" y2="49.5"/>
	<line class="st1" x1="18" y1="40.1" x2="18" y2="40.1"/>
	<line class="st1" x1="13" y1="50.7" x2="13" y2="50.7"/>
	<line class="st1" x1="14" y1="48" x2="14" y2="48"/>
	<line class="st1" x1="9.8" y1="46.7" x2="9.8" y2="46.7"/>
	<line class="st1" x1="4.8" y1="46.4" x2="4.8" y2="46.4"/>
	<line class="st1" x1="7.1" y1="43.7" x2="7.1" y2="43.7"/>
	<line class="st1" x1="13" y1="41.3" x2="13" y2="41.3"/>
	<line class="st1" x1="17.6" y1="47.4" x2="17.6" y2="47.4"/>
	<line class="st1" x1="12.7" y1="44.5" x2="12.7" y2="44.5"/>
	<line class="st1" x1="16.2" y1="44" x2="16.2" y2="44"/>
	<line class="st1" x1="16.2" y1="54" x2="16.2" y2="54"/>
	<line class="st1" x1="20.5" y1="54.1" x2="20.5" y2="54.1"/>
	<line class="st1" x1="20.1" y1="59.1" x2="20.1" y2="59.1"/>
	<line class="st1" x1="19.7" y1="63.5" x2="19.7" y2="63.5"/>
	<line class="st1" x1="11.8" y1="53.9" x2="11.8" y2="53.9"/>
	<line class="st1" x1="5.1" y1="55.7" x2="5.1" y2="55.7"/>
	<line class="st1" x1="1.3" y1="44.5" x2="1.3" y2="44.5"/>
	<line class="st1" x1="6.5" y1="60.3" x2="6.5" y2="60.3"/>
	<line class="st1" x1="10.5" y1="60" x2="10.5" y2="60"/>
	<line class="st1" x1="16.3" y1="60.2" x2="16.3" y2="60.2"/>
	<line class="st1" x1="2.5" y1="59.5" x2="2.5" y2="59.5"/>
	<line class="st1" x1="1" y1="55.3" x2="1" y2="55.3"/>
	<line class="st1" x1="13.8" y1="57.8" x2="13.8" y2="57.8"/>
	<line class="st1" x1="9" y1="64" x2="9" y2="64"/>
	<line class="st1" x1="34" y1="70.5" x2="34" y2="70.5"/>
	<line class="st1" x1="33.9" y1="67.2" x2="33.9" y2="67.2"/>
	<line class="st1" x1="29.3" y1="67.1" x2="29.3" y2="67.1"/>
	<line class="st1" x1="25.8" y1="67.3" x2="25.8" y2="67.3"/>
	<line class="st1" x1="26.8" y1="63.9" x2="26.8" y2="63.9"/>
	<line class="st1" x1="23.2" y1="60.7" x2="23.2" y2="60.7"/>
	<line class="st1" x1="23" y1="50.3" x2="23" y2="50.3"/>
	<line class="st1" x1="24.3" y1="53.9" x2="24.3" y2="53.9"/>
	<line class="st1" x1="26.1" y1="58.9" x2="26.1" y2="58.9"/>
	<line class="st1" x1="38" y1="67.5" x2="38" y2="67.5"/>
	<line class="st1" x1="40.7" y1="65.7" x2="40.7" y2="65.7"/>
	<line class="st1" x1="45.3" y1="65.7" x2="45.3" y2="65.7"/>
	<line class="st1" x1="41.1" y1="62.4" x2="41.1" y2="62.4"/>
	<line class="st1" x1="43.2" y1="68.4" x2="43.2" y2="68.4"/>
	<line class="st1" x1="43.7" y1="74.2" x2="43.7" y2="74.2"/>
	<line class="st1" x1="46.2" y1="70.4" x2="46.2" y2="70.4"/>
	<line class="st1" x1="46.5" y1="73.5" x2="46.5" y2="73.5"/>
	<line class="st1" x1="47.7" y1="76" x2="47.7" y2="76"/>
	<line class="st1" x1="38.6" y1="71.6" x2="38.6" y2="71.6"/>
	<line class="st1" x1="31.8" y1="73.4" x2="31.8" y2="73.4"/>
	<line class="st1" x1="33.2" y1="78" x2="33.2" y2="78"/>
	<line class="st1" x1="37.8" y1="78.5" x2="37.8" y2="78.5"/>
	<line class="st1" x1="29.5" y1="70" x2="29.5" y2="70"/>
	<line class="st1" x1="26" y1="76.2" x2="26" y2="76.2"/>
	<line class="st1" x1="27.8" y1="73" x2="27.8" y2="73"/>
	<line class="st1" x1="40.6" y1="75.5" x2="40.6" y2="75.5"/>
	<line class="st1" x1="36.3" y1="75" x2="36.3" y2="75"/>
	<line class="st1" x1="34" y1="52.8" x2="34" y2="52.8"/>
	<line class="st1" x1="30.2" y1="52.5" x2="30.2" y2="52.5"/>
	<line class="st1" x1="26.8" y1="51.8" x2="26.8" y2="51.8"/>
	<line class="st1" x1="19.7" y1="50.7" x2="19.7" y2="50.7"/>
	<line class="st1" x1="33.9" y1="49.5" x2="33.9" y2="49.5"/>
	<line class="st1" x1="26" y1="48.4" x2="26" y2="48.4"/>
	<line class="st1" x1="25.2" y1="45" x2="25.2" y2="45"/>
	<line class="st1" x1="20.2" y1="44.2" x2="20.2" y2="44.2"/>
	<line class="st1" x1="25.5" y1="39.8" x2="25.5" y2="39.8"/>
	<line class="st1" x1="55.8" y1="46.9" x2="55.8" y2="46.9"/>
	<line class="st1" x1="52.3" y1="44.5" x2="52.3" y2="44.5"/>
	<line class="st1" x1="60.7" y1="44.7" x2="60.7" y2="44.7"/>
	<line class="st1" x1="75" y1="39.5" x2="75" y2="39.5"/>
	<line class="st1" x1="71.2" y1="40.6" x2="71.2" y2="40.6"/>
	<line class="st1" x1="55.2" y1="39.1" x2="55.2" y2="39.1"/>
	<line class="st1" x1="50.2" y1="39.1" x2="50.2" y2="39.1"/>
	<line class="st1" x1="33.3" y1="40.1" x2="33.3" y2="40.1"/>
	<line class="st1" x1="29.5" y1="39.6" x2="29.5" y2="39.6"/>
	<line class="st1" x1="7.3" y1="40" x2="7.3" y2="40"/>
	<line class="st1" x1="4.2" y1="42" x2="4.2" y2="42"/>
	<line class="st1" x1="0.8" y1="39" x2="0.8" y2="39"/>
	<line class="st1" x1="79.2" y1="41.7" x2="79.2" y2="41.7"/>
	<line class="st1" x1="21.7" y1="47.3" x2="21.7" y2="47.3"/>
	<line class="st1" x1="29.3" y1="49.4" x2="29.3" y2="49.4"/>
	<line class="st1" x1="39.7" y1="50.7" x2="39.7" y2="50.7"/>
	<line class="st1" x1="40.7" y1="48" x2="40.7" y2="48"/>
	<line class="st1" x1="36.6" y1="46.7" x2="36.6" y2="46.7"/>
	<line class="st1" x1="31.6" y1="46.4" x2="31.6" y2="46.4"/>
	<line class="st1" x1="33.8" y1="43.7" x2="33.8" y2="43.7"/>
	<line class="st1" x1="39.5" y1="41.3" x2="39.5" y2="41.3"/>
	<line class="st1" x1="45.4" y1="47.4" x2="45.4" y2="47.4"/>
	<line class="st1" x1="39.7" y1="44.5" x2="39.7" y2="44.5"/>
	<line class="st1" x1="43.2" y1="43.6" x2="43.2" y2="43.6"/>
	<line class="st1" x1="42.9" y1="54" x2="42.9" y2="54"/>
	<line class="st1" x1="46.6" y1="51" x2="46.6" y2="51"/>
	<line class="st1" x1="49" y1="53.9" x2="49" y2="53.9"/>
	<line class="st1" x1="51.7" y1="56.4" x2="51.7" y2="56.4"/>
	<line class="st1" x1="52.2" y1="52.9" x2="52.2" y2="52.9"/>
	<line class="st1" x1="55.6" y1="53.8" x2="55.6" y2="53.8"/>
	<line class="st1" x1="56.5" y1="42.3" x2="56.5" y2="42.3"/>
	<line class="st1" x1="59.2" y1="51.4" x2="59.2" y2="51.4"/>
	<line class="st1" x1="52.8" y1="49.3" x2="52.8" y2="49.3"/>
	<line class="st1" x1="49.5" y1="46.7" x2="49.5" y2="46.7"/>
	<line class="st1" x1="54.1" y1="59.3" x2="54.1" y2="59.3"/>
	<line class="st1" x1="46.6" y1="60" x2="46.6" y2="60"/>
	<line class="st1" x1="46.4" y1="63.5" x2="46.4" y2="63.5"/>
	<line class="st1" x1="38.6" y1="53.9" x2="38.6" y2="53.9"/>
	<line class="st1" x1="32.7" y1="55.5" x2="32.7" y2="55.5"/>
	<line class="st1" x1="46.8" y1="43.9" x2="46.8" y2="43.9"/>
	<line class="st1" x1="35.5" y1="63.8" x2="35.5" y2="63.8"/>
	<line class="st1" x1="33.2" y1="60.3" x2="33.2" y2="60.3"/>
	<line class="st1" x1="37.2" y1="60" x2="37.2" y2="60"/>
	<line class="st1" x1="43.1" y1="60.2" x2="43.1" y2="60.2"/>
	<line class="st1" x1="29" y1="60.4" x2="29" y2="60.4"/>
	<line class="st1" x1="26.7" y1="55.4" x2="26.7" y2="55.4"/>
	<line class="st1" x1="40.6" y1="57.8" x2="40.6" y2="57.8"/>
	<line class="st1" x1="36.5" y1="51.1" x2="36.5" y2="51.1"/>
	<line class="st1" x1="79.7" y1="69.1" x2="79.7" y2="69.1"/>
	<line class="st1" x1="79.7" y1="51.4" x2="79.7" y2="51.4"/>
	<line class="st1" x1="79.5" y1="62.5" x2="79.5" y2="62.5"/>
	<line class="st1" x1="71.9" y1="71" x2="71.9" y2="71"/>
	<line class="st1" x1="72" y1="67.7" x2="72" y2="67.7"/>
	<line class="st1" x1="76.6" y1="67.7" x2="76.6" y2="67.7"/>
	<line class="st1" x1="67.9" y1="68.1" x2="67.9" y2="68.1"/>
	<line class="st1" x1="65.2" y1="66.2" x2="65.2" y2="66.2"/>
	<line class="st1" x1="59.8" y1="67.5" x2="59.8" y2="67.5"/>
	<line class="st1" x1="63.8" y1="72.2" x2="63.8" y2="72.2"/>
	<line class="st1" x1="8.7" y1="76.3" x2="8.7" y2="76.3"/>
	<line class="st1" x1="63" y1="75" x2="63" y2="75"/>
	<line class="st1" x1="58.7" y1="72.4" x2="58.7" y2="72.4"/>
	<line class="st1" x1="59.7" y1="76.5" x2="59.7" y2="76.5"/>
	<line class="st1" x1="52.7" y1="77.2" x2="52.7" y2="77.2"/>
	<line class="st1" x1="56.8" y1="70.3" x2="56.8" y2="70.3"/>
	<line class="st1" x1="53.7" y1="74" x2="53.7" y2="74"/>
	<line class="st1" x1="50.6" y1="72.7" x2="50.6" y2="72.7"/>
	<line class="st1" x1="44.5" y1="39.8" x2="44.5" y2="39.8"/>
	<line class="st1" x1="65.6" y1="61.8" x2="65.6" y2="61.8"/>
	<line class="st1" x1="48.2" y1="67" x2="48.2" y2="67"/>
	<line class="st1" x1="52.7" y1="66" x2="52.7" y2="66"/>
	<line class="st1" x1="53.3" y1="70.5" x2="53.3" y2="70.5"/>
	<line class="st1" x1="56.7" y1="66.5" x2="56.7" y2="66.5"/>
	<line class="st1" x1="61.7" y1="39.3" x2="61.7" y2="39.3"/>
	<line class="st1" x1="52" y1="62" x2="52" y2="62"/>
	<line class="st1" x1="50.1" y1="59.2" x2="50.1" y2="59.2"/>
	<line class="st1" x1="44.8" y1="56.6" x2="44.8" y2="56.6"/>
	<line class="st1" x1="67.3" y1="72.2" x2="67.3" y2="72.2"/>
	<line class="st1" x1="74.1" y1="74" x2="74.1" y2="74"/>
	<line class="st1" x1="78.7" y1="76.3" x2="78.7" y2="76.3"/>
	<line class="st1" x1="73" y1="77.3" x2="73" y2="77.3"/>
	<line class="st1" x1="75.7" y1="64.3" x2="75.7" y2="64.3"/>
	<line class="st1" x1="68.2" y1="44" x2="68.2" y2="44"/>
	<line class="st1" x1="78.1" y1="73.5" x2="78.1" y2="73.5"/>
	<line class="st1" x1="65.7" y1="77.5" x2="65.7" y2="77.5"/>
	<line class="st1" x1="69.8" y1="73.6" x2="69.8" y2="73.6"/>
	<line class="st1" x1="71.9" y1="53.3" x2="71.9" y2="53.3"/>
	<line class="st1" x1="75.7" y1="53.1" x2="75.7" y2="53.1"/>
	<line class="st1" x1="72" y1="50" x2="72" y2="50"/>
	<line class="st1" x1="77.8" y1="47.3" x2="77.8" y2="47.3"/>
	<line class="st1" x1="66.2" y1="51.2" x2="66.2" y2="51.2"/>
	<line class="st1" x1="65.2" y1="48.5" x2="65.2" y2="48.5"/>
	<line class="st1" x1="69.3" y1="47.2" x2="69.3" y2="47.2"/>
	<line class="st1" x1="74.3" y1="47" x2="74.3" y2="47"/>
	<line class="st1" x1="72.1" y1="44.2" x2="72.1" y2="44.2"/>
	<line class="st1" x1="67" y1="41.8" x2="67" y2="41.8"/>
	<line class="st1" x1="60.5" y1="48" x2="60.5" y2="48"/>
	<line class="st1" x1="64.8" y1="45.3" x2="64.8" y2="45.3"/>
	<line class="st1" x1="67.8" y1="64.3" x2="67.8" y2="64.3"/>
	<line class="st1" x1="63" y1="54.6" x2="63" y2="54.6"/>
	<line class="st1" x1="57" y1="57" x2="57" y2="57"/>
	<line class="st1" x1="58.7" y1="54.7" x2="58.7" y2="54.7"/>
	<line class="st1" x1="59.1" y1="59.7" x2="59.1" y2="59.7"/>
	<line class="st1" x1="59.5" y1="64" x2="59.5" y2="64"/>
	<line class="st1" x1="67.3" y1="54.5" x2="67.3" y2="54.5"/>
	<line class="st1" x1="74.1" y1="56.3" x2="74.1" y2="56.3"/>
	<line class="st1" x1="70" y1="57" x2="70" y2="57"/>
	<line class="st1" x1="72.7" y1="60.9" x2="72.7" y2="60.9"/>
	<line class="st1" x1="68.7" y1="60.6" x2="68.7" y2="60.6"/>
	<line class="st1" x1="62.8" y1="60.7" x2="62.8" y2="60.7"/>
	<line class="st1" x1="76.6" y1="60" x2="76.6" y2="60"/>
	<line class="st1" x1="78.1" y1="55.8" x2="78.1" y2="55.8"/>
	<line class="st1" x1="65.3" y1="58.3" x2="65.3" y2="58.3"/>
	<line class="st1" x1="10.2" y1="49.8" x2="10.2" y2="49.8"/>
</g>
</svg>
